<?xml version="1.0" encoding="utf-8"?>
<!-- Generator: Adobe Illustrator 25.2.1, SVG Export Plug-In . SVG Version: 6.00 Build 0)  -->
<svg version="1.1" id="Layer_1" xmlns="http://www.w3.org/2000/svg" xmlns:xlink="http://www.w3.org/1999/xlink" x="0px" y="0px"
	 viewBox="0 0 25 25" style="enable-background:new 0 0 25 25;" xml:space="preserve">
<style type="text/css">
	.st0{fill:#FFFFFF;}
</style>
<g id="Layer_3">
</g>
<g id="Layer_2_1_">
</g>
<g id="Isolation_Mode">
</g>
<path class="st0" d="M0.5,16L2.1,4.3c0.2-1.5,1.5-2.6,3-2.6h14.8c1.5,0,2.8,1.1,3,2.6L24.5,16v0c-0.5-0.6-1.3-1-2.2-1H2.4
	C1.6,15,0.9,15.3,0.5,16L0.5,16z"/>
<path class="st0" d="M22.7,17.2H2.3c-1,0-1.8,0.8-1.8,1.8v2.9c0,1,0.8,1.8,1.8,1.8h20.4c1,0,1.8-0.8,1.8-1.8V19
	C24.5,18,23.7,17.2,22.7,17.2z M21.4,21.6c-0.6,0-1.2-0.5-1.2-1.2s0.5-1.2,1.2-1.2c0.6,0,1.2,0.5,1.2,1.2S22,21.6,21.4,21.6z"/>
</svg>
