<?xml version="1.0" encoding="utf-8"?>
<!-- Generator: Adobe Illustrator 25.2.1, SVG Export Plug-In . SVG Version: 6.00 Build 0)  -->
<svg version="1.1" id="Layer_1" xmlns="http://www.w3.org/2000/svg" xmlns:xlink="http://www.w3.org/1999/xlink" x="0px" y="0px"
	 viewBox="0 0 36 25" style="enable-background:new 0 0 36 25;" xml:space="preserve">
<style type="text/css">
	.st0{fill:#FFFFFF;}
	.st1{fill:#E70C00;}
</style>
<g id="Layer_3">
</g>
<g id="Layer_2_1_">
</g>
<g id="Isolation_Mode">
</g>
<path class="st0" d="M31.6,18.5c0-4.5-3.6-8.1-8.1-8.1s-8.1,3.6-8.1,8.1S19,23,23.5,23S31.6,22.9,31.6,18.5z"/>
<circle class="st0" cx="23.5" cy="6.5" r="5.2"/>
<g>
	<g>
		<path class="st1" d="M3.3,19.7c-0.6,0-1.2-0.3-1.5-0.9c-0.3-0.6-0.3-1.2,0-1.8L8,6.2c0.3-0.6,0.9-0.9,1.5-0.9
			c0.6,0,1.2,0.3,1.5,0.9l6.3,10.9c0.3,0.6,0.3,1.2,0,1.8c-0.3,0.6-0.9,0.9-1.5,0.9H3.3z"/>
		<path class="st0" d="M9.6,6c0.4,0,0.7,0.2,0.9,0.5l6.3,10.9c0.4,0.7-0.1,1.6-0.9,1.6H3.3c-0.8,0-1.4-0.9-0.9-1.6L8.6,6.5
			C8.8,6.1,9.2,6,9.6,6 M9.6,4.6C8.7,4.6,7.9,5,7.4,5.8L1.1,16.7c-0.4,0.8-0.4,1.7,0,2.5c0.4,0.8,1.3,1.2,2.1,1.2h12.6
			c0.9,0,1.7-0.5,2.1-1.2c0.4-0.8,0.4-1.7,0-2.5L11.7,5.8C11.3,5,10.5,4.6,9.6,4.6L9.6,4.6z"/>
	</g>
	<circle class="st0" cx="9.6" cy="16.6" r="1.2"/>
	<path class="st0" d="M10.7,9.6c0-0.6-0.5-1.2-1.2-1.2c-0.6,0-1.2,0.5-1.2,1.2s0.5,4.7,1.2,4.7C10.2,14.3,10.7,10.2,10.7,9.6z"/>
</g>
</svg>
