<?xml version="1.0" encoding="utf-8"?>
<!-- Generator: Adobe Illustrator 25.2.1, SVG Export Plug-In . SVG Version: 6.00 Build 0)  -->
<svg version="1.1" id="Layer_1" xmlns="http://www.w3.org/2000/svg" xmlns:xlink="http://www.w3.org/1999/xlink" x="0px" y="0px"
	 viewBox="0 0 24 24" style="enable-background:new 0 0 24 24;" xml:space="preserve">
<style type="text/css">
	.st0{fill:none;}
	.st1{fill:#FFFFFF;}
</style>
<g id="Layer_2_1_">
	<g id="Header">
		<path class="st0" d="M2.2,0h19.5C23,0,24,1,24,2.2v19.5c0,1.2-1,2.2-2.2,2.2H2.2C1,24,0,23,0,21.8V2.2C0,1,1,0,2.2,0z"/>
		<path class="st1" d="M21.7,19.5L16.8,15c2.7-3.7,2-8.9-1.7-11.6s-8.9-2-11.6,1.7s-2,8.9,1.7,11.6c2.6,1.9,6.1,2.2,9,0.6l5,4.6
			c0.7,0.6,1.8,0.6,2.5,0l0.1-0.1c0.6-0.6,0.7-1.5,0.1-2.2C21.8,19.6,21.7,19.6,21.7,19.5z M5.2,10c0-2.8,2.2-5,5-5s5,2.2,5,5
			s-2.2,5-5,5l0,0C7.4,15,5.2,12.8,5.2,10z"/>
	</g>
</g>
</svg>
