<?xml version="1.0" encoding="utf-8"?>
<!-- Generator: Adobe Illustrator 25.2.1, SVG Export Plug-In . SVG Version: 6.00 Build 0)  -->
<svg version="1.1" id="Layer_1" xmlns="http://www.w3.org/2000/svg" xmlns:xlink="http://www.w3.org/1999/xlink" x="0px" y="0px"
	 viewBox="0 0 36 25" style="enable-background:new 0 0 36 25;" xml:space="preserve">
<style type="text/css">
	.st0{fill:#FFFFFF;}
	.st1{fill:#E70C00;}
</style>
<g id="Layer_3">
</g>
<g id="Layer_2_1_">
</g>
<g id="Isolation_Mode">
</g>
<path class="st0" d="M23.5,1.3c6,0,10.9,4.9,10.9,10.9S29.5,23,23.5,23c-5,0-9.2-3.3-10.5-7.9l4.2,1.7c0.3,1.4,1.5,2.5,3,2.5
	c1.7,0,3.1-1.4,3.1-3.1v-0.1l3.7-2.6h0.1c2.3,0,4.1-1.8,4.1-4.1s-1.8-4.1-4.1-4.1S23,7.1,23,9.4v0.1l-2.6,3.8h-0.2
	c-0.6,0-1.2,0.2-1.7,0.5l-5.8-2.4C13.1,5.7,17.8,1.3,23.5,1.3 M19.5,17.8c0.9,0.4,1.9,0,2.2-0.9c0.3-0.9-0.1-1.9-0.9-2.2l-1.4-0.6
	c0.5-0.2,1.1-0.2,1.7,0s1,0.7,1.2,1.2c0.2,0.6,0.2,1.2,0,1.8c-0.5,1.2-1.8,1.7-3,1.2c-0.5-0.2-1-0.6-1.2-1.1L19.5,17.8 M29.8,9.4
	c0,1.5-1.2,2.7-2.7,2.7s-2.7-1.2-2.7-2.7s1.2-2.7,2.7-2.7l0,0C28.6,6.6,29.8,7.9,29.8,9.4 M25,9.4c0,1.1,0.9,2.1,2.1,2.1
	c1.1,0,2-0.9,2-2.1s-0.9-2.1-2-2.1C25.9,7.3,25,8.2,25,9.4z"/>
<g>
	<g>
		<path class="st1" d="M3.3,19.7c-0.6,0-1.2-0.3-1.5-0.9c-0.3-0.6-0.3-1.2,0-1.8L8,6.2c0.3-0.6,0.9-0.9,1.5-0.9
			c0.6,0,1.2,0.3,1.5,0.9l6.3,10.9c0.3,0.6,0.3,1.2,0,1.8c-0.3,0.6-0.9,0.9-1.5,0.9H3.3z"/>
		<path class="st0" d="M9.6,6c0.4,0,0.7,0.2,0.9,0.5l6.3,10.9c0.4,0.7-0.1,1.6-0.9,1.6H3.3c-0.8,0-1.4-0.9-0.9-1.6L8.6,6.5
			C8.8,6.1,9.2,6,9.6,6 M9.6,4.6C8.7,4.6,7.9,5,7.4,5.8L1.1,16.7c-0.4,0.8-0.4,1.7,0,2.5c0.4,0.8,1.3,1.2,2.1,1.2h12.6
			c0.9,0,1.7-0.5,2.1-1.2c0.4-0.8,0.4-1.7,0-2.5L11.7,5.8C11.3,5,10.5,4.6,9.6,4.6L9.6,4.6z"/>
	</g>
	<circle class="st0" cx="9.6" cy="16.6" r="1.2"/>
	<path class="st0" d="M10.7,9.6c0-0.6-0.5-1.2-1.2-1.2c-0.6,0-1.2,0.5-1.2,1.2s0.5,4.7,1.2,4.7C10.2,14.3,10.7,10.2,10.7,9.6z"/>
</g>
</svg>
