<?xml version="1.0" encoding="utf-8"?>
<!-- Generator: Adobe Illustrator 25.2.1, SVG Export Plug-In . SVG Version: 6.00 Build 0)  -->
<svg version="1.1" id="Layer_1" xmlns="http://www.w3.org/2000/svg" xmlns:xlink="http://www.w3.org/1999/xlink" x="0px" y="0px"
	 viewBox="0 0 25 25" style="enable-background:new 0 0 25 25;" xml:space="preserve">
<style type="text/css">
	.st0{fill:#FFFFFF;}
</style>
<g id="Layer_3">
</g>
<g id="Layer_2_1_">
</g>
<g id="Isolation_Mode">
</g>
<path class="st0" d="M12.5,1.3c6,0,10.9,4.9,10.9,10.9S18.5,23,12.5,23c-5,0-9.2-3.3-10.5-7.9l4.2,1.7c0.3,1.4,1.5,2.5,3,2.5
	c1.7,0,3.1-1.4,3.1-3.1v-0.1l3.7-2.6h0.1c2.3,0,4.1-1.8,4.1-4.1s-1.8-4.1-4.1-4.1S12,7.1,12,9.4v0.1l-2.6,3.8l-0.2,0
	c-0.6,0-1.2,0.2-1.7,0.5l-5.8-2.4C2.1,5.7,6.8,1.3,12.5,1.3 M8.5,17.8c0.9,0.4,1.9,0,2.2-0.9C11,16,10.6,15,9.8,14.7l-1.4-0.6
	c0.5-0.2,1.1-0.2,1.7,0c0.6,0.2,1,0.7,1.2,1.2c0.2,0.6,0.2,1.2,0,1.8c-0.5,1.2-1.8,1.7-3,1.2c-0.5-0.2-1-0.6-1.2-1.1L8.5,17.8
	 M18.8,9.4c0,1.5-1.2,2.7-2.7,2.7c-1.5,0-2.7-1.2-2.7-2.7c0-1.5,1.2-2.7,2.7-2.7c0,0,0,0,0,0C17.6,6.6,18.8,7.9,18.8,9.4 M14,9.4
	c0,1.1,0.9,2.1,2.1,2.1c1.1,0,2-0.9,2-2.1s-0.9-2.1-2-2.1C14.9,7.3,14,8.2,14,9.4z"/>
</svg>
