<svg xmlns="http://www.w3.org/2000/svg" viewBox="0 0 17.4 15.8"><defs><style>.cls-1{fill:#e70c00;}.cls-2{fill:#fff;}</style></defs><g id="Layer_2" data-name="Layer 2"><g id="Layer_1-2" data-name="Layer 1"><path class="cls-1" d="M2.5,15.1A1.65,1.65,0,0,1,1,14.2a1.91,1.91,0,0,1,0-1.8L7.2,1.6a1.7,1.7,0,0,1,3,0l6.3,10.9a1.91,1.91,0,0,1,0,1.8,1.65,1.65,0,0,1-1.5.9H2.5Z"/><path class="cls-2" d="M8.8,1.4a1.05,1.05,0,0,1,.9.5L16,12.8a1.07,1.07,0,0,1-.9,1.6H2.5a1,1,0,0,1-.9-1.6L7.8,1.9a1,1,0,0,1,1-.5M8.8,0A2.51,2.51,0,0,0,6.6,1.2L.3,12.1a2.75,2.75,0,0,0,0,2.5,2.35,2.35,0,0,0,2.1,1.2H15a2.44,2.44,0,0,0,2.1-1.2,2.75,2.75,0,0,0,0-2.5L10.9,1.2A2.25,2.25,0,0,0,8.8,0Z"/><circle class="cls-2" cx="8.8" cy="12" r="1.2"/><path class="cls-2" d="M9.9,5A1.2,1.2,0,0,0,7.5,5c0,.7.5,4.7,1.2,4.7S9.9,5.6,9.9,5Z"/></g></g></svg>