<?xml version="1.0" encoding="utf-8"?>
<!-- Generator: Adobe Illustrator 16.0.4, SVG Export Plug-In . SVG Version: 6.00 Build 0)  -->
<!DOCTYPE svg PUBLIC "-//W3C//DTD SVG 1.1//EN" "http://www.w3.org/Graphics/SVG/1.1/DTD/svg11.dtd">
<svg version="1.1" xmlns="http://www.w3.org/2000/svg" xmlns:xlink="http://www.w3.org/1999/xlink" x="0px" y="0px" width="32px"
	 height="32px" viewBox="0 0 32 32" enable-background="new 0 0 32 32" xml:space="preserve">
<g id="Layer_3" display="none">
</g>
<g id="Layer_2">
</g>
<g id="Layer_1">
	<g>
		<g>
			<g>
				<defs>
					<path id="SVGID_5425_" d="M-31.183,4.201c-2.331,0-4.22,1.889-4.22,4.223v15.16c0,2.322,1.889,4.215,4.22,4.215h22.365
						c2.331,0,4.221-1.893,4.221-4.215V8.424c0-2.334-1.89-4.223-4.221-4.223H-31.183z"/>
				</defs>
				<clipPath id="SVGID_2_">
					<use xlink:href="#SVGID_5425_"  overflow="visible"/>
				</clipPath>
				
					<linearGradient id="SVGID_3_" gradientUnits="userSpaceOnUse" x1="-61.8384" y1="-676.9561" x2="-59.6321" y2="-676.9561" gradientTransform="matrix(4.3973 14.3829 14.3829 -4.3973 9983.6289 -2087.334)">
					<stop  offset="0" style="stop-color:#FFFFFF"/>
					<stop  offset="1" style="stop-color:#D0D0D0"/>
				</linearGradient>
				<polygon clip-path="url(#SVGID_2_)" fill="url(#SVGID_3_)" points="-8.548,-6.129 2,25.781 -32.181,38.129 -42,6.221 				"/>
			</g>
		</g>
	</g>
	<g>
		<g>
			<g>
				<defs>
					<path id="SVGID_5431_" d="M4.817,4.201c-2.331,0-4.22,1.889-4.22,4.223v15.16c0,2.322,1.889,4.215,4.22,4.215h22.365
						c2.331,0,4.221-1.893,4.221-4.215V8.424c0-2.334-1.89-4.223-4.221-4.223H4.817z"/>
				</defs>
				<clipPath id="SVGID_5_">
					<use xlink:href="#SVGID_5431_"  overflow="visible"/>
				</clipPath>
				
					<linearGradient id="SVGID_6_" gradientUnits="userSpaceOnUse" x1="-61.1387" y1="-674.667" x2="-58.9324" y2="-674.667" gradientTransform="matrix(4.3973 14.3829 14.3829 -4.3973 9983.6289 -2087.334)">
					<stop  offset="0" style="stop-color:#FFFFFF"/>
					<stop  offset="1" style="stop-color:#D0D0D0"/>
				</linearGradient>
				<polygon clip-path="url(#SVGID_5_)" fill="url(#SVGID_6_)" points="27.452,-6.129 38,25.781 3.819,38.129 -6,6.221 				"/>
			</g>
			<path fill="none" stroke="#5C5C5C" stroke-width="0.5198" stroke-linejoin="round" d="M31.403,23.582
				c0,2.324-1.892,4.217-4.217,4.217H4.815c-2.331,0-4.218-1.893-4.218-4.217V8.424c0-2.336,1.887-4.217,4.218-4.217h22.371
				c2.325,0,4.217,1.881,4.217,4.217V23.582z"/>
			<g>
				<defs>
					<path id="SVGID_5434_" d="M4.927,5.416c-1.742,0-3.157,1.418-3.157,3.164v14.84c0,1.742,1.415,3.164,3.157,3.164h22.14
						c1.745,0,3.161-1.422,3.161-3.164V8.58c0-1.746-1.416-3.164-3.161-3.164H4.927z"/>
				</defs>
				<clipPath id="SVGID_8_">
					<use xlink:href="#SVGID_5434_"  overflow="visible"/>
				</clipPath>
				
					<linearGradient id="SVGID_9_" gradientUnits="userSpaceOnUse" x1="-32.2559" y1="-656.2832" x2="-30.1772" y2="-656.2832" gradientTransform="matrix(0 10.1826 10.1826 0 6698.6719 333.8647)">
					<stop  offset="0" style="stop-color:#FFFFFF"/>
					<stop  offset="1" style="stop-color:#F3F3F3"/>
				</linearGradient>
				<rect x="1.77" y="5.416" clip-path="url(#SVGID_8_)" fill="url(#SVGID_9_)" width="28.458" height="21.168"/>
			</g>
			<path fill="none" stroke="#FAFAFA" stroke-width="0.5198" stroke-linejoin="round" d="M30.227,23.424
				c0,1.742-1.415,3.16-3.162,3.16H4.93c-1.742,0-3.162-1.418-3.162-3.16V8.58c0-1.746,1.42-3.166,3.162-3.166h22.135
				c1.747,0,3.162,1.42,3.162,3.166V23.424z"/>
		</g>
		<g>
			<path d="M9.67,11.916h3.412c0.334,0,0.58-0.154,0.58-0.576c0-0.414-0.246-0.547-0.58-0.547H9.123
				c-0.422,0-0.648,0.266-0.648,0.652v9.121c0,0.41,0.24,0.641,0.613,0.641c0.354,0,0.582-0.23,0.582-0.641v-4.051h3.061
				c0.352,0,0.617-0.207,0.617-0.547c0-0.389-0.266-0.58-0.617-0.58H9.67V11.916"/>
			<path d="M17.035,11.84v8.73c0,0.406,0.256,0.637,0.605,0.637c0.352,0,0.592-0.23,0.592-0.637v-9.486
				c0-0.252-0.145-0.285-0.4-0.285H15.73c-0.289,0-0.508,0.207-0.508,0.51c0,0.318,0.219,0.531,0.508,0.531H17.035"/>
			<path d="M22.359,11.84v8.73c0,0.406,0.207,0.637,0.568,0.637c0.342,0,0.598-0.23,0.598-0.637v-9.486
				c0-0.252-0.141-0.285-0.371-0.285h-2.162c-0.242,0-0.484,0.207-0.484,0.51c0,0.318,0.242,0.531,0.484,0.531H22.359"/>
		</g>
	</g>
	<g>
		<g>
			<g>
				<defs>
					<path id="SVGID_5437_" d="M40.817,4.201c-2.331,0-4.22,1.889-4.22,4.223v15.16c0,2.322,1.889,4.215,4.22,4.215h22.365
						c2.331,0,4.221-1.893,4.221-4.215V8.424c0-2.334-1.89-4.223-4.221-4.223H40.817z"/>
				</defs>
				<clipPath id="SVGID_11_">
					<use xlink:href="#SVGID_5437_"  overflow="visible"/>
				</clipPath>
				
					<linearGradient id="SVGID_12_" gradientUnits="userSpaceOnUse" x1="-60.4385" y1="-672.3779" x2="-58.2326" y2="-672.3779" gradientTransform="matrix(4.3973 14.3829 14.3829 -4.3973 9983.6289 -2087.334)">
					<stop  offset="0" style="stop-color:#FFFFFF"/>
					<stop  offset="1" style="stop-color:#D0D0D0"/>
				</linearGradient>
				<polygon clip-path="url(#SVGID_11_)" fill="url(#SVGID_12_)" points="63.452,-6.129 74,25.781 39.819,38.129 30,6.221 				"/>
			</g>
		</g>
	</g>
</g>
<g id="Language_specific">
</g>
<g id="Layer_5">
</g>
</svg>
