<?xml version="1.0" encoding="utf-8"?>
<!-- Generator: Adobe Illustrator 16.0.4, SVG Export Plug-In . SVG Version: 6.00 Build 0)  -->
<!DOCTYPE svg PUBLIC "-//W3C//DTD SVG 1.1//EN" "http://www.w3.org/Graphics/SVG/1.1/DTD/svg11.dtd">
<svg version="1.1" xmlns="http://www.w3.org/2000/svg" xmlns:xlink="http://www.w3.org/1999/xlink" x="0px" y="0px" width="32px"
	 height="32px" viewBox="0 0 32 32" enable-background="new 0 0 32 32" xml:space="preserve">
<g id="Layer_3" display="none">
</g>
<g id="Layer_2">
</g>
<g id="Layer_1">
	<g>
		<g>
			<g>
				<defs>
					<path id="SVGID_5437_" d="M-31.183,4.201c-2.331,0-4.22,1.889-4.22,4.223v15.16c0,2.322,1.889,4.215,4.22,4.215h22.365
						c2.331,0,4.221-1.893,4.221-4.215V8.424c0-2.334-1.89-4.223-4.221-4.223H-31.183z"/>
				</defs>
				<clipPath id="SVGID_2_">
					<use xlink:href="#SVGID_5437_"  overflow="visible"/>
				</clipPath>
				
					<linearGradient id="SVGID_3_" gradientUnits="userSpaceOnUse" x1="-132.4385" y1="-672.3779" x2="-130.2326" y2="-672.3779" gradientTransform="matrix(4.3973 14.3829 14.3829 -4.3973 10228.2344 -1051.7656)">
					<stop  offset="0" style="stop-color:#FFFFFF"/>
					<stop  offset="1" style="stop-color:#D0D0D0"/>
				</linearGradient>
				<polygon clip-path="url(#SVGID_2_)" fill="url(#SVGID_3_)" points="-8.548,-6.129 2,25.781 -32.181,38.129 -42,6.221 				"/>
			</g>
		</g>
	</g>
	<g>
		<g>
			<g>
				<defs>
					<path id="SVGID_5455_" d="M4.817,4.201c-2.331,0-4.22,1.889-4.22,4.223v15.16c0,2.322,1.889,4.215,4.22,4.215h22.365
						c2.331,0,4.221-1.893,4.221-4.215V8.424c0-2.334-1.89-4.223-4.221-4.223H4.817z"/>
				</defs>
				<clipPath id="SVGID_5_">
					<use xlink:href="#SVGID_5455_"  overflow="visible"/>
				</clipPath>
				
					<linearGradient id="SVGID_6_" gradientUnits="userSpaceOnUse" x1="-131.7388" y1="-670.0898" x2="-129.5329" y2="-670.0898" gradientTransform="matrix(4.3973 14.3829 14.3829 -4.3973 10228.2344 -1051.7656)">
					<stop  offset="0" style="stop-color:#FFFFFF"/>
					<stop  offset="1" style="stop-color:#D0D0D0"/>
				</linearGradient>
				<polygon clip-path="url(#SVGID_5_)" fill="url(#SVGID_6_)" points="27.452,-6.129 38,25.781 3.819,38.129 -6,6.221 				"/>
			</g>
			<path fill="none" stroke="#5C5C5C" stroke-width="0.5198" stroke-linejoin="round" d="M31.403,23.582
				c0,2.324-1.892,4.217-4.217,4.217H4.815c-2.331,0-4.218-1.893-4.218-4.217V8.424c0-2.336,1.887-4.217,4.218-4.217h22.371
				c2.325,0,4.217,1.881,4.217,4.217V23.582z"/>
			<g>
				<defs>
					<path id="SVGID_5458_" d="M4.927,5.416c-1.742,0-3.157,1.418-3.157,3.164v14.84c0,1.742,1.415,3.164,3.157,3.164h22.14
						c1.745,0,3.161-1.422,3.161-3.164V8.58c0-1.746-1.416-3.164-3.161-3.164H4.927z"/>
				</defs>
				<clipPath id="SVGID_8_">
					<use xlink:href="#SVGID_5458_"  overflow="visible"/>
				</clipPath>
				
					<linearGradient id="SVGID_9_" gradientUnits="userSpaceOnUse" x1="-104.2559" y1="-649.2129" x2="-102.1772" y2="-649.2129" gradientTransform="matrix(0 10.1826 10.1826 0 6626.6719 1067.012)">
					<stop  offset="0" style="stop-color:#FFFFFF"/>
					<stop  offset="1" style="stop-color:#F3F3F3"/>
				</linearGradient>
				<rect x="1.77" y="5.416" clip-path="url(#SVGID_8_)" fill="url(#SVGID_9_)" width="28.458" height="21.168"/>
			</g>
			<path fill="none" stroke="#FAFAFA" stroke-width="0.5198" stroke-linejoin="round" d="M30.227,23.424
				c0,1.742-1.415,3.16-3.162,3.16H4.93c-1.742,0-3.162-1.418-3.162-3.16V8.58c0-1.746,1.42-3.166,3.162-3.166h22.135
				c1.747,0,3.162,1.42,3.162,3.166V23.424z"/>
		</g>
		<g>
			<path d="M7.818,20.664c0,0.432-0.25,0.701-0.654,0.701c-0.396,0-0.646-0.27-0.646-0.701v-9.236c0-0.4,0.207-0.711,0.688-0.711
				h3.713c0.369,0,0.639,0.193,0.639,0.615c0,0.41-0.27,0.605-0.639,0.605h-3.1v3.451h2.744c0.373,0,0.635,0.193,0.635,0.609
				c0,0.412-0.262,0.611-0.635,0.611H7.818V20.664z"/>
			<path d="M14.873,11.844H13.51c-0.309,0-0.561-0.252-0.561-0.562c0-0.312,0.252-0.57,0.561-0.57h2.27c0.264,0,0.4,0.039,0.4,0.357
				v9.596c0,0.438-0.254,0.703-0.654,0.703c-0.396,0-0.652-0.266-0.652-0.703V11.844z"/>
			<path d="M22.117,21.367c-2.201,0-3.092-1.648-3.092-2.436c0-0.453,0.24-0.725,0.555-0.725c0.383,0,0.576,0.225,0.727,0.682
				c0.246,0.756,0.783,1.354,1.777,1.354c1.172,0,2.002-0.883,2.002-1.957c0-1.572-0.861-1.98-1.844-1.98
				c-0.521,0-0.801-0.223-0.801-0.559c0-0.303,0.195-0.461,0.693-0.572c1.049-0.227,1.473-0.732,1.473-1.699
				c0-1.006-0.594-1.721-1.49-1.721c-1.045,0-1.428,0.744-1.504,1.541c-0.041,0.6-0.396,0.611-0.625,0.611
				c-0.373,0-0.59-0.264-0.59-0.611c0-1.408,1.023-2.664,2.771-2.664c1.691,0,2.744,1.244,2.744,2.732
				c0,0.871-0.412,1.729-1.246,2.232c1.186,0.354,1.812,1.371,1.812,2.568C25.48,20.166,23.996,21.367,22.117,21.367"/>
		</g>
	</g>
	<g>
		<g>
			<g>
				<defs>
					<path id="SVGID_5461_" d="M40.817,4.201c-2.331,0-4.22,1.889-4.22,4.223v15.16c0,2.322,1.889,4.215,4.22,4.215h22.365
						c2.331,0,4.221-1.893,4.221-4.215V8.424c0-2.334-1.89-4.223-4.221-4.223H40.817z"/>
				</defs>
				<clipPath id="SVGID_11_">
					<use xlink:href="#SVGID_5461_"  overflow="visible"/>
				</clipPath>
				
					<linearGradient id="SVGID_12_" gradientUnits="userSpaceOnUse" x1="-131.0391" y1="-667.8008" x2="-128.8332" y2="-667.8008" gradientTransform="matrix(4.3973 14.3829 14.3829 -4.3973 10228.2344 -1051.7656)">
					<stop  offset="0" style="stop-color:#FFFFFF"/>
					<stop  offset="1" style="stop-color:#D0D0D0"/>
				</linearGradient>
				<polygon clip-path="url(#SVGID_11_)" fill="url(#SVGID_12_)" points="63.452,-6.129 74,25.781 39.819,38.129 30,6.221 				"/>
			</g>
		</g>
	</g>
</g>
<g id="Language_specific">
</g>
<g id="Layer_5">
</g>
</svg>
