<?xml version="1.0" encoding="utf-8"?>
<!-- Generator: Adobe Illustrator 16.0.0, SVG Export Plug-In . SVG Version: 6.00 Build 0)  -->
<!DOCTYPE svg PUBLIC "-//W3C//DTD SVG 1.1//EN" "http://www.w3.org/Graphics/SVG/1.1/DTD/svg11.dtd">
<svg version="1.1" id="Layer_1" xmlns="http://www.w3.org/2000/svg" xmlns:xlink="http://www.w3.org/1999/xlink" x="0px" y="0px"
	 width="32px" height="32px" viewBox="0 0 32 32" enable-background="new 0 0 32 32" xml:space="preserve">
<g id="Layer_3" display="none">
</g>
<g id="Layer_2">
	<g display="none">
		<g display="inline">
			<g>
				<defs>
					<path id="SVGID_1_" d="M-11.183-27.799c-2.331,0-4.22,1.889-4.22,4.223v15.16c0,2.322,1.889,4.215,4.22,4.215h22.365
						c2.331,0,4.221-1.893,4.221-4.215v-15.16c0-2.334-1.89-4.223-4.221-4.223H-11.183z"/>
				</defs>
				<clipPath id="SVGID_2_">
					<use xlink:href="#SVGID_1_"  overflow="visible"/>
				</clipPath>
				
					<linearGradient id="SVGID_3_" gradientUnits="userSpaceOnUse" x1="-423.5029" y1="750.957" x2="-421.2976" y2="750.957" gradientTransform="matrix(4.3973 14.3829 -14.3829 4.3973 12658.332 2757.0496)">
					<stop  offset="0" style="stop-color:#FFFFFF"/>
					<stop  offset="1" style="stop-color:#D0CFD0"/>
				</linearGradient>
				<polygon clip-path="url(#SVGID_2_)" fill="url(#SVGID_3_)" points="11.452,-38.129 22,-6.219 -12.181,6.129 -22,-25.779 				"/>
			</g>
		</g>
	</g>
	<g display="none">
		<g display="inline">
			<g>
				<defs>
					<path id="SVGID_4_" d="M20.816-27.799c-2.33,0-4.219,1.889-4.219,4.223v15.16c0,2.322,1.889,4.215,4.219,4.215h22.365
						c2.332,0,4.221-1.893,4.221-4.215v-15.16c0-2.334-1.889-4.223-4.221-4.223H20.816z"/>
				</defs>
				<clipPath id="SVGID_5_">
					<use xlink:href="#SVGID_4_"  overflow="visible"/>
				</clipPath>
				
					<linearGradient id="SVGID_6_" gradientUnits="userSpaceOnUse" x1="-422.8809" y1="748.9219" x2="-420.6754" y2="748.9219" gradientTransform="matrix(4.3973 14.3829 -14.3829 4.3973 12658.332 2757.0496)">
					<stop  offset="0" style="stop-color:#FFFFFF"/>
					<stop  offset="1" style="stop-color:#D0CFD0"/>
				</linearGradient>
				<polygon clip-path="url(#SVGID_5_)" fill="url(#SVGID_6_)" points="43.452,-38.129 54,-6.219 19.818,6.129 10,-25.779 				"/>
			</g>
		</g>
	</g>
</g>
<g id="Layer_1_1_">
</g>
<g id="Language_specific">
	<g>
		<g>
			<g>
				<g>
					<defs>
						<path id="SVGID_7_" d="M4.135,1.559c-1.952,0-3.533,1.582-3.533,3.527v21.828c0,1.951,1.581,3.527,3.533,3.527h23.734
							c1.951,0,3.531-1.576,3.531-3.527V5.086c0-1.945-1.58-3.527-3.531-3.527H4.135z"/>
					</defs>
					<clipPath id="SVGID_8_">
						<use xlink:href="#SVGID_7_"  overflow="visible"/>
					</clipPath>
					
						<linearGradient id="SVGID_9_" gradientUnits="userSpaceOnUse" x1="-446.3096" y1="755.6465" x2="-444.5694" y2="755.6465" gradientTransform="matrix(5.8606 19.1691 -19.1691 5.8606 17111.5918 4126.0874)">
						<stop  offset="0" style="stop-color:#FFFFFF"/>
						<stop  offset="1" style="stop-color:#D0D0D0"/>
					</linearGradient>
					<polygon clip-path="url(#SVGID_8_)" fill="url(#SVGID_9_)" points="28.771,-7.037 39.494,27.973 3.232,39.039 -7.488,4.027 
											"/>
				</g>
			</g>
			<path fill="none" stroke="#5C5C5C" stroke-width="0.4351" stroke-linejoin="round" d="M31.402,26.914
				c0,1.953-1.582,3.527-3.531,3.527H4.136c-1.951,0-3.538-1.574-3.538-3.527V5.086c0-1.945,1.587-3.527,3.538-3.527h23.735
				c1.949,0,3.531,1.582,3.531,3.527V26.914z"/>
			<g>
				<g>
					<defs>
						<path id="SVGID_10_" d="M4.23,2.57c-1.459,0-2.646,1.188-2.646,2.648v21.568c0,1.455,1.188,2.641,2.646,2.641h23.542
							c1.463,0,2.648-1.186,2.648-2.641V5.219c0-1.461-1.188-2.648-2.648-2.648L4.23,2.57L4.23,2.57z"/>
					</defs>
					<clipPath id="SVGID_11_">
						<use xlink:href="#SVGID_10_"  overflow="visible"/>
					</clipPath>
					
						<linearGradient id="SVGID_12_" gradientUnits="userSpaceOnUse" x1="-434.4873" y1="727.0869" x2="-432.7485" y2="727.0869" gradientTransform="matrix(0 15.4443 -15.4443 0 11245.3496 6712.9297)">
						<stop  offset="0" style="stop-color:#FFFFFF"/>
						<stop  offset="1" style="stop-color:#F3F3F3"/>
					</linearGradient>
					<rect x="1.584" y="2.57" clip-path="url(#SVGID_11_)" fill="url(#SVGID_12_)" width="28.837" height="26.857"/>
				</g>
			</g>
			<path fill="none" stroke="#FAFAFA" stroke-width="0.4351" stroke-linejoin="round" d="M30.421,26.787
				c0,1.455-1.19,2.643-2.647,2.643H4.229c-1.457,0-2.647-1.188-2.647-2.643V5.219c0-1.463,1.19-2.646,2.647-2.646h23.544
				c1.457,0,2.647,1.184,2.647,2.646V26.787z"/>
		</g>
		<g>
			<path d="M15.892,26.635c-1.654,0-2.326-1.242-2.326-1.836c0-0.346,0.178-0.547,0.416-0.547c0.291,0,0.436,0.168,0.547,0.516
				c0.189,0.568,0.592,1.017,1.342,1.017c0.885,0,1.512-0.66,1.512-1.476c0-1.186-0.65-1.49-1.391-1.49
				c-0.391,0-0.6-0.168-0.6-0.424c0-0.225,0.143-0.346,0.512-0.426c0.797-0.178,1.122-0.559,1.122-1.287
				c0-0.76-0.449-1.297-1.133-1.297c-0.781,0-1.072,0.561-1.129,1.164c-0.033,0.447-0.303,0.459-0.471,0.459
				c-0.277,0-0.445-0.203-0.445-0.459c0-1.062,0.771-2.014,2.092-2.014c1.273,0,2.07,0.939,2.07,2.059
				c0,0.66-0.313,1.309-0.938,1.689c0.893,0.27,1.365,1.029,1.365,1.936C18.436,25.729,17.312,26.635,15.892,26.635"/>
		</g>
		<g enable-background="new    ">
			<path d="M16.289,5.159c1.08,0,1.846,0.738,1.846,1.359c0,0.207-0.117,0.414-0.36,0.414c-0.585,0-0.279-1.089-1.54-1.089
				c-0.576,0-1.053,0.27-1.053,0.756c0,1.161,3.195,1.035,3.195,2.989c0,0.603-0.414,1.206-0.98,1.521
				c0.396,0.27,0.585,0.611,0.585,1.062c0,0.892-0.99,1.404-1.891,1.396c-1.359-0.018-2.035-0.882-2.035-1.296
				c0-0.324,0.162-0.45,0.396-0.45c0.594,0,0.324,1.062,1.621,1.062c0.72,0,1.117-0.324,1.117-0.721
				c0-1.152-3.313-1.053-3.313-2.971c0-0.802,0.459-1.216,1.099-1.539c-0.414-0.307-0.585-0.559-0.585-1.018
				C14.389,5.699,15.172,5.159,16.289,5.159z M15.785,10.246l1.026,0.504c0.648-0.486,0.774-0.792,0.774-1.135
				c0-0.378-0.081-0.693-0.801-1.026l-1.125-0.521c-0.531,0.225-0.99,0.504-0.99,1.062C14.668,9.598,15.073,9.895,15.785,10.246z"/>
		</g>
	</g>
</g>
<g id="Layer_5">
</g>
</svg>
