<?xml version="1.0" encoding="utf-8"?>
<!-- Generator: Adobe Illustrator 16.0.0, SVG Export Plug-In . SVG Version: 6.00 Build 0)  -->
<!DOCTYPE svg PUBLIC "-//W3C//DTD SVG 1.1//EN" "http://www.w3.org/Graphics/SVG/1.1/DTD/svg11.dtd">
<svg version="1.1" id="Layer_1" xmlns="http://www.w3.org/2000/svg" xmlns:xlink="http://www.w3.org/1999/xlink" x="0px" y="0px"
	 width="64px" height="32px" viewBox="0 0 64 32" enable-background="new 0 0 64 32" xml:space="preserve">
<g>
	<g>
		<g>
			<defs>
				<path id="SVGID_1_" d="M4.135,1.559c-1.953,0-3.533,1.582-3.533,3.527v21.828c0,1.951,1.58,3.527,3.533,3.527h55.734
					c1.951,0,3.531-1.576,3.531-3.527V5.086c0-1.945-1.58-3.527-3.531-3.527H4.135z"/>
			</defs>
			<clipPath id="SVGID_2_">
				<use xlink:href="#SVGID_1_"  overflow="visible"/>
			</clipPath>
			
				<linearGradient id="SVGID_3_" gradientUnits="userSpaceOnUse" x1="-313.791" y1="-96.606" x2="-311.6065" y2="-96.606" gradientTransform="matrix(5.8606 19.1691 -19.1691 5.8606 12.7437 6576.2881)">
				<stop  offset="0" style="stop-color:#FFFFFF"/>
				<stop  offset="1" style="stop-color:#D0D0D0"/>
			</linearGradient>
			<polygon clip-path="url(#SVGID_2_)" fill="url(#SVGID_3_)" points="60.771,-7.037 71.494,27.973 3.232,39.039 -7.488,4.027 			
				"/>
		</g>
	</g>
	<path fill="none" stroke="#5C5C5C" stroke-width="0.4351" stroke-linejoin="round" d="M63.402,26.914
		c0,1.953-1.582,3.527-3.531,3.527H4.135c-1.951,0-3.537-1.574-3.537-3.527V5.086c0-1.945,1.586-3.527,3.537-3.527h55.736
		c1.949,0,3.531,1.582,3.531,3.527V26.914L63.402,26.914z"/>
	<g>
		<g>
			<defs>
				<path id="SVGID_4_" d="M4.23,2.57c-1.459,0-2.646,1.188-2.646,2.648v21.568c0,1.455,1.188,2.641,2.646,2.641h55.541
					c1.463,0,2.647-1.186,2.647-2.641V5.219c0-1.461-1.187-2.648-2.647-2.648L4.23,2.57L4.23,2.57z"/>
			</defs>
			<clipPath id="SVGID_5_">
				<use xlink:href="#SVGID_4_"  overflow="visible"/>
			</clipPath>
			
				<linearGradient id="SVGID_6_" gradientUnits="userSpaceOnUse" x1="-313.8623" y1="-110.0859" x2="-312.123" y2="-110.0859" gradientTransform="matrix(0 15.4443 -15.4443 0 -1668.1978 4849.9536)">
				<stop  offset="0" style="stop-color:#FFFFFF"/>
				<stop  offset="1" style="stop-color:#F3F3F3"/>
			</linearGradient>
			<rect x="1.584" y="2.57" clip-path="url(#SVGID_5_)" fill="url(#SVGID_6_)" width="60.836" height="26.857"/>
		</g>
	</g>
	<path fill="none" stroke="#FAFAFA" stroke-width="0.4351" stroke-linejoin="round" d="M62.42,26.787
		c0,1.455-1.189,2.643-2.648,2.643H4.229c-1.457,0-2.647-1.188-2.647-2.643V5.219c0-1.463,1.19-2.646,2.647-2.646h55.543
		c1.459,0,2.648,1.184,2.648,2.646V26.787z"/>
</g>
<g enable-background="new    ">
	<path d="M15.961,16.414c0,1.039,0.662,1.85,1.793,1.85c1.335,0,1.678-0.822,2.054-0.822c0.183,0,0.365,0.16,0.365,0.445
		c0,0.491-1.244,1.244-2.431,1.244c-1.94,0-2.785-1.495-2.785-3.104c0-1.644,1.027-3.104,2.728-3.104
		c1.655,0,2.614,1.495,2.614,2.956c0,0.354-0.126,0.536-0.56,0.536H15.961z M19.294,15.661c0-0.867-0.502-1.872-1.609-1.872
		c-1.244-0.045-1.688,0.947-1.724,1.872H19.294z"/>
	<path d="M23.184,12.922c0.833,0,2.02,0.445,2.02,1.073c0,0.217-0.148,0.411-0.456,0.411c-0.435,0-0.604-0.617-1.563-0.617
		c-0.571,0-1.062,0.252-1.062,0.765c0,1.062,3.242,0.948,3.242,2.705c0,1.268-1.084,1.872-2.215,1.872
		c-1.277,0-2.282-0.639-2.282-1.152c0-0.274,0.194-0.457,0.411-0.457c0.445,0,0.811,0.742,1.906,0.742
		c0.73,0,1.176-0.411,1.176-0.822c0-1.187-3.242-1.118-3.242-2.808C21.117,13.516,22.168,12.922,23.184,12.922z"/>
	<path d="M26.365,13.458c0-0.331,0.193-0.536,0.502-0.536s0.502,0.205,0.502,0.536v0.297h0.023c0.285-0.548,0.821-0.833,1.62-0.833
		c1.644,0,2.591,1.495,2.591,3.104s-0.947,3.104-2.591,3.104c-0.799,0-1.358-0.445-1.62-0.821h-0.023v2.682
		c0,0.331-0.193,0.536-0.502,0.536s-0.502-0.205-0.502-0.536V13.458z M28.934,18.264c1.232,0,1.666-1.21,1.666-2.237
		s-0.434-2.237-1.666-2.237c-1.233,0-1.667,1.21-1.667,2.237S27.7,18.264,28.934,18.264z"/>
	<path d="M37.684,18.641c0,0.354-0.273,0.49-0.468,0.49c-0.205,0-0.468-0.137-0.468-0.49v-0.423h-0.023
		c-0.434,0.616-1.004,0.913-1.654,0.913c-1.712,0-2.671-1.495-2.671-3.104s0.959-3.104,2.671-3.104c0.696,0,1.188,0.297,1.654,0.811
		h0.023v-0.319c0-0.354,0.263-0.491,0.468-0.491c0.194,0,0.468,0.137,0.468,0.491V18.641z M35.07,18.264
		c1.232,0,1.666-1.21,1.666-2.237s-0.434-2.237-1.666-2.237s-1.666,1.21-1.666,2.237S33.838,18.264,35.07,18.264z"/>
	<path d="M41.481,12.922c1.027,0,1.632,0.354,1.632,0.765c0,0.206-0.171,0.423-0.41,0.423c-0.389,0-0.537-0.32-1.222-0.32
		c-1.244,0-1.735,1.21-1.735,2.237s0.491,2.237,1.735,2.237c0.708,0,0.89-0.343,1.21-0.343c0.229,0,0.389,0.148,0.389,0.423
		c0,0.376-0.561,0.787-1.599,0.787c-1.849,0-2.739-1.495-2.739-3.104S39.633,12.922,41.481,12.922z"/>
	<path d="M44.709,16.414c0,1.039,0.662,1.85,1.792,1.85c1.335,0,1.678-0.822,2.054-0.822c0.184,0,0.365,0.16,0.365,0.445
		c0,0.491-1.244,1.244-2.431,1.244c-1.94,0-2.784-1.495-2.784-3.104c0-1.644,1.026-3.104,2.727-3.104
		c1.656,0,2.614,1.495,2.614,2.956c0,0.354-0.126,0.536-0.56,0.536H44.709z M48.041,15.661c0-0.867-0.502-1.872-1.609-1.872
		c-1.243-0.045-1.688,0.947-1.723,1.872H48.041z"/>
</g>
</svg>
