<?xml version="1.0" encoding="utf-8"?>
<!-- Generator: Adobe Illustrator 16.0.0, SVG Export Plug-In . SVG Version: 6.00 Build 0)  -->
<!DOCTYPE svg PUBLIC "-//W3C//DTD SVG 1.1//EN" "http://www.w3.org/Graphics/SVG/1.1/DTD/svg11.dtd">
<svg version="1.1" id="Layer_1" xmlns="http://www.w3.org/2000/svg" xmlns:xlink="http://www.w3.org/1999/xlink" x="0px" y="0px"
	 width="32px" height="32px" viewBox="0 0 32 32" enable-background="new 0 0 32 32" xml:space="preserve">
<g id="Layer_3" display="none">
</g>
<g id="Layer_2">
</g>
<g id="Layer_1_1_">
	<g>
		<g>
			<g>
				<g>
					<defs>
						<path id="SVGID_1_" d="M4.135,1.559c-1.953,0-3.533,1.582-3.533,3.527v21.828c0,1.951,1.58,3.527,3.533,3.527h23.734
							c1.951,0,3.531-1.576,3.531-3.527V5.086c0-1.945-1.58-3.527-3.531-3.527H4.135z"/>
					</defs>
					<clipPath id="SVGID_2_">
						<use xlink:href="#SVGID_1_"  overflow="visible"/>
					</clipPath>
					
						<linearGradient id="SVGID_3_" gradientUnits="userSpaceOnUse" x1="-772.4814" y1="739.8555" x2="-770.7413" y2="739.8555" gradientTransform="matrix(5.8606 19.1691 -19.1691 5.8606 18720.4512 10471.0566)">
						<stop  offset="0" style="stop-color:#FFFFFF"/>
						<stop  offset="1" style="stop-color:#D0D0D0"/>
					</linearGradient>
					<polygon clip-path="url(#SVGID_2_)" fill="url(#SVGID_3_)" points="28.771,-7.037 39.494,27.973 3.232,39.039 -7.488,4.027 
											"/>
				</g>
			</g>
			<path fill="none" stroke="#5C5C5C" stroke-width="0.4351" stroke-linejoin="round" d="M31.402,26.914
				c0,1.953-1.582,3.527-3.531,3.527H4.135c-1.951,0-3.537-1.574-3.537-3.527V5.086c0-1.945,1.586-3.527,3.537-3.527h23.736
				c1.949,0,3.531,1.582,3.531,3.527V26.914z"/>
			<g>
				<g>
					<defs>
						<path id="SVGID_4_" d="M4.23,2.57c-1.459,0-2.646,1.188-2.646,2.648v21.568c0,1.455,1.188,2.641,2.646,2.641h23.542
							c1.463,0,2.647-1.186,2.647-2.641V5.219c0-1.461-1.187-2.648-2.647-2.648L4.23,2.57L4.23,2.57z"/>
					</defs>
					<clipPath id="SVGID_5_">
						<use xlink:href="#SVGID_4_"  overflow="visible"/>
					</clipPath>
					
						<linearGradient id="SVGID_6_" gradientUnits="userSpaceOnUse" x1="-765.4873" y1="705.6553" x2="-763.7485" y2="705.6553" gradientTransform="matrix(0 15.4443 -15.4443 0 10914.3496 11824.9922)">
						<stop  offset="0" style="stop-color:#FFFFFF"/>
						<stop  offset="1" style="stop-color:#F3F3F3"/>
					</linearGradient>
					<rect x="1.584" y="2.57" clip-path="url(#SVGID_5_)" fill="url(#SVGID_6_)" width="28.836" height="26.857"/>
				</g>
			</g>
			<path fill="none" stroke="#FAFAFA" stroke-width="0.4351" stroke-linejoin="round" d="M30.42,26.787
				c0,1.455-1.189,2.643-2.648,2.643H4.229c-1.457,0-2.648-1.188-2.648-2.643V5.219c0-1.463,1.191-2.646,2.648-2.646h23.542
				c1.459,0,2.648,1.184,2.648,2.646V26.787z"/>
		</g>
		<g enable-background="new    ">
			<path d="M17.021,25.325c-0.034,0.259-0.135,0.404-0.428,0.404c-0.269,0-0.381-0.18-0.381-0.382c0-0.123,0.022-0.258,0.056-0.472
				l0.225-1.64h-1.336l-0.292,2.089c-0.034,0.259-0.135,0.404-0.427,0.404c-0.27,0-0.382-0.18-0.382-0.382
				c0-0.123,0.022-0.258,0.056-0.472l0.225-1.64h-0.685c-0.258,0-0.46-0.123-0.46-0.371c0-0.258,0.202-0.37,0.46-0.37h0.786
				l0.236-1.662h-0.685c-0.258,0-0.46-0.124-0.46-0.37c0-0.248,0.202-0.371,0.46-0.371h0.786l0.292-2.089
				c0.034-0.259,0.135-0.404,0.427-0.404c0.27,0,0.382,0.18,0.382,0.382c0,0.123-0.022,0.258-0.056,0.472l-0.225,1.64h1.337
				l0.291-2.089c0.034-0.259,0.135-0.404,0.428-0.404c0.27,0,0.381,0.18,0.381,0.382c0,0.123-0.021,0.258-0.056,0.472l-0.225,1.64
				h0.685c0.259,0,0.461,0.123,0.461,0.371c0,0.258-0.202,0.37-0.461,0.37H17.65l-0.236,1.662H18.1c0.258,0,0.46,0.124,0.46,0.37
				c0,0.248-0.202,0.371-0.46,0.371h-0.787L17.021,25.325z M16.83,20.833h-1.336l-0.236,1.662h1.336L16.83,20.833z"/>
		</g>
		<g enable-background="new    ">
			<path d="M15.841,6.695c0.112-0.213,0.236-0.415,0.528-0.415c0.236,0,0.45,0.18,0.45,0.427c0,0.123-0.034,0.236-0.124,0.416
				l-0.629,1.234c-0.112,0.214-0.236,0.416-0.528,0.416c-0.236,0-0.449-0.18-0.449-0.427c0-0.124,0.034-0.235,0.124-0.415
				L15.841,6.695z"/>
		</g>
	</g>
</g>
<g id="Language_specific">
</g>
<g id="Layer_5">
</g>
</svg>
