<?xml version="1.0" encoding="utf-8"?>
<!-- Generator: Adobe Illustrator 16.0.4, SVG Export Plug-In . SVG Version: 6.00 Build 0)  -->
<!DOCTYPE svg PUBLIC "-//W3C//DTD SVG 1.1//EN" "http://www.w3.org/Graphics/SVG/1.1/DTD/svg11.dtd">
<svg version="1.1" id="Reference" xmlns="http://www.w3.org/2000/svg" xmlns:xlink="http://www.w3.org/1999/xlink" x="0px" y="0px"
	 width="32px" height="32px" viewBox="0 0 32 32" enable-background="new 0 0 32 32" xml:space="preserve">
<g>
	<g>
		<g>
			<defs>
				<path id="SVGID_787_" d="M36.135,1.805c-1.952,0-3.533,1.582-3.533,3.527V27.16c0,1.951,1.581,3.527,3.533,3.527h23.734
					c1.952,0,3.532-1.576,3.532-3.527V5.332c0-1.945-1.58-3.527-3.532-3.527H36.135z"/>
			</defs>
			<clipPath id="SVGID_2_">
				<use xlink:href="#SVGID_787_"  overflow="visible"/>
			</clipPath>
			
				<linearGradient id="SVGID_3_" gradientUnits="userSpaceOnUse" x1="-444.0278" y1="-1300.6484" x2="-442.2873" y2="-1300.6484" gradientTransform="matrix(5.8606 19.1691 19.1691 -5.8606 27577.4004 888.5581)">
				<stop  offset="0" style="stop-color:#FFFFFF"/>
				<stop  offset="1" style="stop-color:#D0D0D0"/>
			</linearGradient>
			<polygon clip-path="url(#SVGID_2_)" fill="url(#SVGID_3_)" points="60.771,-6.791 71.494,28.219 35.232,39.285 24.512,4.273 			
				"/>
		</g>
	</g>
</g>
<g>
	<g>
		<g>
			<defs>
				<path id="SVGID_805_" d="M4.135,1.805c-1.952,0-3.533,1.582-3.533,3.527V27.16c0,1.951,1.581,3.527,3.533,3.527h23.734
					c1.952,0,3.532-1.576,3.532-3.527V5.332c0-1.945-1.58-3.527-3.532-3.527H4.135z"/>
			</defs>
			<clipPath id="SVGID_5_">
				<use xlink:href="#SVGID_805_"  overflow="visible"/>
			</clipPath>
			
				<linearGradient id="SVGID_6_" gradientUnits="userSpaceOnUse" x1="-444.4941" y1="-1302.1748" x2="-442.754" y2="-1302.1748" gradientTransform="matrix(5.8606 19.1691 19.1691 -5.8606 27577.4004 888.5581)">
				<stop  offset="0" style="stop-color:#FFFFFF"/>
				<stop  offset="1" style="stop-color:#D0D0D0"/>
			</linearGradient>
			<polygon clip-path="url(#SVGID_5_)" fill="url(#SVGID_6_)" points="28.771,-6.791 39.494,28.219 3.232,39.285 -7.488,4.273 			
				"/>
		</g>
		<path fill="none" stroke="#5C5C5C" stroke-width="0.4351" stroke-linejoin="round" d="M31.403,27.16
			c0,1.953-1.582,3.527-3.532,3.527H4.136c-1.951,0-3.538-1.574-3.538-3.527V5.332c0-1.945,1.587-3.527,3.538-3.527h23.735
			c1.95,0,3.532,1.582,3.532,3.527V27.16z"/>
		<g>
			<defs>
				<path id="SVGID_808_" d="M4.23,2.816c-1.459,0-2.646,1.188-2.646,2.648v21.568c0,1.455,1.188,2.641,2.646,2.641h23.542
					c1.462,0,2.648-1.186,2.648-2.641V5.465c0-1.461-1.187-2.648-2.648-2.648H4.23z"/>
			</defs>
			<clipPath id="SVGID_8_">
				<use xlink:href="#SVGID_808_"  overflow="visible"/>
			</clipPath>
			
				<linearGradient id="SVGID_9_" gradientUnits="userSpaceOnUse" x1="-425.7231" y1="-1273.6006" x2="-423.9844" y2="-1273.6006" gradientTransform="matrix(0 15.4443 15.4443 0 19685.8809 6577.8164)">
				<stop  offset="0" style="stop-color:#FFFFFF"/>
				<stop  offset="1" style="stop-color:#F3F3F3"/>
			</linearGradient>
			<rect x="1.584" y="2.816" clip-path="url(#SVGID_8_)" fill="url(#SVGID_9_)" width="28.837" height="26.857"/>
		</g>
		<path fill="none" stroke="#FAFAFA" stroke-width="0.4351" stroke-linejoin="round" d="M30.421,27.033
			c0,1.455-1.19,2.643-2.648,2.643H4.229c-1.457,0-2.647-1.188-2.647-2.643V5.465c0-1.463,1.19-2.646,2.647-2.646h23.544
			c1.458,0,2.648,1.184,2.648,2.646V27.033z"/>
	</g>
	<path d="M6.329,7.961C6.067,7.852,6.043,7.727,6.043,7.564c0-0.227,0.186-0.424,0.437-0.424c0.315,0,0.723,0.459,1.207,0.811
		c0-0.449-0.135-0.959-0.135-1.297C7.552,6.42,7.713,6.217,8,6.217c0.283,0,0.451,0.203,0.451,0.438
		c0,0.338-0.141,0.848-0.141,1.297C8.8,7.6,9.209,7.141,9.521,7.141c0.249,0,0.436,0.197,0.436,0.424
		c0,0.162-0.028,0.287-0.288,0.396L8.562,8.424l1.107,0.461c0.26,0.113,0.288,0.238,0.288,0.4c0,0.223-0.187,0.426-0.436,0.426
		c-0.312,0-0.722-0.463-1.211-0.812c0,0.449,0.141,0.961,0.141,1.297c0,0.238-0.168,0.438-0.451,0.438
		c-0.287,0-0.448-0.199-0.448-0.438c0-0.336,0.135-0.848,0.135-1.297c-0.484,0.35-0.892,0.812-1.207,0.812
		c-0.251,0-0.437-0.203-0.437-0.426c0-0.162,0.024-0.287,0.286-0.4l1.108-0.461L6.329,7.961z"/>
	<path d="M7.999,18.795c1.029,0,2.077,0.617,2.077,1.863c0,0.865-0.328,1.348-1.061,1.805c0.944,0.217,1.475,1.084,1.475,2.031
		c0,1.326-0.903,2.57-2.491,2.57c-1.587,0-2.489-1.244-2.489-2.57c0-0.947,0.527-1.814,1.475-2.031
		c-0.733-0.457-1.062-0.939-1.062-1.805C5.922,19.412,6.969,18.795,7.999,18.795 M7.999,26.195c0.751,0,1.417-0.604,1.417-1.656
		c0-0.832-0.481-1.619-1.417-1.619c-0.937,0-1.417,0.787-1.417,1.619C6.582,25.592,7.248,26.195,7.999,26.195 M7.999,22.053
		c0.723,0,1.143-0.504,1.143-1.201c0-0.686-0.42-1.188-1.143-1.188s-1.143,0.502-1.143,1.188
		C6.856,21.549,7.276,22.053,7.999,22.053"/>
	<path d="M24.407,24.071c0.137-0.258,0.283-0.502,0.635-0.502c0.285,0,0.541,0.215,0.541,0.514c0,0.148-0.039,0.283-0.148,0.5
		l-0.76,1.488c-0.131,0.256-0.281,0.5-0.633,0.5c-0.283,0-0.541-0.219-0.541-0.516c0-0.146,0.041-0.283,0.15-0.498L24.407,24.071z
		 M24.894,19.028c0.379,0,0.689,0.311,0.689,0.689c0,0.381-0.311,0.689-0.689,0.689s-0.689-0.309-0.689-0.689
		C24.204,19.339,24.515,19.028,24.894,19.028"/>
</g>
<g>
	<g>
		<g>
			<defs>
				<path id="SVGID_835_" d="M-27.865,1.805c-1.952,0-3.533,1.582-3.533,3.527V27.16c0,1.951,1.581,3.527,3.533,3.527h23.734
					c1.952,0,3.532-1.576,3.532-3.527V5.332c0-1.945-1.58-3.527-3.532-3.527H-27.865z"/>
			</defs>
			<clipPath id="SVGID_11_">
				<use xlink:href="#SVGID_835_"  overflow="visible"/>
			</clipPath>
			
				<linearGradient id="SVGID_12_" gradientUnits="userSpaceOnUse" x1="-444.9609" y1="-1303.7012" x2="-443.2208" y2="-1303.7012" gradientTransform="matrix(5.8606 19.1691 19.1691 -5.8606 27577.4004 888.5581)">
				<stop  offset="0" style="stop-color:#FFFFFF"/>
				<stop  offset="1" style="stop-color:#D0D0D0"/>
			</linearGradient>
			<polygon clip-path="url(#SVGID_11_)" fill="url(#SVGID_12_)" points="-3.229,-6.791 7.494,28.219 -28.768,39.285 -39.488,4.273 
							"/>
		</g>
	</g>
</g>
</svg>
