<?xml version="1.0" encoding="utf-8"?>
<!-- Generator: Adobe Illustrator 16.0.0, SVG Export Plug-In . SVG Version: 6.00 Build 0)  -->
<!DOCTYPE svg PUBLIC "-//W3C//DTD SVG 1.1//EN" "http://www.w3.org/Graphics/SVG/1.1/DTD/svg11.dtd">
<svg version="1.1" id="Layer_1" xmlns="http://www.w3.org/2000/svg" xmlns:xlink="http://www.w3.org/1999/xlink" x="0px" y="0px"
	 width="32px" height="32px" viewBox="0 0 32 32" enable-background="new 0 0 32 32" xml:space="preserve">
<g id="Layer_3" display="none">
</g>
<g id="Layer_2">
</g>
<g id="Layer_1_1_">
	<g>
		<g>
			<g>
				<g>
					<defs>
						<path id="SVGID_1_" d="M4.134,1.559c-1.952,0-3.533,1.582-3.533,3.527v21.828c0,1.951,1.581,3.527,3.533,3.527h23.734
							c1.952,0,3.532-1.576,3.532-3.527V5.086c0-1.945-1.58-3.527-3.532-3.527H4.134z"/>
					</defs>
					<clipPath id="SVGID_2_">
						<use xlink:href="#SVGID_1_"  overflow="visible"/>
					</clipPath>
					
						<linearGradient id="SVGID_3_" gradientUnits="userSpaceOnUse" x1="-193.9351" y1="689.2344" x2="-192.195" y2="689.2344" gradientTransform="matrix(5.8606 19.1691 -19.1691 5.8606 14359.458 -322.4875)">
						<stop  offset="0" style="stop-color:#FFFFFF"/>
						<stop  offset="1" style="stop-color:#D0D0D0"/>
					</linearGradient>
					<polygon clip-path="url(#SVGID_2_)" fill="url(#SVGID_3_)" points="28.771,-7.037 39.494,27.973 3.232,39.039 -7.489,4.027 
											"/>
				</g>
			</g>
			<path fill="none" stroke="#5C5C5C" stroke-width="0.4351" stroke-linejoin="round" d="M31.402,26.914
				c0,1.953-1.582,3.527-3.531,3.527H4.135c-1.951,0-3.538-1.574-3.538-3.527V5.086c0-1.945,1.587-3.527,3.538-3.527H27.87
				c1.95,0,3.532,1.582,3.532,3.527V26.914L31.402,26.914z"/>
			<g>
				<g>
					<defs>
						<path id="SVGID_4_" d="M4.23,2.57c-1.459,0-2.646,1.188-2.646,2.648v21.568c0,1.455,1.188,2.641,2.646,2.641h23.542
							c1.463,0,2.648-1.186,2.648-2.641V5.219c0-1.461-1.188-2.648-2.648-2.648L4.23,2.57L4.23,2.57z"/>
					</defs>
					<clipPath id="SVGID_5_">
						<use xlink:href="#SVGID_4_"  overflow="visible"/>
					</clipPath>
					
						<linearGradient id="SVGID_6_" gradientUnits="userSpaceOnUse" x1="-179.4873" y1="663.7412" x2="-177.7485" y2="663.7412" gradientTransform="matrix(0 15.4443 -15.4443 0 10267.0186 2774.6304)">
						<stop  offset="0" style="stop-color:#FFFFFF"/>
						<stop  offset="1" style="stop-color:#F3F3F3"/>
					</linearGradient>
					<rect x="1.583" y="2.57" clip-path="url(#SVGID_5_)" fill="url(#SVGID_6_)" width="28.837" height="26.857"/>
				</g>
			</g>
			<path fill="none" stroke="#FAFAFA" stroke-width="0.4351" stroke-linejoin="round" d="M30.42,26.787
				c0,1.455-1.189,2.643-2.648,2.643H4.228c-1.457,0-2.647-1.188-2.647-2.643V5.219c0-1.463,1.19-2.646,2.647-2.646h23.543
				c1.459,0,2.648,1.184,2.648,2.646V26.787z"/>
		</g>
	</g>
</g>
<g id="Language_specific">
</g>
<g id="Layer_5">
</g>
<g>
	<path d="M19.473,11.312c0.133-0.16,0.266-0.227,0.412-0.227c0.2,0,0.413,0.12,0.413,0.373c0,0.133-0.04,0.213-0.16,0.346
		l-0.918,1.064c0.612,0.865,0.932,1.996,0.932,3.14c0,2.461-1.45,4.817-4.151,4.817c-1.118,0-2.022-0.413-2.688-1.064L12.5,20.719
		c-0.093,0.106-0.239,0.213-0.412,0.213c-0.253,0-0.386-0.2-0.386-0.359c0-0.106,0.04-0.227,0.187-0.399l0.878-1.024
		c-0.612-0.892-0.918-1.996-0.918-3.14c0-2.461,1.45-4.817,4.151-4.817c1.104,0,2.009,0.399,2.688,1.051L19.473,11.312z
		 M17.982,13.055c-0.466-0.519-1.104-0.852-1.982-0.852c-2.129,0-2.901,1.996-2.901,3.805c0,0.758,0.134,1.543,0.466,2.208
		L17.982,13.055z M14.018,18.949c0.466,0.545,1.104,0.864,1.982,0.864c2.129,0,2.9-1.995,2.9-3.805c0-0.772-0.133-1.57-0.452-2.235
		L14.018,18.949z"/>
</g>
</svg>
