<?xml version="1.0" encoding="utf-8"?>
<!-- Generator: Adobe Illustrator 16.0.4, SVG Export Plug-In . SVG Version: 6.00 Build 0)  -->
<!DOCTYPE svg PUBLIC "-//W3C//DTD SVG 1.1//EN" "http://www.w3.org/Graphics/SVG/1.1/DTD/svg11.dtd">
<svg version="1.1" id="Reference" xmlns="http://www.w3.org/2000/svg" xmlns:xlink="http://www.w3.org/1999/xlink" x="0px" y="0px"
	 width="32px" height="32px" viewBox="0 0 32 32" enable-background="new 0 0 32 32" xml:space="preserve">
<g>
	<g>
		<defs>
			<path id="SVGID_769_" d="M36.135,1.546c-1.952,0-3.533,1.582-3.533,3.527v21.828c0,1.951,1.581,3.527,3.533,3.527h23.734
				c1.952,0,3.532-1.576,3.532-3.527V5.073c0-1.945-1.58-3.527-3.532-3.527H36.135z"/>
		</defs>
		<clipPath id="SVGID_2_">
			<use xlink:href="#SVGID_769_"  overflow="visible"/>
		</clipPath>
		
			<linearGradient id="SVGID_3_" gradientUnits="userSpaceOnUse" x1="-380.9736" y1="-1303.6973" x2="-379.2335" y2="-1303.6973" gradientTransform="matrix(5.8606 19.1691 19.1691 -5.8606 27266.3223 -338.2642)">
			<stop  offset="0" style="stop-color:#FFFFFF"/>
			<stop  offset="1" style="stop-color:#D0D0D0"/>
		</linearGradient>
		<polygon clip-path="url(#SVGID_2_)" fill="url(#SVGID_3_)" points="60.771,-7.05 71.494,27.96 35.232,39.026 24.512,4.015 		"/>
	</g>
</g>
<g>
	<g>
		<defs>
			<path id="SVGID_835_" d="M-27.865,1.546c-1.952,0-3.533,1.582-3.533,3.527v21.828c0,1.951,1.581,3.527,3.533,3.527h23.734
				c1.952,0,3.532-1.576,3.532-3.527V5.073c0-1.945-1.58-3.527-3.532-3.527H-27.865z"/>
		</defs>
		<clipPath id="SVGID_5_">
			<use xlink:href="#SVGID_835_"  overflow="visible"/>
		</clipPath>
		
			<linearGradient id="SVGID_6_" gradientUnits="userSpaceOnUse" x1="-381.9067" y1="-1306.751" x2="-380.1666" y2="-1306.751" gradientTransform="matrix(5.8606 19.1691 19.1691 -5.8606 27266.3223 -338.2642)">
			<stop  offset="0" style="stop-color:#FFFFFF"/>
			<stop  offset="1" style="stop-color:#D0D0D0"/>
		</linearGradient>
		<polygon clip-path="url(#SVGID_5_)" fill="url(#SVGID_6_)" points="-3.229,-7.05 7.494,27.96 -28.768,39.026 -39.488,4.015 		"/>
	</g>
</g>
<g>
	<g>
		<defs>
			<path id="SVGID_841_" d="M4.135,1.546c-1.952,0-3.533,1.582-3.533,3.527v21.828c0,1.951,1.581,3.527,3.533,3.527h23.734
				c1.952,0,3.532-1.576,3.532-3.527V5.073c0-1.945-1.58-3.527-3.532-3.527H4.135z"/>
		</defs>
		<clipPath id="SVGID_8_">
			<use xlink:href="#SVGID_841_"  overflow="visible"/>
		</clipPath>
		
			<linearGradient id="SVGID_9_" gradientUnits="userSpaceOnUse" x1="-381.4399" y1="-1305.2246" x2="-379.7003" y2="-1305.2246" gradientTransform="matrix(5.8606 19.1691 19.1691 -5.8606 27266.3223 -338.2642)">
			<stop  offset="0" style="stop-color:#FFFFFF"/>
			<stop  offset="1" style="stop-color:#D0D0D0"/>
		</linearGradient>
		<polygon clip-path="url(#SVGID_8_)" fill="url(#SVGID_9_)" points="28.771,-7.05 39.494,27.96 3.232,39.026 -7.488,4.015 		"/>
	</g>
	<path fill="none" stroke="#5C5C5C" stroke-width="0.4351" stroke-linejoin="round" d="M31.403,26.901
		c0,1.953-1.582,3.527-3.532,3.527H4.136c-1.951,0-3.538-1.574-3.538-3.527V5.073c0-1.945,1.587-3.527,3.538-3.527h23.735
		c1.95,0,3.532,1.582,3.532,3.527V26.901z"/>
	<g>
		<defs>
			<path id="SVGID_844_" d="M4.23,2.558c-1.459,0-2.646,1.188-2.646,2.648v21.568c0,1.455,1.188,2.641,2.646,2.641h23.542
				c1.462,0,2.648-1.186,2.648-2.641V5.206c0-1.461-1.187-2.648-2.648-2.648H4.23z"/>
		</defs>
		<clipPath id="SVGID_11_">
			<use xlink:href="#SVGID_844_"  overflow="visible"/>
		</clipPath>
		
			<linearGradient id="SVGID_12_" gradientUnits="userSpaceOnUse" x1="-361.7397" y1="-1277.7441" x2="-360.001" y2="-1277.7441" gradientTransform="matrix(0 15.4443 15.4443 0 19749.8809 5589.3813)">
			<stop  offset="0" style="stop-color:#FFFFFF"/>
			<stop  offset="1" style="stop-color:#F3F3F3"/>
		</linearGradient>
		<rect x="1.584" y="2.558" clip-path="url(#SVGID_11_)" fill="url(#SVGID_12_)" width="28.837" height="26.857"/>
	</g>
	<path fill="none" stroke="#FAFAFA" stroke-width="0.4351" stroke-linejoin="round" d="M30.421,26.774
		c0,1.455-1.19,2.643-2.648,2.643H4.229c-1.457,0-2.647-1.188-2.647-2.643V5.206c0-1.463,1.19-2.646,2.647-2.646h23.544
		c1.458,0,2.648,1.184,2.648,2.646V26.774z"/>
</g>
<path d="M13.361,24.266c0-2.373,1.602-4.203,2.834-5.242c0.205-0.17,0.332-0.229,0.467-0.229c0.158,0,0.41,0.16,0.41,0.471
	c0,0.158-0.109,0.285-0.396,0.535c-0.656,0.584-1.133,1.131-1.75,2.262h0.023c0.375-0.195,0.744-0.318,1.291-0.318
	c1.326,0,2.055,1.254,2.055,2.672c0,1.475-1.053,2.648-2.488,2.648C14.389,27.064,13.361,25.891,13.361,24.266 M15.793,26.129
	c0.998,0,1.432-0.811,1.432-1.76c0-1.072-0.434-1.758-1.432-1.758c-0.996,0-1.426,0.822-1.426,1.758
	C14.367,25.318,14.797,26.129,15.793,26.129"/>
<path d="M13.643,8.942c-0.26,0-0.447-0.133-0.447-0.424c0-0.293,0.188-0.43,0.447-0.43h4.373c0.26,0,0.447,0.137,0.447,0.43
	c0,0.291-0.188,0.424-0.447,0.424H13.643z M13.643,11.106c-0.26,0-0.447-0.133-0.447-0.424c0-0.293,0.188-0.43,0.447-0.43h4.373
	c0.26,0,0.447,0.137,0.447,0.43c0,0.291-0.188,0.424-0.447,0.424H13.643z"/>
</svg>
