<?xml version="1.0" encoding="utf-8"?>
<!-- Generator: Adobe Illustrator 16.0.0, SVG Export Plug-In . SVG Version: 6.00 Build 0)  -->
<!DOCTYPE svg PUBLIC "-//W3C//DTD SVG 1.1//EN" "http://www.w3.org/Graphics/SVG/1.1/DTD/svg11.dtd">
<svg version="1.1" id="Layer_1" xmlns="http://www.w3.org/2000/svg" xmlns:xlink="http://www.w3.org/1999/xlink" x="0px" y="0px"
	 width="32px" height="32px" viewBox="0 0 32 32" enable-background="new 0 0 32 32" xml:space="preserve">
<g id="Layer_3" display="none">
</g>
<g id="Layer_2">
</g>
<g id="Layer_1_1_">
</g>
<g id="Language_specific">
	<g>
		<g>
			<g>
				<g>
					<defs>
						<path id="SVGID_1_" d="M4.135,1.559c-1.953,0-3.533,1.582-3.533,3.527v21.828c0,1.951,1.58,3.527,3.533,3.527h23.734
							c1.951,0,3.531-1.576,3.531-3.527V5.086c0-1.945-1.58-3.527-3.531-3.527H4.135z"/>
					</defs>
					<clipPath id="SVGID_2_">
						<use xlink:href="#SVGID_1_"  overflow="visible"/>
					</clipPath>
					
						<linearGradient id="SVGID_3_" gradientUnits="userSpaceOnUse" x1="-771.3877" y1="661.2773" x2="-769.6476" y2="661.2773" gradientTransform="matrix(5.8606 19.1691 -19.1691 5.8606 17207.7695 10910.6064)">
						<stop  offset="0" style="stop-color:#FFFFFF"/>
						<stop  offset="1" style="stop-color:#D0D0D0"/>
					</linearGradient>
					<polygon clip-path="url(#SVGID_2_)" fill="url(#SVGID_3_)" points="28.771,-7.037 39.494,27.973 3.232,39.039 -7.488,4.027 
											"/>
				</g>
			</g>
			<path fill="none" stroke="#5C5C5C" stroke-width="0.4351" stroke-linejoin="round" d="M31.402,26.914
				c0,1.953-1.582,3.527-3.531,3.527H4.135c-1.951,0-3.537-1.574-3.537-3.527V5.086c0-1.945,1.586-3.527,3.537-3.527h23.736
				c1.949,0,3.531,1.582,3.531,3.527V26.914z"/>
			<g>
				<g>
					<defs>
						<path id="SVGID_4_" d="M4.23,2.57c-1.459,0-2.646,1.188-2.646,2.648v21.568c0,1.455,1.188,2.641,2.646,2.641h23.542
							c1.463,0,2.647-1.186,2.647-2.641V5.219c0-1.461-1.187-2.648-2.647-2.648L4.23,2.57L4.23,2.57z"/>
					</defs>
					<clipPath id="SVGID_5_">
						<use xlink:href="#SVGID_4_"  overflow="visible"/>
					</clipPath>
					
						<linearGradient id="SVGID_6_" gradientUnits="userSpaceOnUse" x1="-765.4873" y1="625.7988" x2="-763.7485" y2="625.7988" gradientTransform="matrix(0 15.4443 -15.4443 0 9681.0186 11824.9902)">
						<stop  offset="0" style="stop-color:#FFFFFF"/>
						<stop  offset="1" style="stop-color:#F3F3F3"/>
					</linearGradient>
					<rect x="1.584" y="2.57" clip-path="url(#SVGID_5_)" fill="url(#SVGID_6_)" width="28.836" height="26.857"/>
				</g>
			</g>
			<path fill="none" stroke="#FAFAFA" stroke-width="0.4351" stroke-linejoin="round" d="M30.42,26.787
				c0,1.455-1.189,2.643-2.648,2.643H4.229c-1.457,0-2.648-1.188-2.648-2.643V5.219c0-1.463,1.191-2.646,2.648-2.646h23.542
				c1.459,0,2.648,1.184,2.648,2.646V26.787z"/>
		</g>
		<g>
			<path d="M15.68,18.592c1.229,0,2.009,0.953,2.009,2.158c0,1.232-0.78,2.17-2.009,2.17c-1.232,0-2.014-0.953-2.014-2.17
				C13.666,19.545,14.447,18.592,15.68,18.592 M15.68,22.127c0.635,0,1.059-0.648,1.059-1.377c0-0.715-0.424-1.363-1.059-1.363
				c-0.637,0-1.061,0.648-1.061,1.363C14.619,21.479,15.043,22.127,15.68,22.127"/>
			<path d="M17.418,8.59c0,0.219-0.197,0.316-0.406,0.316c-0.207,0-0.402-0.098-0.402-0.316V8.393h-0.022
				c-0.232,0.318-0.525,0.514-1.014,0.514c-1.135,0-1.855-0.879-1.855-2.002c0-1.113,0.721-1.992,1.855-1.992
				c0.488,0,0.781,0.197,1.014,0.514h0.022V5.229c0-0.219,0.195-0.316,0.402-0.316c0.209,0,0.406,0.098,0.406,0.316V8.59z
				 M16.623,6.904c0-0.662-0.391-1.26-1.016-1.26s-1.014,0.598-1.014,1.26c0,0.672,0.389,1.27,1.014,1.27S16.623,7.576,16.623,6.904
				"/>
			<path d="M14.326,11.084c-0.277,0-0.5-0.225-0.5-0.504c0-0.275,0.223-0.502,0.5-0.502h2.73c0.276,0,0.5,0.227,0.5,0.502
				c0,0.279-0.224,0.504-0.5,0.504H14.326z"/>
			<path d="M14.326,24.76c-0.277,0-0.5-0.225-0.5-0.502s0.223-0.504,0.5-0.504h2.73c0.276,0,0.5,0.227,0.5,0.504
				s-0.224,0.502-0.5,0.502H14.326z"/>
			<path d="M24.322,18.93c-0.113-0.246-0.158-0.402-0.158-0.492c0-0.256,0.18-0.414,0.439-0.414c0.256,0,0.379,0.158,0.457,0.336
				l3.053,6.857c0.111,0.248,0.158,0.404,0.158,0.494c0,0.256-0.179,0.414-0.437,0.414c-0.256,0-0.383-0.158-0.457-0.336
				L24.322,18.93z"/>
		</g>
	</g>
</g>
<g id="Layer_5">
</g>
</svg>
