<?xml version="1.0" encoding="utf-8"?>
<!-- Generator: Adobe Illustrator 16.0.4, SVG Export Plug-In . SVG Version: 6.00 Build 0)  -->
<!DOCTYPE svg PUBLIC "-//W3C//DTD SVG 1.1//EN" "http://www.w3.org/Graphics/SVG/1.1/DTD/svg11.dtd">
<svg version="1.1" xmlns="http://www.w3.org/2000/svg" xmlns:xlink="http://www.w3.org/1999/xlink" x="0px" y="0px" width="32px"
	 height="32px" viewBox="0 0 32 32" enable-background="new 0 0 32 32" xml:space="preserve">
<g id="Layer_3" display="none">
</g>
<g id="Layer_2">
</g>
<g id="Layer_1">
	<g>
		<g>
			<g>
				<defs>
					<path id="SVGID_5431_" d="M-31.183,4.201c-2.331,0-4.22,1.889-4.22,4.223v15.16c0,2.322,1.889,4.215,4.22,4.215h22.365
						c2.331,0,4.221-1.893,4.221-4.215V8.424c0-2.334-1.89-4.223-4.221-4.223H-31.183z"/>
				</defs>
				<clipPath id="SVGID_2_">
					<use xlink:href="#SVGID_5431_"  overflow="visible"/>
				</clipPath>
				
					<linearGradient id="SVGID_3_" gradientUnits="userSpaceOnUse" x1="-97.1387" y1="-674.667" x2="-94.9324" y2="-674.667" gradientTransform="matrix(4.3973 14.3829 14.3829 -4.3973 10105.9316 -1569.5498)">
					<stop  offset="0" style="stop-color:#FFFFFF"/>
					<stop  offset="1" style="stop-color:#D0D0D0"/>
				</linearGradient>
				<polygon clip-path="url(#SVGID_2_)" fill="url(#SVGID_3_)" points="-8.548,-6.129 2,25.781 -32.181,38.129 -42,6.221 				"/>
			</g>
		</g>
	</g>
	<g>
		<g>
			<g>
				<defs>
					<path id="SVGID_5437_" d="M4.817,4.201c-2.331,0-4.22,1.889-4.22,4.223v15.16c0,2.322,1.889,4.215,4.22,4.215h22.365
						c2.331,0,4.221-1.893,4.221-4.215V8.424c0-2.334-1.89-4.223-4.221-4.223H4.817z"/>
				</defs>
				<clipPath id="SVGID_5_">
					<use xlink:href="#SVGID_5437_"  overflow="visible"/>
				</clipPath>
				
					<linearGradient id="SVGID_6_" gradientUnits="userSpaceOnUse" x1="-96.4385" y1="-672.3779" x2="-94.2326" y2="-672.3779" gradientTransform="matrix(4.3973 14.3829 14.3829 -4.3973 10105.9316 -1569.5498)">
					<stop  offset="0" style="stop-color:#FFFFFF"/>
					<stop  offset="1" style="stop-color:#D0D0D0"/>
				</linearGradient>
				<polygon clip-path="url(#SVGID_5_)" fill="url(#SVGID_6_)" points="27.452,-6.129 38,25.781 3.819,38.129 -6,6.221 				"/>
			</g>
			<path fill="none" stroke="#5C5C5C" stroke-width="0.5198" stroke-linejoin="round" d="M31.403,23.582
				c0,2.324-1.892,4.217-4.217,4.217H4.815c-2.331,0-4.218-1.893-4.218-4.217V8.424c0-2.336,1.887-4.217,4.218-4.217h22.371
				c2.325,0,4.217,1.881,4.217,4.217V23.582z"/>
			<g>
				<defs>
					<path id="SVGID_5440_" d="M4.927,5.416c-1.742,0-3.157,1.418-3.157,3.164v14.84c0,1.742,1.415,3.164,3.157,3.164h22.14
						c1.745,0,3.161-1.422,3.161-3.164V8.58c0-1.746-1.416-3.164-3.161-3.164H4.927z"/>
				</defs>
				<clipPath id="SVGID_8_">
					<use xlink:href="#SVGID_5440_"  overflow="visible"/>
				</clipPath>
				
					<linearGradient id="SVGID_9_" gradientUnits="userSpaceOnUse" x1="-68.2559" y1="-652.748" x2="-66.1772" y2="-652.748" gradientTransform="matrix(0 10.1826 10.1826 0 6662.6719 700.4384)">
					<stop  offset="0" style="stop-color:#FFFFFF"/>
					<stop  offset="1" style="stop-color:#F3F3F3"/>
				</linearGradient>
				<rect x="1.77" y="5.416" clip-path="url(#SVGID_8_)" fill="url(#SVGID_9_)" width="28.458" height="21.168"/>
			</g>
			<path fill="none" stroke="#FAFAFA" stroke-width="0.5198" stroke-linejoin="round" d="M30.227,23.424
				c0,1.742-1.415,3.16-3.162,3.16H4.93c-1.742,0-3.162-1.418-3.162-3.16V8.58c0-1.746,1.42-3.166,3.162-3.166h22.135
				c1.747,0,3.162,1.42,3.162,3.166V23.424z"/>
		</g>
		<g>
			<path d="M8.059,11.982h3.412c0.35,0,0.57-0.158,0.57-0.582c0-0.412-0.221-0.543-0.57-0.543H7.518
				c-0.471,0-0.646,0.266-0.646,0.654v9.117c0,0.412,0.223,0.639,0.605,0.639c0.344,0,0.582-0.227,0.582-0.639v-4.051h3.098
				c0.314,0,0.568-0.207,0.568-0.545c0-0.385-0.254-0.582-0.568-0.582H8.059V11.982"/>
			<path d="M15.447,11.902v8.734c0,0.404,0.221,0.631,0.572,0.631c0.387,0,0.629-0.227,0.629-0.631v-9.492
				c0-0.252-0.146-0.285-0.414-0.285h-2.125c-0.279,0-0.521,0.207-0.521,0.51c0,0.32,0.242,0.533,0.521,0.533H15.447"/>
			<path d="M20.748,20.119l3.424-4.695c0.631-0.881,0.678-1.471,0.678-2.135c0-1.275-1.018-2.557-2.699-2.557
				c-2.09,0-3.156,1.553-3.156,3.281c0,0.51,0.191,0.75,0.58,0.75c0.244,0,0.471-0.16,0.471-0.568c0-1.314,0.656-2.355,1.928-2.355
				c0.902,0,1.652,0.676,1.652,1.65c0,0.605-0.361,1.273-0.76,1.83l-3.527,4.793c-0.211,0.303-0.283,0.445-0.283,0.549
				c0,0.227,0.168,0.51,0.703,0.51h4.861c0.264,0,0.51-0.23,0.51-0.533c0-0.246-0.246-0.52-0.51-0.52H20.748"/>
		</g>
	</g>
	<g>
		<g>
			<g>
				<defs>
					<path id="SVGID_5455_" d="M40.817,4.201c-2.331,0-4.22,1.889-4.22,4.223v15.16c0,2.322,1.889,4.215,4.22,4.215h22.365
						c2.331,0,4.221-1.893,4.221-4.215V8.424c0-2.334-1.89-4.223-4.221-4.223H40.817z"/>
				</defs>
				<clipPath id="SVGID_11_">
					<use xlink:href="#SVGID_5455_"  overflow="visible"/>
				</clipPath>
				
					<linearGradient id="SVGID_12_" gradientUnits="userSpaceOnUse" x1="-95.7388" y1="-670.0898" x2="-93.5329" y2="-670.0898" gradientTransform="matrix(4.3973 14.3829 14.3829 -4.3973 10105.9316 -1569.5498)">
					<stop  offset="0" style="stop-color:#FFFFFF"/>
					<stop  offset="1" style="stop-color:#D0D0D0"/>
				</linearGradient>
				<polygon clip-path="url(#SVGID_11_)" fill="url(#SVGID_12_)" points="63.452,-6.129 74,25.781 39.819,38.129 30,6.221 				"/>
			</g>
		</g>
	</g>
</g>
<g id="Language_specific">
</g>
<g id="Layer_5">
</g>
</svg>
