<?xml version="1.0" encoding="utf-8"?>
<!-- Generator: Adobe Illustrator 16.0.4, SVG Export Plug-In . SVG Version: 6.00 Build 0)  -->
<!DOCTYPE svg PUBLIC "-//W3C//DTD SVG 1.1//EN" "http://www.w3.org/Graphics/SVG/1.1/DTD/svg11.dtd">
<svg version="1.1" id="Reference" xmlns="http://www.w3.org/2000/svg" xmlns:xlink="http://www.w3.org/1999/xlink" x="0px" y="0px"
	 width="32px" height="32px" viewBox="0 0 32 32" enable-background="new 0 0 32 32" xml:space="preserve">
<g>
	<g>
		<defs>
			<path id="SVGID_781_" d="M-27.865,1.546c-1.952,0-3.533,1.582-3.533,3.527v21.828c0,1.951,1.581,3.527,3.533,3.527h23.734
				c1.952,0,3.532-1.576,3.532-3.527V5.073c0-1.945-1.58-3.527-3.532-3.527H-27.865z"/>
		</defs>
		<clipPath id="SVGID_2_">
			<use xlink:href="#SVGID_781_"  overflow="visible"/>
		</clipPath>
		
			<linearGradient id="SVGID_3_" gradientUnits="userSpaceOnUse" x1="-508.04" y1="-1300.6445" x2="-506.2999" y2="-1300.6445" gradientTransform="matrix(5.8606 19.1691 19.1691 -5.8606 27888.4785 2115.3809)">
			<stop  offset="0" style="stop-color:#FFFFFF"/>
			<stop  offset="1" style="stop-color:#D0D0D0"/>
		</linearGradient>
		<polygon clip-path="url(#SVGID_2_)" fill="url(#SVGID_3_)" points="-3.229,-7.05 7.494,27.96 -28.768,39.026 -39.488,4.015 		"/>
	</g>
</g>
<g>
	<g>
		<defs>
			<path id="SVGID_787_" d="M4.135,1.546c-1.952,0-3.533,1.582-3.533,3.527v21.828c0,1.951,1.581,3.527,3.533,3.527h23.734
				c1.952,0,3.532-1.576,3.532-3.527V5.073c0-1.945-1.58-3.527-3.532-3.527H4.135z"/>
		</defs>
		<clipPath id="SVGID_5_">
			<use xlink:href="#SVGID_787_"  overflow="visible"/>
		</clipPath>
		
			<linearGradient id="SVGID_6_" gradientUnits="userSpaceOnUse" x1="-507.5732" y1="-1299.1172" x2="-505.8331" y2="-1299.1172" gradientTransform="matrix(5.8606 19.1691 19.1691 -5.8606 27888.4785 2115.3809)">
			<stop  offset="0" style="stop-color:#FFFFFF"/>
			<stop  offset="1" style="stop-color:#D0D0D0"/>
		</linearGradient>
		<polygon clip-path="url(#SVGID_5_)" fill="url(#SVGID_6_)" points="28.771,-7.05 39.494,27.96 3.232,39.026 -7.488,4.015 		"/>
	</g>
	<path fill="none" stroke="#5C5C5C" stroke-width="0.4351" stroke-linejoin="round" d="M31.403,26.901
		c0,1.953-1.582,3.527-3.532,3.527H4.136c-1.951,0-3.538-1.574-3.538-3.527V5.073c0-1.945,1.587-3.527,3.538-3.527h23.735
		c1.95,0,3.532,1.582,3.532,3.527V26.901z"/>
	<g>
		<defs>
			<path id="SVGID_790_" d="M4.23,2.558c-1.459,0-2.646,1.188-2.646,2.648v21.568c0,1.455,1.188,2.641,2.646,2.641h23.542
				c1.462,0,2.648-1.186,2.648-2.641V5.206c0-1.461-1.187-2.648-2.648-2.648H4.23z"/>
		</defs>
		<clipPath id="SVGID_8_">
			<use xlink:href="#SVGID_790_"  overflow="visible"/>
		</clipPath>
		
			<linearGradient id="SVGID_9_" gradientUnits="userSpaceOnUse" x1="-489.7397" y1="-1269.457" x2="-488.001" y2="-1269.457" gradientTransform="matrix(0 15.4443 15.4443 0 19621.8809 7566.252)">
			<stop  offset="0" style="stop-color:#FFFFFF"/>
			<stop  offset="1" style="stop-color:#F3F3F3"/>
		</linearGradient>
		<rect x="1.584" y="2.558" clip-path="url(#SVGID_8_)" fill="url(#SVGID_9_)" width="28.837" height="26.857"/>
	</g>
	<path fill="none" stroke="#FAFAFA" stroke-width="0.4351" stroke-linejoin="round" d="M30.421,26.774
		c0,1.455-1.19,2.643-2.648,2.643H4.229c-1.457,0-2.647-1.188-2.647-2.643V5.206c0-1.463,1.19-2.646,2.647-2.646h23.544
		c1.458,0,2.648,1.184,2.648,2.646V26.774z"/>
</g>
<g>
	<g>
		<defs>
			<path id="SVGID_793_" d="M36.135,1.546c-1.952,0-3.533,1.582-3.533,3.527v21.828c0,1.951,1.581,3.527,3.533,3.527h23.734
				c1.952,0,3.532-1.576,3.532-3.527V5.073c0-1.945-1.58-3.527-3.532-3.527H36.135z"/>
		</defs>
		<clipPath id="SVGID_11_">
			<use xlink:href="#SVGID_793_"  overflow="visible"/>
		</clipPath>
		
			<linearGradient id="SVGID_12_" gradientUnits="userSpaceOnUse" x1="-507.1064" y1="-1297.5908" x2="-505.3663" y2="-1297.5908" gradientTransform="matrix(5.8606 19.1691 19.1691 -5.8606 27888.4785 2115.3809)">
			<stop  offset="0" style="stop-color:#FFFFFF"/>
			<stop  offset="1" style="stop-color:#D0D0D0"/>
		</linearGradient>
		<polygon clip-path="url(#SVGID_11_)" fill="url(#SVGID_12_)" points="60.771,-7.05 71.494,27.96 35.232,39.026 24.512,4.015 		"/>
	</g>
</g>
<path d="M16,18.795c1.486,0,2.684,1.52,2.684,4.135S17.486,27.064,16,27.064s-2.684-1.52-2.684-4.135S14.514,18.795,16,18.795
	 M16,26.195c0.891,0,1.609-0.992,1.609-3.266c0-2.271-0.719-3.266-1.609-3.266c-0.889,0-1.611,0.994-1.611,3.266
	C14.389,25.203,15.111,26.195,16,26.195"/>
<g>
	<path d="M14.879,8.198C15.012,7.944,15.164,7.7,15.514,7.7c0.283,0,0.537,0.215,0.537,0.512c0,0.15-0.037,0.283-0.145,0.5
		L15.148,10.2c-0.137,0.256-0.279,0.5-0.633,0.5c-0.287,0-0.543-0.217-0.543-0.514c0-0.148,0.043-0.283,0.148-0.502L14.879,8.198z"
		/>
	<path d="M17.076,8.198C17.211,7.944,17.357,7.7,17.711,7.7c0.283,0,0.539,0.215,0.539,0.512c0,0.15-0.039,0.283-0.146,0.5
		L17.346,10.2c-0.135,0.256-0.285,0.5-0.635,0.5c-0.285,0-0.539-0.217-0.539-0.514c0-0.148,0.041-0.283,0.146-0.502L17.076,8.198z"
		/>
</g>
</svg>
