<?xml version="1.0" encoding="utf-8"?>
<!-- Generator: Adobe Illustrator 16.0.0, SVG Export Plug-In . SVG Version: 6.00 Build 0)  -->
<!DOCTYPE svg PUBLIC "-//W3C//DTD SVG 1.1//EN" "http://www.w3.org/Graphics/SVG/1.1/DTD/svg11.dtd">
<svg version="1.1" id="Layer_1" xmlns="http://www.w3.org/2000/svg" xmlns:xlink="http://www.w3.org/1999/xlink" x="0px" y="0px"
	 width="64px" height="32px" viewBox="0 0 64 32" enable-background="new 0 0 64 32" xml:space="preserve">
<g>
	<g>
		<g>
			<defs>
				<path id="SVGID_1_" d="M4.135,1.559c-1.953,0-3.533,1.582-3.533,3.527v21.828c0,1.951,1.58,3.527,3.533,3.527h55.734
					c1.951,0,3.531-1.576,3.531-3.527V5.086c0-1.945-1.58-3.527-3.531-3.527H4.135z"/>
			</defs>
			<clipPath id="SVGID_2_">
				<use xlink:href="#SVGID_1_"  overflow="visible"/>
			</clipPath>
			
				<linearGradient id="SVGID_3_" gradientUnits="userSpaceOnUse" x1="-313.791" y1="-96.606" x2="-311.6069" y2="-96.606" gradientTransform="matrix(5.8606 19.1691 -19.1691 5.8606 12.7437 6576.2881)">
				<stop  offset="0" style="stop-color:#FFFFFF"/>
				<stop  offset="1" style="stop-color:#D0D0D0"/>
			</linearGradient>
			<polygon clip-path="url(#SVGID_2_)" fill="url(#SVGID_3_)" points="60.771,-7.037 71.494,27.973 3.232,39.039 -7.488,4.027 			
				"/>
		</g>
	</g>
	<path fill="none" stroke="#5C5C5C" stroke-width="0.4351" stroke-linejoin="round" d="M63.402,26.914
		c0,1.953-1.582,3.527-3.531,3.527H4.135c-1.951,0-3.537-1.574-3.537-3.527V5.086c0-1.945,1.586-3.527,3.537-3.527h55.736
		c1.949,0,3.531,1.582,3.531,3.527V26.914z"/>
	<g>
		<g>
			<defs>
				<path id="SVGID_4_" d="M4.23,2.57c-1.459,0-2.646,1.188-2.646,2.648v21.568c0,1.455,1.188,2.641,2.646,2.641h55.541
					c1.463,0,2.647-1.186,2.647-2.641V5.219c0-1.461-1.187-2.648-2.647-2.648L4.23,2.57L4.23,2.57z"/>
			</defs>
			<clipPath id="SVGID_5_">
				<use xlink:href="#SVGID_4_"  overflow="visible"/>
			</clipPath>
			
				<linearGradient id="SVGID_6_" gradientUnits="userSpaceOnUse" x1="-313.8623" y1="-110.0859" x2="-312.123" y2="-110.0859" gradientTransform="matrix(0 15.4443 -15.4443 0 -1668.1978 4849.9536)">
				<stop  offset="0" style="stop-color:#FFFFFF"/>
				<stop  offset="1" style="stop-color:#F3F3F3"/>
			</linearGradient>
			<rect x="1.584" y="2.57" clip-path="url(#SVGID_5_)" fill="url(#SVGID_6_)" width="60.836" height="26.857"/>
		</g>
	</g>
	<path fill="none" stroke="#FAFAFA" stroke-width="0.4351" stroke-linejoin="round" d="M62.42,26.787
		c0,1.455-1.189,2.643-2.648,2.643H4.229c-1.457,0-2.647-1.188-2.647-2.643V5.219c0-1.463,1.19-2.646,2.647-2.646h55.543
		c1.459,0,2.648,1.184,2.648,2.646V26.787z"/>
</g>
<g enable-background="new    ">
	<path d="M13.139,18.595c0,0.331-0.193,0.536-0.502,0.536s-0.502-0.205-0.502-0.536v-7.807c0-0.331,0.193-0.537,0.502-0.537
		s0.502,0.206,0.502,0.537V18.595z"/>
	<path d="M15.102,16.414c0,1.039,0.661,1.85,1.791,1.85c1.336,0,1.678-0.822,2.055-0.822c0.183,0,0.365,0.16,0.365,0.445
		c0,0.491-1.244,1.244-2.432,1.244c-1.939,0-2.784-1.495-2.784-3.104c0-1.644,1.027-3.104,2.728-3.104
		c1.655,0,2.613,1.495,2.613,2.956c0,0.354-0.125,0.536-0.559,0.536H15.102z M18.434,15.661c0-0.867-0.502-1.872-1.609-1.872
		c-1.244-0.045-1.689,0.947-1.723,1.872H18.434z"/>
	<path d="M21.033,16.414c0,1.039,0.662,1.85,1.792,1.85c1.335,0,1.678-0.822,2.054-0.822c0.184,0,0.365,0.16,0.365,0.445
		c0,0.491-1.244,1.244-2.431,1.244c-1.94,0-2.784-1.495-2.784-3.104c0-1.644,1.026-3.104,2.727-3.104
		c1.656,0,2.614,1.495,2.614,2.956c0,0.354-0.126,0.536-0.56,0.536H21.033z M24.365,15.661c0-0.867-0.502-1.872-1.609-1.872
		c-1.243-0.045-1.688,0.947-1.723,1.872H24.365z"/>
	<path d="M26.326,13.458c0-0.331,0.193-0.536,0.502-0.536s0.502,0.205,0.502,0.536v0.514h0.023c0.229-0.468,0.787-1.05,1.369-1.05
		c0.354,0,0.56,0.229,0.56,0.514s-0.206,0.468-0.628,0.548c-0.594,0.103-1.324,0.548-1.324,1.724v2.888
		c0,0.331-0.193,0.536-0.502,0.536s-0.502-0.205-0.502-0.536V13.458z"/>
	<path d="M30.238,11.678c0-0.331,0.195-0.536,0.503-0.536s0.502,0.205,0.502,0.536v1.312h0.411c0.331,0,0.502,0.16,0.502,0.434
		c0,0.274-0.171,0.434-0.502,0.434h-0.411v4.737c0,0.331-0.194,0.536-0.502,0.536s-0.503-0.205-0.503-0.536v-4.737h-0.41
		c-0.331,0-0.502-0.159-0.502-0.434c0-0.273,0.171-0.434,0.502-0.434h0.41V11.678z"/>
	<path d="M37.907,18.641c0,0.354-0.274,0.49-0.468,0.49c-0.205,0-0.469-0.137-0.469-0.49v-0.423h-0.022
		c-0.434,0.616-1.005,0.913-1.655,0.913c-1.711,0-2.67-1.495-2.67-3.104s0.959-3.104,2.67-3.104c0.697,0,1.188,0.297,1.655,0.811
		h0.022v-0.319c0-0.354,0.264-0.491,0.469-0.491c0.193,0,0.468,0.137,0.468,0.491V18.641z M35.293,18.264
		c1.232,0,1.667-1.21,1.667-2.237s-0.435-2.237-1.667-2.237s-1.666,1.21-1.666,2.237S34.061,18.264,35.293,18.264z"/>
	<path d="M41.156,12.922c0.834,0,2.021,0.445,2.021,1.073c0,0.217-0.147,0.411-0.456,0.411c-0.434,0-0.605-0.617-1.564-0.617
		c-0.57,0-1.061,0.252-1.061,0.765c0,1.062,3.241,0.948,3.241,2.705c0,1.268-1.085,1.872-2.214,1.872
		c-1.279,0-2.283-0.639-2.283-1.152c0-0.274,0.193-0.457,0.411-0.457c0.444,0,0.81,0.742,1.905,0.742
		c0.73,0,1.176-0.411,1.176-0.822c0-1.187-3.241-1.118-3.241-2.808C39.091,13.516,40.141,12.922,41.156,12.922z"/>
	<path d="M44.612,11.678c0-0.331,0.194-0.536,0.503-0.536c0.308,0,0.502,0.205,0.502,0.536v1.312h0.41
		c0.332,0,0.502,0.16,0.502,0.434c0,0.274-0.17,0.434-0.502,0.434h-0.41v4.737c0,0.331-0.194,0.536-0.502,0.536
		c-0.309,0-0.503-0.205-0.503-0.536v-4.737h-0.411c-0.33,0-0.502-0.159-0.502-0.434c0-0.273,0.172-0.434,0.502-0.434h0.411V11.678z"
		/>
	<path d="M47.898,16.414c0,1.039,0.662,1.85,1.792,1.85c1.335,0,1.678-0.822,2.054-0.822c0.184,0,0.365,0.16,0.365,0.445
		c0,0.491-1.244,1.244-2.431,1.244c-1.94,0-2.784-1.495-2.784-3.104c0-1.644,1.026-3.104,2.727-3.104
		c1.656,0,2.614,1.495,2.614,2.956c0,0.354-0.126,0.536-0.56,0.536H47.898z M51.23,15.661c0-0.867-0.502-1.872-1.609-1.872
		c-1.243-0.045-1.688,0.947-1.723,1.872H51.23z"/>
</g>
</svg>
