<?xml version="1.0" encoding="utf-8"?>
<!-- Generator: Adobe Illustrator 16.0.4, SVG Export Plug-In . SVG Version: 6.00 Build 0)  -->
<!DOCTYPE svg PUBLIC "-//W3C//DTD SVG 1.1//EN" "http://www.w3.org/Graphics/SVG/1.1/DTD/svg11.dtd">
<svg version="1.1" xmlns="http://www.w3.org/2000/svg" xmlns:xlink="http://www.w3.org/1999/xlink" x="0px" y="0px" width="32px"
	 height="32px" viewBox="0 0 32 32" enable-background="new 0 0 32 32" xml:space="preserve">
<g id="Layer_3" display="none">
</g>
<g id="Layer_2">
</g>
<g id="Layer_1">
</g>
<g id="Language_specific">
	<g>
		<g>
			<g>
				<defs>
					<path id="SVGID_1717_" d="M4.135,1.559c-1.953,0-3.533,1.582-3.533,3.527v21.828c0,1.951,1.58,3.527,3.533,3.527h23.734
						c1.951,0,3.531-1.576,3.531-3.527V5.086c0-1.945-1.58-3.527-3.531-3.527H4.135z"/>
				</defs>
				<clipPath id="SVGID_2_">
					<use xlink:href="#SVGID_1717_"  overflow="visible"/>
				</clipPath>
				
					<linearGradient id="SVGID_3_" gradientUnits="userSpaceOnUse" x1="-953.9507" y1="-629.6504" x2="-952.2101" y2="-629.6504" gradientTransform="matrix(5.8606 19.1691 19.1691 -5.8606 17671.4258 14595.5254)">
					<stop  offset="0" style="stop-color:#FFFFFF"/>
					<stop  offset="1" style="stop-color:#D0D0D0"/>
				</linearGradient>
				<polygon clip-path="url(#SVGID_2_)" fill="url(#SVGID_3_)" points="28.771,-7.037 39.494,27.973 3.232,39.039 -7.488,4.027 				
					"/>
			</g>
			<path fill="none" stroke="#5C5C5C" stroke-width="0.4351" stroke-linejoin="round" d="M31.402,26.914
				c0,1.953-1.582,3.527-3.531,3.527H4.135c-1.951,0-3.537-1.574-3.537-3.527V5.086c0-1.945,1.586-3.527,3.537-3.527h23.736
				c1.949,0,3.531,1.582,3.531,3.527V26.914z"/>
			<g>
				<defs>
					<path id="SVGID_1720_" d="M4.23,2.57c-1.459,0-2.646,1.188-2.646,2.648v21.568c0,1.455,1.188,2.641,2.646,2.641h23.541
						c1.463,0,2.648-1.186,2.648-2.641V5.219c0-1.461-1.186-2.648-2.648-2.648H4.23z"/>
				</defs>
				<clipPath id="SVGID_5_">
					<use xlink:href="#SVGID_1720_"  overflow="visible"/>
				</clipPath>
				
					<linearGradient id="SVGID_6_" gradientUnits="userSpaceOnUse" x1="-953.1782" y1="-602.1328" x2="-951.4395" y2="-602.1328" gradientTransform="matrix(0 15.4443 15.4443 0 9315.5293 14723.7461)">
					<stop  offset="0" style="stop-color:#FFFFFF"/>
					<stop  offset="1" style="stop-color:#F3F3F3"/>
				</linearGradient>
				<rect x="1.584" y="2.57" clip-path="url(#SVGID_5_)" fill="url(#SVGID_6_)" width="28.836" height="26.857"/>
			</g>
			<path fill="none" stroke="#FAFAFA" stroke-width="0.4351" stroke-linejoin="round" d="M30.42,26.787
				c0,1.455-1.189,2.643-2.648,2.643H4.229c-1.457,0-2.648-1.188-2.648-2.643V5.219c0-1.463,1.191-2.646,2.648-2.646h23.543
				c1.459,0,2.648,1.184,2.648,2.646V26.787z"/>
		</g>
		<g>
			<path d="M14.869,19.701h2.865c0.338,0,0.58,0.174,0.58,0.555c0,0.379-0.242,0.553-0.58,0.553h-3.418
				c-0.447,0-0.635-0.283-0.635-0.648v-8.324c0-0.363,0.188-0.646,0.635-0.646h3.418c0.338,0,0.58,0.176,0.58,0.553
				c0,0.379-0.242,0.553-0.58,0.553h-2.865v3.15h2.607c0.338,0,0.582,0.176,0.582,0.553c0,0.379-0.244,0.557-0.582,0.557h-2.607
				V19.701z"/>
			<path d="M27.342,25.707c-0.377,0.254-1.023,0.498-1.82,0.498c-0.988,0-1.883-0.377-2.48-1.088
				c-0.465-0.512-0.771-1.223-0.881-2.102h-0.758v-0.611h0.695v-0.184c0-0.182,0.016-0.367,0.027-0.539h-0.723V21.07h0.807
				c0.146-0.855,0.502-1.564,1.004-2.066c0.611-0.646,1.418-1.014,2.406-1.014c0.736,0,1.297,0.209,1.639,0.393l-0.242,0.805
				c-0.322-0.184-0.82-0.342-1.371-0.342c-0.66,0-1.211,0.234-1.625,0.66c-0.357,0.367-0.6,0.918-0.721,1.564h3.408v0.611h-3.52
				c-0.025,0.16-0.025,0.33-0.025,0.514v0.209h3.545v0.611h-3.461c0.1,0.709,0.332,1.234,0.674,1.602
				c0.451,0.488,1.064,0.709,1.725,0.709c0.648,0,1.209-0.232,1.492-0.402L27.342,25.707z"/>
		</g>
	</g>
	<g>
		<g>
			<g>
				<defs>
					<path id="SVGID_1885_" d="M41.135,1.559c-1.953,0-3.533,1.582-3.533,3.527v21.828c0,1.951,1.58,3.527,3.533,3.527h23.734
						c1.951,0,3.531-1.576,3.531-3.527V5.086c0-1.945-1.58-3.527-3.531-3.527H41.135z"/>
				</defs>
				<clipPath id="SVGID_8_">
					<use xlink:href="#SVGID_1885_"  overflow="visible"/>
				</clipPath>
				
					<linearGradient id="SVGID_9_" gradientUnits="userSpaceOnUse" x1="-953.4106" y1="-627.8848" x2="-951.6705" y2="-627.8848" gradientTransform="matrix(5.8606 19.1691 19.1691 -5.8606 17671.4258 14595.5254)">
					<stop  offset="0" style="stop-color:#FFFFFF"/>
					<stop  offset="1" style="stop-color:#D0D0D0"/>
				</linearGradient>
				<polygon clip-path="url(#SVGID_8_)" fill="url(#SVGID_9_)" points="65.771,-7.037 76.494,27.973 40.232,39.039 29.512,4.027 
									"/>
			</g>
		</g>
	</g>
</g>
<g id="Layer_5">
</g>
</svg>
