<?xml version="1.0" encoding="utf-8"?>
<!-- Generator: Adobe Illustrator 16.0.4, SVG Export Plug-In . SVG Version: 6.00 Build 0)  -->
<!DOCTYPE svg PUBLIC "-//W3C//DTD SVG 1.1//EN" "http://www.w3.org/Graphics/SVG/1.1/DTD/svg11.dtd">
<svg version="1.1" xmlns="http://www.w3.org/2000/svg" xmlns:xlink="http://www.w3.org/1999/xlink" x="0px" y="0px" width="32px"
	 height="32px" viewBox="0 0 32 32" enable-background="new 0 0 32 32" xml:space="preserve">
<g id="Layer_3" display="none">
</g>
<g id="Layer_2">
</g>
<g id="Layer_1">
</g>
<g id="Language_specific">
	<g>
		<g>
			<g>
				<defs>
					<path id="SVGID_919_" d="M4.135,1.559c-1.952,0-3.533,1.582-3.533,3.527v21.828c0,1.951,1.581,3.527,3.533,3.527h23.734
						c1.952,0,3.532-1.576,3.532-3.527V5.086c0-1.945-1.58-3.527-3.532-3.527H4.135z"/>
				</defs>
				<clipPath id="SVGID_2_">
					<use xlink:href="#SVGID_919_"  overflow="visible"/>
				</clipPath>
				
					<linearGradient id="SVGID_3_" gradientUnits="userSpaceOnUse" x1="-1334.3203" y1="-611.2344" x2="-1332.5802" y2="-611.2344" gradientTransform="matrix(5.8606 19.1691 19.1691 -5.8606 19547.6172 21994.7969)">
					<stop  offset="0" style="stop-color:#FFFFFF"/>
					<stop  offset="1" style="stop-color:#D0D0D0"/>
				</linearGradient>
				<polygon clip-path="url(#SVGID_2_)" fill="url(#SVGID_3_)" points="28.771,-7.037 39.494,27.973 3.232,39.039 -7.488,4.027 				
					"/>
			</g>
			<path fill="none" stroke="#5C5C5C" stroke-width="0.4351" stroke-linejoin="round" d="M31.403,26.914
				c0,1.953-1.582,3.527-3.532,3.527H4.136c-1.951,0-3.538-1.574-3.538-3.527V5.086c0-1.945,1.587-3.527,3.538-3.527h23.735
				c1.95,0,3.532,1.582,3.532,3.527V26.914z"/>
			<g>
				<defs>
					<path id="SVGID_922_" d="M4.23,2.57c-1.459,0-2.646,1.188-2.646,2.648v21.568c0,1.455,1.188,2.641,2.646,2.641h23.542
						c1.462,0,2.648-1.186,2.648-2.641V5.219c0-1.461-1.187-2.648-2.648-2.648H4.23z"/>
				</defs>
				<clipPath id="SVGID_5_">
					<use xlink:href="#SVGID_922_"  overflow="visible"/>
				</clipPath>
				
					<linearGradient id="SVGID_6_" gradientUnits="userSpaceOnUse" x1="-1339.1782" y1="-577.1396" x2="-1337.4395" y2="-577.1396" gradientTransform="matrix(0 15.4443 15.4443 0 8929.5293 20685.2461)">
					<stop  offset="0" style="stop-color:#FFFFFF"/>
					<stop  offset="1" style="stop-color:#F3F3F3"/>
				</linearGradient>
				<rect x="1.584" y="2.57" clip-path="url(#SVGID_5_)" fill="url(#SVGID_6_)" width="28.837" height="26.857"/>
			</g>
			<path fill="none" stroke="#FAFAFA" stroke-width="0.4351" stroke-linejoin="round" d="M30.421,26.787
				c0,1.455-1.19,2.643-2.648,2.643H4.229c-1.457,0-2.647-1.188-2.647-2.643V5.219c0-1.463,1.19-2.646,2.647-2.646h23.544
				c1.458,0,2.648,1.184,2.648,2.646V26.787z"/>
		</g>
		<path d="M14.024,9.715c-0.238,0.428-0.338,0.631-0.627,0.631c-0.266,0-0.465-0.176-0.465-0.416c0-0.176,0.127-0.375,0.215-0.539
			l2.197-3.92c0.162-0.287,0.326-0.516,0.652-0.516s0.49,0.229,0.654,0.516l2.195,3.92c0.092,0.164,0.215,0.363,0.215,0.539
			c0,0.24-0.201,0.416-0.463,0.416c-0.291,0-0.389-0.203-0.629-0.631l-1.973-3.652L14.024,9.715z"/>
		<path d="M14.904,19.479c-0.298-0.119-0.374-0.268-0.374-0.395c0-0.16,0.127-0.445,0.405-0.445c0.098,0,0.18,0.02,0.362,0.094
			l1.222,0.502c0.298,0.115,0.372,0.264,0.372,0.391c0,0.16-0.127,0.447-0.405,0.447c-0.093,0-0.179-0.02-0.358-0.094L14.904,19.479
			z"/>
		<path d="M16.527,25.807c0,0.295-0.173,0.479-0.449,0.479c-0.274,0-0.447-0.184-0.447-0.479v-4.414c0-0.297,0.173-0.48,0.447-0.48
			c0.276,0,0.449,0.184,0.449,0.48V25.807z"/>
	</g>
	<g>
		<g>
			<g>
				<defs>
					<path id="SVGID_943_" d="M-34.866,1.559c-1.952,0-3.533,1.582-3.533,3.527v21.828c0,1.951,1.581,3.527,3.533,3.527h23.734
						c1.952,0,3.532-1.576,3.532-3.527V5.086c0-1.945-1.58-3.527-3.532-3.527H-34.866z"/>
				</defs>
				<clipPath id="SVGID_8_">
					<use xlink:href="#SVGID_943_"  overflow="visible"/>
				</clipPath>
				
					<linearGradient id="SVGID_9_" gradientUnits="userSpaceOnUse" x1="-1334.8892" y1="-613.0957" x2="-1333.149" y2="-613.0957" gradientTransform="matrix(5.8606 19.1691 19.1691 -5.8606 19547.6172 21994.7969)">
					<stop  offset="0" style="stop-color:#FFFFFF"/>
					<stop  offset="1" style="stop-color:#D0D0D0"/>
				</linearGradient>
				<polygon clip-path="url(#SVGID_8_)" fill="url(#SVGID_9_)" points="-10.229,-7.037 0.493,27.973 -35.769,39.039 -46.489,4.027 
									"/>
			</g>
		</g>
	</g>
</g>
<g id="Layer_5">
</g>
</svg>
