<?xml version="1.0" encoding="utf-8"?>
<!-- Generator: Adobe Illustrator 16.0.0, SVG Export Plug-In . SVG Version: 6.00 Build 0)  -->
<!DOCTYPE svg PUBLIC "-//W3C//DTD SVG 1.1//EN" "http://www.w3.org/Graphics/SVG/1.1/DTD/svg11.dtd">
<svg version="1.1" id="Reference" xmlns="http://www.w3.org/2000/svg" xmlns:xlink="http://www.w3.org/1999/xlink" x="0px" y="0px"
	 width="32px" height="32px" viewBox="0 0 32 32" enable-background="new 0 0 32 32" xml:space="preserve">
<g>
	<g>
		<g>
			<g>
				<defs>
					<path id="SVGID_1_" d="M4.135,1.57c-1.952,0-3.533,1.582-3.533,3.527v21.828c0,1.951,1.581,3.527,3.533,3.527h23.734
						c1.951,0,3.531-1.576,3.531-3.527V5.098c0-1.945-1.58-3.527-3.531-3.527L4.135,1.57L4.135,1.57z"/>
				</defs>
				<clipPath id="SVGID_2_">
					<use xlink:href="#SVGID_1_"  overflow="visible"/>
				</clipPath>
				
					<linearGradient id="SVGID_3_" gradientUnits="userSpaceOnUse" x1="-521.5625" y1="1497.0371" x2="-519.8224" y2="1497.0371" gradientTransform="matrix(5.8606 19.1691 -19.1691 5.8606 31764.4355 1223.6343)">
					<stop  offset="0" style="stop-color:#FFFFFF"/>
					<stop  offset="1" style="stop-color:#D0D0D0"/>
				</linearGradient>
				<polygon clip-path="url(#SVGID_2_)" fill="url(#SVGID_3_)" points="28.771,-7.025 39.494,27.984 3.232,39.051 -7.488,4.039 				
					"/>
			</g>
		</g>
		<path fill="none" stroke="#5C5C5C" stroke-width="0.4351" stroke-linejoin="round" d="M31.402,26.926
			c0,1.953-1.582,3.527-3.531,3.527H4.136c-1.951,0-3.538-1.574-3.538-3.527V5.098c0-1.945,1.587-3.527,3.538-3.527h23.735
			c1.949,0,3.531,1.582,3.531,3.527V26.926z"/>
		<g>
			<g>
				<defs>
					<path id="SVGID_4_" d="M4.23,2.582c-1.459,0-2.646,1.188-2.646,2.648v21.568c0,1.455,1.188,2.642,2.646,2.642h23.542
						c1.463,0,2.648-1.187,2.648-2.642V5.23c0-1.461-1.188-2.648-2.648-2.648H4.23z"/>
				</defs>
				<clipPath id="SVGID_5_">
					<use xlink:href="#SVGID_4_"  overflow="visible"/>
				</clipPath>
				
					<linearGradient id="SVGID_6_" gradientUnits="userSpaceOnUse" x1="-498.8315" y1="1455.835" x2="-497.0923" y2="1455.835" gradientTransform="matrix(0 15.4443 -15.4443 0 22500.3496 7706.6875)">
					<stop  offset="0" style="stop-color:#FFFFFF"/>
					<stop  offset="1" style="stop-color:#F3F3F3"/>
				</linearGradient>
				<rect x="1.584" y="2.582" clip-path="url(#SVGID_5_)" fill="url(#SVGID_6_)" width="28.837" height="26.857"/>
			</g>
		</g>
		<path fill="none" stroke="#FAFAFA" stroke-width="0.4351" stroke-linejoin="round" d="M30.421,26.799
			c0,1.455-1.19,2.643-2.647,2.643H4.229c-1.457,0-2.647-1.188-2.647-2.643V5.23c0-1.463,1.19-2.646,2.647-2.646h23.544
			c1.457,0,2.647,1.184,2.647,2.646V26.799z"/>
	</g>
	<path d="M5.842,6.7c0-0.342,0.181-0.606,0.596-0.606h2.184c2.682,0,3.997,2.072,3.997,4.45c0,2.693-1.429,4.55-3.842,4.55H6.438
		c-0.415,0-0.596-0.265-0.596-0.606V6.7z M6.954,14.133H8.55c2.096,0,2.879-1.756,2.879-3.589c0-1.847-0.833-3.489-2.956-3.489
		H6.954V14.133z"/>
	<g enable-background="new    ">
		<path d="M20.43,19.061c0.427-0.09,1.101-0.156,1.785-0.156c0.978,0,1.606,0.168,2.078,0.55c0.393,0.292,0.629,0.741,0.629,1.337
			c0,0.729-0.482,1.369-1.28,1.662v0.021c0.719,0.18,1.562,0.775,1.562,1.898c0,0.651-0.259,1.146-0.641,1.516
			c-0.527,0.483-1.381,0.708-2.617,0.708c-0.674,0-1.189-0.045-1.516-0.09V19.061z M21.406,22.16h0.888
			c1.033,0,1.64-0.539,1.64-1.269c0-0.888-0.674-1.235-1.662-1.235c-0.449,0-0.707,0.033-0.865,0.067V22.16z M21.406,25.788
			c0.191,0.034,0.473,0.045,0.82,0.045c1.011,0,1.943-0.37,1.943-1.472c0-1.033-0.888-1.459-1.955-1.459h-0.809V25.788z"/>
	</g>
</g>
</svg>
