<?xml version="1.0" encoding="utf-8"?>
<!-- Generator: Adobe Illustrator 16.0.4, SVG Export Plug-In . SVG Version: 6.00 Build 0)  -->
<!DOCTYPE svg PUBLIC "-//W3C//DTD SVG 1.1//EN" "http://www.w3.org/Graphics/SVG/1.1/DTD/svg11.dtd">
<svg version="1.1" xmlns="http://www.w3.org/2000/svg" xmlns:xlink="http://www.w3.org/1999/xlink" x="0px" y="0px" width="32px"
	 height="32px" viewBox="0 0 32 32" enable-background="new 0 0 32 32" xml:space="preserve">
<g id="Layer_3" display="none">
</g>
<g id="Layer_2">
</g>
<g id="Layer_1">
</g>
<g id="Language_specific">
	<g>
		<g>
			<g>
				<defs>
					<path id="SVGID_865_" d="M41.135,1.559c-1.953,0-3.533,1.582-3.533,3.527v21.828c0,1.951,1.58,3.527,3.533,3.527h23.734
						c1.951,0,3.531-1.576,3.531-3.527V5.086c0-1.945-1.58-3.527-3.531-3.527H41.135z"/>
				</defs>
				<clipPath id="SVGID_2_">
					<use xlink:href="#SVGID_865_"  overflow="visible"/>
				</clipPath>
				
					<linearGradient id="SVGID_3_" gradientUnits="userSpaceOnUse" x1="-953.4106" y1="-627.8848" x2="-951.6705" y2="-627.8848" gradientTransform="matrix(5.8606 19.1691 19.1691 -5.8606 17671.4258 14595.5254)">
					<stop  offset="0" style="stop-color:#FFFFFF"/>
					<stop  offset="1" style="stop-color:#D0D0D0"/>
				</linearGradient>
				<polygon clip-path="url(#SVGID_2_)" fill="url(#SVGID_3_)" points="65.771,-7.037 76.494,27.973 40.232,39.039 29.512,4.027 
									"/>
			</g>
		</g>
	</g>
	<g>
		<g>
			<g>
				<defs>
					<path id="SVGID_877_" d="M4.135,1.559c-1.953,0-3.533,1.582-3.533,3.527v21.828c0,1.951,1.58,3.527,3.533,3.527h23.734
						c1.951,0,3.531-1.576,3.531-3.527V5.086c0-1.945-1.58-3.527-3.531-3.527H4.135z"/>
				</defs>
				<clipPath id="SVGID_5_">
					<use xlink:href="#SVGID_877_"  overflow="visible"/>
				</clipPath>
				
					<linearGradient id="SVGID_6_" gradientUnits="userSpaceOnUse" x1="-953.9507" y1="-629.6504" x2="-952.2101" y2="-629.6504" gradientTransform="matrix(5.8606 19.1691 19.1691 -5.8606 17671.4258 14595.5254)">
					<stop  offset="0" style="stop-color:#FFFFFF"/>
					<stop  offset="1" style="stop-color:#D0D0D0"/>
				</linearGradient>
				<polygon clip-path="url(#SVGID_5_)" fill="url(#SVGID_6_)" points="28.771,-7.037 39.494,27.973 3.232,39.039 -7.488,4.027 				
					"/>
			</g>
			<path fill="none" stroke="#5C5C5C" stroke-width="0.4351" stroke-linejoin="round" d="M31.402,26.914
				c0,1.953-1.582,3.527-3.531,3.527H4.135c-1.951,0-3.537-1.574-3.537-3.527V5.086c0-1.945,1.586-3.527,3.537-3.527h23.736
				c1.949,0,3.531,1.582,3.531,3.527V26.914z"/>
			<g>
				<defs>
					<path id="SVGID_880_" d="M4.23,2.57c-1.459,0-2.646,1.188-2.646,2.648v21.568c0,1.455,1.188,2.641,2.646,2.641h23.541
						c1.463,0,2.648-1.186,2.648-2.641V5.219c0-1.461-1.186-2.648-2.648-2.648H4.23z"/>
				</defs>
				<clipPath id="SVGID_8_">
					<use xlink:href="#SVGID_880_"  overflow="visible"/>
				</clipPath>
				
					<linearGradient id="SVGID_9_" gradientUnits="userSpaceOnUse" x1="-953.1782" y1="-602.1328" x2="-951.4395" y2="-602.1328" gradientTransform="matrix(0 15.4443 15.4443 0 9315.5293 14723.7461)">
					<stop  offset="0" style="stop-color:#FFFFFF"/>
					<stop  offset="1" style="stop-color:#F3F3F3"/>
				</linearGradient>
				<rect x="1.584" y="2.57" clip-path="url(#SVGID_8_)" fill="url(#SVGID_9_)" width="28.836" height="26.857"/>
			</g>
			<path fill="none" stroke="#FAFAFA" stroke-width="0.4351" stroke-linejoin="round" d="M30.42,26.787
				c0,1.455-1.189,2.643-2.648,2.643H4.229c-1.457,0-2.648-1.188-2.648-2.643V5.219c0-1.463,1.191-2.646,2.648-2.646h23.543
				c1.459,0,2.648,1.184,2.648,2.646V26.787z"/>
		</g>
		<g>
			<path d="M23.564,22.949c-0.281,0-0.479-0.145-0.479-0.459s0.197-0.459,0.479-0.459h4.721c0.312,0,0.459,0.201,0.459,0.48v2.281
				c0,0.281-0.146,0.484-0.459,0.484c-0.311,0-0.459-0.203-0.459-0.484v-1.844H23.564z"/>
			<path d="M17.631,10.691l0.068-0.09c0.514-0.693,0.771-1.385,1.107-1.385c0.223,0,0.414,0.111,0.414,0.334
				c0,0.301-0.232,0.826-1.041,1.789l0.973,1.152c0.137,0.156,0.201,0.258,0.201,0.426c0,0.234-0.178,0.402-0.4,0.402
				c-0.168,0-0.283-0.057-0.383-0.178l-0.961-1.107c-0.738,0.928-1.611,1.285-2.463,1.285c-1.297,0-2.449-0.85-2.449-2.314
				c0-1.354,0.672-1.938,1.779-2.607c-0.447-0.459-0.883-1.018-0.883-1.555c0-1.176,0.871-1.623,1.945-1.623
				c0.939,0,1.746,0.594,1.746,1.41c0,1.018-0.715,1.553-1.432,1.957L17.631,10.691z M15.236,12.402
				c0.684,0,1.197-0.268,1.822-1.018l-2.033-2.348c-1.041,0.59-1.342,1.129-1.342,1.855C13.684,11.721,14.188,12.402,15.236,12.402
				 M15.316,7.973c0.449-0.256,1.051-0.672,1.051-1.176c0-0.535-0.459-0.793-0.908-0.793c-0.479,0-0.883,0.268-0.883,0.816
				C14.576,7.156,14.926,7.537,15.316,7.973"/>
			<path d="M13.523,23.895c0-2.326,1.566-4.117,2.775-5.135c0.203-0.166,0.326-0.223,0.457-0.223c0.16,0,0.402,0.156,0.402,0.459
				c0,0.154-0.107,0.279-0.391,0.525c-0.635,0.57-1.107,1.107-1.709,2.215h0.021c0.367-0.191,0.729-0.312,1.262-0.312
				c1.301,0,2.016,1.229,2.016,2.617c0,1.445-1.027,2.596-2.439,2.596C14.533,26.637,13.523,25.486,13.523,23.895 M15.906,25.721
				c0.973,0,1.398-0.797,1.398-1.725c0-1.051-0.426-1.723-1.398-1.723s-1.396,0.805-1.396,1.723
				C14.51,24.924,14.934,25.721,15.906,25.721"/>
		</g>
	</g>
</g>
<g id="Layer_5">
</g>
</svg>
