<?xml version="1.0" encoding="utf-8"?>
<!-- Generator: Adobe Illustrator 16.0.0, SVG Export Plug-In . SVG Version: 6.00 Build 0)  -->
<!DOCTYPE svg PUBLIC "-//W3C//DTD SVG 1.1//EN" "http://www.w3.org/Graphics/SVG/1.1/DTD/svg11.dtd">
<svg version="1.1" id="Reference" xmlns="http://www.w3.org/2000/svg" xmlns:xlink="http://www.w3.org/1999/xlink" x="0px" y="0px"
	 width="32px" height="32px" viewBox="0 0 32 32" enable-background="new 0 0 32 32" xml:space="preserve">
<g>
	<g>
		<g>
			<g>
				<defs>
					<path id="SVGID_1_" d="M4.135,1.57c-1.952,0-3.533,1.582-3.533,3.527v21.828c0,1.951,1.581,3.527,3.533,3.527h23.734
						c1.951,0,3.531-1.576,3.531-3.527V5.098c0-1.945-1.58-3.527-3.531-3.527L4.135,1.57L4.135,1.57z"/>
				</defs>
				<clipPath id="SVGID_2_">
					<use xlink:href="#SVGID_1_"  overflow="visible"/>
				</clipPath>
				
					<linearGradient id="SVGID_3_" gradientUnits="userSpaceOnUse" x1="-490.0288" y1="1498.5645" x2="-488.2891" y2="1498.5645" gradientTransform="matrix(5.8606 19.1691 -19.1691 5.8606 31608.8887 610.2125)">
					<stop  offset="0" style="stop-color:#FFFFFF"/>
					<stop  offset="1" style="stop-color:#D0D0D0"/>
				</linearGradient>
				<polygon clip-path="url(#SVGID_2_)" fill="url(#SVGID_3_)" points="28.771,-7.025 39.494,27.984 3.232,39.051 -7.488,4.039 				
					"/>
			</g>
		</g>
		<path fill="none" stroke="#5C5C5C" stroke-width="0.4351" stroke-linejoin="round" d="M31.402,26.926
			c0,1.953-1.582,3.527-3.531,3.527H4.136c-1.951,0-3.538-1.574-3.538-3.527V5.098c0-1.945,1.587-3.527,3.538-3.527h23.735
			c1.949,0,3.531,1.582,3.531,3.527V26.926z"/>
		<g>
			<g>
				<defs>
					<path id="SVGID_4_" d="M4.23,2.582c-1.459,0-2.646,1.188-2.646,2.648v21.568c0,1.455,1.188,2.642,2.646,2.642h23.542
						c1.463,0,2.648-1.187,2.648-2.642V5.23c0-1.461-1.188-2.648-2.648-2.648H4.23z"/>
				</defs>
				<clipPath id="SVGID_5_">
					<use xlink:href="#SVGID_4_"  overflow="visible"/>
				</clipPath>
				
					<linearGradient id="SVGID_6_" gradientUnits="userSpaceOnUse" x1="-466.8315" y1="1457.9072" x2="-465.0923" y2="1457.9072" gradientTransform="matrix(0 15.4443 -15.4443 0 22532.3496 7212.4688)">
					<stop  offset="0" style="stop-color:#FFFFFF"/>
					<stop  offset="1" style="stop-color:#F3F3F3"/>
				</linearGradient>
				<rect x="1.584" y="2.582" clip-path="url(#SVGID_5_)" fill="url(#SVGID_6_)" width="28.837" height="26.857"/>
			</g>
		</g>
		<path fill="none" stroke="#FAFAFA" stroke-width="0.4351" stroke-linejoin="round" d="M30.421,26.799
			c0,1.455-1.19,2.643-2.647,2.643H4.229c-1.457,0-2.647-1.188-2.647-2.643V5.23c0-1.463,1.19-2.646,2.647-2.646h23.544
			c1.457,0,2.647,1.184,2.647,2.646V26.799z"/>
	</g>
	<path d="M11.367,7.043c0,0.261-0.199,0.485-0.471,0.485c-0.485,0-0.645-0.573-1.738-0.573c-0.811,0-1.407,0.512-1.407,1.256
		c0,1.952,4.204,1.02,4.204,4.002c0,1.468-1.071,2.799-2.998,2.799c-1.167,0-2.46-0.447-2.46-1.07c0-0.299,0.147-0.559,0.457-0.559
		c0.378,0,0.896,0.683,2.016,0.683c1.132,0,1.813-0.819,1.813-1.802c0-2.101-4.2-1.082-4.2-3.978c0-1.033,0.97-2.274,2.61-2.274
		C10.29,6.012,11.367,6.47,11.367,7.043"/>
	<g enable-background="new    ">
		<path d="M20.262,18.96v2.83c0.225-0.034,0.65-0.056,0.898-0.056c1.561,0,2.92,0.685,2.92,2.369c0,0.696-0.225,1.213-0.584,1.605
			c-0.618,0.652-1.674,0.888-2.695,0.888c-0.674,0-1.191-0.045-1.517-0.09V18.96H20.262z M20.262,25.777
			c0.201,0.045,0.449,0.056,0.785,0.056c1.078,0,2.011-0.55,2.011-1.696c0-1.179-1.011-1.628-2.021-1.628
			c-0.359,0-0.651,0.034-0.774,0.056V25.777z M25.91,18.96v7.569h-0.988V18.96H25.91z"/>
	</g>
</g>
</svg>
