<?xml version="1.0" encoding="utf-8"?>
<!-- Generator: Adobe Illustrator 16.0.0, SVG Export Plug-In . SVG Version: 6.00 Build 0)  -->
<!DOCTYPE svg PUBLIC "-//W3C//DTD SVG 1.1//EN" "http://www.w3.org/Graphics/SVG/1.1/DTD/svg11.dtd">
<svg version="1.1" id="Layer_1" xmlns="http://www.w3.org/2000/svg" xmlns:xlink="http://www.w3.org/1999/xlink" x="0px" y="0px"
	 width="32px" height="32px" viewBox="0 0 32 32" enable-background="new 0 0 32 32" xml:space="preserve">
<g id="Layer_3" display="none">
</g>
<g id="Layer_2">
</g>
<g id="Layer_1_1_">
	<g>
		<g>
			<g>
				<g>
					<defs>
						<path id="SVGID_1_" d="M4.134,1.559c-1.952,0-3.533,1.582-3.533,3.527v21.828c0,1.951,1.581,3.527,3.533,3.527h23.734
							c1.952,0,3.532-1.576,3.532-3.527V5.086c0-1.945-1.58-3.527-3.532-3.527H4.134z"/>
					</defs>
					<clipPath id="SVGID_2_">
						<use xlink:href="#SVGID_1_"  overflow="visible"/>
					</clipPath>
					
						<linearGradient id="SVGID_3_" gradientUnits="userSpaceOnUse" x1="-87.5103" y1="694.3867" x2="-85.7702" y2="694.3867" gradientTransform="matrix(5.8606 19.1691 -19.1691 5.8606 13834.5127 -2392.7532)">
						<stop  offset="0" style="stop-color:#FFFFFF"/>
						<stop  offset="1" style="stop-color:#D0D0D0"/>
					</linearGradient>
					<polygon clip-path="url(#SVGID_2_)" fill="url(#SVGID_3_)" points="28.771,-7.037 39.494,27.973 3.232,39.039 -7.489,4.027 
											"/>
				</g>
			</g>
			<path fill="none" stroke="#5C5C5C" stroke-width="0.4351" stroke-linejoin="round" d="M31.402,26.914
				c0,1.953-1.582,3.527-3.531,3.527H4.135c-1.951,0-3.538-1.574-3.538-3.527V5.086c0-1.945,1.587-3.527,3.538-3.527H27.87
				c1.95,0,3.532,1.582,3.532,3.527V26.914L31.402,26.914z"/>
			<g>
				<g>
					<defs>
						<path id="SVGID_4_" d="M4.23,2.57c-1.459,0-2.646,1.188-2.646,2.648v21.568c0,1.455,1.188,2.641,2.646,2.641h23.542
							c1.463,0,2.648-1.186,2.648-2.641V5.219c0-1.461-1.188-2.648-2.648-2.648L4.23,2.57L4.23,2.57z"/>
					</defs>
					<clipPath id="SVGID_5_">
						<use xlink:href="#SVGID_4_"  overflow="visible"/>
					</clipPath>
					
						<linearGradient id="SVGID_6_" gradientUnits="userSpaceOnUse" x1="-71.4873" y1="670.7344" x2="-69.7485" y2="670.7344" gradientTransform="matrix(0 15.4443 -15.4443 0 10375.0186 1106.646)">
						<stop  offset="0" style="stop-color:#FFFFFF"/>
						<stop  offset="1" style="stop-color:#F3F3F3"/>
					</linearGradient>
					<rect x="1.583" y="2.57" clip-path="url(#SVGID_5_)" fill="url(#SVGID_6_)" width="28.837" height="26.857"/>
				</g>
			</g>
			<path fill="none" stroke="#FAFAFA" stroke-width="0.4351" stroke-linejoin="round" d="M30.42,26.787
				c0,1.455-1.189,2.643-2.648,2.643H4.228c-1.457,0-2.647-1.188-2.647-2.643V5.219c0-1.463,1.19-2.646,2.647-2.646h23.543
				c1.459,0,2.648,1.184,2.648,2.646V26.787z"/>
		</g>
		<g>
			<path d="M17.173,14.199c-0.034,0.264-0.141,0.412-0.435,0.412c-0.273,0-0.389-0.184-0.389-0.389c0-0.125,0.022-0.264,0.057-0.48
				l0.229-1.668h-1.359l-0.298,2.125c-0.034,0.264-0.136,0.412-0.434,0.412c-0.274,0-0.388-0.184-0.388-0.389
				c0-0.125,0.02-0.264,0.057-0.48l0.228-1.668h-0.699c-0.26,0-0.463-0.125-0.463-0.375c0-0.264,0.203-0.377,0.463-0.377h0.803
				l0.236-1.691h-0.693c-0.265,0-0.469-0.123-0.469-0.377c0-0.252,0.204-0.377,0.469-0.377h0.8l0.297-2.123
				c0.032-0.262,0.136-0.412,0.434-0.412c0.276,0,0.388,0.184,0.388,0.389c0,0.127-0.021,0.262-0.056,0.48l-0.23,1.666h1.36
				l0.296-2.123c0.035-0.262,0.138-0.412,0.437-0.412c0.272,0,0.388,0.184,0.388,0.389c0,0.127-0.022,0.262-0.056,0.48l-0.229,1.666
				h0.694c0.264,0,0.47,0.125,0.47,0.377c0,0.262-0.206,0.377-0.47,0.377h-0.797l-0.24,1.691h0.695c0.263,0,0.471,0.125,0.471,0.377
				c0,0.25-0.208,0.375-0.471,0.375h-0.802L17.173,14.199z M16.979,9.631H15.62l-0.24,1.691h1.359L16.979,9.631z"/>
			<path d="M15.296,26.818c-1.69,0-2.377-1.269-2.377-1.873c0-0.354,0.183-0.56,0.427-0.56c0.294,0,0.443,0.173,0.559,0.527
				c0.192,0.58,0.604,1.035,1.366,1.035c0.905,0,1.542-0.675,1.542-1.507c0-1.209-0.658-1.52-1.415-1.52
				c-0.399,0-0.616-0.172-0.616-0.434c0-0.23,0.147-0.354,0.525-0.434c0.812-0.185,1.145-0.57,1.145-1.314
				c0-0.775-0.458-1.324-1.155-1.324c-0.801,0-1.094,0.57-1.154,1.188c-0.034,0.459-0.307,0.47-0.48,0.47
				c-0.286,0-0.455-0.205-0.455-0.47c0-1.082,0.787-2.057,2.133-2.057c1.304,0,2.116,0.961,2.116,2.104
				c0,0.675-0.321,1.334-0.961,1.726c0.916,0.272,1.395,1.049,1.395,1.976C17.889,25.893,16.745,26.818,15.296,26.818"/>
		</g>
	</g>
</g>
<g id="Language_specific">
</g>
<g id="Layer_5">
</g>
</svg>
