<?xml version="1.0" encoding="utf-8"?>
<!-- Generator: Adobe Illustrator 16.0.4, SVG Export Plug-In . SVG Version: 6.00 Build 0)  -->
<!DOCTYPE svg PUBLIC "-//W3C//DTD SVG 1.1//EN" "http://www.w3.org/Graphics/SVG/1.1/DTD/svg11.dtd">
<svg version="1.1" xmlns="http://www.w3.org/2000/svg" xmlns:xlink="http://www.w3.org/1999/xlink" x="0px" y="0px" width="74px"
	 height="32px" viewBox="0 0 74 32" enable-background="new 0 0 74 32" xml:space="preserve">
<g id="Layer_3" display="none">
</g>
<g id="Layer_2">
</g>
<g id="Layer_1">
	<g>
		<g>
			<g>
				<defs>
					<path id="SVGID_1561_" d="M4.134,1.559c-1.952,0-3.533,1.582-3.533,3.527v21.828c0,1.951,1.581,3.527,3.533,3.527h23.734
						c1.952,0,3.532-1.576,3.532-3.527V5.086c0-1.945-1.58-3.527-3.532-3.527H4.134z"/>
				</defs>
				<clipPath id="SVGID_2_">
					<use xlink:href="#SVGID_1561_"  overflow="visible"/>
				</clipPath>
				
					<linearGradient id="SVGID_3_" gradientUnits="userSpaceOnUse" x1="33.6157" y1="-1517.6514" x2="35.3558" y2="-1517.6514" gradientTransform="matrix(5.8606 19.1691 19.1691 -5.8606 28905.8828 -9539.4473)">
					<stop  offset="0" style="stop-color:#FFFFFF"/>
					<stop  offset="1" style="stop-color:#D0D0D0"/>
				</linearGradient>
				<polygon clip-path="url(#SVGID_2_)" fill="url(#SVGID_3_)" points="28.771,-7.037 39.494,27.973 3.232,39.039 -7.489,4.027 				
					"/>
			</g>
			<path fill="none" stroke="#5C5C5C" stroke-width="0.4351" stroke-linejoin="round" d="M31.403,26.914
				c0,1.953-1.582,3.527-3.532,3.527H4.135c-1.951,0-3.538-1.574-3.538-3.527V5.086c0-1.945,1.587-3.527,3.538-3.527h23.735
				c1.95,0,3.532,1.582,3.532,3.527V26.914z"/>
			<g>
				<defs>
					<path id="SVGID_1564_" d="M4.23,2.57c-1.459,0-2.646,1.188-2.646,2.648v21.568c0,1.455,1.188,2.641,2.646,2.641h23.542
						c1.462,0,2.648-1.186,2.648-2.641V5.219c0-1.461-1.187-2.648-2.648-2.648H4.23z"/>
				</defs>
				<clipPath id="SVGID_5_">
					<use xlink:href="#SVGID_1564_"  overflow="visible"/>
				</clipPath>
				
					<linearGradient id="SVGID_6_" gradientUnits="userSpaceOnUse" x1="62.563" y1="-1494.4209" x2="64.3022" y2="-1494.4209" gradientTransform="matrix(0 15.4443 15.4443 0 23096.2969 -963.6702)">
					<stop  offset="0" style="stop-color:#FFFFFF"/>
					<stop  offset="1" style="stop-color:#F3F3F3"/>
				</linearGradient>
				<rect x="1.583" y="2.57" clip-path="url(#SVGID_5_)" fill="url(#SVGID_6_)" width="28.837" height="26.857"/>
			</g>
			<path fill="none" stroke="#FAFAFA" stroke-width="0.4351" stroke-linejoin="round" d="M30.42,26.787
				c0,1.455-1.19,2.643-2.648,2.643H4.228c-1.457,0-2.647-1.188-2.647-2.643V5.219c0-1.463,1.19-2.646,2.647-2.646h23.544
				c1.458,0,2.648,1.184,2.648,2.646V26.787z"/>
		</g>
		<g>
			<path d="M5.423,7.514c0-0.289,0.172-0.473,0.441-0.473c0.271,0,0.441,0.184,0.441,0.473v0.262h0.021
				c0.252-0.482,0.725-0.734,1.43-0.734c1.447,0,2.283,1.314,2.283,2.736c0,1.418-0.836,2.738-2.283,2.738
				c-0.705,0-1.199-0.395-1.43-0.727H6.306v2.365c0,0.293-0.17,0.475-0.441,0.475c-0.27,0-0.441-0.182-0.441-0.475V7.514z
				 M7.687,11.75c1.082,0,1.467-1.068,1.467-1.973c0-0.906-0.385-1.971-1.467-1.971c-1.086,0-1.469,1.064-1.469,1.971
				C6.218,10.682,6.601,11.75,7.687,11.75"/>
			<path d="M15.412,12.08c0,0.314-0.24,0.436-0.414,0.436c-0.18,0-0.41-0.121-0.41-0.436v-0.371h-0.02
				c-0.383,0.545-0.887,0.807-1.461,0.807c-1.506,0-2.355-1.32-2.355-2.738c0-1.422,0.85-2.736,2.355-2.736
				c0.611,0,1.045,0.262,1.461,0.715h0.02V7.475c0-0.312,0.23-0.434,0.41-0.434c0.174,0,0.414,0.121,0.414,0.434V12.08z
				 M13.107,11.75c1.086,0,1.469-1.068,1.469-1.973c0-0.906-0.383-1.971-1.469-1.971c-1.084,0-1.467,1.064-1.467,1.971
				C11.64,10.682,12.023,11.75,13.107,11.75"/>
			<path d="M20.972,12.07c0,1.59-0.965,2.559-2.414,2.559c-0.914,0-2.053-0.525-2.053-0.979c0-0.178,0.092-0.412,0.375-0.412
				c0.4,0,0.793,0.623,1.748,0.623c1.125,0,1.457-0.885,1.457-1.65V11.75H20.07c-0.273,0.461-0.758,0.766-1.363,0.766
				c-1.504,0-2.354-1.32-2.354-2.738c0-1.422,0.85-2.736,2.354-2.736c0.572,0,1.131,0.352,1.363,0.674h0.016v-0.24
				c0-0.312,0.232-0.434,0.473-0.434c0.174,0,0.414,0.121,0.414,0.434V12.07z M18.707,11.75c1.09,0,1.471-1.068,1.471-1.973
				c0-0.906-0.381-1.971-1.471-1.971c-1.084,0-1.467,1.064-1.467,1.971C17.24,10.682,17.623,11.75,18.707,11.75"/>
			<path d="M22.748,10.119c0,0.916,0.586,1.631,1.584,1.631c1.174,0,1.477-0.725,1.811-0.725c0.162,0,0.318,0.139,0.318,0.395
				c0,0.43-1.096,1.096-2.143,1.096c-1.707,0-2.449-1.322-2.449-2.738c0-1.447,0.906-2.736,2.4-2.736
				c1.461,0,2.305,1.314,2.305,2.604c0,0.316-0.113,0.475-0.492,0.475H22.748z M25.689,9.453c0-0.762-0.443-1.646-1.42-1.646
				c-1.098-0.045-1.486,0.834-1.521,1.646H25.689z"/>
			<path d="M12.154,17.59c0-0.289,0.172-0.473,0.439-0.473c0.273,0,0.447,0.184,0.447,0.473v2.838c0,0.914,0.4,1.396,1.236,1.396
				s1.234-0.482,1.234-1.396V17.59c0-0.289,0.174-0.473,0.447-0.473c0.27,0,0.441,0.184,0.441,0.473v2.867
				c0,1.57-1.047,2.133-2.123,2.133s-2.123-0.562-2.123-2.133V17.59z"/>
			<path d="M17.617,17.59c0-0.289,0.168-0.473,0.441-0.473c0.271,0,0.439,0.184,0.439,0.473v0.262h0.025
				c0.252-0.484,0.721-0.734,1.428-0.734c1.443,0,2.283,1.316,2.283,2.734c0,1.42-0.84,2.738-2.283,2.738
				c-0.707,0-1.199-0.393-1.428-0.723h-0.025v2.363c0,0.293-0.168,0.475-0.439,0.475c-0.273,0-0.441-0.182-0.441-0.475V17.59z
				 M19.876,21.826c1.088,0,1.473-1.066,1.473-1.975c0-0.904-0.385-1.969-1.473-1.969c-1.084,0-1.467,1.064-1.467,1.969
				C18.41,20.76,18.792,21.826,19.876,21.826"/>
		</g>
	</g>
</g>
<g id="Language_specific">
	<g>
		<g>
			<g>
				<defs>
					<path id="SVGID_1837_" d="M46.134,1.559c-1.952,0-3.533,1.582-3.533,3.527v21.828c0,1.951,1.581,3.527,3.533,3.527h23.734
						c1.952,0,3.532-1.576,3.532-3.527V5.086c0-1.945-1.58-3.527-3.532-3.527H46.134z"/>
				</defs>
				<clipPath id="SVGID_8_">
					<use xlink:href="#SVGID_1837_"  overflow="visible"/>
				</clipPath>
				
					<linearGradient id="SVGID_9_" gradientUnits="userSpaceOnUse" x1="34.228" y1="-1515.6475" x2="35.9681" y2="-1515.6475" gradientTransform="matrix(5.8606 19.1691 19.1691 -5.8606 28905.8828 -9539.4473)">
					<stop  offset="0" style="stop-color:#FFFFFF"/>
					<stop  offset="1" style="stop-color:#D0D0D0"/>
				</linearGradient>
				<polygon clip-path="url(#SVGID_8_)" fill="url(#SVGID_9_)" points="70.771,-7.037 81.494,27.973 45.232,39.039 34.511,4.027 
									"/>
			</g>
			<path fill="none" stroke="#5C5C5C" stroke-width="0.4351" stroke-linejoin="round" d="M73.403,26.914
				c0,1.953-1.582,3.527-3.532,3.527H46.135c-1.951,0-3.538-1.574-3.538-3.527V5.086c0-1.945,1.587-3.527,3.538-3.527h23.735
				c1.95,0,3.532,1.582,3.532,3.527V26.914z"/>
			<g>
				<defs>
					<path id="SVGID_1840_" d="M46.23,2.57c-1.459,0-2.646,1.188-2.646,2.648v21.568c0,1.455,1.188,2.641,2.646,2.641h23.542
						c1.462,0,2.648-1.186,2.648-2.641V5.219c0-1.461-1.187-2.648-2.648-2.648H46.23z"/>
				</defs>
				<clipPath id="SVGID_11_">
					<use xlink:href="#SVGID_1840_"  overflow="visible"/>
				</clipPath>
				
					<linearGradient id="SVGID_12_" gradientUnits="userSpaceOnUse" x1="62.563" y1="-1491.7012" x2="64.3022" y2="-1491.7012" gradientTransform="matrix(0 15.4443 15.4443 0 23096.2969 -963.6702)">
					<stop  offset="0" style="stop-color:#FFFFFF"/>
					<stop  offset="1" style="stop-color:#F3F3F3"/>
				</linearGradient>
				<rect x="43.583" y="2.57" clip-path="url(#SVGID_11_)" fill="url(#SVGID_12_)" width="28.837" height="26.857"/>
			</g>
			<path fill="none" stroke="#FAFAFA" stroke-width="0.4351" stroke-linejoin="round" d="M72.42,26.787
				c0,1.455-1.19,2.643-2.648,2.643H46.228c-1.457,0-2.647-1.188-2.647-2.643V5.219c0-1.463,1.19-2.646,2.647-2.646h23.544
				c1.458,0,2.648,1.184,2.648,2.646V26.787z"/>
		</g>
		<path d="M63.032,13.385l-4.987-7.566l-5.079,7.52c-0.085,0.125-0.119,0.264-0.119,0.402c0,0.232,0.114,0.465,0.318,0.602
			c0.335,0.227,0.783,0.141,1.004-0.189l3.104-4.598v5.645h-2.213v1.293h2.213l0.006,3.109h-2.219v1.293h2.219v4.619h1.453v-4.619
			h2.207v-1.297h-2.207l-0.006-3.109h2.213v-1.289h-2.213V9.496l3.098,4.686c0.216,0.338,0.67,0.432,1.005,0.213
			C63.162,14.168,63.253,13.717,63.032,13.385"/>
	</g>
	<line fill="none" stroke="#FFFFFF" stroke-miterlimit="10" x1="39.5" y1="1" x2="33.5" y2="30.062"/>
	<line fill="none" stroke="#000000" stroke-miterlimit="10" x1="40.5" y1="1" x2="34.5" y2="31"/>
</g>
<g id="Layer_5">
</g>
</svg>
