<?xml version="1.0" encoding="utf-8"?>
<!-- Generator: Adobe Illustrator 16.0.4, SVG Export Plug-In . SVG Version: 6.00 Build 0)  -->
<!DOCTYPE svg PUBLIC "-//W3C//DTD SVG 1.1//EN" "http://www.w3.org/Graphics/SVG/1.1/DTD/svg11.dtd">
<svg version="1.1" xmlns="http://www.w3.org/2000/svg" xmlns:xlink="http://www.w3.org/1999/xlink" x="0px" y="0px" width="32px"
	 height="32px" viewBox="0 0 32 32" enable-background="new 0 0 32 32" xml:space="preserve">
<g id="Layer_3" display="none">
</g>
<g id="Layer_2">
	<g display="none">
		<g display="inline">
			<defs>
				<path id="SVGID_871_" d="M-3.183-27.799c-2.331,0-4.22,1.889-4.22,4.223v15.16c0,2.322,1.889,4.215,4.22,4.215h22.365
					c2.331,0,4.221-1.893,4.221-4.215v-15.16c0-2.334-1.89-4.223-4.221-4.223H-3.183z"/>
			</defs>
			<clipPath id="SVGID_2_">
				<use xlink:href="#SVGID_871_"  overflow="visible"/>
			</clipPath>
			
				<linearGradient id="SVGID_3_" gradientUnits="userSpaceOnUse" x1="-310.4297" y1="-658.5312" x2="-308.2238" y2="-658.5312" gradientTransform="matrix(4.3973 14.3829 14.3829 -4.3973 10839.748 1537.1565)">
				<stop  offset="0" style="stop-color:#FFFFFF"/>
				<stop  offset="1" style="stop-color:#D0CFD0"/>
			</linearGradient>
			<polygon clip-path="url(#SVGID_2_)" fill="url(#SVGID_3_)" points="19.452,-38.129 30,-6.219 -4.181,6.129 -14,-25.779 			"/>
		</g>
	</g>
	<g display="none">
		<g display="inline">
			<defs>
				<path id="SVGID_877_" d="M28.817-27.799c-2.331,0-4.22,1.889-4.22,4.223v15.16c0,2.322,1.889,4.215,4.22,4.215h22.365
					c2.331,0,4.221-1.893,4.221-4.215v-15.16c0-2.334-1.89-4.223-4.221-4.223H28.817z"/>
			</defs>
			<clipPath id="SVGID_5_">
				<use xlink:href="#SVGID_877_"  overflow="visible"/>
			</clipPath>
			
				<linearGradient id="SVGID_6_" gradientUnits="userSpaceOnUse" x1="-309.8076" y1="-656.4961" x2="-307.6018" y2="-656.4961" gradientTransform="matrix(4.3973 14.3829 14.3829 -4.3973 10839.748 1537.1565)">
				<stop  offset="0" style="stop-color:#FFFFFF"/>
				<stop  offset="1" style="stop-color:#D0CFD0"/>
			</linearGradient>
			<polygon clip-path="url(#SVGID_5_)" fill="url(#SVGID_6_)" points="51.452,-38.129 62,-6.219 27.819,6.129 18,-25.779 			"/>
		</g>
	</g>
</g>
<g id="Layer_1">
	<g>
		<g>
			<g>
				<defs>
					<path id="SVGID_5479_" d="M-31.183,4.201c-2.331,0-4.22,1.889-4.22,4.223v15.16c0,2.322,1.889,4.215,4.22,4.215h22.365
						c2.331,0,4.221-1.893,4.221-4.215V8.424c0-2.334-1.89-4.223-4.221-4.223H-31.183z"/>
				</defs>
				<clipPath id="SVGID_8_">
					<use xlink:href="#SVGID_5479_"  overflow="visible"/>
				</clipPath>
				
					<linearGradient id="SVGID_9_" gradientUnits="userSpaceOnUse" x1="-308.9395" y1="-660.9336" x2="-306.7336" y2="-660.9336" gradientTransform="matrix(4.3973 14.3829 14.3829 -4.3973 10839.748 1537.1565)">
					<stop  offset="0" style="stop-color:#FFFFFF"/>
					<stop  offset="1" style="stop-color:#D0D0D0"/>
				</linearGradient>
				<polygon clip-path="url(#SVGID_8_)" fill="url(#SVGID_9_)" points="-8.548,-6.129 2,25.781 -32.181,38.129 -42,6.221 				"/>
			</g>
		</g>
	</g>
	<g>
		<g>
			<g>
				<defs>
					<path id="SVGID_5485_" d="M4.817,4.201c-2.331,0-4.22,1.889-4.22,4.223v15.16c0,2.322,1.889,4.215,4.22,4.215h22.365
						c2.331,0,4.221-1.893,4.221-4.215V8.424c0-2.334-1.89-4.223-4.221-4.223H4.817z"/>
				</defs>
				<clipPath id="SVGID_11_">
					<use xlink:href="#SVGID_5485_"  overflow="visible"/>
				</clipPath>
				
					<linearGradient id="SVGID_12_" gradientUnits="userSpaceOnUse" x1="-308.2397" y1="-658.6445" x2="-306.0334" y2="-658.6445" gradientTransform="matrix(4.3973 14.3829 14.3829 -4.3973 10839.748 1537.1565)">
					<stop  offset="0" style="stop-color:#FFFFFF"/>
					<stop  offset="1" style="stop-color:#D0D0D0"/>
				</linearGradient>
				<polygon clip-path="url(#SVGID_11_)" fill="url(#SVGID_12_)" points="27.452,-6.129 38,25.781 3.819,38.129 -6,6.221 				"/>
			</g>
			<path fill="none" stroke="#5C5C5C" stroke-width="0.5198" stroke-linejoin="round" d="M31.403,23.582
				c0,2.324-1.892,4.217-4.217,4.217H4.815c-2.331,0-4.218-1.893-4.218-4.217V8.424c0-2.336,1.887-4.217,4.218-4.217h22.371
				c2.325,0,4.217,1.881,4.217,4.217V23.582z"/>
			<g>
				<defs>
					<path id="SVGID_5488_" d="M4.927,5.416c-1.742,0-3.157,1.418-3.157,3.164v14.84c0,1.742,1.415,3.164,3.157,3.164h22.14
						c1.745,0,3.161-1.422,3.161-3.164V8.58c0-1.746-1.416-3.164-3.161-3.164H4.927z"/>
				</defs>
				<clipPath id="SVGID_14_">
					<use xlink:href="#SVGID_5488_"  overflow="visible"/>
				</clipPath>
				
					<linearGradient id="SVGID_15_" gradientUnits="userSpaceOnUse" x1="-284.2559" y1="-631.5352" x2="-282.1772" y2="-631.5352" gradientTransform="matrix(0 10.1826 10.1826 0 6446.6719 2899.8799)">
					<stop  offset="0" style="stop-color:#FFFFFF"/>
					<stop  offset="1" style="stop-color:#F3F3F3"/>
				</linearGradient>
				<rect x="1.77" y="5.416" clip-path="url(#SVGID_14_)" fill="url(#SVGID_15_)" width="28.458" height="21.168"/>
			</g>
			<path fill="none" stroke="#FAFAFA" stroke-width="0.5198" stroke-linejoin="round" d="M30.227,23.424
				c0,1.742-1.415,3.16-3.162,3.16H4.93c-1.742,0-3.162-1.418-3.162-3.16V8.58c0-1.746,1.42-3.166,3.162-3.166h22.135
				c1.747,0,3.162,1.42,3.162,3.166V23.424z"/>
		</g>
		<g>
			<path d="M7.754,20.678c0,0.428-0.256,0.691-0.648,0.691c-0.404,0-0.658-0.264-0.658-0.691v-9.254
				c0-0.391,0.205-0.701,0.699-0.701h3.705c0.375,0,0.646,0.197,0.646,0.604c0,0.424-0.271,0.607-0.646,0.607H7.754v3.459h2.748
				c0.369,0,0.633,0.193,0.633,0.605c0,0.416-0.264,0.613-0.633,0.613H7.754V20.678z"/>
			<path d="M14.814,11.848h-1.371c-0.311,0-0.566-0.25-0.566-0.561c0-0.32,0.256-0.564,0.566-0.564h2.271
				c0.254,0,0.396,0.027,0.396,0.352v9.6c0,0.434-0.246,0.701-0.658,0.701c-0.391,0-0.639-0.268-0.639-0.701V11.848z"/>
			<path d="M22.332,10.625c1.33,0,2.693,0.809,2.693,2.428c0,1.129-0.422,1.748-1.373,2.34c1.23,0.277,1.9,1.404,1.9,2.652
				c0,1.715-1.16,3.324-3.221,3.324c-2.066,0-3.238-1.609-3.238-3.324c0-1.248,0.684-2.375,1.92-2.652
				c-0.955-0.592-1.379-1.211-1.379-2.34C19.635,11.434,20.994,10.625,22.332,10.625 M22.332,20.252
				c0.977,0,1.838-0.789,1.838-2.162c0-1.078-0.623-2.102-1.838-2.102c-1.219,0-1.842,1.023-1.842,2.102
				C20.49,19.463,21.35,20.252,22.332,20.252 M22.332,14.859c0.93,0,1.488-0.652,1.488-1.559c0-0.898-0.559-1.543-1.488-1.543
				c-0.936,0-1.49,0.645-1.49,1.543C20.842,14.207,21.396,14.859,22.332,14.859"/>
		</g>
	</g>
	<g>
		<g>
			<g>
				<defs>
					<path id="SVGID_5491_" d="M40.817,4.201c-2.331,0-4.22,1.889-4.22,4.223v15.16c0,2.322,1.889,4.215,4.22,4.215h22.365
						c2.331,0,4.221-1.893,4.221-4.215V8.424c0-2.334-1.89-4.223-4.221-4.223H40.817z"/>
				</defs>
				<clipPath id="SVGID_17_">
					<use xlink:href="#SVGID_5491_"  overflow="visible"/>
				</clipPath>
				
					<linearGradient id="SVGID_18_" gradientUnits="userSpaceOnUse" x1="-307.54" y1="-656.3555" x2="-305.3337" y2="-656.3555" gradientTransform="matrix(4.3973 14.3829 14.3829 -4.3973 10839.748 1537.1565)">
					<stop  offset="0" style="stop-color:#FFFFFF"/>
					<stop  offset="1" style="stop-color:#D0D0D0"/>
				</linearGradient>
				<polygon clip-path="url(#SVGID_17_)" fill="url(#SVGID_18_)" points="63.452,-6.129 74,25.781 39.819,38.129 30,6.221 				"/>
			</g>
		</g>
	</g>
</g>
<g id="Language_specific">
</g>
<g id="Layer_5">
</g>
</svg>
