<?xml version="1.0" encoding="utf-8"?>
<!-- Generator: Adobe Illustrator 16.0.4, SVG Export Plug-In . SVG Version: 6.00 Build 0)  -->
<!DOCTYPE svg PUBLIC "-//W3C//DTD SVG 1.1//EN" "http://www.w3.org/Graphics/SVG/1.1/DTD/svg11.dtd">
<svg version="1.1" xmlns="http://www.w3.org/2000/svg" xmlns:xlink="http://www.w3.org/1999/xlink" x="0px" y="0px" width="74px"
	 height="32px" viewBox="0 0 74 32" enable-background="new 0 0 74 32" xml:space="preserve">
<g id="Layer_3" display="none">
</g>
<g id="Layer_2">
</g>
<g id="Layer_1">
	<g>
		<g>
			<g>
				<defs>
					<path id="SVGID_1621_" d="M4.816,4.201c-2.33,0-4.219,1.889-4.219,4.223v15.16c0,2.322,1.889,4.215,4.219,4.215h22.365
						c2.332,0,4.221-1.893,4.221-4.215V8.424c0-2.334-1.889-4.223-4.221-4.223H4.816z"/>
				</defs>
				<clipPath id="SVGID_2_">
					<use xlink:href="#SVGID_1621_"  overflow="visible"/>
				</clipPath>
				
					<linearGradient id="SVGID_3_" gradientUnits="userSpaceOnUse" x1="23.3867" y1="-902.502" x2="25.5926" y2="-902.502" gradientTransform="matrix(4.3973 14.3829 14.3829 -4.3973 12888.8789 -4304.9111)">
					<stop  offset="0" style="stop-color:#FFFFFF"/>
					<stop  offset="1" style="stop-color:#D0D0D0"/>
				</linearGradient>
				<polygon clip-path="url(#SVGID_2_)" fill="url(#SVGID_3_)" points="27.451,-6.129 38,25.781 3.818,38.129 -6,6.221 				"/>
			</g>
			<path fill="none" stroke="#5C5C5C" stroke-width="0.5198" stroke-linejoin="round" d="M31.402,23.582
				c0,2.324-1.891,4.217-4.217,4.217H4.814c-2.33,0-4.217-1.893-4.217-4.217V8.424c0-2.336,1.887-4.217,4.217-4.217h22.371
				c2.326,0,4.217,1.881,4.217,4.217V23.582z"/>
			<g>
				<defs>
					<path id="SVGID_1624_" d="M4.926,5.416c-1.742,0-3.156,1.418-3.156,3.164v14.84c0,1.742,1.414,3.164,3.156,3.164h22.141
						c1.744,0,3.16-1.422,3.16-3.164V8.58c0-1.746-1.416-3.164-3.16-3.164H4.926z"/>
				</defs>
				<clipPath id="SVGID_5_">
					<use xlink:href="#SVGID_1624_"  overflow="visible"/>
				</clipPath>
				
					<linearGradient id="SVGID_6_" gradientUnits="userSpaceOnUse" x1="61.2515" y1="-882.3545" x2="63.3301" y2="-882.3545" gradientTransform="matrix(0 10.1826 10.1826 0 9000.6611 -618.2825)">
					<stop  offset="0" style="stop-color:#FFFFFF"/>
					<stop  offset="1" style="stop-color:#F3F3F3"/>
				</linearGradient>
				<rect x="1.77" y="5.416" clip-path="url(#SVGID_5_)" fill="url(#SVGID_6_)" width="28.457" height="21.168"/>
			</g>
			<path fill="none" stroke="#FAFAFA" stroke-width="0.5198" stroke-linejoin="round" d="M30.227,23.424
				c0,1.742-1.416,3.16-3.162,3.16H4.93c-1.742,0-3.162-1.418-3.162-3.16V8.58c0-1.746,1.42-3.166,3.162-3.166h22.135
				c1.746,0,3.162,1.42,3.162,3.166V23.424z"/>
		</g>
		<path d="M29.623,13.455c0,0.23-0.041,0.449-0.131,0.654c-0.088,0.209-0.205,0.387-0.355,0.537
			c-0.148,0.152-0.324,0.271-0.529,0.365c-0.205,0.088-0.42,0.131-0.652,0.131c-0.236,0-0.453-0.043-0.656-0.131
			c-0.209-0.094-0.387-0.213-0.541-0.365c-0.148-0.15-0.268-0.328-0.357-0.537c-0.09-0.205-0.137-0.424-0.137-0.654v-0.848h-1.67
			v0.848c0,0.23-0.045,0.449-0.137,0.654c-0.088,0.209-0.213,0.387-0.361,0.537c-0.15,0.152-0.332,0.271-0.537,0.365
			c-0.207,0.088-0.426,0.131-0.656,0.131s-0.451-0.043-0.656-0.131c-0.207-0.094-0.387-0.213-0.539-0.365
			c-0.146-0.15-0.271-0.328-0.361-0.537c-0.092-0.205-0.135-0.424-0.135-0.654c0-0.234,0.043-0.451,0.135-0.654
			c0.09-0.205,0.215-0.383,0.361-0.531c0.152-0.15,0.332-0.268,0.539-0.355c0.205-0.086,0.426-0.131,0.656-0.131h0.873v-1.678
			h-0.873c-0.23,0-0.451-0.045-0.656-0.131c-0.207-0.088-0.387-0.207-0.539-0.355c-0.146-0.148-0.271-0.322-0.361-0.531
			c-0.092-0.203-0.135-0.42-0.135-0.65c0-0.234,0.043-0.453,0.135-0.658c0.09-0.207,0.215-0.387,0.361-0.545
			c0.152-0.156,0.332-0.277,0.539-0.367c0.205-0.094,0.426-0.137,0.656-0.137s0.449,0.043,0.656,0.137
			c0.205,0.09,0.387,0.211,0.537,0.367c0.148,0.158,0.273,0.338,0.361,0.545c0.092,0.205,0.137,0.424,0.137,0.658v0.836h1.67V8.438
			c0-0.234,0.047-0.453,0.137-0.658c0.09-0.207,0.209-0.387,0.357-0.545c0.154-0.156,0.332-0.277,0.541-0.367
			c0.203-0.094,0.42-0.137,0.656-0.137c0.232,0,0.447,0.043,0.652,0.137c0.205,0.09,0.381,0.211,0.529,0.367
			c0.15,0.158,0.268,0.338,0.355,0.545c0.09,0.205,0.131,0.424,0.131,0.658c0,0.225-0.041,0.441-0.131,0.645
			c-0.088,0.203-0.209,0.385-0.357,0.533c-0.152,0.152-0.33,0.271-0.533,0.359c-0.203,0.086-0.42,0.131-0.646,0.131h-0.859v1.678
			h0.859c0.227,0,0.443,0.045,0.646,0.131c0.203,0.088,0.381,0.209,0.533,0.361c0.148,0.148,0.27,0.328,0.357,0.529
			C29.582,13.01,29.623,13.227,29.623,13.455 M23.775,8.438c0-0.125-0.021-0.238-0.068-0.342C23.662,7.99,23.6,7.896,23.52,7.82
			c-0.08-0.082-0.17-0.145-0.277-0.191c-0.107-0.045-0.217-0.064-0.34-0.064c-0.121,0-0.23,0.02-0.338,0.064
			c-0.107,0.047-0.199,0.109-0.273,0.191c-0.076,0.076-0.135,0.17-0.182,0.275c-0.041,0.104-0.068,0.217-0.068,0.342
			c0,0.113,0.027,0.219,0.068,0.322c0.047,0.104,0.105,0.189,0.186,0.266c0.078,0.076,0.168,0.137,0.273,0.184
			c0.104,0.043,0.213,0.064,0.334,0.064h0.873V8.438z M23.775,12.607h-0.873c-0.121,0-0.23,0.023-0.334,0.066
			c-0.105,0.045-0.195,0.105-0.273,0.182c-0.08,0.078-0.139,0.166-0.186,0.271c-0.041,0.104-0.068,0.211-0.068,0.328
			s0.027,0.229,0.068,0.336c0.047,0.105,0.105,0.201,0.182,0.279c0.074,0.082,0.166,0.143,0.273,0.189
			c0.107,0.045,0.217,0.066,0.338,0.066c0.123,0,0.232-0.021,0.34-0.066c0.107-0.047,0.197-0.107,0.277-0.189
			c0.08-0.078,0.143-0.174,0.188-0.279c0.047-0.107,0.068-0.219,0.068-0.336V12.607z M26.264,10.105h-1.67v1.678h1.67V10.105z
			 M28.795,8.438c0-0.119-0.027-0.23-0.07-0.336c-0.047-0.104-0.105-0.195-0.182-0.275c-0.074-0.082-0.164-0.145-0.266-0.193
			c-0.102-0.047-0.213-0.068-0.322-0.068c-0.119,0-0.23,0.02-0.338,0.064C27.51,7.676,27.42,7.738,27.346,7.82
			c-0.076,0.076-0.141,0.17-0.184,0.275c-0.047,0.104-0.066,0.217-0.066,0.342v0.836h0.859c0.109,0,0.221-0.021,0.322-0.064
			c0.102-0.047,0.191-0.107,0.266-0.184c0.076-0.076,0.135-0.162,0.182-0.266C28.768,8.656,28.795,8.551,28.795,8.438
			 M28.795,13.455c0-0.117-0.027-0.225-0.07-0.328c-0.047-0.105-0.105-0.193-0.182-0.271c-0.074-0.076-0.164-0.137-0.266-0.182
			c-0.102-0.043-0.213-0.066-0.322-0.066h-0.859v0.848c0,0.117,0.02,0.229,0.066,0.336c0.043,0.105,0.107,0.201,0.184,0.279
			c0.074,0.082,0.164,0.143,0.271,0.189c0.107,0.045,0.219,0.066,0.338,0.066c0.109,0,0.221-0.023,0.322-0.07
			c0.102-0.049,0.191-0.109,0.266-0.191c0.076-0.08,0.135-0.172,0.182-0.277C28.768,13.682,28.795,13.572,28.795,13.455"/>
		<g>
			<path d="M3.918,21.506c0.576,0,0.918,0.199,0.918,0.432c0,0.115-0.096,0.236-0.23,0.236c-0.219,0-0.303-0.178-0.688-0.178
				c-0.703,0-0.975,0.682-0.975,1.258s0.271,1.258,0.975,1.258c0.398,0,0.502-0.191,0.68-0.191c0.131,0,0.221,0.084,0.221,0.236
				c0,0.211-0.316,0.445-0.9,0.445c-1.041,0-1.541-0.842-1.541-1.748S2.877,21.506,3.918,21.506"/>
			<path d="M6.73,21.508c0.967,0,1.506,0.84,1.506,1.746s-0.539,1.748-1.506,1.748c-0.963,0-1.504-0.842-1.504-1.748
				S5.768,21.508,6.73,21.508 M6.73,24.512c0.695,0,0.939-0.682,0.939-1.258c0-0.578-0.244-1.258-0.939-1.258
				c-0.693,0-0.938,0.68-0.938,1.258C5.793,23.83,6.037,24.512,6.73,24.512"/>
			<path d="M10.857,22.785c0-0.486-0.271-0.791-0.732-0.791c-0.457,0-0.727,0.305-0.727,0.791v1.912C9.398,24.885,9.287,25,9.117,25
				c-0.172,0-0.283-0.115-0.283-0.303v-2.889c0-0.186,0.111-0.301,0.283-0.301c0.17,0,0.281,0.115,0.281,0.301v0.104l0.014,0.012
				c0.135-0.174,0.346-0.416,0.861-0.416c0.334,0,0.68,0.139,0.938,0.574c0.248-0.357,0.553-0.574,1.047-0.574
				c0.525,0,1.188,0.334,1.188,1.295v1.895c0,0.188-0.109,0.303-0.283,0.303s-0.281-0.115-0.281-0.303v-1.912
				c0-0.486-0.27-0.791-0.73-0.791c-0.457,0-0.727,0.305-0.727,0.791v1.912c0,0.188-0.111,0.303-0.283,0.303
				c-0.176,0-0.283-0.115-0.283-0.303V22.785z"/>
			<path d="M16.217,22.785c0-0.486-0.27-0.791-0.732-0.791c-0.457,0-0.727,0.305-0.727,0.791v1.912c0,0.188-0.111,0.303-0.281,0.303
				c-0.172,0-0.285-0.115-0.285-0.303v-2.889c0-0.186,0.113-0.301,0.285-0.301c0.17,0,0.281,0.115,0.281,0.301v0.104l0.014,0.012
				c0.135-0.174,0.344-0.416,0.859-0.416c0.336,0,0.68,0.139,0.936,0.574c0.254-0.357,0.557-0.574,1.051-0.574
				c0.525,0,1.188,0.334,1.188,1.295v1.895c0,0.188-0.109,0.303-0.283,0.303s-0.283-0.115-0.283-0.303v-1.912
				c0-0.486-0.27-0.791-0.732-0.791c-0.453,0-0.723,0.305-0.723,0.791v1.912c0,0.188-0.111,0.303-0.283,0.303
				c-0.174,0-0.283-0.115-0.283-0.303V22.785z"/>
			<path d="M22.377,24.725c0,0.201-0.152,0.277-0.262,0.277c-0.113,0-0.264-0.076-0.264-0.277v-0.236H21.84
				c-0.246,0.346-0.566,0.514-0.932,0.514c-0.967,0-1.506-0.842-1.506-1.748s0.539-1.746,1.506-1.746
				c0.393,0,0.668,0.166,0.932,0.455h0.012v-0.18c0-0.199,0.15-0.275,0.264-0.275c0.109,0,0.262,0.076,0.262,0.275V24.725z
				 M20.908,24.512c0.693,0,0.938-0.682,0.938-1.258c0-0.578-0.244-1.258-0.938-1.258c-0.695,0-0.939,0.68-0.939,1.258
				C19.969,23.83,20.213,24.512,20.908,24.512"/>
			<path d="M23.125,21.809c0-0.186,0.107-0.303,0.283-0.303c0.172,0,0.285,0.117,0.285,0.303v0.135l0.01,0.012
				c0.254-0.32,0.602-0.449,0.943-0.449c0.525,0,1.188,0.334,1.188,1.299v1.893c0,0.188-0.107,0.305-0.281,0.305
				c-0.176,0-0.283-0.117-0.283-0.305v-1.861c0-0.598-0.418-0.84-0.789-0.84c-0.375,0-0.787,0.242-0.787,0.84v1.861
				c0,0.188-0.113,0.305-0.285,0.305c-0.176,0-0.283-0.117-0.283-0.305V21.809z"/>
			<path d="M28.816,24.531h-0.012C28.643,24.84,28.342,25,27.893,25c-0.928,0-1.457-0.84-1.457-1.746s0.529-1.748,1.457-1.748
				c0.449,0,0.764,0.25,0.912,0.463h0.012v-1.662c0-0.188,0.109-0.303,0.285-0.303c0.172,0,0.279,0.115,0.279,0.303v4.391
				c0,0.188-0.107,0.303-0.279,0.303c-0.176,0-0.285-0.115-0.285-0.303V24.531z M27.936,21.994c-0.693,0-0.936,0.684-0.936,1.26
				c0,0.578,0.242,1.258,0.936,1.258c0.695,0,0.939-0.68,0.939-1.258C28.875,22.678,28.631,21.994,27.936,21.994"/>
		</g>
	</g>
</g>
<g id="Language_specific">
	<g>
		<g>
			<g>
				<defs>
					<path id="SVGID_1741_" d="M46.816,4.201c-2.33,0-4.219,1.889-4.219,4.223v15.16c0,2.322,1.889,4.215,4.219,4.215h22.365
						c2.332,0,4.221-1.893,4.221-4.215V8.424c0-2.334-1.889-4.223-4.221-4.223H46.816z"/>
				</defs>
				<clipPath id="SVGID_8_">
					<use xlink:href="#SVGID_1741_"  overflow="visible"/>
				</clipPath>
				
					<linearGradient id="SVGID_9_" gradientUnits="userSpaceOnUse" x1="24.2031" y1="-899.832" x2="26.409" y2="-899.832" gradientTransform="matrix(4.3973 14.3829 14.3829 -4.3973 12888.8789 -4304.9111)">
					<stop  offset="0" style="stop-color:#FFFFFF"/>
					<stop  offset="1" style="stop-color:#D0D0D0"/>
				</linearGradient>
				<polygon clip-path="url(#SVGID_8_)" fill="url(#SVGID_9_)" points="69.451,-6.129 80,25.781 45.818,38.129 36,6.221 				"/>
			</g>
			<path fill="none" stroke="#5C5C5C" stroke-width="0.5198" stroke-linejoin="round" d="M73.402,23.582
				c0,2.324-1.891,4.217-4.217,4.217H46.814c-2.33,0-4.217-1.893-4.217-4.217V8.424c0-2.336,1.887-4.217,4.217-4.217h22.371
				c2.326,0,4.217,1.881,4.217,4.217V23.582z"/>
			<g>
				<defs>
					<path id="SVGID_1744_" d="M46.926,5.416c-1.742,0-3.156,1.418-3.156,3.164v14.84c0,1.742,1.414,3.164,3.156,3.164h22.141
						c1.744,0,3.16-1.422,3.16-3.164V8.58c0-1.746-1.416-3.164-3.16-3.164H46.926z"/>
				</defs>
				<clipPath id="SVGID_11_">
					<use xlink:href="#SVGID_1744_"  overflow="visible"/>
				</clipPath>
				
					<linearGradient id="SVGID_12_" gradientUnits="userSpaceOnUse" x1="61.2515" y1="-878.2295" x2="63.3301" y2="-878.2295" gradientTransform="matrix(0 10.1826 10.1826 0 9000.6611 -618.2825)">
					<stop  offset="0" style="stop-color:#FFFFFF"/>
					<stop  offset="1" style="stop-color:#F3F3F3"/>
				</linearGradient>
				<rect x="43.77" y="5.416" clip-path="url(#SVGID_11_)" fill="url(#SVGID_12_)" width="28.457" height="21.168"/>
			</g>
			<path fill="none" stroke="#FAFAFA" stroke-width="0.5198" stroke-linejoin="round" d="M72.227,23.424
				c0,1.742-1.416,3.16-3.162,3.16H46.93c-1.742,0-3.162-1.418-3.162-3.16V8.58c0-1.746,1.42-3.166,3.162-3.166h22.135
				c1.746,0,3.162,1.42,3.162,3.166V23.424z"/>
		</g>
		<path d="M71.623,13.121c0,0.23-0.041,0.451-0.131,0.656c-0.088,0.209-0.205,0.385-0.355,0.535
			c-0.148,0.152-0.324,0.273-0.529,0.365c-0.205,0.09-0.42,0.133-0.652,0.133c-0.236,0-0.453-0.043-0.656-0.133
			c-0.209-0.092-0.387-0.213-0.541-0.365c-0.148-0.15-0.268-0.326-0.357-0.535c-0.09-0.205-0.137-0.426-0.137-0.656v-0.848h-1.67
			v0.848c0,0.23-0.045,0.451-0.137,0.656c-0.088,0.209-0.213,0.385-0.361,0.535c-0.15,0.152-0.332,0.273-0.537,0.365
			c-0.207,0.09-0.426,0.133-0.656,0.133s-0.451-0.043-0.656-0.133c-0.207-0.092-0.387-0.213-0.539-0.365
			c-0.146-0.15-0.271-0.326-0.361-0.535c-0.092-0.205-0.135-0.426-0.135-0.656c0-0.234,0.043-0.451,0.135-0.654
			c0.09-0.205,0.215-0.381,0.361-0.529c0.152-0.15,0.332-0.268,0.539-0.355c0.205-0.088,0.426-0.133,0.656-0.133h0.873V9.773h-0.873
			c-0.23,0-0.451-0.045-0.656-0.133c-0.207-0.088-0.387-0.205-0.539-0.355c-0.146-0.146-0.271-0.322-0.361-0.529
			c-0.092-0.203-0.135-0.42-0.135-0.65c0-0.234,0.043-0.455,0.135-0.658c0.09-0.209,0.215-0.389,0.361-0.545
			c0.152-0.156,0.332-0.279,0.539-0.367c0.205-0.094,0.426-0.137,0.656-0.137s0.449,0.043,0.656,0.137
			c0.205,0.088,0.387,0.211,0.537,0.367c0.148,0.156,0.273,0.336,0.361,0.545c0.092,0.203,0.137,0.424,0.137,0.658v0.834h1.67V8.105
			c0-0.234,0.047-0.455,0.137-0.658c0.09-0.209,0.209-0.389,0.357-0.545c0.154-0.156,0.332-0.279,0.541-0.367
			c0.203-0.094,0.42-0.137,0.656-0.137c0.232,0,0.447,0.043,0.652,0.137c0.205,0.088,0.381,0.211,0.529,0.367
			c0.15,0.156,0.268,0.336,0.355,0.545c0.09,0.203,0.131,0.424,0.131,0.658c0,0.225-0.041,0.441-0.131,0.645
			c-0.088,0.203-0.209,0.383-0.357,0.531c-0.152,0.152-0.33,0.271-0.533,0.359s-0.42,0.133-0.646,0.133h-0.859v1.676h0.859
			c0.227,0,0.443,0.045,0.646,0.133s0.381,0.207,0.533,0.359c0.148,0.15,0.27,0.33,0.357,0.531
			C71.582,12.676,71.623,12.895,71.623,13.121 M65.775,8.105c0-0.125-0.021-0.238-0.068-0.342C65.662,7.656,65.6,7.564,65.52,7.486
			c-0.08-0.082-0.17-0.145-0.277-0.189s-0.217-0.066-0.34-0.066c-0.121,0-0.23,0.021-0.338,0.066s-0.199,0.107-0.273,0.189
			c-0.076,0.078-0.135,0.17-0.182,0.277c-0.041,0.104-0.068,0.217-0.068,0.342c0,0.111,0.027,0.219,0.068,0.32
			c0.047,0.105,0.105,0.191,0.186,0.268c0.078,0.074,0.168,0.135,0.273,0.182c0.104,0.043,0.213,0.064,0.334,0.064h0.873V8.105z
			 M65.775,12.273h-0.873c-0.121,0-0.23,0.023-0.334,0.068c-0.105,0.045-0.195,0.105-0.273,0.182
			c-0.08,0.078-0.139,0.166-0.186,0.27c-0.041,0.105-0.068,0.211-0.068,0.328s0.027,0.229,0.068,0.338
			c0.047,0.105,0.105,0.201,0.182,0.279c0.074,0.082,0.166,0.141,0.273,0.189c0.107,0.043,0.217,0.066,0.338,0.066
			c0.123,0,0.232-0.023,0.34-0.066c0.107-0.049,0.197-0.107,0.277-0.189c0.08-0.078,0.143-0.174,0.188-0.279
			c0.047-0.109,0.068-0.221,0.068-0.338V12.273z M68.264,9.773h-1.67v1.676h1.67V9.773z M70.795,8.105
			c0-0.121-0.027-0.23-0.07-0.336c-0.047-0.104-0.105-0.195-0.182-0.277c-0.074-0.08-0.164-0.145-0.266-0.191
			c-0.102-0.049-0.213-0.07-0.322-0.07c-0.119,0-0.23,0.021-0.338,0.066s-0.197,0.107-0.271,0.189
			c-0.076,0.078-0.141,0.17-0.184,0.277c-0.047,0.104-0.066,0.217-0.066,0.342v0.834h0.859c0.109,0,0.221-0.021,0.322-0.064
			c0.102-0.047,0.191-0.107,0.266-0.182c0.076-0.076,0.135-0.162,0.182-0.268C70.768,8.324,70.795,8.217,70.795,8.105
			 M70.795,13.121c0-0.117-0.027-0.223-0.07-0.328c-0.047-0.104-0.105-0.191-0.182-0.27c-0.074-0.076-0.164-0.137-0.266-0.182
			s-0.213-0.068-0.322-0.068h-0.859v0.848c0,0.117,0.02,0.229,0.066,0.338c0.043,0.105,0.107,0.201,0.184,0.279
			c0.074,0.082,0.164,0.141,0.271,0.189c0.107,0.043,0.219,0.066,0.338,0.066c0.109,0,0.221-0.023,0.322-0.072
			c0.102-0.047,0.191-0.109,0.266-0.189c0.076-0.082,0.135-0.172,0.182-0.279C70.768,13.35,70.795,13.238,70.795,13.121"/>
		<g>
			<path d="M47.653,19.258c1.037,0,1.649,0.359,1.649,0.777c0,0.209-0.169,0.426-0.412,0.426c-0.396,0-0.542-0.32-1.237-0.32
				c-1.264,0-1.761,1.225-1.761,2.266c0,1.039,0.497,2.266,1.761,2.266c0.718,0,0.901-0.348,1.221-0.348
				c0.231,0,0.398,0.152,0.398,0.43c0,0.381-0.568,0.799-1.619,0.799c-1.876,0-2.774-1.518-2.774-3.146
				C44.879,20.775,45.777,19.258,47.653,19.258"/>
			<path d="M53.923,21.561c0-0.879-0.486-1.424-1.319-1.424c-0.822,0-1.309,0.545-1.309,1.424v3.447
				c0,0.336-0.194,0.543-0.506,0.543c-0.311,0-0.509-0.207-0.509-0.543v-5.205c0-0.336,0.198-0.541,0.509-0.541
				c0.312,0,0.506,0.205,0.506,0.541v0.188l0.025,0.02c0.243-0.311,0.622-0.748,1.549-0.748c0.602,0,1.226,0.25,1.689,1.039
				c0.452-0.646,0.994-1.039,1.887-1.039c0.944,0,2.137,0.602,2.137,2.334v3.412c0,0.336-0.195,0.543-0.509,0.543
				c-0.311,0-0.509-0.207-0.509-0.543v-3.447c0-0.879-0.486-1.424-1.316-1.424c-0.819,0-1.306,0.545-1.306,1.424v3.447
				c0,0.336-0.197,0.543-0.512,0.543c-0.313,0-0.508-0.207-0.508-0.543V21.561z"/>
			<path d="M63.955,24.705h-0.022c-0.288,0.557-0.833,0.846-1.645,0.846c-1.666,0-2.621-1.512-2.621-3.145
				c0-1.631,0.955-3.148,2.621-3.148c0.812,0,1.379,0.453,1.645,0.834h0.022v-2.994c0-0.334,0.198-0.543,0.509-0.543
				c0.313,0,0.509,0.209,0.509,0.543v7.91c0,0.336-0.195,0.543-0.509,0.543c-0.311,0-0.509-0.207-0.509-0.543V24.705z M62.37,20.141
				c-1.251,0-1.687,1.225-1.687,2.266c0,1.043,0.436,2.266,1.687,2.266c1.252,0,1.689-1.223,1.689-2.266
				C64.06,21.365,63.622,20.141,62.37,20.141"/>
		</g>
	</g>
	<line fill="none" stroke="#FFFFFF" stroke-miterlimit="10" x1="39.5" y1="1" x2="33.5" y2="30.062"/>
	<line fill="none" stroke="#000000" stroke-miterlimit="10" x1="40.5" y1="1" x2="34.5" y2="31"/>
</g>
<g id="Layer_5">
</g>
</svg>
