<?xml version="1.0" encoding="utf-8"?>
<!-- Generator: Adobe Illustrator 16.0.4, SVG Export Plug-In . SVG Version: 6.00 Build 0)  -->
<!DOCTYPE svg PUBLIC "-//W3C//DTD SVG 1.1//EN" "http://www.w3.org/Graphics/SVG/1.1/DTD/svg11.dtd">
<svg version="1.1" xmlns="http://www.w3.org/2000/svg" xmlns:xlink="http://www.w3.org/1999/xlink" x="0px" y="0px" width="74px"
	 height="32px" viewBox="0 0 74 32" enable-background="new 0 0 74 32" xml:space="preserve">
<g id="Layer_3" display="none">
</g>
<g id="Layer_2">
</g>
<g id="Layer_1">
	<g>
		<g>
			<g>
				<defs>
					<path id="SVGID_1603_" d="M4.816,4.201c-2.33,0-4.219,1.889-4.219,4.223v15.16c0,2.322,1.889,4.215,4.219,4.215h22.365
						c2.332,0,4.221-1.893,4.221-4.215V8.424c0-2.334-1.889-4.223-4.221-4.223H4.816z"/>
				</defs>
				<clipPath id="SVGID_2_">
					<use xlink:href="#SVGID_1603_"  overflow="visible"/>
				</clipPath>
				
					<linearGradient id="SVGID_3_" gradientUnits="userSpaceOnUse" x1="29.4907" y1="-1000.3691" x2="31.697" y2="-1000.3691" gradientTransform="matrix(4.3973 14.3829 14.3829 -4.3973 14269.6367 -4823.0527)">
					<stop  offset="0" style="stop-color:#FFFFFF"/>
					<stop  offset="1" style="stop-color:#D0D0D0"/>
				</linearGradient>
				<polygon clip-path="url(#SVGID_2_)" fill="url(#SVGID_3_)" points="27.451,-6.129 38,25.781 3.818,38.129 -6,6.221 				"/>
			</g>
			<path fill="none" stroke="#5C5C5C" stroke-width="0.5198" stroke-linejoin="round" d="M31.402,23.582
				c0,2.324-1.891,4.217-4.217,4.217H4.814c-2.33,0-4.217-1.893-4.217-4.217V8.424c0-2.336,1.887-4.217,4.217-4.217h22.371
				c2.326,0,4.217,1.881,4.217,4.217V23.582z"/>
			<g>
				<defs>
					<path id="SVGID_1606_" d="M4.926,5.416c-1.742,0-3.156,1.418-3.156,3.164v14.84c0,1.742,1.414,3.164,3.156,3.164h22.141
						c1.744,0,3.16-1.422,3.16-3.164V8.58c0-1.746-1.416-3.164-3.16-3.164H4.926z"/>
				</defs>
				<clipPath id="SVGID_5_">
					<use xlink:href="#SVGID_1606_"  overflow="visible"/>
				</clipPath>
				
					<linearGradient id="SVGID_6_" gradientUnits="userSpaceOnUse" x1="70.6792" y1="-978.3545" x2="72.7578" y2="-978.3545" gradientTransform="matrix(0 10.1826 10.1826 0 9978.1904 -714.2825)">
					<stop  offset="0" style="stop-color:#FFFFFF"/>
					<stop  offset="1" style="stop-color:#F3F3F3"/>
				</linearGradient>
				<rect x="1.77" y="5.416" clip-path="url(#SVGID_5_)" fill="url(#SVGID_6_)" width="28.457" height="21.168"/>
			</g>
			<path fill="none" stroke="#FAFAFA" stroke-width="0.5198" stroke-linejoin="round" d="M30.227,23.424
				c0,1.742-1.416,3.16-3.162,3.16H4.93c-1.742,0-3.162-1.418-3.162-3.16V8.58c0-1.746,1.42-3.166,3.162-3.166h22.135
				c1.746,0,3.162,1.42,3.162,3.166V23.424z"/>
		</g>
		<g>
			<path d="M24.953,11.664c0,0.236-0.188,0.33-0.318,0.33c-0.135,0-0.312-0.094-0.312-0.33v-0.285h-0.012
				c-0.295,0.414-0.678,0.615-1.115,0.615c-1.15,0-1.797-1.006-1.797-2.088s0.646-2.086,1.797-2.086
				c0.473,0,0.801,0.199,1.115,0.545h0.012V8.152c0-0.24,0.178-0.332,0.312-0.332c0.131,0,0.318,0.092,0.318,0.332V11.664z
				 M23.195,11.41c0.828,0,1.121-0.814,1.121-1.504c0-0.691-0.293-1.504-1.121-1.504c-0.83,0-1.119,0.812-1.119,1.504
				C22.076,10.596,22.365,11.41,23.195,11.41"/>
			<path d="M26.51,11.635c0,0.221-0.131,0.357-0.338,0.357s-0.34-0.137-0.34-0.357V6.387c0-0.227,0.133-0.365,0.34-0.365
				S26.51,6.16,26.51,6.387V11.635z"/>
			<path d="M27.609,6.98c0-0.221,0.133-0.359,0.338-0.359c0.209,0,0.342,0.139,0.342,0.359v0.885h0.273
				c0.225,0,0.338,0.109,0.338,0.293c0,0.182-0.113,0.289-0.338,0.289h-0.273v3.188c0,0.221-0.133,0.359-0.342,0.359
				c-0.205,0-0.338-0.139-0.338-0.359V8.447h-0.271c-0.225,0-0.342-0.107-0.342-0.289c0-0.184,0.117-0.293,0.342-0.293h0.271V6.98z"
				/>
		</g>
		<g>
			<path d="M5.471,18.938c1.523,0,2.377,1.326,2.377,2.758s-0.854,2.762-2.377,2.762c-1.525,0-2.371-1.33-2.371-2.762
				S3.945,18.938,5.471,18.938 M5.471,23.684c1.098,0,1.482-1.074,1.482-1.988s-0.385-1.988-1.482-1.988s-1.48,1.074-1.48,1.988
				S4.373,23.684,5.471,23.684"/>
			<path d="M8.836,19.412c0-0.295,0.17-0.475,0.445-0.475s0.445,0.18,0.445,0.475v0.266H9.75c0.256-0.488,0.729-0.74,1.434-0.74
				c1.469,0,2.312,1.326,2.312,2.758s-0.844,2.762-2.312,2.762c-0.705,0-1.201-0.396-1.434-0.73H9.727v2.385
				c0,0.291-0.17,0.477-0.445,0.477s-0.445-0.186-0.445-0.477V19.412z M11.119,23.684c1.098,0,1.48-1.074,1.48-1.988
				s-0.383-1.988-1.48-1.988c-1.1,0-1.484,1.074-1.484,1.988S10.02,23.684,11.119,23.684"/>
			<path d="M14.723,17.83c0-0.293,0.17-0.477,0.447-0.477c0.273,0,0.447,0.184,0.447,0.477v1.166h0.363
				c0.297,0,0.447,0.145,0.447,0.385c0,0.246-0.15,0.387-0.447,0.387h-0.363v4.211c0,0.295-0.174,0.477-0.447,0.477
				c-0.277,0-0.447-0.182-0.447-0.477v-4.211h-0.365c-0.295,0-0.445-0.141-0.445-0.387c0-0.24,0.15-0.385,0.445-0.385h0.365V17.83z"
				/>
			<path d="M17.525,17.107c0.305,0,0.549,0.246,0.549,0.549s-0.244,0.549-0.549,0.549s-0.549-0.246-0.549-0.549
				S17.221,17.107,17.525,17.107 M17.973,23.979c0,0.295-0.17,0.477-0.447,0.477c-0.273,0-0.445-0.182-0.445-0.477v-4.566
				c0-0.295,0.172-0.479,0.445-0.479c0.277,0,0.447,0.184,0.447,0.479V23.979z"/>
			<path d="M21.293,18.938c1.523,0,2.375,1.326,2.375,2.758s-0.852,2.762-2.375,2.762c-1.525,0-2.379-1.33-2.379-2.762
				S19.768,18.938,21.293,18.938 M21.293,23.684c1.098,0,1.48-1.074,1.48-1.988s-0.383-1.988-1.48-1.988
				c-1.1,0-1.484,1.074-1.484,1.988S20.193,23.684,21.293,23.684"/>
			<path d="M24.613,19.412c0-0.295,0.172-0.479,0.445-0.479c0.271,0,0.451,0.184,0.451,0.479v0.215l0.014,0.02
				c0.4-0.51,0.957-0.713,1.492-0.713c0.834,0,1.885,0.527,1.885,2.053v2.992c0,0.295-0.176,0.479-0.449,0.479
				c-0.275,0-0.445-0.184-0.445-0.479v-2.941c0-0.945-0.664-1.33-1.252-1.33c-0.592,0-1.244,0.385-1.244,1.33v2.941
				c0,0.295-0.18,0.479-0.451,0.479c-0.273,0-0.445-0.184-0.445-0.479V19.412z"/>
		</g>
	</g>
</g>
<g id="Language_specific">
	<g>
		<g>
			<g>
				<defs>
					<path id="SVGID_1735_" d="M46.816,4.201c-2.33,0-4.219,1.889-4.219,4.223v15.16c0,2.322,1.889,4.215,4.219,4.215h22.365
						c2.332,0,4.221-1.893,4.221-4.215V8.424c0-2.334-1.889-4.223-4.221-4.223H46.816z"/>
				</defs>
				<clipPath id="SVGID_8_">
					<use xlink:href="#SVGID_1735_"  overflow="visible"/>
				</clipPath>
				
					<linearGradient id="SVGID_9_" gradientUnits="userSpaceOnUse" x1="30.3071" y1="-997.6973" x2="32.5134" y2="-997.6973" gradientTransform="matrix(4.3973 14.3829 14.3829 -4.3973 14269.6367 -4823.0527)">
					<stop  offset="0" style="stop-color:#FFFFFF"/>
					<stop  offset="1" style="stop-color:#D0D0D0"/>
				</linearGradient>
				<polygon clip-path="url(#SVGID_8_)" fill="url(#SVGID_9_)" points="69.451,-6.129 80,25.781 45.818,38.129 36,6.221 				"/>
			</g>
			<path fill="none" stroke="#5C5C5C" stroke-width="0.5198" stroke-linejoin="round" d="M73.402,23.582
				c0,2.324-1.891,4.217-4.217,4.217H46.814c-2.33,0-4.217-1.893-4.217-4.217V8.424c0-2.336,1.887-4.217,4.217-4.217h22.371
				c2.326,0,4.217,1.881,4.217,4.217V23.582z"/>
			<g>
				<defs>
					<path id="SVGID_1738_" d="M46.926,5.416c-1.742,0-3.156,1.418-3.156,3.164v14.84c0,1.742,1.414,3.164,3.156,3.164h22.141
						c1.744,0,3.16-1.422,3.16-3.164V8.58c0-1.746-1.416-3.164-3.16-3.164H46.926z"/>
				</defs>
				<clipPath id="SVGID_11_">
					<use xlink:href="#SVGID_1738_"  overflow="visible"/>
				</clipPath>
				
					<linearGradient id="SVGID_12_" gradientUnits="userSpaceOnUse" x1="70.6792" y1="-974.2295" x2="72.7578" y2="-974.2295" gradientTransform="matrix(0 10.1826 10.1826 0 9978.1904 -714.2825)">
					<stop  offset="0" style="stop-color:#FFFFFF"/>
					<stop  offset="1" style="stop-color:#F3F3F3"/>
				</linearGradient>
				<rect x="43.77" y="5.416" clip-path="url(#SVGID_11_)" fill="url(#SVGID_12_)" width="28.457" height="21.168"/>
			</g>
			<path fill="none" stroke="#FAFAFA" stroke-width="0.5198" stroke-linejoin="round" d="M72.227,23.424
				c0,1.742-1.416,3.16-3.162,3.16H46.93c-1.742,0-3.162-1.418-3.162-3.16V8.58c0-1.746,1.42-3.166,3.162-3.166h22.135
				c1.746,0,3.162,1.42,3.162,3.166V23.424z"/>
		</g>
		<g>
			<path d="M66.953,11.664c0,0.236-0.188,0.332-0.318,0.332c-0.135,0-0.312-0.096-0.312-0.332v-0.285h-0.012
				c-0.295,0.414-0.678,0.617-1.115,0.617c-1.15,0-1.797-1.008-1.797-2.09c0-1.08,0.646-2.086,1.797-2.086
				c0.473,0,0.801,0.201,1.115,0.545h0.012V8.152c0-0.24,0.178-0.332,0.312-0.332c0.131,0,0.318,0.092,0.318,0.332V11.664z
				 M65.195,11.41c0.828,0,1.121-0.812,1.121-1.504c0-0.689-0.293-1.504-1.121-1.504c-0.83,0-1.119,0.814-1.119,1.504
				C64.076,10.598,64.365,11.41,65.195,11.41"/>
			<path d="M68.51,11.635c0,0.221-0.131,0.359-0.338,0.359s-0.34-0.139-0.34-0.359V6.387c0-0.225,0.133-0.363,0.34-0.363
				s0.338,0.139,0.338,0.363V11.635z"/>
			<path d="M69.609,6.982c0-0.223,0.133-0.359,0.338-0.359c0.209,0,0.342,0.137,0.342,0.359v0.885h0.273
				c0.225,0,0.338,0.107,0.338,0.293c0,0.18-0.113,0.289-0.338,0.289h-0.273v3.186c0,0.221-0.133,0.361-0.342,0.361
				c-0.205,0-0.338-0.141-0.338-0.361V8.449h-0.271c-0.225,0-0.342-0.109-0.342-0.289c0-0.186,0.117-0.293,0.342-0.293h0.271V6.982z
				"/>
		</g>
		<g>
			<path d="M70.407,25.066h-7.041l-3.695-5.494H57.27v-0.729h2.808l3.69,5.504h6.64V25.066z M70.407,19.572h-7.781v-0.727h7.781
				V19.572z"/>
		</g>
	</g>
	<line fill="none" stroke="#FFFFFF" stroke-miterlimit="10" x1="39.5" y1="1" x2="33.5" y2="30.062"/>
	<line fill="none" stroke="#000000" stroke-miterlimit="10" x1="40.5" y1="1" x2="34.5" y2="31"/>
</g>
<g id="Layer_5">
</g>
</svg>
