<?xml version="1.0" encoding="utf-8"?>
<!-- Generator: Adobe Illustrator 16.0.4, SVG Export Plug-In . SVG Version: 6.00 Build 0)  -->
<!DOCTYPE svg PUBLIC "-//W3C//DTD SVG 1.1//EN" "http://www.w3.org/Graphics/SVG/1.1/DTD/svg11.dtd">
<svg version="1.1" xmlns="http://www.w3.org/2000/svg" xmlns:xlink="http://www.w3.org/1999/xlink" x="0px" y="0px" width="74px"
	 height="32px" viewBox="0 0 74 32" enable-background="new 0 0 74 32" xml:space="preserve">
<g id="Layer_3" display="none">
</g>
<g id="Layer_2">
</g>
<g id="Layer_1">
	<g>
		<g>
			<g>
				<defs>
					<path id="SVGID_1537_" d="M4.134,1.559c-1.952,0-3.533,1.582-3.533,3.527v21.828c0,1.951,1.581,3.527,3.533,3.527h23.734
						c1.952,0,3.532-1.576,3.532-3.527V5.086c0-1.945-1.58-3.527-3.532-3.527H4.134z"/>
				</defs>
				<clipPath id="SVGID_2_">
					<use xlink:href="#SVGID_1537_"  overflow="visible"/>
				</clipPath>
				
					<linearGradient id="SVGID_3_" gradientUnits="userSpaceOnUse" x1="30.9917" y1="-1461.8496" x2="32.7318" y2="-1461.8496" gradientTransform="matrix(5.8606 19.1691 19.1691 -5.8606 27851.582 -9162.1143)">
					<stop  offset="0" style="stop-color:#FFFFFF"/>
					<stop  offset="1" style="stop-color:#D0D0D0"/>
				</linearGradient>
				<polygon clip-path="url(#SVGID_2_)" fill="url(#SVGID_3_)" points="28.771,-7.037 39.494,27.973 3.232,39.039 -7.489,4.027 				
					"/>
			</g>
			<path fill="none" stroke="#5C5C5C" stroke-width="0.4351" stroke-linejoin="round" d="M31.403,26.914
				c0,1.953-1.582,3.527-3.532,3.527H4.135c-1.951,0-3.538-1.574-3.538-3.527V5.086c0-1.945,1.587-3.527,3.538-3.527h23.735
				c1.95,0,3.532,1.582,3.532,3.527V26.914z"/>
			<g>
				<defs>
					<path id="SVGID_1540_" d="M4.23,2.57c-1.459,0-2.646,1.188-2.646,2.648v21.568c0,1.455,1.188,2.641,2.646,2.641h23.542
						c1.462,0,2.648-1.186,2.648-2.641V5.219c0-1.461-1.187-2.648-2.648-2.648H4.23z"/>
				</defs>
				<clipPath id="SVGID_5_">
					<use xlink:href="#SVGID_1540_"  overflow="visible"/>
				</clipPath>
				
					<linearGradient id="SVGID_6_" gradientUnits="userSpaceOnUse" x1="59.002" y1="-1439.4209" x2="60.7412" y2="-1439.4209" gradientTransform="matrix(0 15.4443 15.4443 0 22246.8613 -908.6702)">
					<stop  offset="0" style="stop-color:#FFFFFF"/>
					<stop  offset="1" style="stop-color:#F3F3F3"/>
				</linearGradient>
				<rect x="1.583" y="2.57" clip-path="url(#SVGID_5_)" fill="url(#SVGID_6_)" width="28.837" height="26.857"/>
			</g>
			<path fill="none" stroke="#FAFAFA" stroke-width="0.4351" stroke-linejoin="round" d="M30.42,26.787
				c0,1.455-1.19,2.643-2.648,2.643H4.228c-1.457,0-2.647-1.188-2.647-2.643V5.219c0-1.463,1.19-2.646,2.647-2.646h23.544
				c1.458,0,2.648,1.184,2.648,2.646V26.787z"/>
		</g>
		<g>
			<path d="M7.287,16.41c0-0.961-0.672-1.359-1.273-1.359s-1.276,0.398-1.276,1.359v3.01c0,0.297-0.173,0.486-0.454,0.486
				s-0.454-0.189-0.454-0.486v-7.092c0-0.299,0.173-0.488,0.454-0.488s0.454,0.189,0.454,0.488v2.645l0.025,0.018
				c0.401-0.516,0.973-0.725,1.521-0.725c0.85,0,1.917,0.535,1.917,2.096v3.059c0,0.297-0.179,0.486-0.457,0.486
				c-0.276,0-0.457-0.189-0.457-0.486V16.41z"/>
			<path d="M11.597,14.266c1.555,0,2.427,1.355,2.427,2.818s-0.872,2.822-2.427,2.822c-1.552,0-2.424-1.359-2.424-2.822
				S10.045,14.266,11.597,14.266 M11.597,19.117c1.12,0,1.516-1.1,1.516-2.033s-0.396-2.029-1.516-2.029
				c-1.117,0-1.513,1.096-1.513,2.029S10.48,19.117,11.597,19.117"/>
			<path d="M18.259,16.328c0-0.787-0.435-1.273-1.185-1.273c-0.732,0-1.167,0.486-1.167,1.273v3.092
				c0,0.297-0.179,0.486-0.454,0.486c-0.281,0-0.457-0.189-0.457-0.486v-4.666c0-0.301,0.176-0.488,0.457-0.488
				c0.275,0,0.454,0.188,0.454,0.488v0.166l0.022,0.021c0.214-0.285,0.557-0.676,1.388-0.676c0.537,0,1.098,0.227,1.513,0.934
				c0.404-0.582,0.892-0.934,1.688-0.934c0.85,0,1.917,0.539,1.917,2.096v3.059c0,0.297-0.173,0.486-0.457,0.486
				c-0.281,0-0.454-0.189-0.454-0.486v-3.092c0-0.787-0.435-1.273-1.182-1.273c-0.735,0-1.17,0.486-1.17,1.273v3.092
				c0,0.297-0.179,0.486-0.457,0.486s-0.457-0.189-0.457-0.486V16.328z"/>
			<path d="M24.236,17.438c0,0.943,0.6,1.68,1.622,1.68c1.215,0,1.524-0.746,1.866-0.746c0.168,0,0.332,0.145,0.332,0.406
				c0,0.443-1.129,1.129-2.207,1.129c-1.758,0-2.527-1.361-2.527-2.822c0-1.49,0.934-2.818,2.475-2.818
				c1.505,0,2.374,1.355,2.374,2.684c0,0.322-0.114,0.488-0.504,0.488H24.236z M27.262,16.754c0-0.787-0.457-1.699-1.466-1.699
				c-1.129-0.045-1.529,0.859-1.561,1.699H27.262z"/>
		</g>
	</g>
</g>
<g id="Language_specific">
	<g>
		<g>
			<g>
				<defs>
					<path id="SVGID_1831_" d="M46.134,1.559c-1.952,0-3.533,1.582-3.533,3.527v21.828c0,1.951,1.581,3.527,3.533,3.527h23.734
						c1.952,0,3.532-1.576,3.532-3.527V5.086c0-1.945-1.58-3.527-3.532-3.527H46.134z"/>
				</defs>
				<clipPath id="SVGID_8_">
					<use xlink:href="#SVGID_1831_"  overflow="visible"/>
				</clipPath>
				
					<linearGradient id="SVGID_9_" gradientUnits="userSpaceOnUse" x1="31.604" y1="-1459.8457" x2="33.3446" y2="-1459.8457" gradientTransform="matrix(5.8606 19.1691 19.1691 -5.8606 27851.582 -9162.1143)">
					<stop  offset="0" style="stop-color:#FFFFFF"/>
					<stop  offset="1" style="stop-color:#D0D0D0"/>
				</linearGradient>
				<polygon clip-path="url(#SVGID_8_)" fill="url(#SVGID_9_)" points="70.771,-7.037 81.494,27.973 45.232,39.039 34.511,4.027 
									"/>
			</g>
			<path fill="none" stroke="#5C5C5C" stroke-width="0.4351" stroke-linejoin="round" d="M73.403,26.914
				c0,1.953-1.582,3.527-3.532,3.527H46.135c-1.951,0-3.538-1.574-3.538-3.527V5.086c0-1.945,1.587-3.527,3.538-3.527h23.735
				c1.95,0,3.532,1.582,3.532,3.527V26.914z"/>
			<g>
				<defs>
					<path id="SVGID_1834_" d="M46.23,2.57c-1.459,0-2.646,1.188-2.646,2.648v21.568c0,1.455,1.188,2.641,2.646,2.641h23.542
						c1.462,0,2.648-1.186,2.648-2.641V5.219c0-1.461-1.187-2.648-2.648-2.648H46.23z"/>
				</defs>
				<clipPath id="SVGID_11_">
					<use xlink:href="#SVGID_1834_"  overflow="visible"/>
				</clipPath>
				
					<linearGradient id="SVGID_12_" gradientUnits="userSpaceOnUse" x1="59.002" y1="-1436.7012" x2="60.7412" y2="-1436.7012" gradientTransform="matrix(0 15.4443 15.4443 0 22246.8613 -908.6702)">
					<stop  offset="0" style="stop-color:#FFFFFF"/>
					<stop  offset="1" style="stop-color:#F3F3F3"/>
				</linearGradient>
				<rect x="43.583" y="2.57" clip-path="url(#SVGID_11_)" fill="url(#SVGID_12_)" width="28.837" height="26.857"/>
			</g>
			<path fill="none" stroke="#FAFAFA" stroke-width="0.4351" stroke-linejoin="round" d="M72.42,26.787
				c0,1.455-1.19,2.643-2.648,2.643H46.228c-1.457,0-2.647-1.188-2.647-2.643V5.219c0-1.463,1.19-2.646,2.647-2.646h23.544
				c1.458,0,2.648,1.184,2.648,2.646V26.787z"/>
		</g>
		<path d="M54.458,10.307l5.504,1.127c0.393,0.082,0.777-0.17,0.857-0.562c0.08-0.398-0.17-0.783-0.568-0.859l-8.873-1.818
			l1.725,8.902c0.029,0.148,0.102,0.273,0.199,0.373c0.164,0.164,0.408,0.246,0.652,0.203c0.396-0.08,0.652-0.463,0.572-0.854
			l-1.055-5.441L63.595,21.49l1.025-1.023L54.458,10.307z"/>
	</g>
	<line fill="none" stroke="#FFFFFF" stroke-miterlimit="10" x1="39.5" y1="1" x2="33.5" y2="30.062"/>
	<line fill="none" stroke="#000000" stroke-miterlimit="10" x1="40.5" y1="1" x2="34.5" y2="31"/>
</g>
<g id="Layer_5">
</g>
</svg>
