<?xml version="1.0" encoding="utf-8"?>
<!-- Generator: Adobe Illustrator 16.0.0, SVG Export Plug-In . SVG Version: 6.00 Build 0)  -->
<!DOCTYPE svg PUBLIC "-//W3C//DTD SVG 1.1//EN" "http://www.w3.org/Graphics/SVG/1.1/DTD/svg11.dtd">
<svg version="1.1" id="Reference" xmlns="http://www.w3.org/2000/svg" xmlns:xlink="http://www.w3.org/1999/xlink" x="0px" y="0px"
	 width="32px" height="32px" viewBox="0 0 32 32" enable-background="new 0 0 32 32" xml:space="preserve">
<g>
	<g>
		<g>
			<g>
				<defs>
					<path id="SVGID_1_" d="M4.135,1.805c-1.952,0-3.533,1.582-3.533,3.527V27.16c0,1.951,1.581,3.527,3.533,3.527h23.734
						c1.951,0,3.531-1.576,3.531-3.527V5.332c0-1.945-1.58-3.527-3.531-3.527H4.135z"/>
				</defs>
				<clipPath id="SVGID_2_">
					<use xlink:href="#SVGID_1_"  overflow="visible"/>
				</clipPath>
				
					<linearGradient id="SVGID_3_" gradientUnits="userSpaceOnUse" x1="-333.8784" y1="1473.7354" x2="-332.1383" y2="1473.7354" gradientTransform="matrix(5.8606 19.1691 -19.1691 5.8606 30217.7949 -2237.3032)">
					<stop  offset="0" style="stop-color:#FFFFFF"/>
					<stop  offset="1" style="stop-color:#D0D0D0"/>
				</linearGradient>
				<polygon clip-path="url(#SVGID_2_)" fill="url(#SVGID_3_)" points="28.771,-6.791 39.494,28.219 3.232,39.285 -7.488,4.273 				
					"/>
			</g>
		</g>
		<path fill="none" stroke="#5C5C5C" stroke-width="0.4351" stroke-linejoin="round" d="M31.402,27.16
			c0,1.953-1.582,3.527-3.531,3.527H4.136c-1.951,0-3.538-1.574-3.538-3.527V5.332c0-1.945,1.587-3.527,3.538-3.527h23.735
			c1.949,0,3.531,1.582,3.531,3.527V27.16z"/>
		<g>
			<g>
				<defs>
					<path id="SVGID_4_" d="M4.23,2.816c-1.459,0-2.646,1.188-2.646,2.648v21.568c0,1.454,1.188,2.641,2.646,2.641h23.542
						c1.463,0,2.648-1.187,2.648-2.641V5.465c0-1.461-1.188-2.648-2.648-2.648L4.23,2.816L4.23,2.816z"/>
				</defs>
				<clipPath id="SVGID_5_">
					<use xlink:href="#SVGID_4_"  overflow="visible"/>
				</clipPath>
				
					<linearGradient id="SVGID_6_" gradientUnits="userSpaceOnUse" x1="-308.8882" y1="1436.2666" x2="-307.1494" y2="1436.2666" gradientTransform="matrix(0 15.4443 -15.4443 0 22198.1309 4773.3828)">
					<stop  offset="0" style="stop-color:#FFFFFF"/>
					<stop  offset="1" style="stop-color:#F3F3F3"/>
				</linearGradient>
				<rect x="1.584" y="2.816" clip-path="url(#SVGID_5_)" fill="url(#SVGID_6_)" width="28.837" height="26.857"/>
			</g>
		</g>
		<path fill="none" stroke="#FAFAFA" stroke-width="0.4351" stroke-linejoin="round" d="M30.421,27.033
			c0,1.455-1.19,2.643-2.647,2.643H4.229c-1.457,0-2.647-1.188-2.647-2.643V5.465c0-1.463,1.19-2.646,2.647-2.646h23.544
			c1.457,0,2.647,1.184,2.647,2.646V27.033z"/>
	</g>
	<path d="M8.649,11.021l-2.376-3.87C6.148,6.954,6.101,6.83,6.101,6.695c0-0.275,0.224-0.449,0.498-0.449
		c0.196,0,0.385,0.075,0.545,0.349l2.051,3.343l2.052-3.343c0.16-0.273,0.347-0.349,0.549-0.349c0.271,0,0.494,0.174,0.494,0.449
		c0,0.135-0.047,0.259-0.172,0.456L9.742,11.02v3.642c0,0.359-0.21,0.584-0.547,0.584c-0.334,0-0.545-0.225-0.545-0.584
		L8.649,11.021L8.649,11.021z"/>
	<g enable-background="new    ">
		<path d="M20.789,18.96v3.167h3.66V18.96h0.988v7.569h-0.988V22.98h-3.66v3.549h-0.978V18.96H20.789z"/>
	</g>
</g>
</svg>
