<?xml version="1.0" encoding="utf-8"?>
<!-- Generator: Adobe Illustrator 16.0.0, SVG Export Plug-In . SVG Version: 6.00 Build 0)  -->
<!DOCTYPE svg PUBLIC "-//W3C//DTD SVG 1.1//EN" "http://www.w3.org/Graphics/SVG/1.1/DTD/svg11.dtd">
<svg version="1.1" id="Layer_1" xmlns="http://www.w3.org/2000/svg" xmlns:xlink="http://www.w3.org/1999/xlink" x="0px" y="0px"
	 width="32px" height="32px" viewBox="0 0 32 32" enable-background="new 0 0 32 32" xml:space="preserve">
<g id="Layer_3" display="none">
</g>
<g id="Layer_2">
</g>
<g id="Layer_1_1_">
</g>
<g id="Language_specific">
	<g>
		<g>
			<g>
				<g>
					<defs>
						<path id="SVGID_1_" d="M4.135,1.559c-1.953,0-3.533,1.582-3.533,3.527v21.828c0,1.951,1.58,3.527,3.533,3.527h23.734
							c1.951,0,3.531-1.576,3.531-3.527V5.086c0-1.945-1.58-3.527-3.531-3.527H4.135z"/>
					</defs>
					<clipPath id="SVGID_2_">
						<use xlink:href="#SVGID_1_"  overflow="visible"/>
					</clipPath>
					
						<linearGradient id="SVGID_3_" gradientUnits="userSpaceOnUse" x1="-1159.6411" y1="642.4805" x2="-1157.9005" y2="642.4805" gradientTransform="matrix(5.8606 19.1691 -19.1691 5.8606 19122.8477 18463.2305)">
						<stop  offset="0" style="stop-color:#FFFFFF"/>
						<stop  offset="1" style="stop-color:#D0D0D0"/>
					</linearGradient>
					<polygon clip-path="url(#SVGID_2_)" fill="url(#SVGID_3_)" points="28.771,-7.037 39.494,27.973 3.232,39.039 -7.488,4.027 
											"/>
				</g>
			</g>
			<path fill="none" stroke="#5C5C5C" stroke-width="0.4351" stroke-linejoin="round" d="M31.402,26.914
				c0,1.953-1.582,3.527-3.531,3.527H4.135c-1.951,0-3.537-1.574-3.537-3.527V5.086c0-1.945,1.586-3.527,3.537-3.527h23.736
				c1.949,0,3.531,1.582,3.531,3.527V26.914z"/>
			<g>
				<g>
					<defs>
						<path id="SVGID_4_" d="M4.23,2.57c-1.459,0-2.646,1.188-2.646,2.648v21.568c0,1.455,1.188,2.641,2.646,2.641h23.542
							c1.463,0,2.647-1.186,2.647-2.641V5.219c0-1.461-1.187-2.648-2.647-2.648L4.23,2.57L4.23,2.57z"/>
					</defs>
					<clipPath id="SVGID_5_">
						<use xlink:href="#SVGID_4_"  overflow="visible"/>
					</clipPath>
					
						<linearGradient id="SVGID_6_" gradientUnits="userSpaceOnUse" x1="-1159.4873" y1="600.2881" x2="-1157.7485" y2="600.2881" gradientTransform="matrix(0 15.4443 -15.4443 0 9287.0186 17910.0449)">
						<stop  offset="0" style="stop-color:#FFFFFF"/>
						<stop  offset="1" style="stop-color:#F3F3F3"/>
					</linearGradient>
					<rect x="1.584" y="2.57" clip-path="url(#SVGID_5_)" fill="url(#SVGID_6_)" width="28.836" height="26.857"/>
				</g>
			</g>
			<path fill="none" stroke="#FAFAFA" stroke-width="0.4351" stroke-linejoin="round" d="M30.42,26.787
				c0,1.455-1.189,2.643-2.648,2.643H4.229c-1.457,0-2.648-1.188-2.648-2.643V5.219c0-1.463,1.191-2.646,2.648-2.646h23.542
				c1.459,0,2.648,1.184,2.648,2.646V26.787z"/>
		</g>
		<g>
			<path d="M16.537,21.248c0.068-0.014,0.148-0.043,0.279-0.043c0.586,0,0.918,0.426,0.918,0.732c0,0.809-0.625,1.141-1.476,1.141
				c-0.557,0-0.969-0.186-0.969-0.465c0-0.17,0.094-0.357,0.279-0.357c0.174,0,0.451,0.107,0.689,0.107
				c0.318,0,0.465-0.094,0.465-0.359c0-0.24-0.199-0.24-0.583-0.24c-0.334,0-0.396-0.186-0.396-0.25
				c0-0.094,0.051-0.215,0.131-0.332l0.305-0.438c-2.414-0.254-3.664-2.471-3.664-4.781c0-2.455,1.408-4.805,4.209-4.805
				c1.672,0,2.733,0.902,2.733,1.379c0,0.307-0.187,0.559-0.478,0.559c-0.532,0-0.797-0.93-2.258-0.93
				c-2.098,0-2.958,1.992-2.958,3.797c0,1.807,0.889,3.797,2.89,3.797c1.423,0,2.048-0.85,2.537-0.85
				c0.279,0,0.466,0.213,0.466,0.545c0,0.57-1.224,1.246-2.787,1.303L16.537,21.248z"/>
		</g>
	</g>
</g>
<g id="Layer_5">
</g>
</svg>
