<?xml version="1.0" encoding="utf-8"?>
<!-- Generator: Adobe Illustrator 16.0.0, SVG Export Plug-In . SVG Version: 6.00 Build 0)  -->
<!DOCTYPE svg PUBLIC "-//W3C//DTD SVG 1.1//EN" "http://www.w3.org/Graphics/SVG/1.1/DTD/svg11.dtd">
<svg version="1.1" id="Layer_1" xmlns="http://www.w3.org/2000/svg" xmlns:xlink="http://www.w3.org/1999/xlink" x="0px" y="0px"
	 width="32px" height="32px" viewBox="0 0 32 32" enable-background="new 0 0 32 32" xml:space="preserve">
<g id="Layer_3" display="none">
</g>
<g id="Layer_2">
</g>
<g id="Layer_1_1_">
</g>
<g id="Language_specific">
	<g>
		<g>
			<g>
				<g>
					<defs>
						<path id="SVGID_1_" d="M4.135,1.559c-1.953,0-3.533,1.582-3.533,3.527v21.828c0,1.951,1.58,3.527,3.533,3.527h23.734
							c1.951,0,3.531-1.576,3.531-3.527V5.086c0-1.945-1.58-3.527-3.531-3.527H4.135z"/>
					</defs>
					<clipPath id="SVGID_2_">
						<use xlink:href="#SVGID_1_"  overflow="visible"/>
					</clipPath>
					
						<linearGradient id="SVGID_3_" gradientUnits="userSpaceOnUse" x1="-1576.5796" y1="700.9258" x2="-1574.8395" y2="700.9258" gradientTransform="matrix(5.8606 19.1691 -19.1691 5.8606 22686.7012 26113.0566)">
						<stop  offset="0" style="stop-color:#FFFFFF"/>
						<stop  offset="1" style="stop-color:#D0D0D0"/>
					</linearGradient>
					<polygon clip-path="url(#SVGID_2_)" fill="url(#SVGID_3_)" points="28.771,-7.037 39.494,27.973 3.232,39.039 -7.488,4.027 
											"/>
				</g>
			</g>
			<path fill="none" stroke="#5C5C5C" stroke-width="0.4351" stroke-linejoin="round" d="M31.402,26.914
				c0,1.953-1.582,3.527-3.531,3.527H4.135c-1.951,0-3.537-1.574-3.537-3.527V5.086c0-1.945,1.586-3.527,3.537-3.527h23.736
				c1.949,0,3.531,1.582,3.531,3.527V26.914z"/>
			<g>
				<g>
					<defs>
						<path id="SVGID_4_" d="M4.23,2.57c-1.459,0-2.646,1.188-2.646,2.648v21.568c0,1.455,1.188,2.641,2.646,2.641h23.542
							c1.463,0,2.647-1.186,2.647-2.641V5.219c0-1.461-1.187-2.648-2.647-2.648L4.23,2.57L4.23,2.57z"/>
					</defs>
					<clipPath id="SVGID_5_">
						<use xlink:href="#SVGID_4_"  overflow="visible"/>
					</clipPath>
					
						<linearGradient id="SVGID_6_" gradientUnits="userSpaceOnUse" x1="-1581.4873" y1="652.8203" x2="-1579.7485" y2="652.8203" gradientTransform="matrix(0 15.4443 -15.4443 0 10098.3496 24427.5391)">
						<stop  offset="0" style="stop-color:#FFFFFF"/>
						<stop  offset="1" style="stop-color:#F3F3F3"/>
					</linearGradient>
					<rect x="1.584" y="2.57" clip-path="url(#SVGID_5_)" fill="url(#SVGID_6_)" width="28.836" height="26.857"/>
				</g>
			</g>
			<path fill="none" stroke="#FAFAFA" stroke-width="0.4351" stroke-linejoin="round" d="M30.42,26.787
				c0,1.455-1.189,2.643-2.648,2.643H4.229c-1.457,0-2.648-1.188-2.648-2.643V5.219c0-1.463,1.191-2.646,2.648-2.646h23.542
				c1.459,0,2.648,1.184,2.648,2.646V26.787z"/>
		</g>
		<g enable-background="new    ">
			<path d="M16.1,6.216c1.02,0,1.742,0.697,1.742,1.283c0,0.196-0.11,0.392-0.34,0.392c-0.553,0-0.264-1.028-1.453-1.028
				c-0.544,0-0.995,0.255-0.995,0.714c0,1.096,3.017,0.978,3.017,2.821c0,0.569-0.391,1.139-0.927,1.437
				c0.375,0.255,0.553,0.578,0.553,1.003c0,0.841-0.935,1.326-1.785,1.317c-1.283-0.018-1.92-0.833-1.92-1.224
				c0-0.307,0.153-0.426,0.374-0.426c0.561,0,0.306,1.003,1.53,1.003c0.681,0,1.054-0.306,1.054-0.68
				c0-1.088-3.127-0.994-3.127-2.805c0-0.756,0.434-1.147,1.037-1.453c-0.391-0.289-0.552-0.527-0.552-0.961
				C14.307,6.726,15.046,6.216,16.1,6.216z M15.624,11.018l0.969,0.477c0.612-0.459,0.731-0.748,0.731-1.071
				c0-0.356-0.077-0.654-0.757-0.969l-1.062-0.493c-0.501,0.213-0.935,0.477-0.935,1.003C14.57,10.406,14.952,10.687,15.624,11.018z
				"/>
		</g>
		<g enable-background="new    ">
			<path d="M13.732,20.328c0-0.305,0.178-0.494,0.462-0.494s0.462,0.189,0.462,0.494v2.96c0,0.956,0.42,1.46,1.292,1.46
				c0.871,0,1.291-0.504,1.291-1.46v-2.96c0-0.305,0.179-0.494,0.462-0.494s0.462,0.189,0.462,0.494v2.992
				c0,1.637-1.092,2.225-2.215,2.225c-1.124,0-2.215-0.588-2.215-2.225V20.328z M15.149,18.522
				c-0.294-0.116-0.368-0.263-0.368-0.389c0-0.157,0.126-0.44,0.399-0.44c0.095,0,0.179,0.021,0.357,0.094l1.208,0.494
				c0.294,0.115,0.367,0.262,0.367,0.388c0,0.157-0.126,0.441-0.399,0.441c-0.094,0-0.178-0.021-0.356-0.095L15.149,18.522z"/>
		</g>
	</g>
</g>
<g id="Layer_5">
</g>
</svg>
