<?xml version="1.0" encoding="utf-8"?>
<!-- Generator: Adobe Illustrator 16.0.0, SVG Export Plug-In . SVG Version: 6.00 Build 0)  -->
<!DOCTYPE svg PUBLIC "-//W3C//DTD SVG 1.1//EN" "http://www.w3.org/Graphics/SVG/1.1/DTD/svg11.dtd">
<svg version="1.1" id="Reference" xmlns="http://www.w3.org/2000/svg" xmlns:xlink="http://www.w3.org/1999/xlink" x="0px" y="0px"
	 width="32px" height="32px" viewBox="0 0 32 32" enable-background="new 0 0 32 32" xml:space="preserve">
<g>
	<g>
		<g>
			<g>
				<defs>
					<path id="SVGID_1_" d="M4.135,1.57c-1.952,0-3.533,1.582-3.533,3.527v21.828c0,1.951,1.581,3.527,3.533,3.527h23.734
						c1.951,0,3.531-1.576,3.531-3.527V5.098c0-1.945-1.58-3.527-3.531-3.527L4.135,1.57L4.135,1.57z"/>
				</defs>
				<clipPath id="SVGID_2_">
					<use xlink:href="#SVGID_1_"  overflow="visible"/>
				</clipPath>
				
					<linearGradient id="SVGID_3_" gradientUnits="userSpaceOnUse" x1="-360.8428" y1="1569.6055" x2="-359.1026" y2="1569.6055" gradientTransform="matrix(5.8606 19.1691 -19.1691 5.8606 32213.5605 -2282.5063)">
					<stop  offset="0" style="stop-color:#FFFFFF"/>
					<stop  offset="1" style="stop-color:#D0D0D0"/>
				</linearGradient>
				<polygon clip-path="url(#SVGID_2_)" fill="url(#SVGID_3_)" points="28.771,-7.025 39.494,27.984 3.232,39.051 -7.488,4.039 				
					"/>
			</g>
		</g>
		<path fill="none" stroke="#5C5C5C" stroke-width="0.4351" stroke-linejoin="round" d="M31.402,26.926
			c0,1.953-1.582,3.527-3.531,3.527H4.136c-1.951,0-3.538-1.574-3.538-3.527V5.098c0-1.945,1.587-3.527,3.538-3.527h23.735
			c1.949,0,3.531,1.582,3.531,3.527V26.926z"/>
		<g>
			<g>
				<defs>
					<path id="SVGID_4_" d="M4.23,2.582c-1.459,0-2.646,1.188-2.646,2.648v21.568c0,1.455,1.188,2.642,2.646,2.642h23.542
						c1.463,0,2.648-1.187,2.648-2.642V5.23c0-1.461-1.188-2.648-2.648-2.648H4.23z"/>
				</defs>
				<clipPath id="SVGID_5_">
					<use xlink:href="#SVGID_4_"  overflow="visible"/>
				</clipPath>
				
					<linearGradient id="SVGID_6_" gradientUnits="userSpaceOnUse" x1="-334.6875" y1="1530.1953" x2="-332.9482" y2="1530.1953" gradientTransform="matrix(0 15.4443 -15.4443 0 23648.7871 5171.6016)">
					<stop  offset="0" style="stop-color:#FFFFFF"/>
					<stop  offset="1" style="stop-color:#F3F3F3"/>
				</linearGradient>
				<rect x="1.584" y="2.582" clip-path="url(#SVGID_5_)" fill="url(#SVGID_6_)" width="28.837" height="26.857"/>
			</g>
		</g>
		<path fill="none" stroke="#FAFAFA" stroke-width="0.4351" stroke-linejoin="round" d="M30.421,26.799
			c0,1.455-1.19,2.643-2.647,2.643H4.229c-1.457,0-2.647-1.188-2.647-2.643V5.23c0-1.463,1.19-2.646,2.647-2.646h23.544
			c1.457,0,2.647,1.184,2.647,2.646V26.799z"/>
	</g>
	<path d="M11.42,6.72c0.136-0.385,0.236-0.708,0.672-0.708c0.296,0,0.482,0.225,0.482,0.449c0,0.149-0.022,0.273-0.076,0.422
		l-2.694,7.532c-0.123,0.359-0.259,0.597-0.635,0.597c-0.371,0-0.505-0.237-0.633-0.597L5.837,6.883
		C5.791,6.734,5.763,6.61,5.763,6.461c0-0.225,0.189-0.449,0.485-0.449c0.436,0,0.534,0.323,0.672,0.708l2.236,6.452h0.025
		L11.42,6.72z"/>
	<g enable-background="new    ">
		<path d="M25.337,23.205c-0.056-1.056-0.124-2.324-0.112-3.268h-0.033c-0.259,0.887-0.573,1.842-0.955,2.875L22.9,26.484h-0.742
			l-1.224-3.605c-0.359-1.066-0.663-2.043-0.876-2.941h-0.022c-0.022,0.943-0.079,2.212-0.146,3.346l-0.203,3.246h-0.932
			l0.527-7.569h1.247l1.292,3.661c0.314,0.932,0.572,1.764,0.764,2.549h0.033c0.191-0.764,0.461-1.594,0.797-2.549l1.348-3.661
			h1.247l0.472,7.569h-0.955L25.337,23.205z"/>
	</g>
</g>
</svg>
