<?xml version="1.0" encoding="utf-8"?>
<!-- Generator: Adobe Illustrator 16.0.4, SVG Export Plug-In . SVG Version: 6.00 Build 0)  -->
<!DOCTYPE svg PUBLIC "-//W3C//DTD SVG 1.1//EN" "http://www.w3.org/Graphics/SVG/1.1/DTD/svg11.dtd">
<svg version="1.1" xmlns="http://www.w3.org/2000/svg" xmlns:xlink="http://www.w3.org/1999/xlink" x="0px" y="0px" width="32px"
	 height="32px" viewBox="0 0 32 32" enable-background="new 0 0 32 32" xml:space="preserve">
<g id="Layer_3" display="none">
</g>
<g id="Layer_2">
</g>
<g id="Layer_1">
</g>
<g id="Language_specific">
	<g>
		<g>
			<g>
				<defs>
					<path id="SVGID_1849_" d="M4.816,4.201c-2.33,0-4.219,1.889-4.219,4.223v15.16c0,2.322,1.889,4.215,4.219,4.215h22.365
						c2.332,0,4.221-1.893,4.221-4.215V8.424c0-2.334-1.889-4.223-4.221-4.223H4.816z"/>
				</defs>
				<clipPath id="SVGID_2_">
					<use xlink:href="#SVGID_1849_"  overflow="visible"/>
				</clipPath>
				
					<linearGradient id="SVGID_3_" gradientUnits="userSpaceOnUse" x1="-1009.3403" y1="-613.1816" x2="-1007.1345" y2="-613.1816" gradientTransform="matrix(4.3973 14.3829 14.3829 -4.3973 13268.8184 11820.9287)">
					<stop  offset="0" style="stop-color:#FFFFFF"/>
					<stop  offset="1" style="stop-color:#D0D0D0"/>
				</linearGradient>
				<polygon clip-path="url(#SVGID_2_)" fill="url(#SVGID_3_)" points="27.451,-6.129 38,25.781 3.818,38.129 -6,6.221 				"/>
			</g>
			<path fill="none" stroke="#5C5C5C" stroke-width="0.5198" stroke-linejoin="round" d="M31.402,23.582
				c0,2.324-1.891,4.217-4.217,4.217H4.814c-2.33,0-4.217-1.893-4.217-4.217V8.424c0-2.336,1.887-4.217,4.217-4.217h22.371
				c2.326,0,4.217,1.881,4.217,4.217V23.582z"/>
			<g>
				<defs>
					<path id="SVGID_1852_" d="M4.926,5.416c-1.742,0-3.156,1.418-3.156,3.164v14.84c0,1.742,1.414,3.164,3.156,3.164h22.141
						c1.744,0,3.16-1.422,3.16-3.164V8.58c0-1.746-1.416-3.164-3.16-3.164H4.926z"/>
				</defs>
				<clipPath id="SVGID_5_">
					<use xlink:href="#SVGID_1852_"  overflow="visible"/>
				</clipPath>
				
					<linearGradient id="SVGID_6_" gradientUnits="userSpaceOnUse" x1="-999.2559" y1="-561.3174" x2="-997.1772" y2="-561.3174" gradientTransform="matrix(0 10.1826 10.1826 0 5731.6719 10180.4385)">
					<stop  offset="0" style="stop-color:#FFFFFF"/>
					<stop  offset="1" style="stop-color:#F3F3F3"/>
				</linearGradient>
				<rect x="1.77" y="5.416" clip-path="url(#SVGID_5_)" fill="url(#SVGID_6_)" width="28.457" height="21.168"/>
			</g>
			<path fill="none" stroke="#FAFAFA" stroke-width="0.5198" stroke-linejoin="round" d="M30.227,23.424
				c0,1.742-1.416,3.16-3.162,3.16H4.93c-1.742,0-3.162-1.418-3.162-3.16V8.58c0-1.746,1.42-3.166,3.162-3.166h22.135
				c1.746,0,3.162,1.42,3.162,3.166V23.424z"/>
		</g>
		<g>
			<path d="M17.019,17.305l-4.272-2.82c-0.306-0.201-0.394-0.613-0.191-0.918c0.207-0.305,0.612-0.393,0.918-0.186l6.898,4.547
				l-6.854,4.625c-0.114,0.08-0.243,0.113-0.37,0.113c-0.212,0-0.422-0.102-0.549-0.293c-0.206-0.299-0.126-0.711,0.174-0.918
				l4.19-2.826H3.92v-1.324H17.019z"/>
			<rect x="21.414" y="11.77" width="1.324" height="12.396"/>
		</g>
	</g>
</g>
<g id="Layer_5">
</g>
</svg>
