<?xml version="1.0" encoding="utf-8"?>
<!-- Generator: Adobe Illustrator 16.0.4, SVG Export Plug-In . SVG Version: 6.00 Build 0)  -->
<!DOCTYPE svg PUBLIC "-//W3C//DTD SVG 1.1//EN" "http://www.w3.org/Graphics/SVG/1.1/DTD/svg11.dtd">
<svg version="1.1" xmlns="http://www.w3.org/2000/svg" xmlns:xlink="http://www.w3.org/1999/xlink" x="0px" y="0px" width="74px"
	 height="32px" viewBox="0 0 74 32" enable-background="new 0 0 74 32" xml:space="preserve">
<g id="Layer_3" display="none">
</g>
<g id="Layer_2">
</g>
<g id="Layer_1">
	<g>
		<g>
			<g>
				<defs>
					<path id="SVGID_1693_" d="M4.816,4.201c-2.33,0-4.219,1.889-4.219,4.223v15.16c0,2.322,1.889,4.215,4.219,4.215h22.365
						c2.332,0,4.221-1.893,4.221-4.215V8.424c0-2.334-1.889-4.223-4.221-4.223H4.816z"/>
				</defs>
				<clipPath id="SVGID_2_">
					<use xlink:href="#SVGID_1693_"  overflow="visible"/>
				</clipPath>
				
					<linearGradient id="SVGID_3_" gradientUnits="userSpaceOnUse" x1="14.1035" y1="-753.6641" x2="16.3094" y2="-753.6641" gradientTransform="matrix(4.3973 14.3829 14.3829 -4.3973 10788.9756 -3516.9062)">
					<stop  offset="0" style="stop-color:#FFFFFF"/>
					<stop  offset="1" style="stop-color:#D0D0D0"/>
				</linearGradient>
				<polygon clip-path="url(#SVGID_2_)" fill="url(#SVGID_3_)" points="27.451,-6.129 38,25.781 3.818,38.129 -6,6.221 				"/>
			</g>
			<path fill="none" stroke="#5C5C5C" stroke-width="0.5198" stroke-linejoin="round" d="M31.402,23.582
				c0,2.324-1.891,4.217-4.217,4.217H4.814c-2.33,0-4.217-1.893-4.217-4.217V8.424c0-2.336,1.887-4.217,4.217-4.217h22.371
				c2.326,0,4.217,1.881,4.217,4.217V23.582z"/>
			<g>
				<defs>
					<path id="SVGID_1696_" d="M4.926,5.416c-1.742,0-3.156,1.418-3.156,3.164v14.84c0,1.742,1.414,3.164,3.156,3.164h22.141
						c1.744,0,3.16-1.422,3.16-3.164V8.58c0-1.746-1.416-3.164-3.16-3.164H4.926z"/>
				</defs>
				<clipPath id="SVGID_5_">
					<use xlink:href="#SVGID_1696_"  overflow="visible"/>
				</clipPath>
				
					<linearGradient id="SVGID_6_" gradientUnits="userSpaceOnUse" x1="46.9131" y1="-736.3545" x2="48.9922" y2="-736.3545" gradientTransform="matrix(0 10.1826 10.1826 0 7514.001 -472.2825)">
					<stop  offset="0" style="stop-color:#FFFFFF"/>
					<stop  offset="1" style="stop-color:#F3F3F3"/>
				</linearGradient>
				<rect x="1.77" y="5.416" clip-path="url(#SVGID_5_)" fill="url(#SVGID_6_)" width="28.457" height="21.168"/>
			</g>
			<path fill="none" stroke="#FAFAFA" stroke-width="0.5198" stroke-linejoin="round" d="M30.227,23.424
				c0,1.742-1.416,3.16-3.162,3.16H4.93c-1.742,0-3.162-1.418-3.162-3.16V8.58c0-1.746,1.42-3.166,3.162-3.166h22.135
				c1.746,0,3.162,1.42,3.162,3.166V23.424z"/>
		</g>
		<g>
			<path d="M4.008,18.645c0-0.293,0.171-0.477,0.444-0.477c0.274,0,0.446,0.184,0.446,0.477v0.457h0.022
				c0.202-0.416,0.696-0.934,1.21-0.934c0.315,0,0.496,0.203,0.496,0.459c0,0.25-0.181,0.412-0.556,0.482
				c-0.526,0.092-1.173,0.486-1.173,1.529v2.559c0,0.293-0.172,0.477-0.446,0.477c-0.273,0-0.444-0.184-0.444-0.477V18.645z"/>
			<path d="M7.761,21.264c0,0.922,0.586,1.641,1.59,1.641c1.185,0,1.484-0.729,1.82-0.729c0.164,0,0.324,0.143,0.324,0.396
				c0,0.434-1.104,1.1-2.154,1.1c-1.72,0-2.471-1.322-2.471-2.75c0-1.459,0.911-2.75,2.418-2.75c1.468,0,2.318,1.324,2.318,2.619
				c0,0.312-0.111,0.473-0.497,0.473H7.761z M10.717,20.598c0-0.77-0.445-1.66-1.429-1.66c-1.102-0.037-1.497,0.84-1.527,1.66
				H10.717z"/>
			<path d="M12.743,17.07c0-0.295,0.17-0.479,0.444-0.479c0.272,0,0.445,0.184,0.445,0.479v1.158h0.363
				c0.294,0,0.447,0.145,0.447,0.385c0,0.248-0.153,0.387-0.447,0.387h-0.363v4.197c0,0.293-0.173,0.475-0.445,0.475
				c-0.274,0-0.444-0.182-0.444-0.475V19h-0.368c-0.289,0-0.442-0.139-0.442-0.387c0-0.24,0.153-0.385,0.442-0.385h0.368V17.07z"/>
			<path d="M15.091,18.645c0-0.293,0.172-0.477,0.445-0.477c0.271,0,0.443,0.184,0.443,0.477v2.854c0,0.922,0.405,1.404,1.244,1.404
				c0.841,0,1.247-0.482,1.247-1.404v-2.854c0-0.293,0.17-0.477,0.446-0.477c0.271,0,0.443,0.184,0.443,0.477v2.883
				c0,1.578-1.055,2.146-2.137,2.146c-1.081,0-2.133-0.568-2.133-2.146V18.645z"/>
			<path d="M20.536,18.645c0-0.293,0.172-0.477,0.445-0.477s0.444,0.184,0.444,0.477v0.457h0.021
				c0.202-0.416,0.696-0.934,1.212-0.934c0.315,0,0.497,0.203,0.497,0.459c0,0.25-0.182,0.412-0.559,0.482
				c-0.524,0.092-1.172,0.486-1.172,1.529v2.559c0,0.293-0.171,0.477-0.444,0.477s-0.445-0.184-0.445-0.477V18.645z"/>
			<path d="M23.724,18.645c0-0.293,0.172-0.477,0.445-0.477c0.271,0,0.445,0.184,0.445,0.477v0.213l0.021,0.02
				c0.395-0.506,0.948-0.709,1.485-0.709c0.831,0,1.872,0.525,1.872,2.047v2.982c0,0.293-0.171,0.477-0.446,0.477
				c-0.272,0-0.446-0.184-0.446-0.477v-2.934c0-0.941-0.657-1.324-1.243-1.324s-1.242,0.383-1.242,1.324v2.934
				c0,0.293-0.174,0.477-0.445,0.477c-0.273,0-0.445-0.184-0.445-0.477V18.645z"/>
		</g>
	</g>
</g>
<g id="Language_specific">
	<g>
		<g>
			<g>
				<defs>
					<path id="SVGID_1891_" d="M48.188,0.232c-1.943,0-3.516,1.576-3.516,3.516V14.51c0,1.949,1.572,3.518,3.516,3.518h2.053v10.227
						c0,1.947,1.572,3.514,3.516,3.514h14.057c1.941,0,3.516-1.566,3.516-3.514V25.51V25.15V3.748c0-1.939-1.574-3.516-3.516-3.516
						H48.188z"/>
				</defs>
				<clipPath id="SVGID_8_">
					<use xlink:href="#SVGID_1891_"  overflow="visible"/>
				</clipPath>
				
					<linearGradient id="SVGID_9_" gradientUnits="userSpaceOnUse" x1="-24.4312" y1="-745.9121" x2="-23.0609" y2="-745.9121" gradientTransform="matrix(11.3825 37.2305 37.2305 -11.3825 28098.25 -7592.2461)">
					<stop  offset="0" style="stop-color:#FFFFFF"/>
					<stop  offset="1" style="stop-color:#CFCFCF"/>
				</linearGradient>
				<polygon clip-path="url(#SVGID_8_)" fill="url(#SVGID_9_)" points="70.707,-8.34 87.453,33.381 45.791,36.84 27.047,-5.381 				
					"/>
			</g>
			<path fill="none" stroke="#5C5C5C" stroke-width="0.4334" stroke-linejoin="round" d="M67.812,0.232H48.188
				c-1.943,0-3.516,1.576-3.516,3.516V14.51c0,1.947,1.572,3.518,3.516,3.518h2.053v10.225c0,1.947,1.572,3.516,3.516,3.516h14.057
				c1.941,0,3.516-1.568,3.516-3.516V25.51V25.15V3.748C71.328,1.809,69.754,0.232,67.812,0.232z"/>
			<g>
				<defs>
					<path id="SVGID_1894_" d="M48.287,1.242c-1.459,0-2.639,1.18-2.639,2.639v10.504c0,1.451,1.18,2.633,2.639,2.633h2.932v11.109
						c0,1.449,1.18,2.631,2.635,2.631h13.859c1.455,0,2.639-1.182,2.639-2.631v-2.742v-0.574V3.881c0-1.459-1.184-2.639-2.639-2.639
						H48.287z"/>
				</defs>
				<clipPath id="SVGID_11_">
					<use xlink:href="#SVGID_1894_"  overflow="visible"/>
				</clipPath>
				
					<linearGradient id="SVGID_12_" gradientUnits="userSpaceOnUse" x1="-18.8003" y1="-740.1748" x2="-17.9575" y2="-740.1748" gradientTransform="matrix(0 35.1938 35.1938 0 26107.5547 662.8926)">
					<stop  offset="0" style="stop-color:#FFFFFF"/>
					<stop  offset="1" style="stop-color:#F2F2F2"/>
				</linearGradient>
				<polygon clip-path="url(#SVGID_11_)" fill="url(#SVGID_12_)" points="70.352,1.242 70.352,30.758 45.648,30.9 45.648,1.242 				
					"/>
			</g>
			<path fill="none" stroke="#FAFAFA" stroke-width="0.4334" stroke-linejoin="round" d="M67.711,1.242H48.285
				c-1.455,0-2.637,1.182-2.637,2.639v10.504c0,1.451,1.182,2.633,2.637,2.633h2.934v11.109c0,1.451,1.18,2.633,2.635,2.633h13.857
				c1.457,0,2.643-1.182,2.643-2.633v-2.742v-0.572V3.881C70.354,2.424,69.168,1.242,67.711,1.242z"/>
		</g>
		<path d="M66.567,8.152c-0.087,0-2.97,0-2.986,0c-0.225,0-0.412,0.186-0.412,0.412c0,0.229,0.188,0.412,0.412,0.412
			c1.718,0,2.571,0,2.989-0.053v0.053c0.37,0,0.673,0.301,0.673,0.674v2.805c0,0.369-0.303,0.672-0.673,0.672h-9.482l2.66-1.754
			c0.19-0.127,0.242-0.381,0.117-0.57c-0.126-0.191-0.381-0.244-0.57-0.117l-4.29,2.83l4.265,2.877
			c0.067,0.047,0.147,0.07,0.228,0.07c0.133,0,0.261-0.064,0.341-0.182c0.129-0.189,0.078-0.443-0.109-0.572l-2.605-1.758h9.447
			c0.828,0,1.497-0.67,1.497-1.496V9.65C68.067,8.824,67.398,8.152,66.567,8.152"/>
	</g>
	<line fill="none" stroke="#FFFFFF" stroke-miterlimit="10" x1="39.5" y1="1" x2="33.5" y2="30.062"/>
	<line fill="none" stroke="#000000" stroke-miterlimit="10" x1="40.5" y1="1" x2="34.5" y2="31"/>
</g>
<g id="Layer_5">
</g>
</svg>
