<?xml version="1.0" encoding="utf-8"?>
<!-- Generator: Adobe Illustrator 16.0.4, SVG Export Plug-In . SVG Version: 6.00 Build 0)  -->
<!DOCTYPE svg PUBLIC "-//W3C//DTD SVG 1.1//EN" "http://www.w3.org/Graphics/SVG/1.1/DTD/svg11.dtd">
<svg version="1.1" id="Reference" xmlns="http://www.w3.org/2000/svg" xmlns:xlink="http://www.w3.org/1999/xlink" x="0px" y="0px"
	 width="32px" height="32px" viewBox="0 0 32 32" enable-background="new 0 0 32 32" xml:space="preserve">
<g>
	<g>
		<defs>
			<path id="SVGID_769_" d="M4.135,1.546c-1.952,0-3.533,1.582-3.533,3.527v21.828c0,1.951,1.581,3.527,3.533,3.527h23.734
				c1.952,0,3.532-1.576,3.532-3.527V5.073c0-1.945-1.58-3.527-3.532-3.527H4.135z"/>
		</defs>
		<clipPath id="SVGID_2_">
			<use xlink:href="#SVGID_769_"  overflow="visible"/>
		</clipPath>
		
			<linearGradient id="SVGID_3_" gradientUnits="userSpaceOnUse" x1="-412.9736" y1="-1303.6973" x2="-411.2335" y2="-1303.6973" gradientTransform="matrix(5.8606 19.1691 19.1691 -5.8606 27421.8613 275.147)">
			<stop  offset="0" style="stop-color:#FFFFFF"/>
			<stop  offset="1" style="stop-color:#D0D0D0"/>
		</linearGradient>
		<polygon clip-path="url(#SVGID_2_)" fill="url(#SVGID_3_)" points="28.771,-7.05 39.494,27.96 3.232,39.026 -7.488,4.015 		"/>
	</g>
	<path fill="none" stroke="#5C5C5C" stroke-width="0.4351" stroke-linejoin="round" d="M31.403,26.901
		c0,1.953-1.582,3.527-3.532,3.527H4.136c-1.951,0-3.538-1.574-3.538-3.527V5.073c0-1.945,1.587-3.527,3.538-3.527h23.735
		c1.95,0,3.532,1.582,3.532,3.527V26.901z"/>
	<g>
		<defs>
			<path id="SVGID_772_" d="M4.23,2.558c-1.459,0-2.646,1.188-2.646,2.648v21.568c0,1.455,1.188,2.641,2.646,2.641h23.542
				c1.462,0,2.648-1.186,2.648-2.641V5.206c0-1.461-1.187-2.648-2.648-2.648H4.23z"/>
		</defs>
		<clipPath id="SVGID_5_">
			<use xlink:href="#SVGID_772_"  overflow="visible"/>
		</clipPath>
		
			<linearGradient id="SVGID_6_" gradientUnits="userSpaceOnUse" x1="-393.7397" y1="-1275.6729" x2="-392.001" y2="-1275.6729" gradientTransform="matrix(0 15.4443 15.4443 0 19717.8809 6083.5991)">
			<stop  offset="0" style="stop-color:#FFFFFF"/>
			<stop  offset="1" style="stop-color:#F3F3F3"/>
		</linearGradient>
		<rect x="1.584" y="2.558" clip-path="url(#SVGID_5_)" fill="url(#SVGID_6_)" width="28.837" height="26.857"/>
	</g>
	<path fill="none" stroke="#FAFAFA" stroke-width="0.4351" stroke-linejoin="round" d="M30.421,26.774
		c0,1.455-1.19,2.643-2.648,2.643H4.229c-1.457,0-2.647-1.188-2.647-2.643V5.206c0-1.463,1.19-2.646,2.647-2.646h23.544
		c1.458,0,2.648,1.184,2.648,2.646V26.774z"/>
</g>
<g>
	<g>
		<defs>
			<path id="SVGID_775_" d="M36.135,1.546c-1.952,0-3.533,1.582-3.533,3.527v21.828c0,1.951,1.581,3.527,3.533,3.527h23.734
				c1.952,0,3.532-1.576,3.532-3.527V5.073c0-1.945-1.58-3.527-3.532-3.527H36.135z"/>
		</defs>
		<clipPath id="SVGID_8_">
			<use xlink:href="#SVGID_775_"  overflow="visible"/>
		</clipPath>
		
			<linearGradient id="SVGID_9_" gradientUnits="userSpaceOnUse" x1="-412.5068" y1="-1302.1709" x2="-410.7667" y2="-1302.1709" gradientTransform="matrix(5.8606 19.1691 19.1691 -5.8606 27421.8613 275.147)">
			<stop  offset="0" style="stop-color:#FFFFFF"/>
			<stop  offset="1" style="stop-color:#D0D0D0"/>
		</linearGradient>
		<polygon clip-path="url(#SVGID_8_)" fill="url(#SVGID_9_)" points="60.771,-7.05 71.494,27.96 35.232,39.026 24.512,4.015 		"/>
	</g>
</g>
<g>
	<g>
		<defs>
			<path id="SVGID_841_" d="M-27.865,1.546c-1.952,0-3.533,1.582-3.533,3.527v21.828c0,1.951,1.581,3.527,3.533,3.527h23.734
				c1.952,0,3.532-1.576,3.532-3.527V5.073c0-1.945-1.58-3.527-3.532-3.527H-27.865z"/>
		</defs>
		<clipPath id="SVGID_11_">
			<use xlink:href="#SVGID_841_"  overflow="visible"/>
		</clipPath>
		
			<linearGradient id="SVGID_12_" gradientUnits="userSpaceOnUse" x1="-413.4399" y1="-1305.2246" x2="-411.7003" y2="-1305.2246" gradientTransform="matrix(5.8606 19.1691 19.1691 -5.8606 27421.8613 275.147)">
			<stop  offset="0" style="stop-color:#FFFFFF"/>
			<stop  offset="1" style="stop-color:#D0D0D0"/>
		</linearGradient>
		<polygon clip-path="url(#SVGID_11_)" fill="url(#SVGID_12_)" points="-3.229,-7.05 7.494,27.96 -28.768,39.026 -39.488,4.015 		
			"/>
	</g>
</g>
<path d="M14.08,19.732c-0.239,0-0.433-0.193-0.433-0.432c0-0.24,0.193-0.436,0.433-0.436h4.124c0.311,0,0.512,0.08,0.512,0.318
	c0,0.16-0.069,0.32-0.191,0.605l-3.039,6.91c-0.136,0.32-0.387,0.365-0.605,0.365c-0.136,0-0.375-0.125-0.375-0.387
	c0-0.082,0.036-0.24,0.16-0.539l2.841-6.383v-0.023H14.08z"/>
<path d="M16.191,6.102c0.379,0,0.689,0.309,0.689,0.688c0,0.381-0.311,0.691-0.689,0.691s-0.689-0.311-0.689-0.691
	C15.502,6.41,15.812,6.102,16.191,6.102 M16.191,10.641c0.379,0,0.689,0.311,0.689,0.691c0,0.377-0.311,0.688-0.689,0.688
	s-0.689-0.311-0.689-0.688C15.502,10.951,15.812,10.641,16.191,10.641"/>
</svg>
