<?xml version="1.0" encoding="utf-8"?>
<!-- Generator: Adobe Illustrator 16.0.4, SVG Export Plug-In . SVG Version: 6.00 Build 0)  -->
<!DOCTYPE svg PUBLIC "-//W3C//DTD SVG 1.1//EN" "http://www.w3.org/Graphics/SVG/1.1/DTD/svg11.dtd">
<svg version="1.1" xmlns="http://www.w3.org/2000/svg" xmlns:xlink="http://www.w3.org/1999/xlink" x="0px" y="0px" width="26px"
	 height="32px" viewBox="0 0 26 32" enable-background="new 0 0 26 32" xml:space="preserve">
<g id="Layer_3" display="none">
</g>
<g id="Layer_2">
	<g display="none">
		<g display="inline">
			<defs>
				<path id="SVGID_829_" d="M-12.183-27.799c-2.331,0-4.22,1.889-4.22,4.223v15.16c0,2.322,1.889,4.215,4.22,4.215h22.365
					c2.331,0,4.221-1.893,4.221-4.215v-15.16c0-2.334-1.89-4.223-4.221-4.223H-12.183z"/>
			</defs>
			<clipPath id="SVGID_2_">
				<use xlink:href="#SVGID_829_"  overflow="visible"/>
			</clipPath>
			
				<linearGradient id="SVGID_3_" gradientUnits="userSpaceOnUse" x1="-633.209" y1="-638.1836" x2="-631.0031" y2="-638.1836" gradientTransform="matrix(4.3973 14.3829 14.3829 -4.3973 11957.46 6269.1299)">
				<stop  offset="0" style="stop-color:#FFFFFF"/>
				<stop  offset="1" style="stop-color:#D0CFD0"/>
			</linearGradient>
			<polygon clip-path="url(#SVGID_2_)" fill="url(#SVGID_3_)" points="10.452,-38.129 21,-6.219 -13.181,6.129 -23,-25.779 			"/>
		</g>
	</g>
	<g display="none">
		<g display="inline">
			<defs>
				<path id="SVGID_835_" d="M19.817-27.799c-2.331,0-4.22,1.889-4.22,4.223v15.16c0,2.322,1.889,4.215,4.22,4.215h22.365
					c2.331,0,4.221-1.893,4.221-4.215v-15.16c0-2.334-1.89-4.223-4.221-4.223H19.817z"/>
			</defs>
			<clipPath id="SVGID_5_">
				<use xlink:href="#SVGID_835_"  overflow="visible"/>
			</clipPath>
			
				<linearGradient id="SVGID_6_" gradientUnits="userSpaceOnUse" x1="-632.5869" y1="-636.1484" x2="-630.381" y2="-636.1484" gradientTransform="matrix(4.3973 14.3829 14.3829 -4.3973 11957.46 6269.1299)">
				<stop  offset="0" style="stop-color:#FFFFFF"/>
				<stop  offset="1" style="stop-color:#D0CFD0"/>
			</linearGradient>
			<polygon clip-path="url(#SVGID_5_)" fill="url(#SVGID_6_)" points="42.452,-38.129 53,-6.219 18.819,6.129 9,-25.779 			"/>
		</g>
	</g>
</g>
<g id="Layer_1">
</g>
<g id="Language_specific">
	<g>
		<g>
			<g>
				<defs>
					<path id="SVGID_1813_" d="M24.799,4.816c0-2.33-1.889-4.219-4.223-4.219H5.416c-2.322,0-4.215,1.889-4.215,4.219v22.365
						c0,2.332,1.893,4.221,4.215,4.221h15.16c2.334,0,4.223-1.889,4.223-4.221V4.816z"/>
				</defs>
				<clipPath id="SVGID_8_">
					<use xlink:href="#SVGID_1813_"  overflow="visible"/>
				</clipPath>
				
					<linearGradient id="SVGID_9_" gradientUnits="userSpaceOnUse" x1="-644.377" y1="-628.1602" x2="-642.1711" y2="-628.1602" gradientTransform="matrix(-14.3829 4.3973 4.3973 14.3829 -6476.8408 11879.3818)">
					<stop  offset="0" style="stop-color:#FFFFFF"/>
					<stop  offset="1" style="stop-color:#D0D0D0"/>
				</linearGradient>
				<polygon clip-path="url(#SVGID_8_)" fill="url(#SVGID_9_)" points="35.129,27.451 3.219,38 -9.129,3.818 22.779,-6 				"/>
			</g>
			<path fill="none" stroke="#5C5C5C" stroke-width="0.5198" stroke-linejoin="round" d="M5.418,31.402
				c-2.324,0-4.217-1.891-4.217-4.217V4.814c0-2.33,1.893-4.217,4.217-4.217h15.158c2.336,0,4.217,1.887,4.217,4.217v22.371
				c0,2.326-1.881,4.217-4.217,4.217H5.418z"/>
			<g>
				<defs>
					<path id="SVGID_1816_" d="M23.584,4.926c0-1.742-1.418-3.156-3.164-3.156H5.58c-1.742,0-3.164,1.414-3.164,3.156v22.141
						c0,1.744,1.422,3.16,3.164,3.16h14.84c1.746,0,3.164-1.416,3.164-3.16V4.926z"/>
				</defs>
				<clipPath id="SVGID_11_">
					<use xlink:href="#SVGID_1816_"  overflow="visible"/>
				</clipPath>
				
					<linearGradient id="SVGID_12_" gradientUnits="userSpaceOnUse" x1="-635.4639" y1="-592.9551" x2="-635.4639" y2="-590.1602" gradientTransform="matrix(-10.1826 0 0 10.1826 -6457.6743 6039.5938)">
					<stop  offset="0" style="stop-color:#FFFFFF"/>
					<stop  offset="1" style="stop-color:#F3F3F3"/>
				</linearGradient>
				<rect x="2.416" y="1.77" clip-path="url(#SVGID_11_)" fill="url(#SVGID_12_)" width="21.168" height="28.457"/>
			</g>
			<path fill="none" stroke="#FAFAFA" stroke-width="0.5198" stroke-linejoin="round" d="M5.576,30.227
				c-1.742,0-3.16-1.416-3.16-3.162V4.93c0-1.742,1.418-3.162,3.16-3.162H20.42c1.746,0,3.166,1.42,3.166,3.162v22.135
				c0,1.746-1.42,3.162-3.166,3.162H5.576z"/>
		</g>
		<g>
			<polygon points="11.627,20.873 11.627,22.17 21.832,22.158 21.832,20.85 			"/>
			<polygon points="13.209,28.479 14.53,28.492 16.689,24.775 18.792,28.492 20.157,28.504 16.677,22.486 			"/>
			<polygon points="11.627,20.873 11.627,22.17 21.832,22.158 21.832,20.85 			"/>
			<polygon points="13.209,28.479 14.53,28.492 16.689,24.775 18.792,28.492 20.157,28.504 16.677,22.486 			"/>
		</g>
	</g>
</g>
<g id="Layer_5">
</g>
</svg>
