<?xml version="1.0" encoding="utf-8"?>
<!-- Generator: Adobe Illustrator 16.0.4, SVG Export Plug-In . SVG Version: 6.00 Build 0)  -->
<!DOCTYPE svg PUBLIC "-//W3C//DTD SVG 1.1//EN" "http://www.w3.org/Graphics/SVG/1.1/DTD/svg11.dtd">
<svg version="1.1" xmlns="http://www.w3.org/2000/svg" xmlns:xlink="http://www.w3.org/1999/xlink" x="0px" y="0px" width="32px"
	 height="32px" viewBox="0 0 32 32" enable-background="new 0 0 32 32" xml:space="preserve">
<g id="Layer_3" display="none">
</g>
<g id="Layer_2">
	<g>
		<g>
			<defs>
				<path id="SVGID_5977_" d="M4.134,1.559c-1.952,0-3.533,1.582-3.533,3.527v21.828c0,1.951,1.581,3.527,3.533,3.527h23.734
					c1.952,0,3.532-1.576,3.532-3.527V5.086c0-1.945-1.58-3.527-3.532-3.527H4.134z"/>
			</defs>
			<clipPath id="SVGID_2_">
				<use xlink:href="#SVGID_5977_"  overflow="visible"/>
			</clipPath>
			
				<linearGradient id="SVGID_3_" gradientUnits="userSpaceOnUse" x1="29.4927" y1="-677.2627" x2="31.2333" y2="-677.2627" gradientTransform="matrix(5.8606 19.1691 19.1691 -5.8606 12820.5488 -4535.2363)">
				<stop  offset="0" style="stop-color:#FFFFFF"/>
				<stop  offset="1" style="stop-color:#D0D0D0"/>
			</linearGradient>
			<polygon clip-path="url(#SVGID_2_)" fill="url(#SVGID_3_)" points="28.771,-7.037 39.494,27.973 3.232,39.039 -7.489,4.027 			
				"/>
		</g>
		<path fill="none" stroke="#5C5C5C" stroke-width="0.4351" stroke-linejoin="round" d="M31.403,26.914
			c0,1.953-1.582,3.527-3.532,3.527H4.135c-1.951,0-3.538-1.574-3.538-3.527V5.086c0-1.945,1.587-3.527,3.538-3.527h23.735
			c1.95,0,3.532,1.582,3.532,3.527V26.914z"/>
		<g>
			<defs>
				<path id="SVGID_5980_" d="M4.23,2.57c-1.459,0-2.646,1.188-2.646,2.648v21.568c0,1.455,1.188,2.641,2.646,2.641h23.542
					c1.462,0,2.648-1.186,2.648-2.641V5.219c0-1.461-1.187-2.648-2.648-2.648H4.23z"/>
			</defs>
			<clipPath id="SVGID_5_">
				<use xlink:href="#SVGID_5980_"  overflow="visible"/>
			</clipPath>
			
				<linearGradient id="SVGID_6_" gradientUnits="userSpaceOnUse" x1="44.8218" y1="-666.752" x2="46.5605" y2="-666.752" gradientTransform="matrix(0 15.4443 15.4443 0 10313.5293 -689.665)">
				<stop  offset="0" style="stop-color:#FFFFFF"/>
				<stop  offset="1" style="stop-color:#F3F3F3"/>
			</linearGradient>
			<rect x="1.583" y="2.57" clip-path="url(#SVGID_5_)" fill="url(#SVGID_6_)" width="28.837" height="26.857"/>
		</g>
		<path fill="none" stroke="#FAFAFA" stroke-width="0.4351" stroke-linejoin="round" d="M30.42,26.787
			c0,1.455-1.19,2.643-2.648,2.643H4.228c-1.457,0-2.647-1.188-2.647-2.643V5.219c0-1.463,1.19-2.646,2.647-2.646h23.544
			c1.458,0,2.648,1.184,2.648,2.646V26.787z"/>
	</g>
	<path d="M13.769,20.258c0,0.391-0.227,0.635-0.595,0.635c-0.364,0-0.594-0.244-0.594-0.635v-8.514c0-0.395,0.229-0.635,0.594-0.635
		c0.368,0,0.595,0.24,0.595,0.635v3.512l4.122-3.77c0.217-0.203,0.404-0.377,0.647-0.377c0.298,0,0.517,0.203,0.517,0.514
		s-0.109,0.418-0.244,0.539l-3.949,3.555l4.316,4.162c0.183,0.176,0.24,0.311,0.24,0.486c0,0.283-0.259,0.527-0.582,0.527
		c-0.174,0-0.34-0.027-0.581-0.258l-4.486-4.406V20.258z"/>
</g>
<g id="Layer_1">
</g>
<g id="Language_specific">
</g>
<g id="Layer_5">
</g>
</svg>
