<?xml version="1.0" encoding="utf-8"?>
<!-- Generator: Adobe Illustrator 16.0.4, SVG Export Plug-In . SVG Version: 6.00 Build 0)  -->
<!DOCTYPE svg PUBLIC "-//W3C//DTD SVG 1.1//EN" "http://www.w3.org/Graphics/SVG/1.1/DTD/svg11.dtd">
<svg version="1.1" xmlns="http://www.w3.org/2000/svg" xmlns:xlink="http://www.w3.org/1999/xlink" x="0px" y="0px" width="32px"
	 height="32px" viewBox="0 0 32 32" enable-background="new 0 0 32 32" xml:space="preserve">
<g id="Layer_3" display="none">
</g>
<g id="Layer_2">
</g>
<g id="Layer_1">
</g>
<g id="Language_specific">
	<g>
		<g>
			<g>
				<defs>
					<path id="SVGID_1753_" d="M-31.184,4.201c-2.33,0-4.219,1.889-4.219,4.223v15.16c0,2.322,1.889,4.215,4.219,4.215h22.365
						c2.332,0,4.221-1.893,4.221-4.215V8.424c0-2.334-1.889-4.223-4.221-4.223H-31.184z"/>
				</defs>
				<clipPath id="SVGID_2_">
					<use xlink:href="#SVGID_1753_"  overflow="visible"/>
				</clipPath>
				
					<linearGradient id="SVGID_3_" gradientUnits="userSpaceOnUse" x1="-132.4385" y1="-672.3779" x2="-130.2326" y2="-672.3779" gradientTransform="matrix(4.3973 14.3829 14.3829 -4.3973 10228.2344 -1051.7656)">
					<stop  offset="0" style="stop-color:#FFFFFF"/>
					<stop  offset="1" style="stop-color:#D0D0D0"/>
				</linearGradient>
				<polygon clip-path="url(#SVGID_2_)" fill="url(#SVGID_3_)" points="-8.549,-6.129 2,25.781 -32.182,38.129 -42,6.221 				"/>
			</g>
		</g>
	</g>
	<g>
		<g>
			<g>
				<defs>
					<path id="SVGID_1759_" d="M4.816,4.201c-2.33,0-4.219,1.889-4.219,4.223v15.16c0,2.322,1.889,4.215,4.219,4.215h22.365
						c2.332,0,4.221-1.893,4.221-4.215V8.424c0-2.334-1.889-4.223-4.221-4.223H4.816z"/>
				</defs>
				<clipPath id="SVGID_5_">
					<use xlink:href="#SVGID_1759_"  overflow="visible"/>
				</clipPath>
				
					<linearGradient id="SVGID_6_" gradientUnits="userSpaceOnUse" x1="-131.7388" y1="-670.0898" x2="-129.5329" y2="-670.0898" gradientTransform="matrix(4.3973 14.3829 14.3829 -4.3973 10228.2344 -1051.7656)">
					<stop  offset="0" style="stop-color:#FFFFFF"/>
					<stop  offset="1" style="stop-color:#D0D0D0"/>
				</linearGradient>
				<polygon clip-path="url(#SVGID_5_)" fill="url(#SVGID_6_)" points="27.451,-6.129 38,25.781 3.818,38.129 -6,6.221 				"/>
			</g>
			<path fill="none" stroke="#5C5C5C" stroke-width="0.5198" stroke-linejoin="round" d="M31.402,23.582
				c0,2.324-1.891,4.217-4.217,4.217H4.814c-2.33,0-4.217-1.893-4.217-4.217V8.424c0-2.336,1.887-4.217,4.217-4.217h22.371
				c2.326,0,4.217,1.881,4.217,4.217V23.582z"/>
			<g>
				<defs>
					<path id="SVGID_1762_" d="M4.926,5.416c-1.742,0-3.156,1.418-3.156,3.164v14.84c0,1.742,1.414,3.164,3.156,3.164h22.141
						c1.744,0,3.16-1.422,3.16-3.164V8.58c0-1.746-1.416-3.164-3.16-3.164H4.926z"/>
				</defs>
				<clipPath id="SVGID_8_">
					<use xlink:href="#SVGID_1762_"  overflow="visible"/>
				</clipPath>
				
					<linearGradient id="SVGID_9_" gradientUnits="userSpaceOnUse" x1="-104.2559" y1="-649.2129" x2="-102.1772" y2="-649.2129" gradientTransform="matrix(0 10.1826 10.1826 0 6626.6719 1067.012)">
					<stop  offset="0" style="stop-color:#FFFFFF"/>
					<stop  offset="1" style="stop-color:#F3F3F3"/>
				</linearGradient>
				<rect x="1.77" y="5.416" clip-path="url(#SVGID_8_)" fill="url(#SVGID_9_)" width="28.457" height="21.168"/>
			</g>
			<path fill="none" stroke="#FAFAFA" stroke-width="0.5198" stroke-linejoin="round" d="M30.227,23.424
				c0,1.742-1.416,3.16-3.162,3.16H4.93c-1.742,0-3.162-1.418-3.162-3.16V8.58c0-1.746,1.42-3.166,3.162-3.166h22.135
				c1.746,0,3.162,1.42,3.162,3.166V23.424z"/>
		</g>
		<g>
			<path d="M7.061,11.627c0,0.236-0.188,0.332-0.318,0.332c-0.135,0-0.312-0.096-0.312-0.332v-0.285H6.418
				c-0.295,0.414-0.678,0.617-1.115,0.617c-1.15,0-1.797-1.008-1.797-2.09c0-1.08,0.646-2.086,1.797-2.086
				c0.473,0,0.801,0.201,1.115,0.545H6.43V8.115c0-0.24,0.178-0.332,0.312-0.332c0.131,0,0.318,0.092,0.318,0.332V11.627z
				 M5.303,11.373c0.828,0,1.121-0.812,1.121-1.504c0-0.689-0.293-1.504-1.121-1.504c-0.83,0-1.119,0.814-1.119,1.504
				C4.184,10.561,4.473,11.373,5.303,11.373"/>
			<path d="M8.617,11.598c0,0.221-0.131,0.359-0.338,0.359s-0.34-0.139-0.34-0.359V6.35c0-0.225,0.133-0.363,0.34-0.363
				S8.617,6.125,8.617,6.35V11.598z"/>
			<path d="M9.717,6.945c0-0.223,0.133-0.359,0.338-0.359c0.209,0,0.342,0.137,0.342,0.359V7.83h0.273
				c0.225,0,0.338,0.107,0.338,0.293c0,0.18-0.113,0.289-0.338,0.289h-0.273v3.186c0,0.221-0.133,0.361-0.342,0.361
				c-0.205,0-0.338-0.141-0.338-0.361V8.412H9.445c-0.225,0-0.342-0.109-0.342-0.289c0-0.186,0.117-0.293,0.342-0.293h0.271V6.945z"
				/>
		</g>
		<g>
			<path d="M16.625,25.066H9.584l-3.695-5.494H3.487v-0.729h2.808l3.69,5.504h6.64V25.066z M16.625,19.572H8.844v-0.727h7.781
				V19.572z"/>
		</g>
	</g>
	<g>
		<g>
			<g>
				<defs>
					<path id="SVGID_1771_" d="M40.816,4.201c-2.33,0-4.219,1.889-4.219,4.223v15.16c0,2.322,1.889,4.215,4.219,4.215h22.365
						c2.332,0,4.221-1.893,4.221-4.215V8.424c0-2.334-1.889-4.223-4.221-4.223H40.816z"/>
				</defs>
				<clipPath id="SVGID_11_">
					<use xlink:href="#SVGID_1771_"  overflow="visible"/>
				</clipPath>
				
					<linearGradient id="SVGID_12_" gradientUnits="userSpaceOnUse" x1="-131.0391" y1="-667.8008" x2="-128.8332" y2="-667.8008" gradientTransform="matrix(4.3973 14.3829 14.3829 -4.3973 10228.2344 -1051.7656)">
					<stop  offset="0" style="stop-color:#FFFFFF"/>
					<stop  offset="1" style="stop-color:#D0D0D0"/>
				</linearGradient>
				<polygon clip-path="url(#SVGID_11_)" fill="url(#SVGID_12_)" points="63.451,-6.129 74,25.781 39.818,38.129 30,6.221 				"/>
			</g>
		</g>
	</g>
</g>
<g id="Layer_5">
</g>
</svg>
