<?xml version="1.0" encoding="utf-8"?>
<!-- Generator: Adobe Illustrator 16.0.0, SVG Export Plug-In . SVG Version: 6.00 Build 0)  -->
<!DOCTYPE svg PUBLIC "-//W3C//DTD SVG 1.1//EN" "http://www.w3.org/Graphics/SVG/1.1/DTD/svg11.dtd">
<svg version="1.1" id="Reference" xmlns="http://www.w3.org/2000/svg" xmlns:xlink="http://www.w3.org/1999/xlink" x="0px" y="0px"
	 width="32px" height="32px" viewBox="0 0 32 32" enable-background="new 0 0 32 32" xml:space="preserve">
<g>
	<g>
		<g>
			<g>
				<defs>
					<path id="SVGID_1_" d="M4.135,1.57c-1.952,0-3.533,1.582-3.533,3.527v21.828c0,1.951,1.581,3.527,3.533,3.527h23.734
						c1.951,0,3.531-1.576,3.531-3.527V5.098c0-1.945-1.58-3.527-3.531-3.527L4.135,1.57L4.135,1.57z"/>
				</defs>
				<clipPath id="SVGID_2_">
					<use xlink:href="#SVGID_1_"  overflow="visible"/>
				</clipPath>
				
					<linearGradient id="SVGID_3_" gradientUnits="userSpaceOnUse" x1="-584.6289" y1="1493.9844" x2="-582.8888" y2="1493.9844" gradientTransform="matrix(5.8606 19.1691 -19.1691 5.8606 32075.5137 2450.4468)">
					<stop  offset="0" style="stop-color:#FFFFFF"/>
					<stop  offset="1" style="stop-color:#D0D0D0"/>
				</linearGradient>
				<polygon clip-path="url(#SVGID_2_)" fill="url(#SVGID_3_)" points="28.771,-7.025 39.494,27.984 3.232,39.051 -7.488,4.039 				
					"/>
			</g>
		</g>
		<path fill="none" stroke="#5C5C5C" stroke-width="0.4351" stroke-linejoin="round" d="M31.402,26.926
			c0,1.953-1.582,3.527-3.531,3.527H4.136c-1.951,0-3.538-1.574-3.538-3.527V5.098c0-1.945,1.587-3.527,3.538-3.527h23.735
			c1.949,0,3.531,1.582,3.531,3.527V26.926z"/>
		<g>
			<g>
				<defs>
					<path id="SVGID_4_" d="M4.23,2.582c-1.459,0-2.646,1.188-2.646,2.648v21.568c0,1.455,1.188,2.642,2.646,2.642h23.542
						c1.463,0,2.648-1.187,2.648-2.642V5.23c0-1.461-1.188-2.648-2.648-2.648H4.23z"/>
				</defs>
				<clipPath id="SVGID_5_">
					<use xlink:href="#SVGID_4_"  overflow="visible"/>
				</clipPath>
				
					<linearGradient id="SVGID_6_" gradientUnits="userSpaceOnUse" x1="-562.8315" y1="1451.6914" x2="-561.0923" y2="1451.6914" gradientTransform="matrix(0 15.4443 -15.4443 0 22436.3496 8695.125)">
					<stop  offset="0" style="stop-color:#FFFFFF"/>
					<stop  offset="1" style="stop-color:#F3F3F3"/>
				</linearGradient>
				<rect x="1.584" y="2.582" clip-path="url(#SVGID_5_)" fill="url(#SVGID_6_)" width="28.837" height="26.857"/>
			</g>
		</g>
		<path fill="none" stroke="#FAFAFA" stroke-width="0.4351" stroke-linejoin="round" d="M30.421,26.799
			c0,1.455-1.19,2.643-2.647,2.643H4.229c-1.457,0-2.647-1.188-2.647-2.643V5.23c0-1.463,1.19-2.646,2.647-2.646h23.544
			c1.457,0,2.647,1.184,2.647,2.646V26.799z"/>
	</g>
	<path d="M10.323,10.887c-0.31,0-0.534-0.162-0.534-0.511c0-0.347,0.225-0.51,0.534-0.51h1.842c0.559,0,0.796,0.214,0.796,0.895
		c0,2.14-0.771,4.253-3.782,4.253c-2.548,0-3.876-2.199-3.876-4.501c0-2.3,1.267-4.499,4.035-4.499c1.82,0,3.039,0.945,3.039,1.418
		c0,0.283-0.212,0.519-0.525,0.519c-0.544,0-0.997-0.991-2.587-0.991c-1.989,0-2.796,1.863-2.796,3.554
		c0,1.692,0.785,3.556,2.852,3.556c1.712,0,2.548-1.466,2.548-2.659v-0.522h-1.546V10.887z"/>
	<g enable-background="new    ">
		<path d="M25.354,18.96v7.569h-0.977v-6.75h-3.516v6.75h-0.977V18.96H25.354z"/>
	</g>
</g>
</svg>
