<?xml version="1.0" encoding="utf-8"?>
<!-- Generator: Adobe Illustrator 16.0.4, SVG Export Plug-In . SVG Version: 6.00 Build 0)  -->
<!DOCTYPE svg PUBLIC "-//W3C//DTD SVG 1.1//EN" "http://www.w3.org/Graphics/SVG/1.1/DTD/svg11.dtd">
<svg version="1.1" xmlns="http://www.w3.org/2000/svg" xmlns:xlink="http://www.w3.org/1999/xlink" x="0px" y="0px" width="32px"
	 height="32px" viewBox="0 0 32 32" enable-background="new 0 0 32 32" xml:space="preserve">
<g id="Layer_3" display="none">
</g>
<g id="Layer_2">
</g>
<g id="Layer_1">
</g>
<g id="Language_specific">
	<g>
		<g>
			<g>
				<defs>
					<path id="SVGID_847_" d="M-34.865,1.559c-1.953,0-3.533,1.582-3.533,3.527v21.828c0,1.951,1.58,3.527,3.533,3.527h23.734
						c1.951,0,3.531-1.576,3.531-3.527V5.086c0-1.945-1.58-3.527-3.531-3.527H-34.865z"/>
				</defs>
				<clipPath id="SVGID_2_">
					<use xlink:href="#SVGID_847_"  overflow="visible"/>
				</clipPath>
				
					<linearGradient id="SVGID_3_" gradientUnits="userSpaceOnUse" x1="-835.2842" y1="-637.2832" x2="-833.5441" y2="-637.2832" gradientTransform="matrix(5.8606 19.1691 19.1691 -5.8606 17083.2949 12276.0635)">
					<stop  offset="0" style="stop-color:#FFFFFF"/>
					<stop  offset="1" style="stop-color:#D0D0D0"/>
				</linearGradient>
				<polygon clip-path="url(#SVGID_2_)" fill="url(#SVGID_3_)" points="-10.229,-7.037 0.494,27.973 -35.768,39.039 -46.488,4.027 
									"/>
			</g>
		</g>
	</g>
	<g>
		<g>
			<g>
				<defs>
					<path id="SVGID_853_" d="M4.135,1.559c-1.953,0-3.533,1.582-3.533,3.527v21.828c0,1.951,1.58,3.527,3.533,3.527h23.734
						c1.951,0,3.531-1.576,3.531-3.527V5.086c0-1.945-1.58-3.527-3.531-3.527H4.135z"/>
				</defs>
				<clipPath id="SVGID_5_">
					<use xlink:href="#SVGID_853_"  overflow="visible"/>
				</clipPath>
				
					<linearGradient id="SVGID_6_" gradientUnits="userSpaceOnUse" x1="-834.7153" y1="-635.4229" x2="-832.9752" y2="-635.4229" gradientTransform="matrix(5.8606 19.1691 19.1691 -5.8606 17083.2949 12276.0635)">
					<stop  offset="0" style="stop-color:#FFFFFF"/>
					<stop  offset="1" style="stop-color:#D0D0D0"/>
				</linearGradient>
				<polygon clip-path="url(#SVGID_5_)" fill="url(#SVGID_6_)" points="28.771,-7.037 39.494,27.973 3.232,39.039 -7.488,4.027 				
					"/>
			</g>
			<path fill="none" stroke="#5C5C5C" stroke-width="0.4351" stroke-linejoin="round" d="M31.402,26.914
				c0,1.953-1.582,3.527-3.531,3.527H4.135c-1.951,0-3.537-1.574-3.537-3.527V5.086c0-1.945,1.586-3.527,3.537-3.527h23.736
				c1.949,0,3.531,1.582,3.531,3.527V26.914z"/>
			<g>
				<defs>
					<path id="SVGID_856_" d="M4.23,2.57c-1.459,0-2.646,1.188-2.646,2.648v21.568c0,1.455,1.188,2.641,2.646,2.641h23.541
						c1.463,0,2.648-1.186,2.648-2.641V5.219c0-1.461-1.186-2.648-2.648-2.648H4.23z"/>
				</defs>
				<clipPath id="SVGID_8_">
					<use xlink:href="#SVGID_856_"  overflow="visible"/>
				</clipPath>
				
					<linearGradient id="SVGID_9_" gradientUnits="userSpaceOnUse" x1="-832.1782" y1="-609.9678" x2="-830.4395" y2="-609.9678" gradientTransform="matrix(0 15.4443 15.4443 0 9436.5293 12854.9863)">
					<stop  offset="0" style="stop-color:#FFFFFF"/>
					<stop  offset="1" style="stop-color:#F3F3F3"/>
				</linearGradient>
				<rect x="1.584" y="2.57" clip-path="url(#SVGID_8_)" fill="url(#SVGID_9_)" width="28.836" height="26.857"/>
			</g>
			<path fill="none" stroke="#FAFAFA" stroke-width="0.4351" stroke-linejoin="round" d="M30.42,26.787
				c0,1.455-1.189,2.643-2.648,2.643H4.229c-1.457,0-2.648-1.188-2.648-2.643V5.219c0-1.463,1.191-2.646,2.648-2.646h23.543
				c1.459,0,2.648,1.184,2.648,2.646V26.787z"/>
		</g>
		<g>
			<path d="M27.764,18.975c0-0.281,0.223-0.504,0.502-0.504c0.281,0,0.504,0.223,0.504,0.504v2.727c0,0.279-0.223,0.504-0.504,0.504
				c-0.279,0-0.502-0.225-0.502-0.504V18.975z"/>
			<path d="M27.764,23.854c0-0.279,0.223-0.504,0.502-0.504c0.281,0,0.504,0.225,0.504,0.504v2.727c0,0.279-0.223,0.504-0.504,0.504
				c-0.279,0-0.502-0.225-0.502-0.504V23.854z"/>
			<path d="M15.727,18.941h-1.027c-0.238,0-0.426-0.189-0.426-0.424c0-0.236,0.188-0.426,0.426-0.426h1.711
				c0.189,0,0.301,0.021,0.301,0.268v7.24c0,0.324-0.189,0.525-0.492,0.525c-0.301,0-0.492-0.201-0.492-0.525V18.941z"/>
			<path d="M16.129,11.885c0.311,0,0.568,0.258,0.568,0.572s-0.258,0.57-0.568,0.57c-0.314,0-0.574-0.256-0.574-0.57
				S15.814,11.885,16.129,11.885 M15.635,5.453c0-0.324,0.188-0.527,0.494-0.527c0.299,0,0.488,0.203,0.488,0.527v4.844
				c0,0.324-0.189,0.527-0.488,0.527c-0.307,0-0.494-0.203-0.494-0.527V5.453z"/>
		</g>
	</g>
	<g>
		<g>
			<g>
				<defs>
					<path id="SVGID_859_" d="M41.135,1.559c-1.953,0-3.533,1.582-3.533,3.527v21.828c0,1.951,1.58,3.527,3.533,3.527h23.734
						c1.951,0,3.531-1.576,3.531-3.527V5.086c0-1.945-1.58-3.527-3.531-3.527H41.135z"/>
				</defs>
				<clipPath id="SVGID_11_">
					<use xlink:href="#SVGID_859_"  overflow="visible"/>
				</clipPath>
				
					<linearGradient id="SVGID_12_" gradientUnits="userSpaceOnUse" x1="-834.1758" y1="-633.6582" x2="-832.4357" y2="-633.6582" gradientTransform="matrix(5.8606 19.1691 19.1691 -5.8606 17083.2949 12276.0635)">
					<stop  offset="0" style="stop-color:#FFFFFF"/>
					<stop  offset="1" style="stop-color:#D0D0D0"/>
				</linearGradient>
				<polygon clip-path="url(#SVGID_11_)" fill="url(#SVGID_12_)" points="65.771,-7.037 76.494,27.973 40.232,39.039 29.512,4.027 
									"/>
			</g>
		</g>
	</g>
</g>
<g id="Layer_5">
</g>
</svg>
