<?xml version="1.0" encoding="utf-8"?>
<!-- Generator: Adobe Illustrator 16.0.4, SVG Export Plug-In . SVG Version: 6.00 Build 0)  -->
<!DOCTYPE svg PUBLIC "-//W3C//DTD SVG 1.1//EN" "http://www.w3.org/Graphics/SVG/1.1/DTD/svg11.dtd">
<svg version="1.1" id="Reference" xmlns="http://www.w3.org/2000/svg" xmlns:xlink="http://www.w3.org/1999/xlink" x="0px" y="0px"
	 width="32px" height="32px" viewBox="0 0 32 32" enable-background="new 0 0 32 32" xml:space="preserve">
<g>
	<g>
		<g>
			<defs>
				<path id="SVGID_769_" d="M36.135-30.195c-1.952,0-3.533,1.582-3.533,3.527V-4.84c0,1.951,1.581,3.527,3.533,3.527h23.734
					c1.952,0,3.532-1.576,3.532-3.527v-21.828c0-1.945-1.58-3.527-3.532-3.527H36.135z"/>
			</defs>
			<clipPath id="SVGID_2_">
				<use xlink:href="#SVGID_769_"  overflow="visible"/>
			</clipPath>
			
				<linearGradient id="SVGID_3_" gradientUnits="userSpaceOnUse" x1="-571.687" y1="-1294.0742" x2="-569.9473" y2="-1294.0742" gradientTransform="matrix(5.8606 19.1691 19.1691 -5.8606 28199.5566 3342.2031)">
				<stop  offset="0" style="stop-color:#FFFFFF"/>
				<stop  offset="1" style="stop-color:#D0D0D0"/>
			</linearGradient>
			<polygon clip-path="url(#SVGID_2_)" fill="url(#SVGID_3_)" points="60.771,-38.791 71.494,-3.781 35.232,7.285 24.512,-27.727 
							"/>
		</g>
	</g>
</g>
<g>
	<g>
		<g>
			<defs>
				<path id="SVGID_817_" d="M4.135,1.805c-1.952,0-3.533,1.582-3.533,3.527V27.16c0,1.951,1.581,3.527,3.533,3.527h23.734
					c1.952,0,3.532-1.576,3.532-3.527V5.332c0-1.945-1.58-3.527-3.532-3.527H4.135z"/>
			</defs>
			<clipPath id="SVGID_5_">
				<use xlink:href="#SVGID_817_"  overflow="visible"/>
			</clipPath>
			
				<linearGradient id="SVGID_6_" gradientUnits="userSpaceOnUse" x1="-570.6274" y1="-1296.0684" x2="-568.8873" y2="-1296.0684" gradientTransform="matrix(5.8606 19.1691 19.1691 -5.8606 28199.5566 3342.2031)">
				<stop  offset="0" style="stop-color:#FFFFFF"/>
				<stop  offset="1" style="stop-color:#D0D0D0"/>
			</linearGradient>
			<polygon clip-path="url(#SVGID_5_)" fill="url(#SVGID_6_)" points="28.771,-6.791 39.494,28.219 3.232,39.285 -7.488,4.273 			
				"/>
		</g>
		<path fill="none" stroke="#5C5C5C" stroke-width="0.4351" stroke-linejoin="round" d="M31.403,27.16
			c0,1.953-1.582,3.527-3.532,3.527H4.136c-1.951,0-3.538-1.574-3.538-3.527V5.332c0-1.945,1.587-3.527,3.538-3.527h23.735
			c1.95,0,3.532,1.582,3.532,3.527V27.16z"/>
		<g>
			<defs>
				<path id="SVGID_820_" d="M4.23,2.816c-1.459,0-2.646,1.188-2.646,2.648v21.568c0,1.455,1.188,2.641,2.646,2.641h23.542
					c1.462,0,2.648-1.186,2.648-2.641V5.465c0-1.461-1.187-2.648-2.648-2.648H4.23z"/>
			</defs>
			<clipPath id="SVGID_8_">
				<use xlink:href="#SVGID_820_"  overflow="visible"/>
			</clipPath>
			
				<linearGradient id="SVGID_9_" gradientUnits="userSpaceOnUse" x1="-553.7231" y1="-1265.3125" x2="-551.9844" y2="-1265.3125" gradientTransform="matrix(0 15.4443 15.4443 0 19557.8809 8554.6875)">
				<stop  offset="0" style="stop-color:#FFFFFF"/>
				<stop  offset="1" style="stop-color:#F3F3F3"/>
			</linearGradient>
			<rect x="1.584" y="2.816" clip-path="url(#SVGID_8_)" fill="url(#SVGID_9_)" width="28.837" height="26.857"/>
		</g>
		<path fill="none" stroke="#FAFAFA" stroke-width="0.4351" stroke-linejoin="round" d="M30.421,27.033
			c0,1.455-1.19,2.643-2.648,2.643H4.229c-1.457,0-2.647-1.188-2.647-2.643V5.465c0-1.463,1.19-2.646,2.647-2.646h23.544
			c1.458,0,2.648,1.184,2.648,2.646V27.033z"/>
	</g>
	<g>
		<path d="M5.814,22.854c-0.26,0-0.447-0.133-0.447-0.424c0-0.293,0.188-0.43,0.447-0.43h4.373c0.26,0,0.447,0.137,0.447,0.43
			c0,0.291-0.188,0.424-0.447,0.424H5.814z M5.814,25.018c-0.26,0-0.447-0.133-0.447-0.424c0-0.293,0.188-0.43,0.447-0.43h4.373
			c0.26,0,0.447,0.137,0.447,0.43c0,0.291-0.188,0.424-0.447,0.424H5.814z"/>
		<path d="M7.574,7.666c0-0.258,0.137-0.445,0.426-0.445c0.291,0,0.428,0.188,0.428,0.445v1.76h1.76c0.26,0,0.447,0.135,0.447,0.426
			c0,0.293-0.188,0.426-0.447,0.426h-1.76v1.762c0,0.26-0.137,0.445-0.428,0.445c-0.289,0-0.426-0.186-0.426-0.445v-1.762h-1.76
			c-0.26,0-0.449-0.133-0.449-0.426c0-0.291,0.189-0.426,0.449-0.426h1.76V7.666z"/>
	</g>
</g>
<g>
	<g>
		<g>
			<defs>
				<path id="SVGID_823_" d="M-27.865,1.805c-1.952,0-3.533,1.582-3.533,3.527V27.16c0,1.951,1.581,3.527,3.533,3.527h23.734
					c1.952,0,3.532-1.576,3.532-3.527V5.332c0-1.945-1.58-3.527-3.532-3.527H-27.865z"/>
			</defs>
			<clipPath id="SVGID_11_">
				<use xlink:href="#SVGID_823_"  overflow="visible"/>
			</clipPath>
			
				<linearGradient id="SVGID_12_" gradientUnits="userSpaceOnUse" x1="-571.0942" y1="-1297.5947" x2="-569.3541" y2="-1297.5947" gradientTransform="matrix(5.8606 19.1691 19.1691 -5.8606 28199.5566 3342.2031)">
				<stop  offset="0" style="stop-color:#FFFFFF"/>
				<stop  offset="1" style="stop-color:#D0D0D0"/>
			</linearGradient>
			<polygon clip-path="url(#SVGID_11_)" fill="url(#SVGID_12_)" points="-3.229,-6.791 7.494,28.219 -28.768,39.285 -39.488,4.273 
							"/>
		</g>
	</g>
</g>
<g>
	<g>
		<g>
			<defs>
				<path id="SVGID_853_" d="M4.135-30.195c-1.952,0-3.533,1.582-3.533,3.527V-4.84c0,1.951,1.581,3.527,3.533,3.527h23.734
					c1.952,0,3.532-1.576,3.532-3.527v-21.828c0-1.945-1.58-3.527-3.532-3.527H4.135z"/>
			</defs>
			<clipPath id="SVGID_14_">
				<use xlink:href="#SVGID_853_"  overflow="visible"/>
			</clipPath>
			
				<linearGradient id="SVGID_15_" gradientUnits="userSpaceOnUse" x1="-572.1538" y1="-1295.6016" x2="-570.4137" y2="-1295.6016" gradientTransform="matrix(5.8606 19.1691 19.1691 -5.8606 28199.5566 3342.2031)">
				<stop  offset="0" style="stop-color:#FFFFFF"/>
				<stop  offset="1" style="stop-color:#D0D0D0"/>
			</linearGradient>
			<polygon clip-path="url(#SVGID_14_)" fill="url(#SVGID_15_)" points="28.771,-38.791 39.494,-3.781 3.232,7.285 -7.488,-27.727 
							"/>
		</g>
	</g>
</g>
<g>
	<g>
		<g>
			<defs>
				<path id="SVGID_1045_" d="M-27.865,33.904c-1.952,0-3.533,1.582-3.533,3.527V59.26c0,1.951,1.581,3.527,3.533,3.527h23.734
					c1.952,0,3.532-1.576,3.532-3.527V37.432c0-1.945-1.58-3.527-3.532-3.527H-27.865z"/>
			</defs>
			<clipPath id="SVGID_17_">
				<use xlink:href="#SVGID_1045_"  overflow="visible"/>
			</clipPath>
			
				<linearGradient id="SVGID_18_" gradientUnits="userSpaceOnUse" x1="-569.5625" y1="-1298.0625" x2="-567.8224" y2="-1298.0625" gradientTransform="matrix(5.8606 19.1691 19.1691 -5.8606 28199.5566 3342.2031)">
				<stop  offset="0" style="stop-color:#FFFFFF"/>
				<stop  offset="1" style="stop-color:#D0D0D0"/>
			</linearGradient>
			<polygon clip-path="url(#SVGID_17_)" fill="url(#SVGID_18_)" points="-3.229,25.309 7.494,60.318 -28.768,71.385 -39.488,36.373 
							"/>
		</g>
	</g>
</g>
<g>
	<g>
		<g>
			<defs>
				<path id="SVGID_1051_" d="M4.135,33.904c-1.952,0-3.533,1.582-3.533,3.527V59.26c0,1.951,1.581,3.527,3.533,3.527h23.734
					c1.952,0,3.532-1.576,3.532-3.527V37.432c0-1.945-1.58-3.527-3.532-3.527H4.135z"/>
			</defs>
			<clipPath id="SVGID_20_">
				<use xlink:href="#SVGID_1051_"  overflow="visible"/>
			</clipPath>
			
				<linearGradient id="SVGID_21_" gradientUnits="userSpaceOnUse" x1="-569.0962" y1="-1296.5361" x2="-567.3556" y2="-1296.5361" gradientTransform="matrix(5.8606 19.1691 19.1691 -5.8606 28199.5566 3342.2031)">
				<stop  offset="0" style="stop-color:#FFFFFF"/>
				<stop  offset="1" style="stop-color:#D0D0D0"/>
			</linearGradient>
			<polygon clip-path="url(#SVGID_20_)" fill="url(#SVGID_21_)" points="28.771,25.309 39.494,60.318 3.232,71.385 -7.488,36.373 
							"/>
		</g>
	</g>
</g>
<g>
	<g>
		<g>
			<defs>
				<path id="SVGID_1057_" d="M36.135,33.904c-1.952,0-3.533,1.582-3.533,3.527V59.26c0,1.951,1.581,3.527,3.533,3.527h23.734
					c1.952,0,3.532-1.576,3.532-3.527V37.432c0-1.945-1.58-3.527-3.532-3.527H36.135z"/>
			</defs>
			<clipPath id="SVGID_23_">
				<use xlink:href="#SVGID_1057_"  overflow="visible"/>
			</clipPath>
			
				<linearGradient id="SVGID_24_" gradientUnits="userSpaceOnUse" x1="-568.6294" y1="-1295.0098" x2="-566.8888" y2="-1295.0098" gradientTransform="matrix(5.8606 19.1691 19.1691 -5.8606 28199.5566 3342.2031)">
				<stop  offset="0" style="stop-color:#FFFFFF"/>
				<stop  offset="1" style="stop-color:#D0D0D0"/>
			</linearGradient>
			<polygon clip-path="url(#SVGID_23_)" fill="url(#SVGID_24_)" points="60.771,25.309 71.494,60.318 35.232,71.385 24.512,36.373 
							"/>
		</g>
	</g>
</g>
</svg>
