<?xml version="1.0" encoding="utf-8"?>
<!-- Generator: Adobe Illustrator 16.0.4, SVG Export Plug-In . SVG Version: 6.00 Build 0)  -->
<!DOCTYPE svg PUBLIC "-//W3C//DTD SVG 1.1//EN" "http://www.w3.org/Graphics/SVG/1.1/DTD/svg11.dtd">
<svg version="1.1" id="Reference" xmlns="http://www.w3.org/2000/svg" xmlns:xlink="http://www.w3.org/1999/xlink" x="0px" y="0px"
	 width="32px" height="32px" viewBox="0 0 32 32" enable-background="new 0 0 32 32" xml:space="preserve">
<g>
	<g>
		<defs>
			<path id="SVGID_1_" d="M4.135,1.528c-1.953,0-3.533,1.582-3.533,3.527v21.828c0,1.951,1.58,3.527,3.533,3.527h23.734
				c1.951,0,3.531-1.576,3.531-3.527V5.056c0-1.945-1.58-3.527-3.531-3.527H4.135z"/>
		</defs>
		<clipPath id="SVGID_2_">
			<use xlink:href="#SVGID_1_"  overflow="visible"/>
		</clipPath>
		
			<linearGradient id="SVGID_3_" gradientUnits="userSpaceOnUse" x1="-279.4663" y1="195.5996" x2="-277.7262" y2="195.5996" gradientTransform="matrix(5.8606 19.1691 19.1691 -5.8606 -2100.7488 6502.7207)">
			<stop  offset="0" style="stop-color:#FFFFFF"/>
			<stop  offset="1" style="stop-color:#D0D0D0"/>
		</linearGradient>
		<polygon clip-path="url(#SVGID_2_)" fill="url(#SVGID_3_)" points="28.771,-7.067 39.494,27.942 3.232,39.009 -7.488,3.997 		"/>
	</g>
	<path fill="none" stroke="#5C5C5C" stroke-width="0.4351" stroke-linejoin="round" d="M31.402,26.884
		c0,1.953-1.582,3.527-3.531,3.527H4.135c-1.951,0-3.537-1.574-3.537-3.527V5.056c0-1.945,1.586-3.527,3.537-3.527h23.736
		c1.949,0,3.531,1.582,3.531,3.527V26.884z"/>
	<g>
		<defs>
			<path id="SVGID_4_" d="M4.23,2.54c-1.459,0-2.646,1.188-2.646,2.648v21.568c0,1.455,1.188,2.641,2.646,2.641h23.541
				c1.463,0,2.648-1.186,2.648-2.641V5.188c0-1.461-1.186-2.648-2.648-2.648H4.23z"/>
		</defs>
		<clipPath id="SVGID_5_">
			<use xlink:href="#SVGID_4_"  overflow="visible"/>
		</clipPath>
		
			<linearGradient id="SVGID_6_" gradientUnits="userSpaceOnUse" x1="-282.5547" y1="198.3916" x2="-280.8159" y2="198.3916" gradientTransform="matrix(0 15.4443 15.4443 0 -3048.0164 4366.4019)">
			<stop  offset="0" style="stop-color:#FFFFFF"/>
			<stop  offset="1" style="stop-color:#F3F3F3"/>
		</linearGradient>
		<rect x="1.584" y="2.54" clip-path="url(#SVGID_5_)" fill="url(#SVGID_6_)" width="28.836" height="26.857"/>
	</g>
	<path fill="none" stroke="#FAFAFA" stroke-width="0.4351" stroke-linejoin="round" d="M30.42,26.757
		c0,1.455-1.189,2.643-2.648,2.643H4.229c-1.457,0-2.648-1.188-2.648-2.643V5.188c0-1.463,1.191-2.646,2.648-2.646h23.543
		c1.459,0,2.648,1.184,2.648,2.646V26.757z"/>
</g>
<g>
	<path d="M15.234,19.683h2.709c0.359,0,0.619,0.187,0.619,0.59s-0.26,0.591-0.619,0.591h-3.299c-0.476,0-0.678-0.303-0.678-0.691
		v-3.429l-0.187,0.115c-0.159,0.087-0.317,0.159-0.533,0.159c-0.317,0-0.504-0.288-0.504-0.576c0-0.202,0.101-0.375,0.346-0.505
		l0.878-0.518v-4.221c0-0.418,0.245-0.678,0.635-0.678c0.389,0,0.633,0.26,0.633,0.678v3.485l0.966-0.547
		c0.187-0.101,0.331-0.173,0.532-0.173c0.303,0,0.533,0.216,0.533,0.547c0,0.26-0.129,0.403-0.346,0.533l-1.686,0.965V19.683z"/>
</g>
</svg>
