<?xml version="1.0" encoding="utf-8"?>
<!-- Generator: Adobe Illustrator 16.0.0, SVG Export Plug-In . SVG Version: 6.00 Build 0)  -->
<!DOCTYPE svg PUBLIC "-//W3C//DTD SVG 1.1//EN" "http://www.w3.org/Graphics/SVG/1.1/DTD/svg11.dtd">
<svg version="1.1" id="Layer_1" xmlns="http://www.w3.org/2000/svg" xmlns:xlink="http://www.w3.org/1999/xlink" x="0px" y="0px"
	 width="32px" height="32px" viewBox="0 0 32 32" enable-background="new 0 0 32 32" xml:space="preserve">
<g id="Layer_3" display="none">
</g>
<g id="Layer_2">
</g>
<g id="Layer_1_1_">
</g>
<g id="Language_specific">
	<g>
		<g>
			<g>
				<g>
					<defs>
						<path id="SVGID_1_" d="M4.135,1.559c-1.953,0-3.533,1.582-3.533,3.527v21.828c0,1.951,1.58,3.527,3.533,3.527h23.734
							c1.951,0,3.531-1.576,3.531-3.527V5.086c0-1.945-1.58-3.527-3.531-3.527H4.135z"/>
					</defs>
					<clipPath id="SVGID_2_">
						<use xlink:href="#SVGID_1_"  overflow="visible"/>
					</clipPath>
					
						<linearGradient id="SVGID_3_" gradientUnits="userSpaceOnUse" x1="-1423.8403" y1="708.3203" x2="-1422.1002" y2="708.3203" gradientTransform="matrix(5.8606 19.1691 -19.1691 5.8606 21933.3105 23141.8379)">
						<stop  offset="0" style="stop-color:#FFFFFF"/>
						<stop  offset="1" style="stop-color:#D0D0D0"/>
					</linearGradient>
					<polygon clip-path="url(#SVGID_2_)" fill="url(#SVGID_3_)" points="28.771,-7.037 39.494,27.973 3.232,39.039 -7.488,4.027 
											"/>
				</g>
			</g>
			<path fill="none" stroke="#5C5C5C" stroke-width="0.4351" stroke-linejoin="round" d="M31.402,26.914
				c0,1.953-1.582,3.527-3.531,3.527H4.135c-1.951,0-3.537-1.574-3.537-3.527V5.086c0-1.945,1.586-3.527,3.537-3.527h23.736
				c1.949,0,3.531,1.582,3.531,3.527V26.914z"/>
			<g>
				<g>
					<defs>
						<path id="SVGID_4_" d="M4.23,2.57c-1.459,0-2.646,1.188-2.646,2.648v21.568c0,1.455,1.188,2.641,2.646,2.641h23.542
							c1.463,0,2.647-1.186,2.647-2.641V5.219c0-1.461-1.187-2.648-2.647-2.648L4.23,2.57L4.23,2.57z"/>
					</defs>
					<clipPath id="SVGID_5_">
						<use xlink:href="#SVGID_4_"  overflow="visible"/>
					</clipPath>
					
						<linearGradient id="SVGID_6_" gradientUnits="userSpaceOnUse" x1="-1426.4873" y1="662.8564" x2="-1424.7485" y2="662.8564" gradientTransform="matrix(0 15.4443 -15.4443 0 10253.3496 22033.6719)">
						<stop  offset="0" style="stop-color:#FFFFFF"/>
						<stop  offset="1" style="stop-color:#F3F3F3"/>
					</linearGradient>
					<rect x="1.584" y="2.57" clip-path="url(#SVGID_5_)" fill="url(#SVGID_6_)" width="28.836" height="26.857"/>
				</g>
			</g>
			<path fill="none" stroke="#FAFAFA" stroke-width="0.4351" stroke-linejoin="round" d="M30.42,26.787
				c0,1.455-1.189,2.643-2.648,2.643H4.229c-1.457,0-2.648-1.188-2.648-2.643V5.219c0-1.463,1.191-2.646,2.648-2.646h23.542
				c1.459,0,2.648,1.184,2.648,2.646V26.787z"/>
		</g>
		<path d="M27.303,25.902h0.355c0.219,0,0.396,0.178,0.396,0.397s-0.179,0.398-0.396,0.398h-0.725c-0.349,0-0.492-0.222-0.492-0.505
			v-7.381c0-0.28,0.145-0.502,0.492-0.502h0.725c0.219,0,0.396,0.179,0.396,0.398c0,0.219-0.179,0.398-0.396,0.398h-0.355V25.902z"
			/>
		<g enable-background="new    ">
			<path d="M14.418,11.23c0,0.955,0.609,1.701,1.648,1.701c1.229,0,1.543-0.756,1.89-0.756c0.168,0,0.336,0.146,0.336,0.409
				c0,0.451-1.144,1.144-2.236,1.144c-1.785,0-2.562-1.375-2.562-2.855c0-1.512,0.945-2.855,2.509-2.855
				c1.521,0,2.404,1.376,2.404,2.72c0,0.325-0.116,0.493-0.515,0.493H14.418z M17.484,10.537c0-0.797-0.463-1.721-1.48-1.721
				c-1.145-0.043-1.554,0.871-1.585,1.721H17.484z M15.542,7.199c-0.179,0.073-0.263,0.095-0.357,0.095
				c-0.272,0-0.398-0.284-0.398-0.441c0-0.126,0.073-0.272,0.367-0.388l1.207-0.494c0.179-0.073,0.263-0.094,0.357-0.094
				c0.272,0,0.398,0.283,0.398,0.44c0,0.126-0.073,0.272-0.367,0.389L15.542,7.199z"/>
		</g>
		<g enable-background="new    ">
			<path d="M14.418,23.395c0,0.955,0.609,1.701,1.648,1.701c1.229,0,1.543-0.756,1.89-0.756c0.168,0,0.336,0.146,0.336,0.409
				c0,0.451-1.144,1.144-2.236,1.144c-1.785,0-2.562-1.375-2.562-2.855c0-1.512,0.945-2.855,2.509-2.855
				c1.521,0,2.404,1.376,2.404,2.72c0,0.325-0.116,0.493-0.515,0.493H14.418z M17.484,22.701c0-0.797-0.463-1.721-1.48-1.721
				c-1.145-0.043-1.554,0.871-1.585,1.721H17.484z M15.153,18.87c-0.294-0.116-0.367-0.263-0.367-0.389
				c0-0.157,0.126-0.44,0.398-0.44c0.095,0,0.179,0.021,0.357,0.094l1.207,0.494c0.294,0.115,0.367,0.262,0.367,0.388
				c0,0.157-0.126,0.441-0.398,0.441c-0.095,0-0.179-0.021-0.357-0.095L15.153,18.87z"/>
		</g>
	</g>
</g>
<g id="Layer_5">
</g>
</svg>
