<?xml version="1.0" encoding="utf-8"?>
<!-- Generator: Adobe Illustrator 16.0.0, SVG Export Plug-In . SVG Version: 6.00 Build 0)  -->
<!DOCTYPE svg PUBLIC "-//W3C//DTD SVG 1.1//EN" "http://www.w3.org/Graphics/SVG/1.1/DTD/svg11.dtd">
<svg version="1.1" id="Layer_1" xmlns="http://www.w3.org/2000/svg" xmlns:xlink="http://www.w3.org/1999/xlink" x="0px" y="0px"
	 width="32px" height="32px" viewBox="0 0 32 32" enable-background="new 0 0 32 32" xml:space="preserve">
<g id="Layer_3" display="none">
</g>
<g id="Layer_2">
</g>
<g id="Layer_1_1_">
	<g>
		<g>
			<g>
				<g>
					<defs>
						<path id="SVGID_1_" d="M4.135,1.559c-1.953,0-3.533,1.582-3.533,3.527v21.828c0,1.951,1.58,3.527,3.533,3.527h23.734
							c1.951,0,3.531-1.576,3.531-3.527V5.086c0-1.945-1.58-3.527-3.531-3.527H4.135z"/>
					</defs>
					<clipPath id="SVGID_2_">
						<use xlink:href="#SVGID_1_"  overflow="visible"/>
					</clipPath>
					
						<linearGradient id="SVGID_3_" gradientUnits="userSpaceOnUse" x1="-772.4814" y1="739.8555" x2="-770.7413" y2="739.8555" gradientTransform="matrix(5.8606 19.1691 -19.1691 5.8606 18720.4512 10471.0566)">
						<stop  offset="0" style="stop-color:#FFFFFF"/>
						<stop  offset="1" style="stop-color:#D0D0D0"/>
					</linearGradient>
					<polygon clip-path="url(#SVGID_2_)" fill="url(#SVGID_3_)" points="28.771,-7.037 39.494,27.973 3.232,39.039 -7.488,4.027 
											"/>
				</g>
			</g>
			<path fill="none" stroke="#5C5C5C" stroke-width="0.4351" stroke-linejoin="round" d="M31.402,26.914
				c0,1.953-1.582,3.527-3.531,3.527H4.135c-1.951,0-3.537-1.574-3.537-3.527V5.086c0-1.945,1.586-3.527,3.537-3.527h23.736
				c1.949,0,3.531,1.582,3.531,3.527V26.914z"/>
			<g>
				<g>
					<defs>
						<path id="SVGID_4_" d="M4.23,2.57c-1.459,0-2.646,1.188-2.646,2.648v21.568c0,1.455,1.188,2.641,2.646,2.641h23.542
							c1.463,0,2.647-1.186,2.647-2.641V5.219c0-1.461-1.187-2.648-2.647-2.648L4.23,2.57L4.23,2.57z"/>
					</defs>
					<clipPath id="SVGID_5_">
						<use xlink:href="#SVGID_4_"  overflow="visible"/>
					</clipPath>
					
						<linearGradient id="SVGID_6_" gradientUnits="userSpaceOnUse" x1="-765.4873" y1="705.6553" x2="-763.7485" y2="705.6553" gradientTransform="matrix(0 15.4443 -15.4443 0 10914.3496 11824.9922)">
						<stop  offset="0" style="stop-color:#FFFFFF"/>
						<stop  offset="1" style="stop-color:#F3F3F3"/>
					</linearGradient>
					<rect x="1.584" y="2.57" clip-path="url(#SVGID_5_)" fill="url(#SVGID_6_)" width="28.836" height="26.857"/>
				</g>
			</g>
			<path fill="none" stroke="#FAFAFA" stroke-width="0.4351" stroke-linejoin="round" d="M30.42,26.787
				c0,1.455-1.189,2.643-2.648,2.643H4.229c-1.457,0-2.648-1.188-2.648-2.643V5.219c0-1.463,1.191-2.646,2.648-2.646h23.542
				c1.459,0,2.648,1.184,2.648,2.646V26.787z"/>
		</g>
		<path d="M25.758,14.438h-3.992v4.275h3.992l1.434-2.145L25.758,14.438z M25.219,17.543l-0.375,0.375l-0.926-0.969l-0.934,0.969
			l-0.373-0.375l0.953-0.965L22.611,15.6l0.373-0.371l0.934,0.975l0.926-0.975l0.375,0.371l-0.934,0.979L25.219,17.543z"/>
		<polygon points="26.051,13.914 21.248,13.914 21.248,19.229 26.051,19.229 27.816,16.568 		"/>
		<polygon fill="#FAFAFA" points="24.844,15.229 23.918,16.203 22.984,15.229 22.611,15.6 23.564,16.578 22.611,17.543 
			22.984,17.918 23.918,16.949 24.844,17.918 25.219,17.543 24.285,16.578 25.219,15.6 		"/>
		<g enable-background="new    ">
			<path d="M5.989,18.385h1.728c0.204,0,0.351,0.105,0.351,0.334s-0.147,0.334-0.351,0.334H5.655c-0.269,0-0.383-0.171-0.383-0.391
				v-5.02c0-0.221,0.114-0.392,0.383-0.392h2.062c0.204,0,0.351,0.106,0.351,0.334c0,0.229-0.147,0.334-0.351,0.334H5.989v1.899
				h1.573c0.204,0,0.351,0.105,0.351,0.334c0,0.228-0.147,0.334-0.351,0.334H5.989V18.385z"/>
			<path d="M8.893,15.052c0-0.236,0.139-0.383,0.358-0.383c0.22,0,0.358,0.146,0.358,0.383v0.171l0.017,0.017
				c0.318-0.407,0.766-0.57,1.198-0.57c0.668,0,1.507,0.424,1.507,1.646v2.404c0,0.236-0.139,0.383-0.358,0.383
				c-0.22,0-0.358-0.146-0.358-0.383v-2.363c0-0.758-0.53-1.067-1.002-1.067s-1.002,0.31-1.002,1.067v2.363
				c0,0.236-0.138,0.383-0.358,0.383c-0.22,0-0.358-0.146-0.358-0.383V15.052z"/>
			<path d="M13.507,13.781c0-0.236,0.139-0.384,0.358-0.384c0.22,0,0.359,0.147,0.359,0.384v0.937h0.293
				c0.236,0,0.359,0.114,0.359,0.31s-0.123,0.31-0.359,0.31h-0.293v3.382c0,0.236-0.139,0.383-0.359,0.383
				c-0.22,0-0.358-0.146-0.358-0.383v-3.382h-0.293c-0.236,0-0.358-0.114-0.358-0.31s0.122-0.31,0.358-0.31h0.293V13.781z"/>
			<path d="M16.345,18.719c0,0.236-0.139,0.383-0.359,0.383c-0.22,0-0.358-0.146-0.358-0.383v-3.382h-0.293
				c-0.236,0-0.358-0.114-0.358-0.31s0.122-0.31,0.358-0.31h0.293v-1.019c0-0.627,0.432-0.937,0.954-0.937h0.22
				c0.188,0,0.407,0.113,0.407,0.31c0,0.195-0.122,0.31-0.391,0.31h-0.18c-0.22,0-0.293,0.105-0.293,0.285v1.051h0.448
				c0.236,0,0.358,0.114,0.358,0.31s-0.122,0.31-0.358,0.31h-0.448V18.719z"/>
			<path d="M18.057,18.271c0.229,0,0.416,0.188,0.416,0.416c0,0.228-0.188,0.415-0.416,0.415s-0.416-0.188-0.416-0.415
				C17.641,18.458,17.828,18.271,18.057,18.271z"/>
		</g>
	</g>
</g>
<g id="Language_specific">
</g>
<g id="Layer_5">
</g>
</svg>
