<?xml version="1.0" encoding="utf-8"?>
<!-- Generator: Adobe Illustrator 16.0.4, SVG Export Plug-In . SVG Version: 6.00 Build 0)  -->
<!DOCTYPE svg PUBLIC "-//W3C//DTD SVG 1.1//EN" "http://www.w3.org/Graphics/SVG/1.1/DTD/svg11.dtd">
<svg version="1.1" id="Reference" xmlns="http://www.w3.org/2000/svg" xmlns:xlink="http://www.w3.org/1999/xlink" x="0px" y="0px"
	 width="32px" height="32px" viewBox="0 0 32 32" enable-background="new 0 0 32 32" xml:space="preserve">
<g>
	<g>
		<g>
			<defs>
				<path id="SVGID_799_" d="M-27.865,1.805c-1.952,0-3.533,1.582-3.533,3.527V27.16c0,1.951,1.581,3.527,3.533,3.527h23.734
					c1.952,0,3.532-1.576,3.532-3.527V5.332c0-1.945-1.58-3.527-3.532-3.527H-27.865z"/>
			</defs>
			<clipPath id="SVGID_2_">
				<use xlink:href="#SVGID_799_"  overflow="visible"/>
			</clipPath>
			
				<linearGradient id="SVGID_3_" gradientUnits="userSpaceOnUse" x1="-413.4277" y1="-1305.2285" x2="-411.6876" y2="-1305.2285" gradientTransform="matrix(5.8606 19.1691 19.1691 -5.8606 27421.8613 275.147)">
				<stop  offset="0" style="stop-color:#FFFFFF"/>
				<stop  offset="1" style="stop-color:#D0D0D0"/>
			</linearGradient>
			<polygon clip-path="url(#SVGID_2_)" fill="url(#SVGID_3_)" points="-3.229,-6.791 7.494,28.219 -28.768,39.285 -39.488,4.273 			
				"/>
		</g>
	</g>
</g>
<g>
	<g>
		<g>
			<defs>
				<path id="SVGID_805_" d="M36.135,1.805c-1.952,0-3.533,1.582-3.533,3.527V27.16c0,1.951,1.581,3.527,3.533,3.527h23.734
					c1.952,0,3.532-1.576,3.532-3.527V5.332c0-1.945-1.58-3.527-3.532-3.527H36.135z"/>
			</defs>
			<clipPath id="SVGID_5_">
				<use xlink:href="#SVGID_805_"  overflow="visible"/>
			</clipPath>
			
				<linearGradient id="SVGID_6_" gradientUnits="userSpaceOnUse" x1="-412.4941" y1="-1302.1748" x2="-410.754" y2="-1302.1748" gradientTransform="matrix(5.8606 19.1691 19.1691 -5.8606 27421.8613 275.147)">
				<stop  offset="0" style="stop-color:#FFFFFF"/>
				<stop  offset="1" style="stop-color:#D0D0D0"/>
			</linearGradient>
			<polygon clip-path="url(#SVGID_5_)" fill="url(#SVGID_6_)" points="60.771,-6.791 71.494,28.219 35.232,39.285 24.512,4.273 			
				"/>
		</g>
	</g>
</g>
<g>
	<g>
		<g>
			<defs>
				<path id="SVGID_835_" d="M4.135,1.805c-1.952,0-3.533,1.582-3.533,3.527V27.16c0,1.951,1.581,3.527,3.533,3.527h23.734
					c1.952,0,3.532-1.576,3.532-3.527V5.332c0-1.945-1.58-3.527-3.532-3.527H4.135z"/>
			</defs>
			<clipPath id="SVGID_8_">
				<use xlink:href="#SVGID_835_"  overflow="visible"/>
			</clipPath>
			
				<linearGradient id="SVGID_9_" gradientUnits="userSpaceOnUse" x1="-412.9609" y1="-1303.7012" x2="-411.2208" y2="-1303.7012" gradientTransform="matrix(5.8606 19.1691 19.1691 -5.8606 27421.8613 275.147)">
				<stop  offset="0" style="stop-color:#FFFFFF"/>
				<stop  offset="1" style="stop-color:#D0D0D0"/>
			</linearGradient>
			<polygon clip-path="url(#SVGID_8_)" fill="url(#SVGID_9_)" points="28.771,-6.791 39.494,28.219 3.232,39.285 -7.488,4.273 			
				"/>
		</g>
		<path fill="none" stroke="#5C5C5C" stroke-width="0.4351" stroke-linejoin="round" d="M31.403,27.16
			c0,1.953-1.582,3.527-3.532,3.527H4.136c-1.951,0-3.538-1.574-3.538-3.527V5.332c0-1.945,1.587-3.527,3.538-3.527h23.735
			c1.95,0,3.532,1.582,3.532,3.527V27.16z"/>
		<g>
			<defs>
				<path id="SVGID_838_" d="M4.23,2.816c-1.459,0-2.646,1.188-2.646,2.648v21.568c0,1.455,1.188,2.641,2.646,2.641h23.542
					c1.462,0,2.648-1.186,2.648-2.641V5.465c0-1.461-1.187-2.648-2.648-2.648H4.23z"/>
			</defs>
			<clipPath id="SVGID_11_">
				<use xlink:href="#SVGID_838_"  overflow="visible"/>
			</clipPath>
			
				<linearGradient id="SVGID_12_" gradientUnits="userSpaceOnUse" x1="-393.7231" y1="-1275.6729" x2="-391.9844" y2="-1275.6729" gradientTransform="matrix(0 15.4443 15.4443 0 19717.8809 6083.5991)">
				<stop  offset="0" style="stop-color:#FFFFFF"/>
				<stop  offset="1" style="stop-color:#F3F3F3"/>
			</linearGradient>
			<rect x="1.584" y="2.816" clip-path="url(#SVGID_11_)" fill="url(#SVGID_12_)" width="28.837" height="26.857"/>
		</g>
		<path fill="none" stroke="#FAFAFA" stroke-width="0.4351" stroke-linejoin="round" d="M30.421,27.033
			c0,1.455-1.19,2.643-2.648,2.643H4.229c-1.457,0-2.647-1.188-2.647-2.643V5.465c0-1.463,1.19-2.646,2.647-2.646h23.544
			c1.458,0,2.648,1.184,2.648,2.646V27.033z"/>
	</g>
	<g>
		<path d="M9.64,11.049l0.068-0.092c0.526-0.709,0.788-1.414,1.131-1.414c0.228,0,0.423,0.113,0.423,0.34
			c0,0.309-0.238,0.846-1.062,1.828l0.993,1.174c0.139,0.16,0.205,0.266,0.205,0.436c0,0.238-0.179,0.412-0.409,0.412
			c-0.174,0-0.289-0.059-0.387-0.184l-0.985-1.131c-0.752,0.949-1.644,1.314-2.513,1.314c-1.324,0-2.501-0.869-2.501-2.363
			c0-1.383,0.686-1.979,1.816-2.662C5.962,8.238,5.514,7.668,5.514,7.119c0-1.199,0.894-1.656,1.989-1.656
			c0.959,0,1.783,0.607,1.783,1.439c0,1.039-0.731,1.586-1.462,1.998L9.64,11.049z M7.197,12.795c0.693,0,1.22-0.275,1.857-1.039
			L6.976,9.359c-1.057,0.604-1.367,1.152-1.367,1.893C5.608,12.098,6.119,12.795,7.197,12.795 M7.275,8.271
			c0.46-0.262,1.076-0.686,1.076-1.199c0-0.545-0.471-0.811-0.93-0.811c-0.489,0-0.896,0.275-0.896,0.834
			C6.525,7.438,6.879,7.828,7.275,8.271"/>
		<path d="M6.08,19.732c-0.239,0-0.433-0.193-0.433-0.432c0-0.24,0.193-0.436,0.433-0.436h4.124c0.311,0,0.512,0.08,0.512,0.318
			c0,0.16-0.069,0.32-0.191,0.605l-3.039,6.91c-0.136,0.32-0.387,0.365-0.605,0.365c-0.136,0-0.375-0.125-0.375-0.387
			c0-0.082,0.036-0.24,0.16-0.539l2.841-6.383v-0.023H6.08z"/>
	</g>
	<path d="M25.105,24.813c0,0.379-0.311,0.689-0.689,0.689c-0.38,0-0.688-0.311-0.688-0.689s0.309-1.293,0.688-1.293"/>
</g>
</svg>
