<?xml version="1.0" encoding="utf-8"?>
<!-- Generator: Adobe Illustrator 16.0.0, SVG Export Plug-In . SVG Version: 6.00 Build 0)  -->
<!DOCTYPE svg PUBLIC "-//W3C//DTD SVG 1.1//EN" "http://www.w3.org/Graphics/SVG/1.1/DTD/svg11.dtd">
<svg version="1.1" id="Reference" xmlns="http://www.w3.org/2000/svg" xmlns:xlink="http://www.w3.org/1999/xlink" x="0px" y="0px"
	 width="32px" height="32px" viewBox="0 0 32 32" enable-background="new 0 0 32 32" xml:space="preserve">
<g>
	<g>
		<g>
			<g>
				<defs>
					<path id="SVGID_1_" d="M4.135,1.57c-1.952,0-3.533,1.582-3.533,3.527v21.828c0,1.951,1.581,3.527,3.533,3.527h23.734
						c1.951,0,3.531-1.576,3.531-3.527V5.098c0-1.945-1.58-3.527-3.531-3.527L4.135,1.57L4.135,1.57z"/>
				</defs>
				<clipPath id="SVGID_2_">
					<use xlink:href="#SVGID_1_"  overflow="visible"/>
				</clipPath>
				
					<linearGradient id="SVGID_3_" gradientUnits="userSpaceOnUse" x1="-616.1621" y1="1492.457" x2="-614.422" y2="1492.457" gradientTransform="matrix(5.8606 19.1691 -19.1691 5.8606 32231.0449 3063.8687)">
					<stop  offset="0" style="stop-color:#FFFFFF"/>
					<stop  offset="1" style="stop-color:#D0D0D0"/>
				</linearGradient>
				<polygon clip-path="url(#SVGID_2_)" fill="url(#SVGID_3_)" points="28.771,-7.025 39.494,27.984 3.232,39.051 -7.488,4.039 				
					"/>
			</g>
		</g>
		<path fill="none" stroke="#5C5C5C" stroke-width="0.4351" stroke-linejoin="round" d="M31.402,26.926
			c0,1.953-1.582,3.527-3.531,3.527H4.136c-1.951,0-3.538-1.574-3.538-3.527V5.098c0-1.945,1.587-3.527,3.538-3.527h23.735
			c1.949,0,3.531,1.582,3.531,3.527V26.926z"/>
		<g>
			<g>
				<defs>
					<path id="SVGID_4_" d="M4.23,2.582c-1.459,0-2.646,1.188-2.646,2.648v21.568c0,1.455,1.188,2.642,2.646,2.642h23.542
						c1.463,0,2.648-1.187,2.648-2.642V5.23c0-1.461-1.188-2.648-2.648-2.648H4.23z"/>
				</defs>
				<clipPath id="SVGID_5_">
					<use xlink:href="#SVGID_4_"  overflow="visible"/>
				</clipPath>
				
					<linearGradient id="SVGID_6_" gradientUnits="userSpaceOnUse" x1="-594.8315" y1="1449.6191" x2="-593.0923" y2="1449.6191" gradientTransform="matrix(0 15.4443 -15.4443 0 22404.3496 9189.3438)">
					<stop  offset="0" style="stop-color:#FFFFFF"/>
					<stop  offset="1" style="stop-color:#F3F3F3"/>
				</linearGradient>
				<rect x="1.584" y="2.582" clip-path="url(#SVGID_5_)" fill="url(#SVGID_6_)" width="28.837" height="26.857"/>
			</g>
		</g>
		<path fill="none" stroke="#FAFAFA" stroke-width="0.4351" stroke-linejoin="round" d="M30.421,26.799
			c0,1.455-1.19,2.643-2.647,2.643H4.229c-1.457,0-2.647-1.188-2.647-2.643V5.23c0-1.463,1.19-2.646,2.647-2.646h23.544
			c1.457,0,2.647,1.184,2.647,2.646V26.799z"/>
	</g>
	<path d="M6.836,14.354c0,0.437-0.211,0.659-0.546,0.659c-0.336,0-0.549-0.223-0.549-0.659V6.673c0-0.438,0.213-0.659,0.549-0.659
		c0.335,0,0.546,0.221,0.546,0.659v3.356h4.663V6.673c0-0.438,0.212-0.659,0.55-0.659c0.333,0,0.543,0.221,0.543,0.659v7.682
		c0,0.437-0.21,0.659-0.543,0.659c-0.338,0-0.55-0.223-0.55-0.659v-3.38H6.836V14.354z"/>
	<g enable-background="new    ">
		<path d="M20.486,19.05c0.472-0.079,1.09-0.146,1.875-0.146c0.967,0,1.674,0.225,2.123,0.629c0.416,0.359,0.662,0.909,0.662,1.583
			c0,0.685-0.201,1.224-0.584,1.617c-0.516,0.55-1.358,0.831-2.312,0.831c-0.293,0-0.562-0.012-0.787-0.067v3.032h-0.977V19.05z
			 M21.463,22.699c0.214,0.057,0.483,0.079,0.809,0.079c1.18,0,1.898-0.573,1.898-1.617c0-0.999-0.707-1.482-1.785-1.482
			c-0.428,0-0.753,0.034-0.922,0.079V22.699z"/>
	</g>
</g>
</svg>
