<?xml version="1.0" encoding="utf-8"?>
<!-- Generator: Adobe Illustrator 16.0.0, SVG Export Plug-In . SVG Version: 6.00 Build 0)  -->
<!DOCTYPE svg PUBLIC "-//W3C//DTD SVG 1.1//EN" "http://www.w3.org/Graphics/SVG/1.1/DTD/svg11.dtd">
<svg version="1.1" id="Layer_1" xmlns="http://www.w3.org/2000/svg" xmlns:xlink="http://www.w3.org/1999/xlink" x="0px" y="0px"
	 width="32px" height="32px" viewBox="0 0 32 32" enable-background="new 0 0 32 32" xml:space="preserve">
<g id="Layer_3" display="none">
</g>
<g id="Layer_2">
</g>
<g id="Layer_1_1_">
</g>
<g id="Language_specific">
	<g>
		<g>
			<g>
				<g>
					<defs>
						<path id="SVGID_1_" d="M4.135,1.559c-1.953,0-3.533,1.582-3.533,3.527v21.828c0,1.951,1.58,3.527,3.533,3.527h23.734
							c1.951,0,3.531-1.576,3.531-3.527V5.086c0-1.945-1.58-3.527-3.531-3.527H4.135z"/>
					</defs>
					<clipPath id="SVGID_2_">
						<use xlink:href="#SVGID_1_"  overflow="visible"/>
					</clipPath>
					
						<linearGradient id="SVGID_3_" gradientUnits="userSpaceOnUse" x1="-1501.688" y1="704.5508" x2="-1499.9479" y2="704.5508" gradientTransform="matrix(5.8606 19.1691 -19.1691 5.8606 22317.2949 24656.1973)">
						<stop  offset="0" style="stop-color:#FFFFFF"/>
						<stop  offset="1" style="stop-color:#D0D0D0"/>
					</linearGradient>
					<polygon clip-path="url(#SVGID_2_)" fill="url(#SVGID_3_)" points="28.771,-7.037 39.494,27.973 3.232,39.039 -7.488,4.027 
											"/>
				</g>
			</g>
			<path fill="none" stroke="#5C5C5C" stroke-width="0.4351" stroke-linejoin="round" d="M31.402,26.914
				c0,1.953-1.582,3.527-3.531,3.527H4.135c-1.951,0-3.537-1.574-3.537-3.527V5.086c0-1.945,1.586-3.527,3.537-3.527h23.736
				c1.949,0,3.531,1.582,3.531,3.527V26.914z"/>
			<g>
				<g>
					<defs>
						<path id="SVGID_4_" d="M4.23,2.57c-1.459,0-2.646,1.188-2.646,2.648v21.568c0,1.455,1.188,2.641,2.646,2.641h23.542
							c1.463,0,2.647-1.186,2.647-2.641V5.219c0-1.461-1.187-2.648-2.647-2.648L4.23,2.57L4.23,2.57z"/>
					</defs>
					<clipPath id="SVGID_5_">
						<use xlink:href="#SVGID_4_"  overflow="visible"/>
					</clipPath>
					
						<linearGradient id="SVGID_6_" gradientUnits="userSpaceOnUse" x1="-1505.4873" y1="657.7412" x2="-1503.7485" y2="657.7412" gradientTransform="matrix(0 15.4443 -15.4443 0 10174.3496 23253.7734)">
						<stop  offset="0" style="stop-color:#FFFFFF"/>
						<stop  offset="1" style="stop-color:#F3F3F3"/>
					</linearGradient>
					<rect x="1.584" y="2.57" clip-path="url(#SVGID_5_)" fill="url(#SVGID_6_)" width="28.836" height="26.857"/>
				</g>
			</g>
			<path fill="none" stroke="#FAFAFA" stroke-width="0.4351" stroke-linejoin="round" d="M30.42,26.787
				c0,1.455-1.189,2.643-2.648,2.643H4.229c-1.457,0-2.648-1.188-2.648-2.643V5.219c0-1.463,1.191-2.646,2.648-2.646h23.542
				c1.459,0,2.648,1.184,2.648,2.646V26.787z"/>
		</g>
		<g enable-background="new    ">
			<path d="M16.137,12.76c0.053-0.011,0.116-0.032,0.221-0.032c0.462,0,0.725,0.336,0.725,0.577c0,0.641-0.494,0.903-1.166,0.903
				c-0.441,0-0.766-0.147-0.766-0.367c0-0.137,0.073-0.284,0.22-0.284c0.136,0,0.357,0.084,0.546,0.084
				c0.252,0,0.368-0.073,0.368-0.283c0-0.188-0.158-0.188-0.462-0.188c-0.263,0-0.315-0.147-0.315-0.2
				c0-0.073,0.042-0.168,0.105-0.262l0.252-0.367c-1.407-0.211-2.079-1.471-2.079-2.814c0-1.479,0.819-2.855,2.52-2.855
				c0.945,0,1.502,0.326,1.502,0.704c0,0.188-0.158,0.388-0.379,0.388c-0.356,0-0.493-0.293-1.123-0.293
				c-1.144,0-1.596,1.112-1.596,2.057c0,0.945,0.452,2.059,1.596,2.059c0.651,0,0.819-0.315,1.113-0.315
				c0.21,0,0.356,0.137,0.356,0.389c0,0.336-0.472,0.692-1.375,0.714L16.137,12.76z"/>
		</g>
		<g enable-background="new    ">
			<path d="M15.749,19.834c1.574,0,2.456,1.376,2.456,2.855c0,1.48-0.882,2.855-2.456,2.855c-1.575,0-2.457-1.375-2.457-2.855
				C13.292,21.21,14.174,19.834,15.749,19.834z M15.749,24.748c1.134,0,1.532-1.113,1.532-2.059c0-0.944-0.398-2.057-1.532-2.057
				s-1.533,1.112-1.533,2.057C14.216,23.635,14.615,24.748,15.749,24.748z M14.951,18.522c-0.294-0.116-0.368-0.263-0.368-0.389
				c0-0.157,0.126-0.44,0.399-0.44c0.095,0,0.179,0.021,0.357,0.094l1.208,0.494c0.294,0.115,0.367,0.262,0.367,0.388
				c0,0.157-0.126,0.441-0.398,0.441c-0.095,0-0.179-0.021-0.357-0.095L14.951,18.522z"/>
		</g>
		<g enable-background="new    ">
			<path d="M25.814,22.876c-0.035,0.125-0.07,0.249-0.07,0.365c0,0.151,0.07,0.258,0.249,0.258c0.569,0,1.174-0.845,1.174-1.762
				c0-1.379-1.165-2.17-2.437-2.17c-1.539,0-2.688,1.165-2.688,2.633c0,1.548,1.192,2.633,2.768,2.633
				c1.503,0,1.858-0.979,2.356-0.979c0.125,0,0.223,0.08,0.223,0.205c0,0.489-1.468,1.361-2.642,1.361
				c-1.877,0-3.381-1.406-3.381-3.221c0-1.806,1.521-3.221,3.363-3.221c1.681,0,3.113,1.077,3.113,2.651
				c0,1.726-1.415,2.473-2.207,2.473c-0.355,0-0.561-0.16-0.622-0.507h-0.019c-0.24,0.268-0.631,0.507-1.022,0.507
				c-0.765,0-1.343-0.631-1.343-1.396c0-1.13,0.809-2.304,2.01-2.304c0.436,0,0.81,0.187,1.041,0.667l0.115-0.355
				c0.062-0.196,0.17-0.258,0.356-0.258c0.142,0,0.284,0.053,0.284,0.195c0,0.062-0.018,0.134-0.07,0.32L25.814,22.876z
				 M24.143,23.428c0.881,0,1.21-1.21,1.21-1.708c0-0.436-0.223-0.641-0.667-0.641c-0.854,0-1.272,0.881-1.272,1.548
				C23.413,23.099,23.742,23.428,24.143,23.428z"/>
		</g>
	</g>
</g>
<g id="Layer_5">
</g>
</svg>
