<?xml version="1.0" encoding="utf-8"?>
<!-- Generator: Adobe Illustrator 16.0.0, SVG Export Plug-In . SVG Version: 6.00 Build 0)  -->
<!DOCTYPE svg PUBLIC "-//W3C//DTD SVG 1.1//EN" "http://www.w3.org/Graphics/SVG/1.1/DTD/svg11.dtd">
<svg version="1.1" id="Layer_1" xmlns="http://www.w3.org/2000/svg" xmlns:xlink="http://www.w3.org/1999/xlink" x="0px" y="0px"
	 width="32px" height="32px" viewBox="0 0 32 32" enable-background="new 0 0 32 32" xml:space="preserve">
<g id="Layer_3" display="none">
</g>
<g id="Layer_2">
</g>
<g id="Layer_1_1_">
</g>
<g id="Language_specific">
	<g>
		<g>
			<g>
				<g>
					<g>
						<defs>
							<path id="SVGID_1_" d="M4.135,1.559c-1.953,0-3.533,1.582-3.533,3.527v21.828c0,1.951,1.58,3.527,3.533,3.527h23.734
								c1.951,0,3.531-1.576,3.531-3.527V5.086c0-1.945-1.58-3.527-3.531-3.527H4.135z"/>
						</defs>
						<clipPath id="SVGID_2_">
							<use xlink:href="#SVGID_1_"  overflow="visible"/>
						</clipPath>
						
							<linearGradient id="SVGID_3_" gradientUnits="userSpaceOnUse" x1="-1515.2227" y1="-663.6846" x2="-1513.4825" y2="-663.6846" gradientTransform="matrix(5.8606 19.1691 19.1691 -5.8606 21613.2422 25155.1445)">
							<stop  offset="0" style="stop-color:#FFFFFF"/>
							<stop  offset="1" style="stop-color:#D0D0D0"/>
						</linearGradient>
						<polygon clip-path="url(#SVGID_2_)" fill="url(#SVGID_3_)" points="28.771,-7.037 39.494,27.973 3.232,39.039 -7.488,4.027 
													"/>
					</g>
				</g>
			</g>
			<path fill="none" stroke="#5C5C5C" stroke-width="0.4351" stroke-linejoin="round" d="M31.402,26.914
				c0,1.953-1.582,3.527-3.531,3.527H4.135c-1.951,0-3.537-1.574-3.537-3.527V5.086c0-1.945,1.586-3.527,3.537-3.527h23.736
				c1.949,0,3.531,1.582,3.531,3.527V26.914z"/>
			<g>
				<g>
					<g>
						<defs>
							<path id="SVGID_4_" d="M4.23,2.57c-1.459,0-2.646,1.188-2.646,2.648v21.568c0,1.455,1.188,2.641,2.646,2.641h23.542
								c1.463,0,2.647-1.186,2.647-2.641V5.219c0-1.461-1.187-2.648-2.647-2.648L4.23,2.57L4.23,2.57z"/>
						</defs>
						<clipPath id="SVGID_5_">
							<use xlink:href="#SVGID_4_"  overflow="visible"/>
						</clipPath>
						
							<linearGradient id="SVGID_6_" gradientUnits="userSpaceOnUse" x1="-1516.7969" y1="-605.5215" x2="-1515.0576" y2="-605.5215" gradientTransform="matrix(0 15.4443 15.4443 0 9367.8564 23428.4355)">
							<stop  offset="0" style="stop-color:#FFFFFF"/>
							<stop  offset="1" style="stop-color:#F3F3F3"/>
						</linearGradient>
						<rect x="1.584" y="2.57" clip-path="url(#SVGID_5_)" fill="url(#SVGID_6_)" width="28.836" height="26.857"/>
					</g>
				</g>
			</g>
			<path fill="none" stroke="#FAFAFA" stroke-width="0.4351" stroke-linejoin="round" d="M30.42,26.787
				c0,1.455-1.189,2.643-2.648,2.643H4.229c-1.457,0-2.648-1.188-2.648-2.643V5.219c0-1.463,1.191-2.646,2.648-2.646h23.542
				c1.459,0,2.647,1.184,2.647,2.646L30.42,26.787L30.42,26.787z"/>
		</g>
	</g>
</g>
<g id="Layer_5">
</g>
<path d="M13.148,20.447c-0.096,0.256-0.259,0.445-0.583,0.445c-0.311,0-0.566-0.189-0.566-0.502c0-0.16,0.122-0.473,0.162-0.594
	l2.986-7.963c0.149-0.416,0.393-0.727,0.854-0.727c0.459,0,0.703,0.311,0.847,0.727l2.99,7.963C19.876,19.92,20,20.23,20,20.391
	c0,0.312-0.258,0.502-0.566,0.502c-0.328,0-0.49-0.188-0.584-0.444l-0.623-1.729h-4.458L13.148,20.447z M16.013,12.488h-0.031
	l-1.847,5.202h3.731L16.013,12.488z"/>
<g enable-background="new    ">
	<path d="M15.999,8.824c0.631,0,1.143,0.511,1.143,1.142s-0.512,1.142-1.143,1.142c-0.63,0-1.142-0.511-1.142-1.142
		S15.369,8.824,15.999,8.824z M15.999,10.676c0.393,0,0.712-0.319,0.712-0.711s-0.319-0.711-0.712-0.711
		c-0.392,0-0.711,0.319-0.711,0.711S15.608,10.676,15.999,10.676z"/>
</g>
</svg>
