<?xml version="1.0" encoding="utf-8"?>
<!-- Generator: Adobe Illustrator 16.0.4, SVG Export Plug-In . SVG Version: 6.00 Build 0)  -->
<!DOCTYPE svg PUBLIC "-//W3C//DTD SVG 1.1//EN" "http://www.w3.org/Graphics/SVG/1.1/DTD/svg11.dtd">
<svg version="1.1" xmlns="http://www.w3.org/2000/svg" xmlns:xlink="http://www.w3.org/1999/xlink" x="0px" y="0px" width="74px"
	 height="32px" viewBox="0 0 74 32" enable-background="new 0 0 74 32" xml:space="preserve">
<g id="Layer_3" display="none">
</g>
<g id="Layer_2">
</g>
<g id="Layer_1">
	<g>
		<g>
			<g>
				<defs>
					<path id="SVGID_1711_" d="M4.816,4.201c-2.33,0-4.219,1.889-4.219,4.223v15.16c0,2.322,1.889,4.215,4.219,4.215h22.365
						c2.332,0,4.221-1.893,4.221-4.215V8.424c0-2.334-1.889-4.223-4.221-4.223H4.816z"/>
				</defs>
				<clipPath id="SVGID_2_">
					<use xlink:href="#SVGID_1711_"  overflow="visible"/>
				</clipPath>
				
					<linearGradient id="SVGID_3_" gradientUnits="userSpaceOnUse" x1="42.5889" y1="-1210.373" x2="44.7952" y2="-1210.373" gradientTransform="matrix(4.3973 14.3829 14.3829 -4.3973 17232.5137 -5934.8965)">
					<stop  offset="0" style="stop-color:#FFFFFF"/>
					<stop  offset="1" style="stop-color:#D0D0D0"/>
				</linearGradient>
				<polygon clip-path="url(#SVGID_2_)" fill="url(#SVGID_3_)" points="27.451,-6.129 38,25.781 3.818,38.129 -6,6.221 				"/>
			</g>
			<path fill="none" stroke="#5C5C5C" stroke-width="0.5198" stroke-linejoin="round" d="M31.402,23.582
				c0,2.324-1.891,4.217-4.217,4.217H4.814c-2.33,0-4.217-1.893-4.217-4.217V8.424c0-2.336,1.887-4.217,4.217-4.217h22.371
				c2.326,0,4.217,1.881,4.217,4.217V23.582z"/>
			<g>
				<defs>
					<path id="SVGID_1714_" d="M4.926,5.416c-1.742,0-3.156,1.418-3.156,3.164v14.84c0,1.742,1.414,3.164,3.156,3.164h22.141
						c1.744,0,3.16-1.422,3.16-3.164V8.58c0-1.746-1.416-3.164-3.16-3.164H4.926z"/>
				</defs>
				<clipPath id="SVGID_5_">
					<use xlink:href="#SVGID_1714_"  overflow="visible"/>
				</clipPath>
				
					<linearGradient id="SVGID_6_" gradientUnits="userSpaceOnUse" x1="90.9097" y1="-1184.3545" x2="92.9888" y2="-1184.3545" gradientTransform="matrix(0 10.1826 10.1826 0 12075.8066 -920.2825)">
					<stop  offset="0" style="stop-color:#FFFFFF"/>
					<stop  offset="1" style="stop-color:#F3F3F3"/>
				</linearGradient>
				<rect x="1.77" y="5.416" clip-path="url(#SVGID_5_)" fill="url(#SVGID_6_)" width="28.457" height="21.168"/>
			</g>
			<path fill="none" stroke="#FAFAFA" stroke-width="0.5198" stroke-linejoin="round" d="M30.227,23.424
				c0,1.742-1.416,3.16-3.162,3.16H4.93c-1.742,0-3.162-1.418-3.162-3.16V8.58c0-1.746,1.42-3.166,3.162-3.166h22.135
				c1.746,0,3.162,1.42,3.162,3.166V23.424z"/>
		</g>
		<g>
			<path d="M7.213,22.992H7.194c-0.247,0.475-0.713,0.721-1.404,0.721c-1.423,0-2.241-1.291-2.241-2.686s0.818-2.689,2.241-2.689
				c0.691,0,1.177,0.385,1.404,0.713h0.019V16.49c0-0.283,0.17-0.463,0.435-0.463c0.266,0,0.436,0.18,0.436,0.463v6.76
				c0,0.287-0.17,0.463-0.436,0.463c-0.265,0-0.435-0.176-0.435-0.463V22.992z M5.859,19.09c-1.066,0-1.441,1.049-1.441,1.938
				c0,0.891,0.375,1.936,1.441,1.936c1.069,0,1.443-1.045,1.443-1.936C7.303,20.139,6.929,19.09,5.859,19.09"/>
			<path d="M9.825,21.363c0,0.9,0.573,1.602,1.553,1.602c1.155,0,1.45-0.711,1.779-0.711c0.158,0,0.315,0.137,0.315,0.385
				c0,0.426-1.079,1.074-2.104,1.074c-1.681,0-2.415-1.291-2.415-2.686c0-1.426,0.89-2.686,2.363-2.686
				c1.434,0,2.264,1.291,2.264,2.557c0,0.307-0.108,0.465-0.484,0.465H9.825z M12.713,20.711c0-0.75-0.436-1.621-1.396-1.621
				c-1.076-0.037-1.463,0.82-1.492,1.621H12.713z"/>
			<path d="M15.284,23.25c0,0.287-0.168,0.467-0.437,0.467c-0.267,0-0.434-0.18-0.434-0.467v-6.76c0-0.283,0.167-0.463,0.434-0.463
				c0.269,0,0.437,0.18,0.437,0.463V23.25z"/>
			<path d="M16.985,21.363c0,0.9,0.57,1.602,1.55,1.602c1.158,0,1.453-0.711,1.781-0.711c0.155,0,0.313,0.137,0.313,0.385
				c0,0.426-1.077,1.074-2.104,1.074c-1.68,0-2.411-1.291-2.411-2.686c0-1.426,0.89-2.686,2.363-2.686
				c1.433,0,2.264,1.291,2.264,2.557c0,0.307-0.111,0.465-0.488,0.465H16.985z M19.87,20.711c0-0.75-0.435-1.621-1.393-1.621
				c-1.077-0.037-1.463,0.82-1.492,1.621H19.87z"/>
			<path d="M21.85,17.26c0-0.283,0.166-0.461,0.434-0.461c0.269,0,0.438,0.178,0.438,0.461v1.139h0.352
				c0.29,0,0.437,0.141,0.437,0.375c0,0.238-0.146,0.377-0.437,0.377h-0.352v4.1c0,0.287-0.17,0.463-0.438,0.463
				c-0.268,0-0.434-0.176-0.434-0.463v-4.1h-0.355c-0.287,0-0.435-0.139-0.435-0.377c0-0.234,0.147-0.375,0.435-0.375h0.355V17.26z"
				/>
			<path d="M24.696,21.363c0,0.9,0.57,1.602,1.554,1.602c1.154,0,1.45-0.711,1.776-0.711c0.16,0,0.319,0.137,0.319,0.385
				c0,0.426-1.078,1.074-2.106,1.074c-1.679,0-2.416-1.291-2.416-2.686c0-1.426,0.894-2.686,2.366-2.686
				c1.432,0,2.262,1.291,2.262,2.557c0,0.307-0.105,0.465-0.483,0.465H24.696z M27.582,20.711c0-0.75-0.435-1.621-1.393-1.621
				c-1.078-0.037-1.463,0.82-1.493,1.621H27.582z"/>
		</g>
	</g>
</g>
<g id="Language_specific">
	<g>
		<g>
			<g>
				<defs>
					<path id="SVGID_1825_" d="M46.816,4.201c-2.33,0-4.219,1.889-4.219,4.223v15.16c0,2.322,1.889,4.215,4.219,4.215h22.365
						c2.332,0,4.221-1.893,4.221-4.215V8.424c0-2.334-1.889-4.223-4.221-4.223H46.816z"/>
				</defs>
				<clipPath id="SVGID_8_">
					<use xlink:href="#SVGID_1825_"  overflow="visible"/>
				</clipPath>
				
					<linearGradient id="SVGID_9_" gradientUnits="userSpaceOnUse" x1="43.4053" y1="-1207.7031" x2="45.6116" y2="-1207.7031" gradientTransform="matrix(4.3973 14.3829 14.3829 -4.3973 17232.5137 -5934.8965)">
					<stop  offset="0" style="stop-color:#FFFFFF"/>
					<stop  offset="1" style="stop-color:#D0D0D0"/>
				</linearGradient>
				<polygon clip-path="url(#SVGID_8_)" fill="url(#SVGID_9_)" points="69.451,-6.129 80,25.781 45.818,38.129 36,6.221 				"/>
			</g>
			<path fill="none" stroke="#5C5C5C" stroke-width="0.5198" stroke-linejoin="round" d="M73.402,23.582
				c0,2.324-1.891,4.217-4.217,4.217H46.814c-2.33,0-4.217-1.893-4.217-4.217V8.424c0-2.336,1.887-4.217,4.217-4.217h22.371
				c2.326,0,4.217,1.881,4.217,4.217V23.582z"/>
			<g>
				<defs>
					<path id="SVGID_1828_" d="M46.926,5.416c-1.742,0-3.156,1.418-3.156,3.164v14.84c0,1.742,1.414,3.164,3.156,3.164h22.141
						c1.744,0,3.16-1.422,3.16-3.164V8.58c0-1.746-1.416-3.164-3.16-3.164H46.926z"/>
				</defs>
				<clipPath id="SVGID_11_">
					<use xlink:href="#SVGID_1828_"  overflow="visible"/>
				</clipPath>
				
					<linearGradient id="SVGID_12_" gradientUnits="userSpaceOnUse" x1="90.9097" y1="-1180.2295" x2="92.9888" y2="-1180.2295" gradientTransform="matrix(0 10.1826 10.1826 0 12075.8066 -920.2825)">
					<stop  offset="0" style="stop-color:#FFFFFF"/>
					<stop  offset="1" style="stop-color:#F3F3F3"/>
				</linearGradient>
				<rect x="43.77" y="5.416" clip-path="url(#SVGID_11_)" fill="url(#SVGID_12_)" width="28.457" height="21.168"/>
			</g>
			<path fill="none" stroke="#FAFAFA" stroke-width="0.5198" stroke-linejoin="round" d="M72.227,23.424
				c0,1.742-1.416,3.16-3.162,3.16H46.93c-1.742,0-3.162-1.418-3.162-3.16V8.58c0-1.746,1.42-3.166,3.162-3.166h22.135
				c1.746,0,3.162,1.42,3.162,3.166V23.424z"/>
		</g>
		<path d="M57.345,18.754l4.319-2.846c0.307-0.203,0.391-0.619,0.188-0.928c-0.204-0.307-0.616-0.396-0.925-0.188l-6.96,4.59
			l6.918,4.668c0.11,0.082,0.241,0.115,0.371,0.115c0.214,0,0.423-0.102,0.554-0.295c0.208-0.303,0.125-0.719-0.178-0.928
			l-4.229-2.854H70.57v-1.336H57.345z"/>
	</g>
	<line fill="none" stroke="#FFFFFF" stroke-miterlimit="10" x1="39.5" y1="1" x2="33.5" y2="30.062"/>
	<line fill="none" stroke="#000000" stroke-miterlimit="10" x1="40.5" y1="1" x2="34.5" y2="31"/>
</g>
<g id="Layer_5">
</g>
</svg>
