<?xml version="1.0" encoding="utf-8"?>
<!-- Generator: Adobe Illustrator 16.0.4, SVG Export Plug-In . SVG Version: 6.00 Build 0)  -->
<!DOCTYPE svg PUBLIC "-//W3C//DTD SVG 1.1//EN" "http://www.w3.org/Graphics/SVG/1.1/DTD/svg11.dtd">
<svg version="1.1" xmlns="http://www.w3.org/2000/svg" xmlns:xlink="http://www.w3.org/1999/xlink" x="0px" y="0px" width="74px"
	 height="32px" viewBox="0 0 74 32" enable-background="new 0 0 74 32" xml:space="preserve">
<g id="Layer_3" display="none">
</g>
<g id="Layer_2">
</g>
<g id="Layer_1">
	<g>
		<g>
			<g>
				<defs>
					<path id="SVGID_1573_" d="M4.816,4.201c-2.33,0-4.219,1.889-4.219,4.223v15.16c0,2.322,1.889,4.215,4.219,4.215h22.365
						c2.332,0,4.221-1.893,4.221-4.215V8.424c0-2.334-1.889-4.223-4.221-4.223H4.816z"/>
				</defs>
				<clipPath id="SVGID_2_">
					<use xlink:href="#SVGID_1573_"  overflow="visible"/>
				</clipPath>
				
					<linearGradient id="SVGID_3_" gradientUnits="userSpaceOnUse" x1="35.8491" y1="-1102.3125" x2="38.0554" y2="-1102.3125" gradientTransform="matrix(4.3973 14.3829 14.3829 -4.3973 15707.9277 -5362.7822)">
					<stop  offset="0" style="stop-color:#FFFFFF"/>
					<stop  offset="1" style="stop-color:#D0D0D0"/>
				</linearGradient>
				<polygon clip-path="url(#SVGID_2_)" fill="url(#SVGID_3_)" points="27.451,-6.129 38,25.781 3.818,38.129 -6,6.221 				"/>
			</g>
			<path fill="none" stroke="#5C5C5C" stroke-width="0.5198" stroke-linejoin="round" d="M31.402,23.582
				c0,2.324-1.891,4.217-4.217,4.217H4.814c-2.33,0-4.217-1.893-4.217-4.217V8.424c0-2.336,1.887-4.217,4.217-4.217h22.371
				c2.326,0,4.217,1.881,4.217,4.217V23.582z"/>
			<g>
				<defs>
					<path id="SVGID_1576_" d="M4.926,5.416c-1.742,0-3.156,1.418-3.156,3.164v14.84c0,1.742,1.414,3.164,3.156,3.164h22.141
						c1.744,0,3.16-1.422,3.16-3.164V8.58c0-1.746-1.416-3.164-3.16-3.164H4.926z"/>
				</defs>
				<clipPath id="SVGID_5_">
					<use xlink:href="#SVGID_1576_"  overflow="visible"/>
				</clipPath>
				
					<linearGradient id="SVGID_6_" gradientUnits="userSpaceOnUse" x1="80.5" y1="-1078.3545" x2="82.5786" y2="-1078.3545" gradientTransform="matrix(0 10.1826 10.1826 0 10996.4502 -814.2825)">
					<stop  offset="0" style="stop-color:#FFFFFF"/>
					<stop  offset="1" style="stop-color:#F3F3F3"/>
				</linearGradient>
				<rect x="1.77" y="5.416" clip-path="url(#SVGID_5_)" fill="url(#SVGID_6_)" width="28.457" height="21.168"/>
			</g>
			<path fill="none" stroke="#FAFAFA" stroke-width="0.5198" stroke-linejoin="round" d="M30.227,23.424
				c0,1.742-1.416,3.16-3.162,3.16H4.93c-1.742,0-3.162-1.418-3.162-3.16V8.58c0-1.746,1.42-3.166,3.162-3.166h22.135
				c1.746,0,3.162,1.42,3.162,3.166V23.424z"/>
		</g>
		<g>
			<path d="M8.064,18.041c0.91,0,2.213,0.486,2.213,1.176c0,0.236-0.166,0.451-0.502,0.451c-0.475,0-0.662-0.678-1.711-0.678
				c-0.629,0-1.168,0.277-1.168,0.838c0,1.162,3.555,1.039,3.555,2.963c0,1.393-1.189,2.055-2.426,2.055
				c-1.402,0-2.506-0.703-2.506-1.266c0-0.299,0.217-0.5,0.455-0.5c0.488,0,0.887,0.812,2.09,0.812c0.801,0,1.287-0.449,1.287-0.898
				c0-1.303-3.555-1.229-3.555-3.078C5.797,18.693,6.949,18.041,8.064,18.041"/>
			<path d="M15.682,20.629c0-1.164-0.812-1.639-1.537-1.639c-0.727,0-1.539,0.475-1.539,1.639v3.627
				c0,0.363-0.215,0.588-0.551,0.588s-0.551-0.225-0.551-0.588v-8.555c0-0.363,0.215-0.586,0.551-0.586s0.551,0.223,0.551,0.586
				v3.189l0.023,0.023c0.488-0.623,1.178-0.875,1.84-0.875c1.023,0,2.316,0.648,2.316,2.529v3.688c0,0.363-0.215,0.588-0.551,0.588
				c-0.338,0-0.553-0.225-0.553-0.588V20.629z"/>
			<path d="M18.789,15.785c0.373,0,0.67,0.305,0.67,0.68c0,0.371-0.297,0.674-0.67,0.674c-0.377,0-0.678-0.303-0.678-0.674
				C18.111,16.09,18.412,15.785,18.789,15.785 M19.338,24.256c0,0.363-0.213,0.59-0.549,0.59c-0.34,0-0.551-0.227-0.551-0.59v-5.627
				c0-0.363,0.211-0.59,0.551-0.59c0.336,0,0.549,0.227,0.549,0.59V24.256z"/>
			<path d="M22.242,24.256c0,0.363-0.215,0.59-0.551,0.59c-0.34,0-0.551-0.227-0.551-0.59v-5.189h-0.451
				c-0.361,0-0.551-0.176-0.551-0.475c0-0.301,0.189-0.477,0.551-0.477h0.451v-1.561c0-0.967,0.662-1.439,1.463-1.439h0.338
				c0.287,0,0.625,0.174,0.625,0.473c0,0.303-0.189,0.477-0.6,0.477h-0.275c-0.342,0-0.449,0.162-0.449,0.438v1.613h0.688
				c0.363,0,0.547,0.176,0.547,0.477c0,0.299-0.184,0.475-0.547,0.475h-0.688V24.256z"/>
			<path d="M24.379,16.676c0-0.359,0.215-0.586,0.553-0.586s0.551,0.227,0.551,0.586v1.438h0.451c0.363,0,0.547,0.18,0.547,0.475
				c0,0.303-0.184,0.479-0.547,0.479h-0.451v5.189c0,0.363-0.213,0.588-0.551,0.588s-0.553-0.225-0.553-0.588v-5.189h-0.447
				c-0.365,0-0.551-0.176-0.551-0.479c0-0.295,0.186-0.475,0.551-0.475h0.447V16.676z"/>
		</g>
	</g>
</g>
<g id="Language_specific">
	<line fill="none" stroke="#FFFFFF" stroke-miterlimit="10" x1="39.5" y1="1" x2="33.5" y2="30.062"/>
	<line fill="none" stroke="#000000" stroke-miterlimit="10" x1="40.5" y1="1" x2="34.5" y2="31"/>
	<g>
		<g>
			<g>
				<defs>
					<path id="SVGID_1903_" d="M46.816,4.201c-2.33,0-4.219,1.889-4.219,4.223v15.16c0,2.322,1.889,4.215,4.219,4.215h22.365
						c2.332,0,4.221-1.893,4.221-4.215V8.424c0-2.334-1.889-4.223-4.221-4.223H46.816z"/>
				</defs>
				<clipPath id="SVGID_8_">
					<use xlink:href="#SVGID_1903_"  overflow="visible"/>
				</clipPath>
				
					<linearGradient id="SVGID_9_" gradientUnits="userSpaceOnUse" x1="36.6655" y1="-1099.6426" x2="38.8718" y2="-1099.6426" gradientTransform="matrix(4.3973 14.3829 14.3829 -4.3973 15707.9277 -5362.7822)">
					<stop  offset="0" style="stop-color:#FFFFFF"/>
					<stop  offset="1" style="stop-color:#D0D0D0"/>
				</linearGradient>
				<polygon clip-path="url(#SVGID_8_)" fill="url(#SVGID_9_)" points="69.451,-6.129 80,25.781 45.818,38.129 36,6.221 				"/>
			</g>
			<path fill="none" stroke="#5C5C5C" stroke-width="0.5198" stroke-linejoin="round" d="M73.402,23.582
				c0,2.324-1.891,4.217-4.217,4.217H46.814c-2.33,0-4.217-1.893-4.217-4.217V8.424c0-2.336,1.887-4.217,4.217-4.217h22.371
				c2.326,0,4.217,1.881,4.217,4.217V23.582z"/>
			<g>
				<defs>
					<path id="SVGID_1906_" d="M46.926,5.416c-1.742,0-3.156,1.418-3.156,3.164v14.84c0,1.742,1.414,3.164,3.156,3.164h22.141
						c1.744,0,3.16-1.422,3.16-3.164V8.58c0-1.746-1.416-3.164-3.16-3.164H46.926z"/>
				</defs>
				<clipPath id="SVGID_11_">
					<use xlink:href="#SVGID_1906_"  overflow="visible"/>
				</clipPath>
				
					<linearGradient id="SVGID_12_" gradientUnits="userSpaceOnUse" x1="80.5" y1="-1074.2295" x2="82.5786" y2="-1074.2295" gradientTransform="matrix(0 10.1826 10.1826 0 10996.4502 -814.2825)">
					<stop  offset="0" style="stop-color:#FFFFFF"/>
					<stop  offset="1" style="stop-color:#F3F3F3"/>
				</linearGradient>
				<rect x="43.77" y="5.416" clip-path="url(#SVGID_11_)" fill="url(#SVGID_12_)" width="28.457" height="21.168"/>
			</g>
			<path fill="none" stroke="#FAFAFA" stroke-width="0.5198" stroke-linejoin="round" d="M72.227,23.424
				c0,1.742-1.416,3.16-3.162,3.16H46.93c-1.742,0-3.162-1.418-3.162-3.16V8.58c0-1.746,1.42-3.166,3.162-3.166h22.135
				c1.746,0,3.162,1.42,3.162,3.166V23.424z"/>
		</g>
		<g>
			<path d="M54.863,25.02H48.67v-5.498l-3.594-0.02l6.73-5.338l6.701,5.357h-3.663L54.863,25.02z M54.271,24.373l0.016-5.43h2.534
				l-4.992-4.064l-5.056,4.064l2.512-0.018l0.011,5.463L54.271,24.373z"/>
		</g>
	</g>
</g>
<g id="Layer_5">
</g>
</svg>
