<?xml version="1.0" encoding="utf-8"?>
<!-- Generator: Adobe Illustrator 16.0.4, SVG Export Plug-In . SVG Version: 6.00 Build 0)  -->
<!DOCTYPE svg PUBLIC "-//W3C//DTD SVG 1.1//EN" "http://www.w3.org/Graphics/SVG/1.1/DTD/svg11.dtd">
<svg version="1.1" xmlns="http://www.w3.org/2000/svg" xmlns:xlink="http://www.w3.org/1999/xlink" x="0px" y="0px" width="32px"
	 height="32px" viewBox="0 0 32 32" enable-background="new 0 0 32 32" xml:space="preserve">
<g id="Layer_3" display="none">
</g>
<g id="Layer_2">
</g>
<g id="Layer_1">
</g>
<g id="Language_specific">
	<g>
		<g>
			<g>
				<defs>
					<path id="SVGID_853_" d="M-32.865,1.559c-1.953,0-3.533,1.582-3.533,3.527v21.828c0,1.951,1.58,3.527,3.533,3.527h23.734
						c1.951,0,3.531-1.576,3.531-3.527V5.086c0-1.945-1.58-3.527-3.531-3.527H-32.865z"/>
				</defs>
				<clipPath id="SVGID_2_">
					<use xlink:href="#SVGID_853_"  overflow="visible"/>
				</clipPath>
				
					<linearGradient id="SVGID_3_" gradientUnits="userSpaceOnUse" x1="-871.7153" y1="-635.4229" x2="-869.9752" y2="-635.4229" gradientTransform="matrix(5.8606 19.1691 19.1691 -5.8606 17263.1367 12985.3203)">
					<stop  offset="0" style="stop-color:#FFFFFF"/>
					<stop  offset="1" style="stop-color:#D0D0D0"/>
				</linearGradient>
				<polygon clip-path="url(#SVGID_2_)" fill="url(#SVGID_3_)" points="-8.229,-7.037 2.494,27.973 -33.768,39.039 -44.488,4.027 
									"/>
			</g>
		</g>
	</g>
	<g>
		<g>
			<g>
				<defs>
					<path id="SVGID_859_" d="M4.135,1.559c-1.953,0-3.533,1.582-3.533,3.527v21.828c0,1.951,1.58,3.527,3.533,3.527h23.734
						c1.951,0,3.531-1.576,3.531-3.527V5.086c0-1.945-1.58-3.527-3.531-3.527H4.135z"/>
				</defs>
				<clipPath id="SVGID_5_">
					<use xlink:href="#SVGID_859_"  overflow="visible"/>
				</clipPath>
				
					<linearGradient id="SVGID_6_" gradientUnits="userSpaceOnUse" x1="-871.1758" y1="-633.6582" x2="-869.4357" y2="-633.6582" gradientTransform="matrix(5.8606 19.1691 19.1691 -5.8606 17263.1367 12985.3203)">
					<stop  offset="0" style="stop-color:#FFFFFF"/>
					<stop  offset="1" style="stop-color:#D0D0D0"/>
				</linearGradient>
				<polygon clip-path="url(#SVGID_5_)" fill="url(#SVGID_6_)" points="28.771,-7.037 39.494,27.973 3.232,39.039 -7.488,4.027 				
					"/>
			</g>
			<path fill="none" stroke="#5C5C5C" stroke-width="0.4351" stroke-linejoin="round" d="M31.402,26.914
				c0,1.953-1.582,3.527-3.531,3.527H4.135c-1.951,0-3.537-1.574-3.537-3.527V5.086c0-1.945,1.586-3.527,3.537-3.527h23.736
				c1.949,0,3.531,1.582,3.531,3.527V26.914z"/>
			<g>
				<defs>
					<path id="SVGID_862_" d="M4.23,2.57c-1.459,0-2.646,1.188-2.646,2.648v21.568c0,1.455,1.188,2.641,2.646,2.641h23.541
						c1.463,0,2.648-1.186,2.648-2.641V5.219c0-1.461-1.186-2.648-2.648-2.648H4.23z"/>
				</defs>
				<clipPath id="SVGID_8_">
					<use xlink:href="#SVGID_862_"  overflow="visible"/>
				</clipPath>
				
					<linearGradient id="SVGID_9_" gradientUnits="userSpaceOnUse" x1="-869.1782" y1="-607.5713" x2="-867.4395" y2="-607.5713" gradientTransform="matrix(0 15.4443 15.4443 0 9399.5293 13426.4248)">
					<stop  offset="0" style="stop-color:#FFFFFF"/>
					<stop  offset="1" style="stop-color:#F3F3F3"/>
				</linearGradient>
				<rect x="1.584" y="2.57" clip-path="url(#SVGID_8_)" fill="url(#SVGID_9_)" width="28.836" height="26.857"/>
			</g>
			<path fill="none" stroke="#FAFAFA" stroke-width="0.4351" stroke-linejoin="round" d="M30.42,26.787
				c0,1.455-1.189,2.643-2.648,2.643H4.229c-1.457,0-2.648-1.188-2.648-2.643V5.219c0-1.463,1.191-2.646,2.648-2.646h23.543
				c1.459,0,2.648,1.184,2.648,2.646V26.787z"/>
		</g>
		<g>
			<path d="M18.012,25.301c0.234,0,0.424,0.189,0.424,0.422c0,0.236-0.189,0.428-0.424,0.428h-3.859
				c-0.414,0-0.537-0.234-0.537-0.402c0-0.125,0.045-0.215,0.215-0.447l2.75-3.682c0.334-0.436,0.582-0.93,0.582-1.41
				c0-0.727-0.549-1.242-1.264-1.242c-0.951,0-1.455,0.807-1.455,1.801c0,0.348-0.225,0.447-0.436,0.447
				c-0.316,0-0.482-0.189-0.482-0.604c0-1.32,0.896-2.494,2.539-2.494c1.32,0,2.148,0.949,2.148,1.98
				c0,0.459-0.031,0.973-0.547,1.645l-2.676,3.559H18.012z"/>
			<g>
				<path d="M26.529,22.264c-0.039,0.133-0.078,0.266-0.078,0.387c0,0.162,0.078,0.275,0.268,0.275c0.605,0,1.25-0.898,1.25-1.873
					c0-1.471-1.24-2.311-2.594-2.311c-1.639,0-2.859,1.238-2.859,2.803c0,1.645,1.268,2.803,2.943,2.803
					c1.598,0,1.979-1.043,2.51-1.043c0.133,0,0.234,0.086,0.234,0.219c0,0.521-1.561,1.447-2.811,1.447
					c-1.998,0-3.598-1.496-3.598-3.426c0-1.924,1.621-3.428,3.58-3.428c1.787,0,3.312,1.146,3.312,2.82
					c0,1.838-1.506,2.631-2.348,2.631c-0.379,0-0.596-0.168-0.662-0.539h-0.02c-0.256,0.285-0.674,0.539-1.088,0.539
					c-0.816,0-1.43-0.67-1.43-1.484c0-1.203,0.861-2.453,2.141-2.453c0.463,0,0.861,0.201,1.105,0.711l0.123-0.379
					c0.066-0.207,0.18-0.275,0.381-0.275c0.15,0,0.301,0.059,0.301,0.209c0,0.066-0.02,0.143-0.074,0.34L26.529,22.264z
					 M24.748,22.852c0.939,0,1.289-1.289,1.289-1.818c0-0.465-0.238-0.682-0.711-0.682c-0.906,0-1.355,0.936-1.355,1.646
					C23.971,22.498,24.322,22.852,24.748,22.852"/>
			</g>
			<path d="M14.908,5.729c0.111-0.209,0.234-0.412,0.523-0.412c0.236,0,0.449,0.178,0.449,0.426c0,0.123-0.035,0.234-0.125,0.412
				l-0.625,1.232C15.02,7.6,14.896,7.801,14.605,7.801c-0.234,0-0.447-0.18-0.447-0.426c0-0.125,0.033-0.236,0.125-0.414
				L14.908,5.729z M16.494,5.729c0.113-0.209,0.234-0.412,0.525-0.412c0.238,0,0.449,0.178,0.449,0.426
				c0,0.123-0.035,0.234-0.123,0.412l-0.627,1.232c-0.111,0.213-0.232,0.414-0.525,0.414c-0.236,0-0.447-0.18-0.447-0.426
				c0-0.125,0.033-0.236,0.121-0.414L16.494,5.729z"/>
		</g>
	</g>
</g>
<g id="Layer_5">
</g>
</svg>
