<?xml version="1.0" encoding="utf-8"?>
<!-- Generator: Adobe Illustrator 16.0.0, SVG Export Plug-In . SVG Version: 6.00 Build 0)  -->
<!DOCTYPE svg PUBLIC "-//W3C//DTD SVG 1.1//EN" "http://www.w3.org/Graphics/SVG/1.1/DTD/svg11.dtd">
<svg version="1.1" id="Reference" xmlns="http://www.w3.org/2000/svg" xmlns:xlink="http://www.w3.org/1999/xlink" x="0px" y="0px"
	 width="32px" height="32px" viewBox="0 0 32 32" enable-background="new 0 0 32 32" xml:space="preserve">
<g>
	<g>
		<g>
			<g>
				<defs>
					<path id="SVGID_1_" d="M4.135,1.57c-1.952,0-3.533,1.582-3.533,3.527v21.828c0,1.951,1.581,3.527,3.533,3.527h23.734
						c1.951,0,3.531-1.576,3.531-3.527V5.098c0-1.945-1.58-3.527-3.531-3.527L4.135,1.57L4.135,1.57z"/>
				</defs>
				<clipPath id="SVGID_2_">
					<use xlink:href="#SVGID_1_"  overflow="visible"/>
				</clipPath>
				
					<linearGradient id="SVGID_3_" gradientUnits="userSpaceOnUse" x1="-455.4424" y1="1565.0234" x2="-453.7023" y2="1565.0234" gradientTransform="matrix(5.8606 19.1691 -19.1691 5.8606 32680.1699 -442.2719)">
					<stop  offset="0" style="stop-color:#FFFFFF"/>
					<stop  offset="1" style="stop-color:#D0D0D0"/>
				</linearGradient>
				<polygon clip-path="url(#SVGID_2_)" fill="url(#SVGID_3_)" points="28.771,-7.025 39.494,27.984 3.232,39.051 -7.488,4.039 				
					"/>
			</g>
		</g>
		<path fill="none" stroke="#5C5C5C" stroke-width="0.4351" stroke-linejoin="round" d="M31.402,26.926
			c0,1.953-1.582,3.527-3.531,3.527H4.136c-1.951,0-3.538-1.574-3.538-3.527V5.098c0-1.945,1.587-3.527,3.538-3.527h23.735
			c1.949,0,3.531,1.582,3.531,3.527V26.926z"/>
		<g>
			<g>
				<defs>
					<path id="SVGID_4_" d="M4.23,2.582c-1.459,0-2.646,1.188-2.646,2.648v21.568c0,1.455,1.188,2.642,2.646,2.642h23.542
						c1.463,0,2.648-1.187,2.648-2.642V5.23c0-1.461-1.188-2.648-2.648-2.648H4.23z"/>
				</defs>
				<clipPath id="SVGID_5_">
					<use xlink:href="#SVGID_4_"  overflow="visible"/>
				</clipPath>
				
					<linearGradient id="SVGID_6_" gradientUnits="userSpaceOnUse" x1="-430.688" y1="1523.9795" x2="-428.9487" y2="1523.9795" gradientTransform="matrix(0 15.4443 -15.4443 0 23552.7871 6654.2578)">
					<stop  offset="0" style="stop-color:#FFFFFF"/>
					<stop  offset="1" style="stop-color:#F3F3F3"/>
				</linearGradient>
				<rect x="1.584" y="2.582" clip-path="url(#SVGID_5_)" fill="url(#SVGID_6_)" width="28.837" height="26.857"/>
			</g>
		</g>
		<path fill="none" stroke="#FAFAFA" stroke-width="0.4351" stroke-linejoin="round" d="M30.421,26.799
			c0,1.455-1.19,2.643-2.647,2.643H4.229c-1.457,0-2.647-1.188-2.647-2.643V5.23c0-1.463,1.19-2.646,2.647-2.646h23.544
			c1.457,0,2.647,1.184,2.647,2.646V26.799z"/>
	</g>
	<path d="M5.312,14.539c-0.05,0.387-0.298,0.473-0.583,0.473c-0.337,0-0.509-0.225-0.509-0.559c0-0.126,0.022-0.287,0.062-0.499
		l1.205-7.108c0.111-0.622,0.46-0.834,0.856-0.834c0.435,0,0.674,0.162,0.795,0.571l1.89,6.478h0.027l1.887-6.478
		c0.126-0.409,0.361-0.571,0.796-0.571c0.396,0,0.746,0.212,0.859,0.834l1.202,7.108c0.04,0.212,0.067,0.373,0.067,0.499
		c0,0.334-0.178,0.559-0.513,0.559c-0.282,0-0.534-0.086-0.585-0.473l-1.031-7.11h-0.022L9.6,14.563
		c-0.11,0.363-0.31,0.449-0.561,0.449c-0.247,0-0.445-0.086-0.559-0.449L6.372,7.429H6.344L5.312,14.539z"/>
	<g enable-background="new    ">
		<path d="M21.391,18.96v2.83c0.225-0.034,0.674-0.056,0.932-0.056c1.55,0,2.92,0.685,2.92,2.357c0,0.708-0.225,1.225-0.584,1.617
			c-0.617,0.652-1.674,0.888-2.718,0.888c-0.685,0-1.202-0.045-1.527-0.09V18.96H21.391z M21.391,25.777
			c0.225,0.045,0.471,0.056,0.809,0.056c1.089,0,2.021-0.528,2.021-1.685c0-1.19-0.955-1.64-2.033-1.64
			c-0.247,0-0.551,0.022-0.797,0.056V25.777z"/>
	</g>
</g>
</svg>
