<?xml version="1.0" encoding="utf-8"?>
<!-- Generator: Adobe Illustrator 16.0.0, SVG Export Plug-In . SVG Version: 6.00 Build 0)  -->
<!DOCTYPE svg PUBLIC "-//W3C//DTD SVG 1.1//EN" "http://www.w3.org/Graphics/SVG/1.1/DTD/svg11.dtd">
<svg version="1.1" id="Reference" xmlns="http://www.w3.org/2000/svg" xmlns:xlink="http://www.w3.org/1999/xlink" x="0px" y="0px"
	 width="32px" height="32px" viewBox="0 0 32 32" enable-background="new 0 0 32 32" xml:space="preserve">
<g>
	<g>
		<g>
			<g>
				<defs>
					<path id="SVGID_1_" d="M4.135,1.805c-1.952,0-3.533,1.582-3.533,3.527V27.16c0,1.951,1.581,3.527,3.533,3.527h23.734
						c1.951,0,3.531-1.576,3.531-3.527V5.332c0-1.945-1.58-3.527-3.531-3.527H4.135z"/>
				</defs>
				<clipPath id="SVGID_2_">
					<use xlink:href="#SVGID_1_"  overflow="visible"/>
				</clipPath>
				
					<linearGradient id="SVGID_3_" gradientUnits="userSpaceOnUse" x1="-622.2573" y1="1362.5957" x2="-620.5172" y2="1362.5957" gradientTransform="matrix(5.8606 19.1691 -19.1691 5.8606 29777.4199 3942.0249)">
					<stop  offset="0" style="stop-color:#FFFFFF"/>
					<stop  offset="1" style="stop-color:#D0D0D0"/>
				</linearGradient>
				<polygon clip-path="url(#SVGID_2_)" fill="url(#SVGID_3_)" points="28.771,-6.791 39.494,28.219 3.232,39.285 -7.488,4.273 				
					"/>
			</g>
		</g>
		<path fill="none" stroke="#5C5C5C" stroke-width="0.4351" stroke-linejoin="round" d="M31.402,27.16
			c0,1.953-1.582,3.527-3.531,3.527H4.136c-1.951,0-3.538-1.574-3.538-3.527V5.332c0-1.945,1.587-3.527,3.538-3.527h23.735
			c1.949,0,3.531,1.582,3.531,3.527V27.16z"/>
		<g>
			<g>
				<defs>
					<path id="SVGID_4_" d="M4.23,2.816c-1.459,0-2.646,1.188-2.646,2.648v21.568c0,1.454,1.188,2.641,2.646,2.641h23.542
						c1.463,0,2.648-1.187,2.648-2.641V5.465c0-1.461-1.188-2.648-2.648-2.648L4.23,2.816L4.23,2.816z"/>
				</defs>
				<clipPath id="SVGID_5_">
					<use xlink:href="#SVGID_4_"  overflow="visible"/>
				</clipPath>
				
					<linearGradient id="SVGID_6_" gradientUnits="userSpaceOnUse" x1="-603.1045" y1="1321.6191" x2="-601.3652" y2="1321.6191" gradientTransform="matrix(0 15.4443 -15.4443 0 20427.4746 9317.3438)">
					<stop  offset="0" style="stop-color:#FFFFFF"/>
					<stop  offset="1" style="stop-color:#F3F3F3"/>
				</linearGradient>
				<rect x="1.584" y="2.816" clip-path="url(#SVGID_5_)" fill="url(#SVGID_6_)" width="28.837" height="26.857"/>
			</g>
		</g>
		<path fill="none" stroke="#FAFAFA" stroke-width="0.4351" stroke-linejoin="round" d="M30.421,27.033
			c0,1.455-1.19,2.643-2.647,2.643H4.229c-1.457,0-2.647-1.188-2.647-2.643V5.465c0-1.463,1.19-2.646,2.647-2.646h23.544
			c1.457,0,2.647,1.184,2.647,2.646V27.033z"/>
	</g>
	<g enable-background="new    ">
		<path d="M8.278,18.381c1.051,0,1.795,0.719,1.795,1.323c0,0.201-0.114,0.402-0.351,0.402c-0.569,0-0.271-1.06-1.498-1.06
			c-0.561,0-1.025,0.263-1.025,0.735c0,1.13,3.109,1.008,3.109,2.908c0,0.587-0.403,1.174-0.955,1.48
			c0.385,0.263,0.569,0.596,0.569,1.033c0,0.867-0.963,1.366-1.839,1.357c-1.323-0.018-1.979-0.858-1.979-1.261
			c0-0.315,0.158-0.438,0.385-0.438c0.578,0,0.315,1.034,1.577,1.034c0.701,0,1.086-0.315,1.086-0.701
			c0-1.121-3.223-1.024-3.223-2.891c0-0.779,0.447-1.182,1.069-1.497c-0.403-0.298-0.569-0.543-0.569-0.99
			C6.43,18.907,7.192,18.381,8.278,18.381z M7.788,23.33l0.999,0.49c0.63-0.473,0.753-0.771,0.753-1.104
			c0-0.368-0.079-0.675-0.779-0.998L7.665,21.21c-0.517,0.22-0.963,0.491-0.963,1.034C6.702,22.699,7.096,22.988,7.788,23.33z"/>
	</g>
	<g enable-background="new    ">
		<path fill="none" stroke="#000000" stroke-width="0.1" d="M8.278,18.381c1.051,0,1.795,0.719,1.795,1.323
			c0,0.201-0.114,0.402-0.351,0.402c-0.569,0-0.271-1.06-1.498-1.06c-0.561,0-1.025,0.263-1.025,0.735
			c0,1.13,3.109,1.008,3.109,2.908c0,0.587-0.403,1.174-0.955,1.48c0.385,0.263,0.569,0.596,0.569,1.033
			c0,0.867-0.963,1.366-1.839,1.357c-1.323-0.018-1.979-0.858-1.979-1.261c0-0.315,0.158-0.438,0.385-0.438
			c0.578,0,0.315,1.034,1.577,1.034c0.701,0,1.086-0.315,1.086-0.701c0-1.121-3.223-1.024-3.223-2.891
			c0-0.779,0.447-1.182,1.069-1.497c-0.403-0.298-0.569-0.543-0.569-0.99C6.43,18.907,7.192,18.381,8.278,18.381z M7.788,23.33
			l0.999,0.49c0.63-0.473,0.753-0.771,0.753-1.104c0-0.368-0.079-0.675-0.779-0.998L7.665,21.21
			c-0.517,0.22-0.963,0.491-0.963,1.034C6.702,22.699,7.096,22.988,7.788,23.33z"/>
	</g>
	<g enable-background="new    ">
		<path d="M7.761,7.325c0-0.249,0.13-0.43,0.41-0.43s0.41,0.181,0.41,0.43v1.1h1.689c0.25,0,0.43,0.13,0.43,0.41
			c0,0.279-0.18,0.409-0.43,0.409H8.581v1.1c0,0.25-0.13,0.43-0.41,0.43s-0.41-0.18-0.41-0.43v-1.1H6.072
			c-0.25,0-0.43-0.13-0.43-0.409c0-0.28,0.18-0.41,0.43-0.41h1.689V7.325z M6.072,11.953c-0.25,0-0.43-0.13-0.43-0.41
			c0-0.279,0.18-0.409,0.43-0.409h4.198c0.25,0,0.43,0.13,0.43,0.409c0,0.28-0.18,0.41-0.43,0.41H6.072z"/>
	</g>
	<path d="M23.93,9.814L20.061,7.9c-0.162-0.084-0.332-0.178-0.332-0.395c0-0.219,0.166-0.385,0.34-0.385
		c0.123,0,0.291,0.082,0.512,0.188l4.055,2.029c0.273,0.135,0.375,0.27,0.375,0.477c0,0.209-0.102,0.344-0.375,0.48l-4.055,2.027
		c-0.221,0.105-0.389,0.189-0.512,0.189c-0.174,0-0.34-0.166-0.34-0.387c0-0.217,0.17-0.311,0.332-0.395L23.93,9.814z"/>
	<path d="M24.675,23.916c0.158,0.084,0.334,0.176,0.334,0.396c0,0.219-0.166,0.385-0.342,0.385c-0.123,0-0.293-0.084-0.513-0.188
		L20.1,22.48c-0.272-0.135-0.375-0.271-0.375-0.479c0-0.207,0.103-0.344,0.375-0.479l4.055-2.028c0.22-0.104,0.39-0.187,0.513-0.187
		c0.176,0,0.342,0.166,0.342,0.385c0,0.218-0.176,0.312-0.334,0.396l-3.866,1.914L24.675,23.916z"/>
</g>
</svg>
