<?xml version="1.0" encoding="utf-8"?>
<!-- Generator: Adobe Illustrator 16.0.0, SVG Export Plug-In . SVG Version: 6.00 Build 0)  -->
<!DOCTYPE svg PUBLIC "-//W3C//DTD SVG 1.1//EN" "http://www.w3.org/Graphics/SVG/1.1/DTD/svg11.dtd">
<svg version="1.1" id="Layer_1" xmlns="http://www.w3.org/2000/svg" xmlns:xlink="http://www.w3.org/1999/xlink" x="0px" y="0px"
	 width="32px" height="32px" viewBox="0 0 32 32" enable-background="new 0 0 32 32" xml:space="preserve">
<g id="Layer_3" display="none">
</g>
<g id="Layer_2">
	<g display="none">
		<g display="inline">
			<g>
				<defs>
					<path id="SVGID_1_" d="M-14.183-27.799c-2.331,0-4.22,1.889-4.22,4.223v15.16c0,2.322,1.889,4.215,4.22,4.215H8.183
						c2.331,0,4.221-1.893,4.221-4.215v-15.16c0-2.334-1.89-4.223-4.221-4.223H-14.183z"/>
				</defs>
				<clipPath id="SVGID_2_">
					<use xlink:href="#SVGID_1_"  overflow="visible"/>
				</clipPath>
				
					<linearGradient id="SVGID_3_" gradientUnits="userSpaceOnUse" x1="-708.9048" y1="732.6445" x2="-706.6984" y2="732.6445" gradientTransform="matrix(4.3973 14.3829 -14.3829 4.3973 13646.9492 6942.4868)">
					<stop  offset="0" style="stop-color:#FFFFFF"/>
					<stop  offset="1" style="stop-color:#D0CFD0"/>
				</linearGradient>
				<polygon clip-path="url(#SVGID_2_)" fill="url(#SVGID_3_)" points="8.452,-38.129 19,-6.219 -15.181,6.129 -25,-25.779 				"/>
			</g>
		</g>
	</g>
</g>
<g id="Layer_1_1_">
	<g>
		<g>
			<g>
				<g>
					<defs>
						<path id="SVGID_4_" d="M4.135,1.559c-1.953,0-3.533,1.582-3.533,3.527v21.828c0,1.951,1.58,3.527,3.533,3.527h23.734
							c1.951,0,3.531-1.576,3.531-3.527V5.086c0-1.945-1.58-3.527-3.531-3.527H4.135z"/>
					</defs>
					<clipPath id="SVGID_5_">
						<use xlink:href="#SVGID_4_"  overflow="visible"/>
					</clipPath>
					
						<linearGradient id="SVGID_6_" gradientUnits="userSpaceOnUse" x1="-733.0649" y1="741.7637" x2="-731.3248" y2="741.7637" gradientTransform="matrix(5.8606 19.1691 -19.1691 5.8606 18526.0293 9704.3066)">
						<stop  offset="0" style="stop-color:#FFFFFF"/>
						<stop  offset="1" style="stop-color:#D0D0D0"/>
					</linearGradient>
					<polygon clip-path="url(#SVGID_5_)" fill="url(#SVGID_6_)" points="28.771,-7.037 39.494,27.973 3.232,39.039 -7.488,4.027 
											"/>
				</g>
			</g>
			<path fill="none" stroke="#5C5C5C" stroke-width="0.4351" stroke-linejoin="round" d="M31.402,26.914
				c0,1.953-1.582,3.527-3.531,3.527H4.135c-1.951,0-3.537-1.574-3.537-3.527V5.086c0-1.945,1.586-3.527,3.537-3.527h23.736
				c1.949,0,3.531,1.582,3.531,3.527V26.914z"/>
			<g>
				<g>
					<defs>
						<path id="SVGID_7_" d="M4.23,2.57c-1.459,0-2.646,1.188-2.646,2.648v21.568c0,1.455,1.188,2.641,2.646,2.641h23.542
							c1.463,0,2.647-1.186,2.647-2.641V5.219c0-1.461-1.187-2.648-2.647-2.648L4.23,2.57L4.23,2.57z"/>
					</defs>
					<clipPath id="SVGID_8_">
						<use xlink:href="#SVGID_7_"  overflow="visible"/>
					</clipPath>
					
						<linearGradient id="SVGID_9_" gradientUnits="userSpaceOnUse" x1="-725.4873" y1="708.2451" x2="-723.7485" y2="708.2451" gradientTransform="matrix(0 15.4443 -15.4443 0 10954.3496 11207.2188)">
						<stop  offset="0" style="stop-color:#FFFFFF"/>
						<stop  offset="1" style="stop-color:#F3F3F3"/>
					</linearGradient>
					<rect x="1.584" y="2.57" clip-path="url(#SVGID_8_)" fill="url(#SVGID_9_)" width="28.836" height="26.857"/>
				</g>
			</g>
			<path fill="none" stroke="#FAFAFA" stroke-width="0.4351" stroke-linejoin="round" d="M30.42,26.787
				c0,1.455-1.189,2.643-2.648,2.643H4.229c-1.457,0-2.648-1.188-2.648-2.643V5.219c0-1.463,1.191-2.646,2.648-2.646h23.542
				c1.459,0,2.648,1.184,2.648,2.646V26.787z"/>
		</g>
		<path d="M27.258,14.438h-3.992v4.275h3.992l1.434-2.145L27.258,14.438z M26.719,17.543l-0.375,0.375l-0.926-0.969l-0.934,0.969
			l-0.373-0.375l0.953-0.965L24.111,15.6l0.373-0.371l0.934,0.975l0.926-0.975l0.375,0.371l-0.934,0.979L26.719,17.543z"/>
		<polygon points="27.551,13.914 22.748,13.914 22.748,19.229 27.551,19.229 29.316,16.568 		"/>
		<polygon fill="#FAFAFA" points="26.344,15.229 25.418,16.203 24.484,15.229 24.111,15.6 25.064,16.578 24.111,17.543 
			24.484,17.918 25.418,16.949 26.344,17.918 26.719,17.543 25.785,16.578 26.719,15.6 		"/>
		<g enable-background="new    ">
			<path d="M4.075,14.883c0.564,0,1.369,0.302,1.369,0.728c0,0.146-0.101,0.278-0.31,0.278c-0.294,0-0.41-0.418-1.06-0.418
				c-0.387,0-0.72,0.17-0.72,0.519c0,0.72,2.197,0.642,2.197,1.833c0,0.859-0.735,1.27-1.501,1.27c-0.867,0-1.547-0.434-1.547-0.782
				c0-0.186,0.132-0.309,0.279-0.309c0.302,0,0.549,0.502,1.292,0.502c0.495,0,0.796-0.278,0.796-0.557
				c0-0.805-2.197-0.758-2.197-1.904C2.674,15.286,3.386,14.883,4.075,14.883z"/>
			<path d="M6.199,15.247c0-0.224,0.131-0.363,0.34-0.363s0.34,0.14,0.34,0.363v2.182c0,0.704,0.31,1.075,0.952,1.075
				s0.952-0.371,0.952-1.075v-2.182c0-0.224,0.131-0.363,0.34-0.363s0.34,0.14,0.34,0.363v2.206c0,1.207-0.805,1.641-1.632,1.641
				s-1.632-0.434-1.632-1.641V15.247z"/>
			<path d="M10.389,15.247c0-0.224,0.132-0.363,0.34-0.363c0.209,0,0.341,0.14,0.341,0.363v0.201h0.015
				c0.193-0.371,0.557-0.564,1.099-0.564c1.114,0,1.756,1.014,1.756,2.105c0,1.091-0.642,2.104-1.756,2.104
				c-0.542,0-0.92-0.302-1.099-0.558H11.07v1.818c0,0.225-0.132,0.363-0.341,0.363c-0.208,0-0.34-0.139-0.34-0.363V15.247z
				 M12.13,18.504c0.835,0,1.129-0.819,1.129-1.516c0-0.697-0.294-1.517-1.129-1.517S11,16.292,11,16.988
				C11,17.685,11.294,18.504,12.13,18.504z"/>
			<path d="M14.687,15.247c0-0.224,0.132-0.363,0.34-0.363c0.209,0,0.341,0.14,0.341,0.363v0.201h0.015
				c0.193-0.371,0.557-0.564,1.099-0.564c1.114,0,1.756,1.014,1.756,2.105c0,1.091-0.643,2.104-1.756,2.104
				c-0.542,0-0.92-0.302-1.099-0.558h-0.015v1.818c0,0.225-0.132,0.363-0.341,0.363c-0.208,0-0.34-0.139-0.34-0.363V15.247z
				 M16.428,18.504c0.836,0,1.129-0.819,1.129-1.516c0-0.697-0.293-1.517-1.129-1.517c-0.835,0-1.129,0.82-1.129,1.517
				C15.298,17.685,15.592,18.504,16.428,18.504z"/>
			<path d="M18.955,15.247c0-0.224,0.131-0.363,0.34-0.363s0.34,0.14,0.34,0.363v0.349h0.016c0.155-0.317,0.534-0.712,0.929-0.712
				c0.239,0,0.379,0.154,0.379,0.349c0,0.193-0.14,0.316-0.425,0.371c-0.402,0.069-0.898,0.371-0.898,1.168v1.957
				c0,0.225-0.131,0.364-0.34,0.364s-0.34-0.14-0.34-0.364V15.247z"/>
		</g>
	</g>
</g>
<g id="Layer_5">
</g>
</svg>
