<?xml version="1.0" encoding="utf-8"?>
<!-- Generator: Adobe Illustrator 16.0.0, SVG Export Plug-In . SVG Version: 6.00 Build 0)  -->
<!DOCTYPE svg PUBLIC "-//W3C//DTD SVG 1.1//EN" "http://www.w3.org/Graphics/SVG/1.1/DTD/svg11.dtd">
<svg version="1.1" id="Layer_1" xmlns="http://www.w3.org/2000/svg" xmlns:xlink="http://www.w3.org/1999/xlink" x="0px" y="0px"
	 width="32px" height="32px" viewBox="0 0 32 32" enable-background="new 0 0 32 32" xml:space="preserve">
<g id="Layer_3" display="none">
</g>
<g id="Layer_2">
</g>
<g id="Layer_1_1_">
	<g>
		<g>
			<g>
				<g>
					<defs>
						<path id="SVGID_1_" d="M4.134,1.559c-1.952,0-3.533,1.582-3.533,3.527v21.828c0,1.951,1.581,3.527,3.533,3.527h23.734
							c1.952,0,3.532-1.576,3.532-3.527V5.086c0-1.945-1.58-3.527-3.532-3.527H4.134z"/>
					</defs>
					<clipPath id="SVGID_2_">
						<use xlink:href="#SVGID_1_"  overflow="visible"/>
					</clipPath>
					
						<linearGradient id="SVGID_3_" gradientUnits="userSpaceOnUse" x1="-91.5605" y1="772.8203" x2="-89.8204" y2="772.8203" gradientTransform="matrix(5.8606 19.1691 -19.1691 5.8606 15361.7793 -2774.7876)">
						<stop  offset="0" style="stop-color:#FFFFFF"/>
						<stop  offset="1" style="stop-color:#D0D0D0"/>
					</linearGradient>
					<polygon clip-path="url(#SVGID_2_)" fill="url(#SVGID_3_)" points="28.771,-7.037 39.494,27.973 3.232,39.039 -7.489,4.027 
											"/>
				</g>
			</g>
			<path fill="none" stroke="#5C5C5C" stroke-width="0.4351" stroke-linejoin="round" d="M31.402,26.914
				c0,1.953-1.582,3.527-3.531,3.527H4.135c-1.951,0-3.538-1.574-3.538-3.527V5.086c0-1.945,1.587-3.527,3.538-3.527H27.87
				c1.95,0,3.532,1.582,3.532,3.527V26.914L31.402,26.914z"/>
			<g>
				<g>
					<defs>
						<path id="SVGID_4_" d="M4.23,2.57c-1.459,0-2.646,1.188-2.646,2.648v21.568c0,1.455,1.188,2.641,2.646,2.641h23.542
							c1.463,0,2.648-1.186,2.648-2.641V5.219c0-1.461-1.188-2.648-2.648-2.648L4.23,2.57L4.23,2.57z"/>
					</defs>
					<clipPath id="SVGID_5_">
						<use xlink:href="#SVGID_4_"  overflow="visible"/>
					</clipPath>
					
						<linearGradient id="SVGID_6_" gradientUnits="userSpaceOnUse" x1="-74.4873" y1="750.3965" x2="-72.7485" y2="750.3965" gradientTransform="matrix(0 15.4443 -15.4443 0 11605.3496 1152.9841)">
						<stop  offset="0" style="stop-color:#FFFFFF"/>
						<stop  offset="1" style="stop-color:#F3F3F3"/>
					</linearGradient>
					<rect x="1.583" y="2.57" clip-path="url(#SVGID_5_)" fill="url(#SVGID_6_)" width="28.837" height="26.857"/>
				</g>
			</g>
			<path fill="none" stroke="#FAFAFA" stroke-width="0.4351" stroke-linejoin="round" d="M30.42,26.787
				c0,1.455-1.189,2.643-2.648,2.643H4.228c-1.457,0-2.647-1.188-2.647-2.643V5.219c0-1.463,1.19-2.646,2.647-2.646h23.543
				c1.459,0,2.648,1.184,2.648,2.646V26.787z"/>
		</g>
		<g>
			<path d="M5.38,18.145H5.365c-0.182,0.349-0.521,0.529-1.033,0.529c-1.043,0-1.648-0.951-1.648-1.977
				c0-1.021,0.605-1.975,1.648-1.975c0.512,0,0.867,0.283,1.033,0.523H5.38v-1.883c0-0.213,0.121-0.34,0.318-0.34
				c0.195,0,0.318,0.127,0.318,0.34v4.969c0,0.211-0.123,0.342-0.318,0.342c-0.197,0-0.318-0.131-0.318-0.342V18.145z M4.382,15.275
				c-0.783,0-1.059,0.77-1.059,1.422c0,0.654,0.275,1.426,1.059,1.426c0.785,0,1.062-0.771,1.062-1.426
				C5.445,16.045,5.167,15.275,4.382,15.275"/>
			<path d="M7.302,16.945c0,0.662,0.422,1.178,1.143,1.178c0.846,0,1.066-0.523,1.307-0.523c0.115,0,0.23,0.103,0.23,0.283
				c0,0.312-0.791,0.793-1.545,0.793c-1.234,0-1.773-0.953-1.773-1.979c0-1.045,0.654-1.975,1.736-1.975
				c1.053,0,1.664,0.951,1.664,1.881c0,0.227-0.082,0.342-0.357,0.342H7.302z M9.423,16.465c0-0.551-0.318-1.189-1.023-1.189
				c-0.793-0.031-1.076,0.604-1.098,1.189H9.423z"/>
			<path d="M11.32,18.332c0,0.211-0.125,0.342-0.32,0.342s-0.32-0.131-0.32-0.342v-4.969c0-0.211,0.125-0.342,0.32-0.342
				s0.32,0.131,0.32,0.342V18.332z"/>
			<path d="M12.568,16.945c0,0.662,0.424,1.178,1.145,1.178c0.85,0,1.066-0.523,1.307-0.523c0.117,0,0.23,0.103,0.23,0.283
				c0,0.312-0.791,0.793-1.547,0.793c-1.234,0-1.77-0.953-1.77-1.979c0-1.045,0.652-1.975,1.732-1.975
				c1.057,0,1.666,0.951,1.666,1.881c0,0.227-0.082,0.342-0.355,0.342H12.568z M14.691,16.465c0-0.551-0.318-1.189-1.025-1.189
				c-0.791-0.031-1.074,0.604-1.098,1.189H14.691z"/>
			<path d="M16.152,13.932c0-0.213,0.121-0.342,0.318-0.342c0.197,0,0.318,0.129,0.318,0.342v0.836h0.264
				c0.212,0,0.32,0.102,0.32,0.275c0,0.176-0.108,0.273-0.32,0.273h-0.264v3.018c0,0.209-0.121,0.342-0.318,0.342
				c-0.197,0-0.318-0.133-0.318-0.342v-3.018H15.89c-0.215,0-0.318-0.098-0.318-0.273c0-0.174,0.104-0.275,0.318-0.275h0.262V13.932
				z"/>
			<path d="M18.248,16.945c0,0.662,0.422,1.178,1.141,1.178c0.846,0,1.066-0.523,1.307-0.523c0.115,0,0.234,0.103,0.234,0.283
				c0,0.312-0.795,0.793-1.551,0.793c-1.232,0-1.771-0.953-1.771-1.979c0-1.045,0.654-1.975,1.736-1.975
				c1.053,0,1.664,0.951,1.664,1.881c0,0.227-0.078,0.342-0.357,0.342H18.248z M20.367,16.465c0-0.551-0.316-1.189-1.023-1.189
				c-0.793-0.031-1.076,0.604-1.096,1.189H20.367z"/>
			<path d="M27.257,14.438h-3.991v4.275h3.991l1.435-2.145L27.257,14.438z M26.718,17.543l-0.375,0.375l-0.926-0.969l-0.935,0.969
				l-0.373-0.375l0.953-0.965L24.111,15.6l0.373-0.371l0.934,0.975l0.926-0.975l0.375,0.371l-0.934,0.979L26.718,17.543z"/>
			<polygon points="27.55,13.914 22.748,13.914 22.748,19.229 27.55,19.229 29.316,16.568 			"/>
			<polygon fill="#FAFAFA" points="26.343,15.229 25.417,16.203 24.484,15.229 24.111,15.6 25.064,16.578 24.111,17.543 
				24.484,17.918 25.417,16.949 26.343,17.918 26.718,17.543 25.785,16.578 26.718,15.6 			"/>
		</g>
	</g>
</g>
<g id="Layer_5">
</g>
</svg>
