<?xml version="1.0" encoding="utf-8"?>
<!-- Generator: Adobe Illustrator 16.0.0, SVG Export Plug-In . SVG Version: 6.00 Build 0)  -->
<!DOCTYPE svg PUBLIC "-//W3C//DTD SVG 1.1//EN" "http://www.w3.org/Graphics/SVG/1.1/DTD/svg11.dtd">
<svg version="1.1" id="Layer_1" xmlns="http://www.w3.org/2000/svg" xmlns:xlink="http://www.w3.org/1999/xlink" x="0px" y="0px"
	 width="32px" height="32px" viewBox="0 0 32 32" enable-background="new 0 0 32 32" xml:space="preserve">
<g id="Layer_3" display="none">
</g>
<g id="Layer_2">
</g>
<g id="Layer_1_1_">
</g>
<g id="Language_specific">
	<g>
		<g>
			<g>
				<g>
					<defs>
						<path id="SVGID_1_" d="M4.135,1.559c-1.953,0-3.533,1.582-3.533,3.527v21.828c0,1.951,1.58,3.527,3.533,3.527h23.734
							c1.951,0,3.531-1.576,3.531-3.527V5.086c0-1.945-1.58-3.527-3.531-3.527H4.135z"/>
					</defs>
					<clipPath id="SVGID_2_">
						<use xlink:href="#SVGID_1_"  overflow="visible"/>
					</clipPath>
					
						<linearGradient id="SVGID_3_" gradientUnits="userSpaceOnUse" x1="-1463.2568" y1="706.4121" x2="-1461.5167" y2="706.4121" gradientTransform="matrix(5.8606 19.1691 -19.1691 5.8606 22127.7324 23908.6035)">
						<stop  offset="0" style="stop-color:#FFFFFF"/>
						<stop  offset="1" style="stop-color:#D0D0D0"/>
					</linearGradient>
					<polygon clip-path="url(#SVGID_2_)" fill="url(#SVGID_3_)" points="28.771,-7.037 39.494,27.973 3.232,39.039 -7.488,4.027 
											"/>
				</g>
			</g>
			<path fill="none" stroke="#5C5C5C" stroke-width="0.4351" stroke-linejoin="round" d="M31.402,26.914
				c0,1.953-1.582,3.527-3.531,3.527H4.135c-1.951,0-3.537-1.574-3.537-3.527V5.086c0-1.945,1.586-3.527,3.537-3.527h23.736
				c1.949,0,3.531,1.582,3.531,3.527V26.914z"/>
			<g>
				<g>
					<defs>
						<path id="SVGID_4_" d="M4.23,2.57c-1.459,0-2.646,1.188-2.646,2.648v21.568c0,1.455,1.188,2.641,2.646,2.641h23.542
							c1.463,0,2.647-1.186,2.647-2.641V5.219c0-1.461-1.187-2.648-2.647-2.648L4.23,2.57L4.23,2.57z"/>
					</defs>
					<clipPath id="SVGID_5_">
						<use xlink:href="#SVGID_4_"  overflow="visible"/>
					</clipPath>
					
						<linearGradient id="SVGID_6_" gradientUnits="userSpaceOnUse" x1="-1466.4873" y1="660.2666" x2="-1464.7485" y2="660.2666" gradientTransform="matrix(0 15.4443 -15.4443 0 10213.3496 22651.4453)">
						<stop  offset="0" style="stop-color:#FFFFFF"/>
						<stop  offset="1" style="stop-color:#F3F3F3"/>
					</linearGradient>
					<rect x="1.584" y="2.57" clip-path="url(#SVGID_5_)" fill="url(#SVGID_6_)" width="28.836" height="26.857"/>
				</g>
			</g>
			<path fill="none" stroke="#FAFAFA" stroke-width="0.4351" stroke-linejoin="round" d="M30.42,26.787
				c0,1.455-1.189,2.643-2.648,2.643H4.229c-1.457,0-2.648-1.188-2.648-2.643V5.219c0-1.463,1.191-2.646,2.648-2.646h23.542
				c1.459,0,2.648,1.184,2.648,2.646V26.787z"/>
		</g>
		<g enable-background="new    ">
			<path d="M12.695,8.388c0-0.882,0.515-1.674,1.505-1.674c0.99,0,1.505,0.792,1.505,1.674c0,0.881-0.515,1.674-1.505,1.674
				C13.21,10.062,12.695,9.269,12.695,8.388z M15.052,8.388c0-0.525-0.218-1.139-0.852-1.139s-0.852,0.613-0.852,1.139
				c0,0.524,0.218,1.139,0.852,1.139S15.052,8.912,15.052,8.388z M16.983,6.932c0.089-0.208,0.188-0.297,0.347-0.297
				c0.237,0,0.346,0.148,0.346,0.268c0,0.079-0.029,0.168-0.139,0.445l-2.633,6.318c-0.089,0.208-0.188,0.297-0.367,0.297
				c-0.218,0-0.327-0.139-0.327-0.268c0-0.079,0.03-0.178,0.139-0.445L16.983,6.932z M16.191,12.21c0-0.881,0.515-1.674,1.505-1.674
				s1.505,0.793,1.505,1.674c0,0.882-0.515,1.674-1.505,1.674S16.191,13.092,16.191,12.21z M18.548,12.21
				c0-0.524-0.218-1.139-0.852-1.139s-0.852,0.614-0.852,1.139c0,0.525,0.218,1.139,0.852,1.139S18.548,12.735,18.548,12.21z"/>
		</g>
		<g enable-background="new    ">
			<path d="M13.732,20.827c0-0.305,0.178-0.494,0.462-0.494s0.462,0.189,0.462,0.494v2.96c0,0.956,0.42,1.46,1.292,1.46
				c0.871,0,1.291-0.504,1.291-1.46v-2.96c0-0.305,0.179-0.494,0.462-0.494s0.462,0.189,0.462,0.494v2.992
				c0,1.637-1.092,2.225-2.215,2.225c-1.124,0-2.215-0.588-2.215-2.225V20.827z M15.149,19.021
				c-0.294-0.116-0.368-0.263-0.368-0.389c0-0.157,0.126-0.44,0.399-0.44c0.095,0,0.179,0.021,0.357,0.094l1.208,0.494
				c0.294,0.115,0.367,0.262,0.367,0.388c0,0.157-0.126,0.441-0.399,0.441c-0.094,0-0.178-0.021-0.356-0.095L15.149,19.021z"/>
		</g>
	</g>
</g>
<g id="Layer_5">
</g>
</svg>
