<?xml version="1.0" encoding="utf-8"?>
<!-- Generator: Adobe Illustrator 16.0.4, SVG Export Plug-In . SVG Version: 6.00 Build 0)  -->
<!DOCTYPE svg PUBLIC "-//W3C//DTD SVG 1.1//EN" "http://www.w3.org/Graphics/SVG/1.1/DTD/svg11.dtd">
<svg version="1.1" xmlns="http://www.w3.org/2000/svg" xmlns:xlink="http://www.w3.org/1999/xlink" x="0px" y="0px" width="32px"
	 height="32px" viewBox="0 0 32 32" enable-background="new 0 0 32 32" xml:space="preserve">
<g id="Layer_3" display="none">
</g>
<g id="Layer_2">
</g>
<g id="Layer_1">
</g>
<g id="Language_specific">
	<g>
		<g>
			<g>
				<defs>
					<path id="SVGID_1765_" d="M40.816,4.201c-2.33,0-4.219,1.889-4.219,4.223v15.16c0,2.322,1.889,4.215,4.219,4.215h22.365
						c2.332,0,4.221-1.893,4.221-4.215V8.424c0-2.334-1.889-4.223-4.221-4.223H40.816z"/>
				</defs>
				<clipPath id="SVGID_2_">
					<use xlink:href="#SVGID_1765_"  overflow="visible"/>
				</clipPath>
				
					<linearGradient id="SVGID_3_" gradientUnits="userSpaceOnUse" x1="-201.6392" y1="-663.2227" x2="-199.4333" y2="-663.2227" gradientTransform="matrix(4.3973 14.3829 14.3829 -4.3973 10472.8398 -16.1968)">
					<stop  offset="0" style="stop-color:#FFFFFF"/>
					<stop  offset="1" style="stop-color:#D0D0D0"/>
				</linearGradient>
				<polygon clip-path="url(#SVGID_2_)" fill="url(#SVGID_3_)" points="63.451,-6.129 74,25.781 39.818,38.129 30,6.221 				"/>
			</g>
		</g>
	</g>
	<g>
		<g>
			<g>
				<defs>
					<path id="SVGID_1771_" d="M-31.184,4.201c-2.33,0-4.219,1.889-4.219,4.223v15.16c0,2.322,1.889,4.215,4.219,4.215h22.365
						c2.332,0,4.221-1.893,4.221-4.215V8.424c0-2.334-1.889-4.223-4.221-4.223H-31.184z"/>
				</defs>
				<clipPath id="SVGID_5_">
					<use xlink:href="#SVGID_1771_"  overflow="visible"/>
				</clipPath>
				
					<linearGradient id="SVGID_6_" gradientUnits="userSpaceOnUse" x1="-203.0391" y1="-667.8008" x2="-200.8332" y2="-667.8008" gradientTransform="matrix(4.3973 14.3829 14.3829 -4.3973 10472.8398 -16.1968)">
					<stop  offset="0" style="stop-color:#FFFFFF"/>
					<stop  offset="1" style="stop-color:#D0D0D0"/>
				</linearGradient>
				<polygon clip-path="url(#SVGID_5_)" fill="url(#SVGID_6_)" points="-8.549,-6.129 2,25.781 -32.182,38.129 -42,6.221 				"/>
			</g>
		</g>
	</g>
	<g>
		<g>
			<g>
				<defs>
					<path id="SVGID_1777_" d="M4.816,4.201c-2.33,0-4.219,1.889-4.219,4.223v15.16c0,2.322,1.889,4.215,4.219,4.215h22.365
						c2.332,0,4.221-1.893,4.221-4.215V8.424c0-2.334-1.889-4.223-4.221-4.223H4.816z"/>
				</defs>
				<clipPath id="SVGID_8_">
					<use xlink:href="#SVGID_1777_"  overflow="visible"/>
				</clipPath>
				
					<linearGradient id="SVGID_9_" gradientUnits="userSpaceOnUse" x1="-202.3394" y1="-665.5117" x2="-200.133" y2="-665.5117" gradientTransform="matrix(4.3973 14.3829 14.3829 -4.3973 10472.8398 -16.1968)">
					<stop  offset="0" style="stop-color:#FFFFFF"/>
					<stop  offset="1" style="stop-color:#D0D0D0"/>
				</linearGradient>
				<polygon clip-path="url(#SVGID_8_)" fill="url(#SVGID_9_)" points="27.451,-6.129 38,25.781 3.818,38.129 -6,6.221 				"/>
			</g>
			<path fill="none" stroke="#5C5C5C" stroke-width="0.5198" stroke-linejoin="round" d="M31.402,23.582
				c0,2.324-1.891,4.217-4.217,4.217H4.814c-2.33,0-4.217-1.893-4.217-4.217V8.424c0-2.336,1.887-4.217,4.217-4.217h22.371
				c2.326,0,4.217,1.881,4.217,4.217V23.582z"/>
			<g>
				<defs>
					<path id="SVGID_1780_" d="M4.926,5.416c-1.742,0-3.156,1.418-3.156,3.164v14.84c0,1.742,1.414,3.164,3.156,3.164h22.141
						c1.744,0,3.16-1.422,3.16-3.164V8.58c0-1.746-1.416-3.164-3.16-3.164H4.926z"/>
				</defs>
				<clipPath id="SVGID_11_">
					<use xlink:href="#SVGID_1780_"  overflow="visible"/>
				</clipPath>
				
					<linearGradient id="SVGID_12_" gradientUnits="userSpaceOnUse" x1="-176.2559" y1="-642.1416" x2="-174.1772" y2="-642.1416" gradientTransform="matrix(0 10.1826 10.1826 0 6554.6719 1800.1592)">
					<stop  offset="0" style="stop-color:#FFFFFF"/>
					<stop  offset="1" style="stop-color:#F3F3F3"/>
				</linearGradient>
				<rect x="1.77" y="5.416" clip-path="url(#SVGID_11_)" fill="url(#SVGID_12_)" width="28.457" height="21.168"/>
			</g>
			<path fill="none" stroke="#FAFAFA" stroke-width="0.5198" stroke-linejoin="round" d="M30.227,23.424
				c0,1.742-1.416,3.16-3.162,3.16H4.93c-1.742,0-3.162-1.418-3.162-3.16V8.58c0-1.746,1.42-3.166,3.162-3.166h22.135
				c1.746,0,3.162,1.42,3.162,3.166V23.424z"/>
		</g>
		<path d="M11.358,13.121c0,0.23-0.041,0.451-0.131,0.656c-0.088,0.209-0.205,0.385-0.355,0.535
			c-0.148,0.152-0.324,0.273-0.529,0.365c-0.205,0.09-0.42,0.133-0.652,0.133c-0.236,0-0.453-0.043-0.656-0.133
			c-0.209-0.092-0.387-0.213-0.541-0.365c-0.148-0.15-0.268-0.326-0.357-0.535c-0.09-0.205-0.137-0.426-0.137-0.656v-0.848h-1.67
			v0.848c0,0.23-0.045,0.451-0.137,0.656c-0.088,0.209-0.213,0.385-0.361,0.535c-0.15,0.152-0.332,0.273-0.537,0.365
			c-0.207,0.09-0.426,0.133-0.656,0.133s-0.451-0.043-0.656-0.133c-0.207-0.092-0.387-0.213-0.539-0.365
			c-0.146-0.15-0.271-0.326-0.361-0.535c-0.092-0.205-0.135-0.426-0.135-0.656c0-0.234,0.043-0.451,0.135-0.654
			c0.09-0.205,0.215-0.381,0.361-0.529c0.152-0.15,0.332-0.268,0.539-0.355c0.205-0.088,0.426-0.133,0.656-0.133h0.873V9.773H4.638
			c-0.23,0-0.451-0.045-0.656-0.133C3.774,9.553,3.595,9.436,3.442,9.285C3.296,9.139,3.171,8.963,3.081,8.756
			c-0.092-0.203-0.135-0.42-0.135-0.65c0-0.234,0.043-0.455,0.135-0.658c0.09-0.209,0.215-0.389,0.361-0.545
			c0.152-0.156,0.332-0.279,0.539-0.367c0.205-0.094,0.426-0.137,0.656-0.137s0.449,0.043,0.656,0.137
			c0.205,0.088,0.387,0.211,0.537,0.367c0.148,0.156,0.273,0.336,0.361,0.545C6.284,7.65,6.329,7.871,6.329,8.105v0.834h1.67V8.105
			c0-0.234,0.047-0.455,0.137-0.658c0.09-0.209,0.209-0.389,0.357-0.545c0.154-0.156,0.332-0.279,0.541-0.367
			c0.203-0.094,0.42-0.137,0.656-0.137c0.232,0,0.447,0.043,0.652,0.137c0.205,0.088,0.381,0.211,0.529,0.367
			c0.15,0.156,0.268,0.336,0.355,0.545c0.09,0.203,0.131,0.424,0.131,0.658c0,0.225-0.041,0.441-0.131,0.645
			c-0.088,0.203-0.209,0.383-0.357,0.531c-0.152,0.152-0.33,0.271-0.533,0.359S9.917,9.773,9.69,9.773H8.831v1.676H9.69
			c0.227,0,0.443,0.045,0.646,0.133s0.381,0.207,0.533,0.359c0.148,0.15,0.27,0.33,0.357,0.531
			C11.317,12.676,11.358,12.895,11.358,13.121 M5.511,8.105c0-0.125-0.021-0.238-0.068-0.342C5.397,7.656,5.335,7.564,5.255,7.486
			c-0.08-0.082-0.17-0.145-0.277-0.189S4.761,7.23,4.638,7.23c-0.121,0-0.23,0.021-0.338,0.066S4.101,7.404,4.026,7.486
			C3.95,7.564,3.892,7.656,3.845,7.764C3.804,7.867,3.776,7.98,3.776,8.105c0,0.111,0.027,0.219,0.068,0.32
			C3.892,8.531,3.95,8.617,4.03,8.693c0.078,0.074,0.168,0.135,0.273,0.182c0.104,0.043,0.213,0.064,0.334,0.064h0.873V8.105z
			 M5.511,12.273H4.638c-0.121,0-0.23,0.023-0.334,0.068c-0.105,0.045-0.195,0.105-0.273,0.182c-0.08,0.078-0.139,0.166-0.186,0.27
			c-0.041,0.105-0.068,0.211-0.068,0.328s0.027,0.229,0.068,0.338c0.047,0.105,0.105,0.201,0.182,0.279
			c0.074,0.082,0.166,0.141,0.273,0.189c0.107,0.043,0.217,0.066,0.338,0.066c0.123,0,0.232-0.023,0.34-0.066
			c0.107-0.049,0.197-0.107,0.277-0.189c0.08-0.078,0.143-0.174,0.188-0.279c0.047-0.109,0.068-0.221,0.068-0.338V12.273z
			 M7.999,9.773h-1.67v1.676h1.67V9.773z M10.53,8.105c0-0.121-0.027-0.23-0.07-0.336c-0.047-0.104-0.105-0.195-0.182-0.277
			c-0.074-0.08-0.164-0.145-0.266-0.191C9.911,7.252,9.8,7.23,9.69,7.23c-0.119,0-0.23,0.021-0.338,0.066S9.155,7.404,9.081,7.486
			C9.005,7.564,8.94,7.656,8.897,7.764C8.851,7.867,8.831,7.98,8.831,8.105v0.834H9.69c0.109,0,0.221-0.021,0.322-0.064
			c0.102-0.047,0.191-0.107,0.266-0.182c0.076-0.076,0.135-0.162,0.182-0.268C10.503,8.324,10.53,8.217,10.53,8.105 M10.53,13.121
			c0-0.117-0.027-0.223-0.07-0.328c-0.047-0.104-0.105-0.191-0.182-0.27c-0.074-0.076-0.164-0.137-0.266-0.182
			S9.8,12.273,9.69,12.273H8.831v0.848c0,0.117,0.02,0.229,0.066,0.338c0.043,0.105,0.107,0.201,0.184,0.279
			c0.074,0.082,0.164,0.141,0.271,0.189c0.107,0.043,0.219,0.066,0.338,0.066c0.109,0,0.221-0.023,0.322-0.072
			c0.102-0.047,0.191-0.109,0.266-0.189c0.076-0.082,0.135-0.172,0.182-0.279C10.503,13.35,10.53,13.238,10.53,13.121"/>
		<g>
			<path d="M11.921,19.258c1.037,0,1.649,0.359,1.649,0.777c0,0.209-0.169,0.426-0.412,0.426c-0.396,0-0.542-0.32-1.237-0.32
				c-1.264,0-1.761,1.225-1.761,2.266c0,1.039,0.497,2.266,1.761,2.266c0.718,0,0.901-0.348,1.221-0.348
				c0.231,0,0.398,0.152,0.398,0.43c0,0.381-0.568,0.799-1.619,0.799c-1.876,0-2.774-1.518-2.774-3.146
				C9.146,20.775,10.045,19.258,11.921,19.258"/>
			<path d="M18.19,21.561c0-0.879-0.486-1.424-1.319-1.424c-0.822,0-1.309,0.545-1.309,1.424v3.447c0,0.336-0.194,0.543-0.506,0.543
				c-0.311,0-0.509-0.207-0.509-0.543v-5.205c0-0.336,0.198-0.541,0.509-0.541c0.312,0,0.506,0.205,0.506,0.541v0.188l0.025,0.02
				c0.243-0.311,0.622-0.748,1.549-0.748c0.602,0,1.226,0.25,1.689,1.039c0.452-0.646,0.994-1.039,1.887-1.039
				c0.944,0,2.137,0.602,2.137,2.334v3.412c0,0.336-0.195,0.543-0.509,0.543c-0.311,0-0.509-0.207-0.509-0.543v-3.447
				c0-0.879-0.486-1.424-1.316-1.424c-0.819,0-1.306,0.545-1.306,1.424v3.447c0,0.336-0.197,0.543-0.512,0.543
				c-0.313,0-0.508-0.207-0.508-0.543V21.561z"/>
			<path d="M28.223,24.705H28.2c-0.288,0.557-0.833,0.846-1.645,0.846c-1.666,0-2.621-1.512-2.621-3.145
				c0-1.631,0.955-3.148,2.621-3.148c0.812,0,1.379,0.453,1.645,0.834h0.022v-2.994c0-0.334,0.198-0.543,0.509-0.543
				c0.313,0,0.509,0.209,0.509,0.543v7.91c0,0.336-0.195,0.543-0.509,0.543c-0.311,0-0.509-0.207-0.509-0.543V24.705z
				 M26.638,20.141c-1.251,0-1.687,1.225-1.687,2.266c0,1.043,0.436,2.266,1.687,2.266c1.252,0,1.689-1.223,1.689-2.266
				C28.327,21.365,27.89,20.141,26.638,20.141"/>
		</g>
	</g>
</g>
<g id="Layer_5">
</g>
</svg>
