<?xml version="1.0" encoding="utf-8"?>
<!-- Generator: Adobe Illustrator 16.0.0, SVG Export Plug-In . SVG Version: 6.00 Build 0)  -->
<!DOCTYPE svg PUBLIC "-//W3C//DTD SVG 1.1//EN" "http://www.w3.org/Graphics/SVG/1.1/DTD/svg11.dtd">
<svg version="1.1" id="Reference" xmlns="http://www.w3.org/2000/svg" xmlns:xlink="http://www.w3.org/1999/xlink" x="0px" y="0px"
	 width="32px" height="32px" viewBox="0 0 32 32" enable-background="new 0 0 32 32" xml:space="preserve">
<g>
	<g>
		<g>
			<g>
				<defs>
					<path id="SVGID_1_" d="M4.135,1.805c-1.952,0-3.533,1.582-3.533,3.527V27.16c0,1.951,1.581,3.527,3.533,3.527h23.734
						c1.951,0,3.531-1.576,3.531-3.527V5.332c0-1.945-1.58-3.527-3.531-3.527H4.135z"/>
				</defs>
				<clipPath id="SVGID_2_">
					<use xlink:href="#SVGID_1_"  overflow="visible"/>
				</clipPath>
				
					<linearGradient id="SVGID_3_" gradientUnits="userSpaceOnUse" x1="-336.9316" y1="1408.8018" x2="-335.1916" y2="1408.8018" gradientTransform="matrix(5.8606 19.1691 -19.1691 5.8606 28990.9668 -1798.2251)">
					<stop  offset="0" style="stop-color:#FFFFFF"/>
					<stop  offset="1" style="stop-color:#D0D0D0"/>
				</linearGradient>
				<polygon clip-path="url(#SVGID_2_)" fill="url(#SVGID_3_)" points="28.771,-6.791 39.494,28.219 3.232,39.285 -7.488,4.273 				
					"/>
			</g>
		</g>
		<path fill="none" stroke="#5C5C5C" stroke-width="0.4351" stroke-linejoin="round" d="M31.402,27.16
			c0,1.953-1.582,3.527-3.531,3.527H4.136c-1.951,0-3.538-1.574-3.538-3.527V5.332c0-1.945,1.587-3.527,3.538-3.527h23.735
			c1.949,0,3.531,1.582,3.531,3.527V27.16z"/>
		<g>
			<g>
				<defs>
					<path id="SVGID_4_" d="M4.23,2.816c-1.459,0-2.646,1.188-2.646,2.648v21.568c0,1.454,1.188,2.641,2.646,2.641h23.542
						c1.463,0,2.648-1.187,2.648-2.641V5.465c0-1.461-1.188-2.648-2.648-2.648L4.23,2.816L4.23,2.816z"/>
				</defs>
				<clipPath id="SVGID_5_">
					<use xlink:href="#SVGID_4_"  overflow="visible"/>
				</clipPath>
				
					<linearGradient id="SVGID_6_" gradientUnits="userSpaceOnUse" x1="-313.0322" y1="1372.2666" x2="-311.293" y2="1372.2666" gradientTransform="matrix(0 15.4443 -15.4443 0 21209.6934 4837.3828)">
					<stop  offset="0" style="stop-color:#FFFFFF"/>
					<stop  offset="1" style="stop-color:#F3F3F3"/>
				</linearGradient>
				<rect x="1.584" y="2.816" clip-path="url(#SVGID_5_)" fill="url(#SVGID_6_)" width="28.837" height="26.857"/>
			</g>
		</g>
		<path fill="none" stroke="#FAFAFA" stroke-width="0.4351" stroke-linejoin="round" d="M30.421,27.033
			c0,1.455-1.19,2.643-2.647,2.643H4.229c-1.457,0-2.647-1.188-2.647-2.643V5.465c0-1.463,1.19-2.646,2.647-2.646h23.544
			c1.457,0,2.647,1.184,2.647,2.646V27.033z"/>
	</g>
	<g>
		<path d="M9.174,14.445c-0.034,0.264-0.141,0.412-0.435,0.412c-0.273,0-0.389-0.184-0.389-0.389c0-0.125,0.022-0.264,0.057-0.48
			l0.23-1.668H7.278L6.98,14.445c-0.034,0.264-0.136,0.412-0.434,0.412c-0.274,0-0.388-0.184-0.388-0.389
			c0-0.125,0.02-0.264,0.057-0.48l0.228-1.668H5.744c-0.26,0-0.463-0.125-0.463-0.375c0-0.264,0.203-0.377,0.463-0.377h0.803
			l0.236-1.691H6.09c-0.265,0-0.469-0.123-0.469-0.377c0-0.252,0.204-0.377,0.469-0.377h0.8L7.187,7
			C7.219,6.738,7.322,6.588,7.62,6.588c0.276,0,0.388,0.184,0.388,0.389c0,0.127-0.021,0.262-0.056,0.48l-0.23,1.666h1.36L9.378,7
			c0.035-0.262,0.137-0.412,0.436-0.412c0.273,0,0.388,0.184,0.388,0.389c0,0.127-0.022,0.262-0.055,0.48l-0.23,1.666h0.695
			c0.263,0,0.469,0.125,0.469,0.377c0,0.262-0.206,0.377-0.469,0.377H9.813l-0.24,1.691h0.696c0.262,0,0.47,0.125,0.47,0.377
			c0,0.25-0.208,0.375-0.47,0.375H9.468L9.174,14.445z M8.979,9.877H7.62l-0.24,1.691h1.359L8.979,9.877z"/>
		<path d="M7.297,27.064c-1.69,0-2.377-1.269-2.377-1.873c0-0.354,0.183-0.56,0.427-0.56c0.294,0,0.443,0.173,0.559,0.527
			c0.192,0.58,0.604,1.034,1.366,1.034c0.905,0,1.542-0.674,1.542-1.506c0-1.209-0.658-1.52-1.415-1.52
			c-0.399,0-0.616-0.172-0.616-0.434c0-0.23,0.147-0.354,0.525-0.435c0.812-0.184,1.145-0.569,1.145-1.313
			c0-0.775-0.458-1.324-1.155-1.324c-0.801,0-1.094,0.57-1.154,1.188c-0.034,0.459-0.307,0.469-0.48,0.469
			c-0.286,0-0.455-0.204-0.455-0.469c0-1.082,0.787-2.057,2.133-2.057c1.304,0,2.116,0.961,2.116,2.104
			c0,0.674-0.321,1.334-0.961,1.726c0.916,0.272,1.394,1.049,1.394,1.976C9.889,26.139,8.745,27.064,7.297,27.064"/>
	</g>
	<g enable-background="new    ">
		<path d="M18.307,26.93v-7.345h1.078l1.909,3.649c0.449,0.865,0.831,1.674,1.146,2.438l0.012-0.012
			c-0.079-1.021-0.102-1.92-0.102-3.088v-2.987h0.876v7.345h-0.999l-1.932-3.684c-0.416-0.809-0.809-1.64-1.146-2.471l-0.033,0.012
			c0.045,0.943,0.067,1.83,0.067,3.121v3.021H18.307z M25.662,19.742c1.078,0,1.752,0.764,1.752,1.932
			c0,1.404-0.875,1.977-1.773,1.977c-1,0-1.775-0.696-1.775-1.92c0-1.27,0.82-1.988,1.786-1.988H25.662z M24.169,24.717v-0.584
			h2.954v0.584H24.169z M25.629,20.304c-0.651,0-0.955,0.741-0.955,1.415c0,0.797,0.438,1.381,0.967,1.381
			c0.595,0,0.965-0.584,0.965-1.403c0-0.651-0.27-1.393-0.965-1.393H25.629z"/>
	</g>
</g>
</svg>
