<?xml version="1.0" encoding="utf-8"?>
<!-- Generator: Adobe Illustrator 16.0.0, SVG Export Plug-In . SVG Version: 6.00 Build 0)  -->
<!DOCTYPE svg PUBLIC "-//W3C//DTD SVG 1.1//EN" "http://www.w3.org/Graphics/SVG/1.1/DTD/svg11.dtd">
<svg version="1.1" id="Reference" xmlns="http://www.w3.org/2000/svg" xmlns:xlink="http://www.w3.org/1999/xlink" x="0px" y="0px"
	 width="32px" height="32px" viewBox="0 0 32 32" enable-background="new 0 0 32 32" xml:space="preserve">
<g>
	<g>
		<g>
			<g>
				<defs>
					<path id="SVGID_1_" d="M4.135,1.805c-1.952,0-3.533,1.582-3.533,3.527V27.16c0,1.951,1.581,3.527,3.533,3.527h23.734
						c1.951,0,3.531-1.576,3.531-3.527V5.332c0-1.945-1.58-3.527-3.531-3.527H4.135z"/>
				</defs>
				<clipPath id="SVGID_2_">
					<use xlink:href="#SVGID_1_"  overflow="visible"/>
				</clipPath>
				
					<linearGradient id="SVGID_3_" gradientUnits="userSpaceOnUse" x1="-428.478" y1="1469.1543" x2="-426.7379" y2="1469.1543" gradientTransform="matrix(5.8606 19.1691 -19.1691 5.8606 30684.4043 -397.0688)">
					<stop  offset="0" style="stop-color:#FFFFFF"/>
					<stop  offset="1" style="stop-color:#D0D0D0"/>
				</linearGradient>
				<polygon clip-path="url(#SVGID_2_)" fill="url(#SVGID_3_)" points="28.771,-6.791 39.494,28.219 3.232,39.285 -7.488,4.273 				
					"/>
			</g>
		</g>
		<path fill="none" stroke="#5C5C5C" stroke-width="0.4351" stroke-linejoin="round" d="M31.402,27.16
			c0,1.953-1.582,3.527-3.531,3.527H4.136c-1.951,0-3.538-1.574-3.538-3.527V5.332c0-1.945,1.587-3.527,3.538-3.527h23.735
			c1.949,0,3.531,1.582,3.531,3.527V27.16z"/>
		<g>
			<g>
				<defs>
					<path id="SVGID_4_" d="M4.23,2.816c-1.459,0-2.646,1.188-2.646,2.648v21.568c0,1.454,1.188,2.641,2.646,2.641h23.542
						c1.463,0,2.648-1.187,2.648-2.641V5.465c0-1.461-1.188-2.648-2.648-2.648L4.23,2.816L4.23,2.816z"/>
				</defs>
				<clipPath id="SVGID_5_">
					<use xlink:href="#SVGID_4_"  overflow="visible"/>
				</clipPath>
				
					<linearGradient id="SVGID_6_" gradientUnits="userSpaceOnUse" x1="-404.8887" y1="1430.0508" x2="-403.1494" y2="1430.0508" gradientTransform="matrix(0 15.4443 -15.4443 0 22102.1309 6256.0391)">
					<stop  offset="0" style="stop-color:#FFFFFF"/>
					<stop  offset="1" style="stop-color:#F3F3F3"/>
				</linearGradient>
				<rect x="1.584" y="2.816" clip-path="url(#SVGID_5_)" fill="url(#SVGID_6_)" width="28.837" height="26.857"/>
			</g>
		</g>
		<path fill="none" stroke="#FAFAFA" stroke-width="0.4351" stroke-linejoin="round" d="M30.421,27.033
			c0,1.455-1.19,2.643-2.647,2.643H4.229c-1.457,0-2.647-1.188-2.647-2.643V5.465c0-1.463,1.19-2.646,2.647-2.646h23.544
			c1.457,0,2.647,1.184,2.647,2.646V27.033z"/>
	</g>
	<path d="M9.127,6.246c2.521,0,3.876,2.199,3.876,4.498c0,2.302-1.354,4.502-3.876,4.502c-2.521,0-3.877-2.2-3.877-4.502
		C5.25,8.445,6.606,6.246,9.127,6.246 M9.127,14.301c1.988,0,2.709-1.862,2.709-3.557c0-1.688-0.721-3.553-2.709-3.553
		c-1.989,0-2.709,1.864-2.709,3.553C6.418,12.438,7.138,14.301,9.127,14.301"/>
	<g enable-background="new    ">
		<path d="M19.587,18.96v6.749h2.46V18.96h0.965v6.749h2.449V18.96h0.977v6.772l0.662,0.021l-0.066,2.595h-0.775l-0.057-1.819h-7.58
			V18.96H19.587z"/>
	</g>
</g>
</svg>
