<?xml version="1.0" encoding="utf-8"?>
<!-- Generator: Adobe Illustrator 16.0.4, SVG Export Plug-In . SVG Version: 6.00 Build 0)  -->
<!DOCTYPE svg PUBLIC "-//W3C//DTD SVG 1.1//EN" "http://www.w3.org/Graphics/SVG/1.1/DTD/svg11.dtd">
<svg version="1.1" xmlns="http://www.w3.org/2000/svg" xmlns:xlink="http://www.w3.org/1999/xlink" x="0px" y="0px" width="32px"
	 height="32px" viewBox="0 0 32 32" enable-background="new 0 0 32 32" xml:space="preserve">
<g id="Layer_3" display="none">
</g>
<g id="Layer_2">
	<g display="none">
		<g display="inline">
			<defs>
				<path id="SVGID_799_" d="M-23.183-27.799c-2.331,0-4.22,1.889-4.22,4.223v15.16c0,2.322,1.889,4.215,4.22,4.215h22.365
					c2.331,0,4.221-1.893,4.221-4.215v-15.16c0-2.334-1.89-4.223-4.221-4.223H-23.183z"/>
			</defs>
			<clipPath id="SVGID_2_">
				<use xlink:href="#SVGID_799_"  overflow="visible"/>
			</clipPath>
			
				<linearGradient id="SVGID_3_" gradientUnits="userSpaceOnUse" x1="-487.3193" y1="-648.3574" x2="-485.1135" y2="-648.3574" gradientTransform="matrix(4.3973 14.3829 14.3829 -4.3973 11451.2627 4126.0781)">
				<stop  offset="0" style="stop-color:#FFFFFF"/>
				<stop  offset="1" style="stop-color:#D0CFD0"/>
			</linearGradient>
			<polygon clip-path="url(#SVGID_2_)" fill="url(#SVGID_3_)" points="-0.548,-38.129 10,-6.219 -24.181,6.129 -34,-25.779 			"/>
		</g>
	</g>
	<g display="none">
		<g display="inline">
			<defs>
				<path id="SVGID_805_" d="M8.817-27.799c-2.331,0-4.22,1.889-4.22,4.223v15.16c0,2.322,1.889,4.215,4.22,4.215h22.365
					c2.331,0,4.221-1.893,4.221-4.215v-15.16c0-2.334-1.89-4.223-4.221-4.223H8.817z"/>
			</defs>
			<clipPath id="SVGID_5_">
				<use xlink:href="#SVGID_805_"  overflow="visible"/>
			</clipPath>
			
				<linearGradient id="SVGID_6_" gradientUnits="userSpaceOnUse" x1="-486.6973" y1="-646.3223" x2="-484.4914" y2="-646.3223" gradientTransform="matrix(4.3973 14.3829 14.3829 -4.3973 11451.2627 4126.0781)">
				<stop  offset="0" style="stop-color:#FFFFFF"/>
				<stop  offset="1" style="stop-color:#D0CFD0"/>
			</linearGradient>
			<polygon clip-path="url(#SVGID_5_)" fill="url(#SVGID_6_)" points="31.452,-38.129 42,-6.219 7.819,6.129 -2,-25.779 			"/>
		</g>
	</g>
	<g display="none">
		<g display="inline">
			<defs>
				<path id="SVGID_811_" d="M40.817-27.799c-2.331,0-4.22,1.889-4.22,4.223v15.16c0,2.322,1.889,4.215,4.22,4.215h22.365
					c2.331,0,4.221-1.893,4.221-4.215v-15.16c0-2.334-1.89-4.223-4.221-4.223H40.817z"/>
			</defs>
			<clipPath id="SVGID_8_">
				<use xlink:href="#SVGID_811_"  overflow="visible"/>
			</clipPath>
			
				<linearGradient id="SVGID_9_" gradientUnits="userSpaceOnUse" x1="-486.0752" y1="-644.2871" x2="-483.8694" y2="-644.2871" gradientTransform="matrix(4.3973 14.3829 14.3829 -4.3973 11451.2627 4126.0781)">
				<stop  offset="0" style="stop-color:#FFFFFF"/>
				<stop  offset="1" style="stop-color:#D0CFD0"/>
			</linearGradient>
			<polygon clip-path="url(#SVGID_8_)" fill="url(#SVGID_9_)" points="63.452,-38.129 74,-6.219 39.819,6.129 30,-25.779 			"/>
		</g>
	</g>
</g>
<g id="Layer_1">
</g>
<g id="Language_specific">
	<g>
		<g>
			<g>
				<defs>
					<path id="SVGID_1855_" d="M-31.865,1.559c-1.953,0-3.533,1.582-3.533,3.527v21.828c0,1.951,1.58,3.527,3.533,3.527h23.734
						c1.951,0,3.531-1.576,3.531-3.527V5.086c0-1.945-1.58-3.527-3.531-3.527H-31.865z"/>
				</defs>
				<clipPath id="SVGID_11_">
					<use xlink:href="#SVGID_1855_"  overflow="visible"/>
				</clipPath>
				
					<linearGradient id="SVGID_12_" gradientUnits="userSpaceOnUse" x1="-503.1558" y1="-653.2178" x2="-501.4156" y2="-653.2178" gradientTransform="matrix(5.8606 19.1691 19.1691 -5.8606 15445.2715 5816.0771)">
					<stop  offset="0" style="stop-color:#FFFFFF"/>
					<stop  offset="1" style="stop-color:#D0D0D0"/>
				</linearGradient>
				<polygon clip-path="url(#SVGID_11_)" fill="url(#SVGID_12_)" points="-7.229,-7.037 3.494,27.973 -32.768,39.039 -43.488,4.027 
									"/>
			</g>
		</g>
	</g>
	<g>
		<g>
			<g>
				<defs>
					<path id="SVGID_1861_" d="M4.135,1.559c-1.953,0-3.533,1.582-3.533,3.527v21.828c0,1.951,1.58,3.527,3.533,3.527h23.734
						c1.951,0,3.531-1.576,3.531-3.527V5.086c0-1.945-1.58-3.527-3.531-3.527H4.135z"/>
				</defs>
				<clipPath id="SVGID_14_">
					<use xlink:href="#SVGID_1861_"  overflow="visible"/>
				</clipPath>
				
					<linearGradient id="SVGID_15_" gradientUnits="userSpaceOnUse" x1="-502.6309" y1="-651.5" x2="-500.8907" y2="-651.5" gradientTransform="matrix(5.8606 19.1691 19.1691 -5.8606 15445.2715 5816.0771)">
					<stop  offset="0" style="stop-color:#FFFFFF"/>
					<stop  offset="1" style="stop-color:#D0D0D0"/>
				</linearGradient>
				<polygon clip-path="url(#SVGID_14_)" fill="url(#SVGID_15_)" points="28.771,-7.037 39.494,27.973 3.232,39.039 -7.488,4.027 
									"/>
			</g>
			<path fill="none" stroke="#5C5C5C" stroke-width="0.4351" stroke-linejoin="round" d="M31.402,26.914
				c0,1.953-1.582,3.527-3.531,3.527H4.135c-1.951,0-3.537-1.574-3.537-3.527V5.086c0-1.945,1.586-3.527,3.537-3.527h23.736
				c1.949,0,3.531,1.582,3.531,3.527V26.914z"/>
			<g>
				<defs>
					<path id="SVGID_1864_" d="M4.23,2.57c-1.459,0-2.646,1.188-2.646,2.648v21.568c0,1.455,1.188,2.641,2.646,2.641h23.541
						c1.463,0,2.648-1.186,2.648-2.641V5.219c0-1.461-1.186-2.648-2.648-2.648H4.23z"/>
				</defs>
				<clipPath id="SVGID_17_">
					<use xlink:href="#SVGID_1864_"  overflow="visible"/>
				</clipPath>
				
					<linearGradient id="SVGID_18_" gradientUnits="userSpaceOnUse" x1="-495.1782" y1="-631.7881" x2="-493.4395" y2="-631.7881" gradientTransform="matrix(0 15.4443 15.4443 0 9773.5293 7650.2568)">
					<stop  offset="0" style="stop-color:#FFFFFF"/>
					<stop  offset="1" style="stop-color:#F3F3F3"/>
				</linearGradient>
				<rect x="1.584" y="2.57" clip-path="url(#SVGID_17_)" fill="url(#SVGID_18_)" width="28.836" height="26.857"/>
			</g>
			<path fill="none" stroke="#FAFAFA" stroke-width="0.4351" stroke-linejoin="round" d="M30.42,26.787
				c0,1.455-1.189,2.643-2.648,2.643H4.229c-1.457,0-2.648-1.188-2.648-2.643V5.219c0-1.463,1.191-2.646,2.648-2.646h23.543
				c1.459,0,2.648,1.184,2.648,2.646V26.787z"/>
		</g>
		<path d="M10.963,18.281l4.994,7.566l5.072-7.521c0.086-0.125,0.119-0.264,0.125-0.402c0-0.232-0.113-0.465-0.318-0.602
			c-0.334-0.227-0.787-0.139-1.01,0.193l-3.104,4.596v-5.643h2.213v-1.297h-2.213v-3.105h2.213v-1.295h-2.213V6.152h-1.451v4.619
			h-2.209v1.297h2.209v3.107h-2.209v1.293h2.209v5.699l-3.1-4.688c-0.215-0.334-0.67-0.428-0.998-0.209
			C10.834,17.498,10.742,17.947,10.963,18.281"/>
	</g>
	<g>
		<g>
			<g>
				<defs>
					<path id="SVGID_1867_" d="M40.135,1.559c-1.953,0-3.533,1.582-3.533,3.527v21.828c0,1.951,1.58,3.527,3.533,3.527h23.734
						c1.951,0,3.531-1.576,3.531-3.527V5.086c0-1.945-1.58-3.527-3.531-3.527H40.135z"/>
				</defs>
				<clipPath id="SVGID_20_">
					<use xlink:href="#SVGID_1867_"  overflow="visible"/>
				</clipPath>
				
					<linearGradient id="SVGID_21_" gradientUnits="userSpaceOnUse" x1="-502.1055" y1="-649.7832" x2="-500.3654" y2="-649.7832" gradientTransform="matrix(5.8606 19.1691 19.1691 -5.8606 15445.2715 5816.0771)">
					<stop  offset="0" style="stop-color:#FFFFFF"/>
					<stop  offset="1" style="stop-color:#D0D0D0"/>
				</linearGradient>
				<polygon clip-path="url(#SVGID_20_)" fill="url(#SVGID_21_)" points="64.771,-7.037 75.494,27.973 39.232,39.039 28.512,4.027 
									"/>
			</g>
		</g>
	</g>
</g>
<g id="Layer_5">
</g>
</svg>
