<?xml version="1.0" encoding="utf-8"?>
<!-- Generator: Adobe Illustrator 16.0.0, SVG Export Plug-In . SVG Version: 6.00 Build 0)  -->
<!DOCTYPE svg PUBLIC "-//W3C//DTD SVG 1.1//EN" "http://www.w3.org/Graphics/SVG/1.1/DTD/svg11.dtd">
<svg version="1.1" id="Reference" xmlns="http://www.w3.org/2000/svg" xmlns:xlink="http://www.w3.org/1999/xlink" x="0px" y="0px"
	 width="32px" height="32px" viewBox="0 0 32 32" enable-background="new 0 0 32 32" xml:space="preserve">
<g>
	<g>
		<g>
			<defs>
				<path id="SVGID_1_" d="M4.135,1.546c-1.952,0-3.533,1.582-3.533,3.527V26.9c0,1.951,1.581,3.527,3.533,3.527h23.734
					c1.951,0,3.531-1.576,3.531-3.527V5.073c0-1.945-1.58-3.527-3.531-3.527H4.135z"/>
			</defs>
			<clipPath id="SVGID_2_">
				<use xlink:href="#SVGID_1_"  overflow="visible"/>
			</clipPath>
			
				<linearGradient id="SVGID_3_" gradientUnits="userSpaceOnUse" x1="-491.5571" y1="1466.0977" x2="-489.8165" y2="1466.0977" gradientTransform="matrix(5.8606 19.1691 -19.1691 5.8606 30995.4824 829.7593)">
				<stop  offset="0" style="stop-color:#FFFFFF"/>
				<stop  offset="1" style="stop-color:#D0D0D0"/>
			</linearGradient>
			<polygon clip-path="url(#SVGID_2_)" fill="url(#SVGID_3_)" points="28.771,-7.05 39.494,27.96 3.232,39.025 -7.488,4.015 			"/>
		</g>
	</g>
	<path fill="none" stroke="#5C5C5C" stroke-width="0.4351" stroke-linejoin="round" d="M31.402,26.9
		c0,1.953-1.582,3.527-3.531,3.527H4.136c-1.951,0-3.538-1.574-3.538-3.527V5.073c0-1.945,1.587-3.527,3.538-3.527h23.735
		c1.949,0,3.531,1.582,3.531,3.527V26.9z"/>
	<g>
		<g>
			<defs>
				<path id="SVGID_4_" d="M4.23,2.558c-1.459,0-2.646,1.188-2.646,2.648v21.567c0,1.455,1.188,2.642,2.646,2.642h23.542
					c1.463,0,2.648-1.187,2.648-2.642V5.206c0-1.461-1.188-2.648-2.648-2.648H4.23z"/>
			</defs>
			<clipPath id="SVGID_5_">
				<use xlink:href="#SVGID_4_"  overflow="visible"/>
			</clipPath>
			
				<linearGradient id="SVGID_6_" gradientUnits="userSpaceOnUse" x1="-468.9048" y1="1425.9072" x2="-467.166" y2="1425.9072" gradientTransform="matrix(0 15.4443 -15.4443 0 22038.1309 7244.4688)">
				<stop  offset="0" style="stop-color:#FFFFFF"/>
				<stop  offset="1" style="stop-color:#F3F3F3"/>
			</linearGradient>
			<rect x="1.584" y="2.558" clip-path="url(#SVGID_5_)" fill="url(#SVGID_6_)" width="28.837" height="26.857"/>
		</g>
	</g>
	<path fill="none" stroke="#FAFAFA" stroke-width="0.4351" stroke-linejoin="round" d="M30.421,26.773
		c0,1.455-1.19,2.644-2.647,2.644H4.229c-1.457,0-2.647-1.188-2.647-2.644V5.206c0-1.463,1.19-2.646,2.647-2.646h23.544
		c1.457,0,2.647,1.184,2.647,2.646V26.773z"/>
</g>
<g enable-background="new    ">
	<path d="M15.948,20.412c1.601,0,2.495,1.397,2.495,2.901s-0.895,2.901-2.495,2.901c-1.6,0-2.496-1.397-2.496-2.901
		S14.348,20.412,15.948,20.412z M15.948,25.403c1.151,0,1.558-1.13,1.558-2.09s-0.406-2.091-1.558-2.091
		c-1.152,0-1.557,1.131-1.557,2.091S14.796,25.403,15.948,25.403z M15.532,19.58c-0.181,0.075-0.267,0.096-0.363,0.096
		c-0.277,0-0.405-0.287-0.405-0.447c0-0.128,0.075-0.277,0.374-0.395l1.227-0.502c0.181-0.074,0.267-0.096,0.362-0.096
		c0.277,0,0.406,0.288,0.406,0.448c0,0.128-0.075,0.277-0.374,0.395L15.532,19.58z"/>
</g>
<g>
	<g enable-background="new    ">
		<path d="M17.631,13.458c0.31,0,0.47,0.149,0.47,0.405s-0.16,0.405-0.47,0.405H14.25c-0.363,0-0.458-0.182-0.458-0.331
			c0-0.148,0.053-0.277,0.192-0.479l2.709-4.053h-2.325c-0.309,0-0.469-0.149-0.469-0.405c0-0.257,0.16-0.405,0.469-0.405h3.157
			c0.362,0,0.458,0.181,0.458,0.33s-0.053,0.277-0.191,0.48l-2.741,4.031l0.032,0.021H17.631z"/>
	</g>
	<g>
		<path d="M15.584,7.798c-0.181,0.074-0.267,0.096-0.362,0.096c-0.276,0-0.405-0.288-0.405-0.447c0-0.129,0.075-0.277,0.373-0.396
			l1.227-0.501c0.181-0.074,0.267-0.096,0.362-0.096c0.275,0,0.404,0.287,0.404,0.448c0,0.128-0.074,0.276-0.373,0.395L15.584,7.798
			z"/>
	</g>
</g>
</svg>
