<?xml version="1.0" encoding="utf-8"?>
<!-- Generator: Adobe Illustrator 16.0.4, SVG Export Plug-In . SVG Version: 6.00 Build 0)  -->
<!DOCTYPE svg PUBLIC "-//W3C//DTD SVG 1.1//EN" "http://www.w3.org/Graphics/SVG/1.1/DTD/svg11.dtd">
<svg version="1.1" id="Layer_1" xmlns="http://www.w3.org/2000/svg" xmlns:xlink="http://www.w3.org/1999/xlink" x="0px" y="0px"
	 width="32px" height="32px" viewBox="0 0 32 32" enable-background="new 0 0 32 32" xml:space="preserve">
<g id="Layer_3" display="none">
</g>
<g id="Layer_1_1_">
	<g>
		<g>
			<g>
				<g>
					<defs>
						<path id="SVGID_1_" d="M4.816,4.201c-2.33,0-4.219,1.889-4.219,4.223v15.16c0,2.322,1.889,4.215,4.219,4.215h22.366
							c2.332,0,4.221-1.893,4.221-4.215V8.424c0-2.334-1.889-4.223-4.221-4.223H4.816z"/>
					</defs>
					<clipPath id="SVGID_2_">
						<use xlink:href="#SVGID_1_"  overflow="visible"/>
					</clipPath>
					
						<linearGradient id="SVGID_3_" gradientUnits="userSpaceOnUse" x1="-338.9458" y1="818.7402" x2="-336.7394" y2="818.7402" gradientTransform="matrix(4.3973 14.3829 -14.3829 4.3973 13277.415 1274.8013)">
						<stop  offset="0" style="stop-color:#FFFFFF"/>
						<stop  offset="1" style="stop-color:#D0D0D0"/>
					</linearGradient>
					<polygon clip-path="url(#SVGID_2_)" fill="url(#SVGID_3_)" points="27.451,-6.129 38,25.781 3.818,38.129 -6,6.221 					"/>
				</g>
			</g>
			<path fill="none" stroke="#5C5C5C" stroke-width="0.5198" stroke-linejoin="round" d="M31.402,23.582
				c0,2.324-1.891,4.217-4.217,4.217H4.814c-2.33,0-4.217-1.893-4.217-4.217V8.424c0-2.336,1.887-4.217,4.217-4.217h22.372
				c2.326,0,4.217,1.881,4.217,4.217V23.582z"/>
			<g>
				<g>
					<defs>
						<path id="SVGID_4_" d="M4.926,5.416c-1.742,0-3.156,1.418-3.156,3.164v14.84c0,1.742,1.414,3.164,3.156,3.164h22.141
							c1.744,0,3.16-1.422,3.16-3.164V8.58c0-1.746-1.416-3.164-3.16-3.164H4.926z"/>
					</defs>
					<clipPath id="SVGID_5_">
						<use xlink:href="#SVGID_4_"  overflow="visible"/>
					</clipPath>
					
						<linearGradient id="SVGID_6_" gradientUnits="userSpaceOnUse" x1="-306.0879" y1="784.5859" x2="-304.0093" y2="784.5859" gradientTransform="matrix(0 10.1826 -10.1826 0 8005.127 3122.189)">
						<stop  offset="0" style="stop-color:#FFFFFF"/>
						<stop  offset="1" style="stop-color:#F3F3F3"/>
					</linearGradient>
					<rect x="1.77" y="5.416" clip-path="url(#SVGID_5_)" fill="url(#SVGID_6_)" width="28.457" height="21.168"/>
				</g>
			</g>
			<path fill="none" stroke="#FAFAFA" stroke-width="0.5198" stroke-linejoin="round" d="M30.227,23.424
				c0,1.742-1.416,3.16-3.162,3.16H4.93c-1.742,0-3.162-1.418-3.162-3.16V8.58c0-1.746,1.42-3.166,3.162-3.166h22.134
				c1.746,0,3.162,1.42,3.162,3.166V23.424z"/>
		</g>
		<path d="M15.997,11.486c1.623,0,2.933,1.658,2.933,4.514c0,2.854-1.31,4.514-2.933,4.514c-1.619,0-2.927-1.66-2.927-4.514
			C13.07,13.145,14.378,11.486,15.997,11.486 M15.997,19.566c0.976,0,1.76-1.086,1.76-3.566c0-2.48-0.784-3.564-1.76-3.564
			c-0.97,0-1.755,1.084-1.755,3.564C14.242,18.48,15.027,19.566,15.997,19.566"/>
	</g>
</g>
</svg>
