<?xml version="1.0" encoding="utf-8"?>
<!-- Generator: Adobe Illustrator 16.0.4, SVG Export Plug-In . SVG Version: 6.00 Build 0)  -->
<!DOCTYPE svg PUBLIC "-//W3C//DTD SVG 1.1//EN" "http://www.w3.org/Graphics/SVG/1.1/DTD/svg11.dtd">
<svg version="1.1" xmlns="http://www.w3.org/2000/svg" xmlns:xlink="http://www.w3.org/1999/xlink" x="0px" y="0px" width="32px"
	 height="32px" viewBox="0 0 32 32" enable-background="new 0 0 32 32" xml:space="preserve">
<g id="Layer_3" display="none">
</g>
<g id="Layer_2">
</g>
<g id="Layer_1">
	<g>
		<g>
			<g>
				<defs>
					<path id="SVGID_1177_" d="M-31.866,1.559c-1.952,0-3.533,1.582-3.533,3.527v21.828c0,1.951,1.581,3.527,3.533,3.527h23.734
						c1.952,0,3.532-1.576,3.532-3.527V5.086c0-1.945-1.58-3.527-3.532-3.527H-31.866z"/>
				</defs>
				<clipPath id="SVGID_2_">
					<use xlink:href="#SVGID_1177_"  overflow="visible"/>
				</clipPath>
				
					<linearGradient id="SVGID_3_" gradientUnits="userSpaceOnUse" x1="-254.8315" y1="-665.2402" x2="-253.0914" y2="-665.2402" gradientTransform="matrix(5.8606 19.1691 19.1691 -5.8606 14220.4004 985.4641)">
					<stop  offset="0" style="stop-color:#FFFFFF"/>
					<stop  offset="1" style="stop-color:#D0D0D0"/>
				</linearGradient>
				<polygon clip-path="url(#SVGID_2_)" fill="url(#SVGID_3_)" points="-7.229,-7.037 3.494,27.973 -32.768,39.039 -43.489,4.027 
									"/>
			</g>
		</g>
	</g>
	<g>
		<g>
			<g>
				<defs>
					<path id="SVGID_1183_" d="M4.135,1.559c-1.953,0-3.533,1.582-3.533,3.527v21.828c0,1.951,1.58,3.527,3.533,3.527h23.734
						c1.951,0,3.531-1.576,3.531-3.527V5.086c0-1.945-1.58-3.527-3.531-3.527H4.135z"/>
				</defs>
				<clipPath id="SVGID_5_">
					<use xlink:href="#SVGID_1183_"  overflow="visible"/>
				</clipPath>
				
					<linearGradient id="SVGID_6_" gradientUnits="userSpaceOnUse" x1="-254.3062" y1="-663.5225" x2="-252.566" y2="-663.5225" gradientTransform="matrix(5.8606 19.1691 19.1691 -5.8606 14220.4004 985.4641)">
					<stop  offset="0" style="stop-color:#FFFFFF"/>
					<stop  offset="1" style="stop-color:#D0D0D0"/>
				</linearGradient>
				<polygon clip-path="url(#SVGID_5_)" fill="url(#SVGID_6_)" points="28.771,-7.037 39.494,27.973 3.232,39.039 -7.489,4.027 				
					"/>
			</g>
			<path fill="none" stroke="#5C5C5C" stroke-width="0.4351" stroke-linejoin="round" d="M31.402,26.914
				c0,1.953-1.582,3.527-3.531,3.527H4.135c-1.951,0-3.537-1.574-3.537-3.527V5.086c0-1.945,1.586-3.527,3.537-3.527h23.736
				c1.949,0,3.531,1.582,3.531,3.527V26.914z"/>
			<g>
				<defs>
					<path id="SVGID_1186_" d="M4.23,2.57c-1.459,0-2.646,1.188-2.646,2.648v21.568c0,1.455,1.188,2.641,2.646,2.641h23.541
						c1.463,0,2.648-1.186,2.648-2.641V5.219c0-1.461-1.186-2.648-2.648-2.648H4.23z"/>
				</defs>
				<clipPath id="SVGID_8_">
					<use xlink:href="#SVGID_1186_"  overflow="visible"/>
				</clipPath>
				
					<linearGradient id="SVGID_9_" gradientUnits="userSpaceOnUse" x1="-243.1782" y1="-648.1045" x2="-241.4395" y2="-648.1045" gradientTransform="matrix(0 15.4443 15.4443 0 10025.5293 3758.2935)">
					<stop  offset="0" style="stop-color:#FFFFFF"/>
					<stop  offset="1" style="stop-color:#F3F3F3"/>
				</linearGradient>
				<rect x="1.584" y="2.57" clip-path="url(#SVGID_8_)" fill="url(#SVGID_9_)" width="28.836" height="26.857"/>
			</g>
			<path fill="none" stroke="#FAFAFA" stroke-width="0.4351" stroke-linejoin="round" d="M30.42,26.787
				c0,1.455-1.189,2.643-2.648,2.643H4.229c-1.457,0-2.648-1.188-2.648-2.643V5.219c0-1.463,1.191-2.646,2.648-2.646h23.543
				c1.459,0,2.648,1.184,2.648,2.646V26.787z"/>
		</g>
		<g>
			<path d="M17.639,10.803l0.068-0.092c0.527-0.709,0.789-1.414,1.131-1.414c0.229,0,0.424,0.113,0.424,0.34
				c0,0.309-0.238,0.846-1.062,1.828l0.992,1.174c0.139,0.16,0.205,0.266,0.205,0.436c0,0.238-0.178,0.412-0.408,0.412
				c-0.174,0-0.289-0.059-0.387-0.184l-0.986-1.131c-0.752,0.949-1.643,1.314-2.512,1.314c-1.324,0-2.502-0.869-2.502-2.363
				c0-1.383,0.686-1.979,1.816-2.662c-0.457-0.469-0.904-1.039-0.904-1.588c0-1.199,0.893-1.656,1.988-1.656
				c0.959,0,1.783,0.607,1.783,1.439c0,1.039-0.73,1.586-1.461,1.998L17.639,10.803z M15.197,12.549
				c0.693,0,1.219-0.275,1.857-1.039l-2.08-2.396c-1.057,0.604-1.367,1.152-1.367,1.893C13.607,11.852,14.119,12.549,15.197,12.549
				 M15.275,8.025c0.459-0.262,1.076-0.686,1.076-1.199c0-0.545-0.471-0.811-0.93-0.811c-0.49,0-0.896,0.275-0.896,0.834
				C14.525,7.191,14.879,7.582,15.275,8.025"/>
			<path d="M14.08,19.486c-0.24,0-0.434-0.193-0.434-0.432c0-0.24,0.193-0.436,0.434-0.436h4.123c0.311,0,0.512,0.08,0.512,0.318
				c0,0.16-0.068,0.32-0.191,0.605l-3.039,6.91c-0.135,0.32-0.387,0.365-0.605,0.365c-0.135,0-0.375-0.125-0.375-0.387
				c0-0.082,0.037-0.24,0.16-0.539l2.842-6.383v-0.023H14.08z"/>
		</g>
	</g>
	<g>
		<g>
			<g>
				<defs>
					<path id="SVGID_1189_" d="M40.135,1.559c-1.953,0-3.533,1.582-3.533,3.527v21.828c0,1.951,1.58,3.527,3.533,3.527h23.734
						c1.951,0,3.531-1.576,3.531-3.527V5.086c0-1.945-1.58-3.527-3.531-3.527H40.135z"/>
				</defs>
				<clipPath id="SVGID_11_">
					<use xlink:href="#SVGID_1189_"  overflow="visible"/>
				</clipPath>
				
					<linearGradient id="SVGID_12_" gradientUnits="userSpaceOnUse" x1="-253.7812" y1="-661.8047" x2="-252.0411" y2="-661.8047" gradientTransform="matrix(5.8606 19.1691 19.1691 -5.8606 14220.4004 985.4641)">
					<stop  offset="0" style="stop-color:#FFFFFF"/>
					<stop  offset="1" style="stop-color:#D0D0D0"/>
				</linearGradient>
				<polygon clip-path="url(#SVGID_11_)" fill="url(#SVGID_12_)" points="64.771,-7.037 75.494,27.973 39.232,39.039 28.512,4.027 
									"/>
			</g>
		</g>
	</g>
</g>
<g id="Language_specific">
</g>
<g id="Layer_5">
</g>
</svg>
