<?xml version="1.0" encoding="utf-8"?>
<!-- Generator: Adobe Illustrator 16.0.0, SVG Export Plug-In . SVG Version: 6.00 Build 0)  -->
<!DOCTYPE svg PUBLIC "-//W3C//DTD SVG 1.1//EN" "http://www.w3.org/Graphics/SVG/1.1/DTD/svg11.dtd">
<svg version="1.1" id="Layer_1" xmlns="http://www.w3.org/2000/svg" xmlns:xlink="http://www.w3.org/1999/xlink" x="0px" y="0px"
	 width="32px" height="32px" viewBox="0 0 32 32" enable-background="new 0 0 32 32" xml:space="preserve">
<g id="Layer_3" display="none">
</g>
<g id="Layer_2">
</g>
<g id="Layer_1_1_">
</g>
<g id="Language_specific">
	<g>
		<g>
			<g>
				<g>
					<defs>
						<path id="SVGID_1_" d="M4.134,1.559c-1.952,0-3.533,1.582-3.533,3.527v21.828c0,1.951,1.581,3.527,3.533,3.527h23.734
							c1.952,0,3.532-1.576,3.532-3.527V5.086c0-1.945-1.58-3.527-3.532-3.527H4.134z"/>
					</defs>
					<clipPath id="SVGID_2_">
						<use xlink:href="#SVGID_1_"  overflow="visible"/>
					</clipPath>
					
						<linearGradient id="SVGID_3_" gradientUnits="userSpaceOnUse" x1="-1345.9927" y1="712.0898" x2="-1344.2526" y2="712.0898" gradientTransform="matrix(5.8606 19.1691 -19.1691 5.8606 21549.3262 21627.4785)">
						<stop  offset="0" style="stop-color:#FFFFFF"/>
						<stop  offset="1" style="stop-color:#D0D0D0"/>
					</linearGradient>
					<polygon clip-path="url(#SVGID_2_)" fill="url(#SVGID_3_)" points="28.771,-7.037 39.493,27.973 3.231,39.039 -7.489,4.027 
											"/>
				</g>
			</g>
			<path fill="none" stroke="#5C5C5C" stroke-width="0.4351" stroke-linejoin="round" d="M31.402,26.914
				c0,1.953-1.582,3.527-3.532,3.527H4.135c-1.951,0-3.538-1.574-3.538-3.527V5.086c0-1.945,1.587-3.527,3.538-3.527H27.87
				c1.95,0,3.532,1.582,3.532,3.527V26.914z"/>
			<g>
				<g>
					<defs>
						<path id="SVGID_4_" d="M4.229,2.57c-1.459,0-2.646,1.188-2.646,2.648v21.568c0,1.455,1.188,2.641,2.646,2.641h23.542
							c1.461,0,2.647-1.186,2.647-2.641V5.219c0-1.461-1.187-2.648-2.647-2.648L4.229,2.57L4.229,2.57z"/>
					</defs>
					<clipPath id="SVGID_5_">
						<use xlink:href="#SVGID_4_"  overflow="visible"/>
					</clipPath>
					
						<linearGradient id="SVGID_6_" gradientUnits="userSpaceOnUse" x1="-1347.4873" y1="667.9717" x2="-1345.7485" y2="667.9717" gradientTransform="matrix(0 15.4443 -15.4443 0 10332.3496 20813.5781)">
						<stop  offset="0" style="stop-color:#FFFFFF"/>
						<stop  offset="1" style="stop-color:#F3F3F3"/>
					</linearGradient>
					<rect x="1.583" y="2.57" clip-path="url(#SVGID_5_)" fill="url(#SVGID_6_)" width="28.837" height="26.857"/>
				</g>
			</g>
			<path fill="none" stroke="#FAFAFA" stroke-width="0.4351" stroke-linejoin="round" d="M30.42,26.787
				c0,1.455-1.189,2.643-2.648,2.643H4.228c-1.457,0-2.647-1.188-2.647-2.643V5.219c0-1.463,1.19-2.646,2.647-2.646h23.543
				c1.459,0,2.648,1.184,2.648,2.646V26.787z"/>
		</g>
		<g>
			<path d="M15.892,26.635c-1.655,0-2.327-1.242-2.327-1.836c0-0.346,0.179-0.547,0.416-0.547c0.292,0,0.436,0.168,0.547,0.516
				c0.19,0.568,0.593,1.017,1.343,1.017c0.885,0,1.511-0.66,1.511-1.476c0-1.186-0.649-1.49-1.39-1.49
				c-0.391,0-0.601-0.168-0.601-0.424c0-0.225,0.143-0.346,0.513-0.426c0.796-0.178,1.12-0.559,1.12-1.287
				c0-0.76-0.447-1.297-1.131-1.297c-0.781,0-1.072,0.561-1.13,1.164c-0.032,0.447-0.302,0.459-0.47,0.459
				c-0.278,0-0.445-0.203-0.445-0.459c0-1.062,0.771-2.014,2.091-2.014c1.274,0,2.07,0.939,2.07,2.059
				c0,0.66-0.314,1.309-0.938,1.689c0.893,0.27,1.363,1.029,1.363,1.936C18.434,25.729,17.312,26.635,15.892,26.635"/>
		</g>
		<g enable-background="new    ">
			<path d="M16.822,8.917c0.276,0,0.476,0.145,0.476,0.454s-0.199,0.453-0.476,0.453h-1.206c0.033,0.188,0.078,0.398,0.078,0.73
				c0,0.52-0.343,1.316-0.952,1.858h3.729c0.276,0,0.475,0.144,0.475,0.454c0,0.31-0.198,0.453-0.475,0.453h-4.425
				c-0.31,0-0.586-0.077-0.586-0.465c0-0.476,1.261-0.995,1.261-2.312c0-0.199-0.011-0.476-0.078-0.72h-1.117
				c-0.276,0-0.476-0.144-0.476-0.453s0.199-0.454,0.476-0.454h0.852c-0.265-0.476-0.542-0.995-0.542-1.582
				c0-1.161,1.14-1.958,2.39-1.958c1.316,0,2.533,1.085,2.533,1.958c0,0.299-0.188,0.477-0.465,0.477
				c-0.74,0-0.354-1.527-2.057-1.527c-0.719,0-1.427,0.388-1.427,1.117c0,0.587,0.332,1.029,0.586,1.516H16.822z"/>
		</g>
	</g>
</g>
<g id="Layer_5">
</g>
</svg>
