<?xml version="1.0" encoding="utf-8"?>
<!-- Generator: Adobe Illustrator 16.0.4, SVG Export Plug-In . SVG Version: 6.00 Build 0)  -->
<!DOCTYPE svg PUBLIC "-//W3C//DTD SVG 1.1//EN" "http://www.w3.org/Graphics/SVG/1.1/DTD/svg11.dtd">
<svg version="1.1" id="Layer_1" xmlns="http://www.w3.org/2000/svg" xmlns:xlink="http://www.w3.org/1999/xlink" x="0px" y="0px"
	 width="64px" height="32px" viewBox="0 0 64 32" enable-background="new 0 0 64 32" xml:space="preserve">
<g>
	<g>
		<g>
			<g>
				<g>
					<defs>
						<path id="SVGID_1_" d="M4.135,1.559c-1.953,0-3.533,1.582-3.533,3.527v21.828c0,1.951,1.58,3.527,3.533,3.527h55.734
							c1.951,0,3.531-1.576,3.531-3.527V5.086c0-1.945-1.58-3.527-3.531-3.527H4.135z"/>
					</defs>
					<clipPath id="SVGID_2_">
						<use xlink:href="#SVGID_1_"  overflow="visible"/>
					</clipPath>
					
						<linearGradient id="SVGID_3_" gradientUnits="userSpaceOnUse" x1="-1330.709" y1="-229.478" x2="-1328.3459" y2="-229.478" gradientTransform="matrix(5.8606 19.1691 -19.1691 5.8606 3425.0928 26847.1914)">
						<stop  offset="0" style="stop-color:#FFFFFF"/>
						<stop  offset="1" style="stop-color:#D0D0D0"/>
					</linearGradient>
					<polygon clip-path="url(#SVGID_2_)" fill="url(#SVGID_3_)" points="60.771,-7.037 71.667,30.441 3.232,39.039 -7.333,2.573 
											"/>
				</g>
			</g>
		</g>
	</g>
	<path fill="none" stroke="#5C5C5C" stroke-width="0.4351" stroke-linejoin="round" d="M63.402,26.914
		c0,1.953-1.582,3.527-3.531,3.527H4.135c-1.951,0-3.537-1.574-3.537-3.527V5.086c0-1.945,1.586-3.527,3.537-3.527h55.736
		c1.949,0,3.531,1.582,3.531,3.527V26.914z"/>
	<g>
		<g>
			<g>
				<g>
					<defs>
						<path id="SVGID_4_" d="M4.23,2.57c-1.459,0-2.646,1.188-2.646,2.648v21.568c0,1.455,1.188,2.641,2.646,2.641h55.542
							c1.463,0,2.646-1.186,2.646-2.641V5.219c0-1.461-1.188-2.648-2.646-2.648L4.23,2.57L4.23,2.57z"/>
					</defs>
					<clipPath id="SVGID_5_">
						<use xlink:href="#SVGID_4_"  overflow="visible"/>
					</clipPath>
					
						<linearGradient id="SVGID_6_" gradientUnits="userSpaceOnUse" x1="-1332.4736" y1="-264.3945" x2="-1330.7349" y2="-264.3945" gradientTransform="matrix(0 15.4443 -15.4443 0 -4051.3901 20581.6914)">
						<stop  offset="0" style="stop-color:#FFFFFF"/>
						<stop  offset="1" style="stop-color:#F3F3F3"/>
					</linearGradient>
					<rect x="1.584" y="2.57" clip-path="url(#SVGID_5_)" fill="url(#SVGID_6_)" width="60.836" height="26.857"/>
				</g>
			</g>
		</g>
	</g>
	<path fill="none" stroke="#FAFAFA" stroke-width="0.4351" stroke-linejoin="round" d="M62.42,26.787
		c0,1.455-1.189,2.643-2.648,2.643H4.229c-1.457,0-2.647-1.188-2.647-2.643V5.219c0-1.463,1.19-2.646,2.647-2.646h55.542
		c1.459,0,2.647,1.184,2.647,2.646L62.42,26.787L62.42,26.787z"/>
</g>
<g>
	<path d="M15.987,16.426c0,1.061,0.696,1.888,1.885,1.888c1.405,0,1.765-0.839,2.162-0.839c0.192,0,0.384,0.163,0.384,0.454
		c0,0.502-1.309,1.271-2.558,1.271c-2.042,0-2.93-1.527-2.93-3.171c0-1.679,1.081-3.171,2.87-3.171c1.741,0,2.75,1.527,2.75,3.02
		c0,0.361-0.132,0.548-0.588,0.548H15.987z M19.494,15.657c0-0.886-0.528-1.912-1.693-1.912c-1.309-0.047-1.777,0.967-1.813,1.912
		H19.494z"/>
	<path d="M23.283,12.859c0.876,0,2.125,0.455,2.125,1.096c0,0.221-0.156,0.419-0.48,0.419c-0.456,0-0.636-0.629-1.645-0.629
		c-0.601,0-1.117,0.256-1.117,0.781c0,1.084,3.41,0.968,3.41,2.763c0,1.294-1.141,1.912-2.33,1.912
		c-1.345,0-2.402-0.653-2.402-1.178c0-0.279,0.204-0.467,0.433-0.467c0.468,0,0.853,0.758,2.005,0.758
		c0.769,0,1.237-0.42,1.237-0.839c0-1.212-3.411-1.143-3.411-2.868C21.109,13.465,22.214,12.859,23.283,12.859z"/>
	<path d="M26.327,13.407c0-0.338,0.204-0.548,0.528-0.548s0.528,0.21,0.528,0.548v0.303h0.024c0.3-0.56,0.865-0.851,1.706-0.851
		c1.729,0,2.726,1.527,2.726,3.171c0,1.644-0.997,3.171-2.726,3.171c-0.841,0-1.429-0.455-1.706-0.84h-0.024v2.74
		c0,0.338-0.204,0.547-0.528,0.547s-0.528-0.209-0.528-0.547V13.407z M29.028,18.314c1.297,0,1.753-1.235,1.753-2.285
		s-0.456-2.285-1.753-2.285c-1.297,0-1.753,1.235-1.753,2.285S27.731,18.314,29.028,18.314z"/>
	<path d="M37.88,18.699c0,0.361-0.288,0.502-0.492,0.502c-0.216,0-0.492-0.141-0.492-0.502v-0.432h-0.024
		c-0.456,0.63-1.057,0.934-1.741,0.934c-1.801,0-2.81-1.527-2.81-3.171c0-1.644,1.009-3.171,2.81-3.171
		c0.732,0,1.249,0.303,1.741,0.828h0.024V13.36c0-0.361,0.276-0.501,0.492-0.501c0.204,0,0.492,0.14,0.492,0.501V18.699z
		 M35.13,18.314c1.297,0,1.754-1.235,1.754-2.285s-0.457-2.285-1.754-2.285s-1.753,1.235-1.753,2.285S33.833,18.314,35.13,18.314z"
		/>
	<path d="M41.361,19.621c0.06-0.012,0.132-0.035,0.252-0.035c0.528,0,0.829,0.373,0.829,0.641c0,0.711-0.564,1.003-1.333,1.003
		c-0.505,0-0.877-0.163-0.877-0.408c0-0.151,0.084-0.315,0.252-0.315c0.156,0,0.408,0.094,0.625,0.094
		c0.288,0,0.42-0.082,0.42-0.314c0-0.21-0.18-0.21-0.528-0.21c-0.3,0-0.36-0.163-0.36-0.222c0-0.082,0.048-0.187,0.12-0.291
		l0.288-0.408c-1.609-0.233-2.378-1.633-2.378-3.125c0-1.644,0.938-3.171,2.883-3.171c1.08,0,1.717,0.361,1.717,0.781
		c0,0.21-0.18,0.431-0.433,0.431c-0.408,0-0.564-0.326-1.284-0.326c-1.31,0-1.825,1.235-1.825,2.285s0.516,2.285,1.825,2.285
		c0.744,0,0.937-0.35,1.272-0.35c0.24,0,0.408,0.152,0.408,0.432c0,0.373-0.54,0.77-1.573,0.793L41.361,19.621z"/>
	<path d="M46.201,12.859c1.801,0,2.81,1.527,2.81,3.171c0,1.644-1.009,3.171-2.81,3.171c-1.802,0-2.811-1.527-2.811-3.171
		C43.391,14.386,44.399,12.859,46.201,12.859z M46.201,18.314c1.297,0,1.753-1.235,1.753-2.285s-0.456-2.285-1.753-2.285
		s-1.753,1.235-1.753,2.285S44.904,18.314,46.201,18.314z"/>
</g>
</svg>
