<?xml version="1.0" encoding="utf-8"?>
<!-- Generator: Adobe Illustrator 16.0.0, SVG Export Plug-In . SVG Version: 6.00 Build 0)  -->
<!DOCTYPE svg PUBLIC "-//W3C//DTD SVG 1.1//EN" "http://www.w3.org/Graphics/SVG/1.1/DTD/svg11.dtd">
<svg version="1.1" id="Layer_1" xmlns="http://www.w3.org/2000/svg" xmlns:xlink="http://www.w3.org/1999/xlink" x="0px" y="0px"
	 width="32px" height="32px" viewBox="0 0 32 32" enable-background="new 0 0 32 32" xml:space="preserve">
<g id="Layer_3" display="none">
</g>
<g id="Layer_2">
	<g display="none">
		<g display="inline">
			<g>
				<defs>
					<path id="SVGID_1_" d="M-31.183-27.799c-2.331,0-4.22,1.889-4.22,4.223v15.16c0,2.322,1.889,4.215,4.22,4.215h22.365
						c2.331,0,4.221-1.893,4.221-4.215v-15.16c0-2.334-1.89-4.223-4.221-4.223H-31.183z"/>
				</defs>
				<clipPath id="SVGID_2_">
					<use xlink:href="#SVGID_1_"  overflow="visible"/>
				</clipPath>
				
					<linearGradient id="SVGID_3_" gradientUnits="userSpaceOnUse" x1="-525.3931" y1="665.7842" x2="-523.1872" y2="665.7842" gradientTransform="matrix(4.3973 14.3829 -14.3829 4.3973 11861.333 4597.0513)">
					<stop  offset="0" style="stop-color:#FFFFFF"/>
					<stop  offset="1" style="stop-color:#D0CFD0"/>
				</linearGradient>
				<polygon clip-path="url(#SVGID_2_)" fill="url(#SVGID_3_)" points="-8.548,-38.129 2,-6.219 -32.181,6.129 -42,-25.779 				"/>
			</g>
		</g>
	</g>
	<g display="none">
		<g display="inline">
			<g>
				<defs>
					<path id="SVGID_4_" d="M0.817-27.799c-2.331,0-4.22,1.889-4.22,4.223v15.16c0,2.322,1.889,4.215,4.22,4.215h22.365
						c2.332,0,4.221-1.893,4.221-4.215v-15.16c0-2.334-1.889-4.223-4.221-4.223H0.817z"/>
				</defs>
				<clipPath id="SVGID_5_">
					<use xlink:href="#SVGID_4_"  overflow="visible"/>
				</clipPath>
				
					<linearGradient id="SVGID_6_" gradientUnits="userSpaceOnUse" x1="-524.771" y1="663.75" x2="-522.5652" y2="663.75" gradientTransform="matrix(4.3973 14.3829 -14.3829 4.3973 11861.333 4597.0513)">
					<stop  offset="0" style="stop-color:#FFFFFF"/>
					<stop  offset="1" style="stop-color:#D0CFD0"/>
				</linearGradient>
				<polygon clip-path="url(#SVGID_5_)" fill="url(#SVGID_6_)" points="23.452,-38.129 34,-6.219 -0.181,6.129 -10,-25.779 				"/>
			</g>
		</g>
	</g>
	<g display="none">
		<g display="inline">
			<g>
				<defs>
					<path id="SVGID_7_" d="M32.816-27.799c-2.33,0-4.219,1.889-4.219,4.223v15.16c0,2.322,1.889,4.215,4.219,4.215h22.365
						c2.332,0,4.221-1.893,4.221-4.215v-15.16c0-2.334-1.889-4.223-4.221-4.223H32.816z"/>
				</defs>
				<clipPath id="SVGID_8_">
					<use xlink:href="#SVGID_7_"  overflow="visible"/>
				</clipPath>
				
					<linearGradient id="SVGID_9_" gradientUnits="userSpaceOnUse" x1="-524.1489" y1="661.7148" x2="-521.943" y2="661.7148" gradientTransform="matrix(4.3973 14.3829 -14.3829 4.3973 11861.333 4597.0513)">
					<stop  offset="0" style="stop-color:#FFFFFF"/>
					<stop  offset="1" style="stop-color:#D0CFD0"/>
				</linearGradient>
				<polygon clip-path="url(#SVGID_8_)" fill="url(#SVGID_9_)" points="55.452,-38.129 66,-6.219 31.818,6.129 22,-25.779 				"/>
			</g>
		</g>
	</g>
</g>
<g id="Layer_1_1_">
	<g>
		<g>
			<g>
				<g>
					<defs>
						<path id="SVGID_10_" d="M4.135,1.559c-1.953,0-3.533,1.582-3.533,3.527v21.828c0,1.951,1.58,3.527,3.533,3.527h23.734
							c1.951,0,3.531-1.576,3.531-3.527V5.086c0-1.945-1.58-3.527-3.531-3.527H4.135z"/>
					</defs>
					<clipPath id="SVGID_11_">
						<use xlink:href="#SVGID_10_"  overflow="visible"/>
					</clipPath>
					
						<linearGradient id="SVGID_12_" gradientUnits="userSpaceOnUse" x1="-548.6841" y1="672.0586" x2="-546.944" y2="672.0586" gradientTransform="matrix(5.8606 19.1691 -19.1691 5.8606 16109.2705 6578.3877)">
						<stop  offset="0" style="stop-color:#FFFFFF"/>
						<stop  offset="1" style="stop-color:#D0D0D0"/>
					</linearGradient>
					<polygon clip-path="url(#SVGID_11_)" fill="url(#SVGID_12_)" points="28.771,-7.037 39.494,27.973 3.232,39.039 -7.488,4.027 
											"/>
				</g>
			</g>
			<path fill="none" stroke="#5C5C5C" stroke-width="0.4351" stroke-linejoin="round" d="M31.402,26.914
				c0,1.953-1.582,3.527-3.531,3.527H4.135c-1.951,0-3.537-1.574-3.537-3.527V5.086c0-1.945,1.586-3.527,3.537-3.527h23.736
				c1.949,0,3.531,1.582,3.531,3.527V26.914z"/>
			<g>
				<g>
					<defs>
						<path id="SVGID_13_" d="M4.23,2.57c-1.459,0-2.646,1.188-2.646,2.648v21.568c0,1.455,1.188,2.641,2.646,2.641h23.542
							c1.463,0,2.647-1.186,2.647-2.641V5.219c0-1.461-1.187-2.648-2.647-2.648L4.23,2.57L4.23,2.57z"/>
					</defs>
					<clipPath id="SVGID_14_">
						<use xlink:href="#SVGID_13_"  overflow="visible"/>
					</clipPath>
					
						<linearGradient id="SVGID_15_" gradientUnits="userSpaceOnUse" x1="-539.4873" y1="640.4316" x2="-537.7485" y2="640.4316" gradientTransform="matrix(0 15.4443 -15.4443 0 9907.0186 8334.5762)">
						<stop  offset="0" style="stop-color:#FFFFFF"/>
						<stop  offset="1" style="stop-color:#F3F3F3"/>
					</linearGradient>
					<rect x="1.584" y="2.57" clip-path="url(#SVGID_14_)" fill="url(#SVGID_15_)" width="28.836" height="26.857"/>
				</g>
			</g>
			<path fill="none" stroke="#FAFAFA" stroke-width="0.4351" stroke-linejoin="round" d="M30.42,26.787
				c0,1.455-1.189,2.643-2.648,2.643H4.229c-1.457,0-2.648-1.188-2.648-2.643V5.219c0-1.463,1.191-2.646,2.648-2.646h23.542
				c1.459,0,2.648,1.184,2.648,2.646V26.787z"/>
		</g>
		<g>
			<path d="M16,19.795c0.131-0.256,0.283-0.5,0.633-0.5c0.283,0,0.541,0.217,0.541,0.514c0,0.148-0.041,0.285-0.146,0.5
				l-0.757,1.488c-0.139,0.256-0.281,0.498-0.635,0.498c-0.287,0-0.543-0.215-0.543-0.512c0-0.148,0.043-0.285,0.15-0.5L16,19.795z"
				/>
		</g>
	</g>
</g>
<g id="Language_specific">
</g>
<g id="Layer_5">
</g>
<path d="M14.328,7.715c-0.262-0.109-0.285-0.234-0.285-0.396c0-0.227,0.186-0.424,0.436-0.424c0.316,0,0.723,0.459,1.207,0.811
	c0-0.449-0.135-0.959-0.135-1.297c0-0.234,0.162-0.438,0.449-0.438c0.283,0,0.451,0.203,0.451,0.438
	c0,0.338-0.141,0.848-0.141,1.297c0.488-0.352,0.898-0.811,1.211-0.811c0.248,0,0.436,0.197,0.436,0.424
	c0,0.162-0.029,0.287-0.289,0.396l-1.107,0.463l1.107,0.461c0.26,0.113,0.289,0.238,0.289,0.4c0,0.223-0.188,0.426-0.436,0.426
	c-0.312,0-0.724-0.463-1.211-0.812c0,0.449,0.141,0.961,0.141,1.297c0,0.238-0.168,0.438-0.451,0.438
	c-0.287,0-0.449-0.199-0.449-0.438c0-0.336,0.135-0.848,0.135-1.297c-0.484,0.35-0.891,0.812-1.207,0.812
	c-0.25,0-0.436-0.203-0.436-0.426c0-0.162,0.023-0.287,0.285-0.4l1.109-0.461L14.328,7.715z"/>
<g enable-background="new    ">
	<path d="M25.814,22.876c-0.035,0.125-0.07,0.249-0.07,0.365c0,0.151,0.07,0.258,0.249,0.258c0.569,0,1.174-0.845,1.174-1.763
		c0-1.379-1.165-2.17-2.437-2.17c-1.539,0-2.688,1.166-2.688,2.634c0,1.548,1.192,2.633,2.769,2.633
		c1.502,0,1.857-0.979,2.355-0.979c0.125,0,0.223,0.08,0.223,0.205c0,0.489-1.468,1.361-2.642,1.361
		c-1.877,0-3.381-1.406-3.381-3.221c0-1.807,1.521-3.221,3.362-3.221c1.682,0,3.113,1.076,3.113,2.65
		c0,1.727-1.415,2.473-2.207,2.473c-0.355,0-0.561-0.16-0.621-0.506h-0.02c-0.24,0.268-0.631,0.506-1.021,0.506
		c-0.766,0-1.344-0.631-1.344-1.396c0-1.13,0.809-2.304,2.01-2.304c0.437,0,0.811,0.187,1.041,0.666l0.115-0.354
		c0.062-0.196,0.17-0.258,0.355-0.258c0.143,0,0.285,0.053,0.285,0.194c0,0.062-0.019,0.135-0.07,0.32L25.814,22.876z
		 M24.143,23.428c0.881,0,1.211-1.21,1.211-1.707c0-0.437-0.224-0.642-0.668-0.642c-0.854,0-1.271,0.881-1.271,1.548
		C23.413,23.1,23.742,23.428,24.143,23.428z"/>
</g>
</svg>
