<?xml version="1.0" encoding="utf-8"?>
<!-- Generator: Adobe Illustrator 16.0.0, SVG Export Plug-In . SVG Version: 6.00 Build 0)  -->
<!DOCTYPE svg PUBLIC "-//W3C//DTD SVG 1.1//EN" "http://www.w3.org/Graphics/SVG/1.1/DTD/svg11.dtd">
<svg version="1.1" id="Reference" xmlns="http://www.w3.org/2000/svg" xmlns:xlink="http://www.w3.org/1999/xlink" x="0px" y="0px"
	 width="32px" height="32px" viewBox="0 0 32 32" enable-background="new 0 0 32 32" xml:space="preserve">
<g>
	<g>
		<g>
			<g>
				<defs>
					<path id="SVGID_1_" d="M4.135,1.57c-1.952,0-3.533,1.582-3.533,3.527v21.828c0,1.951,1.581,3.527,3.533,3.527h23.734
						c1.951,0,3.531-1.576,3.531-3.527V5.098c0-1.945-1.58-3.527-3.531-3.527L4.135,1.57L4.135,1.57z"/>
				</defs>
				<clipPath id="SVGID_2_">
					<use xlink:href="#SVGID_1_"  overflow="visible"/>
				</clipPath>
				
					<linearGradient id="SVGID_3_" gradientUnits="userSpaceOnUse" x1="-677.7021" y1="1521.8711" x2="-675.9621" y2="1521.8711" gradientTransform="matrix(5.8606 19.1691 -19.1691 5.8606 33155.543 4071.1499)">
					<stop  offset="0" style="stop-color:#FFFFFF"/>
					<stop  offset="1" style="stop-color:#D0D0D0"/>
				</linearGradient>
				<polygon clip-path="url(#SVGID_2_)" fill="url(#SVGID_3_)" points="28.771,-7.025 39.494,27.984 3.232,39.051 -7.488,4.039 				
					"/>
			</g>
		</g>
		<path fill="none" stroke="#5C5C5C" stroke-width="0.4351" stroke-linejoin="round" d="M31.402,26.926
			c0,1.953-1.582,3.527-3.531,3.527H4.136c-1.951,0-3.538-1.574-3.538-3.527V5.098c0-1.945,1.587-3.527,3.538-3.527h23.735
			c1.949,0,3.531,1.582,3.531,3.527V26.926z"/>
		<g>
			<g>
				<defs>
					<path id="SVGID_4_" d="M4.23,2.582c-1.459,0-2.646,1.188-2.646,2.648v21.568c0,1.455,1.188,2.642,2.646,2.642h23.542
						c1.463,0,2.648-1.187,2.648-2.642V5.23c0-1.461-1.188-2.648-2.648-2.648H4.23z"/>
				</defs>
				<clipPath id="SVGID_5_">
					<use xlink:href="#SVGID_4_"  overflow="visible"/>
				</clipPath>
				
					<linearGradient id="SVGID_6_" gradientUnits="userSpaceOnUse" x1="-656.7598" y1="1477.4756" x2="-655.0205" y2="1477.4756" gradientTransform="matrix(0 15.4443 -15.4443 0 22834.5684 10145.7812)">
					<stop  offset="0" style="stop-color:#FFFFFF"/>
					<stop  offset="1" style="stop-color:#F3F3F3"/>
				</linearGradient>
				<rect x="1.584" y="2.582" clip-path="url(#SVGID_5_)" fill="url(#SVGID_6_)" width="28.837" height="26.857"/>
			</g>
		</g>
		<path fill="none" stroke="#FAFAFA" stroke-width="0.4351" stroke-linejoin="round" d="M30.421,26.799
			c0,1.455-1.19,2.643-2.647,2.643H4.229c-1.457,0-2.647-1.188-2.647-2.643V5.23c0-1.463,1.19-2.646,2.647-2.646h23.544
			c1.457,0,2.647,1.184,2.647,2.646V26.799z"/>
	</g>
	<path d="M6.62,14.665c-0.225,0.309-0.372,0.347-0.549,0.347c-0.248,0-0.497-0.199-0.497-0.462c0-0.171,0.101-0.334,0.175-0.443
		l2.771-3.918L6.208,6.917C6.086,6.743,6.031,6.596,6.031,6.472c0-0.275,0.228-0.46,0.485-0.46c0.189,0,0.35,0.051,0.562,0.349
		l2.077,3.032l2.074-3.032c0.209-0.298,0.371-0.349,0.559-0.349c0.262,0,0.486,0.185,0.486,0.46c0,0.124-0.047,0.271-0.174,0.445
		l-2.312,3.271l2.771,3.918c0.074,0.109,0.172,0.272,0.172,0.443c0,0.263-0.246,0.462-0.493,0.462c-0.176,0-0.324-0.038-0.549-0.347
		l-2.534-3.62L6.62,14.665z"/>
	<g enable-background="new    ">
		<path d="M21.042,18.96v2.426c0,1.033,0.539,1.628,1.606,1.628c0.527,0,1.1-0.19,1.493-0.438V18.96h0.988v7.614h-0.988V23.34
			h-0.022c-0.527,0.303-1.156,0.472-1.819,0.472c-0.999,0-2.235-0.427-2.235-2.28V18.96H21.042z"/>
	</g>
</g>
</svg>
