<?xml version="1.0" encoding="utf-8"?>
<!-- Generator: Adobe Illustrator 16.0.4, SVG Export Plug-In . SVG Version: 6.00 Build 0)  -->
<!DOCTYPE svg PUBLIC "-//W3C//DTD SVG 1.1//EN" "http://www.w3.org/Graphics/SVG/1.1/DTD/svg11.dtd">
<svg version="1.1" xmlns="http://www.w3.org/2000/svg" xmlns:xlink="http://www.w3.org/1999/xlink" x="0px" y="0px" width="32px"
	 height="32px" viewBox="0 0 32 32" enable-background="new 0 0 32 32" xml:space="preserve">
<g id="Layer_3" display="none">
</g>
<g id="Layer_2">
	<g display="none">
		<g display="inline">
			<defs>
				<path id="SVGID_715_" d="M-19.183-27.799c-2.331,0-4.22,1.889-4.22,4.223v15.16c0,2.322,1.889,4.215,4.22,4.215H3.183
					c2.331,0,4.221-1.893,4.221-4.215v-15.16c0-2.334-1.89-4.223-4.221-4.223H-19.183z"/>
			</defs>
			<clipPath id="SVGID_2_">
				<use xlink:href="#SVGID_715_"  overflow="visible"/>
			</clipPath>
			
				<linearGradient id="SVGID_3_" gradientUnits="userSpaceOnUse" x1="-451.9414" y1="-650.3926" x2="-449.7356" y2="-650.3926" gradientTransform="matrix(4.3973 14.3829 14.3829 -4.3973 11328.959 3608.2939)">
				<stop  offset="0" style="stop-color:#FFFFFF"/>
				<stop  offset="1" style="stop-color:#D0CFD0"/>
			</linearGradient>
			<polygon clip-path="url(#SVGID_2_)" fill="url(#SVGID_3_)" points="3.452,-38.129 14,-6.219 -20.181,6.129 -30,-25.779 			"/>
		</g>
	</g>
	<g display="none">
		<g display="inline">
			<defs>
				<path id="SVGID_721_" d="M12.817-27.799c-2.331,0-4.22,1.889-4.22,4.223v15.16c0,2.322,1.889,4.215,4.22,4.215h22.365
					c2.331,0,4.221-1.893,4.221-4.215v-15.16c0-2.334-1.89-4.223-4.221-4.223H12.817z"/>
			</defs>
			<clipPath id="SVGID_5_">
				<use xlink:href="#SVGID_721_"  overflow="visible"/>
			</clipPath>
			
				<linearGradient id="SVGID_6_" gradientUnits="userSpaceOnUse" x1="-451.3193" y1="-648.3574" x2="-449.1135" y2="-648.3574" gradientTransform="matrix(4.3973 14.3829 14.3829 -4.3973 11328.959 3608.2939)">
				<stop  offset="0" style="stop-color:#FFFFFF"/>
				<stop  offset="1" style="stop-color:#D0CFD0"/>
			</linearGradient>
			<polygon clip-path="url(#SVGID_5_)" fill="url(#SVGID_6_)" points="35.452,-38.129 46,-6.219 11.819,6.129 2,-25.779 			"/>
		</g>
	</g>
</g>
<g id="Layer_1">
	<g>
		<g>
			<g>
				<defs>
					<path id="SVGID_829_" d="M4.135,1.559c-1.952,0-3.533,1.582-3.533,3.527v21.828c0,1.951,1.581,3.527,3.533,3.527h23.734
						c1.952,0,3.532-1.576,3.532-3.527V5.086c0-1.945-1.58-3.527-3.532-3.527H4.135z"/>
				</defs>
				<clipPath id="SVGID_8_">
					<use xlink:href="#SVGID_829_"  overflow="visible"/>
				</clipPath>
				
					<linearGradient id="SVGID_9_" gradientUnits="userSpaceOnUse" x1="-467.1558" y1="-653.2178" x2="-465.4156" y2="-653.2178" gradientTransform="matrix(5.8606 19.1691 19.1691 -5.8606 15270.291 5125.9897)">
					<stop  offset="0" style="stop-color:#FFFFFF"/>
					<stop  offset="1" style="stop-color:#D0D0D0"/>
				</linearGradient>
				<polygon clip-path="url(#SVGID_8_)" fill="url(#SVGID_9_)" points="28.771,-7.037 39.494,27.973 3.232,39.039 -7.488,4.027 				
					"/>
			</g>
			<path fill="none" stroke="#5C5C5C" stroke-width="0.4351" stroke-linejoin="round" d="M31.403,26.914
				c0,1.953-1.582,3.527-3.532,3.527H4.136c-1.951,0-3.538-1.574-3.538-3.527V5.086c0-1.945,1.587-3.527,3.538-3.527h23.735
				c1.95,0,3.532,1.582,3.532,3.527V26.914z"/>
			<g>
				<defs>
					<path id="SVGID_832_" d="M4.23,2.57c-1.459,0-2.646,1.188-2.646,2.648v21.568c0,1.455,1.188,2.641,2.646,2.641h23.542
						c1.462,0,2.648-1.186,2.648-2.641V5.219c0-1.461-1.187-2.648-2.648-2.648H4.23z"/>
				</defs>
				<clipPath id="SVGID_11_">
					<use xlink:href="#SVGID_832_"  overflow="visible"/>
				</clipPath>
				
					<linearGradient id="SVGID_12_" gradientUnits="userSpaceOnUse" x1="-459.1782" y1="-634.1191" x2="-457.4395" y2="-634.1191" gradientTransform="matrix(0 15.4443 15.4443 0 9809.5293 7094.2622)">
					<stop  offset="0" style="stop-color:#FFFFFF"/>
					<stop  offset="1" style="stop-color:#F3F3F3"/>
				</linearGradient>
				<rect x="1.584" y="2.57" clip-path="url(#SVGID_11_)" fill="url(#SVGID_12_)" width="28.837" height="26.857"/>
			</g>
			<path fill="none" stroke="#FAFAFA" stroke-width="0.4351" stroke-linejoin="round" d="M30.421,26.787
				c0,1.455-1.19,2.643-2.648,2.643H4.229c-1.457,0-2.647-1.188-2.647-2.643V5.219c0-1.463,1.19-2.646,2.647-2.646h23.544
				c1.458,0,2.648,1.184,2.648,2.646V26.787z"/>
		</g>
		<path d="M16.371,11.404c0,0.297-0.173,0.479-0.447,0.479s-0.449-0.182-0.449-0.479v-1.152c0-0.457,0.012-0.541,0.714-0.682
			c0.806-0.164,0.937-0.725,0.937-1.102c0-0.693-0.497-1.123-1.182-1.123c-0.541,0-0.958,0.195-1.181,0.838
			c-0.092,0.266-0.215,0.336-0.398,0.336c-0.234,0-0.449-0.182-0.439-0.469c0.042-0.896,1.04-1.539,1.987-1.539
			c1.235,0,2.172,0.795,2.172,1.875c0,1.102-0.692,1.783-1.713,1.998V11.404z M15.924,12.852c0.284,0,0.519,0.234,0.519,0.52
			c0,0.287-0.234,0.521-0.519,0.521c-0.286,0-0.521-0.234-0.521-0.521C15.402,13.086,15.638,12.852,15.924,12.852"/>
		<g>
			<path d="M13.772,20.463c0-1.422,0.847-2.27,2.084-2.27c1.324,0,2.161,1.043,2.161,1.977c0,0.814-0.25,1.422-0.837,1.824
				c0.924,0.238,1.455,1.15,1.455,2.148c0,1.15-0.782,2.496-2.149,2.496c-0.456,0-0.63-0.186-0.63-0.445
				c0-0.193,0.087-0.412,0.358-0.412c1.097,0,1.4-0.693,1.4-1.682c0-1.021-0.586-1.541-1.313-1.586
				c-0.358-0.021-0.488-0.15-0.488-0.402c0-0.303,0.13-0.367,0.488-0.477c0.347-0.107,0.761-0.293,0.761-1.355
				c0-0.695-0.446-1.26-1.184-1.26c-0.564,0-1.151,0.326-1.151,1.627v5.525c0,0.338-0.25,0.467-0.478,0.467
				s-0.478-0.129-0.478-0.467V20.463z"/>
		</g>
	</g>
	<g>
		<g>
			<g>
				<defs>
					<path id="SVGID_835_" d="M40.135,1.559c-1.952,0-3.533,1.582-3.533,3.527v21.828c0,1.951,1.581,3.527,3.533,3.527h23.734
						c1.952,0,3.532-1.576,3.532-3.527V5.086c0-1.945-1.58-3.527-3.532-3.527H40.135z"/>
				</defs>
				<clipPath id="SVGID_14_">
					<use xlink:href="#SVGID_835_"  overflow="visible"/>
				</clipPath>
				
					<linearGradient id="SVGID_15_" gradientUnits="userSpaceOnUse" x1="-466.6309" y1="-651.5" x2="-464.8907" y2="-651.5" gradientTransform="matrix(5.8606 19.1691 19.1691 -5.8606 15270.291 5125.9897)">
					<stop  offset="0" style="stop-color:#FFFFFF"/>
					<stop  offset="1" style="stop-color:#D0D0D0"/>
				</linearGradient>
				<polygon clip-path="url(#SVGID_14_)" fill="url(#SVGID_15_)" points="64.771,-7.037 75.494,27.973 39.232,39.039 28.512,4.027 
									"/>
			</g>
		</g>
	</g>
</g>
<g id="Language_specific">
	<g>
		<g>
			<g>
				<defs>
					<path id="SVGID_979_" d="M-31.865,1.559c-1.952,0-3.533,1.582-3.533,3.527v21.828c0,1.951,1.581,3.527,3.533,3.527h23.734
						c1.952,0,3.532-1.576,3.532-3.527V5.086c0-1.945-1.58-3.527-3.532-3.527H-31.865z"/>
				</defs>
				<clipPath id="SVGID_17_">
					<use xlink:href="#SVGID_979_"  overflow="visible"/>
				</clipPath>
				
					<linearGradient id="SVGID_18_" gradientUnits="userSpaceOnUse" x1="-467.6812" y1="-654.9355" x2="-465.9406" y2="-654.9355" gradientTransform="matrix(5.8606 19.1691 19.1691 -5.8606 15270.291 5125.9897)">
					<stop  offset="0" style="stop-color:#FFFFFF"/>
					<stop  offset="1" style="stop-color:#D0D0D0"/>
				</linearGradient>
				<polygon clip-path="url(#SVGID_17_)" fill="url(#SVGID_18_)" points="-7.229,-7.037 3.494,27.973 -32.768,39.039 -43.488,4.027 
									"/>
			</g>
		</g>
	</g>
</g>
<g id="Layer_5">
</g>
</svg>
