<?xml version="1.0" encoding="utf-8"?>
<!-- Generator: Adobe Illustrator 16.0.4, SVG Export Plug-In . SVG Version: 6.00 Build 0)  -->
<!DOCTYPE svg PUBLIC "-//W3C//DTD SVG 1.1//EN" "http://www.w3.org/Graphics/SVG/1.1/DTD/svg11.dtd">
<svg version="1.1" xmlns="http://www.w3.org/2000/svg" xmlns:xlink="http://www.w3.org/1999/xlink" x="0px" y="0px" width="32px"
	 height="32px" viewBox="0 0 32 32" enable-background="new 0 0 32 32" xml:space="preserve">
<g id="Layer_3" display="none">
</g>
<g id="Layer_2">
</g>
<g id="Layer_1">
</g>
<g id="Language_specific">
	<g>
		<g>
			<g>
				<defs>
					<path id="SVGID_883_" d="M4.135,1.559c-1.953,0-3.533,1.582-3.533,3.527v21.828c0,1.951,1.58,3.527,3.533,3.527h23.734
						c1.951,0,3.531-1.576,3.531-3.527V5.086c0-1.945-1.58-3.527-3.531-3.527H4.135z"/>
				</defs>
				<clipPath id="SVGID_2_">
					<use xlink:href="#SVGID_883_"  overflow="visible"/>
				</clipPath>
				
					<linearGradient id="SVGID_3_" gradientUnits="userSpaceOnUse" x1="-1029.8271" y1="-625.9766" x2="-1028.087" y2="-625.9766" gradientTransform="matrix(5.8606 19.1691 19.1691 -5.8606 18045.6934 16071.5449)">
					<stop  offset="0" style="stop-color:#FFFFFF"/>
					<stop  offset="1" style="stop-color:#D0D0D0"/>
				</linearGradient>
				<polygon clip-path="url(#SVGID_2_)" fill="url(#SVGID_3_)" points="28.771,-7.037 39.494,27.973 3.232,39.039 -7.488,4.027 				
					"/>
			</g>
			<path fill="none" stroke="#5C5C5C" stroke-width="0.4351" stroke-linejoin="round" d="M31.402,26.914
				c0,1.953-1.582,3.527-3.531,3.527H4.135c-1.951,0-3.537-1.574-3.537-3.527V5.086c0-1.945,1.586-3.527,3.537-3.527h23.736
				c1.949,0,3.531,1.582,3.531,3.527V26.914z"/>
			<g>
				<defs>
					<path id="SVGID_886_" d="M4.23,2.57c-1.459,0-2.646,1.188-2.646,2.648v21.568c0,1.455,1.188,2.641,2.646,2.641h23.541
						c1.463,0,2.648-1.186,2.648-2.641V5.219c0-1.461-1.186-2.648-2.648-2.648H4.23z"/>
				</defs>
				<clipPath id="SVGID_5_">
					<use xlink:href="#SVGID_886_"  overflow="visible"/>
				</clipPath>
				
					<linearGradient id="SVGID_6_" gradientUnits="userSpaceOnUse" x1="-1030.1782" y1="-597.1475" x2="-1028.4395" y2="-597.1475" gradientTransform="matrix(0 15.4443 15.4443 0 9238.5293 15912.957)">
					<stop  offset="0" style="stop-color:#FFFFFF"/>
					<stop  offset="1" style="stop-color:#F3F3F3"/>
				</linearGradient>
				<rect x="1.584" y="2.57" clip-path="url(#SVGID_5_)" fill="url(#SVGID_6_)" width="28.836" height="26.857"/>
			</g>
			<path fill="none" stroke="#FAFAFA" stroke-width="0.4351" stroke-linejoin="round" d="M30.42,26.787
				c0,1.455-1.189,2.643-2.648,2.643H4.229c-1.457,0-2.648-1.188-2.648-2.643V5.219c0-1.463,1.191-2.646,2.648-2.646h23.543
				c1.459,0,2.648,1.184,2.648,2.646V26.787z"/>
		</g>
		<path d="M27.303,25.902h0.355c0.219,0,0.396,0.178,0.396,0.398c0,0.219-0.178,0.398-0.396,0.398h-0.725
			c-0.348,0-0.492-0.221-0.492-0.504v-7.381c0-0.281,0.145-0.502,0.492-0.502h0.725c0.219,0,0.396,0.178,0.396,0.398
			c0,0.219-0.178,0.398-0.396,0.398h-0.355V25.902z"/>
		<path d="M14.027,9.721c-0.238,0.428-0.338,0.629-0.627,0.629c-0.266,0-0.465-0.176-0.465-0.414c0-0.176,0.127-0.377,0.215-0.541
			l2.197-3.918C15.51,5.188,15.674,4.961,16,4.961s0.49,0.227,0.654,0.516l2.195,3.918c0.092,0.164,0.215,0.365,0.215,0.541
			c0,0.238-0.201,0.414-0.463,0.414c-0.291,0-0.389-0.201-0.629-0.629L16,6.066L14.027,9.721z"/>
		<path d="M15.047,19.869c-0.352-0.141-0.441-0.316-0.441-0.465c0-0.191,0.15-0.527,0.479-0.527c0.115,0,0.213,0.023,0.428,0.111
			l1.443,0.592c0.352,0.137,0.439,0.312,0.439,0.463c0,0.189-0.15,0.527-0.479,0.527c-0.109,0-0.211-0.023-0.424-0.111
			L15.047,19.869z"/>
	</g>
</g>
<g id="Layer_5">
</g>
</svg>
