<?xml version="1.0" encoding="utf-8"?>
<!-- Generator: Adobe Illustrator 16.0.4, SVG Export Plug-In . SVG Version: 6.00 Build 0)  -->
<!DOCTYPE svg PUBLIC "-//W3C//DTD SVG 1.1//EN" "http://www.w3.org/Graphics/SVG/1.1/DTD/svg11.dtd">
<svg version="1.1" xmlns="http://www.w3.org/2000/svg" xmlns:xlink="http://www.w3.org/1999/xlink" x="0px" y="0px" width="32px"
	 height="32px" viewBox="0 0 32 32" enable-background="new 0 0 32 32" xml:space="preserve">
<g id="Layer_3" display="none">
</g>
<g id="Layer_2">
</g>
<g id="Layer_1">
	<g>
		<g>
			<g>
				<defs>
					<path id="SVGID_787_" d="M4.134,1.559c-1.952,0-3.533,1.582-3.533,3.527v21.828c0,1.951,1.581,3.527,3.533,3.527h23.734
						c1.952,0,3.532-1.576,3.532-3.527V5.086c0-1.945-1.58-3.527-3.532-3.527H4.134z"/>
				</defs>
				<clipPath id="SVGID_2_">
					<use xlink:href="#SVGID_787_"  overflow="visible"/>
				</clipPath>
				
					<linearGradient id="SVGID_3_" gradientUnits="userSpaceOnUse" x1="29.4927" y1="-677.2627" x2="31.2333" y2="-677.2627" gradientTransform="matrix(5.8606 19.1691 19.1691 -5.8606 12820.5488 -4535.2363)">
					<stop  offset="0" style="stop-color:#FFFFFF"/>
					<stop  offset="1" style="stop-color:#D0D0D0"/>
				</linearGradient>
				<polygon clip-path="url(#SVGID_2_)" fill="url(#SVGID_3_)" points="28.771,-7.037 39.494,27.973 3.232,39.039 -7.489,4.027 				
					"/>
			</g>
			<path fill="none" stroke="#5C5C5C" stroke-width="0.4351" stroke-linejoin="round" d="M31.403,26.914
				c0,1.953-1.582,3.527-3.532,3.527H4.135c-1.951,0-3.538-1.574-3.538-3.527V5.086c0-1.945,1.587-3.527,3.538-3.527h23.735
				c1.95,0,3.532,1.582,3.532,3.527V26.914z"/>
			<g>
				<defs>
					<path id="SVGID_790_" d="M4.23,2.57c-1.459,0-2.646,1.188-2.646,2.648v21.568c0,1.455,1.188,2.641,2.646,2.641h23.542
						c1.462,0,2.648-1.186,2.648-2.641V5.219c0-1.461-1.187-2.648-2.648-2.648H4.23z"/>
				</defs>
				<clipPath id="SVGID_5_">
					<use xlink:href="#SVGID_790_"  overflow="visible"/>
				</clipPath>
				
					<linearGradient id="SVGID_6_" gradientUnits="userSpaceOnUse" x1="44.8218" y1="-666.752" x2="46.5605" y2="-666.752" gradientTransform="matrix(0 15.4443 15.4443 0 10313.5293 -689.665)">
					<stop  offset="0" style="stop-color:#FFFFFF"/>
					<stop  offset="1" style="stop-color:#F3F3F3"/>
				</linearGradient>
				<rect x="1.583" y="2.57" clip-path="url(#SVGID_5_)" fill="url(#SVGID_6_)" width="28.837" height="26.857"/>
			</g>
			<path fill="none" stroke="#FAFAFA" stroke-width="0.4351" stroke-linejoin="round" d="M30.42,26.787
				c0,1.455-1.19,2.643-2.648,2.643H4.228c-1.457,0-2.647-1.188-2.647-2.643V5.219c0-1.463,1.19-2.646,2.647-2.646h23.544
				c1.458,0,2.648,1.184,2.648,2.646V26.787z"/>
		</g>
		<g>
			<path d="M18.012,25.301c0.234,0,0.424,0.189,0.424,0.422c0,0.236-0.189,0.428-0.424,0.428h-3.86
				c-0.414,0-0.537-0.234-0.537-0.402c0-0.125,0.046-0.215,0.215-0.447l2.751-3.682c0.334-0.436,0.582-0.93,0.582-1.41
				c0-0.727-0.549-1.242-1.265-1.242c-0.95,0-1.454,0.807-1.454,1.801c0,0.348-0.225,0.447-0.436,0.447
				c-0.316,0-0.483-0.189-0.483-0.604c0-1.32,0.897-2.494,2.54-2.494c1.32,0,2.148,0.949,2.148,1.98
				c0,0.459-0.032,0.973-0.547,1.645l-2.676,3.559H18.012z"/>
			<path d="M14.908,5.729c0.111-0.209,0.234-0.412,0.524-0.412c0.235,0,0.448,0.178,0.448,0.426c0,0.123-0.034,0.234-0.124,0.412
				L15.13,7.387c-0.111,0.213-0.234,0.414-0.525,0.414c-0.234,0-0.447-0.18-0.447-0.426c0-0.125,0.034-0.236,0.125-0.414
				L14.908,5.729z M16.495,5.729c0.113-0.209,0.234-0.412,0.525-0.412c0.238,0,0.449,0.178,0.449,0.426
				c0,0.123-0.036,0.234-0.123,0.412l-0.627,1.232c-0.111,0.213-0.232,0.414-0.525,0.414c-0.236,0-0.447-0.18-0.447-0.426
				c0-0.125,0.032-0.236,0.121-0.414L16.495,5.729z"/>
		</g>
	</g>
	<g>
		<g>
			<g>
				<defs>
					<path id="SVGID_793_" d="M40.134,1.559c-1.952,0-3.533,1.582-3.533,3.527v21.828c0,1.951,1.581,3.527,3.533,3.527h23.734
						c1.952,0,3.532-1.576,3.532-3.527V5.086c0-1.945-1.58-3.527-3.532-3.527H40.134z"/>
				</defs>
				<clipPath id="SVGID_8_">
					<use xlink:href="#SVGID_793_"  overflow="visible"/>
				</clipPath>
				
					<linearGradient id="SVGID_9_" gradientUnits="userSpaceOnUse" x1="30.0181" y1="-675.5449" x2="31.7582" y2="-675.5449" gradientTransform="matrix(5.8606 19.1691 19.1691 -5.8606 12820.5488 -4535.2363)">
					<stop  offset="0" style="stop-color:#FFFFFF"/>
					<stop  offset="1" style="stop-color:#D0D0D0"/>
				</linearGradient>
				<polygon clip-path="url(#SVGID_8_)" fill="url(#SVGID_9_)" points="64.771,-7.037 75.494,27.973 39.232,39.039 28.511,4.027 
									"/>
			</g>
		</g>
	</g>
</g>
<g id="Language_specific">
</g>
<g id="Layer_5">
</g>
</svg>
