<?xml version="1.0" encoding="utf-8"?>
<!-- Generator: Adobe Illustrator 16.0.4, SVG Export Plug-In . SVG Version: 6.00 Build 0)  -->
<!DOCTYPE svg PUBLIC "-//W3C//DTD SVG 1.1//EN" "http://www.w3.org/Graphics/SVG/1.1/DTD/svg11.dtd">
<svg version="1.1" xmlns="http://www.w3.org/2000/svg" xmlns:xlink="http://www.w3.org/1999/xlink" x="0px" y="0px" width="32px"
	 height="32px" viewBox="0 0 32 32" enable-background="new 0 0 32 32" xml:space="preserve">
<g id="Layer_3" display="none">
</g>
<g id="Layer_2">
</g>
<g id="Layer_1">
	<g>
		<g>
			<g>
				<defs>
					<path id="SVGID_793_" d="M-31.866,1.559c-1.952,0-3.533,1.582-3.533,3.527v21.828c0,1.951,1.581,3.527,3.533,3.527h23.734
						c1.952,0,3.532-1.576,3.532-3.527V5.086c0-1.945-1.58-3.527-3.532-3.527H-31.866z"/>
				</defs>
				<clipPath id="SVGID_2_">
					<use xlink:href="#SVGID_793_"  overflow="visible"/>
				</clipPath>
				
					<linearGradient id="SVGID_3_" gradientUnits="userSpaceOnUse" x1="-41.9819" y1="-675.5449" x2="-40.2418" y2="-675.5449" gradientTransform="matrix(5.8606 19.1691 19.1691 -5.8606 13170.5117 -3155.0615)">
					<stop  offset="0" style="stop-color:#FFFFFF"/>
					<stop  offset="1" style="stop-color:#D0D0D0"/>
				</linearGradient>
				<polygon clip-path="url(#SVGID_2_)" fill="url(#SVGID_3_)" points="-7.229,-7.037 3.494,27.973 -32.768,39.039 -43.489,4.027 
									"/>
			</g>
		</g>
	</g>
	<g>
		<g>
			<g>
				<defs>
					<path id="SVGID_799_" d="M4.134,1.559c-1.952,0-3.533,1.582-3.533,3.527v21.828c0,1.951,1.581,3.527,3.533,3.527h23.734
						c1.952,0,3.532-1.576,3.532-3.527V5.086c0-1.945-1.58-3.527-3.532-3.527H4.134z"/>
				</defs>
				<clipPath id="SVGID_5_">
					<use xlink:href="#SVGID_799_"  overflow="visible"/>
				</clipPath>
				
					<linearGradient id="SVGID_6_" gradientUnits="userSpaceOnUse" x1="-41.457" y1="-673.8281" x2="-39.7169" y2="-673.8281" gradientTransform="matrix(5.8606 19.1691 19.1691 -5.8606 13170.5117 -3155.0615)">
					<stop  offset="0" style="stop-color:#FFFFFF"/>
					<stop  offset="1" style="stop-color:#D0D0D0"/>
				</linearGradient>
				<polygon clip-path="url(#SVGID_5_)" fill="url(#SVGID_6_)" points="28.771,-7.037 39.494,27.973 3.232,39.039 -7.489,4.027 				
					"/>
			</g>
			<path fill="none" stroke="#5C5C5C" stroke-width="0.4351" stroke-linejoin="round" d="M31.403,26.914
				c0,1.953-1.582,3.527-3.532,3.527H4.135c-1.951,0-3.538-1.574-3.538-3.527V5.086c0-1.945,1.587-3.527,3.538-3.527h23.735
				c1.95,0,3.532,1.582,3.532,3.527V26.914z"/>
			<g>
				<defs>
					<path id="SVGID_802_" d="M4.23,2.57c-1.459,0-2.646,1.188-2.646,2.648v21.568c0,1.455,1.188,2.641,2.646,2.641h23.542
						c1.462,0,2.648-1.186,2.648-2.641V5.219c0-1.461-1.187-2.648-2.648-2.648H4.23z"/>
				</defs>
				<clipPath id="SVGID_8_">
					<use xlink:href="#SVGID_802_"  overflow="visible"/>
				</clipPath>
				
					<linearGradient id="SVGID_9_" gradientUnits="userSpaceOnUse" x1="-27.1782" y1="-662.0898" x2="-25.4395" y2="-662.0898" gradientTransform="matrix(0 15.4443 15.4443 0 10241.5293 422.3247)">
					<stop  offset="0" style="stop-color:#FFFFFF"/>
					<stop  offset="1" style="stop-color:#F3F3F3"/>
				</linearGradient>
				<rect x="1.583" y="2.57" clip-path="url(#SVGID_8_)" fill="url(#SVGID_9_)" width="28.837" height="26.857"/>
			</g>
			<path fill="none" stroke="#FAFAFA" stroke-width="0.4351" stroke-linejoin="round" d="M30.42,26.787
				c0,1.455-1.19,2.643-2.648,2.643H4.228c-1.457,0-2.647-1.188-2.647-2.643V5.219c0-1.463,1.19-2.646,2.647-2.646h23.544
				c1.458,0,2.648,1.184,2.648,2.646V26.787z"/>
		</g>
		<g>
			<path d="M17.631,10.691l0.067-0.09c0.514-0.693,0.772-1.385,1.108-1.385c0.223,0,0.413,0.111,0.413,0.334
				c0,0.301-0.232,0.826-1.04,1.789l0.973,1.152c0.136,0.156,0.201,0.258,0.201,0.426c0,0.234-0.179,0.402-0.401,0.402
				c-0.168,0-0.283-0.057-0.383-0.178l-0.96-1.107c-0.738,0.928-1.611,1.285-2.463,1.285c-1.297,0-2.45-0.85-2.45-2.314
				c0-1.354,0.672-1.938,1.78-2.607c-0.447-0.459-0.883-1.018-0.883-1.555c0-1.176,0.871-1.623,1.945-1.623
				c0.938,0,1.746,0.594,1.746,1.41c0,1.018-0.716,1.553-1.433,1.957L17.631,10.691z M15.237,12.402
				c0.683,0,1.197-0.268,1.822-1.018l-2.033-2.348c-1.042,0.59-1.343,1.129-1.343,1.855C13.683,11.721,14.187,12.402,15.237,12.402
				 M15.316,7.973c0.45-0.256,1.051-0.672,1.051-1.176c0-0.535-0.458-0.793-0.907-0.793c-0.479,0-0.883,0.268-0.883,0.816
				C14.577,7.156,14.926,7.537,15.316,7.973"/>
			<path d="M13.524,23.895c0-2.326,1.565-4.117,2.775-5.135c0.202-0.166,0.326-0.223,0.457-0.223c0.159,0,0.401,0.156,0.401,0.459
				c0,0.154-0.107,0.279-0.39,0.525c-0.636,0.57-1.107,1.107-1.71,2.215h0.021c0.368-0.191,0.729-0.312,1.263-0.312
				c1.301,0,2.015,1.229,2.015,2.617c0,1.445-1.027,2.596-2.439,2.596C14.533,26.637,13.524,25.486,13.524,23.895 M15.907,25.721
				c0.973,0,1.398-0.797,1.398-1.725c0-1.051-0.426-1.723-1.398-1.723s-1.397,0.805-1.397,1.723
				C14.509,24.924,14.934,25.721,15.907,25.721"/>
		</g>
	</g>
	<g>
		<g>
			<g>
				<defs>
					<path id="SVGID_805_" d="M40.134,1.559c-1.952,0-3.533,1.582-3.533,3.527v21.828c0,1.951,1.581,3.527,3.533,3.527h23.734
						c1.952,0,3.532-1.576,3.532-3.527V5.086c0-1.945-1.58-3.527-3.532-3.527H40.134z"/>
				</defs>
				<clipPath id="SVGID_11_">
					<use xlink:href="#SVGID_805_"  overflow="visible"/>
				</clipPath>
				
					<linearGradient id="SVGID_12_" gradientUnits="userSpaceOnUse" x1="-40.9321" y1="-672.1104" x2="-39.1915" y2="-672.1104" gradientTransform="matrix(5.8606 19.1691 19.1691 -5.8606 13170.5117 -3155.0615)">
					<stop  offset="0" style="stop-color:#FFFFFF"/>
					<stop  offset="1" style="stop-color:#D0D0D0"/>
				</linearGradient>
				<polygon clip-path="url(#SVGID_11_)" fill="url(#SVGID_12_)" points="64.771,-7.037 75.494,27.973 39.232,39.039 28.511,4.027 
									"/>
			</g>
		</g>
	</g>
</g>
<g id="Language_specific">
</g>
<g id="Layer_5">
</g>
</svg>
