<?xml version="1.0" encoding="utf-8"?>
<!-- Generator: Adobe Illustrator 16.0.4, SVG Export Plug-In . SVG Version: 6.00 Build 0)  -->
<!DOCTYPE svg PUBLIC "-//W3C//DTD SVG 1.1//EN" "http://www.w3.org/Graphics/SVG/1.1/DTD/svg11.dtd">
<svg version="1.1" xmlns="http://www.w3.org/2000/svg" xmlns:xlink="http://www.w3.org/1999/xlink" x="0px" y="0px" width="32px"
	 height="32px" viewBox="0 0 32 32" enable-background="new 0 0 32 32" xml:space="preserve">
<g id="Layer_3" display="none">
</g>
<g id="Layer_2">
	<g display="none">
		<g display="inline">
			<defs>
				<path id="SVGID_769_" d="M32.817-27.799c-2.331,0-4.22,1.889-4.22,4.223v15.16c0,2.322,1.889,4.215,4.22,4.215h22.365
					c2.331,0,4.221-1.893,4.221-4.215v-15.16c0-2.334-1.89-4.223-4.221-4.223H32.817z"/>
			</defs>
			<clipPath id="SVGID_2_">
				<use xlink:href="#SVGID_769_"  overflow="visible"/>
			</clipPath>
			
				<linearGradient id="SVGID_3_" gradientUnits="userSpaceOnUse" x1="-274.4297" y1="-658.5312" x2="-272.2238" y2="-658.5312" gradientTransform="matrix(4.3973 14.3829 14.3829 -4.3973 10717.4453 1019.3721)">
				<stop  offset="0" style="stop-color:#FFFFFF"/>
				<stop  offset="1" style="stop-color:#D0CFD0"/>
			</linearGradient>
			<polygon clip-path="url(#SVGID_2_)" fill="url(#SVGID_3_)" points="55.452,-38.129 66,-6.219 31.819,6.129 22,-25.779 			"/>
		</g>
	</g>
</g>
<g id="Layer_1">
	<g>
		<g>
			<g>
				<defs>
					<path id="SVGID_1705_" d="M4.816,4.201c-2.33,0-4.219,1.889-4.219,4.223v15.16c0,2.322,1.889,4.215,4.219,4.215h22.365
						c2.332,0,4.221-1.893,4.221-4.215V8.424c0-2.334-1.889-4.223-4.221-4.223H4.816z"/>
				</defs>
				<clipPath id="SVGID_5_">
					<use xlink:href="#SVGID_1705_"  overflow="visible"/>
				</clipPath>
				
					<linearGradient id="SVGID_6_" gradientUnits="userSpaceOnUse" x1="-272.9395" y1="-660.9336" x2="-270.7336" y2="-660.9336" gradientTransform="matrix(4.3973 14.3829 14.3829 -4.3973 10717.4453 1019.3721)">
					<stop  offset="0" style="stop-color:#FFFFFF"/>
					<stop  offset="1" style="stop-color:#D0D0D0"/>
				</linearGradient>
				<polygon clip-path="url(#SVGID_5_)" fill="url(#SVGID_6_)" points="27.451,-6.129 38,25.781 3.818,38.129 -6,6.221 				"/>
			</g>
			<path fill="none" stroke="#5C5C5C" stroke-width="0.5198" stroke-linejoin="round" d="M31.402,23.582
				c0,2.324-1.891,4.217-4.217,4.217H4.814c-2.33,0-4.217-1.893-4.217-4.217V8.424c0-2.336,1.887-4.217,4.217-4.217h22.371
				c2.326,0,4.217,1.881,4.217,4.217V23.582z"/>
			<g>
				<defs>
					<path id="SVGID_1708_" d="M4.926,5.416c-1.742,0-3.156,1.418-3.156,3.164v14.84c0,1.742,1.414,3.164,3.156,3.164h22.141
						c1.744,0,3.16-1.422,3.16-3.164V8.58c0-1.746-1.416-3.164-3.16-3.164H4.926z"/>
				</defs>
				<clipPath id="SVGID_8_">
					<use xlink:href="#SVGID_1708_"  overflow="visible"/>
				</clipPath>
				
					<linearGradient id="SVGID_9_" gradientUnits="userSpaceOnUse" x1="-248.2559" y1="-635.0703" x2="-246.1772" y2="-635.0703" gradientTransform="matrix(0 10.1826 10.1826 0 6482.6719 2533.3062)">
					<stop  offset="0" style="stop-color:#FFFFFF"/>
					<stop  offset="1" style="stop-color:#F3F3F3"/>
				</linearGradient>
				<rect x="1.77" y="5.416" clip-path="url(#SVGID_8_)" fill="url(#SVGID_9_)" width="28.457" height="21.168"/>
			</g>
			<path fill="none" stroke="#FAFAFA" stroke-width="0.5198" stroke-linejoin="round" d="M30.227,23.424
				c0,1.742-1.416,3.16-3.162,3.16H4.93c-1.742,0-3.162-1.418-3.162-3.16V8.58c0-1.746,1.42-3.166,3.162-3.166h22.135
				c1.746,0,3.162,1.42,3.162,3.166V23.424z"/>
		</g>
		<g>
			<path d="M18.411,18.809c1.037,0,1.65,0.359,1.65,0.777c0,0.209-0.17,0.426-0.413,0.426c-0.396,0-0.542-0.322-1.237-0.322
				c-1.263,0-1.76,1.227-1.76,2.268c0,1.039,0.497,2.266,1.76,2.266c0.718,0,0.901-0.348,1.221-0.348
				c0.231,0,0.398,0.152,0.398,0.43c0,0.381-0.568,0.799-1.619,0.799c-1.876,0-2.774-1.518-2.774-3.146
				C15.637,20.326,16.535,18.809,18.411,18.809"/>
			<path d="M21.36,17.551c0-0.336,0.198-0.545,0.509-0.545c0.313,0,0.509,0.209,0.509,0.545v1.328h0.418
				c0.334,0,0.509,0.164,0.509,0.438c0,0.281-0.175,0.441-0.509,0.441h-0.418v4.801c0,0.336-0.195,0.543-0.509,0.543
				c-0.311,0-0.509-0.207-0.509-0.543v-4.801h-0.418c-0.333,0-0.508-0.16-0.508-0.441c0-0.273,0.175-0.438,0.508-0.438h0.418V17.551
				z"/>
			<path d="M24.045,19.354c0-0.336,0.198-0.545,0.509-0.545c0.316,0,0.512,0.209,0.512,0.545v0.52h0.022
				c0.229-0.475,0.799-1.064,1.387-1.064c0.356,0,0.565,0.232,0.565,0.523c0,0.287-0.209,0.475-0.636,0.553
				c-0.602,0.105-1.339,0.557-1.339,1.75v2.924c0,0.336-0.195,0.545-0.512,0.545c-0.311,0-0.509-0.209-0.509-0.545V19.354z"/>
			<path d="M28.707,24.559c0,0.336-0.195,0.545-0.509,0.545c-0.311,0-0.509-0.209-0.509-0.545v-7.912
				c0-0.332,0.198-0.541,0.509-0.541c0.313,0,0.509,0.209,0.509,0.541V24.559z"/>
		</g>
	</g>
</g>
<g id="Language_specific">
	<g>
		<g>
			<g>
				<defs>
					<path id="SVGID_1765_" d="M-31.184,4.201c-2.33,0-4.219,1.889-4.219,4.223v15.16c0,2.322,1.889,4.215,4.219,4.215h22.365
						c2.332,0,4.221-1.893,4.221-4.215V8.424c0-2.334-1.889-4.223-4.221-4.223H-31.184z"/>
				</defs>
				<clipPath id="SVGID_11_">
					<use xlink:href="#SVGID_1765_"  overflow="visible"/>
				</clipPath>
				
					<linearGradient id="SVGID_12_" gradientUnits="userSpaceOnUse" x1="-273.6392" y1="-663.2227" x2="-271.4333" y2="-663.2227" gradientTransform="matrix(4.3973 14.3829 14.3829 -4.3973 10717.4453 1019.3721)">
					<stop  offset="0" style="stop-color:#FFFFFF"/>
					<stop  offset="1" style="stop-color:#D0D0D0"/>
				</linearGradient>
				<polygon clip-path="url(#SVGID_11_)" fill="url(#SVGID_12_)" points="-8.549,-6.129 2,25.781 -32.182,38.129 -42,6.221 				"/>
			</g>
		</g>
	</g>
	<g>
		<g>
			<g>
				<defs>
					<path id="SVGID_1909_" d="M40.816,4.201c-2.33,0-4.219,1.889-4.219,4.223v15.16c0,2.322,1.889,4.215,4.219,4.215h22.365
						c2.332,0,4.221-1.893,4.221-4.215V8.424c0-2.334-1.889-4.223-4.221-4.223H40.816z"/>
				</defs>
				<clipPath id="SVGID_14_">
					<use xlink:href="#SVGID_1909_"  overflow="visible"/>
				</clipPath>
				
					<linearGradient id="SVGID_15_" gradientUnits="userSpaceOnUse" x1="-272.2397" y1="-658.6445" x2="-270.0334" y2="-658.6445" gradientTransform="matrix(4.3973 14.3829 14.3829 -4.3973 10717.4453 1019.3721)">
					<stop  offset="0" style="stop-color:#FFFFFF"/>
					<stop  offset="1" style="stop-color:#D0D0D0"/>
				</linearGradient>
				<polygon clip-path="url(#SVGID_14_)" fill="url(#SVGID_15_)" points="63.451,-6.129 74,25.781 39.818,38.129 30,6.221 				"/>
			</g>
		</g>
	</g>
</g>
<g id="Layer_5">
</g>
</svg>
