<?xml version="1.0" encoding="utf-8"?>
<!-- Generator: Adobe Illustrator 16.0.4, SVG Export Plug-In . SVG Version: 6.00 Build 0)  -->
<!DOCTYPE svg PUBLIC "-//W3C//DTD SVG 1.1//EN" "http://www.w3.org/Graphics/SVG/1.1/DTD/svg11.dtd">
<svg version="1.1" id="Layer_1" xmlns="http://www.w3.org/2000/svg" xmlns:xlink="http://www.w3.org/1999/xlink" x="0px" y="0px"
	 width="32px" height="32px" viewBox="0 0 32 32" enable-background="new 0 0 32 32" xml:space="preserve">
<g id="Layer_3" display="none">
</g>
<g id="Layer_1_1_">
	<g>
		<g>
			<g>
				<g>
					<defs>
						<path id="SVGID_1_" d="M4.817,4.201c-2.331,0-4.22,1.889-4.22,4.223v15.16c0,2.322,1.889,4.215,4.22,4.215h22.365
							c2.332,0,4.221-1.893,4.221-4.215V8.424c0-2.334-1.889-4.223-4.221-4.223H4.817z"/>
					</defs>
					<clipPath id="SVGID_2_">
						<use xlink:href="#SVGID_1_"  overflow="visible"/>
					</clipPath>
					
						<linearGradient id="SVGID_3_" gradientUnits="userSpaceOnUse" x1="-338.9458" y1="818.7402" x2="-336.7394" y2="818.7402" gradientTransform="matrix(4.3973 14.3829 -14.3829 4.3973 13277.415 1274.8013)">
						<stop  offset="0" style="stop-color:#FFFFFF"/>
						<stop  offset="1" style="stop-color:#D0D0D0"/>
					</linearGradient>
					<polygon clip-path="url(#SVGID_2_)" fill="url(#SVGID_3_)" points="27.452,-6.129 38,25.781 3.819,38.129 -6,6.221 					"/>
				</g>
			</g>
			<path fill="none" stroke="#5C5C5C" stroke-width="0.5198" stroke-linejoin="round" d="M31.402,23.582
				c0,2.324-1.891,4.217-4.217,4.217H4.815c-2.331,0-4.218-1.893-4.218-4.217V8.424c0-2.336,1.887-4.217,4.218-4.217h22.371
				c2.326,0,4.217,1.881,4.217,4.217V23.582z"/>
			<g>
				<g>
					<defs>
						<path id="SVGID_4_" d="M4.926,5.416c-1.742,0-3.157,1.418-3.157,3.164v14.84c0,1.742,1.415,3.164,3.157,3.164h22.141
							c1.744,0,3.16-1.422,3.16-3.164V8.58c0-1.746-1.416-3.164-3.16-3.164H4.926z"/>
					</defs>
					<clipPath id="SVGID_5_">
						<use xlink:href="#SVGID_4_"  overflow="visible"/>
					</clipPath>
					
						<linearGradient id="SVGID_6_" gradientUnits="userSpaceOnUse" x1="-306.0879" y1="784.5869" x2="-304.0093" y2="784.5869" gradientTransform="matrix(0 10.1826 -10.1826 0 8005.127 3122.189)">
						<stop  offset="0" style="stop-color:#FFFFFF"/>
						<stop  offset="1" style="stop-color:#F3F3F3"/>
					</linearGradient>
					<rect x="1.769" y="5.416" clip-path="url(#SVGID_5_)" fill="url(#SVGID_6_)" width="28.458" height="21.168"/>
				</g>
			</g>
			<path fill="none" stroke="#FAFAFA" stroke-width="0.5198" stroke-linejoin="round" d="M30.227,23.424
				c0,1.742-1.416,3.16-3.162,3.16H4.929c-1.742,0-3.162-1.418-3.162-3.16V8.58c0-1.746,1.42-3.166,3.162-3.166h22.135
				c1.746,0,3.162,1.42,3.162,3.166V23.424z"/>
		</g>
		<g>
			<path d="M10.946,11.916h3.412c0.354,0,0.584-0.154,0.584-0.576c0-0.414-0.23-0.547-0.584-0.547h-3.945
				c-0.459,0-0.672,0.266-0.672,0.652v9.122c0,0.41,0.242,0.641,0.623,0.641c0.375,0,0.582-0.23,0.582-0.641v-4.051h3.072
				c0.34,0,0.582-0.208,0.582-0.548c0-0.389-0.242-0.58-0.582-0.58h-3.072V11.916"/>
			<path d="M18.758,11.84h2.879c0.295,0,0.523-0.213,0.523-0.531c0-0.303-0.203-0.51-0.523-0.51h-3.5
				c-0.27,0-0.393,0.064-0.42,0.285l-0.506,3.664c-0.049,0.303-0.105,0.654-0.105,0.848c0,0.178,0.105,0.373,0.369,0.373
				c0.176,0,0.764-0.254,0.971-0.295c0.234-0.07,0.466-0.102,0.783-0.102c1.242,0,1.746,1.004,1.746,2.209
				c0,1.244-0.729,2.277-1.938,2.277c-0.709,0-1.219-0.287-1.586-0.57c-0.184-0.131-0.574-0.48-0.809-0.48
				c-0.286,0-0.45,0.254-0.45,0.48c0,0.604,1.146,1.719,2.829,1.719c2.021,0,3.235-1.467,3.235-3.664c0-1.617-1-3.152-2.551-3.152
				c-0.438,0-0.849,0.09-1.354,0.297L18.758,11.84"/>
		</g>
	</g>
</g>
</svg>
