<?xml version="1.0" encoding="utf-8"?>
<!-- Generator: Adobe Illustrator 16.0.4, SVG Export Plug-In . SVG Version: 6.00 Build 0)  -->
<!DOCTYPE svg PUBLIC "-//W3C//DTD SVG 1.1//EN" "http://www.w3.org/Graphics/SVG/1.1/DTD/svg11.dtd">
<svg version="1.1" xmlns="http://www.w3.org/2000/svg" xmlns:xlink="http://www.w3.org/1999/xlink" x="0px" y="0px" width="32px"
	 height="32px" viewBox="0 0 32 32" enable-background="new 0 0 32 32" xml:space="preserve">
<g id="Layer_3" display="none">
</g>
<g id="Layer_2">
</g>
<g id="Layer_1">
	<g>
		<g>
			<g>
				<defs>
					<path id="SVGID_5413_" d="M4.817,4.201c-2.331,0-4.22,1.889-4.22,4.223v15.16c0,2.322,1.889,4.215,4.22,4.215h22.365
						c2.331,0,4.221-1.893,4.221-4.215V8.424c0-2.334-1.89-4.223-4.221-4.223H4.817z"/>
				</defs>
				<clipPath id="SVGID_2_">
					<use xlink:href="#SVGID_5413_"  overflow="visible"/>
				</clipPath>
				
					<linearGradient id="SVGID_3_" gradientUnits="userSpaceOnUse" x1="44.7622" y1="-681.5342" x2="46.9681" y2="-681.5342" gradientTransform="matrix(4.3973 14.3829 14.3829 -4.3973 9616.7207 -3640.6875)">
					<stop  offset="0" style="stop-color:#FFFFFF"/>
					<stop  offset="1" style="stop-color:#D0D0D0"/>
				</linearGradient>
				<polygon clip-path="url(#SVGID_2_)" fill="url(#SVGID_3_)" points="27.452,-6.129 38,25.781 3.819,38.129 -6,6.221 				"/>
			</g>
			<path fill="none" stroke="#5C5C5C" stroke-width="0.5198" stroke-linejoin="round" d="M31.403,23.582
				c0,2.324-1.892,4.217-4.217,4.217H4.815c-2.331,0-4.218-1.893-4.218-4.217V8.424c0-2.336,1.887-4.217,4.218-4.217h22.371
				c2.325,0,4.217,1.881,4.217,4.217V23.582z"/>
			<g>
				<defs>
					<path id="SVGID_5416_" d="M4.926,5.416c-1.742,0-3.157,1.418-3.157,3.164v14.84c0,1.742,1.415,3.164,3.157,3.164h22.14
						c1.745,0,3.161-1.422,3.161-3.164V8.58c0-1.746-1.416-3.164-3.161-3.164H4.926z"/>
				</defs>
				<clipPath id="SVGID_5_">
					<use xlink:href="#SVGID_5416_"  overflow="visible"/>
				</clipPath>
				
					<linearGradient id="SVGID_6_" gradientUnits="userSpaceOnUse" x1="75.7441" y1="-666.8896" x2="77.8228" y2="-666.8896" gradientTransform="matrix(0 10.1826 10.1826 0 6806.6719 -765.8561)">
					<stop  offset="0" style="stop-color:#FFFFFF"/>
					<stop  offset="1" style="stop-color:#F3F3F3"/>
				</linearGradient>
				<rect x="1.769" y="5.416" clip-path="url(#SVGID_5_)" fill="url(#SVGID_6_)" width="28.458" height="21.168"/>
			</g>
			<path fill="none" stroke="#FAFAFA" stroke-width="0.5198" stroke-linejoin="round" d="M30.226,23.424
				c0,1.742-1.415,3.16-3.162,3.16H4.929c-1.742,0-3.162-1.418-3.162-3.16V8.58c0-1.746,1.42-3.166,3.162-3.166h22.135
				c1.747,0,3.162,1.42,3.162,3.166V23.424z"/>
		</g>
		<g>
			<path d="M10.801,11.977h3.412c0.32,0,0.584-0.152,0.584-0.574c0-0.414-0.264-0.547-0.584-0.547h-3.959
				c-0.445,0-0.631,0.266-0.631,0.65v9.123c0,0.41,0.229,0.641,0.59,0.641c0.414,0,0.588-0.23,0.588-0.641v-4.053h3.072
				c0.34,0,0.566-0.207,0.566-0.545c0-0.389-0.227-0.582-0.566-0.582h-3.072V11.977"/>
			<path fill-rule="evenodd" clip-rule="evenodd" d="M20.711,15.418c1.002-0.746,1.178-1.291,1.178-2.305
				c0-1.561-1.275-2.383-2.549-2.383c-1.283,0-2.566,0.822-2.566,2.383c0,1.014,0.184,1.559,1.195,2.305
				c-1.283,0.568-1.691,1.471-1.691,2.633c0,1.607,1.121,3.219,3.062,3.219s3.035-1.611,3.035-3.219
				C22.375,16.889,21.979,15.986,20.711,15.418 M19.34,11.838c0.9,0,1.434,0.625,1.434,1.496c0,0.93-0.533,1.572-1.434,1.572
				c-0.889,0-1.436-0.643-1.436-1.572C17.905,12.463,18.452,11.838,19.34,11.838 M19.34,15.986c1.168,0,1.791,1.006,1.791,2.127
				c0,1.318-0.854,2.092-1.791,2.092c-0.9,0-1.824-0.773-1.824-2.092C17.516,16.992,18.186,15.986,19.34,15.986"/>
		</g>
	</g>
	<g>
		<g>
			<g>
				<defs>
					<path id="SVGID_5419_" d="M40.817,4.201c-2.331,0-4.22,1.889-4.22,4.223v15.16c0,2.322,1.889,4.215,4.22,4.215h22.365
						c2.331,0,4.221-1.893,4.221-4.215V8.424c0-2.334-1.89-4.223-4.221-4.223H40.817z"/>
				</defs>
				<clipPath id="SVGID_8_">
					<use xlink:href="#SVGID_5419_"  overflow="visible"/>
				</clipPath>
				
					<linearGradient id="SVGID_9_" gradientUnits="userSpaceOnUse" x1="45.4619" y1="-679.2451" x2="47.6678" y2="-679.2451" gradientTransform="matrix(4.3973 14.3829 14.3829 -4.3973 9616.7207 -3640.6875)">
					<stop  offset="0" style="stop-color:#FFFFFF"/>
					<stop  offset="1" style="stop-color:#D0D0D0"/>
				</linearGradient>
				<polygon clip-path="url(#SVGID_8_)" fill="url(#SVGID_9_)" points="63.452,-6.129 74,25.781 39.819,38.129 30,6.221 				"/>
			</g>
		</g>
	</g>
</g>
<g id="Language_specific">
</g>
<g id="Layer_5">
</g>
</svg>
