<?xml version="1.0" encoding="utf-8"?>
<!-- Generator: Adobe Illustrator 16.0.0, SVG Export Plug-In . SVG Version: 6.00 Build 0)  -->
<!DOCTYPE svg PUBLIC "-//W3C//DTD SVG 1.1//EN" "http://www.w3.org/Graphics/SVG/1.1/DTD/svg11.dtd">
<svg version="1.1" id="Reference" xmlns="http://www.w3.org/2000/svg" xmlns:xlink="http://www.w3.org/1999/xlink" x="0px" y="0px"
	 width="32px" height="32px" viewBox="0 0 32 32" enable-background="new 0 0 32 32" xml:space="preserve">
<g>
	<g>
		<g>
			<defs>
				<path id="SVGID_1_" d="M4.135,1.546c-1.952,0-3.533,1.582-3.533,3.527V26.9c0,1.951,1.581,3.527,3.533,3.527h23.734
					c1.951,0,3.531-1.576,3.531-3.527V5.073c0-1.945-1.58-3.527-3.531-3.527H4.135z"/>
			</defs>
			<clipPath id="SVGID_2_">
				<use xlink:href="#SVGID_1_"  overflow="visible"/>
			</clipPath>
			
				<linearGradient id="SVGID_3_" gradientUnits="userSpaceOnUse" x1="-653.8032" y1="1361.0645" x2="-652.0631" y2="1361.0645" gradientTransform="matrix(5.8606 19.1691 -19.1691 5.8606 29932.9512 4555.4312)">
				<stop  offset="0" style="stop-color:#FFFFFF"/>
				<stop  offset="1" style="stop-color:#D0D0D0"/>
			</linearGradient>
			<polygon clip-path="url(#SVGID_2_)" fill="url(#SVGID_3_)" points="28.771,-7.05 39.494,27.96 3.232,39.025 -7.488,4.015 			"/>
		</g>
	</g>
	<path fill="none" stroke="#5C5C5C" stroke-width="0.4351" stroke-linejoin="round" d="M31.402,26.9
		c0,1.953-1.582,3.527-3.531,3.527H4.136c-1.951,0-3.538-1.574-3.538-3.527V5.073c0-1.945,1.587-3.527,3.538-3.527h23.735
		c1.949,0,3.531,1.582,3.531,3.527V26.9z"/>
	<g>
		<g>
			<defs>
				<path id="SVGID_4_" d="M4.23,2.558c-1.459,0-2.646,1.188-2.646,2.648v21.567c0,1.455,1.188,2.642,2.646,2.642h23.542
					c1.463,0,2.648-1.187,2.648-2.642V5.206c0-1.461-1.188-2.648-2.648-2.648H4.23z"/>
			</defs>
			<clipPath id="SVGID_5_">
				<use xlink:href="#SVGID_4_"  overflow="visible"/>
			</clipPath>
			
				<linearGradient id="SVGID_6_" gradientUnits="userSpaceOnUse" x1="-635.1211" y1="1319.5469" x2="-633.3823" y2="1319.5469" gradientTransform="matrix(0 15.4443 -15.4443 0 20395.4746 9811.5625)">
				<stop  offset="0" style="stop-color:#FFFFFF"/>
				<stop  offset="1" style="stop-color:#F3F3F3"/>
			</linearGradient>
			<rect x="1.584" y="2.558" clip-path="url(#SVGID_5_)" fill="url(#SVGID_6_)" width="28.837" height="26.857"/>
		</g>
	</g>
	<path fill="none" stroke="#FAFAFA" stroke-width="0.4351" stroke-linejoin="round" d="M30.421,26.773
		c0,1.455-1.19,2.644-2.647,2.644H4.229c-1.457,0-2.647-1.188-2.647-2.644V5.206c0-1.463,1.19-2.646,2.647-2.646h23.544
		c1.457,0,2.647,1.184,2.647,2.646V26.773z"/>
</g>
<path d="M16.242,19.232h-1.053c-0.238,0-0.434-0.193-0.434-0.433s0.195-0.436,0.434-0.436h1.749c0.196,0,0.307,0.021,0.307,0.272
	v7.391c0,0.332-0.191,0.535-0.5,0.535c-0.309,0-0.502-0.203-0.502-0.535V19.232z"/>
<g enable-background="new    ">
	<path d="M16.318,5.55c1.051,0,1.795,0.719,1.795,1.323c0,0.201-0.113,0.402-0.35,0.402c-0.57,0-0.271-1.06-1.498-1.06
		c-0.561,0-1.025,0.263-1.025,0.735c0,1.13,3.109,1.008,3.109,2.908c0,0.587-0.402,1.174-0.954,1.48
		c0.386,0.263,0.569,0.596,0.569,1.033c0,0.867-0.963,1.366-1.839,1.357c-1.323-0.018-1.979-0.858-1.979-1.261
		c0-0.315,0.158-0.438,0.385-0.438c0.578,0,0.315,1.034,1.577,1.034c0.701,0,1.085-0.315,1.085-0.701
		c0-1.121-3.223-1.024-3.223-2.891c0-0.779,0.447-1.182,1.069-1.497c-0.403-0.298-0.569-0.543-0.569-0.99
		C14.47,6.076,15.232,5.55,16.318,5.55z M15.828,10.499l0.999,0.49c0.631-0.473,0.753-0.771,0.753-1.104
		c0-0.368-0.079-0.675-0.779-0.998l-1.095-0.509c-0.517,0.22-0.963,0.491-0.963,1.034C14.742,9.868,15.136,10.157,15.828,10.499z"/>
</g>
<g enable-background="new    ">
	<path fill="none" stroke="#000000" stroke-width="0.1" d="M16.318,5.55c1.051,0,1.795,0.719,1.795,1.323
		c0,0.201-0.113,0.402-0.35,0.402c-0.57,0-0.271-1.06-1.498-1.06c-0.561,0-1.025,0.263-1.025,0.735c0,1.13,3.109,1.008,3.109,2.908
		c0,0.587-0.402,1.174-0.954,1.48c0.386,0.263,0.569,0.596,0.569,1.033c0,0.867-0.963,1.366-1.839,1.357
		c-1.323-0.018-1.979-0.858-1.979-1.261c0-0.315,0.158-0.438,0.385-0.438c0.578,0,0.315,1.034,1.577,1.034
		c0.701,0,1.085-0.315,1.085-0.701c0-1.121-3.223-1.024-3.223-2.891c0-0.779,0.447-1.182,1.069-1.497
		c-0.403-0.298-0.569-0.543-0.569-0.99C14.47,6.076,15.232,5.55,16.318,5.55z M15.828,10.499l0.999,0.49
		c0.631-0.473,0.753-0.771,0.753-1.104c0-0.368-0.079-0.675-0.779-0.998l-1.095-0.509c-0.517,0.22-0.963,0.491-0.963,1.034
		C14.742,9.868,15.136,10.157,15.828,10.499z"/>
</g>
</svg>
