<?xml version="1.0" encoding="utf-8"?>
<!-- Generator: Adobe Illustrator 16.0.4, SVG Export Plug-In . SVG Version: 6.00 Build 0)  -->
<!DOCTYPE svg PUBLIC "-//W3C//DTD SVG 1.1//EN" "http://www.w3.org/Graphics/SVG/1.1/DTD/svg11.dtd">
<svg version="1.1" xmlns="http://www.w3.org/2000/svg" xmlns:xlink="http://www.w3.org/1999/xlink" x="0px" y="0px" width="32px"
	 height="32px" viewBox="0 0 32 32" enable-background="new 0 0 32 32" xml:space="preserve">
<g id="Layer_3" display="none">
</g>
<g id="Layer_2">
	<g display="none">
		<g display="inline">
			<defs>
				<path id="SVGID_733_" d="M-31.183-27.799c-2.331,0-4.22,1.889-4.22,4.223v15.16c0,2.322,1.889,4.215,4.22,4.215h22.365
					c2.331,0,4.221-1.893,4.221-4.215v-15.16c0-2.334-1.89-4.223-4.221-4.223H-31.183z"/>
			</defs>
			<clipPath id="SVGID_2_">
				<use xlink:href="#SVGID_733_"  overflow="visible"/>
			</clipPath>
			
				<linearGradient id="SVGID_3_" gradientUnits="userSpaceOnUse" x1="-558.0752" y1="-644.2871" x2="-555.8693" y2="-644.2871" gradientTransform="matrix(4.3973 14.3829 14.3829 -4.3973 11695.8682 5161.6475)">
				<stop  offset="0" style="stop-color:#FFFFFF"/>
				<stop  offset="1" style="stop-color:#D0CFD0"/>
			</linearGradient>
			<polygon clip-path="url(#SVGID_2_)" fill="url(#SVGID_3_)" points="-8.548,-38.129 2,-6.219 -32.181,6.129 -42,-25.779 			"/>
		</g>
	</g>
	<g display="none">
		<g display="inline">
			<defs>
				<path id="SVGID_739_" d="M0.817-27.799c-2.331,0-4.22,1.889-4.22,4.223v15.16c0,2.322,1.889,4.215,4.22,4.215h22.365
					c2.331,0,4.221-1.893,4.221-4.215v-15.16c0-2.334-1.89-4.223-4.221-4.223H0.817z"/>
			</defs>
			<clipPath id="SVGID_5_">
				<use xlink:href="#SVGID_739_"  overflow="visible"/>
			</clipPath>
			
				<linearGradient id="SVGID_6_" gradientUnits="userSpaceOnUse" x1="-557.4531" y1="-642.2539" x2="-555.2473" y2="-642.2539" gradientTransform="matrix(4.3973 14.3829 14.3829 -4.3973 11695.8682 5161.6475)">
				<stop  offset="0" style="stop-color:#FFFFFF"/>
				<stop  offset="1" style="stop-color:#D0CFD0"/>
			</linearGradient>
			<polygon clip-path="url(#SVGID_5_)" fill="url(#SVGID_6_)" points="23.452,-38.129 34,-6.219 -0.181,6.129 -10,-25.779 			"/>
		</g>
	</g>
	<g display="none">
		<g display="inline">
			<defs>
				<path id="SVGID_745_" d="M32.817-27.799c-2.331,0-4.22,1.889-4.22,4.223v15.16c0,2.322,1.889,4.215,4.22,4.215h22.365
					c2.331,0,4.221-1.893,4.221-4.215v-15.16c0-2.334-1.89-4.223-4.221-4.223H32.817z"/>
			</defs>
			<clipPath id="SVGID_8_">
				<use xlink:href="#SVGID_745_"  overflow="visible"/>
			</clipPath>
			
				<linearGradient id="SVGID_9_" gradientUnits="userSpaceOnUse" x1="-556.8311" y1="-640.2188" x2="-554.6252" y2="-640.2188" gradientTransform="matrix(4.3973 14.3829 14.3829 -4.3973 11695.8682 5161.6475)">
				<stop  offset="0" style="stop-color:#FFFFFF"/>
				<stop  offset="1" style="stop-color:#D0CFD0"/>
			</linearGradient>
			<polygon clip-path="url(#SVGID_8_)" fill="url(#SVGID_9_)" points="55.452,-38.129 66,-6.219 31.819,6.129 22,-25.779 			"/>
		</g>
	</g>
</g>
<g id="Layer_1">
</g>
<g id="Language_specific">
	<g>
		<g>
			<g>
				<defs>
					<path id="SVGID_913_" d="M-31.865,1.559c-1.952,0-3.533,1.582-3.533,3.527v21.828c0,1.951,1.581,3.527,3.533,3.527h23.734
						c1.952,0,3.532-1.576,3.532-3.527V5.086c0-1.945-1.58-3.527-3.532-3.527H-31.865z"/>
				</defs>
				<clipPath id="SVGID_11_">
					<use xlink:href="#SVGID_913_"  overflow="visible"/>
				</clipPath>
				
					<linearGradient id="SVGID_12_" gradientUnits="userSpaceOnUse" x1="-574.1055" y1="-649.7832" x2="-572.3654" y2="-649.7832" gradientTransform="matrix(5.8606 19.1691 19.1691 -5.8606 15795.2344 7196.2524)">
					<stop  offset="0" style="stop-color:#FFFFFF"/>
					<stop  offset="1" style="stop-color:#D0D0D0"/>
				</linearGradient>
				<polygon clip-path="url(#SVGID_11_)" fill="url(#SVGID_12_)" points="-7.229,-7.037 3.494,27.973 -32.768,39.039 -43.488,4.027 
									"/>
			</g>
		</g>
	</g>
	<g>
		<g>
			<g>
				<defs>
					<path id="SVGID_985_" d="M4.135,1.559c-1.953,0-3.533,1.582-3.533,3.527v21.828c0,1.951,1.58,3.527,3.533,3.527h23.734
						c1.951,0,3.531-1.576,3.531-3.527V5.086c0-1.945-1.58-3.527-3.531-3.527H4.135z"/>
				</defs>
				<clipPath id="SVGID_14_">
					<use xlink:href="#SVGID_985_"  overflow="visible"/>
				</clipPath>
				
					<linearGradient id="SVGID_15_" gradientUnits="userSpaceOnUse" x1="-573.5806" y1="-648.0654" x2="-571.8405" y2="-648.0654" gradientTransform="matrix(5.8606 19.1691 19.1691 -5.8606 15795.2344 7196.2524)">
					<stop  offset="0" style="stop-color:#FFFFFF"/>
					<stop  offset="1" style="stop-color:#D0D0D0"/>
				</linearGradient>
				<polygon clip-path="url(#SVGID_14_)" fill="url(#SVGID_15_)" points="28.771,-7.037 39.494,27.973 3.232,39.039 -7.488,4.027 
									"/>
			</g>
			<path fill="none" stroke="#5C5C5C" stroke-width="0.4351" stroke-linejoin="round" d="M31.402,26.914
				c0,1.953-1.582,3.527-3.531,3.527H4.135c-1.951,0-3.537-1.574-3.537-3.527V5.086c0-1.945,1.586-3.527,3.537-3.527h23.736
				c1.949,0,3.531,1.582,3.531,3.527V26.914z"/>
			<g>
				<defs>
					<path id="SVGID_988_" d="M4.23,2.57c-1.459,0-2.646,1.188-2.646,2.648v21.568c0,1.455,1.188,2.641,2.646,2.641h23.541
						c1.463,0,2.648-1.186,2.648-2.641V5.219c0-1.461-1.186-2.648-2.648-2.648H4.23z"/>
				</defs>
				<clipPath id="SVGID_17_">
					<use xlink:href="#SVGID_988_"  overflow="visible"/>
				</clipPath>
				
					<linearGradient id="SVGID_18_" gradientUnits="userSpaceOnUse" x1="-567.1782" y1="-627.126" x2="-565.4395" y2="-627.126" gradientTransform="matrix(0 15.4443 15.4443 0 9701.5293 8762.2461)">
					<stop  offset="0" style="stop-color:#FFFFFF"/>
					<stop  offset="1" style="stop-color:#F3F3F3"/>
				</linearGradient>
				<rect x="1.584" y="2.57" clip-path="url(#SVGID_17_)" fill="url(#SVGID_18_)" width="28.836" height="26.857"/>
			</g>
			<path fill="none" stroke="#FAFAFA" stroke-width="0.4351" stroke-linejoin="round" d="M30.42,26.787
				c0,1.455-1.189,2.643-2.648,2.643H4.229c-1.457,0-2.648-1.188-2.648-2.643V5.219c0-1.463,1.191-2.646,2.648-2.646h23.543
				c1.459,0,2.648,1.184,2.648,2.646V26.787z"/>
		</g>
		<path d="M15.031,19.744h2.545c0.334,0,0.578,0.174,0.578,0.553c0,0.381-0.244,0.555-0.578,0.555h-3.098
			c-0.443,0-0.635-0.287-0.635-0.65v-8.418c0-0.391,0.23-0.635,0.596-0.635c0.363,0,0.592,0.244,0.592,0.635V19.744z"/>
		<g>
			<path d="M25.554,22.766c-0.039,0.133-0.078,0.266-0.078,0.387c0,0.162,0.078,0.275,0.267,0.275c0.605,0,1.25-0.898,1.25-1.873
				c0-1.471-1.24-2.311-2.593-2.311c-1.64,0-2.859,1.238-2.859,2.803c0,1.645,1.267,2.803,2.943,2.803
				c1.598,0,1.979-1.043,2.509-1.043c0.133,0,0.235,0.086,0.235,0.219c0,0.521-1.561,1.447-2.811,1.447
				c-1.999,0-3.598-1.496-3.598-3.426c0-1.924,1.62-3.428,3.58-3.428c1.787,0,3.312,1.146,3.312,2.82
				c0,1.838-1.505,2.631-2.348,2.631c-0.379,0-0.596-0.168-0.662-0.539h-0.02c-0.256,0.285-0.674,0.539-1.088,0.539
				c-0.816,0-1.43-0.67-1.43-1.484c0-1.203,0.861-2.453,2.141-2.453c0.463,0,0.861,0.201,1.105,0.711l0.123-0.379
				c0.067-0.207,0.18-0.275,0.381-0.275c0.15,0,0.301,0.059,0.301,0.209c0,0.066-0.019,0.143-0.074,0.34L25.554,22.766z
				 M23.772,23.354c0.938,0,1.288-1.289,1.288-1.818c0-0.465-0.237-0.682-0.71-0.682c-0.907,0-1.355,0.936-1.355,1.646
				C22.995,23,23.347,23.354,23.772,23.354"/>
		</g>
	</g>
	<g>
		<g>
			<g>
				<defs>
					<path id="SVGID_991_" d="M41.135,1.559c-1.953,0-3.533,1.582-3.533,3.527v21.828c0,1.951,1.58,3.527,3.533,3.527h23.734
						c1.951,0,3.531-1.576,3.531-3.527V5.086c0-1.945-1.58-3.527-3.531-3.527H41.135z"/>
				</defs>
				<clipPath id="SVGID_20_">
					<use xlink:href="#SVGID_991_"  overflow="visible"/>
				</clipPath>
				
					<linearGradient id="SVGID_21_" gradientUnits="userSpaceOnUse" x1="-573.041" y1="-646.3008" x2="-571.3009" y2="-646.3008" gradientTransform="matrix(5.8606 19.1691 19.1691 -5.8606 15795.2344 7196.2524)">
					<stop  offset="0" style="stop-color:#FFFFFF"/>
					<stop  offset="1" style="stop-color:#D0D0D0"/>
				</linearGradient>
				<polygon clip-path="url(#SVGID_20_)" fill="url(#SVGID_21_)" points="65.771,-7.037 76.494,27.973 40.232,39.039 29.512,4.027 
									"/>
			</g>
		</g>
	</g>
</g>
<g id="Layer_5">
</g>
</svg>
