<?xml version="1.0" encoding="utf-8"?>
<!-- Generator: Adobe Illustrator 16.0.4, SVG Export Plug-In . SVG Version: 6.00 Build 0)  -->
<!DOCTYPE svg PUBLIC "-//W3C//DTD SVG 1.1//EN" "http://www.w3.org/Graphics/SVG/1.1/DTD/svg11.dtd">
<svg version="1.1" xmlns="http://www.w3.org/2000/svg" xmlns:xlink="http://www.w3.org/1999/xlink" x="0px" y="0px" width="32px"
	 height="32px" viewBox="0 0 32 32" enable-background="new 0 0 32 32" xml:space="preserve">
<g id="Layer_3" display="none">
</g>
<g id="Layer_2">
</g>
<g id="Layer_1">
</g>
<g id="Language_specific">
	<g>
		<g>
			<g>
				<defs>
					<path id="SVGID_865_" d="M4.135,1.559c-1.953,0-3.533,1.582-3.533,3.527v21.828c0,1.951,1.58,3.527,3.533,3.527h23.734
						c1.951,0,3.531-1.576,3.531-3.527V5.086c0-1.945-1.58-3.527-3.531-3.527H4.135z"/>
				</defs>
				<clipPath id="SVGID_2_">
					<use xlink:href="#SVGID_865_"  overflow="visible"/>
				</clipPath>
				
					<linearGradient id="SVGID_3_" gradientUnits="userSpaceOnUse" x1="-990.4106" y1="-627.8848" x2="-988.6705" y2="-627.8848" gradientTransform="matrix(5.8606 19.1691 19.1691 -5.8606 17851.2695 15304.7812)">
					<stop  offset="0" style="stop-color:#FFFFFF"/>
					<stop  offset="1" style="stop-color:#D0D0D0"/>
				</linearGradient>
				<polygon clip-path="url(#SVGID_2_)" fill="url(#SVGID_3_)" points="28.771,-7.037 39.494,27.973 3.232,39.039 -7.488,4.027 				
					"/>
			</g>
			<path fill="none" stroke="#5C5C5C" stroke-width="0.4351" stroke-linejoin="round" d="M31.402,26.914
				c0,1.953-1.582,3.527-3.531,3.527H4.135c-1.951,0-3.537-1.574-3.537-3.527V5.086c0-1.945,1.586-3.527,3.537-3.527h23.736
				c1.949,0,3.531,1.582,3.531,3.527V26.914z"/>
			<g>
				<defs>
					<path id="SVGID_868_" d="M4.23,2.57c-1.459,0-2.646,1.188-2.646,2.648v21.568c0,1.455,1.188,2.641,2.646,2.641h23.541
						c1.463,0,2.648-1.186,2.648-2.641V5.219c0-1.461-1.186-2.648-2.648-2.648H4.23z"/>
				</defs>
				<clipPath id="SVGID_5_">
					<use xlink:href="#SVGID_868_"  overflow="visible"/>
				</clipPath>
				
					<linearGradient id="SVGID_6_" gradientUnits="userSpaceOnUse" x1="-990.1782" y1="-599.7373" x2="-988.4395" y2="-599.7373" gradientTransform="matrix(0 15.4443 15.4443 0 9278.5293 15295.1855)">
					<stop  offset="0" style="stop-color:#FFFFFF"/>
					<stop  offset="1" style="stop-color:#F3F3F3"/>
				</linearGradient>
				<rect x="1.584" y="2.57" clip-path="url(#SVGID_5_)" fill="url(#SVGID_6_)" width="28.836" height="26.857"/>
			</g>
			<path fill="none" stroke="#FAFAFA" stroke-width="0.4351" stroke-linejoin="round" d="M30.42,26.787
				c0,1.455-1.189,2.643-2.648,2.643H4.229c-1.457,0-2.648-1.188-2.648-2.643V5.219c0-1.463,1.191-2.646,2.648-2.646h23.543
				c1.459,0,2.648,1.184,2.648,2.646V26.787z"/>
		</g>
		<g>
			<path d="M15.633,7.947c0-0.297,0.174-0.477,0.449-0.477c0.273,0,0.449,0.18,0.449,0.477V9.1c0,0.459-0.012,0.543-0.715,0.684
				c-0.805,0.162-0.936,0.725-0.936,1.1c0,0.693,0.496,1.121,1.182,1.121c0.541,0,0.957-0.193,1.18-0.834
				c0.092-0.268,0.215-0.336,0.398-0.336c0.234,0,0.449,0.182,0.436,0.467c-0.037,0.898-1.035,1.539-1.982,1.539
				c-1.234,0-2.172-0.793-2.172-1.875c0-1.1,0.691-1.785,1.711-1.998V7.947z M16.082,6.502c-0.287,0-0.52-0.236-0.52-0.521
				c0-0.287,0.232-0.52,0.52-0.52c0.285,0,0.521,0.232,0.521,0.52C16.604,6.266,16.367,6.502,16.082,6.502"/>
			<path d="M16.078,19.945c-0.285,0-0.52-0.236-0.52-0.52c0-0.287,0.234-0.521,0.52-0.521s0.52,0.234,0.52,0.521
				C16.598,19.709,16.363,19.945,16.078,19.945 M16.527,25.807c0,0.295-0.174,0.479-0.449,0.479s-0.447-0.184-0.447-0.479v-4.414
				c0-0.297,0.172-0.48,0.447-0.48s0.449,0.184,0.449,0.48V25.807z"/>
		</g>
	</g>
	<g>
		<g>
			<g>
				<defs>
					<path id="SVGID_877_" d="M-32.865,1.559c-1.953,0-3.533,1.582-3.533,3.527v21.828c0,1.951,1.58,3.527,3.533,3.527h23.734
						c1.951,0,3.531-1.576,3.531-3.527V5.086c0-1.945-1.58-3.527-3.531-3.527H-32.865z"/>
				</defs>
				<clipPath id="SVGID_8_">
					<use xlink:href="#SVGID_877_"  overflow="visible"/>
				</clipPath>
				
					<linearGradient id="SVGID_9_" gradientUnits="userSpaceOnUse" x1="-990.9507" y1="-629.6504" x2="-989.2101" y2="-629.6504" gradientTransform="matrix(5.8606 19.1691 19.1691 -5.8606 17851.2695 15304.7812)">
					<stop  offset="0" style="stop-color:#FFFFFF"/>
					<stop  offset="1" style="stop-color:#D0D0D0"/>
				</linearGradient>
				<polygon clip-path="url(#SVGID_8_)" fill="url(#SVGID_9_)" points="-8.229,-7.037 2.494,27.973 -33.768,39.039 -44.488,4.027 
									"/>
			</g>
		</g>
	</g>
</g>
<g id="Layer_5">
</g>
</svg>
