<?xml version="1.0" encoding="utf-8"?>
<!-- Generator: Adobe Illustrator 16.0.0, SVG Export Plug-In . SVG Version: 6.00 Build 0)  -->
<!DOCTYPE svg PUBLIC "-//W3C//DTD SVG 1.1//EN" "http://www.w3.org/Graphics/SVG/1.1/DTD/svg11.dtd">
<svg version="1.1" id="Layer_1" xmlns="http://www.w3.org/2000/svg" xmlns:xlink="http://www.w3.org/1999/xlink" x="0px" y="0px"
	 width="32px" height="32px" viewBox="0 0 32 32" enable-background="new 0 0 32 32" xml:space="preserve">
<g id="Layer_3" display="none">
</g>
<g id="Layer_2">
</g>
<g id="Layer_1_1_">
</g>
<g id="Language_specific">
	<g>
		<g>
			<g>
				<g>
					<defs>
						<path id="SVGID_1_" d="M4.135,1.559c-1.953,0-3.533,1.582-3.533,3.527v21.828c0,1.951,1.58,3.527,3.533,3.527h23.734
							c1.951,0,3.531-1.576,3.531-3.527V5.086c0-1.945-1.58-3.527-3.531-3.527H4.135z"/>
					</defs>
					<clipPath id="SVGID_2_">
						<use xlink:href="#SVGID_1_"  overflow="visible"/>
					</clipPath>
					
						<linearGradient id="SVGID_3_" gradientUnits="userSpaceOnUse" x1="-1155.8076" y1="721.2969" x2="-1154.0675" y2="721.2969" gradientTransform="matrix(5.8606 19.1691 -19.1691 5.8606 20611.2168 17927.8379)">
						<stop  offset="0" style="stop-color:#FFFFFF"/>
						<stop  offset="1" style="stop-color:#D0D0D0"/>
					</linearGradient>
					<polygon clip-path="url(#SVGID_2_)" fill="url(#SVGID_3_)" points="28.771,-7.037 39.494,27.973 3.232,39.039 -7.488,4.027 
											"/>
				</g>
			</g>
			<path fill="none" stroke="#5C5C5C" stroke-width="0.4351" stroke-linejoin="round" d="M31.402,26.914
				c0,1.953-1.582,3.527-3.531,3.527H4.135c-1.951,0-3.537-1.574-3.537-3.527V5.086c0-1.945,1.586-3.527,3.537-3.527h23.736
				c1.949,0,3.531,1.582,3.531,3.527V26.914z"/>
			<g>
				<g>
					<defs>
						<path id="SVGID_4_" d="M4.23,2.57c-1.459,0-2.646,1.188-2.646,2.648v21.568c0,1.455,1.188,2.641,2.646,2.641h23.542
							c1.463,0,2.647-1.186,2.647-2.641V5.219c0-1.461-1.187-2.648-2.647-2.648L4.23,2.57L4.23,2.57z"/>
					</defs>
					<clipPath id="SVGID_5_">
						<use xlink:href="#SVGID_4_"  overflow="visible"/>
					</clipPath>
					
						<linearGradient id="SVGID_6_" gradientUnits="userSpaceOnUse" x1="-1154.4873" y1="680.4678" x2="-1152.7485" y2="680.4678" gradientTransform="matrix(0 15.4443 -15.4443 0 10525.3496 17832.8281)">
						<stop  offset="0" style="stop-color:#FFFFFF"/>
						<stop  offset="1" style="stop-color:#F3F3F3"/>
					</linearGradient>
					<rect x="1.584" y="2.57" clip-path="url(#SVGID_5_)" fill="url(#SVGID_6_)" width="28.836" height="26.857"/>
				</g>
			</g>
			<path fill="none" stroke="#FAFAFA" stroke-width="0.4351" stroke-linejoin="round" d="M30.42,26.787
				c0,1.455-1.189,2.643-2.648,2.643H4.229c-1.457,0-2.648-1.188-2.648-2.643V5.219c0-1.463,1.191-2.646,2.648-2.646h23.542
				c1.459,0,2.648,1.184,2.648,2.646V26.787z"/>
		</g>
		<g enable-background="new    ">
			<path d="M16.324,18.245c1.08,0,1.846,0.738,1.846,1.359c0,0.207-0.117,0.414-0.36,0.414c-0.585,0-0.279-1.089-1.54-1.089
				c-0.576,0-1.053,0.27-1.053,0.756c0,1.161,3.195,1.035,3.195,2.989c0,0.603-0.414,1.206-0.98,1.521
				c0.396,0.27,0.585,0.611,0.585,1.062c0,0.892-0.99,1.404-1.891,1.396c-1.359-0.018-2.035-0.882-2.035-1.296
				c0-0.324,0.162-0.45,0.396-0.45c0.594,0,0.324,1.062,1.621,1.062c0.72,0,1.117-0.324,1.117-0.721
				c0-1.152-3.313-1.053-3.313-2.971c0-0.802,0.459-1.216,1.099-1.539c-0.414-0.307-0.585-0.559-0.585-1.018
				C14.424,18.785,15.208,18.245,16.324,18.245z M15.82,23.332l1.026,0.504c0.648-0.486,0.774-0.792,0.774-1.135
				c0-0.378-0.081-0.693-0.801-1.026l-1.125-0.521c-0.531,0.225-0.99,0.504-0.99,1.062C14.704,22.684,15.108,22.98,15.82,23.332z"/>
		</g>
		<g enable-background="new    ">
			<path d="M13.657,10.57c0-2.336,1.572-4.133,2.785-5.155c0.202-0.169,0.325-0.225,0.46-0.225c0.158,0,0.404,0.157,0.404,0.46
				c0,0.158-0.111,0.281-0.393,0.528c-0.64,0.573-1.112,1.112-1.718,2.224h0.022c0.371-0.191,0.73-0.314,1.269-0.314
				c1.303,0,2.021,1.235,2.021,2.628c0,1.448-1.033,2.605-2.448,2.605C14.668,13.321,13.657,12.164,13.657,10.57z M16.049,12.4
				c0.977,0,1.404-0.797,1.404-1.729c0-1.056-0.427-1.729-1.404-1.729s-1.404,0.809-1.404,1.729
				C14.646,11.604,15.072,12.4,16.049,12.4z"/>
		</g>
	</g>
</g>
<g id="Layer_5">
</g>
</svg>
