<?xml version="1.0" encoding="utf-8"?>
<!-- Generator: Adobe Illustrator 16.0.4, SVG Export Plug-In . SVG Version: 6.00 Build 0)  -->
<!DOCTYPE svg PUBLIC "-//W3C//DTD SVG 1.1//EN" "http://www.w3.org/Graphics/SVG/1.1/DTD/svg11.dtd">
<svg version="1.1" xmlns="http://www.w3.org/2000/svg" xmlns:xlink="http://www.w3.org/1999/xlink" x="0px" y="0px" width="74px"
	 height="32px" viewBox="0 0 74 32" enable-background="new 0 0 74 32" xml:space="preserve">
<g id="Layer_3" display="none">
</g>
<g id="Layer_2">
</g>
<g id="Layer_1">
	<g>
		<g>
			<g>
				<defs>
					<path id="SVGID_1609_" d="M4.817,4.201c-2.33,0-4.219,1.889-4.219,4.223v15.16c0,2.322,1.889,4.215,4.219,4.215h22.365
						c2.332,0,4.221-1.893,4.221-4.215V8.424c0-2.334-1.889-4.223-4.221-4.223H4.817z"/>
				</defs>
				<clipPath id="SVGID_2_">
					<use xlink:href="#SVGID_1609_"  overflow="visible"/>
				</clipPath>
				
					<linearGradient id="SVGID_3_" gradientUnits="userSpaceOnUse" x1="48.9473" y1="-1312.3164" x2="51.1536" y2="-1312.3164" gradientTransform="matrix(4.3973 14.3829 14.3829 -4.3973 18670.8047 -6474.626)">
					<stop  offset="0" style="stop-color:#FFFFFF"/>
					<stop  offset="1" style="stop-color:#D0D0D0"/>
				</linearGradient>
				<polygon clip-path="url(#SVGID_2_)" fill="url(#SVGID_3_)" points="27.452,-6.129 38,25.781 3.819,38.129 -6,6.221 				"/>
			</g>
			<path fill="none" stroke="#5C5C5C" stroke-width="0.5198" stroke-linejoin="round" d="M31.403,23.582
				c0,2.324-1.891,4.217-4.217,4.217H4.815c-2.33,0-4.217-1.893-4.217-4.217V8.424c0-2.336,1.887-4.217,4.217-4.217h22.371
				c2.326,0,4.217,1.881,4.217,4.217V23.582z"/>
			<g>
				<defs>
					<path id="SVGID_1612_" d="M4.926,5.416c-1.742,0-3.156,1.418-3.156,3.164v14.84c0,1.742,1.414,3.164,3.156,3.164h22.141
						c1.744,0,3.16-1.422,3.16-3.164V8.58c0-1.746-1.416-3.164-3.16-3.164H4.926z"/>
				</defs>
				<clipPath id="SVGID_5_">
					<use xlink:href="#SVGID_1612_"  overflow="visible"/>
				</clipPath>
				
					<linearGradient id="SVGID_6_" gradientUnits="userSpaceOnUse" x1="100.7305" y1="-1284.3545" x2="102.8096" y2="-1284.3545" gradientTransform="matrix(0 10.1826 10.1826 0 13094.0664 -1020.2825)">
					<stop  offset="0" style="stop-color:#FFFFFF"/>
					<stop  offset="1" style="stop-color:#F3F3F3"/>
				</linearGradient>
				<rect x="1.77" y="5.416" clip-path="url(#SVGID_5_)" fill="url(#SVGID_6_)" width="28.457" height="21.168"/>
			</g>
			<path fill="none" stroke="#FAFAFA" stroke-width="0.5198" stroke-linejoin="round" d="M30.227,23.424
				c0,1.742-1.416,3.16-3.162,3.16H4.93c-1.742,0-3.162-1.418-3.162-3.16V8.58c0-1.746,1.42-3.166,3.162-3.166h22.135
				c1.746,0,3.162,1.42,3.162,3.166V23.424z"/>
		</g>
		<g>
			<path d="M6.372,8.736c0,0.795-0.647,1.441-1.439,1.441c-0.798,0-1.445-0.646-1.445-1.441c0-0.797,0.647-1.443,1.445-1.443
				C5.724,7.293,6.372,7.939,6.372,8.736"/>
			<g>
				<path d="M3.918,20.561c0.643,0,1.02,0.223,1.02,0.479c0,0.131-0.104,0.268-0.254,0.268c-0.243,0-0.339-0.201-0.766-0.201
					c-0.782,0-1.086,0.758-1.086,1.4s0.304,1.402,1.086,1.402c0.441,0,0.561-0.213,0.757-0.213c0.144,0,0.246,0.092,0.246,0.262
					c0,0.238-0.354,0.494-1.003,0.494c-1.156,0-1.718-0.938-1.718-1.945S2.762,20.561,3.918,20.561"/>
				<path d="M8.69,24.145c0,0.223-0.173,0.307-0.293,0.307c-0.128,0-0.295-0.084-0.295-0.307v-0.266H8.088
					c-0.27,0.387-0.627,0.572-1.037,0.572c-1.075,0-1.672-0.938-1.672-1.945s0.597-1.945,1.672-1.945
					c0.437,0,0.744,0.188,1.037,0.508h0.014v-0.199c0-0.223,0.167-0.309,0.295-0.309c0.12,0,0.293,0.086,0.293,0.309V24.145z
					 M7.051,23.91c0.774,0,1.044-0.762,1.044-1.404c0-0.645-0.27-1.4-1.044-1.4s-1.043,0.756-1.043,1.4
					C6.008,23.148,6.277,23.91,7.051,23.91"/>
				<path d="M9.551,20.896c0-0.207,0.122-0.336,0.314-0.336c0.194,0,0.315,0.129,0.315,0.336v0.188h0.014
					c0.182-0.344,0.515-0.523,1.013-0.523c1.035,0,1.627,0.938,1.627,1.945s-0.592,1.945-1.627,1.945
					c-0.498,0-0.845-0.277-1.013-0.514h-0.014v1.68c0,0.207-0.121,0.336-0.315,0.336c-0.192,0-0.314-0.129-0.314-0.336V20.896z
					 M11.16,23.91c0.774,0,1.046-0.762,1.046-1.404c0-0.645-0.271-1.4-1.046-1.4s-1.043,0.756-1.043,1.4
					C10.117,23.148,10.385,23.91,11.16,23.91"/>
				<path d="M14.71,20.561c0.52,0,1.266,0.279,1.266,0.674c0,0.137-0.094,0.258-0.287,0.258c-0.271,0-0.378-0.387-0.979-0.387
					c-0.358,0-0.666,0.156-0.666,0.479c0,0.664,2.034,0.594,2.034,1.695c0,0.795-0.682,1.172-1.39,1.172
					c-0.802,0-1.43-0.4-1.43-0.723c0-0.17,0.12-0.285,0.256-0.285c0.28,0,0.508,0.465,1.195,0.465c0.458,0,0.737-0.256,0.737-0.514
					c0-0.746-2.031-0.703-2.031-1.76C13.417,20.934,14.077,20.561,14.71,20.561"/>
				<path d="M19.095,24.117c0,0.207-0.12,0.334-0.315,0.334c-0.19,0-0.314-0.127-0.314-0.334v-4.895
					c0-0.207,0.124-0.334,0.314-0.334c0.195,0,0.315,0.127,0.315,0.334V24.117z"/>
				<path d="M21.437,20.561c1.074,0,1.676,0.938,1.676,1.945s-0.602,1.945-1.676,1.945c-1.075,0-1.676-0.938-1.676-1.945
					S20.362,20.561,21.437,20.561 M21.437,23.91c0.773,0,1.045-0.762,1.045-1.404c0-0.645-0.271-1.4-1.045-1.4
					s-1.045,0.756-1.045,1.4C20.392,23.148,20.664,23.91,21.437,23.91"/>
				<path d="M25.33,20.561c0.641,0,1.021,0.223,1.021,0.479c0,0.131-0.104,0.268-0.255,0.268c-0.246,0-0.337-0.201-0.767-0.201
					c-0.782,0-1.085,0.758-1.085,1.4s0.303,1.402,1.085,1.402c0.444,0,0.558-0.213,0.758-0.213c0.143,0,0.243,0.092,0.243,0.262
					c0,0.238-0.354,0.494-1.001,0.494c-1.159,0-1.717-0.938-1.717-1.945S24.17,20.561,25.33,20.561"/>
				<path d="M26.954,19.223c0-0.209,0.121-0.338,0.315-0.338c0.191,0,0.316,0.129,0.316,0.338v2.684l1.37-1.152
					c0.128-0.113,0.251-0.193,0.359-0.193c0.164,0,0.263,0.121,0.263,0.279c0,0.094-0.037,0.178-0.157,0.271l-1.429,1.129
					l1.66,1.639C29.772,24,29.8,24.078,29.8,24.201c0,0.143-0.126,0.25-0.266,0.25c-0.149,0-0.213-0.043-0.364-0.193L27.585,22.6
					v1.518c0,0.207-0.125,0.334-0.316,0.334c-0.194,0-0.315-0.127-0.315-0.334V19.223z"/>
			</g>
		</g>
	</g>
</g>
<g id="Language_specific">
	<g>
		<g>
			<g>
				<defs>
					<path id="SVGID_1783_" d="M46.816,4.201c-2.33,0-4.219,1.889-4.219,4.223v15.16c0,2.322,1.889,4.215,4.219,4.215h22.365
						c2.332,0,4.221-1.893,4.221-4.215V8.424c0-2.334-1.889-4.223-4.221-4.223H46.816z"/>
				</defs>
				<clipPath id="SVGID_8_">
					<use xlink:href="#SVGID_1783_"  overflow="visible"/>
				</clipPath>
				
					<linearGradient id="SVGID_9_" gradientUnits="userSpaceOnUse" x1="49.7637" y1="-1309.6465" x2="51.97" y2="-1309.6465" gradientTransform="matrix(4.3973 14.3829 14.3829 -4.3973 18670.8047 -6474.626)">
					<stop  offset="0" style="stop-color:#FFFFFF"/>
					<stop  offset="1" style="stop-color:#D0D0D0"/>
				</linearGradient>
				<polygon clip-path="url(#SVGID_8_)" fill="url(#SVGID_9_)" points="69.451,-6.129 80,25.781 45.818,38.129 36,6.221 				"/>
			</g>
			<path fill="none" stroke="#5C5C5C" stroke-width="0.5198" stroke-linejoin="round" d="M73.402,23.582
				c0,2.324-1.891,4.217-4.217,4.217H46.814c-2.33,0-4.217-1.893-4.217-4.217V8.424c0-2.336,1.887-4.217,4.217-4.217h22.371
				c2.326,0,4.217,1.881,4.217,4.217V23.582z"/>
			<g>
				<defs>
					<path id="SVGID_1786_" d="M46.926,5.416c-1.742,0-3.156,1.418-3.156,3.164v14.84c0,1.742,1.414,3.164,3.156,3.164h22.141
						c1.744,0,3.16-1.422,3.16-3.164V8.58c0-1.746-1.416-3.164-3.16-3.164H46.926z"/>
				</defs>
				<clipPath id="SVGID_11_">
					<use xlink:href="#SVGID_1786_"  overflow="visible"/>
				</clipPath>
				
					<linearGradient id="SVGID_12_" gradientUnits="userSpaceOnUse" x1="100.7305" y1="-1280.2295" x2="102.8096" y2="-1280.2295" gradientTransform="matrix(0 10.1826 10.1826 0 13094.0664 -1020.2825)">
					<stop  offset="0" style="stop-color:#FFFFFF"/>
					<stop  offset="1" style="stop-color:#F3F3F3"/>
				</linearGradient>
				<rect x="43.77" y="5.416" clip-path="url(#SVGID_11_)" fill="url(#SVGID_12_)" width="28.457" height="21.168"/>
			</g>
			<path fill="none" stroke="#FAFAFA" stroke-width="0.5198" stroke-linejoin="round" d="M72.227,23.424
				c0,1.742-1.416,3.16-3.162,3.16H46.93c-1.742,0-3.162-1.418-3.162-3.16V8.58c0-1.746,1.42-3.166,3.162-3.166h22.135
				c1.746,0,3.162,1.42,3.162,3.166V23.424z"/>
		</g>
		<g>
			<path d="M48.371,8.736c0,0.795-0.647,1.441-1.439,1.441c-0.798,0-1.445-0.646-1.445-1.441c0-0.797,0.647-1.441,1.445-1.441
				C47.724,7.295,48.371,7.939,48.371,8.736"/>
		</g>
		<g>
			<path d="M51.448,21.338h-4.063v-3.605l-2.356-0.012l4.414-3.502l4.394,3.514h-2.402L51.448,21.338z M51.057,20.914l0.011-3.561
				h1.661l-3.273-2.666l-3.318,2.666l1.647-0.012l0.011,3.582L51.057,20.914z M51.448,25.01h-4.111v-2.527l4.111-0.014V25.01z
				 M51.045,24.633v-1.764l-3.271,0.012l-0.011,1.74L51.045,24.633z"/>
		</g>
	</g>
	<line fill="none" stroke="#FFFFFF" stroke-miterlimit="10" x1="39.5" y1="1" x2="33.5" y2="30.062"/>
	<line fill="none" stroke="#000000" stroke-miterlimit="10" x1="40.5" y1="1" x2="34.5" y2="31"/>
</g>
<g id="Layer_5">
</g>
</svg>
