<?xml version="1.0" encoding="utf-8"?>
<!-- Generator: Adobe Illustrator 16.0.4, SVG Export Plug-In . SVG Version: 6.00 Build 0)  -->
<!DOCTYPE svg PUBLIC "-//W3C//DTD SVG 1.1//EN" "http://www.w3.org/Graphics/SVG/1.1/DTD/svg11.dtd">
<svg version="1.1" xmlns="http://www.w3.org/2000/svg" xmlns:xlink="http://www.w3.org/1999/xlink" x="0px" y="0px" width="32px"
	 height="32px" viewBox="0 0 32 32" enable-background="new 0 0 32 32" xml:space="preserve">
<g id="Layer_3" display="none">
</g>
<g id="Layer_2">
	<g display="none">
		<g display="inline">
			<defs>
				<path id="SVGID_715_" d="M-19.183-27.799c-2.331,0-4.22,1.889-4.22,4.223v15.16c0,2.322,1.889,4.215,4.22,4.215H3.183
					c2.331,0,4.221-1.893,4.221-4.215v-15.16c0-2.334-1.89-4.223-4.221-4.223H-19.183z"/>
			</defs>
			<clipPath id="SVGID_2_">
				<use xlink:href="#SVGID_715_"  overflow="visible"/>
			</clipPath>
			
				<linearGradient id="SVGID_3_" gradientUnits="userSpaceOnUse" x1="-451.9414" y1="-650.3926" x2="-449.7356" y2="-650.3926" gradientTransform="matrix(4.3973 14.3829 14.3829 -4.3973 11328.959 3608.2939)">
				<stop  offset="0" style="stop-color:#FFFFFF"/>
				<stop  offset="1" style="stop-color:#D0CFD0"/>
			</linearGradient>
			<polygon clip-path="url(#SVGID_2_)" fill="url(#SVGID_3_)" points="3.452,-38.129 14,-6.219 -20.181,6.129 -30,-25.779 			"/>
		</g>
	</g>
	<g display="none">
		<g display="inline">
			<defs>
				<path id="SVGID_721_" d="M12.817-27.799c-2.331,0-4.22,1.889-4.22,4.223v15.16c0,2.322,1.889,4.215,4.22,4.215h22.365
					c2.331,0,4.221-1.893,4.221-4.215v-15.16c0-2.334-1.89-4.223-4.221-4.223H12.817z"/>
			</defs>
			<clipPath id="SVGID_5_">
				<use xlink:href="#SVGID_721_"  overflow="visible"/>
			</clipPath>
			
				<linearGradient id="SVGID_6_" gradientUnits="userSpaceOnUse" x1="-451.3193" y1="-648.3574" x2="-449.1135" y2="-648.3574" gradientTransform="matrix(4.3973 14.3829 14.3829 -4.3973 11328.959 3608.2939)">
				<stop  offset="0" style="stop-color:#FFFFFF"/>
				<stop  offset="1" style="stop-color:#D0CFD0"/>
			</linearGradient>
			<polygon clip-path="url(#SVGID_5_)" fill="url(#SVGID_6_)" points="35.452,-38.129 46,-6.219 11.819,6.129 2,-25.779 			"/>
		</g>
	</g>
</g>
<g id="Layer_1">
	<g>
		<g>
			<g>
				<defs>
					<path id="SVGID_1207_" d="M40.135,1.559c-1.953,0-3.533,1.582-3.533,3.527v21.828c0,1.951,1.58,3.527,3.533,3.527h23.734
						c1.951,0,3.531-1.576,3.531-3.527V5.086c0-1.945-1.58-3.527-3.531-3.527H40.135z"/>
				</defs>
				<clipPath id="SVGID_8_">
					<use xlink:href="#SVGID_1207_"  overflow="visible"/>
				</clipPath>
				
					<linearGradient id="SVGID_9_" gradientUnits="userSpaceOnUse" x1="-466.6309" y1="-651.5" x2="-464.8907" y2="-651.5" gradientTransform="matrix(5.8606 19.1691 19.1691 -5.8606 15270.291 5125.9897)">
					<stop  offset="0" style="stop-color:#FFFFFF"/>
					<stop  offset="1" style="stop-color:#D0D0D0"/>
				</linearGradient>
				<polygon clip-path="url(#SVGID_8_)" fill="url(#SVGID_9_)" points="64.771,-7.037 75.494,27.973 39.232,39.039 28.512,4.027 
									"/>
			</g>
		</g>
	</g>
	<g>
		<g>
			<g>
				<defs>
					<path id="SVGID_1219_" d="M4.135,1.559c-1.953,0-3.533,1.582-3.533,3.527v21.828c0,1.951,1.58,3.527,3.533,3.527h23.734
						c1.951,0,3.531-1.576,3.531-3.527V5.086c0-1.945-1.58-3.527-3.531-3.527H4.135z"/>
				</defs>
				<clipPath id="SVGID_11_">
					<use xlink:href="#SVGID_1219_"  overflow="visible"/>
				</clipPath>
				
					<linearGradient id="SVGID_12_" gradientUnits="userSpaceOnUse" x1="-467.1558" y1="-653.2178" x2="-465.4156" y2="-653.2178" gradientTransform="matrix(5.8606 19.1691 19.1691 -5.8606 15270.291 5125.9897)">
					<stop  offset="0" style="stop-color:#FFFFFF"/>
					<stop  offset="1" style="stop-color:#D0D0D0"/>
				</linearGradient>
				<polygon clip-path="url(#SVGID_11_)" fill="url(#SVGID_12_)" points="28.771,-7.037 39.494,27.973 3.232,39.039 -7.488,4.027 
									"/>
			</g>
			<path fill="none" stroke="#5C5C5C" stroke-width="0.4351" stroke-linejoin="round" d="M31.402,26.914
				c0,1.953-1.582,3.527-3.531,3.527H4.135c-1.951,0-3.537-1.574-3.537-3.527V5.086c0-1.945,1.586-3.527,3.537-3.527h23.736
				c1.949,0,3.531,1.582,3.531,3.527V26.914z"/>
			<g>
				<defs>
					<path id="SVGID_1222_" d="M4.23,2.57c-1.459,0-2.646,1.188-2.646,2.648v21.568c0,1.455,1.188,2.641,2.646,2.641h23.541
						c1.463,0,2.648-1.186,2.648-2.641V5.219c0-1.461-1.186-2.648-2.648-2.648H4.23z"/>
				</defs>
				<clipPath id="SVGID_14_">
					<use xlink:href="#SVGID_1222_"  overflow="visible"/>
				</clipPath>
				
					<linearGradient id="SVGID_15_" gradientUnits="userSpaceOnUse" x1="-459.1782" y1="-634.1191" x2="-457.4395" y2="-634.1191" gradientTransform="matrix(0 15.4443 15.4443 0 9809.5293 7094.2622)">
					<stop  offset="0" style="stop-color:#FFFFFF"/>
					<stop  offset="1" style="stop-color:#F3F3F3"/>
				</linearGradient>
				<rect x="1.584" y="2.57" clip-path="url(#SVGID_14_)" fill="url(#SVGID_15_)" width="28.836" height="26.857"/>
			</g>
			<path fill="none" stroke="#FAFAFA" stroke-width="0.4351" stroke-linejoin="round" d="M30.42,26.787
				c0,1.455-1.189,2.643-2.648,2.643H4.229c-1.457,0-2.648-1.188-2.648-2.643V5.219c0-1.463,1.191-2.646,2.648-2.646h23.543
				c1.459,0,2.648,1.184,2.648,2.646V26.787z"/>
		</g>
		<g>
			<path d="M15.537,10.895c0-0.725,0-1.225-0.49-1.371C14.736,9.43,14.59,9.355,14.59,9.127c0-0.23,0.146-0.312,0.457-0.396
				c0.49-0.123,0.49-0.643,0.49-1.373V6.09c0-0.719,0.342-1.125,1.059-1.125h0.398c0.291,0,0.414,0.104,0.414,0.312
				c0,0.207-0.123,0.312-0.414,0.312h-0.146c-0.271,0-0.457,0.188-0.457,0.5v1.645c0,1.133-0.582,1.34-0.947,1.381v0.021
				c0.365,0.043,0.947,0.25,0.947,1.385v1.645c0,0.312,0.186,0.5,0.457,0.5h0.146c0.291,0,0.414,0.104,0.414,0.311
				c0,0.209-0.123,0.312-0.414,0.312h-0.398c-0.717,0-1.059-0.406-1.059-1.123V10.895z"/>
			<path d="M16.312,26.492h0.354c0.217,0,0.393,0.178,0.393,0.396c0,0.217-0.176,0.395-0.393,0.395h-0.719
				c-0.346,0-0.49-0.219-0.49-0.5v-7.326c0-0.279,0.145-0.498,0.49-0.498h0.719c0.217,0,0.393,0.176,0.393,0.395
				c0,0.217-0.176,0.396-0.393,0.396h-0.354V26.492z"/>
		</g>
	</g>
	<g>
		<g>
			<g>
				<defs>
					<path id="SVGID_1243_" d="M-31.865,1.559c-1.953,0-3.533,1.582-3.533,3.527v21.828c0,1.951,1.58,3.527,3.533,3.527h23.734
						c1.951,0,3.531-1.576,3.531-3.527V5.086c0-1.945-1.58-3.527-3.531-3.527H-31.865z"/>
				</defs>
				<clipPath id="SVGID_17_">
					<use xlink:href="#SVGID_1243_"  overflow="visible"/>
				</clipPath>
				
					<linearGradient id="SVGID_18_" gradientUnits="userSpaceOnUse" x1="-467.6812" y1="-654.9355" x2="-465.9406" y2="-654.9355" gradientTransform="matrix(5.8606 19.1691 19.1691 -5.8606 15270.291 5125.9897)">
					<stop  offset="0" style="stop-color:#FFFFFF"/>
					<stop  offset="1" style="stop-color:#D0D0D0"/>
				</linearGradient>
				<polygon clip-path="url(#SVGID_17_)" fill="url(#SVGID_18_)" points="-7.229,-7.037 3.494,27.973 -32.768,39.039 -43.488,4.027 
									"/>
			</g>
		</g>
	</g>
</g>
<g id="Language_specific">
</g>
<g id="Layer_5">
</g>
</svg>
