<?xml version="1.0" encoding="utf-8"?>
<!-- Generator: Adobe Illustrator 16.0.4, SVG Export Plug-In . SVG Version: 6.00 Build 0)  -->
<!DOCTYPE svg PUBLIC "-//W3C//DTD SVG 1.1//EN" "http://www.w3.org/Graphics/SVG/1.1/DTD/svg11.dtd">
<svg version="1.1" id="Reference" xmlns="http://www.w3.org/2000/svg" xmlns:xlink="http://www.w3.org/1999/xlink" x="0px" y="0px"
	 width="32px" height="32px" viewBox="0 0 32 32" enable-background="new 0 0 32 32" xml:space="preserve">
<g>
	<g>
		<defs>
			<path id="SVGID_823_" d="M-27.865,1.546c-1.952,0-3.533,1.582-3.533,3.527v21.828c0,1.951,1.581,3.527,3.533,3.527h23.734
				c1.952,0,3.532-1.576,3.532-3.527V5.073c0-1.945-1.58-3.527-3.532-3.527H-27.865z"/>
		</defs>
		<clipPath id="SVGID_2_">
			<use xlink:href="#SVGID_823_"  overflow="visible"/>
		</clipPath>
		
			<linearGradient id="SVGID_3_" gradientUnits="userSpaceOnUse" x1="-318.8403" y1="-1309.8047" x2="-317.1002" y2="-1309.8047" gradientTransform="matrix(5.8606 19.1691 19.1691 -5.8606 26955.2422 -1565.0864)">
			<stop  offset="0" style="stop-color:#FFFFFF"/>
			<stop  offset="1" style="stop-color:#D0D0D0"/>
		</linearGradient>
		<polygon clip-path="url(#SVGID_2_)" fill="url(#SVGID_3_)" points="-3.229,-7.05 7.494,27.96 -28.768,39.026 -39.488,4.015 		"/>
	</g>
</g>
<g>
	<g>
		<defs>
			<path id="SVGID_829_" d="M4.135,1.546c-1.952,0-3.533,1.582-3.533,3.527v21.828c0,1.951,1.581,3.527,3.533,3.527h23.734
				c1.952,0,3.532-1.576,3.532-3.527V5.073c0-1.945-1.58-3.527-3.532-3.527H4.135z"/>
		</defs>
		<clipPath id="SVGID_5_">
			<use xlink:href="#SVGID_829_"  overflow="visible"/>
		</clipPath>
		
			<linearGradient id="SVGID_6_" gradientUnits="userSpaceOnUse" x1="-318.3735" y1="-1308.2773" x2="-316.6334" y2="-1308.2773" gradientTransform="matrix(5.8606 19.1691 19.1691 -5.8606 26955.2422 -1565.0864)">
			<stop  offset="0" style="stop-color:#FFFFFF"/>
			<stop  offset="1" style="stop-color:#D0D0D0"/>
		</linearGradient>
		<polygon clip-path="url(#SVGID_5_)" fill="url(#SVGID_6_)" points="28.771,-7.05 39.494,27.96 3.232,39.026 -7.488,4.015 		"/>
	</g>
	<path fill="none" stroke="#5C5C5C" stroke-width="0.4351" stroke-linejoin="round" d="M31.403,26.901
		c0,1.953-1.582,3.527-3.532,3.527H4.136c-1.951,0-3.538-1.574-3.538-3.527V5.073c0-1.945,1.587-3.527,3.538-3.527h23.735
		c1.95,0,3.532,1.582,3.532,3.527V26.901z"/>
	<g>
		<defs>
			<path id="SVGID_832_" d="M4.23,2.558c-1.459,0-2.646,1.188-2.646,2.648v21.568c0,1.455,1.188,2.641,2.646,2.641h23.542
				c1.462,0,2.648-1.186,2.648-2.641V5.206c0-1.461-1.187-2.648-2.648-2.648H4.23z"/>
		</defs>
		<clipPath id="SVGID_8_">
			<use xlink:href="#SVGID_832_"  overflow="visible"/>
		</clipPath>
		
			<linearGradient id="SVGID_9_" gradientUnits="userSpaceOnUse" x1="-297.7397" y1="-1281.8887" x2="-296.001" y2="-1281.8887" gradientTransform="matrix(0 15.4443 15.4443 0 19813.8809 4600.9463)">
			<stop  offset="0" style="stop-color:#FFFFFF"/>
			<stop  offset="1" style="stop-color:#F3F3F3"/>
		</linearGradient>
		<rect x="1.584" y="2.558" clip-path="url(#SVGID_8_)" fill="url(#SVGID_9_)" width="28.837" height="26.857"/>
	</g>
	<path fill="none" stroke="#FAFAFA" stroke-width="0.4351" stroke-linejoin="round" d="M30.421,26.774
		c0,1.455-1.19,2.643-2.648,2.643H4.229c-1.457,0-2.647-1.188-2.647-2.643V5.206c0-1.463,1.19-2.646,2.647-2.646h23.544
		c1.458,0,2.648,1.184,2.648,2.646V26.774z"/>
</g>
<g>
	<g>
		<defs>
			<path id="SVGID_835_" d="M36.135,1.546c-1.952,0-3.533,1.582-3.533,3.527v21.828c0,1.951,1.581,3.527,3.533,3.527h23.734
				c1.952,0,3.532-1.576,3.532-3.527V5.073c0-1.945-1.58-3.527-3.532-3.527H36.135z"/>
		</defs>
		<clipPath id="SVGID_11_">
			<use xlink:href="#SVGID_835_"  overflow="visible"/>
		</clipPath>
		
			<linearGradient id="SVGID_12_" gradientUnits="userSpaceOnUse" x1="-317.9067" y1="-1306.751" x2="-316.1666" y2="-1306.751" gradientTransform="matrix(5.8606 19.1691 19.1691 -5.8606 26955.2422 -1565.0864)">
			<stop  offset="0" style="stop-color:#FFFFFF"/>
			<stop  offset="1" style="stop-color:#D0D0D0"/>
		</linearGradient>
		<polygon clip-path="url(#SVGID_11_)" fill="url(#SVGID_12_)" points="60.771,-7.05 71.494,27.96 35.232,39.026 24.512,4.015 		"/>
	</g>
</g>
<path d="M12.603,24.906c-0.342,0-0.43-0.15-0.43-0.354c0-0.148,0.104-0.342,0.252-0.584l2.873-4.717
	c0.211-0.34,0.436-0.457,0.791-0.457c0.447,0,0.766,0.24,0.766,0.836v4.408h0.512c0.244,0,0.434,0.195,0.434,0.434
	c0,0.24-0.189,0.434-0.434,0.434h-0.512v1.623c0,0.332-0.191,0.535-0.502,0.535c-0.307,0-0.504-0.203-0.504-0.535v-1.623H12.603z
	 M15.849,24.039v-4.168h-0.021l-2.398,4.168H15.849z"/>
<path d="M16.093,11.048c0,0.349-0.202,0.562-0.524,0.562c-0.323,0-0.528-0.214-0.528-0.562V9.693c0-0.537,0.012-0.637,0.837-0.803
	c0.949-0.191,1.104-0.851,1.104-1.296c0-0.812-0.587-1.318-1.39-1.318c-0.637,0-1.128,0.229-1.391,0.983
	c-0.108,0.312-0.252,0.397-0.468,0.397c-0.274,0-0.526-0.216-0.518-0.554c0.052-1.055,1.226-1.811,2.34-1.811
	c1.448,0,2.553,0.936,2.553,2.207c0,1.294-0.814,2.097-2.016,2.352V11.048z M15.568,12.749c0.333,0,0.607,0.276,0.607,0.611
	c0,0.338-0.274,0.612-0.607,0.612c-0.337,0-0.613-0.274-0.613-0.612C14.955,13.025,15.231,12.749,15.568,12.749"/>
</svg>
