<?xml version="1.0" encoding="utf-8"?>
<!-- Generator: Adobe Illustrator 16.0.0, SVG Export Plug-In . SVG Version: 6.00 Build 0)  -->
<!DOCTYPE svg PUBLIC "-//W3C//DTD SVG 1.1//EN" "http://www.w3.org/Graphics/SVG/1.1/DTD/svg11.dtd">
<svg version="1.1" id="Reference" xmlns="http://www.w3.org/2000/svg" xmlns:xlink="http://www.w3.org/1999/xlink" x="0px" y="0px"
	 width="32px" height="32px" viewBox="0 0 32 32" enable-background="new 0 0 32 32" xml:space="preserve">
<g>
	<g>
		<g>
			<g>
				<defs>
					<path id="SVGID_1_" d="M4.135,1.57c-1.952,0-3.533,1.582-3.533,3.527v21.828c0,1.951,1.581,3.527,3.533,3.527h23.734
						c1.951,0,3.531-1.576,3.531-3.527V5.098c0-1.945-1.58-3.527-3.531-3.527L4.135,1.57L4.135,1.57z"/>
				</defs>
				<clipPath id="SVGID_2_">
					<use xlink:href="#SVGID_1_"  overflow="visible"/>
				</clipPath>
				
					<linearGradient id="SVGID_3_" gradientUnits="userSpaceOnUse" x1="-553.0957" y1="1495.5117" x2="-551.3556" y2="1495.5117" gradientTransform="matrix(5.8606 19.1691 -19.1691 5.8606 31919.9824 1837.0405)">
					<stop  offset="0" style="stop-color:#FFFFFF"/>
					<stop  offset="1" style="stop-color:#D0D0D0"/>
				</linearGradient>
				<polygon clip-path="url(#SVGID_2_)" fill="url(#SVGID_3_)" points="28.771,-7.025 39.494,27.984 3.232,39.051 -7.488,4.039 				
					"/>
			</g>
		</g>
		<path fill="none" stroke="#5C5C5C" stroke-width="0.4351" stroke-linejoin="round" d="M31.402,26.926
			c0,1.953-1.582,3.527-3.531,3.527H4.136c-1.951,0-3.538-1.574-3.538-3.527V5.098c0-1.945,1.587-3.527,3.538-3.527h23.735
			c1.949,0,3.531,1.582,3.531,3.527V26.926z"/>
		<g>
			<g>
				<defs>
					<path id="SVGID_4_" d="M4.23,2.582c-1.459,0-2.646,1.188-2.646,2.648v21.568c0,1.455,1.188,2.642,2.646,2.642h23.542
						c1.463,0,2.648-1.187,2.648-2.642V5.23c0-1.461-1.188-2.648-2.648-2.648H4.23z"/>
				</defs>
				<clipPath id="SVGID_5_">
					<use xlink:href="#SVGID_4_"  overflow="visible"/>
				</clipPath>
				
					<linearGradient id="SVGID_6_" gradientUnits="userSpaceOnUse" x1="-530.8315" y1="1453.7627" x2="-529.0923" y2="1453.7627" gradientTransform="matrix(0 15.4443 -15.4443 0 22468.3496 8200.9062)">
					<stop  offset="0" style="stop-color:#FFFFFF"/>
					<stop  offset="1" style="stop-color:#F3F3F3"/>
				</linearGradient>
				<rect x="1.584" y="2.582" clip-path="url(#SVGID_5_)" fill="url(#SVGID_6_)" width="28.837" height="26.857"/>
			</g>
		</g>
		<path fill="none" stroke="#FAFAFA" stroke-width="0.4351" stroke-linejoin="round" d="M30.421,26.799
			c0,1.455-1.19,2.643-2.647,2.643H4.229c-1.457,0-2.647-1.188-2.647-2.643V5.23c0-1.463,1.19-2.646,2.647-2.646h23.544
			c1.457,0,2.647,1.184,2.647,2.646V26.799z"/>
	</g>
	<path d="M8.77,14.505c0,0.362-0.212,0.589-0.553,0.589c-0.339,0-0.553-0.227-0.553-0.589v-7.81c0-0.337,0.178-0.602,0.589-0.602
		h3.134c0.315,0,0.542,0.161,0.542,0.515c0,0.35-0.227,0.513-0.542,0.513H8.77v2.92h2.316c0.313,0,0.536,0.165,0.536,0.517
		c0,0.35-0.223,0.513-0.536,0.513H8.77V14.505z"/>
	<rect x="13.205" y="26.441" fill="#D2D2D2" stroke="#D2D2D2" stroke-width="0.25" width="5.35" height="0.893"/>
	<rect x="13.205" y="25.941" fill="#FFFFFF" stroke="#FFFFFF" stroke-width="0.25" width="5.35" height="0.893"/>
	<g enable-background="new    ">
		<path d="M21.26,24.148l-0.785,2.381h-1.012l2.572-7.569h1.18l2.582,7.569h-1.044l-0.809-2.381H21.26z M23.742,23.385l-0.741-2.179
			c-0.169-0.494-0.28-0.943-0.394-1.382h-0.021c-0.113,0.449-0.236,0.91-0.383,1.371l-0.74,2.189H23.742z"/>
	</g>
</g>
</svg>
