<?xml version="1.0" encoding="utf-8"?>
<!-- Generator: Adobe Illustrator 16.0.0, SVG Export Plug-In . SVG Version: 6.00 Build 0)  -->
<!DOCTYPE svg PUBLIC "-//W3C//DTD SVG 1.1//EN" "http://www.w3.org/Graphics/SVG/1.1/DTD/svg11.dtd">
<svg version="1.1" id="Layer_1" xmlns="http://www.w3.org/2000/svg" xmlns:xlink="http://www.w3.org/1999/xlink" x="0px" y="0px"
	 width="32px" height="32px" viewBox="0 0 32 32" enable-background="new 0 0 32 32" xml:space="preserve">
<g id="Layer_3" display="none">
</g>
<g id="Layer_2">
</g>
<g id="Layer_1_1_">
</g>
<g id="Language_specific">
	<g>
		<g>
			<g>
				<g>
					<defs>
						<path id="SVGID_1_" d="M4.135,1.559c-1.953,0-3.533,1.582-3.533,3.527v21.828c0,1.951,1.58,3.527,3.533,3.527h23.734
							c1.951,0,3.531-1.576,3.531-3.527V5.086c0-1.945-1.58-3.527-3.531-3.527H4.135z"/>
					</defs>
					<clipPath id="SVGID_2_">
						<use xlink:href="#SVGID_1_"  overflow="visible"/>
					</clipPath>
					
						<linearGradient id="SVGID_3_" gradientUnits="userSpaceOnUse" x1="-1040.5142" y1="726.8789" x2="-1038.774" y2="726.8789" gradientTransform="matrix(5.8606 19.1691 -19.1691 5.8606 20042.5293 15685.0566)">
						<stop  offset="0" style="stop-color:#FFFFFF"/>
						<stop  offset="1" style="stop-color:#D0D0D0"/>
					</linearGradient>
					<polygon clip-path="url(#SVGID_2_)" fill="url(#SVGID_3_)" points="28.771,-7.037 39.494,27.973 3.232,39.039 -7.488,4.027 
											"/>
				</g>
			</g>
			<path fill="none" stroke="#5C5C5C" stroke-width="0.4351" stroke-linejoin="round" d="M31.402,26.914
				c0,1.953-1.582,3.527-3.531,3.527H4.135c-1.951,0-3.537-1.574-3.537-3.527V5.086c0-1.945,1.586-3.527,3.537-3.527h23.736
				c1.949,0,3.531,1.582,3.531,3.527V26.914z"/>
			<g>
				<g>
					<defs>
						<path id="SVGID_4_" d="M4.23,2.57c-1.459,0-2.646,1.188-2.646,2.648v21.568c0,1.455,1.188,2.641,2.646,2.641h23.542
							c1.463,0,2.647-1.186,2.647-2.641V5.219c0-1.461-1.187-2.648-2.647-2.648L4.23,2.57L4.23,2.57z"/>
					</defs>
					<clipPath id="SVGID_5_">
						<use xlink:href="#SVGID_4_"  overflow="visible"/>
					</clipPath>
					
						<linearGradient id="SVGID_6_" gradientUnits="userSpaceOnUse" x1="-1037.4873" y1="688.0439" x2="-1035.7485" y2="688.0439" gradientTransform="matrix(0 15.4443 -15.4443 0 10642.3496 16025.8438)">
						<stop  offset="0" style="stop-color:#FFFFFF"/>
						<stop  offset="1" style="stop-color:#F3F3F3"/>
					</linearGradient>
					<rect x="1.584" y="2.57" clip-path="url(#SVGID_5_)" fill="url(#SVGID_6_)" width="28.836" height="26.857"/>
				</g>
			</g>
			<path fill="none" stroke="#FAFAFA" stroke-width="0.4351" stroke-linejoin="round" d="M30.42,26.787
				c0,1.455-1.189,2.643-2.648,2.643H4.229c-1.457,0-2.648-1.188-2.648-2.643V5.219c0-1.463,1.191-2.646,2.648-2.646h23.542
				c1.459,0,2.648,1.184,2.648,2.646V26.787z"/>
		</g>
		<g enable-background="new    ">
			<path d="M15.258,19.423c0.112-0.213,0.236-0.415,0.528-0.415c0.236,0,0.449,0.18,0.449,0.427c0,0.123-0.034,0.236-0.124,0.416
				l-0.629,1.234c-0.112,0.214-0.236,0.416-0.528,0.416c-0.236,0-0.449-0.18-0.449-0.427c0-0.124,0.034-0.235,0.124-0.415
				L15.258,19.423z M16.853,19.423c0.112-0.213,0.235-0.415,0.528-0.415c0.235,0,0.449,0.18,0.449,0.427
				c0,0.123-0.034,0.236-0.124,0.416l-0.629,1.234c-0.112,0.214-0.235,0.416-0.528,0.416c-0.235,0-0.449-0.18-0.449-0.427
				c0-0.124,0.034-0.235,0.124-0.415L16.853,19.423z"/>
		</g>
		<g enable-background="new    ">
			<path d="M15.87,13.321c-1.662,0-2.336-1.247-2.336-1.842c0-0.349,0.18-0.55,0.416-0.55c0.292,0,0.438,0.168,0.55,0.516
				c0.191,0.573,0.595,1.022,1.348,1.022c0.887,0,1.516-0.663,1.516-1.482c0-1.19-0.651-1.493-1.393-1.493
				c-0.393,0-0.606-0.169-0.606-0.428c0-0.225,0.146-0.348,0.517-0.426c0.797-0.18,1.123-0.562,1.123-1.292
				c0-0.764-0.449-1.303-1.134-1.303c-0.786,0-1.078,0.562-1.134,1.168c-0.034,0.449-0.303,0.46-0.472,0.46
				c-0.281,0-0.449-0.201-0.449-0.46c0-1.067,0.775-2.021,2.1-2.021c1.281,0,2.078,0.943,2.078,2.066
				c0,0.663-0.314,1.313-0.943,1.696c0.898,0.27,1.37,1.033,1.37,1.942C18.419,12.412,17.296,13.321,15.87,13.321z"/>
		</g>
	</g>
</g>
<g id="Layer_5">
</g>
</svg>
