<?xml version="1.0" encoding="utf-8"?>
<!-- Generator: Adobe Illustrator 16.0.4, SVG Export Plug-In . SVG Version: 6.00 Build 0)  -->
<!DOCTYPE svg PUBLIC "-//W3C//DTD SVG 1.1//EN" "http://www.w3.org/Graphics/SVG/1.1/DTD/svg11.dtd">
<svg version="1.1" id="Reference" xmlns="http://www.w3.org/2000/svg" xmlns:xlink="http://www.w3.org/1999/xlink" x="0px" y="0px"
	 width="32px" height="32px" viewBox="0 0 32 32" enable-background="new 0 0 32 32" xml:space="preserve">
<g>
	<g>
		<g>
			<defs>
				<path id="SVGID_847_" d="M4.135,1.57c-1.952,0-3.533,1.582-3.533,3.527v21.828c0,1.951,1.581,3.527,3.533,3.527h23.734
					c1.952,0,3.532-1.576,3.532-3.527V5.098c0-1.945-1.58-3.527-3.532-3.527H4.135z"/>
			</defs>
			<clipPath id="SVGID_2_">
				<use xlink:href="#SVGID_847_"  overflow="visible"/>
			</clipPath>
			
				<linearGradient id="SVGID_3_" gradientUnits="userSpaceOnUse" x1="-564.5317" y1="-1425.9316" x2="-562.7916" y2="-1425.9316" gradientTransform="matrix(5.8606 19.1691 19.1691 -5.8606 30653.2031 2464.0469)">
				<stop  offset="0" style="stop-color:#FFFFFF"/>
				<stop  offset="1" style="stop-color:#D0D0D0"/>
			</linearGradient>
			<polygon clip-path="url(#SVGID_2_)" fill="url(#SVGID_3_)" points="28.771,-7.025 39.494,27.984 3.232,39.051 -7.488,4.039 			
				"/>
		</g>
		<path fill="none" stroke="#5C5C5C" stroke-width="0.4351" stroke-linejoin="round" d="M31.403,26.926
			c0,1.953-1.582,3.527-3.532,3.527H4.136c-1.951,0-3.538-1.574-3.538-3.527V5.098c0-1.945,1.587-3.527,3.538-3.527h23.735
			c1.95,0,3.532,1.582,3.532,3.527V26.926z"/>
		<g>
			<defs>
				<path id="SVGID_850_" d="M4.23,2.582c-1.459,0-2.646,1.188-2.646,2.648v21.568c0,1.455,1.188,2.641,2.646,2.641h23.542
					c1.462,0,2.648-1.186,2.648-2.641V5.23c0-1.461-1.187-2.648-2.648-2.648H4.23z"/>
			</defs>
			<clipPath id="SVGID_5_">
				<use xlink:href="#SVGID_850_"  overflow="visible"/>
			</clipPath>
			
				<linearGradient id="SVGID_6_" gradientUnits="userSpaceOnUse" x1="-545.4507" y1="-1393.3125" x2="-543.7114" y2="-1393.3125" gradientTransform="matrix(0 15.4443 15.4443 0 21534.752 8426.6875)">
				<stop  offset="0" style="stop-color:#FFFFFF"/>
				<stop  offset="1" style="stop-color:#F3F3F3"/>
			</linearGradient>
			<rect x="1.584" y="2.582" clip-path="url(#SVGID_5_)" fill="url(#SVGID_6_)" width="28.837" height="26.857"/>
		</g>
		<path fill="none" stroke="#FAFAFA" stroke-width="0.4351" stroke-linejoin="round" d="M30.421,26.799
			c0,1.455-1.19,2.643-2.648,2.643H4.229c-1.457,0-2.647-1.188-2.647-2.643V5.23c0-1.463,1.19-2.646,2.647-2.646h23.544
			c1.458,0,2.648,1.184,2.648,2.646V26.799z"/>
	</g>
	<g>
		<path d="M11.055,11.018l-0.016,0.902c-0.473,0.451-0.98,0.676-1.527,0.676c-0.469,0-1.029-0.156-1.686-0.469
			c-0.572-0.27-0.984-0.406-1.232-0.406c-0.523,0-1.072,0.295-1.648,0.881V11.68c0.334-0.266,0.613-0.443,0.85-0.541
			c0.227-0.094,0.496-0.141,0.805-0.141c0.434,0,0.898,0.109,1.391,0.334l0.68,0.299c0.238,0.107,0.498,0.164,0.771,0.164
			C9.887,11.795,10.43,11.535,11.055,11.018"/>
		<path d="M7.586,20.746c-0.219-0.15-0.311-0.23-0.387-0.34c-0.213-0.311,0.016-0.676,0.197-0.797c0.148-0.1,0.373-0.129,0.73,0.121
			l1.506,1.004c0.225,0.146,0.314,0.229,0.383,0.336c0.213,0.316-0.016,0.68-0.195,0.803c-0.146,0.098-0.371,0.125-0.729-0.123
			L7.586,20.746z"/>
	</g>
	<path d="M23.369,6.104h-0.354c-0.219,0-0.395-0.176-0.395-0.395c0-0.217,0.176-0.396,0.395-0.396h0.719
		c0.342,0,0.486,0.219,0.486,0.5v7.326c0,0.279-0.145,0.5-0.486,0.5h-0.719c-0.219,0-0.395-0.178-0.395-0.398
		c0-0.217,0.176-0.393,0.395-0.393h0.354V6.104z"/>
	<path d="M23.758,25.925h0.354c0.217,0,0.394,0.178,0.394,0.396c0,0.217-0.177,0.395-0.394,0.395h-0.719
		c-0.346,0-0.49-0.219-0.49-0.5V18.89c0-0.279,0.145-0.498,0.49-0.498h0.719c0.217,0,0.394,0.176,0.394,0.395
		c0,0.217-0.177,0.396-0.394,0.396h-0.354V25.925z"/>
</g>
<g>
	<g>
		<g>
			<defs>
				<path id="SVGID_997_" d="M-27.865-30.43c-1.952,0-3.533,1.582-3.533,3.527v21.828c0,1.951,1.581,3.527,3.533,3.527h23.734
					c1.952,0,3.532-1.576,3.532-3.527v-21.828c0-1.945-1.58-3.527-3.532-3.527H-27.865z"/>
			</defs>
			<clipPath id="SVGID_8_">
				<use xlink:href="#SVGID_997_"  overflow="visible"/>
			</clipPath>
			
				<linearGradient id="SVGID_9_" gradientUnits="userSpaceOnUse" x1="-566.5254" y1="-1426.9922" x2="-564.7853" y2="-1426.9922" gradientTransform="matrix(5.8606 19.1691 19.1691 -5.8606 30653.2031 2464.0469)">
				<stop  offset="0" style="stop-color:#FFFFFF"/>
				<stop  offset="1" style="stop-color:#D0D0D0"/>
			</linearGradient>
			<polygon clip-path="url(#SVGID_8_)" fill="url(#SVGID_9_)" points="-3.229,-39.025 7.494,-4.016 -28.768,7.051 -39.488,-27.961 
							"/>
		</g>
	</g>
</g>
<g>
	<g>
		<g>
			<defs>
				<path id="SVGID_1003_" d="M4.135-30.43c-1.952,0-3.533,1.582-3.533,3.527v21.828c0,1.951,1.581,3.527,3.533,3.527h23.734
					c1.952,0,3.532-1.576,3.532-3.527v-21.828c0-1.945-1.58-3.527-3.532-3.527H4.135z"/>
			</defs>
			<clipPath id="SVGID_11_">
				<use xlink:href="#SVGID_1003_"  overflow="visible"/>
			</clipPath>
			
				<linearGradient id="SVGID_12_" gradientUnits="userSpaceOnUse" x1="-566.0586" y1="-1425.4648" x2="-564.3185" y2="-1425.4648" gradientTransform="matrix(5.8606 19.1691 19.1691 -5.8606 30653.2031 2464.0469)">
				<stop  offset="0" style="stop-color:#FFFFFF"/>
				<stop  offset="1" style="stop-color:#D0D0D0"/>
			</linearGradient>
			<polygon clip-path="url(#SVGID_11_)" fill="url(#SVGID_12_)" points="28.771,-39.025 39.494,-4.016 3.232,7.051 -7.488,-27.961 
							"/>
		</g>
	</g>
</g>
<g>
	<g>
		<g>
			<defs>
				<path id="SVGID_1009_" d="M36.135-30.43c-1.952,0-3.533,1.582-3.533,3.527v21.828c0,1.951,1.581,3.527,3.533,3.527h23.734
					c1.952,0,3.532-1.576,3.532-3.527v-21.828c0-1.945-1.58-3.527-3.532-3.527H36.135z"/>
			</defs>
			<clipPath id="SVGID_14_">
				<use xlink:href="#SVGID_1009_"  overflow="visible"/>
			</clipPath>
			
				<linearGradient id="SVGID_15_" gradientUnits="userSpaceOnUse" x1="-565.5918" y1="-1423.9385" x2="-563.8517" y2="-1423.9385" gradientTransform="matrix(5.8606 19.1691 19.1691 -5.8606 30653.2031 2464.0469)">
				<stop  offset="0" style="stop-color:#FFFFFF"/>
				<stop  offset="1" style="stop-color:#D0D0D0"/>
			</linearGradient>
			<polygon clip-path="url(#SVGID_14_)" fill="url(#SVGID_15_)" points="60.771,-39.025 71.494,-4.016 35.232,7.051 24.512,-27.961 
							"/>
		</g>
	</g>
</g>
<g>
	<g>
		<g>
			<defs>
				<path id="SVGID_1021_" d="M36.135,1.57c-1.952,0-3.533,1.582-3.533,3.527v21.828c0,1.951,1.581,3.527,3.533,3.527h23.734
					c1.952,0,3.532-1.576,3.532-3.527V5.098c0-1.945-1.58-3.527-3.532-3.527H36.135z"/>
			</defs>
			<clipPath id="SVGID_17_">
				<use xlink:href="#SVGID_1021_"  overflow="visible"/>
			</clipPath>
			
				<linearGradient id="SVGID_18_" gradientUnits="userSpaceOnUse" x1="-564.0649" y1="-1424.4053" x2="-562.3248" y2="-1424.4053" gradientTransform="matrix(5.8606 19.1691 19.1691 -5.8606 30653.2031 2464.0469)">
				<stop  offset="0" style="stop-color:#FFFFFF"/>
				<stop  offset="1" style="stop-color:#D0D0D0"/>
			</linearGradient>
			<polygon clip-path="url(#SVGID_17_)" fill="url(#SVGID_18_)" points="60.771,-7.025 71.494,27.984 35.232,39.051 24.512,4.039 
							"/>
		</g>
	</g>
</g>
</svg>
