<?xml version="1.0" encoding="utf-8"?>
<!-- Generator: Adobe Illustrator 16.0.4, SVG Export Plug-In . SVG Version: 6.00 Build 0)  -->
<!DOCTYPE svg PUBLIC "-//W3C//DTD SVG 1.1//EN" "http://www.w3.org/Graphics/SVG/1.1/DTD/svg11.dtd">
<svg version="1.1" id="Layer_1" xmlns="http://www.w3.org/2000/svg" xmlns:xlink="http://www.w3.org/1999/xlink" x="0px" y="0px"
	 width="32px" height="32px" viewBox="0 0 32 32" enable-background="new 0 0 32 32" xml:space="preserve">
<g id="Layer_3" display="none">
</g>
<g id="Layer_2">
</g>
<g id="Layer_1_1_">
</g>
<g>
	<g>
		<g>
			<g>
				<defs>
					<path id="SVGID_1_" d="M4.135,1.559c-1.953,0-3.533,1.582-3.533,3.527v21.828c0,1.951,1.58,3.527,3.533,3.527h23.734
						c1.951,0,3.531-1.576,3.531-3.527V5.086c0-1.945-1.58-3.527-3.531-3.527H4.135z"/>
				</defs>
				<clipPath id="SVGID_2_">
					<use xlink:href="#SVGID_1_"  overflow="visible"/>
				</clipPath>
				
					<linearGradient id="SVGID_3_" gradientUnits="userSpaceOnUse" x1="-1868.0342" y1="-396.6211" x2="-1866.2941" y2="-396.6211" gradientTransform="matrix(5.8606 19.1691 19.1691 -5.8606 18561.5625 33483.3828)">
					<stop  offset="0" style="stop-color:#FFFFFF"/>
					<stop  offset="1" style="stop-color:#D0D0D0"/>
				</linearGradient>
				<polygon clip-path="url(#SVGID_2_)" fill="url(#SVGID_3_)" points="28.771,-7.037 39.494,27.973 3.232,39.039 -7.488,4.027 				
					"/>
			</g>
		</g>
	</g>
	<path fill="none" stroke="#5C5C5C" stroke-width="0.4351" stroke-linejoin="round" d="M31.402,26.914
		c0,1.953-1.582,3.527-3.531,3.527H4.135c-1.951,0-3.537-1.574-3.537-3.527V5.086c0-1.945,1.586-3.527,3.537-3.527h23.736
		c1.949,0,3.531,1.582,3.531,3.527V26.914z"/>
	<g>
		<g>
			<g>
				<defs>
					<path id="SVGID_4_" d="M4.23,2.57c-1.459,0-2.646,1.188-2.646,2.648v21.568c0,1.455,1.188,2.641,2.646,2.641h23.542
						c1.463,0,2.647-1.186,2.647-2.641V5.219c0-1.461-1.187-2.648-2.647-2.648L4.23,2.57L4.23,2.57z"/>
				</defs>
				<clipPath id="SVGID_5_">
					<use xlink:href="#SVGID_4_"  overflow="visible"/>
				</clipPath>
				
					<linearGradient id="SVGID_6_" gradientUnits="userSpaceOnUse" x1="-1871.793" y1="-340.165" x2="-1870.0542" y2="-340.165" gradientTransform="matrix(0 15.4443 15.4443 0 5269.6167 28911.1055)">
					<stop  offset="0" style="stop-color:#FFFFFF"/>
					<stop  offset="1" style="stop-color:#F3F3F3"/>
				</linearGradient>
				<rect x="1.584" y="2.57" clip-path="url(#SVGID_5_)" fill="url(#SVGID_6_)" width="28.836" height="26.857"/>
			</g>
		</g>
	</g>
	<path fill="none" stroke="#FAFAFA" stroke-width="0.4351" stroke-linejoin="round" d="M30.42,26.787
		c0,1.455-1.189,2.643-2.648,2.643H4.229c-1.457,0-2.648-1.188-2.648-2.643V5.219c0-1.463,1.191-2.646,2.648-2.646h23.542
		c1.459,0,2.647,1.184,2.647,2.646L30.42,26.787L30.42,26.787z"/>
</g>
<g enable-background="new    ">
	<path d="M15.705,22.188c-0.956-0.326-1.995-0.662-1.995-1.974c0-0.829,0.735-1.806,1.995-1.921v-0.494
		c0-0.126,0.084-0.221,0.22-0.221c0.137,0,0.221,0.095,0.221,0.221v0.494c0.84,0.062,1.606,0.43,1.606,0.871
		c0,0.221-0.168,0.409-0.398,0.409c-0.367,0-0.516-0.378-1.208-0.483v2.301c0.977,0.346,2.1,0.724,2.1,2.142
		c0,1.123-0.745,2.151-2.1,2.319v0.535c0,0.127-0.084,0.221-0.221,0.221c-0.136,0-0.22-0.094-0.22-0.221v-0.494
		c-1.071,0-2.068-0.481-2.068-0.934c0-0.221,0.126-0.441,0.367-0.441c0.389,0,0.767,0.578,1.701,0.578V22.188z M15.705,19.09
		c-0.588,0.074-1.008,0.483-1.008,1.061c0,0.578,0.43,0.852,1.008,1.072V19.09z M16.146,25.043c0.704-0.146,1.112-0.725,1.112-1.47
		c0-0.693-0.504-0.997-1.112-1.229V25.043z"/>
</g>
<g id="Layer_5">
</g>
<g enable-background="new    ">
	<path stroke="#000000" stroke-width="0.1" d="M16.098,6.135c1.051,0,1.795,0.719,1.795,1.323c0,0.201-0.113,0.402-0.35,0.402
		c-0.57,0-0.271-1.06-1.498-1.06c-0.561,0-1.025,0.263-1.025,0.735c0,1.13,3.109,1.008,3.109,2.908c0,0.587-0.402,1.174-0.954,1.48
		c0.386,0.263,0.569,0.596,0.569,1.033c0,0.867-0.963,1.366-1.839,1.357c-1.323-0.018-1.979-0.858-1.979-1.261
		c0-0.315,0.158-0.438,0.385-0.438c0.578,0,0.315,1.034,1.577,1.034c0.701,0,1.085-0.315,1.085-0.701
		c0-1.121-3.223-1.024-3.223-2.891c0-0.779,0.447-1.182,1.069-1.497c-0.403-0.298-0.569-0.543-0.569-0.99
		C14.25,6.661,15.011,6.135,16.098,6.135z M15.607,11.084l0.999,0.49c0.631-0.473,0.753-0.771,0.753-1.104
		c0-0.368-0.079-0.675-0.779-0.998l-1.095-0.509c-0.517,0.22-0.963,0.491-0.963,1.034C14.521,10.453,14.915,10.742,15.607,11.084z"
		/>
</g>
</svg>
