<?xml version="1.0" encoding="utf-8"?>
<!-- Generator: Adobe Illustrator 16.0.4, SVG Export Plug-In . SVG Version: 6.00 Build 0)  -->
<!DOCTYPE svg PUBLIC "-//W3C//DTD SVG 1.1//EN" "http://www.w3.org/Graphics/SVG/1.1/DTD/svg11.dtd">
<svg version="1.1" xmlns="http://www.w3.org/2000/svg" xmlns:xlink="http://www.w3.org/1999/xlink" x="0px" y="0px" width="64px"
	 height="32px" viewBox="0 0 64 32" enable-background="new 0 0 64 32" xml:space="preserve">
<g id="Layer_3" display="none">
</g>
<g id="Layer_2">
</g>
<g id="Layer_1">
	<g>
		<g>
			<g>
				<defs>
					<path id="SVGID_1555_" d="M24.799,4.816c0-2.33-1.889-4.219-4.223-4.219H5.416c-2.322,0-4.215,1.889-4.215,4.219v22.365
						c0,2.332,1.893,4.221,4.215,4.221h15.16c2.334,0,4.223-1.889,4.223-4.221V4.816z"/>
				</defs>
				<clipPath id="SVGID_2_">
					<use xlink:href="#SVGID_1555_"  overflow="visible"/>
				</clipPath>
				
					<linearGradient id="SVGID_3_" gradientUnits="userSpaceOnUse" x1="62.8843" y1="-1510.6875" x2="65.0906" y2="-1510.6875" gradientTransform="matrix(-14.3829 4.3973 4.3973 14.3829 7576.3691 21462.6465)">
					<stop  offset="0" style="stop-color:#FFFFFF"/>
					<stop  offset="1" style="stop-color:#D0D0D0"/>
				</linearGradient>
				<polygon clip-path="url(#SVGID_2_)" fill="url(#SVGID_3_)" points="35.129,27.451 3.219,38 -9.129,3.818 22.779,-6 				"/>
			</g>
			<path fill="none" stroke="#5C5C5C" stroke-width="0.5198" stroke-linejoin="round" d="M5.418,31.402
				c-2.324,0-4.217-1.891-4.217-4.217V4.814c0-2.33,1.893-4.217,4.217-4.217h15.158c2.336,0,4.217,1.887,4.217,4.217v22.371
				c0,2.326-1.881,4.217-4.217,4.217H5.418z"/>
			<g>
				<defs>
					<path id="SVGID_1558_" d="M23.584,4.926c0-1.742-1.418-3.156-3.164-3.156H5.58c-1.742,0-3.164,1.414-3.164,3.156v22.141
						c0,1.744,1.422,3.16,3.164,3.16h14.84c1.746,0,3.164-1.416,3.164-3.16V4.926z"/>
				</defs>
				<clipPath id="SVGID_5_">
					<use xlink:href="#SVGID_1558_"  overflow="visible"/>
				</clipPath>
				
					<linearGradient id="SVGID_6_" gradientUnits="userSpaceOnUse" x1="76.1743" y1="-1430.7207" x2="76.1743" y2="-1427.9268" gradientTransform="matrix(-10.1826 0 0 10.1826 788.6508 14570.2285)">
					<stop  offset="0" style="stop-color:#FFFFFF"/>
					<stop  offset="1" style="stop-color:#F3F3F3"/>
				</linearGradient>
				<rect x="2.416" y="1.77" clip-path="url(#SVGID_5_)" fill="url(#SVGID_6_)" width="21.168" height="28.457"/>
			</g>
			<path fill="none" stroke="#FAFAFA" stroke-width="0.5198" stroke-linejoin="round" d="M5.576,30.227
				c-1.742,0-3.16-1.416-3.16-3.162V4.93c0-1.742,1.418-3.162,3.16-3.162H20.42c1.746,0,3.166,1.42,3.166,3.162v22.135
				c0,1.746-1.42,3.162-3.166,3.162H5.576z"/>
		</g>
		<g>
			<path d="M3.64,27.018c0,0.871,0.559,1.549,1.504,1.549c1.117,0,1.407-0.689,1.723-0.689c0.152,0,0.307,0.135,0.307,0.375
				c0,0.408-1.043,1.043-2.038,1.043c-1.626,0-2.337-1.258-2.337-2.605c0-1.377,0.86-2.604,2.288-2.604
				c1.388,0,2.193,1.254,2.193,2.479c0,0.299-0.106,0.453-0.469,0.453H3.64z M6.436,26.385c0-0.727-0.421-1.568-1.35-1.568
				c-1.042-0.041-1.416,0.793-1.446,1.568H6.436z"/>
			<path d="M8.09,24.537c0-0.275,0.164-0.451,0.422-0.451c0.257,0,0.423,0.176,0.423,0.451v0.203l0.012,0.018
				c0.378-0.477,0.905-0.672,1.41-0.672c0.785,0,1.771,0.498,1.771,1.936v2.824c0,0.275-0.16,0.449-0.419,0.449
				c-0.26,0-0.42-0.174-0.42-0.449v-2.779c0-0.887-0.624-1.25-1.176-1.25c-0.558,0-1.178,0.363-1.178,1.25v2.779
				c0,0.275-0.166,0.449-0.423,0.449c-0.258,0-0.422-0.174-0.422-0.449V24.537z"/>
			<path d="M13.514,23.043c0-0.277,0.165-0.447,0.423-0.447c0.259,0,0.422,0.17,0.422,0.447v1.104H14.7
				c0.279,0,0.424,0.135,0.424,0.363c0,0.23-0.145,0.361-0.424,0.361h-0.342v3.975c0,0.275-0.163,0.449-0.422,0.449
				c-0.258,0-0.423-0.174-0.423-0.449v-3.975h-0.343c-0.281,0-0.422-0.131-0.422-0.361c0-0.229,0.141-0.363,0.422-0.363h0.343
				V23.043z"/>
			<path d="M16.274,27.018c0,0.871,0.556,1.549,1.503,1.549c1.12,0,1.406-0.689,1.722-0.689c0.154,0,0.308,0.135,0.308,0.375
				c0,0.408-1.044,1.043-2.037,1.043c-1.627,0-2.335-1.258-2.335-2.605c0-1.377,0.86-2.604,2.285-2.604
				c1.389,0,2.191,1.254,2.191,2.479c0,0.299-0.104,0.453-0.466,0.453H16.274z M19.071,26.385c0-0.727-0.423-1.568-1.352-1.568
				c-1.042-0.041-1.415,0.793-1.445,1.568H19.071z"/>
			<path d="M20.726,24.537c0-0.275,0.162-0.451,0.42-0.451s0.421,0.176,0.421,0.451v0.43h0.016c0.196-0.393,0.664-0.881,1.153-0.881
				c0.295,0,0.468,0.195,0.468,0.432c0,0.24-0.173,0.391-0.526,0.461c-0.497,0.084-1.11,0.459-1.11,1.443v2.424
				c0,0.275-0.163,0.449-0.421,0.449s-0.42-0.174-0.42-0.449V24.537z"/>
		</g>
	</g>
</g>
<g id="Language_specific">
	<g>
		<g>
			<g>
				<defs>
					<path id="SVGID_1807_" d="M62.799,4.816c0-2.33-1.889-4.219-4.223-4.219h-15.16c-2.322,0-4.215,1.889-4.215,4.219v22.365
						c0,2.332,1.893,4.221,4.215,4.221h15.16c2.334,0,4.223-1.889,4.223-4.221V4.816z"/>
				</defs>
				<clipPath id="SVGID_8_">
					<use xlink:href="#SVGID_1807_"  overflow="visible"/>
				</clipPath>
				
					<linearGradient id="SVGID_9_" gradientUnits="userSpaceOnUse" x1="60.4683" y1="-1509.9482" x2="62.6741" y2="-1509.9482" gradientTransform="matrix(-14.3829 4.3973 4.3973 14.3829 7576.3691 21462.6465)">
					<stop  offset="0" style="stop-color:#FFFFFF"/>
					<stop  offset="1" style="stop-color:#D0D0D0"/>
				</linearGradient>
				<polygon clip-path="url(#SVGID_8_)" fill="url(#SVGID_9_)" points="73.129,27.451 41.219,38 28.871,3.818 60.779,-6 				"/>
			</g>
			<path fill="none" stroke="#5C5C5C" stroke-width="0.5198" stroke-linejoin="round" d="M43.418,31.402
				c-2.324,0-4.217-1.891-4.217-4.217V4.814c0-2.33,1.893-4.217,4.217-4.217h15.158c2.336,0,4.217,1.887,4.217,4.217v22.371
				c0,2.326-1.881,4.217-4.217,4.217H43.418z"/>
			<g>
				<defs>
					<path id="SVGID_1810_" d="M61.584,4.926c0-1.742-1.418-3.156-3.164-3.156H43.58c-1.742,0-3.164,1.414-3.164,3.156v22.141
						c0,1.744,1.422,3.16,3.164,3.16h14.84c1.746,0,3.164-1.416,3.164-3.16V4.926z"/>
				</defs>
				<clipPath id="SVGID_11_">
					<use xlink:href="#SVGID_1810_"  overflow="visible"/>
				</clipPath>
				
					<linearGradient id="SVGID_12_" gradientUnits="userSpaceOnUse" x1="72.4419" y1="-1430.7207" x2="72.4419" y2="-1427.9268" gradientTransform="matrix(-10.1826 0 0 10.1826 788.6508 14570.2285)">
					<stop  offset="0" style="stop-color:#FFFFFF"/>
					<stop  offset="1" style="stop-color:#F3F3F3"/>
				</linearGradient>
				<rect x="40.416" y="1.77" clip-path="url(#SVGID_11_)" fill="url(#SVGID_12_)" width="21.168" height="28.457"/>
			</g>
			<path fill="none" stroke="#FAFAFA" stroke-width="0.5198" stroke-linejoin="round" d="M43.576,30.227
				c-1.742,0-3.16-1.416-3.16-3.162V4.93c0-1.742,1.418-3.162,3.16-3.162H58.42c1.746,0,3.166,1.42,3.166,3.162v22.135
				c0,1.746-1.42,3.162-3.166,3.162H43.576z"/>
		</g>
		<g>
			<polygon points="49.627,20.873 49.627,22.17 59.832,22.158 59.832,20.85 			"/>
			<polygon points="51.209,28.479 52.53,28.492 54.689,24.775 56.792,28.492 58.157,28.504 54.677,22.486 			"/>
			<polygon points="49.627,20.873 49.627,22.17 59.832,22.158 59.832,20.85 			"/>
			<polygon points="51.209,28.479 52.53,28.492 54.689,24.775 56.792,28.492 58.157,28.504 54.677,22.486 			"/>
		</g>
	</g>
	<line fill="none" stroke="#FFFFFF" stroke-miterlimit="10" x1="34.5" y1="1" x2="28.5" y2="30.062"/>
	<line fill="none" stroke="#000000" stroke-miterlimit="10" x1="35.5" y1="1" x2="29.5" y2="31"/>
</g>
<g id="Layer_5">
</g>
</svg>
