<?xml version="1.0" encoding="utf-8"?>
<!-- Generator: Adobe Illustrator 16.0.0, SVG Export Plug-In . SVG Version: 6.00 Build 0)  -->
<!DOCTYPE svg PUBLIC "-//W3C//DTD SVG 1.1//EN" "http://www.w3.org/Graphics/SVG/1.1/DTD/svg11.dtd">
<svg version="1.1" id="Reference" xmlns="http://www.w3.org/2000/svg" xmlns:xlink="http://www.w3.org/1999/xlink" x="0px" y="0px"
	 width="32px" height="32px" viewBox="0 0 32 32" enable-background="new 0 0 32 32" xml:space="preserve">
<g>
	<g>
		<g>
			<g>
				<defs>
					<path id="SVGID_1_" d="M4.135,1.904c-1.952,0-3.533,1.582-3.533,3.527V27.26c0,1.951,1.581,3.527,3.533,3.527h23.734
						c1.951,0,3.531-1.576,3.531-3.527V5.432c0-1.945-1.58-3.527-3.531-3.527L4.135,1.904L4.135,1.904z"/>
				</defs>
				<clipPath id="SVGID_2_">
					<use xlink:href="#SVGID_1_"  overflow="visible"/>
				</clipPath>
				
					<linearGradient id="SVGID_3_" gradientUnits="userSpaceOnUse" x1="-556.1328" y1="1430.582" x2="-554.3927" y2="1430.582" gradientTransform="matrix(5.8606 19.1691 -19.1691 5.8606 30693.1543 2276.1187)">
					<stop  offset="0" style="stop-color:#FFFFFF"/>
					<stop  offset="1" style="stop-color:#D0D0D0"/>
				</linearGradient>
				<polygon clip-path="url(#SVGID_2_)" fill="url(#SVGID_3_)" points="28.771,-6.691 39.494,28.318 3.232,39.385 -7.488,4.373 				
					"/>
			</g>
		</g>
		<path fill="none" stroke="#5C5C5C" stroke-width="0.4351" stroke-linejoin="round" d="M31.402,27.26
			c0,1.953-1.582,3.527-3.531,3.527H4.136c-1.951,0-3.538-1.574-3.538-3.527V5.432c0-1.945,1.587-3.527,3.538-3.527h23.735
			c1.949,0,3.531,1.582,3.531,3.527V27.26z"/>
		<g>
			<g>
				<defs>
					<path id="SVGID_4_" d="M4.23,2.916c-1.459,0-2.646,1.188-2.646,2.648v21.568c0,1.455,1.188,2.642,2.646,2.642h23.542
						c1.463,0,2.648-1.187,2.648-2.642V5.564c0-1.461-1.188-2.648-2.648-2.648H4.23z"/>
				</defs>
				<clipPath id="SVGID_5_">
					<use xlink:href="#SVGID_4_"  overflow="visible"/>
				</clipPath>
				
					<linearGradient id="SVGID_6_" gradientUnits="userSpaceOnUse" x1="-534.9541" y1="1389.7627" x2="-533.2148" y2="1389.7627" gradientTransform="matrix(0 15.4443 -15.4443 0 21479.9121 8264.9062)">
					<stop  offset="0" style="stop-color:#FFFFFF"/>
					<stop  offset="1" style="stop-color:#F3F3F3"/>
				</linearGradient>
				<rect x="1.584" y="2.916" clip-path="url(#SVGID_5_)" fill="url(#SVGID_6_)" width="28.837" height="26.857"/>
			</g>
		</g>
		<path fill="none" stroke="#FAFAFA" stroke-width="0.4351" stroke-linejoin="round" d="M30.421,27.133
			c0,1.455-1.19,2.643-2.647,2.643H4.229c-1.457,0-2.647-1.188-2.647-2.643V5.564c0-1.463,1.19-2.646,2.647-2.646h23.544
			c1.457,0,2.647,1.184,2.647,2.646V27.133z"/>
	</g>
	<path d="M11.333,14.248c-0.61,0.591-1.437,0.947-2.446,0.947c-2.495,0-3.832-2.176-3.832-4.451c0-2.275,1.337-4.451,3.832-4.451
		c2.497,0,3.836,2.176,3.836,4.451c0,1.009-0.257,1.98-0.762,2.766l0.906,0.9c0.143,0.133,0.214,0.258,0.214,0.429
		c0,0.235-0.186,0.454-0.468,0.454c-0.211,0-0.332-0.109-0.42-0.197L11.333,14.248z M9.906,12.848
		c-0.131-0.136-0.219-0.247-0.219-0.405c0-0.271,0.195-0.493,0.479-0.493c0.147,0,0.256,0.05,0.407,0.196l0.601,0.59
		c0.271-0.59,0.395-1.303,0.395-1.991c0-1.672-0.714-3.519-2.682-3.519c-1.968,0-2.681,1.847-2.681,3.519s0.713,3.516,2.681,3.516
		c0.748,0,1.315-0.257,1.749-0.699L9.906,12.848z"/>
	<g enable-background="new    ">
		<path d="M20.699,18.96v3.189c0,1.19-0.022,2.19-0.09,3.2l0.022,0.012c0.382-0.786,0.854-1.605,1.403-2.504l2.449-3.897h0.977
			v7.569H24.54v-3.223c0-1.225,0.011-2.123,0.09-3.078l-0.034-0.011c-0.37,0.831-0.887,1.707-1.403,2.55l-2.37,3.762h-1.044V18.96
			H20.699z M21.935,17.365c0.045,0.359,0.157,0.707,0.685,0.707c0.518,0,0.641-0.336,0.686-0.707h0.752
			c-0.056,0.752-0.505,1.213-1.459,1.213c-0.922,0-1.359-0.472-1.416-1.213H21.935z"/>
	</g>
</g>
</svg>
