<?xml version="1.0" encoding="utf-8"?>
<!-- Generator: Adobe Illustrator 16.0.4, SVG Export Plug-In . SVG Version: 6.00 Build 0)  -->
<!DOCTYPE svg PUBLIC "-//W3C//DTD SVG 1.1//EN" "http://www.w3.org/Graphics/SVG/1.1/DTD/svg11.dtd">
<svg version="1.1" id="Layer_1" xmlns="http://www.w3.org/2000/svg" xmlns:xlink="http://www.w3.org/1999/xlink" x="0px" y="0px"
	 width="64px" height="32px" viewBox="0 0 64 32" enable-background="new 0 0 64 32" xml:space="preserve">
<g>
	<g>
		<g>
			<g>
				<g>
					<defs>
						<path id="SVGID_1_" d="M4.135,1.559c-1.953,0-3.533,1.582-3.533,3.527v21.828c0,1.951,1.58,3.527,3.533,3.527h55.734
							c1.951,0,3.531-1.576,3.531-3.527V5.086c0-1.945-1.58-3.527-3.531-3.527H4.135z"/>
					</defs>
					<clipPath id="SVGID_2_">
						<use xlink:href="#SVGID_1_"  overflow="visible"/>
					</clipPath>
					
						<linearGradient id="SVGID_3_" gradientUnits="userSpaceOnUse" x1="-1330.709" y1="-229.478" x2="-1328.3459" y2="-229.478" gradientTransform="matrix(5.8606 19.1691 -19.1691 5.8606 3425.0928 26847.1914)">
						<stop  offset="0" style="stop-color:#FFFFFF"/>
						<stop  offset="1" style="stop-color:#D0D0D0"/>
					</linearGradient>
					<polygon clip-path="url(#SVGID_2_)" fill="url(#SVGID_3_)" points="60.771,-7.037 71.667,30.441 3.232,39.039 -7.333,2.573 
											"/>
				</g>
			</g>
		</g>
	</g>
	<path fill="none" stroke="#5C5C5C" stroke-width="0.4351" stroke-linejoin="round" d="M63.402,26.914
		c0,1.953-1.582,3.527-3.531,3.527H4.135c-1.951,0-3.537-1.574-3.537-3.527V5.086c0-1.945,1.586-3.527,3.537-3.527h55.736
		c1.949,0,3.531,1.582,3.531,3.527V26.914z"/>
	<g>
		<g>
			<g>
				<g>
					<defs>
						<path id="SVGID_4_" d="M4.23,2.57c-1.459,0-2.646,1.188-2.646,2.648v21.568c0,1.455,1.188,2.641,2.646,2.641h55.542
							c1.463,0,2.646-1.186,2.646-2.641V5.219c0-1.461-1.188-2.648-2.646-2.648L4.23,2.57L4.23,2.57z"/>
					</defs>
					<clipPath id="SVGID_5_">
						<use xlink:href="#SVGID_4_"  overflow="visible"/>
					</clipPath>
					
						<linearGradient id="SVGID_6_" gradientUnits="userSpaceOnUse" x1="-1332.4736" y1="-264.3945" x2="-1330.7349" y2="-264.3945" gradientTransform="matrix(0 15.4443 -15.4443 0 -4051.3901 20581.6914)">
						<stop  offset="0" style="stop-color:#FFFFFF"/>
						<stop  offset="1" style="stop-color:#F3F3F3"/>
					</linearGradient>
					<rect x="1.584" y="2.57" clip-path="url(#SVGID_5_)" fill="url(#SVGID_6_)" width="60.836" height="26.857"/>
				</g>
			</g>
		</g>
	</g>
	<path fill="none" stroke="#FAFAFA" stroke-width="0.4351" stroke-linejoin="round" d="M62.42,26.787
		c0,1.455-1.189,2.643-2.648,2.643H4.229c-1.457,0-2.647-1.188-2.647-2.643V5.219c0-1.463,1.19-2.646,2.647-2.646h55.542
		c1.459,0,2.647,1.184,2.647,2.646L62.42,26.787L62.42,26.787z"/>
</g>
<g>
	<path d="M8.828,15.179c0-0.886-0.504-1.434-1.369-1.434c-0.853,0-1.357,0.548-1.357,1.434v3.474c0,0.339-0.204,0.549-0.528,0.549
		s-0.529-0.21-0.529-0.549v-5.246c0-0.338,0.205-0.548,0.529-0.548s0.528,0.21,0.528,0.548v0.187l0.024,0.023
		c0.252-0.315,0.648-0.758,1.609-0.758c0.625,0,1.273,0.256,1.753,1.049c0.468-0.653,1.033-1.049,1.958-1.049
		c0.985,0,2.222,0.606,2.222,2.355v3.438c0,0.339-0.204,0.549-0.528,0.549s-0.529-0.21-0.529-0.549v-3.474
		c0-0.886-0.504-1.434-1.369-1.434c-0.853,0-1.357,0.548-1.357,1.434v3.474c0,0.339-0.204,0.549-0.528,0.549
		s-0.529-0.21-0.529-0.549V15.179z"/>
	<path d="M15.431,16.426c0,1.061,0.696,1.888,1.885,1.888c1.405,0,1.765-0.839,2.162-0.839c0.192,0,0.384,0.163,0.384,0.454
		c0,0.502-1.309,1.271-2.558,1.271c-2.042,0-2.93-1.527-2.93-3.171c0-1.679,1.081-3.171,2.87-3.171c1.741,0,2.75,1.527,2.75,3.02
		c0,0.361-0.132,0.548-0.588,0.548H15.431z M18.938,15.657c0-0.886-0.528-1.912-1.693-1.912c-1.309-0.047-1.777,0.967-1.813,1.912
		H18.938z"/>
	<path d="M21.789,18.652c0,0.339-0.204,0.549-0.528,0.549s-0.529-0.21-0.529-0.549v-7.973c0-0.338,0.205-0.548,0.529-0.548
		s0.528,0.21,0.528,0.548V18.652z"/>
	<path d="M23.935,18.652c0,0.339-0.204,0.549-0.528,0.549s-0.529-0.21-0.529-0.549v-7.973c0-0.338,0.205-0.548,0.529-0.548
		s0.528,0.21,0.528,0.548V18.652z"/>
	<path d="M25.716,16.426c0,1.061,0.696,1.888,1.885,1.888c1.405,0,1.765-0.839,2.162-0.839c0.192,0,0.384,0.163,0.384,0.454
		c0,0.502-1.309,1.271-2.558,1.271c-2.042,0-2.93-1.527-2.93-3.171c0-1.679,1.081-3.171,2.87-3.171c1.741,0,2.75,1.527,2.75,3.02
		c0,0.361-0.132,0.548-0.588,0.548H25.716z M29.223,15.657c0-0.886-0.528-1.912-1.693-1.912c-1.309-0.047-1.777,0.967-1.813,1.912
		H29.223z"/>
	<path d="M34.8,15.179c0-0.886-0.505-1.434-1.369-1.434c-0.853,0-1.357,0.548-1.357,1.434v3.474c0,0.339-0.204,0.549-0.528,0.549
		s-0.529-0.21-0.529-0.549v-5.246c0-0.338,0.205-0.548,0.529-0.548s0.528,0.21,0.528,0.548v0.187l0.024,0.023
		c0.252-0.315,0.648-0.758,1.609-0.758c0.624,0,1.272,0.256,1.753,1.049c0.469-0.653,1.033-1.049,1.957-1.049
		c0.985,0,2.222,0.606,2.222,2.355v3.438c0,0.339-0.204,0.549-0.528,0.549s-0.528-0.21-0.528-0.549v-3.474
		c0-0.886-0.504-1.434-1.369-1.434c-0.853,0-1.356,0.548-1.356,1.434v3.474c0,0.339-0.204,0.549-0.528,0.549
		s-0.528-0.21-0.528-0.549V15.179z"/>
	<path d="M40.732,13.407c0-0.338,0.204-0.548,0.528-0.548s0.528,0.21,0.528,0.548v0.525h0.024c0.24-0.478,0.828-1.073,1.441-1.073
		c0.372,0,0.588,0.233,0.588,0.525c0,0.291-0.216,0.478-0.66,0.56c-0.625,0.104-1.394,0.56-1.394,1.76v2.949
		c0,0.339-0.204,0.549-0.528,0.549s-0.528-0.21-0.528-0.549V13.407z"/>
	<path d="M44.232,13.407c0-0.338,0.204-0.548,0.528-0.548s0.528,0.21,0.528,0.548v3.288c0,1.062,0.48,1.62,1.478,1.62
		s1.477-0.559,1.477-1.62v-3.288c0-0.338,0.204-0.548,0.528-0.548s0.529,0.21,0.529,0.548v3.323c0,1.818-1.249,2.472-2.534,2.472
		s-2.534-0.653-2.534-2.472V13.407z"/>
	<path d="M54.164,15.179c0-0.886-0.505-1.434-1.369-1.434c-0.853,0-1.357,0.548-1.357,1.434v3.474c0,0.339-0.204,0.549-0.528,0.549
		s-0.528-0.21-0.528-0.549v-5.246c0-0.338,0.204-0.548,0.528-0.548s0.528,0.21,0.528,0.548v0.187l0.024,0.023
		c0.252-0.315,0.648-0.758,1.609-0.758c0.624,0,1.272,0.256,1.753,1.049c0.469-0.653,1.033-1.049,1.957-1.049
		c0.985,0,2.222,0.606,2.222,2.355v3.438c0,0.339-0.204,0.549-0.528,0.549s-0.528-0.21-0.528-0.549v-3.474
		c0-0.886-0.504-1.434-1.369-1.434c-0.853,0-1.356,0.548-1.356,1.434v3.474c0,0.339-0.204,0.549-0.528,0.549
		s-0.528-0.21-0.528-0.549V15.179z"/>
</g>
</svg>
