<?xml version="1.0" encoding="utf-8"?>
<!-- Generator: Adobe Illustrator 16.0.0, SVG Export Plug-In . SVG Version: 6.00 Build 0)  -->
<!DOCTYPE svg PUBLIC "-//W3C//DTD SVG 1.1//EN" "http://www.w3.org/Graphics/SVG/1.1/DTD/svg11.dtd">
<svg version="1.1" id="Reference" xmlns="http://www.w3.org/2000/svg" xmlns:xlink="http://www.w3.org/1999/xlink" x="0px" y="0px"
	 width="32px" height="32px" viewBox="0 0 32 32" enable-background="new 0 0 32 32" xml:space="preserve">
<g>
	<g>
		<g>
			<g>
				<defs>
					<path id="SVGID_1_" d="M4.135,1.805c-1.952,0-3.533,1.582-3.533,3.527V27.16c0,1.951,1.581,3.527,3.533,3.527h23.734
						c1.951,0,3.531-1.576,3.531-3.527V5.332c0-1.945-1.58-3.527-3.531-3.527H4.135z"/>
				</defs>
				<clipPath id="SVGID_2_">
					<use xlink:href="#SVGID_1_"  overflow="visible"/>
				</clipPath>
				
					<linearGradient id="SVGID_3_" gradientUnits="userSpaceOnUse" x1="-460.0112" y1="1467.6289" x2="-458.2711" y2="1467.6289" gradientTransform="matrix(5.8606 19.1691 -19.1691 5.8606 30839.9512 216.3375)">
					<stop  offset="0" style="stop-color:#FFFFFF"/>
					<stop  offset="1" style="stop-color:#D0D0D0"/>
				</linearGradient>
				<polygon clip-path="url(#SVGID_2_)" fill="url(#SVGID_3_)" points="28.771,-6.791 39.494,28.219 3.232,39.285 -7.488,4.273 				
					"/>
			</g>
		</g>
		<path fill="none" stroke="#5C5C5C" stroke-width="0.4351" stroke-linejoin="round" d="M31.402,27.16
			c0,1.953-1.582,3.527-3.531,3.527H4.136c-1.951,0-3.538-1.574-3.538-3.527V5.332c0-1.945,1.587-3.527,3.538-3.527h23.735
			c1.949,0,3.531,1.582,3.531,3.527V27.16z"/>
		<g>
			<g>
				<defs>
					<path id="SVGID_4_" d="M4.23,2.816c-1.459,0-2.646,1.188-2.646,2.648v21.568c0,1.454,1.188,2.641,2.646,2.641h23.542
						c1.463,0,2.648-1.187,2.648-2.641V5.465c0-1.461-1.188-2.648-2.648-2.648L4.23,2.816L4.23,2.816z"/>
				</defs>
				<clipPath id="SVGID_5_">
					<use xlink:href="#SVGID_4_"  overflow="visible"/>
				</clipPath>
				
					<linearGradient id="SVGID_6_" gradientUnits="userSpaceOnUse" x1="-436.8887" y1="1427.9785" x2="-435.1494" y2="1427.9785" gradientTransform="matrix(0 15.4443 -15.4443 0 22070.1309 6750.2578)">
					<stop  offset="0" style="stop-color:#FFFFFF"/>
					<stop  offset="1" style="stop-color:#F3F3F3"/>
				</linearGradient>
				<rect x="1.584" y="2.816" clip-path="url(#SVGID_5_)" fill="url(#SVGID_6_)" width="28.837" height="26.857"/>
			</g>
		</g>
		<path fill="none" stroke="#FAFAFA" stroke-width="0.4351" stroke-linejoin="round" d="M30.421,27.033
			c0,1.455-1.19,2.643-2.647,2.643H4.229c-1.457,0-2.647-1.188-2.647-2.643V5.465c0-1.463,1.19-2.646,2.647-2.646h23.544
			c1.457,0,2.647,1.184,2.647,2.646V27.033z"/>
	</g>
	<path d="M7.515,14.698c0,0.362-0.212,0.589-0.554,0.589c-0.339,0-0.549-0.227-0.549-0.589v-7.81c0-0.341,0.174-0.602,0.585-0.602
		h2.18c1.796,0,2.898,1.252,2.898,2.808c0,1.553-1.226,2.781-2.858,2.781H7.515V14.698z M7.515,10.927h1.629
		c1.09,0,1.829-0.817,1.829-1.832c0-0.878-0.501-1.854-1.882-1.854H7.515V10.927z"/>
	<g enable-background="new    ">
		<path d="M20.419,19.409c0.517-0.337,1.179-0.573,1.999-0.573c1.314,0,2.224,0.686,2.224,1.854c0,0.932-0.674,1.64-1.562,1.842
			v0.022c1.067,0.112,1.842,0.809,1.842,1.897c0,1.572-1.358,2.201-2.74,2.201c-0.685,0-1.403-0.146-1.977-0.494l0.259-0.764
			c0.404,0.236,1.078,0.461,1.696,0.461c1.123,0,1.74-0.606,1.74-1.438c0-1.135-1.09-1.46-2.055-1.46h-0.449v-0.741h0.449
			c0.999,0,1.773-0.617,1.773-1.393c0-0.764-0.539-1.19-1.358-1.19c-0.573,0-1.168,0.235-1.572,0.494L20.419,19.409z"/>
	</g>
</g>
</svg>
