<?xml version="1.0" encoding="utf-8"?>
<!-- Generator: Adobe Illustrator 16.0.0, SVG Export Plug-In . SVG Version: 6.00 Build 0)  -->
<!DOCTYPE svg PUBLIC "-//W3C//DTD SVG 1.1//EN" "http://www.w3.org/Graphics/SVG/1.1/DTD/svg11.dtd">
<svg version="1.1" id="Layer_1" xmlns="http://www.w3.org/2000/svg" xmlns:xlink="http://www.w3.org/1999/xlink" x="0px" y="0px"
	 width="32px" height="32px" viewBox="0 0 32 32" enable-background="new 0 0 32 32" xml:space="preserve">
<g id="Layer_3" display="none">
</g>
<g id="Layer_2">
</g>
<g id="Layer_1_1_">
</g>
<g id="Language_specific">
	<g>
		<g>
			<g>
				<g>
					<defs>
						<path id="SVGID_1_" d="M4.135,1.559c-1.953,0-3.533,1.582-3.533,3.527v21.828c0,1.951,1.58,3.527,3.533,3.527h23.734
							c1.951,0,3.531-1.576,3.531-3.527V5.086c0-1.945-1.58-3.527-3.531-3.527H4.135z"/>
					</defs>
					<clipPath id="SVGID_2_">
						<use xlink:href="#SVGID_1_"  overflow="visible"/>
					</clipPath>
					
						<linearGradient id="SVGID_3_" gradientUnits="userSpaceOnUse" x1="-1271.1011" y1="715.7148" x2="-1269.361" y2="715.7148" gradientTransform="matrix(5.8606 19.1691 -19.1691 5.8606 21179.9199 20170.6191)">
						<stop  offset="0" style="stop-color:#FFFFFF"/>
						<stop  offset="1" style="stop-color:#D0D0D0"/>
					</linearGradient>
					<polygon clip-path="url(#SVGID_2_)" fill="url(#SVGID_3_)" points="28.771,-7.037 39.494,27.973 3.232,39.039 -7.488,4.027 
											"/>
				</g>
			</g>
			<path fill="none" stroke="#5C5C5C" stroke-width="0.4351" stroke-linejoin="round" d="M31.402,26.914
				c0,1.953-1.582,3.527-3.531,3.527H4.135c-1.951,0-3.537-1.574-3.537-3.527V5.086c0-1.945,1.586-3.527,3.537-3.527h23.736
				c1.949,0,3.531,1.582,3.531,3.527V26.914z"/>
			<g>
				<g>
					<defs>
						<path id="SVGID_4_" d="M4.23,2.57c-1.459,0-2.646,1.188-2.646,2.648v21.568c0,1.455,1.188,2.641,2.646,2.641h23.542
							c1.463,0,2.647-1.186,2.647-2.641V5.219c0-1.461-1.187-2.648-2.647-2.648L4.23,2.57L4.23,2.57z"/>
					</defs>
					<clipPath id="SVGID_5_">
						<use xlink:href="#SVGID_4_"  overflow="visible"/>
					</clipPath>
					
						<linearGradient id="SVGID_6_" gradientUnits="userSpaceOnUse" x1="-1271.4883" y1="672.8926" x2="-1269.749" y2="672.8926" gradientTransform="matrix(0 15.4443 -15.4443 0 10408.3496 19639.8125)">
						<stop  offset="0" style="stop-color:#FFFFFF"/>
						<stop  offset="1" style="stop-color:#F3F3F3"/>
					</linearGradient>
					<rect x="1.584" y="2.57" clip-path="url(#SVGID_5_)" fill="url(#SVGID_6_)" width="28.836" height="26.857"/>
				</g>
			</g>
			<path fill="none" stroke="#FAFAFA" stroke-width="0.4351" stroke-linejoin="round" d="M30.42,26.787
				c0,1.455-1.189,2.643-2.648,2.643H4.229c-1.457,0-2.648-1.188-2.648-2.643V5.219c0-1.463,1.191-2.646,2.648-2.646h23.542
				c1.459,0,2.648,1.184,2.648,2.646V26.787z"/>
		</g>
		<g enable-background="new    ">
			<path d="M16.584,25.043c0.056-0.011,0.123-0.034,0.235-0.034c0.494,0,0.774,0.359,0.774,0.618c0,0.685-0.527,0.966-1.246,0.966
				c-0.472,0-0.82-0.157-0.82-0.393c0-0.146,0.079-0.304,0.236-0.304c0.146,0,0.382,0.09,0.584,0.09c0.27,0,0.393-0.079,0.393-0.304
				c0-0.201-0.168-0.201-0.494-0.201c-0.281,0-0.337-0.158-0.337-0.214c0-0.079,0.045-0.18,0.112-0.28l0.27-0.394
				c-1.505-0.225-2.224-1.572-2.224-3.01c0-1.583,0.876-3.055,2.696-3.055c1.01,0,1.605,0.349,1.605,0.753
				c0,0.201-0.168,0.415-0.404,0.415c-0.382,0-0.527-0.314-1.201-0.314c-1.225,0-1.708,1.19-1.708,2.201s0.483,2.201,1.708,2.201
				c0.695,0,0.875-0.337,1.189-0.337c0.225,0,0.383,0.146,0.383,0.416c0,0.359-0.506,0.74-1.472,0.764L16.584,25.043z"/>
		</g>
		<g enable-background="new    ">
			<path d="M18.51,7.941c0,2.336-1.572,4.133-2.785,5.155c-0.202,0.169-0.326,0.225-0.46,0.225c-0.157,0-0.404-0.157-0.404-0.46
				c0-0.158,0.112-0.281,0.393-0.528c0.64-0.573,1.112-1.112,1.718-2.224h-0.021c-0.371,0.191-0.73,0.314-1.27,0.314
				c-1.303,0-2.021-1.235-2.021-2.628c0-1.448,1.033-2.605,2.448-2.605C17.499,5.19,18.51,6.348,18.51,7.941z M16.118,6.111
				c-0.977,0-1.404,0.797-1.404,1.729c0,1.056,0.427,1.729,1.404,1.729s1.404-0.809,1.404-1.729
				C17.521,6.908,17.095,6.111,16.118,6.111z"/>
		</g>
	</g>
</g>
<g id="Layer_5">
</g>
</svg>
