<?xml version="1.0" encoding="utf-8"?>
<!-- Generator: Adobe Illustrator 16.0.4, SVG Export Plug-In . SVG Version: 6.00 Build 0)  -->
<!DOCTYPE svg PUBLIC "-//W3C//DTD SVG 1.1//EN" "http://www.w3.org/Graphics/SVG/1.1/DTD/svg11.dtd">
<svg version="1.1" id="Layer_1" xmlns="http://www.w3.org/2000/svg" xmlns:xlink="http://www.w3.org/1999/xlink" x="0px" y="0px"
	 width="32px" height="32px" viewBox="0 0 32 32" enable-background="new 0 0 32 32" xml:space="preserve">
<g id="Layer_3" display="none">
</g>
<g id="Layer_1_1_">
	<g>
		<g>
			<g>
				<g>
					<defs>
						<path id="SVGID_1_" d="M4.817,4.201c-2.331,0-4.22,1.889-4.22,4.223v15.16c0,2.322,1.889,4.215,4.22,4.215h22.365
							c2.332,0,4.221-1.893,4.221-4.215V8.424c0-2.334-1.889-4.223-4.221-4.223H4.817z"/>
					</defs>
					<clipPath id="SVGID_2_">
						<use xlink:href="#SVGID_1_"  overflow="visible"/>
					</clipPath>
					
						<linearGradient id="SVGID_3_" gradientUnits="userSpaceOnUse" x1="-338.9458" y1="818.7402" x2="-336.7394" y2="818.7402" gradientTransform="matrix(4.3973 14.3829 -14.3829 4.3973 13277.415 1274.8013)">
						<stop  offset="0" style="stop-color:#FFFFFF"/>
						<stop  offset="1" style="stop-color:#D0D0D0"/>
					</linearGradient>
					<polygon clip-path="url(#SVGID_2_)" fill="url(#SVGID_3_)" points="27.452,-6.129 38,25.781 3.819,38.129 -6,6.221 					"/>
				</g>
			</g>
			<path fill="none" stroke="#5C5C5C" stroke-width="0.5198" stroke-linejoin="round" d="M31.402,23.582
				c0,2.324-1.891,4.217-4.217,4.217H4.815c-2.331,0-4.218-1.893-4.218-4.217V8.424c0-2.336,1.887-4.217,4.218-4.217h22.371
				c2.326,0,4.217,1.881,4.217,4.217V23.582z"/>
			<g>
				<g>
					<defs>
						<path id="SVGID_4_" d="M4.927,5.416c-1.742,0-3.157,1.418-3.157,3.164v14.84c0,1.742,1.415,3.164,3.157,3.164h22.14
							c1.746,0,3.162-1.422,3.162-3.164V8.58c0-1.746-1.416-3.164-3.162-3.164H4.927z"/>
					</defs>
					<clipPath id="SVGID_5_">
						<use xlink:href="#SVGID_4_"  overflow="visible"/>
					</clipPath>
					
						<linearGradient id="SVGID_6_" gradientUnits="userSpaceOnUse" x1="-306.0879" y1="784.5859" x2="-304.0093" y2="784.5859" gradientTransform="matrix(0 10.1826 -10.1826 0 8005.127 3122.189)">
						<stop  offset="0" style="stop-color:#FFFFFF"/>
						<stop  offset="1" style="stop-color:#F3F3F3"/>
					</linearGradient>
					<rect x="1.77" y="5.416" clip-path="url(#SVGID_5_)" fill="url(#SVGID_6_)" width="28.458" height="21.168"/>
				</g>
			</g>
			<path fill="none" stroke="#FAFAFA" stroke-width="0.5198" stroke-linejoin="round" d="M30.227,23.424
				c0,1.742-1.414,3.16-3.162,3.16H4.93c-1.742,0-3.162-1.418-3.162-3.16V8.58c0-1.746,1.42-3.166,3.162-3.166h22.134
				c1.748,0,3.162,1.42,3.162,3.166V23.424z"/>
		</g>
		<g>
			<path d="M10.682,11.977h3.373c0.357,0,0.6-0.152,0.6-0.574c0-0.414-0.242-0.547-0.6-0.547h-3.961c-0.43,0-0.629,0.266-0.629,0.65
				v9.123c0,0.41,0.236,0.641,0.582,0.641c0.383,0,0.635-0.229,0.635-0.641v-4.053h3.049c0.324,0,0.578-0.207,0.578-0.545
				c0-0.389-0.254-0.582-0.578-0.582h-3.049V11.977"/>
			<path d="M21.322,18.318h0.684c0.297,0,0.529-0.205,0.529-0.551c0-0.269-0.232-0.519-0.529-0.519h-0.684v-5.307
				c0-0.822-0.271-1.213-0.893-1.213c-0.439,0-0.687,0.184-0.959,0.607l-3.569,5.832c-0.205,0.287-0.316,0.52-0.316,0.713
				c0,0.254,0.072,0.436,0.545,0.436h4.01v2.312c0,0.408,0.242,0.639,0.607,0.639c0.33,0,0.574-0.229,0.574-0.639V18.318
				 M20.141,17.25h-3.035l3.035-5.258V17.25z"/>
		</g>
	</g>
</g>
</svg>
