<?xml version="1.0" encoding="utf-8"?>
<!-- Generator: Adobe Illustrator 16.0.4, SVG Export Plug-In . SVG Version: 6.00 Build 0)  -->
<!DOCTYPE svg PUBLIC "-//W3C//DTD SVG 1.1//EN" "http://www.w3.org/Graphics/SVG/1.1/DTD/svg11.dtd">
<svg version="1.1" xmlns="http://www.w3.org/2000/svg" xmlns:xlink="http://www.w3.org/1999/xlink" x="0px" y="0px" width="32px"
	 height="32px" viewBox="0 0 32 32" enable-background="new 0 0 32 32" xml:space="preserve">
<g id="Layer_3" display="none">
</g>
<g id="Layer_2">
</g>
<g id="Layer_1">
	<g>
		<g>
			<g>
				<defs>
					<path id="SVGID_5467_" d="M-31.183,4.201c-2.331,0-4.22,1.889-4.22,4.223v15.16c0,2.322,1.889,4.215,4.22,4.215h22.365
						c2.331,0,4.221-1.893,4.221-4.215V8.424c0-2.334-1.89-4.223-4.221-4.223H-31.183z"/>
				</defs>
				<clipPath id="SVGID_2_">
					<use xlink:href="#SVGID_5467_"  overflow="visible"/>
				</clipPath>
				
					<linearGradient id="SVGID_3_" gradientUnits="userSpaceOnUse" x1="-238.3394" y1="-665.5117" x2="-236.133" y2="-665.5117" gradientTransform="matrix(4.3973 14.3829 14.3829 -4.3973 10595.1426 501.5876)">
					<stop  offset="0" style="stop-color:#FFFFFF"/>
					<stop  offset="1" style="stop-color:#D0D0D0"/>
				</linearGradient>
				<polygon clip-path="url(#SVGID_2_)" fill="url(#SVGID_3_)" points="-8.548,-6.129 2,25.781 -32.181,38.129 -42,6.221 				"/>
			</g>
		</g>
	</g>
	<g>
		<g>
			<g>
				<defs>
					<path id="SVGID_5473_" d="M4.817,4.201c-2.331,0-4.22,1.889-4.22,4.223v15.16c0,2.322,1.889,4.215,4.22,4.215h22.365
						c2.331,0,4.221-1.893,4.221-4.215V8.424c0-2.334-1.89-4.223-4.221-4.223H4.817z"/>
				</defs>
				<clipPath id="SVGID_5_">
					<use xlink:href="#SVGID_5473_"  overflow="visible"/>
				</clipPath>
				
					<linearGradient id="SVGID_6_" gradientUnits="userSpaceOnUse" x1="-237.6392" y1="-663.2227" x2="-235.4333" y2="-663.2227" gradientTransform="matrix(4.3973 14.3829 14.3829 -4.3973 10595.1426 501.5876)">
					<stop  offset="0" style="stop-color:#FFFFFF"/>
					<stop  offset="1" style="stop-color:#D0D0D0"/>
				</linearGradient>
				<polygon clip-path="url(#SVGID_5_)" fill="url(#SVGID_6_)" points="27.452,-6.129 38,25.781 3.819,38.129 -6,6.221 				"/>
			</g>
			<path fill="none" stroke="#5C5C5C" stroke-width="0.5198" stroke-linejoin="round" d="M31.403,23.582
				c0,2.324-1.892,4.217-4.217,4.217H4.815c-2.331,0-4.218-1.893-4.218-4.217V8.424c0-2.336,1.887-4.217,4.218-4.217h22.371
				c2.325,0,4.217,1.881,4.217,4.217V23.582z"/>
			<g>
				<defs>
					<path id="SVGID_5476_" d="M4.927,5.416c-1.742,0-3.157,1.418-3.157,3.164v14.84c0,1.742,1.415,3.164,3.157,3.164h22.14
						c1.745,0,3.161-1.422,3.161-3.164V8.58c0-1.746-1.416-3.164-3.161-3.164H4.927z"/>
				</defs>
				<clipPath id="SVGID_8_">
					<use xlink:href="#SVGID_5476_"  overflow="visible"/>
				</clipPath>
				
					<linearGradient id="SVGID_9_" gradientUnits="userSpaceOnUse" x1="-212.2559" y1="-638.6064" x2="-210.1772" y2="-638.6064" gradientTransform="matrix(0 10.1826 10.1826 0 6518.6719 2166.7327)">
					<stop  offset="0" style="stop-color:#FFFFFF"/>
					<stop  offset="1" style="stop-color:#F3F3F3"/>
				</linearGradient>
				<rect x="1.77" y="5.416" clip-path="url(#SVGID_8_)" fill="url(#SVGID_9_)" width="28.458" height="21.168"/>
			</g>
			<path fill="none" stroke="#FAFAFA" stroke-width="0.5198" stroke-linejoin="round" d="M30.227,23.424
				c0,1.742-1.415,3.16-3.162,3.16H4.93c-1.742,0-3.162-1.418-3.162-3.16V8.58c0-1.746,1.42-3.166,3.162-3.166h22.135
				c1.747,0,3.162,1.42,3.162,3.166V23.424z"/>
		</g>
		<g>
			<path d="M7.763,20.678c0,0.428-0.256,0.691-0.654,0.691s-0.65-0.264-0.65-0.691v-9.254c0-0.391,0.203-0.701,0.701-0.701h3.707
				c0.369,0,0.635,0.197,0.635,0.604c0,0.424-0.266,0.607-0.635,0.607H7.763v3.459h2.746c0.375,0,0.639,0.193,0.639,0.605
				c0,0.416-0.264,0.613-0.639,0.613H7.763V20.678z"/>
			<path d="M14.829,11.848h-1.367c-0.311,0-0.576-0.25-0.576-0.561c0-0.32,0.266-0.564,0.576-0.564h2.271
				c0.246,0,0.396,0.027,0.396,0.352v9.6c0,0.434-0.25,0.701-0.654,0.701c-0.4,0-0.646-0.268-0.646-0.701V11.848z"/>
			<path d="M19.134,17.734c0-3.086,2.08-5.455,3.684-6.805c0.268-0.225,0.43-0.305,0.609-0.305c0.207,0,0.529,0.219,0.529,0.615
				c0,0.209-0.143,0.365-0.518,0.693c-0.846,0.764-1.467,1.473-2.275,2.939H21.2c0.484-0.254,0.963-0.412,1.678-0.412
				c1.725,0,2.664,1.635,2.664,3.473c0,1.91-1.365,3.436-3.229,3.436C20.476,21.369,19.134,19.844,19.134,17.734 M22.298,20.158
				c1.291,0,1.857-1.053,1.857-2.285c0-1.391-0.566-2.287-1.857-2.287s-1.857,1.074-1.857,2.287
				C20.44,19.105,21.007,20.158,22.298,20.158"/>
		</g>
	</g>
	<g>
		<g>
			<g>
				<defs>
					<path id="SVGID_5479_" d="M40.817,4.201c-2.331,0-4.22,1.889-4.22,4.223v15.16c0,2.322,1.889,4.215,4.22,4.215h22.365
						c2.331,0,4.221-1.893,4.221-4.215V8.424c0-2.334-1.89-4.223-4.221-4.223H40.817z"/>
				</defs>
				<clipPath id="SVGID_11_">
					<use xlink:href="#SVGID_5479_"  overflow="visible"/>
				</clipPath>
				
					<linearGradient id="SVGID_12_" gradientUnits="userSpaceOnUse" x1="-236.9395" y1="-660.9336" x2="-234.7336" y2="-660.9336" gradientTransform="matrix(4.3973 14.3829 14.3829 -4.3973 10595.1426 501.5876)">
					<stop  offset="0" style="stop-color:#FFFFFF"/>
					<stop  offset="1" style="stop-color:#D0D0D0"/>
				</linearGradient>
				<polygon clip-path="url(#SVGID_11_)" fill="url(#SVGID_12_)" points="63.452,-6.129 74,25.781 39.819,38.129 30,6.221 				"/>
			</g>
		</g>
	</g>
</g>
<g id="Language_specific">
</g>
<g id="Layer_5">
</g>
</svg>
