<?xml version="1.0" encoding="utf-8"?>
<!-- Generator: Adobe Illustrator 16.0.0, SVG Export Plug-In . SVG Version: 6.00 Build 0)  -->
<!DOCTYPE svg PUBLIC "-//W3C//DTD SVG 1.1//EN" "http://www.w3.org/Graphics/SVG/1.1/DTD/svg11.dtd">
<svg version="1.1" id="Layer_1" xmlns="http://www.w3.org/2000/svg" xmlns:xlink="http://www.w3.org/1999/xlink" x="0px" y="0px"
	 width="32px" height="32px" viewBox="0 0 32 32" enable-background="new 0 0 32 32" xml:space="preserve">
<g id="Layer_3" display="none">
</g>
<g id="Layer_2">
	<g display="none">
		<g display="inline">
			<g>
				<defs>
					<path id="SVGID_1_" d="M32.816-27.799c-2.33,0-4.219,1.889-4.219,4.223v15.16c0,2.322,1.889,4.215,4.219,4.215h22.365
						c2.332,0,4.221-1.893,4.221-4.215v-15.16c0-2.334-1.889-4.223-4.221-4.223H32.816z"/>
				</defs>
				<clipPath id="SVGID_2_">
					<use xlink:href="#SVGID_1_"  overflow="visible"/>
				</clipPath>
				
					<linearGradient id="SVGID_3_" gradientUnits="userSpaceOnUse" x1="-241.7476" y1="680.0273" x2="-239.5417" y2="680.0273" gradientTransform="matrix(4.3973 14.3829 -14.3829 4.3973 10882.9111 454.7857)">
					<stop  offset="0" style="stop-color:#FFFFFF"/>
					<stop  offset="1" style="stop-color:#D0CFD0"/>
				</linearGradient>
				<polygon clip-path="url(#SVGID_2_)" fill="url(#SVGID_3_)" points="55.452,-38.129 66,-6.219 31.818,6.129 22,-25.779 				"/>
			</g>
		</g>
	</g>
</g>
<g id="Layer_1_1_">
	<g>
		<g>
			<g>
				<g>
					<defs>
						<path id="SVGID_4_" d="M4.135,1.559c-1.953,0-3.533,1.582-3.533,3.527v21.828c0,1.951,1.58,3.527,3.533,3.527h23.734
							c1.951,0,3.531-1.576,3.531-3.527V5.086c0-1.945-1.58-3.527-3.531-3.527H4.135z"/>
					</defs>
					<clipPath id="SVGID_5_">
						<use xlink:href="#SVGID_4_"  overflow="visible"/>
					</clipPath>
					
						<linearGradient id="SVGID_6_" gradientUnits="userSpaceOnUse" x1="-264.8848" y1="685.7988" x2="-263.1447" y2="685.7988" gradientTransform="matrix(5.8606 19.1691 -19.1691 5.8606 14709.4268 1057.6843)">
						<stop  offset="0" style="stop-color:#FFFFFF"/>
						<stop  offset="1" style="stop-color:#D0D0D0"/>
					</linearGradient>
					<polygon clip-path="url(#SVGID_5_)" fill="url(#SVGID_6_)" points="28.771,-7.037 39.494,27.973 3.232,39.039 -7.488,4.027 
											"/>
				</g>
			</g>
			<path fill="none" stroke="#5C5C5C" stroke-width="0.4351" stroke-linejoin="round" d="M31.402,26.914
				c0,1.953-1.582,3.527-3.531,3.527H4.135c-1.951,0-3.537-1.574-3.537-3.527V5.086c0-1.945,1.586-3.527,3.537-3.527h23.736
				c1.949,0,3.531,1.582,3.531,3.527V26.914z"/>
			<g>
				<g>
					<defs>
						<path id="SVGID_7_" d="M4.23,2.57c-1.459,0-2.646,1.188-2.646,2.648v21.568c0,1.455,1.188,2.641,2.646,2.641h23.542
							c1.463,0,2.647-1.186,2.647-2.641V5.219c0-1.461-1.187-2.648-2.647-2.648L4.23,2.57L4.23,2.57z"/>
					</defs>
					<clipPath id="SVGID_8_">
						<use xlink:href="#SVGID_7_"  overflow="visible"/>
					</clipPath>
					
						<linearGradient id="SVGID_9_" gradientUnits="userSpaceOnUse" x1="-251.4873" y1="659.0801" x2="-249.7485" y2="659.0801" gradientTransform="matrix(0 15.4443 -15.4443 0 10195.0186 3886.6226)">
						<stop  offset="0" style="stop-color:#FFFFFF"/>
						<stop  offset="1" style="stop-color:#F3F3F3"/>
					</linearGradient>
					<rect x="1.584" y="2.57" clip-path="url(#SVGID_8_)" fill="url(#SVGID_9_)" width="28.836" height="26.857"/>
				</g>
			</g>
			<path fill="none" stroke="#FAFAFA" stroke-width="0.4351" stroke-linejoin="round" d="M30.42,26.787
				c0,1.455-1.189,2.643-2.648,2.643H4.229c-1.457,0-2.648-1.188-2.648-2.643V5.219c0-1.463,1.191-2.646,2.648-2.646h23.542
				c1.459,0,2.648,1.184,2.648,2.646V26.787z"/>
		</g>
		<path d="M14.328,7.715c-0.262-0.109-0.285-0.234-0.285-0.396c0-0.227,0.186-0.424,0.436-0.424c0.316,0,0.723,0.459,1.207,0.811
			c0-0.449-0.135-0.959-0.135-1.297c0-0.234,0.162-0.438,0.449-0.438c0.283,0,0.451,0.203,0.451,0.438
			c0,0.338-0.141,0.848-0.141,1.297c0.488-0.352,0.898-0.811,1.211-0.811c0.248,0,0.436,0.197,0.436,0.424
			c0,0.162-0.029,0.287-0.289,0.396l-1.107,0.463l1.107,0.461c0.26,0.113,0.289,0.238,0.289,0.4c0,0.223-0.188,0.426-0.436,0.426
			c-0.312,0-0.724-0.463-1.211-0.812c0,0.449,0.141,0.961,0.141,1.297c0,0.238-0.168,0.438-0.451,0.438
			c-0.287,0-0.449-0.199-0.449-0.438c0-0.336,0.135-0.848,0.135-1.297c-0.484,0.35-0.891,0.812-1.207,0.812
			c-0.25,0-0.436-0.203-0.436-0.426c0-0.162,0.023-0.287,0.285-0.4l1.109-0.461L14.328,7.715z"/>
		<path d="M15.998,18.549c1.029,0,2.078,0.617,2.078,1.863c0,0.865-0.328,1.348-1.061,1.805c0.942,0.217,1.475,1.084,1.475,2.031
			c0,1.326-0.904,2.57-2.492,2.57c-1.586,0-2.488-1.244-2.488-2.57c0-0.947,0.527-1.814,1.475-2.031
			c-0.734-0.457-1.062-0.939-1.062-1.805C13.922,19.166,14.969,18.549,15.998,18.549 M15.998,25.949
			c0.752,0,1.418-0.604,1.418-1.656c0-0.832-0.482-1.619-1.418-1.619c-0.936,0-1.416,0.787-1.416,1.619
			C14.582,25.346,15.248,25.949,15.998,25.949 M15.998,21.807c0.723,0,1.143-0.504,1.143-1.201c0-0.686-0.42-1.188-1.143-1.188
			c-0.723,0-1.143,0.502-1.143,1.188C14.855,21.303,15.275,21.807,15.998,21.807"/>
	</g>
</g>
<g id="Language_specific">
</g>
<g id="Layer_5">
</g>
</svg>
