<?xml version="1.0" encoding="utf-8"?>
<!-- Generator: Adobe Illustrator 16.0.0, SVG Export Plug-In . SVG Version: 6.00 Build 0)  -->
<!DOCTYPE svg PUBLIC "-//W3C//DTD SVG 1.1//EN" "http://www.w3.org/Graphics/SVG/1.1/DTD/svg11.dtd">
<svg version="1.1" id="Layer_1" xmlns="http://www.w3.org/2000/svg" xmlns:xlink="http://www.w3.org/1999/xlink" x="0px" y="0px"
	 width="32px" height="32px" viewBox="0 0 32 32" enable-background="new 0 0 32 32" xml:space="preserve">
<g id="Layer_3" display="none">
</g>
<g id="Layer_2">
</g>
<g id="Layer_1_1_">
</g>
<g id="Language_specific">
	<g>
		<g>
			<g>
				<g>
					<defs>
						<path id="SVGID_1_" d="M4.135,1.559c-1.953,0-3.533,1.582-3.533,3.527v21.828c0,1.951,1.58,3.527,3.533,3.527h23.734
							c1.951,0,3.531-1.576,3.531-3.527V5.086c0-1.945-1.58-3.527-3.531-3.527H4.135z"/>
					</defs>
					<clipPath id="SVGID_2_">
						<use xlink:href="#SVGID_1_"  overflow="visible"/>
					</clipPath>
					
						<linearGradient id="SVGID_3_" gradientUnits="userSpaceOnUse" x1="-1306.5762" y1="713.9961" x2="-1304.8361" y2="713.9961" gradientTransform="matrix(5.8606 19.1691 -19.1691 5.8606 21354.8887 20860.7129)">
						<stop  offset="0" style="stop-color:#FFFFFF"/>
						<stop  offset="1" style="stop-color:#D0D0D0"/>
					</linearGradient>
					<polygon clip-path="url(#SVGID_2_)" fill="url(#SVGID_3_)" points="28.771,-7.037 39.494,27.973 3.232,39.039 -7.488,4.027 
											"/>
				</g>
			</g>
			<path fill="none" stroke="#5C5C5C" stroke-width="0.4351" stroke-linejoin="round" d="M31.402,26.914
				c0,1.953-1.582,3.527-3.531,3.527H4.135c-1.951,0-3.537-1.574-3.537-3.527V5.086c0-1.945,1.586-3.527,3.537-3.527h23.736
				c1.949,0,3.531,1.582,3.531,3.527V26.914z"/>
			<g>
				<g>
					<defs>
						<path id="SVGID_4_" d="M4.23,2.57c-1.459,0-2.646,1.188-2.646,2.648v21.568c0,1.455,1.188,2.641,2.646,2.641h23.542
							c1.463,0,2.647-1.186,2.647-2.641V5.219c0-1.461-1.187-2.648-2.647-2.648L4.23,2.57L4.23,2.57z"/>
					</defs>
					<clipPath id="SVGID_5_">
						<use xlink:href="#SVGID_4_"  overflow="visible"/>
					</clipPath>
					
						<linearGradient id="SVGID_6_" gradientUnits="userSpaceOnUse" x1="-1307.4873" y1="670.5615" x2="-1305.7485" y2="670.5615" gradientTransform="matrix(0 15.4443 -15.4443 0 10372.3496 20195.8047)">
						<stop  offset="0" style="stop-color:#FFFFFF"/>
						<stop  offset="1" style="stop-color:#F3F3F3"/>
					</linearGradient>
					<rect x="1.584" y="2.57" clip-path="url(#SVGID_5_)" fill="url(#SVGID_6_)" width="28.836" height="26.857"/>
				</g>
			</g>
			<path fill="none" stroke="#FAFAFA" stroke-width="0.4351" stroke-linejoin="round" d="M30.42,26.787
				c0,1.455-1.189,2.643-2.648,2.643H4.229c-1.457,0-2.648-1.188-2.648-2.643V5.219c0-1.463,1.191-2.646,2.648-2.646h23.542
				c1.459,0,2.648,1.184,2.648,2.646V26.787z"/>
		</g>
		<g enable-background="new    ">
			<path d="M18.637,26.155c0,0.349-0.27,0.483-0.461,0.483c-0.201,0-0.46-0.135-0.46-0.483V25.74h-0.022
				c-0.427,0.606-0.988,0.898-1.628,0.898c-1.685,0-2.628-1.472-2.628-3.055s0.943-3.055,2.628-3.055
				c0.685,0,1.167,0.292,1.628,0.798h0.022v-0.314c0-0.349,0.259-0.483,0.46-0.483c0.191,0,0.461,0.135,0.461,0.483V26.155z
				 M16.065,25.785c1.212,0,1.64-1.19,1.64-2.201s-0.428-2.201-1.64-2.201c-1.213,0-1.64,1.19-1.64,2.201
				S14.852,25.785,16.065,25.785z M15.312,19.126c-0.314-0.124-0.393-0.281-0.393-0.416c0-0.168,0.135-0.472,0.427-0.472
				c0.101,0,0.191,0.022,0.382,0.101l1.292,0.528c0.314,0.124,0.393,0.28,0.393,0.415c0,0.169-0.135,0.473-0.426,0.473
				c-0.102,0-0.191-0.023-0.383-0.102L15.312,19.126z"/>
		</g>
		<g enable-background="new    ">
			<path d="M16.082,5.19c1.46,0,2.639,1.493,2.639,4.065s-1.179,4.065-2.639,4.065s-2.639-1.493-2.639-4.065
				S14.622,5.19,16.082,5.19z M16.082,12.468c0.876,0,1.584-0.978,1.584-3.212s-0.708-3.212-1.584-3.212s-1.583,0.978-1.583,3.212
				S15.206,12.468,16.082,12.468z"/>
		</g>
	</g>
</g>
<g id="Layer_5">
</g>
</svg>
