<?xml version="1.0" encoding="utf-8"?>
<!-- Generator: Adobe Illustrator 16.0.0, SVG Export Plug-In . SVG Version: 6.00 Build 0)  -->
<!DOCTYPE svg PUBLIC "-//W3C//DTD SVG 1.1//EN" "http://www.w3.org/Graphics/SVG/1.1/DTD/svg11.dtd">
<svg version="1.1" id="Reference" xmlns="http://www.w3.org/2000/svg" xmlns:xlink="http://www.w3.org/1999/xlink" x="0px" y="0px"
	 width="32px" height="32px" viewBox="0 0 32 32" enable-background="new 0 0 32 32" xml:space="preserve">
<g>
	<g>
		<g>
			<defs>
				<path id="SVGID_1_" d="M4.135,1.528c-1.953,0-3.533,1.582-3.533,3.527v21.828c0,1.951,1.58,3.527,3.533,3.527h23.734
					c1.951,0,3.531-1.576,3.531-3.527V5.056c0-1.945-1.58-3.527-3.531-3.527L4.135,1.528L4.135,1.528z"/>
			</defs>
			<clipPath id="SVGID_2_">
				<use xlink:href="#SVGID_1_"  overflow="visible"/>
			</clipPath>
			
				<linearGradient id="SVGID_3_" gradientUnits="userSpaceOnUse" x1="-393.9048" y1="1535.6113" x2="-392.1647" y2="1535.6113" gradientTransform="matrix(5.8606 19.1691 -19.1691 5.8606 31755.6855 -1449.5532)">
				<stop  offset="0" style="stop-color:#FFFFFF"/>
				<stop  offset="1" style="stop-color:#D0D0D0"/>
			</linearGradient>
			<polygon clip-path="url(#SVGID_2_)" fill="url(#SVGID_3_)" points="28.771,-7.067 39.494,27.941 3.232,39.009 -7.488,3.997 			
				"/>
		</g>
	</g>
	<path fill="none" stroke="#5C5C5C" stroke-width="0.4351" stroke-linejoin="round" d="M31.402,26.884
		c0,1.953-1.582,3.527-3.531,3.527H4.135c-1.951,0-3.537-1.574-3.537-3.527V5.056c0-1.945,1.586-3.527,3.537-3.527h23.736
		c1.949,0,3.531,1.582,3.531,3.527V26.884z"/>
	<g>
		<g>
			<defs>
				<path id="SVGID_4_" d="M4.23,2.54c-1.459,0-2.646,1.188-2.646,2.648v21.568c0,1.455,1.188,2.641,2.646,2.641h23.542
					c1.463,0,2.647-1.186,2.647-2.641V5.188c0-1.461-1.187-2.648-2.647-2.648H4.23z"/>
			</defs>
			<clipPath id="SVGID_5_">
				<use xlink:href="#SVGID_4_"  overflow="visible"/>
			</clipPath>
			
				<linearGradient id="SVGID_6_" gradientUnits="userSpaceOnUse" x1="-368.7622" y1="1496.123" x2="-367.0234" y2="1496.123" gradientTransform="matrix(0 15.4443 -15.4443 0 23122.5684 5697.8203)">
				<stop  offset="0" style="stop-color:#FFFFFF"/>
				<stop  offset="1" style="stop-color:#F3F3F3"/>
			</linearGradient>
			<rect x="1.584" y="2.54" clip-path="url(#SVGID_5_)" fill="url(#SVGID_6_)" width="28.836" height="26.856"/>
		</g>
	</g>
	<path fill="none" stroke="#FAFAFA" stroke-width="0.4351" stroke-linejoin="round" d="M30.42,26.757
		c0,1.455-1.189,2.644-2.648,2.644H4.229c-1.457,0-2.648-1.188-2.648-2.644V5.188c0-1.463,1.191-2.646,2.648-2.646h23.542
		c1.459,0,2.648,1.184,2.648,2.646V26.757z"/>
</g>
<g enable-background="new    ">
	<path d="M17.781,23.316c0,0.48,0.021,0.896,0.085,1.237H17.6c-0.16,0.213-0.416,0.65-0.416,1.023c0,0.353,0.213,0.534,0.512,0.534
		c0.203,0,0.353-0.043,0.491-0.107l0.149,0.491c-0.246,0.181-0.598,0.256-0.886,0.256c-0.544,0-0.949-0.32-0.949-0.906
		c0-0.534,0.32-1.024,0.513-1.323l-0.075-0.618h-0.032c-0.288,0.405-0.842,0.768-1.579,0.768c-1.045,0-1.578-0.735-1.578-1.482
		c0-1.248,1.109-1.931,3.104-1.92v-0.106c0-0.427-0.117-1.194-1.174-1.194c-0.48,0-0.981,0.148-1.344,0.384l-0.213-0.619
		c0.427-0.277,1.045-0.458,1.696-0.458c1.578,0,1.963,1.077,1.963,2.111V23.316z M16.875,21.919
		c-1.024-0.021-2.187,0.16-2.187,1.163c0,0.607,0.405,0.896,0.885,0.896c0.672,0,1.099-0.427,1.248-0.863
		c0.032-0.097,0.054-0.203,0.054-0.299V21.919z"/>
</g>
<g enable-background="new    ">
	<path d="M17.53,14.091c-0.235,0.171-0.544,0.256-0.864,0.256c-0.576,0-0.96-0.31-0.96-0.843c0-0.522,0.438-0.992,0.779-1.237
		v-0.011c-0.096,0.011-0.181,0.021-0.288,0.021c-1.568-0.011-2.517-1.066-2.517-2.613c0-1.557,0.917-2.783,2.421-2.783
		c1.685,0,2.133,1.482,2.133,2.432c0,0.191-0.021,0.341-0.032,0.438h-3.626c0.021,1.269,0.832,1.792,1.771,1.792
		c0.671,0,1.078-0.118,1.429-0.268l0.16,0.673c-0.16,0.074-0.395,0.148-0.49,0.181c-0.416,0.182-1.003,0.704-1.003,1.142
		c0,0.31,0.213,0.448,0.437,0.448c0.15,0,0.353-0.043,0.502-0.107L17.53,14.091z M17.328,9.078c0.01-0.598-0.246-1.525-1.302-1.525
		c-0.949,0-1.365,0.874-1.44,1.525H17.328z"/>
</g>
</svg>
