<?xml version="1.0" encoding="utf-8"?>
<!-- Generator: Adobe Illustrator 16.0.4, SVG Export Plug-In . SVG Version: 6.00 Build 0)  -->
<!DOCTYPE svg PUBLIC "-//W3C//DTD SVG 1.1//EN" "http://www.w3.org/Graphics/SVG/1.1/DTD/svg11.dtd">
<svg version="1.1" xmlns="http://www.w3.org/2000/svg" xmlns:xlink="http://www.w3.org/1999/xlink" x="0px" y="0px" width="32px"
	 height="32px" viewBox="0 0 32 32" enable-background="new 0 0 32 32" xml:space="preserve">
<g id="Layer_3" display="none">
</g>
<g id="Layer_2">
</g>
<g id="Layer_1">
	<g>
		<g>
			<g>
				<defs>
					<path id="SVGID_817_" d="M4.134,1.559c-1.952,0-3.533,1.582-3.533,3.527v21.828c0,1.951,1.581,3.527,3.533,3.527h23.734
						c1.952,0,3.532-1.576,3.532-3.527V5.086c0-1.945-1.58-3.527-3.532-3.527H4.134z"/>
				</defs>
				<clipPath id="SVGID_2_">
					<use xlink:href="#SVGID_817_"  overflow="visible"/>
				</clipPath>
				
					<linearGradient id="SVGID_3_" gradientUnits="userSpaceOnUse" x1="-183.3564" y1="-666.958" x2="-181.6163" y2="-666.958" gradientTransform="matrix(5.8606 19.1691 19.1691 -5.8606 13870.4375 -394.7109)">
					<stop  offset="0" style="stop-color:#FFFFFF"/>
					<stop  offset="1" style="stop-color:#D0D0D0"/>
				</linearGradient>
				<polygon clip-path="url(#SVGID_2_)" fill="url(#SVGID_3_)" points="28.771,-7.037 39.494,27.973 3.232,39.039 -7.489,4.027 				
					"/>
			</g>
			<path fill="none" stroke="#5C5C5C" stroke-width="0.4351" stroke-linejoin="round" d="M31.403,26.914
				c0,1.953-1.582,3.527-3.532,3.527H4.135c-1.951,0-3.538-1.574-3.538-3.527V5.086c0-1.945,1.587-3.527,3.538-3.527h23.735
				c1.95,0,3.532,1.582,3.532,3.527V26.914z"/>
			<g>
				<defs>
					<path id="SVGID_820_" d="M4.23,2.57c-1.459,0-2.646,1.188-2.646,2.648v21.568c0,1.455,1.188,2.641,2.646,2.641h23.542
						c1.462,0,2.648-1.186,2.648-2.641V5.219c0-1.461-1.187-2.648-2.648-2.648H4.23z"/>
				</defs>
				<clipPath id="SVGID_5_">
					<use xlink:href="#SVGID_820_"  overflow="visible"/>
				</clipPath>
				
					<linearGradient id="SVGID_6_" gradientUnits="userSpaceOnUse" x1="-171.1782" y1="-652.7666" x2="-169.4395" y2="-652.7666" gradientTransform="matrix(0 15.4443 15.4443 0 10097.5293 2646.3037)">
					<stop  offset="0" style="stop-color:#FFFFFF"/>
					<stop  offset="1" style="stop-color:#F3F3F3"/>
				</linearGradient>
				<rect x="1.583" y="2.57" clip-path="url(#SVGID_5_)" fill="url(#SVGID_6_)" width="28.837" height="26.857"/>
			</g>
			<path fill="none" stroke="#FAFAFA" stroke-width="0.4351" stroke-linejoin="round" d="M30.42,26.787
				c0,1.455-1.19,2.643-2.648,2.643H4.228c-1.457,0-2.647-1.188-2.647-2.643V5.219c0-1.463,1.19-2.646,2.647-2.646h23.544
				c1.458,0,2.648,1.184,2.648,2.646V26.787z"/>
		</g>
		<g>
			<path d="M13.689,8.301c-0.254,0-0.438-0.133-0.438-0.418s0.184-0.42,0.438-0.42h4.283c0.254,0,0.438,0.135,0.438,0.42
				s-0.184,0.418-0.438,0.418H13.689z M13.689,10.422c-0.254,0-0.438-0.135-0.438-0.418c0-0.287,0.184-0.42,0.438-0.42h4.283
				c0.254,0,0.438,0.133,0.438,0.42c0,0.283-0.184,0.418-0.438,0.418H13.689z"/>
			<path d="M16.119,18.537c1.451,0,2.629,1.486,2.629,4.049c0,2.561-1.178,4.051-2.629,4.051c-1.457,0-2.631-1.49-2.631-4.051
				C13.488,20.023,14.662,18.537,16.119,18.537 M16.119,25.785c0.871,0,1.574-0.973,1.574-3.199s-0.703-3.199-1.574-3.199
				c-0.873,0-1.578,0.973-1.578,3.199S15.246,25.785,16.119,25.785"/>
		</g>
	</g>
	<g>
		<g>
			<g>
				<defs>
					<path id="SVGID_823_" d="M-31.866,1.559c-1.952,0-3.533,1.582-3.533,3.527v21.828c0,1.951,1.581,3.527,3.533,3.527h23.734
						c1.952,0,3.532-1.576,3.532-3.527V5.086c0-1.945-1.58-3.527-3.532-3.527H-31.866z"/>
				</defs>
				<clipPath id="SVGID_8_">
					<use xlink:href="#SVGID_823_"  overflow="visible"/>
				</clipPath>
				
					<linearGradient id="SVGID_9_" gradientUnits="userSpaceOnUse" x1="-183.8818" y1="-668.6758" x2="-182.1417" y2="-668.6758" gradientTransform="matrix(5.8606 19.1691 19.1691 -5.8606 13870.4375 -394.7109)">
					<stop  offset="0" style="stop-color:#FFFFFF"/>
					<stop  offset="1" style="stop-color:#D0D0D0"/>
				</linearGradient>
				<polygon clip-path="url(#SVGID_8_)" fill="url(#SVGID_9_)" points="-7.229,-7.037 3.494,27.973 -32.768,39.039 -43.489,4.027 
									"/>
			</g>
		</g>
	</g>
</g>
<g id="Language_specific">
	<g>
		<g>
			<g>
				<defs>
					<path id="SVGID_925_" d="M40.134,1.559c-1.952,0-3.533,1.582-3.533,3.527v21.828c0,1.951,1.581,3.527,3.533,3.527h23.734
						c1.952,0,3.532-1.576,3.532-3.527V5.086c0-1.945-1.58-3.527-3.532-3.527H40.134z"/>
				</defs>
				<clipPath id="SVGID_11_">
					<use xlink:href="#SVGID_925_"  overflow="visible"/>
				</clipPath>
				
					<linearGradient id="SVGID_12_" gradientUnits="userSpaceOnUse" x1="-182.8315" y1="-665.2402" x2="-181.0914" y2="-665.2402" gradientTransform="matrix(5.8606 19.1691 19.1691 -5.8606 13870.4375 -394.7109)">
					<stop  offset="0" style="stop-color:#FFFFFF"/>
					<stop  offset="1" style="stop-color:#D0D0D0"/>
				</linearGradient>
				<polygon clip-path="url(#SVGID_11_)" fill="url(#SVGID_12_)" points="64.771,-7.037 75.494,27.973 39.232,39.039 28.511,4.027 
									"/>
			</g>
		</g>
	</g>
</g>
<g id="Layer_5">
</g>
</svg>
