<?xml version="1.0" encoding="utf-8"?>
<!-- Generator: Adobe Illustrator 16.0.4, SVG Export Plug-In . SVG Version: 6.00 Build 0)  -->
<!DOCTYPE svg PUBLIC "-//W3C//DTD SVG 1.1//EN" "http://www.w3.org/Graphics/SVG/1.1/DTD/svg11.dtd">
<svg version="1.1" xmlns="http://www.w3.org/2000/svg" xmlns:xlink="http://www.w3.org/1999/xlink" x="0px" y="0px" width="32px"
	 height="32px" viewBox="0 0 32 32" enable-background="new 0 0 32 32" xml:space="preserve">
<g id="Layer_3" display="none">
</g>
<g id="Layer_2">
	<g>
		<g>
			<defs>
				<path id="SVGID_1135_" d="M4.134,1.559c-1.952,0-3.533,1.582-3.533,3.527v21.828c0,1.951,1.581,3.527,3.533,3.527h23.734
					c1.952,0,3.532-1.576,3.532-3.527V5.086c0-1.945-1.58-3.527-3.532-3.527H4.134z"/>
			</defs>
			<clipPath id="SVGID_2_">
				<use xlink:href="#SVGID_1135_"  overflow="visible"/>
			</clipPath>
			
				<linearGradient id="SVGID_3_" gradientUnits="userSpaceOnUse" x1="29.4927" y1="-677.2627" x2="31.2333" y2="-677.2627" gradientTransform="matrix(5.8606 19.1691 19.1691 -5.8606 12820.5488 -4535.2363)">
				<stop  offset="0" style="stop-color:#FFFFFF"/>
				<stop  offset="1" style="stop-color:#D0D0D0"/>
			</linearGradient>
			<polygon clip-path="url(#SVGID_2_)" fill="url(#SVGID_3_)" points="28.771,-7.037 39.494,27.973 3.232,39.039 -7.489,4.027 			
				"/>
		</g>
		<path fill="none" stroke="#5C5C5C" stroke-width="0.4351" stroke-linejoin="round" d="M31.403,26.914
			c0,1.953-1.582,3.527-3.532,3.527H4.135c-1.951,0-3.538-1.574-3.538-3.527V5.086c0-1.945,1.587-3.527,3.538-3.527h23.735
			c1.95,0,3.532,1.582,3.532,3.527V26.914z"/>
		<g>
			<defs>
				<path id="SVGID_1138_" d="M4.23,2.57c-1.459,0-2.646,1.188-2.646,2.648v21.568c0,1.455,1.188,2.641,2.646,2.641h23.542
					c1.462,0,2.648-1.186,2.648-2.641V5.219c0-1.461-1.187-2.648-2.648-2.648H4.23z"/>
			</defs>
			<clipPath id="SVGID_5_">
				<use xlink:href="#SVGID_1138_"  overflow="visible"/>
			</clipPath>
			
				<linearGradient id="SVGID_6_" gradientUnits="userSpaceOnUse" x1="44.8218" y1="-666.752" x2="46.5605" y2="-666.752" gradientTransform="matrix(0 15.4443 15.4443 0 10313.5293 -689.665)">
				<stop  offset="0" style="stop-color:#FFFFFF"/>
				<stop  offset="1" style="stop-color:#F3F3F3"/>
			</linearGradient>
			<rect x="1.583" y="2.57" clip-path="url(#SVGID_5_)" fill="url(#SVGID_6_)" width="28.837" height="26.857"/>
		</g>
		<path fill="none" stroke="#FAFAFA" stroke-width="0.4351" stroke-linejoin="round" d="M30.42,26.787
			c0,1.455-1.19,2.643-2.648,2.643H4.228c-1.457,0-2.647-1.188-2.647-2.643V5.219c0-1.463,1.19-2.646,2.647-2.646h23.544
			c1.458,0,2.648,1.184,2.648,2.646V26.787z"/>
	</g>
</g>
<g id="Layer_1">
	<path d="M18.49,19.797c-0.672,0.65-1.58,1.041-2.689,1.041c-2.742,0-4.211-2.391-4.211-4.891c0-2.502,1.469-4.893,4.211-4.893
		c2.744,0,4.217,2.391,4.217,4.893c0,1.107-0.283,2.176-0.838,3.039l0.996,0.988c0.156,0.146,0.234,0.283,0.234,0.473
		c0,0.258-0.203,0.498-0.514,0.498c-0.232,0-0.365-0.121-0.461-0.217L18.49,19.797z M16.921,18.258
		c-0.145-0.148-0.24-0.271-0.24-0.445c0-0.297,0.215-0.543,0.525-0.543c0.162,0,0.281,0.057,0.447,0.217l0.66,0.648
		c0.299-0.648,0.434-1.432,0.434-2.188c0-1.838-0.785-3.867-2.947-3.867s-2.945,2.029-2.945,3.867c0,1.836,0.783,3.863,2.945,3.863
		c0.822,0,1.445-0.283,1.922-0.77L16.921,18.258z"/>
</g>
<g id="Language_specific">
</g>
<g id="Layer_5">
</g>
</svg>
