<?xml version="1.0" encoding="utf-8"?>
<!-- Generator: Adobe Illustrator 16.0.4, SVG Export Plug-In . SVG Version: 6.00 Build 0)  -->
<!DOCTYPE svg PUBLIC "-//W3C//DTD SVG 1.1//EN" "http://www.w3.org/Graphics/SVG/1.1/DTD/svg11.dtd">
<svg version="1.1" xmlns="http://www.w3.org/2000/svg" xmlns:xlink="http://www.w3.org/1999/xlink" x="0px" y="0px" width="32px"
	 height="32px" viewBox="0 0 32 32" enable-background="new 0 0 32 32" xml:space="preserve">
<g id="Layer_3" display="none">
</g>
<g id="Layer_2">
</g>
<g id="Layer_1">
	<g>
		<g>
			<g>
				<defs>
					<path id="SVGID_1531_" d="M-31.866,1.559c-1.952,0-3.533,1.582-3.533,3.527v21.828c0,1.951,1.581,3.527,3.533,3.527h23.734
						c1.952,0,3.532-1.576,3.532-3.527V5.086c0-1.945-1.58-3.527-3.532-3.527H-31.866z"/>
				</defs>
				<clipPath id="SVGID_2_">
					<use xlink:href="#SVGID_1531_"  overflow="visible"/>
				</clipPath>
				
					<linearGradient id="SVGID_3_" gradientUnits="userSpaceOnUse" x1="-6.5073" y1="-677.2627" x2="-4.7667" y2="-677.2627" gradientTransform="matrix(5.8606 19.1691 19.1691 -5.8606 12995.5293 -3845.1494)">
					<stop  offset="0" style="stop-color:#FFFFFF"/>
					<stop  offset="1" style="stop-color:#D0D0D0"/>
				</linearGradient>
				<polygon clip-path="url(#SVGID_2_)" fill="url(#SVGID_3_)" points="-7.229,-7.037 3.494,27.973 -32.768,39.039 -43.489,4.027 
									"/>
			</g>
		</g>
	</g>
	<g>
		<g>
			<g>
				<defs>
					<path id="SVGID_1645_" d="M40.134,1.559c-1.952,0-3.533,1.582-3.533,3.527v21.828c0,1.951,1.581,3.527,3.533,3.527h23.734
						c1.952,0,3.532-1.576,3.532-3.527V5.086c0-1.945-1.58-3.527-3.532-3.527H40.134z"/>
				</defs>
				<clipPath id="SVGID_5_">
					<use xlink:href="#SVGID_1645_"  overflow="visible"/>
				</clipPath>
				
					<linearGradient id="SVGID_6_" gradientUnits="userSpaceOnUse" x1="-5.457" y1="-673.8281" x2="-3.7169" y2="-673.8281" gradientTransform="matrix(5.8606 19.1691 19.1691 -5.8606 12995.5293 -3845.1494)">
					<stop  offset="0" style="stop-color:#FFFFFF"/>
					<stop  offset="1" style="stop-color:#D0D0D0"/>
				</linearGradient>
				<polygon clip-path="url(#SVGID_5_)" fill="url(#SVGID_6_)" points="64.771,-7.037 75.494,27.973 39.232,39.039 28.511,4.027 
									"/>
			</g>
		</g>
	</g>
</g>
<g id="Language_specific">
	<g>
		<g>
			<g>
				<defs>
					<path id="SVGID_1897_" d="M6.188,0.232c-1.943,0-3.516,1.576-3.516,3.516V14.51c0,1.949,1.572,3.518,3.516,3.518H8.24v10.227
						c0,1.947,1.572,3.514,3.516,3.514h14.057c1.941,0,3.516-1.566,3.516-3.514V25.51V25.15V3.748c0-1.939-1.574-3.516-3.516-3.516
						H6.188z"/>
				</defs>
				<clipPath id="SVGID_8_">
					<use xlink:href="#SVGID_1897_"  overflow="visible"/>
				</clipPath>
				
					<linearGradient id="SVGID_9_" gradientUnits="userSpaceOnUse" x1="-26.5396" y1="-673.3945" x2="-25.1693" y2="-673.3945" gradientTransform="matrix(11.3825 37.2305 37.2305 -11.3825 25380.4219 -6688.3242)">
					<stop  offset="0" style="stop-color:#FFFFFF"/>
					<stop  offset="1" style="stop-color:#CFCFCF"/>
				</linearGradient>
				<polygon clip-path="url(#SVGID_8_)" fill="url(#SVGID_9_)" points="28.707,-8.34 45.453,33.381 3.791,36.84 -14.953,-5.381 				
					"/>
			</g>
			<path fill="none" stroke="#5C5C5C" stroke-width="0.4334" stroke-linejoin="round" d="M25.812,0.232H6.188
				c-1.943,0-3.516,1.576-3.516,3.516V14.51c0,1.947,1.572,3.518,3.516,3.518H8.24v10.225c0,1.947,1.572,3.516,3.516,3.516h14.057
				c1.941,0,3.516-1.568,3.516-3.516V25.51V25.15V3.748C29.328,1.809,27.754,0.232,25.812,0.232z"/>
			<g>
				<defs>
					<path id="SVGID_1900_" d="M6.287,1.242c-1.459,0-2.639,1.18-2.639,2.639v10.504c0,1.451,1.18,2.633,2.639,2.633h2.932v11.109
						c0,1.449,1.18,2.631,2.635,2.631h13.859c1.455,0,2.639-1.182,2.639-2.631v-2.742v-0.574V3.881c0-1.459-1.184-2.639-2.639-2.639
						H6.287z"/>
				</defs>
				<clipPath id="SVGID_11_">
					<use xlink:href="#SVGID_1900_"  overflow="visible"/>
				</clipPath>
				
					<linearGradient id="SVGID_12_" gradientUnits="userSpaceOnUse" x1="-20.8745" y1="-668.3682" x2="-20.0317" y2="-668.3682" gradientTransform="matrix(0 35.1938 35.1938 0 23538.4062 735.8926)">
					<stop  offset="0" style="stop-color:#FFFFFF"/>
					<stop  offset="1" style="stop-color:#F2F2F2"/>
				</linearGradient>
				<polygon clip-path="url(#SVGID_11_)" fill="url(#SVGID_12_)" points="28.352,1.242 28.352,30.758 3.648,30.9 3.648,1.242 				
					"/>
			</g>
			<path fill="none" stroke="#FAFAFA" stroke-width="0.4334" stroke-linejoin="round" d="M25.711,1.242H6.285
				c-1.455,0-2.637,1.182-2.637,2.639v10.504c0,1.451,1.182,2.633,2.637,2.633h2.934v11.109c0,1.451,1.18,2.633,2.635,2.633h13.857
				c1.457,0,2.643-1.182,2.643-2.633v-2.742v-0.572V3.881C28.354,2.424,27.168,1.242,25.711,1.242z"/>
		</g>
		<path d="M24.567,8.152c-0.087,0-2.97,0-2.986,0c-0.225,0-0.412,0.186-0.412,0.412c0,0.229,0.188,0.412,0.412,0.412
			c1.718,0,2.571,0,2.989-0.053v0.053c0.37,0,0.673,0.301,0.673,0.674v2.805c0,0.369-0.303,0.672-0.673,0.672h-9.482l2.66-1.754
			c0.19-0.127,0.242-0.381,0.117-0.57c-0.126-0.191-0.381-0.244-0.57-0.117l-4.29,2.83l4.265,2.877
			c0.067,0.047,0.147,0.07,0.228,0.07c0.133,0,0.261-0.064,0.341-0.182c0.129-0.189,0.078-0.443-0.109-0.572l-2.605-1.758h9.447
			c0.828,0,1.497-0.67,1.497-1.496V9.65C26.067,8.824,25.398,8.152,24.567,8.152"/>
	</g>
</g>
<g id="Layer_5">
</g>
</svg>
