<?xml version="1.0" encoding="utf-8"?>
<!-- Generator: Adobe Illustrator 16.0.4, SVG Export Plug-In . SVG Version: 6.00 Build 0)  -->
<!DOCTYPE svg PUBLIC "-//W3C//DTD SVG 1.1//EN" "http://www.w3.org/Graphics/SVG/1.1/DTD/svg11.dtd">
<svg version="1.1" id="Layer_1" xmlns="http://www.w3.org/2000/svg" xmlns:xlink="http://www.w3.org/1999/xlink" x="0px" y="0px"
	 width="32px" height="32px" viewBox="0 0 32 32" enable-background="new 0 0 32 32" xml:space="preserve">
<g id="Layer_3" display="none">
</g>
<g id="Layer_2">
</g>
<g>
	<g>
		<g>
			<defs>
				<path id="SVGID_1_" d="M4.134,1.559c-1.952,0-3.533,1.582-3.533,3.527v21.828c0,1.951,1.581,3.527,3.533,3.527h23.734
					c1.952,0,3.532-1.576,3.532-3.527V5.086c0-1.945-1.58-3.527-3.532-3.527H4.134z"/>
			</defs>
			<clipPath id="SVGID_2_">
				<use xlink:href="#SVGID_1_"  overflow="visible"/>
			</clipPath>
			
				<linearGradient id="SVGID_3_" gradientUnits="userSpaceOnUse" x1="-592.0757" y1="949.9746" x2="-590.3356" y2="949.9746" gradientTransform="matrix(5.8606 19.1691 -19.1691 5.8606 21690.9883 5781.4131)">
				<stop  offset="0" style="stop-color:#FFFFFF"/>
				<stop  offset="1" style="stop-color:#D0D0D0"/>
			</linearGradient>
			<polygon clip-path="url(#SVGID_2_)" fill="url(#SVGID_3_)" points="28.771,-7.037 39.494,27.973 3.232,39.039 -7.489,4.027 			
				"/>
		</g>
	</g>
	<path fill="none" stroke="#5C5C5C" stroke-width="0.4351" stroke-linejoin="round" d="M31.402,26.914
		c0,1.953-1.582,3.527-3.531,3.527H4.135c-1.951,0-3.538-1.574-3.538-3.527V5.086c0-1.945,1.587-3.527,3.538-3.527H27.87
		c1.95,0,3.532,1.582,3.532,3.527V26.914L31.402,26.914z"/>
	<g>
		<g>
			<defs>
				<path id="SVGID_4_" d="M4.23,2.57c-1.459,0-2.646,1.188-2.646,2.648v21.568c0,1.455,1.188,2.641,2.646,2.641h23.542
					c1.463,0,2.648-1.186,2.648-2.641V5.219c0-1.461-1.188-2.648-2.648-2.648L4.23,2.57L4.23,2.57z"/>
			</defs>
			<clipPath id="SVGID_5_">
				<use xlink:href="#SVGID_4_"  overflow="visible"/>
			</clipPath>
			
				<linearGradient id="SVGID_6_" gradientUnits="userSpaceOnUse" x1="-580.4844" y1="925.4072" x2="-578.7456" y2="925.4072" gradientTransform="matrix(0 15.4443 -15.4443 0 14308.2656 8967.7461)">
				<stop  offset="0" style="stop-color:#FFFFFF"/>
				<stop  offset="1" style="stop-color:#F3F3F3"/>
			</linearGradient>
			<rect x="1.583" y="2.57" clip-path="url(#SVGID_5_)" fill="url(#SVGID_6_)" width="28.837" height="26.857"/>
		</g>
	</g>
	<path fill="none" stroke="#FAFAFA" stroke-width="0.4351" stroke-linejoin="round" d="M30.42,26.787
		c0,1.455-1.189,2.643-2.648,2.643H4.228c-1.457,0-2.647-1.188-2.647-2.643V5.219c0-1.463,1.19-2.646,2.647-2.646h23.543
		c1.459,0,2.648,1.184,2.648,2.646V26.787z"/>
</g>
<path d="M12.462,24.66c-0.342,0-0.43-0.15-0.43-0.354c0-0.148,0.104-0.343,0.252-0.584l2.873-4.718
	c0.211-0.34,0.436-0.457,0.791-0.457c0.447,0,0.766,0.24,0.766,0.836v4.408h0.513c0.244,0,0.434,0.194,0.434,0.435
	c0,0.239-0.189,0.434-0.434,0.434h-0.513v1.623c0,0.332-0.19,0.535-0.502,0.535c-0.307,0-0.504-0.203-0.504-0.535V24.66H12.462z
	 M15.708,23.793v-4.168h-0.021l-2.398,4.168H15.708z"/>
<g id="Language_specific">
</g>
<g id="Layer_5">
</g>
<path d="M17.816,12.899c-0.377,0.254-1.023,0.498-1.821,0.498c-0.987,0-1.883-0.377-2.479-1.088
	c-0.465-0.512-0.771-1.223-0.881-2.102h-0.759V9.596h0.695V9.412c0-0.182,0.016-0.366,0.027-0.538h-0.723V8.262h0.807
	c0.146-0.855,0.502-1.564,1.004-2.066c0.611-0.646,1.418-1.014,2.406-1.014c0.737,0,1.297,0.209,1.639,0.393L17.49,6.379
	c-0.322-0.184-0.82-0.342-1.372-0.342c-0.66,0-1.211,0.234-1.625,0.66c-0.356,0.367-0.6,0.918-0.721,1.564h3.409v0.611h-3.52
	c-0.025,0.159-0.025,0.329-0.025,0.514v0.209h3.545v0.611H13.72c0.1,0.709,0.332,1.233,0.674,1.602
	c0.451,0.488,1.064,0.709,1.725,0.709c0.649,0,1.209-0.232,1.493-0.402L17.816,12.899z"/>
</svg>
