<?xml version="1.0" encoding="utf-8"?>
<!-- Generator: Adobe Illustrator 16.0.4, SVG Export Plug-In . SVG Version: 6.00 Build 0)  -->
<!DOCTYPE svg PUBLIC "-//W3C//DTD SVG 1.1//EN" "http://www.w3.org/Graphics/SVG/1.1/DTD/svg11.dtd">
<svg version="1.1" id="Reference" xmlns="http://www.w3.org/2000/svg" xmlns:xlink="http://www.w3.org/1999/xlink" x="0px" y="0px"
	 width="32px" height="32px" viewBox="0 0 32 32" enable-background="new 0 0 32 32" xml:space="preserve">
<g>
	<g>
		<defs>
			<path id="SVGID_871_" d="M-27.865,1.528c-1.953,0-3.533,1.582-3.533,3.527v21.828c0,1.951,1.58,3.527,3.533,3.527h23.734
				c1.951,0,3.531-1.576,3.531-3.527V5.056c0-1.945-1.58-3.527-3.531-3.527H-27.865z"/>
		</defs>
		<clipPath id="SVGID_2_">
			<use xlink:href="#SVGID_871_"  overflow="visible"/>
		</clipPath>
		
			<linearGradient id="SVGID_3_" gradientUnits="userSpaceOnUse" x1="-375.8013" y1="-1436.6172" x2="-374.0612" y2="-1436.6172" gradientTransform="matrix(5.8606 19.1691 19.1691 -5.8606 29719.9648 -1216.4204)">
			<stop  offset="0" style="stop-color:#FFFFFF"/>
			<stop  offset="1" style="stop-color:#D0D0D0"/>
		</linearGradient>
		<polygon clip-path="url(#SVGID_2_)" fill="url(#SVGID_3_)" points="-3.229,-7.067 7.494,27.942 -28.768,39.009 -39.488,3.997 		
			"/>
	</g>
</g>
<g>
	<g>
		<defs>
			<path id="SVGID_877_" d="M4.135,1.528c-1.953,0-3.533,1.582-3.533,3.527v21.828c0,1.951,1.58,3.527,3.533,3.527h23.734
				c1.951,0,3.531-1.576,3.531-3.527V5.056c0-1.945-1.58-3.527-3.531-3.527H4.135z"/>
		</defs>
		<clipPath id="SVGID_5_">
			<use xlink:href="#SVGID_877_"  overflow="visible"/>
		</clipPath>
		
			<linearGradient id="SVGID_6_" gradientUnits="userSpaceOnUse" x1="-375.3345" y1="-1435.0908" x2="-373.5944" y2="-1435.0908" gradientTransform="matrix(5.8606 19.1691 19.1691 -5.8606 29719.9648 -1216.4204)">
			<stop  offset="0" style="stop-color:#FFFFFF"/>
			<stop  offset="1" style="stop-color:#D0D0D0"/>
		</linearGradient>
		<polygon clip-path="url(#SVGID_5_)" fill="url(#SVGID_6_)" points="28.771,-7.067 39.494,27.942 3.232,39.009 -7.488,3.997 		"/>
	</g>
	<path fill="none" stroke="#5C5C5C" stroke-width="0.4351" stroke-linejoin="round" d="M31.402,26.884
		c0,1.953-1.582,3.527-3.531,3.527H4.135c-1.951,0-3.537-1.574-3.537-3.527V5.056c0-1.945,1.586-3.527,3.537-3.527h23.736
		c1.949,0,3.531,1.582,3.531,3.527V26.884z"/>
	<g>
		<defs>
			<path id="SVGID_880_" d="M4.23,2.54c-1.459,0-2.646,1.188-2.646,2.648v21.568c0,1.455,1.188,2.641,2.646,2.641h23.541
				c1.463,0,2.648-1.186,2.648-2.641V5.188c0-1.461-1.186-2.648-2.648-2.648H4.23z"/>
		</defs>
		<clipPath id="SVGID_8_">
			<use xlink:href="#SVGID_880_"  overflow="visible"/>
		</clipPath>
		
			<linearGradient id="SVGID_9_" gradientUnits="userSpaceOnUse" x1="-353.4531" y1="-1405.7441" x2="-351.7144" y2="-1405.7441" gradientTransform="matrix(0 15.4443 15.4443 0 21726.752 5461.3813)">
			<stop  offset="0" style="stop-color:#FFFFFF"/>
			<stop  offset="1" style="stop-color:#F3F3F3"/>
		</linearGradient>
		<rect x="1.584" y="2.54" clip-path="url(#SVGID_8_)" fill="url(#SVGID_9_)" width="28.836" height="26.857"/>
	</g>
	<path fill="none" stroke="#FAFAFA" stroke-width="0.4351" stroke-linejoin="round" d="M30.42,26.757
		c0,1.455-1.189,2.643-2.648,2.643H4.229c-1.457,0-2.648-1.188-2.648-2.643V5.188c0-1.463,1.191-2.646,2.648-2.646h23.543
		c1.459,0,2.648,1.184,2.648,2.646V26.757z"/>
</g>
<path d="M15.521,10.413c-1.01-0.344-2.108-0.7-2.108-2.088c0-0.877,0.772-1.91,2.108-2.031V5.773c0-0.135,0.084-0.233,0.231-0.233
	c0.145,0,0.234,0.099,0.234,0.233v0.521c0.886,0.066,1.696,0.455,1.696,0.92c0,0.234-0.178,0.434-0.419,0.434
	c-0.392,0-0.547-0.398-1.277-0.509v2.43c1.032,0.366,2.219,0.767,2.219,2.265c0,1.188-0.786,2.274-2.219,2.453v0.565
	c0,0.133-0.09,0.233-0.234,0.233c-0.147,0-0.231-0.101-0.231-0.233v-0.521c-1.133,0-2.188-0.511-2.188-0.988
	c0-0.234,0.135-0.468,0.389-0.468c0.408,0,0.812,0.611,1.8,0.611V10.413z M15.521,7.139c-0.624,0.075-1.066,0.509-1.066,1.12
	c0,0.609,0.455,0.897,1.066,1.131V7.139z M15.986,13.432c0.744-0.155,1.175-0.767,1.175-1.553c0-0.733-0.533-1.058-1.175-1.303
	V13.432z"/>
<path d="M15.634,24.26c0.137-0.258,0.283-0.502,0.635-0.502c0.285,0,0.541,0.215,0.541,0.514c0,0.148-0.039,0.283-0.148,0.5
	l-0.76,1.488c-0.131,0.256-0.281,0.5-0.633,0.5c-0.283,0-0.541-0.219-0.541-0.516c0-0.146,0.041-0.283,0.15-0.498L15.634,24.26z
	 M16.12,19.217c0.379,0,0.689,0.311,0.689,0.689c0,0.381-0.311,0.689-0.689,0.689s-0.689-0.309-0.689-0.689
	C15.431,19.527,15.741,19.217,16.12,19.217"/>
</svg>
