<?xml version="1.0" encoding="utf-8"?>
<!-- Generator: Adobe Illustrator 16.0.4, SVG Export Plug-In . SVG Version: 6.00 Build 0)  -->
<!DOCTYPE svg PUBLIC "-//W3C//DTD SVG 1.1//EN" "http://www.w3.org/Graphics/SVG/1.1/DTD/svg11.dtd">
<svg version="1.1" id="Reference" xmlns="http://www.w3.org/2000/svg" xmlns:xlink="http://www.w3.org/1999/xlink" x="0px" y="0px"
	 width="32px" height="32px" viewBox="0 0 32 32" enable-background="new 0 0 32 32" xml:space="preserve">
<g>
	<g>
		<defs>
			<path id="SVGID_811_" d="M-27.865,1.546c-1.952,0-3.533,1.582-3.533,3.527v21.828c0,1.951,1.581,3.527,3.533,3.527h23.734
				c1.952,0,3.532-1.576,3.532-3.527V5.073c0-1.945-1.58-3.527-3.532-3.527H-27.865z"/>
		</defs>
		<clipPath id="SVGID_2_">
			<use xlink:href="#SVGID_811_"  overflow="visible"/>
		</clipPath>
		
			<linearGradient id="SVGID_3_" gradientUnits="userSpaceOnUse" x1="-635.6997" y1="-1262.0703" x2="-633.9596" y2="-1262.0703" gradientTransform="matrix(5.8606 19.1691 19.1691 -5.8606 27897.2246 4788.5645)">
			<stop  offset="0" style="stop-color:#FFFFFF"/>
			<stop  offset="1" style="stop-color:#D0D0D0"/>
		</linearGradient>
		<polygon clip-path="url(#SVGID_2_)" fill="url(#SVGID_3_)" points="-3.229,-7.05 7.494,27.96 -28.768,39.026 -39.488,4.015 		"/>
	</g>
</g>
<g>
	<g>
		<defs>
			<path id="SVGID_817_" d="M4.135,1.546c-1.952,0-3.533,1.582-3.533,3.527v21.828c0,1.951,1.581,3.527,3.533,3.527h23.734
				c1.952,0,3.532-1.576,3.532-3.527V5.073c0-1.945-1.58-3.527-3.532-3.527H4.135z"/>
		</defs>
		<clipPath id="SVGID_5_">
			<use xlink:href="#SVGID_817_"  overflow="visible"/>
		</clipPath>
		
			<linearGradient id="SVGID_6_" gradientUnits="userSpaceOnUse" x1="-635.2329" y1="-1260.5449" x2="-633.4928" y2="-1260.5449" gradientTransform="matrix(5.8606 19.1691 19.1691 -5.8606 27897.2246 4788.5645)">
			<stop  offset="0" style="stop-color:#FFFFFF"/>
			<stop  offset="1" style="stop-color:#D0D0D0"/>
		</linearGradient>
		<polygon clip-path="url(#SVGID_5_)" fill="url(#SVGID_6_)" points="28.771,-7.05 39.494,27.96 3.232,39.026 -7.488,4.015 		"/>
	</g>
	<path fill="none" stroke="#5C5C5C" stroke-width="0.4351" stroke-linejoin="round" d="M31.403,26.901
		c0,1.953-1.582,3.527-3.532,3.527H4.136c-1.951,0-3.538-1.574-3.538-3.527V5.073c0-1.945,1.587-3.527,3.538-3.527h23.735
		c1.95,0,3.532,1.582,3.532,3.527V26.901z"/>
	<g>
		<defs>
			<path id="SVGID_820_" d="M4.23,2.558c-1.459,0-2.646,1.188-2.646,2.648v21.568c0,1.455,1.188,2.641,2.646,2.641h23.542
				c1.462,0,2.648-1.186,2.648-2.641V5.206c0-1.461-1.187-2.648-2.648-2.648H4.23z"/>
		</defs>
		<clipPath id="SVGID_8_">
			<use xlink:href="#SVGID_820_"  overflow="visible"/>
		</clipPath>
		
			<linearGradient id="SVGID_9_" gradientUnits="userSpaceOnUse" x1="-619.812" y1="-1229.1689" x2="-618.0728" y2="-1229.1689" gradientTransform="matrix(0 15.4443 15.4443 0 18999.6641 9575.1221)">
			<stop  offset="0" style="stop-color:#FFFFFF"/>
			<stop  offset="1" style="stop-color:#F3F3F3"/>
		</linearGradient>
		<rect x="1.584" y="2.558" clip-path="url(#SVGID_8_)" fill="url(#SVGID_9_)" width="28.837" height="26.857"/>
	</g>
	<path fill="none" stroke="#FAFAFA" stroke-width="0.4351" stroke-linejoin="round" d="M30.421,26.774
		c0,1.455-1.19,2.643-2.648,2.643H4.229c-1.457,0-2.647-1.188-2.647-2.643V5.206c0-1.463,1.19-2.646,2.647-2.646h23.544
		c1.458,0,2.648,1.184,2.648,2.646V26.774z"/>
</g>
<path d="M18.104,25.699c0.239,0,0.432,0.191,0.432,0.43c0,0.242-0.192,0.436-0.432,0.436H14.16c-0.423,0-0.546-0.238-0.546-0.408
	c0-0.129,0.046-0.221,0.217-0.457l2.81-3.758c0.344-0.445,0.596-0.949,0.596-1.439c0-0.742-0.562-1.268-1.292-1.268
	c-0.971,0-1.485,0.822-1.485,1.838c0,0.355-0.227,0.457-0.443,0.457c-0.32,0-0.49-0.193-0.49-0.617c0-1.348,0.91-2.547,2.59-2.547
	c1.347,0,2.194,0.971,2.194,2.021c0,0.471-0.034,0.994-0.562,1.68l-2.727,3.633H18.104z"/>
<path d="M12.246,7.494c0-1.02,0.592-1.932,1.734-1.932c1.146,0,1.736,0.912,1.736,1.932c0,1.016-0.59,1.928-1.736,1.928
	C12.838,9.422,12.246,8.51,12.246,7.494 M14.965,7.494c0-0.607-0.256-1.314-0.984-1.314c-0.734,0-0.982,0.707-0.982,1.314
	c0,0.604,0.248,1.312,0.982,1.312C14.709,8.807,14.965,8.098,14.965,7.494 M17.191,5.814c0.104-0.24,0.213-0.344,0.398-0.344
	c0.275,0,0.398,0.172,0.398,0.309c0,0.092-0.033,0.195-0.16,0.514l-3.035,7.287c-0.102,0.24-0.217,0.344-0.426,0.344
	c-0.252,0-0.373-0.158-0.373-0.309c0-0.092,0.031-0.207,0.158-0.516L17.191,5.814z M16.275,11.9c0-1.016,0.598-1.928,1.734-1.928
	c1.145,0,1.738,0.912,1.738,1.928c0,1.018-0.594,1.932-1.738,1.932C16.873,13.832,16.275,12.918,16.275,11.9 M18.994,11.9
	c0-0.604-0.252-1.312-0.984-1.312c-0.729,0-0.979,0.709-0.979,1.312c0,0.605,0.25,1.314,0.979,1.314
	C18.742,13.215,18.994,12.506,18.994,11.9"/>
<path d="M26.976,10.752c-0.036,0.135-0.076,0.271-0.076,0.392c0,0.163,0.076,0.279,0.269,0.279c0.61,0,1.262-0.907,1.262-1.895
	c0-1.485-1.256-2.334-2.622-2.334c-1.656,0-2.889,1.253-2.889,2.831c0,1.664,1.282,2.832,2.975,2.832
	c1.618,0,2.002-1.052,2.536-1.052c0.133,0,0.24,0.085,0.24,0.22c0,0.526-1.577,1.464-2.842,1.464c-2.02,0-3.635-1.513-3.635-3.464
	c0-1.943,1.638-3.463,3.614-3.463c1.81,0,3.349,1.158,3.349,2.85c0,1.857-1.521,2.66-2.371,2.66c-0.385,0-0.604-0.172-0.67-0.546
	h-0.022c-0.256,0.288-0.678,0.546-1.099,0.546c-0.822,0-1.445-0.679-1.445-1.502c0-1.214,0.871-2.479,2.167-2.479
	c0.466,0,0.87,0.203,1.116,0.719l0.125-0.383c0.067-0.21,0.182-0.276,0.383-0.276c0.152,0,0.306,0.057,0.306,0.211
	c0,0.065-0.022,0.142-0.076,0.342L26.976,10.752z M25.176,11.346c0.949,0,1.304-1.3,1.304-1.837c0-0.468-0.24-0.688-0.719-0.688
	c-0.916,0-1.368,0.945-1.368,1.664C24.393,10.991,24.748,11.346,25.176,11.346"/>
</svg>
