<?xml version="1.0" encoding="utf-8"?>
<!-- Generator: Adobe Illustrator 16.0.4, SVG Export Plug-In . SVG Version: 6.00 Build 0)  -->
<!DOCTYPE svg PUBLIC "-//W3C//DTD SVG 1.1//EN" "http://www.w3.org/Graphics/SVG/1.1/DTD/svg11.dtd">
<svg version="1.1" id="Layer_1" xmlns="http://www.w3.org/2000/svg" xmlns:xlink="http://www.w3.org/1999/xlink" x="0px" y="0px"
	 width="32px" height="32px" viewBox="0 0 32 32" enable-background="new 0 0 32 32" xml:space="preserve">
<g id="Layer_3" display="none">
</g>
<g id="Layer_1_1_">
	<path display="none" fill="#464142" d="M367.877-77.423c0.124-0.235,0.262-0.462,0.585-0.462c0.263,0,0.498,0.201,0.498,0.476
		c0,0.137-0.035,0.263-0.138,0.461l-0.697,1.372c-0.124,0.236-0.26,0.46-0.584,0.46c-0.264,0-0.5-0.197-0.5-0.471
		c0-0.139,0.037-0.263,0.139-0.464L367.877-77.423z"/>
	<g>
		<g>
			<g>
				<g>
					<g>
						<defs>
							<path id="SVGID_1_" d="M4.817,4.201c-2.331,0-4.22,1.889-4.22,4.223v15.16c0,2.322,1.889,4.215,4.22,4.215h22.365
								c2.332,0,4.221-1.893,4.221-4.215V8.424c0-2.334-1.889-4.223-4.221-4.223H4.817z"/>
						</defs>
						<clipPath id="SVGID_2_">
							<use xlink:href="#SVGID_1_"  overflow="visible"/>
						</clipPath>
						
							<linearGradient id="SVGID_3_" gradientUnits="userSpaceOnUse" x1="-936.7158" y1="-397.9824" x2="-934.509" y2="-397.9824" gradientTransform="matrix(4.3973 14.3829 14.3829 -4.3973 9854.2715 11722.6533)">
							<stop  offset="0" style="stop-color:#FFFFFF"/>
							<stop  offset="1" style="stop-color:#D0D0D0"/>
						</linearGradient>
						<polygon clip-path="url(#SVGID_2_)" fill="url(#SVGID_3_)" points="27.452,-6.129 38,25.781 3.819,38.129 -6,6.221 						"/>
					</g>
				</g>
			</g>
			<path fill="none" stroke="#5C5C5C" stroke-width="0.5198" stroke-linejoin="round" d="M31.402,23.582
				c0,2.324-1.891,4.217-4.217,4.217H4.815c-2.331,0-4.218-1.893-4.218-4.217V8.424c0-2.336,1.887-4.217,4.218-4.217h22.371
				c2.326,0,4.217,1.881,4.217,4.217V23.582L31.402,23.582z"/>
			<g>
				<g>
					<g>
						<defs>
							<path id="SVGID_4_" d="M4.926,5.416c-1.742,0-3.157,1.418-3.157,3.164v14.84c0,1.742,1.415,3.164,3.157,3.164h22.141
								c1.744,0,3.16-1.422,3.16-3.164V8.58c0-1.746-1.416-3.164-3.16-3.164H4.926z"/>
						</defs>
						<clipPath id="SVGID_5_">
							<use xlink:href="#SVGID_4_"  overflow="visible"/>
						</clipPath>
						
							<linearGradient id="SVGID_6_" gradientUnits="userSpaceOnUse" x1="-901.9922" y1="-344.3623" x2="-899.9136" y2="-344.3623" gradientTransform="matrix(0 10.1826 10.1826 0 3522.4937 9190.0391)">
							<stop  offset="0" style="stop-color:#FFFFFF"/>
							<stop  offset="1" style="stop-color:#F3F3F3"/>
						</linearGradient>
						<rect x="1.769" y="5.416" clip-path="url(#SVGID_5_)" fill="url(#SVGID_6_)" width="28.458" height="21.168"/>
					</g>
				</g>
			</g>
			<path fill="none" stroke="#FAFAFA" stroke-width="0.5198" stroke-linejoin="round" d="M30.227,23.424
				c0,1.742-1.416,3.16-3.162,3.16H4.929c-1.742,0-3.162-1.418-3.162-3.16V8.58c0-1.746,1.42-3.166,3.162-3.166h22.135
				c1.746,0,3.162,1.42,3.162,3.166V23.424L30.227,23.424z"/>
		</g>
		<g>
			<path d="M9.238,16.364h3.674c0.411,0,0.521-0.181,0.521-0.519c0-1.468-0.927-2.937-2.495-2.937c-1.633,0-2.62,1.442-2.62,3.078
				c0,1.625,0.814,3.104,2.67,3.104c1.148,0,2.328-0.753,2.328-1.212c0-0.271-0.167-0.413-0.376-0.413
				c-0.19,0-0.45,0.314-0.612,0.413c-0.288,0.199-0.693,0.402-1.34,0.402C9.929,18.281,9.279,17.494,9.238,16.364 M12.512,15.662
				H9.243c0.061-1.039,0.513-1.946,1.681-1.946C11.96,13.716,12.466,14.673,12.512,15.662"/>
			<path d="M18.557,17.236c0-0.54-0.302-0.906-0.72-1.199c-0.433-0.272-0.922-0.425-1.392-0.626
				c-0.373-0.158-1.012-0.417-1.012-0.884c0-0.558,0.492-0.81,1.049-0.81c0.478,0,0.755,0.176,0.978,0.334
				c0.154,0.107,0.333,0.289,0.525,0.289c0.28,0,0.428-0.165,0.428-0.383c0-0.595-1.132-1.047-1.931-1.047
				c-0.982,0-1.975,0.583-1.975,1.682c0,0.529,0.314,0.894,0.728,1.172c0.527,0.342,1.141,0.524,1.691,0.818
				c0.311,0.165,0.71,0.408,0.71,0.84c0,0.425-0.444,0.863-1.155,0.863c-0.544,0-0.9-0.207-1.192-0.404
				c-0.186-0.098-0.443-0.338-0.668-0.338c-0.186,0-0.355,0.158-0.355,0.418c0,0.497,0.95,1.131,2.178,1.131
				C17.541,19.092,18.557,18.485,18.557,17.236"/>
			<path d="M23.682,13.647c0-0.376-0.558-0.738-1.559-0.738c-1.755,0-2.612,1.489-2.612,3.078c0,1.625,0.857,3.104,2.612,3.104
				c1.008,0,1.528-0.405,1.528-0.781c0-0.244-0.148-0.368-0.354-0.368c-0.101,0-0.196,0.033-0.426,0.158
				c-0.169,0.075-0.39,0.181-0.735,0.181c-1.221,0-1.698-1.255-1.698-2.294c0-1.036,0.478-2.271,1.686-2.271
				c0.341,0,0.541,0.093,0.699,0.172c0.247,0.102,0.348,0.15,0.488,0.15C23.527,14.04,23.682,13.853,23.682,13.647"/>
		</g>
	</g>
</g>
</svg>
