<?xml version="1.0" encoding="utf-8"?>
<!-- Generator: Adobe Illustrator 16.0.4, SVG Export Plug-In . SVG Version: 6.00 Build 0)  -->
<!DOCTYPE svg PUBLIC "-//W3C//DTD SVG 1.1//EN" "http://www.w3.org/Graphics/SVG/1.1/DTD/svg11.dtd">
<svg version="1.1" id="Layer_1" xmlns="http://www.w3.org/2000/svg" xmlns:xlink="http://www.w3.org/1999/xlink" x="0px" y="0px"
	 width="64px" height="32px" viewBox="0 0 64 32" enable-background="new 0 0 64 32" xml:space="preserve">
<g>
	<g>
		<g>
			<g>
				<defs>
					<path id="SVGID_1_" d="M4.135,1.559c-1.953,0-3.533,1.582-3.533,3.527v21.828c0,1.951,1.58,3.527,3.533,3.527h55.734
						c1.951,0,3.531-1.576,3.531-3.527V5.086c0-1.945-1.58-3.527-3.531-3.527H4.135z"/>
				</defs>
				<clipPath id="SVGID_2_">
					<use xlink:href="#SVGID_1_"  overflow="visible"/>
				</clipPath>
				
					<linearGradient id="SVGID_3_" gradientUnits="userSpaceOnUse" x1="-902.2812" y1="511.541" x2="-899.9182" y2="511.541" gradientTransform="matrix(5.8606 19.1691 19.1691 -5.8606 -4492.6602 20287.6875)">
					<stop  offset="0" style="stop-color:#FFFFFF"/>
					<stop  offset="1" style="stop-color:#D0D0D0"/>
				</linearGradient>
				<polygon clip-path="url(#SVGID_2_)" fill="url(#SVGID_3_)" points="60.771,-7.037 71.667,30.441 3.232,39.039 -7.333,2.573 				
					"/>
			</g>
		</g>
	</g>
	<path fill="none" stroke="#5C5C5C" stroke-width="0.4351" stroke-linejoin="round" d="M63.402,26.914
		c0,1.953-1.582,3.527-3.531,3.527H4.135c-1.951,0-3.537-1.574-3.537-3.527V5.086c0-1.945,1.586-3.527,3.537-3.527h55.736
		c1.949,0,3.531,1.582,3.531,3.527V26.914z"/>
	<g>
		<g>
			<g>
				<defs>
					<path id="SVGID_4_" d="M4.23,2.57c-1.459,0-2.646,1.188-2.646,2.648v21.568c0,1.455,1.188,2.641,2.646,2.641h55.542
						c1.463,0,2.646-1.186,2.646-2.641V5.219c0-1.461-1.188-2.648-2.646-2.648L4.23,2.57L4.23,2.57z"/>
				</defs>
				<clipPath id="SVGID_5_">
					<use xlink:href="#SVGID_4_"  overflow="visible"/>
				</clipPath>
				
					<linearGradient id="SVGID_6_" gradientUnits="userSpaceOnUse" x1="-903.168" y1="535.7402" x2="-901.4287" y2="535.7402" gradientTransform="matrix(0 15.4443 15.4443 0 -8242.1289 13951.3652)">
					<stop  offset="0" style="stop-color:#FFFFFF"/>
					<stop  offset="1" style="stop-color:#F3F3F3"/>
				</linearGradient>
				<rect x="1.584" y="2.57" clip-path="url(#SVGID_5_)" fill="url(#SVGID_6_)" width="60.836" height="26.857"/>
			</g>
		</g>
	</g>
	<path fill="none" stroke="#FAFAFA" stroke-width="0.4351" stroke-linejoin="round" d="M62.42,26.787
		c0,1.455-1.189,2.643-2.648,2.643H4.229c-1.457,0-2.647-1.188-2.647-2.643V5.219c0-1.463,1.19-2.646,2.647-2.646h55.542
		c1.459,0,2.648,1.184,2.648,2.646V26.787z"/>
</g>
<g enable-background="new    ">
	<path d="M20.218,12.922c0.833,0,2.021,0.445,2.021,1.073c0,0.217-0.148,0.411-0.457,0.411c-0.434,0-0.604-0.617-1.563-0.617
		c-0.571,0-1.062,0.252-1.062,0.765c0,1.062,3.242,0.948,3.242,2.705c0,1.269-1.085,1.872-2.215,1.872
		c-1.278,0-2.283-0.639-2.283-1.152c0-0.273,0.194-0.457,0.411-0.457c0.445,0,0.811,0.742,1.906,0.742
		c0.73,0,1.176-0.41,1.176-0.822c0-1.187-3.241-1.117-3.241-2.808C18.152,13.516,19.202,12.922,20.218,12.922z"/>
	<path d="M23.399,13.458c0-0.331,0.194-0.536,0.503-0.536c0.308,0,0.502,0.205,0.502,0.536v0.297h0.022
		c0.285-0.548,0.821-0.833,1.62-0.833c1.645,0,2.592,1.495,2.592,3.104s-0.947,3.104-2.592,3.104c-0.799,0-1.357-0.444-1.62-0.821
		h-0.022v2.683c0,0.331-0.194,0.536-0.502,0.536c-0.309,0-0.503-0.205-0.503-0.536V13.458z M25.968,18.264
		c1.232,0,1.666-1.209,1.666-2.237c0-1.027-0.434-2.237-1.666-2.237c-1.233,0-1.667,1.21-1.667,2.237
		C24.301,17.055,24.734,18.264,25.968,18.264z"/>
	<path d="M34.719,18.641c0,0.354-0.273,0.49-0.469,0.49c-0.205,0-0.467-0.137-0.467-0.49v-0.423H33.76
		c-0.434,0.616-1.004,0.913-1.654,0.913c-1.713,0-2.672-1.495-2.672-3.104s0.959-3.104,2.672-3.104c0.695,0,1.187,0.297,1.654,0.811
		h0.023v-0.319c0-0.354,0.262-0.491,0.467-0.491c0.195,0,0.469,0.137,0.469,0.491V18.641z M32.105,18.264
		c1.232,0,1.667-1.209,1.667-2.237c0-1.027-0.435-2.237-1.667-2.237c-1.233,0-1.667,1.21-1.667,2.237
		C30.438,17.055,30.872,18.264,32.105,18.264z"/>
	<path d="M38.516,12.922c1.027,0,1.633,0.354,1.633,0.765c0,0.206-0.172,0.423-0.41,0.423c-0.389,0-0.536-0.32-1.223-0.32
		c-1.244,0-1.733,1.21-1.733,2.237c0,1.028,0.489,2.237,1.733,2.237c0.709,0,0.892-0.343,1.211-0.343
		c0.229,0,0.389,0.147,0.389,0.423c0,0.376-0.561,0.787-1.6,0.787c-1.849,0-2.738-1.495-2.738-3.104S36.667,12.922,38.516,12.922z"
		/>
	<path d="M41.744,16.414c0,1.039,0.66,1.85,1.791,1.85c1.336,0,1.678-0.822,2.055-0.822c0.184,0,0.365,0.16,0.365,0.445
		c0,0.491-1.244,1.244-2.432,1.244c-1.939,0-2.784-1.495-2.784-3.104c0-1.644,1.026-3.104,2.728-3.104
		c1.655,0,2.613,1.495,2.613,2.956c0,0.354-0.125,0.536-0.559,0.536L41.744,16.414L41.744,16.414z M45.076,15.661
		c0-0.867-0.502-1.872-1.609-1.872c-1.244-0.045-1.689,0.947-1.723,1.872H45.076z"/>
</g>
</svg>
