<?xml version="1.0" encoding="utf-8"?>
<!-- Generator: Adobe Illustrator 16.0.0, SVG Export Plug-In . SVG Version: 6.00 Build 0)  -->
<!DOCTYPE svg PUBLIC "-//W3C//DTD SVG 1.1//EN" "http://www.w3.org/Graphics/SVG/1.1/DTD/svg11.dtd">
<svg version="1.1" id="Layer_1" xmlns="http://www.w3.org/2000/svg" xmlns:xlink="http://www.w3.org/1999/xlink" x="0px" y="0px"
	 width="32px" height="32px" viewBox="0 0 32 32" enable-background="new 0 0 32 32" xml:space="preserve">
<g id="Layer_3" display="none">
</g>
<g id="Layer_2">
</g>
<g id="Layer_1_1_">
</g>
<g id="Language_specific">
	<g>
		<g>
			<g>
				<g>
					<defs>
						<path id="SVGID_1_" d="M4.135,1.559c-1.953,0-3.533,1.582-3.533,3.527v21.828c0,1.951,1.58,3.527,3.533,3.527h23.734
							c1.951,0,3.531-1.576,3.531-3.527V5.086c0-1.945-1.58-3.527-3.531-3.527H4.135z"/>
					</defs>
					<clipPath id="SVGID_2_">
						<use xlink:href="#SVGID_1_"  overflow="visible"/>
					</clipPath>
					
						<linearGradient id="SVGID_3_" gradientUnits="userSpaceOnUse" x1="-1119.3472" y1="723.0625" x2="-1117.6075" y2="723.0625" gradientTransform="matrix(5.8606 19.1691 -19.1691 5.8606 20431.3887 17218.5879)">
						<stop  offset="0" style="stop-color:#FFFFFF"/>
						<stop  offset="1" style="stop-color:#D0D0D0"/>
					</linearGradient>
					<polygon clip-path="url(#SVGID_2_)" fill="url(#SVGID_3_)" points="28.771,-7.037 39.494,27.973 3.232,39.039 -7.488,4.027 
											"/>
				</g>
			</g>
			<path fill="none" stroke="#5C5C5C" stroke-width="0.4351" stroke-linejoin="round" d="M31.402,26.914
				c0,1.953-1.582,3.527-3.531,3.527H4.135c-1.951,0-3.537-1.574-3.537-3.527V5.086c0-1.945,1.586-3.527,3.537-3.527h23.736
				c1.949,0,3.531,1.582,3.531,3.527V26.914z"/>
			<g>
				<g>
					<defs>
						<path id="SVGID_4_" d="M4.23,2.57c-1.459,0-2.646,1.188-2.646,2.648v21.568c0,1.455,1.188,2.641,2.646,2.641h23.542
							c1.463,0,2.647-1.186,2.647-2.641V5.219c0-1.461-1.187-2.648-2.647-2.648L4.23,2.57L4.23,2.57z"/>
					</defs>
					<clipPath id="SVGID_5_">
						<use xlink:href="#SVGID_4_"  overflow="visible"/>
					</clipPath>
					
						<linearGradient id="SVGID_6_" gradientUnits="userSpaceOnUse" x1="-1117.4883" y1="682.8633" x2="-1115.749" y2="682.8633" gradientTransform="matrix(0 15.4443 -15.4443 0 10562.3496 17261.3906)">
						<stop  offset="0" style="stop-color:#FFFFFF"/>
						<stop  offset="1" style="stop-color:#F3F3F3"/>
					</linearGradient>
					<rect x="1.584" y="2.57" clip-path="url(#SVGID_5_)" fill="url(#SVGID_6_)" width="28.836" height="26.857"/>
				</g>
			</g>
			<path fill="none" stroke="#FAFAFA" stroke-width="0.4351" stroke-linejoin="round" d="M30.42,26.787
				c0,1.455-1.189,2.643-2.648,2.643H4.229c-1.457,0-2.648-1.188-2.648-2.643V5.219c0-1.463,1.191-2.646,2.648-2.646h23.542
				c1.459,0,2.648,1.184,2.648,2.646V26.787z"/>
		</g>
		<g enable-background="new    ">
			<path d="M16.197,17.812c0.101-0.27,0.236-0.506,0.495-0.506c0.27,0,0.393,0.157,0.393,0.326c0,0.168-0.078,0.348-0.157,0.595
				c-0.292,0.921-0.46,2.101-0.46,3.773s0.168,2.853,0.46,3.773c0.079,0.247,0.157,0.427,0.157,0.595
				c0,0.169-0.123,0.326-0.393,0.326c-0.259,0-0.394-0.236-0.495-0.506c-0.416-1.1-0.651-2.661-0.651-4.188
				S15.781,18.911,16.197,17.812z"/>
		</g>
		<g enable-background="new    ">
			<path d="M15.309,8.279c0.326-0.169,0.685-0.225,1.056-0.225c1.247,0,2.043,1.179,2.043,2.426c0,1.718-0.977,2.841-2.594,2.841
				c-1.325,0-2.246-0.843-2.246-1.325c0-0.202,0.112-0.427,0.359-0.427c0.404,0,0.764,0.831,1.898,0.831
				c0.955,0,1.528-0.797,1.528-1.729c0-0.943-0.416-1.696-1.382-1.696c-0.73,0-1.078,0.304-1.359,0.304
				c-0.236,0-0.337-0.146-0.337-0.304c0-0.123,0.045-0.415,0.079-0.662l0.416-2.797c0.034-0.201,0.135-0.258,0.371-0.258h2.773
				c0.236,0,0.428,0.191,0.428,0.427s-0.191,0.427-0.428,0.427h-2.279L15.309,8.279z"/>
		</g>
	</g>
</g>
<g id="Layer_5">
</g>
</svg>
