<?xml version="1.0" encoding="utf-8"?>
<!-- Generator: Adobe Illustrator 18.1.1, SVG Export Plug-In . SVG Version: 6.00 Build 0)  -->
<svg version="1.1" id="Layer_1" xmlns="http://www.w3.org/2000/svg" xmlns:xlink="http://www.w3.org/1999/xlink" x="0px" y="0px"
	 viewBox="0 0 32 32" enable-background="new 0 0 32 32" xml:space="preserve">
<g id="Layer_3" display="none">
</g>
<g id="Layer_2">
</g>
<g id="Language_specific">
	<g>
		<g>
			<g>
				<g>
					<defs>
						<path id="SVGID_1_" d="M4.8,4.2c-2.3,0-4.2,1.9-4.2,4.2v15.2c0,2.3,1.9,4.2,4.2,4.2h22.4c2.3,0,4.2-1.9,4.2-4.2V8.4
							c0-2.3-1.9-4.2-4.2-4.2C27.2,4.2,4.8,4.2,4.8,4.2z"/>
					</defs>
					<clipPath id="SVGID_2_">
						<use xlink:href="#SVGID_1_"  overflow="visible"/>
					</clipPath>
					
						<linearGradient id="SVGID_3_" gradientUnits="userSpaceOnUse" x1="-96.4385" y1="704.3779" x2="-94.2326" y2="704.3779" gradientTransform="matrix(4.3973 14.3829 -14.3829 4.3973 10566.1846 -1710.2634)">
						<stop  offset="0" style="stop-color:#FFFFFF"/>
						<stop  offset="1" style="stop-color:#D0D0D0"/>
					</linearGradient>
					<polygon clip-path="url(#SVGID_2_)" fill="url(#SVGID_3_)" points="27.5,-6.1 38,25.8 3.8,38.1 -6,6.2 					"/>
				</g>
			</g>
			<path fill="none" stroke="#5C5C5C" stroke-width="0.5198" stroke-linejoin="round" d="M31.4,23.6c0,2.3-1.9,4.2-4.2,4.2H4.8
				c-2.3,0-4.2-1.9-4.2-4.2V8.4c0-2.3,1.9-4.2,4.2-4.2h22.4c2.3,0,4.2,1.9,4.2,4.2V23.6z"/>
			<g>
				<g>
					<defs>
						<path id="SVGID_4_" d="M4.9,5.4c-1.7,0-3.2,1.4-3.2,3.2v14.8c0,1.7,1.4,3.2,3.2,3.2h22.1c1.7,0,3.2-1.4,3.2-3.2V8.6
							c0-1.7-1.4-3.2-3.2-3.2H4.9z"/>
					</defs>
					<clipPath id="SVGID_5_">
						<use xlink:href="#SVGID_4_"  overflow="visible"/>
					</clipPath>
					
						<linearGradient id="SVGID_6_" gradientUnits="userSpaceOnUse" x1="-68.2559" y1="684.7482" x2="-66.177" y2="684.7482" gradientTransform="matrix(0 10.1826 -10.1826 0 6988.5151 700.4384)">
						<stop  offset="0" style="stop-color:#FFFFFF"/>
						<stop  offset="1" style="stop-color:#F3F3F3"/>
					</linearGradient>
					<rect x="1.8" y="5.4" clip-path="url(#SVGID_5_)" fill="url(#SVGID_6_)" width="28.5" height="21.2"/>
				</g>
			</g>
			<path fill="none" stroke="#FAFAFA" stroke-width="0.5198" stroke-linejoin="round" d="M30.2,23.4c0,1.7-1.4,3.2-3.2,3.2H4.9
				c-1.7,0-3.2-1.4-3.2-3.2V8.6c0-1.7,1.4-3.2,3.2-3.2h22.1c1.7,0,3.2,1.4,3.2,3.2C30.2,8.6,30.2,23.4,30.2,23.4z"/>
		</g>
		<g>
			<path d="M5.6,18.8c1,0,1.7,0.4,1.7,0.8c0,0.2-0.2,0.4-0.4,0.4c-0.4,0-0.5-0.3-1.2-0.3c-1.3,0-1.8,1.2-1.8,2.3
				c0,1,0.5,2.3,1.8,2.3c0.7,0,0.9-0.3,1.2-0.3c0.2,0,0.4,0.2,0.4,0.4c0,0.4-0.6,0.8-1.6,0.8c-1.9,0-2.8-1.5-2.8-3.1
				C2.9,20.3,3.8,18.8,5.6,18.8"/>
			<path d="M8.6,17.6c0-0.3,0.2-0.5,0.5-0.5c0.3,0,0.5,0.2,0.5,0.5v1.3H10c0.3,0,0.5,0.2,0.5,0.4c0,0.3-0.2,0.4-0.5,0.4H9.6v4.8
				c0,0.3-0.2,0.5-0.5,0.5c-0.3,0-0.5-0.2-0.5-0.5v-4.8H8.2c-0.3,0-0.5-0.2-0.5-0.4c0-0.3,0.2-0.4,0.5-0.4h0.4V17.6z"/>
			<path d="M11.3,19.4c0-0.3,0.2-0.5,0.5-0.5c0.3,0,0.5,0.2,0.5,0.5v0.5h0c0.2-0.5,0.8-1.1,1.4-1.1c0.4,0,0.6,0.2,0.6,0.5
				c0,0.3-0.2,0.5-0.6,0.6c-0.6,0.1-1.3,0.6-1.3,1.8v2.9c0,0.3-0.2,0.5-0.5,0.5c-0.3,0-0.5-0.2-0.5-0.5L11.3,19.4L11.3,19.4z"/>
			<path d="M15.9,24.6c0,0.3-0.2,0.5-0.5,0.5c-0.3,0-0.5-0.2-0.5-0.5v-7.9c0-0.3,0.2-0.5,0.5-0.5c0.3,0,0.5,0.2,0.5,0.5V24.6z"/>
		</g>
	</g>
</g>
<g id="Layer_5">
</g>
</svg>
