<?xml version="1.0" encoding="utf-8"?>
<!-- Generator: Adobe Illustrator 16.0.4, SVG Export Plug-In . SVG Version: 6.00 Build 0)  -->
<!DOCTYPE svg PUBLIC "-//W3C//DTD SVG 1.1//EN" "http://www.w3.org/Graphics/SVG/1.1/DTD/svg11.dtd">
<svg version="1.1" xmlns="http://www.w3.org/2000/svg" xmlns:xlink="http://www.w3.org/1999/xlink" x="0px" y="0px" width="32px"
	 height="32px" viewBox="0 0 32 32" enable-background="new 0 0 32 32" xml:space="preserve">
<g id="Layer_3" display="none">
</g>
<g id="Layer_2">
	<g display="none">
		<g display="inline">
			<defs>
				<path id="SVGID_877_" d="M-7.183-27.799c-2.331,0-4.22,1.889-4.22,4.223v15.16c0,2.322,1.889,4.215,4.22,4.215h22.365
					c2.331,0,4.221-1.893,4.221-4.215v-15.16c0-2.334-1.89-4.223-4.221-4.223H-7.183z"/>
			</defs>
			<clipPath id="SVGID_2_">
				<use xlink:href="#SVGID_877_"  overflow="visible"/>
			</clipPath>
			
				<linearGradient id="SVGID_3_" gradientUnits="userSpaceOnUse" x1="-345.8076" y1="-656.4961" x2="-343.6018" y2="-656.4961" gradientTransform="matrix(4.3973 14.3829 14.3829 -4.3973 10962.0508 2054.9409)">
				<stop  offset="0" style="stop-color:#FFFFFF"/>
				<stop  offset="1" style="stop-color:#D0CFD0"/>
			</linearGradient>
			<polygon clip-path="url(#SVGID_2_)" fill="url(#SVGID_3_)" points="15.452,-38.129 26,-6.219 -8.181,6.129 -18,-25.779 			"/>
		</g>
	</g>
	<g display="none">
		<g display="inline">
			<defs>
				<path id="SVGID_883_" d="M24.817-27.799c-2.331,0-4.22,1.889-4.22,4.223v15.16c0,2.322,1.889,4.215,4.22,4.215h22.365
					c2.331,0,4.221-1.893,4.221-4.215v-15.16c0-2.334-1.89-4.223-4.221-4.223H24.817z"/>
			</defs>
			<clipPath id="SVGID_5_">
				<use xlink:href="#SVGID_883_"  overflow="visible"/>
			</clipPath>
			
				<linearGradient id="SVGID_6_" gradientUnits="userSpaceOnUse" x1="-345.1855" y1="-654.4609" x2="-342.9797" y2="-654.4609" gradientTransform="matrix(4.3973 14.3829 14.3829 -4.3973 10962.0508 2054.9409)">
				<stop  offset="0" style="stop-color:#FFFFFF"/>
				<stop  offset="1" style="stop-color:#D0CFD0"/>
			</linearGradient>
			<polygon clip-path="url(#SVGID_5_)" fill="url(#SVGID_6_)" points="47.452,-38.129 58,-6.219 23.819,6.129 14,-25.779 			"/>
		</g>
	</g>
</g>
<g id="Layer_1">
	<g>
		<g>
			<g>
				<defs>
					<path id="SVGID_5443_" d="M40.817,4.201c-2.331,0-4.22,1.889-4.22,4.223v15.16c0,2.322,1.889,4.215,4.22,4.215h22.365
						c2.331,0,4.221-1.893,4.221-4.215V8.424c0-2.334-1.89-4.223-4.221-4.223H40.817z"/>
				</defs>
				<clipPath id="SVGID_8_">
					<use xlink:href="#SVGID_5443_"  overflow="visible"/>
				</clipPath>
				
					<linearGradient id="SVGID_9_" gradientUnits="userSpaceOnUse" x1="-342.8398" y1="-654.0664" x2="-340.634" y2="-654.0664" gradientTransform="matrix(4.3973 14.3829 14.3829 -4.3973 10962.0508 2054.9409)">
					<stop  offset="0" style="stop-color:#FFFFFF"/>
					<stop  offset="1" style="stop-color:#D0D0D0"/>
				</linearGradient>
				<polygon clip-path="url(#SVGID_8_)" fill="url(#SVGID_9_)" points="63.452,-6.129 74,25.781 39.819,38.129 30,6.221 				"/>
			</g>
		</g>
	</g>
	<g>
		<g>
			<g>
				<defs>
					<path id="SVGID_5485_" d="M-31.183,4.201c-2.331,0-4.22,1.889-4.22,4.223v15.16c0,2.322,1.889,4.215,4.22,4.215h22.365
						c2.331,0,4.221-1.893,4.221-4.215V8.424c0-2.334-1.89-4.223-4.221-4.223H-31.183z"/>
				</defs>
				<clipPath id="SVGID_11_">
					<use xlink:href="#SVGID_5485_"  overflow="visible"/>
				</clipPath>
				
					<linearGradient id="SVGID_12_" gradientUnits="userSpaceOnUse" x1="-344.2397" y1="-658.6445" x2="-342.0334" y2="-658.6445" gradientTransform="matrix(4.3973 14.3829 14.3829 -4.3973 10962.0508 2054.9409)">
					<stop  offset="0" style="stop-color:#FFFFFF"/>
					<stop  offset="1" style="stop-color:#D0D0D0"/>
				</linearGradient>
				<polygon clip-path="url(#SVGID_11_)" fill="url(#SVGID_12_)" points="-8.548,-6.129 2,25.781 -32.181,38.129 -42,6.221 				"/>
			</g>
		</g>
	</g>
	<g>
		<g>
			<g>
				<defs>
					<path id="SVGID_5491_" d="M4.817,4.201c-2.331,0-4.22,1.889-4.22,4.223v15.16c0,2.322,1.889,4.215,4.22,4.215h22.365
						c2.331,0,4.221-1.893,4.221-4.215V8.424c0-2.334-1.89-4.223-4.221-4.223H4.817z"/>
				</defs>
				<clipPath id="SVGID_14_">
					<use xlink:href="#SVGID_5491_"  overflow="visible"/>
				</clipPath>
				
					<linearGradient id="SVGID_15_" gradientUnits="userSpaceOnUse" x1="-343.54" y1="-656.3555" x2="-341.3337" y2="-656.3555" gradientTransform="matrix(4.3973 14.3829 14.3829 -4.3973 10962.0508 2054.9409)">
					<stop  offset="0" style="stop-color:#FFFFFF"/>
					<stop  offset="1" style="stop-color:#D0D0D0"/>
				</linearGradient>
				<polygon clip-path="url(#SVGID_14_)" fill="url(#SVGID_15_)" points="27.452,-6.129 38,25.781 3.819,38.129 -6,6.221 				"/>
			</g>
			<path fill="none" stroke="#5C5C5C" stroke-width="0.5198" stroke-linejoin="round" d="M31.403,23.582
				c0,2.324-1.892,4.217-4.217,4.217H4.815c-2.331,0-4.218-1.893-4.218-4.217V8.424c0-2.336,1.887-4.217,4.218-4.217h22.371
				c2.325,0,4.217,1.881,4.217,4.217V23.582z"/>
			<g>
				<defs>
					<path id="SVGID_5494_" d="M4.927,5.416c-1.742,0-3.157,1.418-3.157,3.164v14.84c0,1.742,1.415,3.164,3.157,3.164h22.14
						c1.745,0,3.161-1.422,3.161-3.164V8.58c0-1.746-1.416-3.164-3.161-3.164H4.927z"/>
				</defs>
				<clipPath id="SVGID_17_">
					<use xlink:href="#SVGID_5494_"  overflow="visible"/>
				</clipPath>
				
					<linearGradient id="SVGID_18_" gradientUnits="userSpaceOnUse" x1="-320.2559" y1="-628" x2="-318.1772" y2="-628" gradientTransform="matrix(0 10.1826 10.1826 0 6410.6719 3266.4536)">
					<stop  offset="0" style="stop-color:#FFFFFF"/>
					<stop  offset="1" style="stop-color:#F3F3F3"/>
				</linearGradient>
				<rect x="1.77" y="5.416" clip-path="url(#SVGID_17_)" fill="url(#SVGID_18_)" width="28.458" height="21.168"/>
			</g>
			<path fill="none" stroke="#FAFAFA" stroke-width="0.5198" stroke-linejoin="round" d="M30.227,23.424
				c0,1.742-1.415,3.16-3.162,3.16H4.93c-1.742,0-3.162-1.418-3.162-3.16V8.58c0-1.746,1.42-3.166,3.162-3.166h22.135
				c1.747,0,3.162,1.42,3.162,3.166V23.424z"/>
		</g>
		<g>
			<path d="M7.763,20.678c0,0.428-0.256,0.691-0.656,0.691c-0.396,0-0.648-0.264-0.648-0.691v-9.254
				c0-0.391,0.203-0.701,0.691-0.701h3.709c0.375,0,0.643,0.197,0.643,0.604c0,0.424-0.268,0.607-0.643,0.607H7.763v3.459h2.744
				c0.371,0,0.637,0.193,0.637,0.605c0,0.416-0.266,0.613-0.637,0.613H7.763V20.678z"/>
			<path d="M14.815,11.848h-1.363c-0.316,0-0.566-0.25-0.566-0.561c0-0.32,0.25-0.564,0.566-0.564h2.273
				c0.25,0,0.393,0.027,0.393,0.352v9.6c0,0.434-0.248,0.701-0.654,0.701c-0.396,0-0.648-0.268-0.648-0.701V11.848z"/>
			<path d="M25.542,14.27c0,3.082-2.078,5.453-3.68,6.805c-0.262,0.223-0.43,0.301-0.607,0.301c-0.213,0-0.543-0.213-0.543-0.611
				c0-0.207,0.156-0.369,0.52-0.695c0.854-0.756,1.48-1.471,2.281-2.934h-0.031c-0.492,0.254-0.967,0.408-1.676,0.408
				c-1.727,0-2.674-1.631-2.674-3.467c0-1.92,1.367-3.451,3.234-3.451C24.208,10.625,25.542,12.156,25.542,14.27 M22.388,11.848
				c-1.299,0-1.863,1.053-1.863,2.287c0,1.393,0.564,2.285,1.863,2.285c1.281,0,1.848-1.074,1.848-2.285
				C24.235,12.9,23.669,11.848,22.388,11.848"/>
		</g>
	</g>
</g>
<g id="Language_specific">
</g>
<g id="Layer_5">
</g>
</svg>
