<?xml version="1.0" encoding="utf-8"?>
<!-- Generator: Adobe Illustrator 16.0.4, SVG Export Plug-In . SVG Version: 6.00 Build 0)  -->
<!DOCTYPE svg PUBLIC "-//W3C//DTD SVG 1.1//EN" "http://www.w3.org/Graphics/SVG/1.1/DTD/svg11.dtd">
<svg version="1.1" id="Reference" xmlns="http://www.w3.org/2000/svg" xmlns:xlink="http://www.w3.org/1999/xlink" x="0px" y="0px"
	 width="32px" height="32px" viewBox="0 0 32 32" enable-background="new 0 0 32 32" xml:space="preserve">
<g>
	<g>
		<g>
			<defs>
				<path id="SVGID_871_" d="M-27.865,1.57c-1.952,0-3.533,1.582-3.533,3.527v21.828c0,1.951,1.581,3.527,3.533,3.527h23.734
					c1.952,0,3.532-1.576,3.532-3.527V5.098c0-1.945-1.58-3.527-3.532-3.527H-27.865z"/>
			</defs>
			<clipPath id="SVGID_2_">
				<use xlink:href="#SVGID_871_"  overflow="visible"/>
			</clipPath>
			
				<linearGradient id="SVGID_3_" gradientUnits="userSpaceOnUse" x1="-312.7329" y1="-1439.6719" x2="-310.9923" y2="-1439.6719" gradientTransform="matrix(5.8606 19.1691 19.1691 -5.8606 29408.8867 -2443.2427)">
				<stop  offset="0" style="stop-color:#FFFFFF"/>
				<stop  offset="1" style="stop-color:#D0D0D0"/>
			</linearGradient>
			<polygon clip-path="url(#SVGID_2_)" fill="url(#SVGID_3_)" points="-3.229,-7.025 7.494,27.984 -28.768,39.051 -39.488,4.039 			
				"/>
		</g>
	</g>
</g>
<g>
	<g>
		<g>
			<defs>
				<path id="SVGID_889_" d="M4.135,1.57c-1.952,0-3.533,1.582-3.533,3.527v21.828c0,1.951,1.581,3.527,3.533,3.527h23.734
					c1.952,0,3.532-1.576,3.532-3.527V5.098c0-1.945-1.58-3.527-3.532-3.527H4.135z"/>
			</defs>
			<clipPath id="SVGID_5_">
				<use xlink:href="#SVGID_889_"  overflow="visible"/>
			</clipPath>
			
				<linearGradient id="SVGID_6_" gradientUnits="userSpaceOnUse" x1="-312.2661" y1="-1438.1445" x2="-310.5255" y2="-1438.1445" gradientTransform="matrix(5.8606 19.1691 19.1691 -5.8606 29408.8867 -2443.2427)">
				<stop  offset="0" style="stop-color:#FFFFFF"/>
				<stop  offset="1" style="stop-color:#D0D0D0"/>
			</linearGradient>
			<polygon clip-path="url(#SVGID_5_)" fill="url(#SVGID_6_)" points="28.771,-7.025 39.494,27.984 3.232,39.051 -7.488,4.039 			
				"/>
		</g>
		<path fill="none" stroke="#5C5C5C" stroke-width="0.4351" stroke-linejoin="round" d="M31.403,26.926
			c0,1.953-1.582,3.527-3.532,3.527H4.136c-1.951,0-3.538-1.574-3.538-3.527V5.098c0-1.945,1.587-3.527,3.538-3.527h23.735
			c1.95,0,3.532,1.582,3.532,3.527V26.926z"/>
		<g>
			<defs>
				<path id="SVGID_892_" d="M4.23,2.582c-1.459,0-2.646,1.188-2.646,2.648v21.568c0,1.455,1.188,2.641,2.646,2.641h23.542
					c1.462,0,2.648-1.186,2.648-2.641V5.23c0-1.461-1.187-2.648-2.648-2.648H4.23z"/>
			</defs>
			<clipPath id="SVGID_8_">
				<use xlink:href="#SVGID_892_"  overflow="visible"/>
			</clipPath>
			
				<linearGradient id="SVGID_9_" gradientUnits="userSpaceOnUse" x1="-289.4507" y1="-1409.8887" x2="-287.7114" y2="-1409.8887" gradientTransform="matrix(0 15.4443 15.4443 0 21790.752 4472.9463)">
				<stop  offset="0" style="stop-color:#FFFFFF"/>
				<stop  offset="1" style="stop-color:#F3F3F3"/>
			</linearGradient>
			<rect x="1.584" y="2.582" clip-path="url(#SVGID_8_)" fill="url(#SVGID_9_)" width="28.837" height="26.857"/>
		</g>
		<path fill="none" stroke="#FAFAFA" stroke-width="0.4351" stroke-linejoin="round" d="M30.421,26.799
			c0,1.455-1.19,2.643-2.648,2.643H4.229c-1.457,0-2.647-1.188-2.647-2.643V5.23c0-1.463,1.19-2.646,2.647-2.646h23.544
			c1.458,0,2.648,1.184,2.648,2.646V26.799z"/>
	</g>
	<path d="M7.865,24.26c0.137-0.258,0.283-0.502,0.635-0.502c0.285,0,0.541,0.215,0.541,0.514c0,0.148-0.039,0.283-0.148,0.5
		l-0.76,1.488c-0.131,0.256-0.281,0.5-0.633,0.5c-0.283,0-0.541-0.219-0.541-0.516c0-0.146,0.041-0.283,0.15-0.498L7.865,24.26z
		 M8.352,19.217c0.379,0,0.689,0.311,0.689,0.689c0,0.381-0.311,0.689-0.689,0.689s-0.689-0.309-0.689-0.689
		C7.662,19.527,7.973,19.217,8.352,19.217"/>
	<path d="M8.352,5.197c0.379,0,0.689,0.309,0.689,0.688c0,0.381-0.311,0.691-0.689,0.691S7.662,6.266,7.662,5.885
		C7.662,5.506,7.973,5.197,8.352,5.197 M8.352,9.736c0.379,0,0.689,0.311,0.689,0.691c0,0.377-0.311,0.688-0.689,0.688
		s-0.689-0.311-0.689-0.688C7.662,10.047,7.973,9.736,8.352,9.736"/>
	<text transform="matrix(1 0 0 1 18.1211 26.5293)" font-family="'MyriadPro-Regular'" font-size="11.2356">Ж</text>
</g>
<g>
	<g>
		<g>
			<defs>
				<path id="SVGID_895_" d="M36.135,1.57c-1.952,0-3.533,1.582-3.533,3.527v21.828c0,1.951,1.581,3.527,3.533,3.527h23.734
					c1.952,0,3.532-1.576,3.532-3.527V5.098c0-1.945-1.58-3.527-3.532-3.527H36.135z"/>
			</defs>
			<clipPath id="SVGID_11_">
				<use xlink:href="#SVGID_895_"  overflow="visible"/>
			</clipPath>
			
				<linearGradient id="SVGID_12_" gradientUnits="userSpaceOnUse" x1="-311.7993" y1="-1436.6182" x2="-310.0592" y2="-1436.6182" gradientTransform="matrix(5.8606 19.1691 19.1691 -5.8606 29408.8867 -2443.2427)">
				<stop  offset="0" style="stop-color:#FFFFFF"/>
				<stop  offset="1" style="stop-color:#D0D0D0"/>
			</linearGradient>
			<polygon clip-path="url(#SVGID_11_)" fill="url(#SVGID_12_)" points="60.771,-7.025 71.494,27.984 35.232,39.051 24.512,4.039 
							"/>
		</g>
	</g>
</g>
<g>
	<g>
		<g>
			<defs>
				<path id="SVGID_931_" d="M-27.865,33.57c-1.952,0-3.533,1.582-3.533,3.527v21.828c0,1.951,1.581,3.527,3.533,3.527h23.734
					c1.952,0,3.532-1.576,3.532-3.527V37.098c0-1.945-1.58-3.527-3.532-3.527H-27.865z"/>
			</defs>
			<clipPath id="SVGID_14_">
				<use xlink:href="#SVGID_931_"  overflow="visible"/>
			</clipPath>
			
				<linearGradient id="SVGID_15_" gradientUnits="userSpaceOnUse" x1="-311.2061" y1="-1440.1387" x2="-309.4659" y2="-1440.1387" gradientTransform="matrix(5.8606 19.1691 19.1691 -5.8606 29408.8867 -2443.2427)">
				<stop  offset="0" style="stop-color:#FFFFFF"/>
				<stop  offset="1" style="stop-color:#D0D0D0"/>
			</linearGradient>
			<polygon clip-path="url(#SVGID_14_)" fill="url(#SVGID_15_)" points="-3.229,24.975 7.494,59.984 -28.768,71.051 -39.488,36.039 
							"/>
		</g>
	</g>
</g>
<g>
	<g>
		<g>
			<defs>
				<path id="SVGID_937_" d="M4.135,33.57c-1.952,0-3.533,1.582-3.533,3.527v21.828c0,1.951,1.581,3.527,3.533,3.527h23.734
					c1.952,0,3.532-1.576,3.532-3.527V37.098c0-1.945-1.58-3.527-3.532-3.527H4.135z"/>
			</defs>
			<clipPath id="SVGID_17_">
				<use xlink:href="#SVGID_937_"  overflow="visible"/>
			</clipPath>
			
				<linearGradient id="SVGID_18_" gradientUnits="userSpaceOnUse" x1="-310.7393" y1="-1438.6113" x2="-308.9991" y2="-1438.6113" gradientTransform="matrix(5.8606 19.1691 19.1691 -5.8606 29408.8867 -2443.2427)">
				<stop  offset="0" style="stop-color:#FFFFFF"/>
				<stop  offset="1" style="stop-color:#D0D0D0"/>
			</linearGradient>
			<polygon clip-path="url(#SVGID_17_)" fill="url(#SVGID_18_)" points="28.771,24.975 39.494,59.984 3.232,71.051 -7.488,36.039 
							"/>
		</g>
	</g>
</g>
<g>
	<g>
		<g>
			<defs>
				<path id="SVGID_943_" d="M36.135,33.57c-1.952,0-3.533,1.582-3.533,3.527v21.828c0,1.951,1.581,3.527,3.533,3.527h23.734
					c1.952,0,3.532-1.576,3.532-3.527V37.098c0-1.945-1.58-3.527-3.532-3.527H36.135z"/>
			</defs>
			<clipPath id="SVGID_20_">
				<use xlink:href="#SVGID_943_"  overflow="visible"/>
			</clipPath>
			
				<linearGradient id="SVGID_21_" gradientUnits="userSpaceOnUse" x1="-310.2725" y1="-1437.085" x2="-308.5323" y2="-1437.085" gradientTransform="matrix(5.8606 19.1691 19.1691 -5.8606 29408.8867 -2443.2427)">
				<stop  offset="0" style="stop-color:#FFFFFF"/>
				<stop  offset="1" style="stop-color:#D0D0D0"/>
			</linearGradient>
			<polygon clip-path="url(#SVGID_20_)" fill="url(#SVGID_21_)" points="60.771,24.975 71.494,59.984 35.232,71.051 24.512,36.039 
							"/>
		</g>
	</g>
</g>
</svg>
