<?xml version="1.0" encoding="utf-8"?>
<!-- Generator: Adobe Illustrator 16.0.4, SVG Export Plug-In . SVG Version: 6.00 Build 0)  -->
<!DOCTYPE svg PUBLIC "-//W3C//DTD SVG 1.1//EN" "http://www.w3.org/Graphics/SVG/1.1/DTD/svg11.dtd">
<svg version="1.1" xmlns="http://www.w3.org/2000/svg" xmlns:xlink="http://www.w3.org/1999/xlink" x="0px" y="0px" width="32px"
	 height="32px" viewBox="0 0 32 32" enable-background="new 0 0 32 32" xml:space="preserve">
<g id="Layer_3" display="none">
</g>
<g id="Layer_2">
</g>
<g id="Layer_1">
	<g>
		<g>
			<g>
				<defs>
					<path id="SVGID_787_" d="M-31.866,1.559c-1.952,0-3.533,1.582-3.533,3.527v21.828c0,1.951,1.581,3.527,3.533,3.527h23.734
						c1.952,0,3.532-1.576,3.532-3.527V5.086c0-1.945-1.58-3.527-3.532-3.527H-31.866z"/>
				</defs>
				<clipPath id="SVGID_2_">
					<use xlink:href="#SVGID_787_"  overflow="visible"/>
				</clipPath>
				
					<linearGradient id="SVGID_3_" gradientUnits="userSpaceOnUse" x1="-6.5073" y1="-677.2627" x2="-4.7667" y2="-677.2627" gradientTransform="matrix(5.8606 19.1691 19.1691 -5.8606 12995.5293 -3845.1494)">
					<stop  offset="0" style="stop-color:#FFFFFF"/>
					<stop  offset="1" style="stop-color:#D0D0D0"/>
				</linearGradient>
				<polygon clip-path="url(#SVGID_2_)" fill="url(#SVGID_3_)" points="-7.229,-7.037 3.494,27.973 -32.768,39.039 -43.489,4.027 
									"/>
			</g>
		</g>
	</g>
	<g>
		<g>
			<g>
				<defs>
					<path id="SVGID_793_" d="M4.134,1.559c-1.952,0-3.533,1.582-3.533,3.527v21.828c0,1.951,1.581,3.527,3.533,3.527h23.734
						c1.952,0,3.532-1.576,3.532-3.527V5.086c0-1.945-1.58-3.527-3.532-3.527H4.134z"/>
				</defs>
				<clipPath id="SVGID_5_">
					<use xlink:href="#SVGID_793_"  overflow="visible"/>
				</clipPath>
				
					<linearGradient id="SVGID_6_" gradientUnits="userSpaceOnUse" x1="-5.9819" y1="-675.5449" x2="-4.2418" y2="-675.5449" gradientTransform="matrix(5.8606 19.1691 19.1691 -5.8606 12995.5293 -3845.1494)">
					<stop  offset="0" style="stop-color:#FFFFFF"/>
					<stop  offset="1" style="stop-color:#D0D0D0"/>
				</linearGradient>
				<polygon clip-path="url(#SVGID_5_)" fill="url(#SVGID_6_)" points="28.771,-7.037 39.494,27.973 3.232,39.039 -7.489,4.027 				
					"/>
			</g>
			<path fill="none" stroke="#5C5C5C" stroke-width="0.4351" stroke-linejoin="round" d="M31.403,26.914
				c0,1.953-1.582,3.527-3.532,3.527H4.135c-1.951,0-3.538-1.574-3.538-3.527V5.086c0-1.945,1.587-3.527,3.538-3.527h23.735
				c1.95,0,3.532,1.582,3.532,3.527V26.914z"/>
			<g>
				<defs>
					<path id="SVGID_796_" d="M4.23,2.57c-1.459,0-2.646,1.188-2.646,2.648v21.568c0,1.455,1.188,2.641,2.646,2.641h23.542
						c1.462,0,2.648-1.186,2.648-2.641V5.219c0-1.461-1.187-2.648-2.648-2.648H4.23z"/>
				</defs>
				<clipPath id="SVGID_8_">
					<use xlink:href="#SVGID_796_"  overflow="visible"/>
				</clipPath>
				
					<linearGradient id="SVGID_9_" gradientUnits="userSpaceOnUse" x1="8.8218" y1="-664.4209" x2="10.5605" y2="-664.4209" gradientTransform="matrix(0 15.4443 15.4443 0 10277.5293 -133.6702)">
					<stop  offset="0" style="stop-color:#FFFFFF"/>
					<stop  offset="1" style="stop-color:#F3F3F3"/>
				</linearGradient>
				<rect x="1.583" y="2.57" clip-path="url(#SVGID_8_)" fill="url(#SVGID_9_)" width="28.837" height="26.857"/>
			</g>
			<path fill="none" stroke="#FAFAFA" stroke-width="0.4351" stroke-linejoin="round" d="M30.42,26.787
				c0,1.455-1.19,2.643-2.648,2.643H4.228c-1.457,0-2.647-1.188-2.647-2.643V5.219c0-1.463,1.19-2.646,2.647-2.646h23.544
				c1.458,0,2.648,1.184,2.648,2.646V26.787z"/>
		</g>
		<g>
			<path d="M12.523,7.111c0-0.996,0.585-1.891,1.701-1.891c1.119,0,1.7,0.895,1.7,1.891s-0.581,1.891-1.7,1.891
				C13.108,9.002,12.523,8.107,12.523,7.111 M15.186,7.111c0-0.592-0.246-1.287-0.962-1.287c-0.717,0-0.963,0.695-0.963,1.287
				c0,0.594,0.246,1.287,0.963,1.287C14.94,8.398,15.186,7.705,15.186,7.111 M17.369,5.467c0.102-0.234,0.213-0.336,0.394-0.336
				c0.269,0,0.392,0.17,0.392,0.303c0,0.09-0.036,0.191-0.159,0.502l-2.976,7.139c-0.102,0.234-0.211,0.336-0.413,0.336
				c-0.247,0-0.37-0.154-0.37-0.303c0-0.088,0.035-0.201,0.157-0.502L17.369,5.467z M16.475,11.43c0-0.996,0.581-1.889,1.698-1.889
				c1.12,0,1.703,0.893,1.703,1.889s-0.583,1.891-1.703,1.891C17.056,13.32,16.475,12.426,16.475,11.43 M19.136,11.43
				c0-0.592-0.246-1.287-0.963-1.287c-0.716,0-0.962,0.695-0.962,1.287s0.246,1.287,0.962,1.287
				C18.89,12.717,19.136,12.021,19.136,11.43"/>
			<path d="M14.971,21.613c0.326-0.168,0.685-0.225,1.053-0.225c1.243,0,2.036,1.176,2.036,2.418c0,1.711-0.973,2.83-2.583,2.83
				c-1.321,0-2.24-0.84-2.24-1.32c0-0.201,0.116-0.426,0.358-0.426c0.404,0,0.762,0.828,1.89,0.828c0.952,0,1.523-0.795,1.523-1.723
				c0-0.939-0.414-1.689-1.376-1.689c-0.729,0-1.074,0.303-1.353,0.303c-0.235,0-0.335-0.146-0.335-0.303
				c0-0.123,0.044-0.414,0.076-0.66l0.414-2.783c0.031-0.203,0.135-0.26,0.369-0.26h2.763c0.237,0,0.426,0.191,0.426,0.426
				s-0.188,0.426-0.426,0.426h-2.27L14.971,21.613z"/>
		</g>
	</g>
	<g>
		<g>
			<g>
				<defs>
					<path id="SVGID_799_" d="M40.134,1.559c-1.952,0-3.533,1.582-3.533,3.527v21.828c0,1.951,1.581,3.527,3.533,3.527h23.734
						c1.952,0,3.532-1.576,3.532-3.527V5.086c0-1.945-1.58-3.527-3.532-3.527H40.134z"/>
				</defs>
				<clipPath id="SVGID_11_">
					<use xlink:href="#SVGID_799_"  overflow="visible"/>
				</clipPath>
				
					<linearGradient id="SVGID_12_" gradientUnits="userSpaceOnUse" x1="-5.457" y1="-673.8281" x2="-3.7169" y2="-673.8281" gradientTransform="matrix(5.8606 19.1691 19.1691 -5.8606 12995.5293 -3845.1494)">
					<stop  offset="0" style="stop-color:#FFFFFF"/>
					<stop  offset="1" style="stop-color:#D0D0D0"/>
				</linearGradient>
				<polygon clip-path="url(#SVGID_11_)" fill="url(#SVGID_12_)" points="64.771,-7.037 75.494,27.973 39.232,39.039 28.511,4.027 
									"/>
			</g>
		</g>
	</g>
</g>
<g id="Language_specific">
</g>
<g id="Layer_5">
</g>
</svg>
