<?xml version="1.0" encoding="utf-8"?>
<!-- Generator: Adobe Illustrator 16.0.0, SVG Export Plug-In . SVG Version: 6.00 Build 0)  -->
<!DOCTYPE svg PUBLIC "-//W3C//DTD SVG 1.1//EN" "http://www.w3.org/Graphics/SVG/1.1/DTD/svg11.dtd">
<svg version="1.1" id="Reference" xmlns="http://www.w3.org/2000/svg" xmlns:xlink="http://www.w3.org/1999/xlink" x="0px" y="0px"
	 width="32px" height="32px" viewBox="0 0 32 32" enable-background="new 0 0 32 32" xml:space="preserve">
<g>
	<g>
		<g>
			<g>
				<defs>
					<path id="SVGID_1_" d="M4.135,1.904c-1.952,0-3.533,1.582-3.533,3.527V27.26c0,1.951,1.581,3.527,3.533,3.527h23.734
						c1.951,0,3.531-1.576,3.531-3.527V5.432c0-1.945-1.58-3.527-3.531-3.527L4.135,1.904L4.135,1.904z"/>
				</defs>
				<clipPath id="SVGID_2_">
					<use xlink:href="#SVGID_1_"  overflow="visible"/>
				</clipPath>
				
					<linearGradient id="SVGID_3_" gradientUnits="userSpaceOnUse" x1="-587.666" y1="1429.0566" x2="-585.9259" y2="1429.0566" gradientTransform="matrix(5.8606 19.1691 -19.1691 5.8606 30848.7012 2889.5249)">
					<stop  offset="0" style="stop-color:#FFFFFF"/>
					<stop  offset="1" style="stop-color:#D0D0D0"/>
				</linearGradient>
				<polygon clip-path="url(#SVGID_2_)" fill="url(#SVGID_3_)" points="28.771,-6.691 39.494,28.318 3.232,39.385 -7.488,4.373 				
					"/>
			</g>
		</g>
		<path fill="none" stroke="#5C5C5C" stroke-width="0.4351" stroke-linejoin="round" d="M31.402,27.26
			c0,1.953-1.582,3.527-3.531,3.527H4.136c-1.951,0-3.538-1.574-3.538-3.527V5.432c0-1.945,1.587-3.527,3.538-3.527h23.735
			c1.949,0,3.531,1.582,3.531,3.527V27.26z"/>
		<g>
			<g>
				<defs>
					<path id="SVGID_4_" d="M4.23,2.916c-1.459,0-2.646,1.188-2.646,2.648v21.568c0,1.455,1.188,2.642,2.646,2.642h23.542
						c1.463,0,2.648-1.187,2.648-2.642V5.564c0-1.461-1.188-2.648-2.648-2.648H4.23z"/>
				</defs>
				<clipPath id="SVGID_5_">
					<use xlink:href="#SVGID_4_"  overflow="visible"/>
				</clipPath>
				
					<linearGradient id="SVGID_6_" gradientUnits="userSpaceOnUse" x1="-566.9541" y1="1387.6904" x2="-565.2148" y2="1387.6904" gradientTransform="matrix(0 15.4443 -15.4443 0 21447.9121 8759.125)">
					<stop  offset="0" style="stop-color:#FFFFFF"/>
					<stop  offset="1" style="stop-color:#F3F3F3"/>
				</linearGradient>
				<rect x="1.584" y="2.916" clip-path="url(#SVGID_5_)" fill="url(#SVGID_6_)" width="28.837" height="26.857"/>
			</g>
		</g>
		<path fill="none" stroke="#FAFAFA" stroke-width="0.4351" stroke-linejoin="round" d="M30.421,27.133
			c0,1.455-1.19,2.643-2.647,2.643H4.229c-1.457,0-2.647-1.188-2.647-2.643V5.564c0-1.463,1.19-2.646,2.647-2.646h23.544
			c1.457,0,2.647,1.184,2.647,2.646V27.133z"/>
	</g>
	<path d="M8.477,6.779C8.58,6.442,8.762,6.343,9.038,6.343c0.272,0,0.457,0.099,0.559,0.436l2.037,7.144h0.024l1.158-7.069
		c0.062-0.362,0.261-0.51,0.595-0.51c0.312,0,0.5,0.223,0.5,0.495c0,0.139-0.017,0.299-0.062,0.561l-1.344,7.221
		c-0.074,0.384-0.235,0.724-0.786,0.724c-0.418,0-0.68-0.115-0.855-0.724L9.05,8.133H9.024L7.21,14.62
		c-0.176,0.608-0.438,0.724-0.856,0.724c-0.546,0-0.71-0.34-0.784-0.724L4.226,7.399c-0.048-0.262-0.06-0.422-0.06-0.561
		c0-0.272,0.184-0.495,0.495-0.495c0.337,0,0.538,0.147,0.595,0.51l1.159,7.069H6.44L8.477,6.779z"/>
	<g enable-background="new    ">
		<path d="M20.789,18.96v6.749h3.47V18.96h0.988v6.772l0.663,0.021l-0.068,2.595h-0.774L25,26.529h-5.188V18.96H20.789z"/>
	</g>
</g>
</svg>
