<?xml version="1.0" encoding="utf-8"?>
<!-- Generator: Adobe Illustrator 16.0.4, SVG Export Plug-In . SVG Version: 6.00 Build 0)  -->
<!DOCTYPE svg PUBLIC "-//W3C//DTD SVG 1.1//EN" "http://www.w3.org/Graphics/SVG/1.1/DTD/svg11.dtd">
<svg version="1.1" xmlns="http://www.w3.org/2000/svg" xmlns:xlink="http://www.w3.org/1999/xlink" x="0px" y="0px" width="74px"
	 height="32px" viewBox="0 0 74 32" enable-background="new 0 0 74 32" xml:space="preserve">
<g id="Layer_3" display="none">
</g>
<g id="Layer_2">
</g>
<g id="Layer_1">
	<g>
		<g>
			<g>
				<defs>
					<path id="SVGID_1585_" d="M4.816,4.201c-2.33,0-4.219,1.889-4.219,4.223v15.16c0,2.322,1.889,4.215,4.219,4.215h22.365
						c2.332,0,4.221-1.893,4.221-4.215V8.424c0-2.334-1.889-4.223-4.221-4.223H4.816z"/>
				</defs>
				<clipPath id="SVGID_2_">
					<use xlink:href="#SVGID_1585_"  overflow="visible"/>
				</clipPath>
				
					<linearGradient id="SVGID_3_" gradientUnits="userSpaceOnUse" x1="17.2192" y1="-803.6172" x2="19.4251" y2="-803.6172" gradientTransform="matrix(4.3973 14.3829 14.3829 -4.3973 11493.7373 -3781.373)">
					<stop  offset="0" style="stop-color:#FFFFFF"/>
					<stop  offset="1" style="stop-color:#D0D0D0"/>
				</linearGradient>
				<polygon clip-path="url(#SVGID_2_)" fill="url(#SVGID_3_)" points="27.451,-6.129 38,25.781 3.818,38.129 -6,6.221 				"/>
			</g>
			<path fill="none" stroke="#5C5C5C" stroke-width="0.5198" stroke-linejoin="round" d="M31.402,23.582
				c0,2.324-1.891,4.217-4.217,4.217H4.814c-2.33,0-4.217-1.893-4.217-4.217V8.424c0-2.336,1.887-4.217,4.217-4.217h22.371
				c2.326,0,4.217,1.881,4.217,4.217V23.582z"/>
			<g>
				<defs>
					<path id="SVGID_1588_" d="M4.926,5.416c-1.742,0-3.156,1.418-3.156,3.164v14.84c0,1.742,1.414,3.164,3.156,3.164h22.141
						c1.744,0,3.16-1.422,3.16-3.164V8.58c0-1.746-1.416-3.164-3.16-3.164H4.926z"/>
				</defs>
				<clipPath id="SVGID_5_">
					<use xlink:href="#SVGID_1588_"  overflow="visible"/>
				</clipPath>
				
					<linearGradient id="SVGID_6_" gradientUnits="userSpaceOnUse" x1="51.7256" y1="-785.3545" x2="53.8042" y2="-785.3545" gradientTransform="matrix(0 10.1826 10.1826 0 8012.9492 -521.2825)">
					<stop  offset="0" style="stop-color:#FFFFFF"/>
					<stop  offset="1" style="stop-color:#F3F3F3"/>
				</linearGradient>
				<rect x="1.77" y="5.416" clip-path="url(#SVGID_5_)" fill="url(#SVGID_6_)" width="28.457" height="21.168"/>
			</g>
			<path fill="none" stroke="#FAFAFA" stroke-width="0.5198" stroke-linejoin="round" d="M30.227,23.424
				c0,1.742-1.416,3.16-3.162,3.16H4.93c-1.742,0-3.162-1.418-3.162-3.16V8.58c0-1.746,1.42-3.166,3.162-3.166h22.135
				c1.746,0,3.162,1.42,3.162,3.166V23.424z"/>
		</g>
		<g>
			<path d="M4.994,19.561c0.873,0,1.387,0.303,1.387,0.65c0,0.176-0.143,0.361-0.348,0.361c-0.332,0-0.457-0.273-1.039-0.273
				c-1.062,0-1.479,1.031-1.479,1.904c0,0.875,0.416,1.904,1.479,1.904c0.602,0,0.756-0.289,1.027-0.289
				c0.195,0,0.33,0.125,0.33,0.357c0,0.32-0.475,0.672-1.357,0.672c-1.576,0-2.334-1.275-2.334-2.645S3.418,19.561,4.994,19.561"/>
			<path d="M9.25,19.561c1.461,0,2.275,1.273,2.275,2.643s-0.814,2.645-2.275,2.645c-1.457,0-2.271-1.275-2.271-2.645
				S7.793,19.561,9.25,19.561 M9.25,24.107c1.053,0,1.42-1.029,1.42-1.904s-0.367-1.904-1.42-1.904
				c-1.049,0-1.416,1.029-1.416,1.904S8.201,24.107,9.25,24.107"/>
			<path d="M12.432,20.018c0-0.283,0.164-0.459,0.428-0.459c0.262,0,0.426,0.176,0.426,0.459v0.203l0.021,0.02
				c0.379-0.486,0.912-0.682,1.428-0.682c0.797,0,1.797,0.506,1.797,1.967v2.865c0,0.281-0.162,0.457-0.426,0.457
				c-0.262,0-0.428-0.176-0.428-0.457v-2.818c0-0.904-0.631-1.273-1.197-1.273c-0.561,0-1.195,0.369-1.195,1.273v2.818
				c0,0.281-0.164,0.457-0.426,0.457c-0.264,0-0.428-0.176-0.428-0.457V20.018z"/>
			<path d="M17.934,18.5c0-0.281,0.166-0.455,0.428-0.455c0.264,0,0.432,0.174,0.432,0.455v1.117h0.346
				c0.283,0,0.43,0.139,0.43,0.369c0,0.234-0.146,0.371-0.43,0.371h-0.346v4.033c0,0.281-0.168,0.455-0.432,0.455
				c-0.262,0-0.428-0.174-0.428-0.455v-4.033h-0.348c-0.283,0-0.428-0.137-0.428-0.371c0-0.23,0.145-0.369,0.428-0.369h0.348V18.5z"
				/>
			<path d="M20.191,20.018c0-0.283,0.164-0.459,0.43-0.459c0.26,0,0.426,0.176,0.426,0.459v0.436h0.02
				c0.193-0.398,0.668-0.895,1.166-0.895c0.301,0,0.475,0.195,0.475,0.439c0,0.242-0.174,0.398-0.535,0.465
				c-0.504,0.09-1.125,0.469-1.125,1.469v2.459c0,0.281-0.166,0.457-0.426,0.457c-0.266,0-0.43-0.176-0.43-0.457V20.018z"/>
			<path d="M25.303,19.561c1.461,0,2.275,1.273,2.275,2.643s-0.814,2.645-2.275,2.645c-1.457,0-2.273-1.275-2.273-2.645
				S23.846,19.561,25.303,19.561 M25.303,24.107c1.053,0,1.42-1.029,1.42-1.904s-0.367-1.904-1.42-1.904
				c-1.049,0-1.416,1.029-1.416,1.904S24.254,24.107,25.303,24.107"/>
			<path d="M29.34,24.391c0,0.281-0.164,0.457-0.428,0.457s-0.428-0.176-0.428-0.457v-6.648c0-0.279,0.164-0.455,0.428-0.455
				s0.428,0.176,0.428,0.455V24.391z"/>
		</g>
	</g>
</g>
<g id="Language_specific">
	<g>
		<g>
			<g>
				<defs>
					<path id="SVGID_1723_" d="M46.816,4.201c-2.33,0-4.219,1.889-4.219,4.223v15.16c0,2.322,1.889,4.215,4.219,4.215h22.365
						c2.332,0,4.221-1.893,4.221-4.215V8.424c0-2.334-1.889-4.223-4.221-4.223H46.816z"/>
				</defs>
				<clipPath id="SVGID_8_">
					<use xlink:href="#SVGID_1723_"  overflow="visible"/>
				</clipPath>
				
					<linearGradient id="SVGID_9_" gradientUnits="userSpaceOnUse" x1="18.0356" y1="-800.9463" x2="20.2415" y2="-800.9463" gradientTransform="matrix(4.3973 14.3829 14.3829 -4.3973 11493.7373 -3781.373)">
					<stop  offset="0" style="stop-color:#FFFFFF"/>
					<stop  offset="1" style="stop-color:#D0D0D0"/>
				</linearGradient>
				<polygon clip-path="url(#SVGID_8_)" fill="url(#SVGID_9_)" points="69.451,-6.129 80,25.781 45.818,38.129 36,6.221 				"/>
			</g>
			<path fill="none" stroke="#5C5C5C" stroke-width="0.5198" stroke-linejoin="round" d="M73.402,23.582
				c0,2.324-1.891,4.217-4.217,4.217H46.814c-2.33,0-4.217-1.893-4.217-4.217V8.424c0-2.336,1.887-4.217,4.217-4.217h22.371
				c2.326,0,4.217,1.881,4.217,4.217V23.582z"/>
			<g>
				<defs>
					<path id="SVGID_1726_" d="M46.926,5.416c-1.742,0-3.156,1.418-3.156,3.164v14.84c0,1.742,1.414,3.164,3.156,3.164h22.141
						c1.744,0,3.16-1.422,3.16-3.164V8.58c0-1.746-1.416-3.164-3.16-3.164H46.926z"/>
				</defs>
				<clipPath id="SVGID_11_">
					<use xlink:href="#SVGID_1726_"  overflow="visible"/>
				</clipPath>
				
					<linearGradient id="SVGID_12_" gradientUnits="userSpaceOnUse" x1="51.7256" y1="-781.2295" x2="53.8042" y2="-781.2295" gradientTransform="matrix(0 10.1826 10.1826 0 8012.9492 -521.2825)">
					<stop  offset="0" style="stop-color:#FFFFFF"/>
					<stop  offset="1" style="stop-color:#F3F3F3"/>
				</linearGradient>
				<rect x="43.77" y="5.416" clip-path="url(#SVGID_11_)" fill="url(#SVGID_12_)" width="28.457" height="21.168"/>
			</g>
			<path fill="none" stroke="#FAFAFA" stroke-width="0.5198" stroke-linejoin="round" d="M72.227,23.424
				c0,1.742-1.416,3.16-3.162,3.16H46.93c-1.742,0-3.162-1.418-3.162-3.16V8.58c0-1.746,1.42-3.166,3.162-3.166h22.135
				c1.746,0,3.162,1.42,3.162,3.166V23.424z"/>
		</g>
		<g>
			<path d="M47.644,18.809c1.037,0,1.65,0.359,1.65,0.777c0,0.209-0.17,0.426-0.413,0.426c-0.396,0-0.542-0.322-1.237-0.322
				c-1.263,0-1.76,1.227-1.76,2.268c0,1.039,0.497,2.266,1.76,2.266c0.718,0,0.901-0.348,1.221-0.348
				c0.231,0,0.398,0.152,0.398,0.43c0,0.381-0.568,0.799-1.619,0.799c-1.876,0-2.774-1.518-2.774-3.146
				C44.869,20.326,45.768,18.809,47.644,18.809"/>
			<path d="M50.593,17.551c0-0.336,0.198-0.545,0.509-0.545c0.313,0,0.509,0.209,0.509,0.545v1.328h0.418
				c0.334,0,0.509,0.164,0.509,0.438c0,0.281-0.175,0.441-0.509,0.441H51.61v4.801c0,0.336-0.195,0.543-0.509,0.543
				c-0.311,0-0.509-0.207-0.509-0.543v-4.801h-0.418c-0.333,0-0.508-0.16-0.508-0.441c0-0.273,0.175-0.438,0.508-0.438h0.418V17.551
				z"/>
			<path d="M53.277,19.354c0-0.336,0.198-0.545,0.509-0.545c0.316,0,0.512,0.209,0.512,0.545v0.52h0.022
				c0.229-0.475,0.799-1.064,1.387-1.064c0.356,0,0.565,0.232,0.565,0.523c0,0.287-0.209,0.475-0.636,0.553
				c-0.602,0.105-1.339,0.557-1.339,1.75v2.924c0,0.336-0.195,0.545-0.512,0.545c-0.311,0-0.509-0.209-0.509-0.545V19.354z"/>
			<path d="M57.939,24.559c0,0.336-0.195,0.545-0.509,0.545c-0.311,0-0.509-0.209-0.509-0.545v-7.912
				c0-0.332,0.198-0.541,0.509-0.541c0.313,0,0.509,0.209,0.509,0.541V24.559z"/>
		</g>
	</g>
	<line fill="none" stroke="#FFFFFF" stroke-miterlimit="10" x1="39.5" y1="1" x2="33.5" y2="30.062"/>
	<line fill="none" stroke="#000000" stroke-miterlimit="10" x1="40.5" y1="1" x2="34.5" y2="31"/>
</g>
<g id="Layer_5">
</g>
</svg>
