<?xml version="1.0" encoding="utf-8"?>
<!-- Generator: Adobe Illustrator 16.0.0, SVG Export Plug-In . SVG Version: 6.00 Build 0)  -->
<!DOCTYPE svg PUBLIC "-//W3C//DTD SVG 1.1//EN" "http://www.w3.org/Graphics/SVG/1.1/DTD/svg11.dtd">
<svg version="1.1" id="Layer_1" xmlns="http://www.w3.org/2000/svg" xmlns:xlink="http://www.w3.org/1999/xlink" x="0px" y="0px"
	 width="64px" height="32px" viewBox="0 0 64 32" enable-background="new 0 0 64 32" xml:space="preserve">
<g>
	<g>
		<g>
			<defs>
				<path id="SVGID_1_" d="M4.135,1.559c-1.953,0-3.533,1.582-3.533,3.527v21.828c0,1.951,1.58,3.527,3.533,3.527h55.734
					c1.951,0,3.531-1.576,3.531-3.527V5.086c0-1.945-1.58-3.527-3.531-3.527H4.135z"/>
			</defs>
			<clipPath id="SVGID_2_">
				<use xlink:href="#SVGID_1_"  overflow="visible"/>
			</clipPath>
			
				<linearGradient id="SVGID_3_" gradientUnits="userSpaceOnUse" x1="-313.7905" y1="-96.606" x2="-311.6064" y2="-96.606" gradientTransform="matrix(5.8606 19.1691 -19.1691 5.8606 12.7437 6576.2881)">
				<stop  offset="0" style="stop-color:#FFFFFF"/>
				<stop  offset="1" style="stop-color:#D0D0D0"/>
			</linearGradient>
			<polygon clip-path="url(#SVGID_2_)" fill="url(#SVGID_3_)" points="60.771,-7.037 71.494,27.973 3.232,39.039 -7.488,4.027 			
				"/>
		</g>
	</g>
	<path fill="none" stroke="#5C5C5C" stroke-width="0.4351" stroke-linejoin="round" d="M63.402,26.914
		c0,1.953-1.582,3.527-3.531,3.527H4.135c-1.951,0-3.537-1.574-3.537-3.527V5.086c0-1.945,1.586-3.527,3.537-3.527h55.736
		c1.949,0,3.531,1.582,3.531,3.527V26.914z"/>
	<g>
		<g>
			<defs>
				<path id="SVGID_4_" d="M4.23,2.57c-1.459,0-2.646,1.188-2.646,2.648v21.568c0,1.455,1.188,2.641,2.646,2.641h55.541
					c1.463,0,2.647-1.186,2.647-2.641V5.219c0-1.461-1.186-2.648-2.647-2.648L4.23,2.57L4.23,2.57z"/>
			</defs>
			<clipPath id="SVGID_5_">
				<use xlink:href="#SVGID_4_"  overflow="visible"/>
			</clipPath>
			
				<linearGradient id="SVGID_6_" gradientUnits="userSpaceOnUse" x1="-313.8623" y1="-110.0859" x2="-312.123" y2="-110.0859" gradientTransform="matrix(0 15.4443 -15.4443 0 -1668.1978 4849.9536)">
				<stop  offset="0" style="stop-color:#FFFFFF"/>
				<stop  offset="1" style="stop-color:#F3F3F3"/>
			</linearGradient>
			<rect x="1.584" y="2.57" clip-path="url(#SVGID_5_)" fill="url(#SVGID_6_)" width="60.836" height="26.857"/>
		</g>
	</g>
	<path fill="none" stroke="#FAFAFA" stroke-width="0.4351" stroke-linejoin="round" d="M62.42,26.787
		c0,1.455-1.188,2.643-2.647,2.643H4.229c-1.456,0-2.647-1.188-2.647-2.643V5.219c0-1.463,1.191-2.646,2.647-2.646h55.544
		c1.459,0,2.647,1.184,2.647,2.646V26.787z"/>
</g>
<g enable-background="new    ">
	<path d="M18.951,12.922c0.833,0,2.021,0.445,2.021,1.073c0,0.217-0.148,0.411-0.457,0.411c-0.434,0-0.604-0.617-1.563-0.617
		c-0.57,0-1.062,0.252-1.062,0.765c0,1.062,3.241,0.948,3.241,2.705c0,1.268-1.084,1.872-2.214,1.872
		c-1.278,0-2.282-0.639-2.282-1.152c0-0.274,0.193-0.457,0.41-0.457c0.445,0,0.811,0.742,1.906,0.742
		c0.73,0,1.176-0.411,1.176-0.822c0-1.187-3.242-1.118-3.242-2.808C16.885,13.516,17.936,12.922,18.951,12.922z"/>
	<path d="M22.133,13.458c0-0.331,0.194-0.536,0.502-0.536c0.309,0,0.502,0.205,0.502,0.536v0.297h0.023
		c0.285-0.548,0.822-0.833,1.621-0.833c1.643,0,2.59,1.495,2.59,3.104s-0.947,3.104-2.59,3.104c-0.799,0-1.358-0.445-1.621-0.821
		h-0.023v2.682c0,0.331-0.193,0.536-0.502,0.536c-0.308,0-0.502-0.205-0.502-0.536V13.458z M24.701,18.264
		c1.232,0,1.666-1.21,1.666-2.237s-0.434-2.237-1.666-2.237s-1.666,1.21-1.666,2.237S23.469,18.264,24.701,18.264z"/>
	<path d="M33.452,18.641c0,0.354-0.274,0.49-0.468,0.49c-0.205,0-0.469-0.137-0.469-0.49v-0.423h-0.022
		c-0.434,0.616-1.005,0.913-1.655,0.913c-1.711,0-2.67-1.495-2.67-3.104s0.959-3.104,2.67-3.104c0.697,0,1.188,0.297,1.655,0.811
		h0.022v-0.319c0-0.354,0.264-0.491,0.469-0.491c0.193,0,0.468,0.137,0.468,0.491V18.641z M30.838,18.264
		c1.232,0,1.667-1.21,1.667-2.237s-0.435-2.237-1.667-2.237s-1.666,1.21-1.666,2.237S29.605,18.264,30.838,18.264z"/>
	<path d="M38.448,18.195c0.331,0,0.502,0.159,0.502,0.434c0,0.273-0.171,0.434-0.502,0.434H34.83c-0.389,0-0.491-0.194-0.491-0.354
		c0-0.16,0.058-0.297,0.206-0.514l2.898-4.338h-2.488c-0.33,0-0.502-0.159-0.502-0.434c0-0.273,0.172-0.434,0.502-0.434h3.379
		c0.388,0,0.49,0.194,0.49,0.354c0,0.159-0.057,0.296-0.205,0.513l-2.934,4.314l0.035,0.023H38.448z"/>
	<path d="M40.34,10.867c0.343,0,0.616,0.274,0.616,0.617c0,0.342-0.273,0.616-0.616,0.616c-0.342,0-0.616-0.274-0.616-0.616
		C39.724,11.142,39.998,10.867,40.34,10.867z M40.842,18.595c0,0.331-0.193,0.536-0.502,0.536s-0.502-0.205-0.502-0.536v-5.137
		c0-0.331,0.193-0.536,0.502-0.536s0.502,0.205,0.502,0.536V18.595z"/>
	<path d="M44.573,12.922c1.712,0,2.671,1.495,2.671,3.104s-0.959,3.104-2.671,3.104s-2.671-1.495-2.671-3.104
		S42.861,12.922,44.573,12.922z M44.573,18.264c1.232,0,1.667-1.21,1.667-2.237s-0.435-2.237-1.667-2.237
		c-1.233,0-1.667,1.21-1.667,2.237S43.34,18.264,44.573,18.264z"/>
</g>
</svg>
