<?xml version="1.0" encoding="utf-8"?>
<!-- Generator: Adobe Illustrator 16.0.0, SVG Export Plug-In . SVG Version: 6.00 Build 0)  -->
<!DOCTYPE svg PUBLIC "-//W3C//DTD SVG 1.1//EN" "http://www.w3.org/Graphics/SVG/1.1/DTD/svg11.dtd">
<svg version="1.1" id="Layer_1" xmlns="http://www.w3.org/2000/svg" xmlns:xlink="http://www.w3.org/1999/xlink" x="0px" y="0px"
	 width="32px" height="32px" viewBox="0 0 32 32" enable-background="new 0 0 32 32" xml:space="preserve">
<g id="Layer_3" display="none">
</g>
<g id="Layer_2">
	<g display="none">
		<g display="inline">
			<g>
				<defs>
					<path id="SVGID_1_" d="M-15.183-27.799c-2.331,0-4.22,1.889-4.22,4.223v15.16c0,2.322,1.889,4.215,4.22,4.215H7.183
						c2.331,0,4.221-1.893,4.221-4.215v-15.16c0-2.334-1.89-4.223-4.221-4.223H-15.183z"/>
				</defs>
				<clipPath id="SVGID_2_">
					<use xlink:href="#SVGID_1_"  overflow="visible"/>
				</clipPath>
				
					<linearGradient id="SVGID_3_" gradientUnits="userSpaceOnUse" x1="-458.8813" y1="748.9219" x2="-456.6754" y2="748.9219" gradientTransform="matrix(4.3973 14.3829 -14.3829 4.3973 12780.6367 3274.8464)">
					<stop  offset="0" style="stop-color:#FFFFFF"/>
					<stop  offset="1" style="stop-color:#D0CFD0"/>
				</linearGradient>
				<polygon clip-path="url(#SVGID_2_)" fill="url(#SVGID_3_)" points="7.452,-38.129 18,-6.219 -16.181,6.129 -26,-25.779 				"/>
			</g>
		</g>
	</g>
	<g display="none">
		<g display="inline">
			<g>
				<defs>
					<path id="SVGID_4_" d="M16.816-27.799c-2.331,0-4.219,1.889-4.219,4.223v15.16c0,2.322,1.889,4.215,4.219,4.215h22.365
						c2.332,0,4.221-1.893,4.221-4.215v-15.16c0-2.334-1.889-4.223-4.221-4.223H16.816z"/>
				</defs>
				<clipPath id="SVGID_5_">
					<use xlink:href="#SVGID_4_"  overflow="visible"/>
				</clipPath>
				
					<linearGradient id="SVGID_6_" gradientUnits="userSpaceOnUse" x1="-458.2593" y1="746.8867" x2="-456.0535" y2="746.8867" gradientTransform="matrix(4.3973 14.3829 -14.3829 4.3973 12780.6367 3274.8464)">
					<stop  offset="0" style="stop-color:#FFFFFF"/>
					<stop  offset="1" style="stop-color:#D0CFD0"/>
				</linearGradient>
				<polygon clip-path="url(#SVGID_5_)" fill="url(#SVGID_6_)" points="39.452,-38.129 50,-6.219 15.819,6.129 6,-25.779 				"/>
			</g>
		</g>
	</g>
</g>
<g id="Language_specific">
	<g>
		<g>
			<g>
				<g>
					<defs>
						<path id="SVGID_7_" d="M4.135,1.559c-1.952,0-3.533,1.582-3.533,3.527v21.828c0,1.951,1.581,3.527,3.533,3.527h23.734
							c1.951,0,3.531-1.576,3.531-3.527V5.086c0-1.945-1.58-3.527-3.531-3.527H4.135z"/>
					</defs>
					<clipPath id="SVGID_8_">
						<use xlink:href="#SVGID_7_"  overflow="visible"/>
					</clipPath>
					
						<linearGradient id="SVGID_9_" gradientUnits="userSpaceOnUse" x1="-481.7847" y1="753.9297" x2="-480.0441" y2="753.9297" gradientTransform="matrix(5.8606 19.1691 -19.1691 5.8606 17286.5762 4816.1812)">
						<stop  offset="0" style="stop-color:#FFFFFF"/>
						<stop  offset="1" style="stop-color:#D0D0D0"/>
					</linearGradient>
					<polygon clip-path="url(#SVGID_8_)" fill="url(#SVGID_9_)" points="28.771,-7.037 39.494,27.973 3.232,39.039 -7.488,4.027 
											"/>
				</g>
			</g>
			<path fill="none" stroke="#5C5C5C" stroke-width="0.4351" stroke-linejoin="round" d="M31.402,26.914
				c0,1.953-1.582,3.527-3.531,3.527H4.136c-1.951,0-3.538-1.574-3.538-3.527V5.086c0-1.945,1.587-3.527,3.538-3.527h23.735
				c1.949,0,3.531,1.582,3.531,3.527V26.914z"/>
			<g>
				<g>
					<defs>
						<path id="SVGID_10_" d="M4.23,2.57c-1.459,0-2.646,1.188-2.646,2.648v21.568c0,1.455,1.188,2.641,2.646,2.641h23.542
							c1.463,0,2.648-1.186,2.648-2.641V5.219c0-1.461-1.188-2.648-2.648-2.648L4.23,2.57L4.23,2.57z"/>
					</defs>
					<clipPath id="SVGID_11_">
						<use xlink:href="#SVGID_10_"  overflow="visible"/>
					</clipPath>
					
						<linearGradient id="SVGID_12_" gradientUnits="userSpaceOnUse" x1="-470.4873" y1="724.7559" x2="-468.7485" y2="724.7559" gradientTransform="matrix(0 15.4443 -15.4443 0 11209.3496 7268.9219)">
						<stop  offset="0" style="stop-color:#FFFFFF"/>
						<stop  offset="1" style="stop-color:#F3F3F3"/>
					</linearGradient>
					<rect x="1.584" y="2.57" clip-path="url(#SVGID_11_)" fill="url(#SVGID_12_)" width="28.837" height="26.857"/>
				</g>
			</g>
			<path fill="none" stroke="#FAFAFA" stroke-width="0.4351" stroke-linejoin="round" d="M30.421,26.787
				c0,1.455-1.19,2.643-2.647,2.643H4.229c-1.457,0-2.647-1.188-2.647-2.643V5.219c0-1.463,1.19-2.646,2.647-2.646h23.544
				c1.457,0,2.647,1.184,2.647,2.646V26.787z"/>
		</g>
		<g enable-background="new    ">
			<path d="M14.403,22.766c-0.213,0.381-0.303,0.561-0.562,0.561c-0.236,0-0.416-0.156-0.416-0.37c0-0.157,0.112-0.337,0.191-0.483
				l1.965-3.504c0.146-0.258,0.292-0.46,0.584-0.46s0.438,0.202,0.584,0.46l1.965,3.504c0.079,0.146,0.191,0.326,0.191,0.483
				c0,0.214-0.18,0.37-0.416,0.37c-0.258,0-0.348-0.18-0.561-0.561l-1.764-3.269L14.403,22.766z"/>
		</g>
		<g enable-background="new    ">
			<path d="M16.083,6.19c1.044,0,1.708,0.809,1.708,1.831c0,1.044-0.663,1.842-1.708,1.842s-1.707-0.809-1.707-1.842
				C14.376,6.999,15.039,6.19,16.083,6.19z M16.083,9.189c0.54,0,0.899-0.551,0.899-1.168c0-0.607-0.359-1.157-0.899-1.157
				c-0.539,0-0.898,0.55-0.898,1.157C15.185,8.639,15.544,9.189,16.083,9.189z"/>
		</g>
	</g>
</g>
<g id="Layer_5">
</g>
</svg>
