<?xml version="1.0" encoding="utf-8"?>
<!-- Generator: Adobe Illustrator 16.0.4, SVG Export Plug-In . SVG Version: 6.00 Build 0)  -->
<!DOCTYPE svg PUBLIC "-//W3C//DTD SVG 1.1//EN" "http://www.w3.org/Graphics/SVG/1.1/DTD/svg11.dtd">
<svg version="1.1" id="Reference" xmlns="http://www.w3.org/2000/svg" xmlns:xlink="http://www.w3.org/1999/xlink" x="0px" y="0px"
	 width="32px" height="32px" viewBox="0 0 32 32" enable-background="new 0 0 32 32" xml:space="preserve">
<g>
	<g>
		<defs>
			<path id="SVGID_775_" d="M-27.865,1.546c-1.952,0-3.533,1.582-3.533,3.527v21.828c0,1.951,1.581,3.527,3.533,3.527h23.734
				c1.952,0,3.532-1.576,3.532-3.527V5.073c0-1.945-1.58-3.527-3.532-3.527H-27.865z"/>
		</defs>
		<clipPath id="SVGID_2_">
			<use xlink:href="#SVGID_775_"  overflow="visible"/>
		</clipPath>
		
			<linearGradient id="SVGID_3_" gradientUnits="userSpaceOnUse" x1="-476.5068" y1="-1302.1709" x2="-474.7667" y2="-1302.1709" gradientTransform="matrix(5.8606 19.1691 19.1691 -5.8606 27732.9395 1501.9692)">
			<stop  offset="0" style="stop-color:#FFFFFF"/>
			<stop  offset="1" style="stop-color:#D0D0D0"/>
		</linearGradient>
		<polygon clip-path="url(#SVGID_2_)" fill="url(#SVGID_3_)" points="-3.229,-7.05 7.494,27.96 -28.768,39.026 -39.488,4.015 		"/>
	</g>
</g>
<g>
	<g>
		<defs>
			<path id="SVGID_781_" d="M4.135,1.546c-1.952,0-3.533,1.582-3.533,3.527v21.828c0,1.951,1.581,3.527,3.533,3.527h23.734
				c1.952,0,3.532-1.576,3.532-3.527V5.073c0-1.945-1.58-3.527-3.532-3.527H4.135z"/>
		</defs>
		<clipPath id="SVGID_5_">
			<use xlink:href="#SVGID_781_"  overflow="visible"/>
		</clipPath>
		
			<linearGradient id="SVGID_6_" gradientUnits="userSpaceOnUse" x1="-476.04" y1="-1300.6445" x2="-474.2999" y2="-1300.6445" gradientTransform="matrix(5.8606 19.1691 19.1691 -5.8606 27732.9395 1501.9692)">
			<stop  offset="0" style="stop-color:#FFFFFF"/>
			<stop  offset="1" style="stop-color:#D0D0D0"/>
		</linearGradient>
		<polygon clip-path="url(#SVGID_5_)" fill="url(#SVGID_6_)" points="28.771,-7.05 39.494,27.96 3.232,39.026 -7.488,4.015 		"/>
	</g>
	<path fill="none" stroke="#5C5C5C" stroke-width="0.4351" stroke-linejoin="round" d="M31.403,26.901
		c0,1.953-1.582,3.527-3.532,3.527H4.136c-1.951,0-3.538-1.574-3.538-3.527V5.073c0-1.945,1.587-3.527,3.538-3.527h23.735
		c1.95,0,3.532,1.582,3.532,3.527V26.901z"/>
	<g>
		<defs>
			<path id="SVGID_784_" d="M4.23,2.558c-1.459,0-2.646,1.188-2.646,2.648v21.568c0,1.455,1.188,2.641,2.646,2.641h23.542
				c1.462,0,2.648-1.186,2.648-2.641V5.206c0-1.461-1.187-2.648-2.648-2.648H4.23z"/>
		</defs>
		<clipPath id="SVGID_8_">
			<use xlink:href="#SVGID_784_"  overflow="visible"/>
		</clipPath>
		
			<linearGradient id="SVGID_9_" gradientUnits="userSpaceOnUse" x1="-457.7397" y1="-1271.5283" x2="-456.001" y2="-1271.5283" gradientTransform="matrix(0 15.4443 15.4443 0 19653.8809 7072.0342)">
			<stop  offset="0" style="stop-color:#FFFFFF"/>
			<stop  offset="1" style="stop-color:#F3F3F3"/>
		</linearGradient>
		<rect x="1.584" y="2.558" clip-path="url(#SVGID_8_)" fill="url(#SVGID_9_)" width="28.837" height="26.857"/>
	</g>
	<path fill="none" stroke="#FAFAFA" stroke-width="0.4351" stroke-linejoin="round" d="M30.421,26.774
		c0,1.455-1.19,2.643-2.648,2.643H4.229c-1.457,0-2.647-1.188-2.647-2.643V5.206c0-1.463,1.19-2.646,2.647-2.646h23.544
		c1.458,0,2.648,1.184,2.648,2.646V26.774z"/>
</g>
<g>
	<g>
		<defs>
			<path id="SVGID_787_" d="M36.135,1.546c-1.952,0-3.533,1.582-3.533,3.527v21.828c0,1.951,1.581,3.527,3.533,3.527h23.734
				c1.952,0,3.532-1.576,3.532-3.527V5.073c0-1.945-1.58-3.527-3.532-3.527H36.135z"/>
		</defs>
		<clipPath id="SVGID_11_">
			<use xlink:href="#SVGID_787_"  overflow="visible"/>
		</clipPath>
		
			<linearGradient id="SVGID_12_" gradientUnits="userSpaceOnUse" x1="-475.5732" y1="-1299.1172" x2="-473.8331" y2="-1299.1172" gradientTransform="matrix(5.8606 19.1691 19.1691 -5.8606 27732.9395 1501.9692)">
			<stop  offset="0" style="stop-color:#FFFFFF"/>
			<stop  offset="1" style="stop-color:#D0D0D0"/>
		</linearGradient>
		<polygon clip-path="url(#SVGID_11_)" fill="url(#SVGID_12_)" points="60.771,-7.05 71.494,27.96 35.232,39.026 24.512,4.015 		"/>
	</g>
</g>
<path d="M18.467,21.596c0,2.373-1.604,4.201-2.832,5.24c-0.209,0.17-0.334,0.229-0.471,0.229c-0.16,0-0.41-0.16-0.41-0.469
	c0-0.158,0.113-0.285,0.398-0.535c0.652-0.582,1.131-1.131,1.748-2.262h-0.021c-0.377,0.195-0.744,0.318-1.291,0.318
	c-1.328,0-2.055-1.256-2.055-2.672c0-1.473,1.049-2.65,2.488-2.65C17.436,18.795,18.467,19.973,18.467,21.596 M16.033,19.732
	c-0.996,0-1.432,0.812-1.432,1.76c0,1.072,0.436,1.758,1.432,1.758c0.994,0,1.428-0.822,1.428-1.758
	C17.461,20.545,17.027,19.732,16.033,19.732"/>
<path d="M14.691,13.308c-0.072,0.166-0.188,0.312-0.428,0.312c-0.238,0-0.404-0.146-0.404-0.387c0-0.082,0.041-0.227,0.145-0.457
	l2.844-6.379c0.072-0.166,0.186-0.312,0.426-0.312c0.238,0,0.406,0.146,0.406,0.387c0,0.082-0.043,0.229-0.146,0.457L14.691,13.308z
	"/>
</svg>
