<?xml version="1.0" encoding="utf-8"?>
<!-- Generator: Adobe Illustrator 16.0.4, SVG Export Plug-In . SVG Version: 6.00 Build 0)  -->
<!DOCTYPE svg PUBLIC "-//W3C//DTD SVG 1.1//EN" "http://www.w3.org/Graphics/SVG/1.1/DTD/svg11.dtd">
<svg version="1.1" id="Reference" xmlns="http://www.w3.org/2000/svg" xmlns:xlink="http://www.w3.org/1999/xlink" x="0px" y="0px"
	 width="32px" height="32px" viewBox="0 0 32 32" enable-background="new 0 0 32 32" xml:space="preserve">
<g>
	<g>
		<g>
			<defs>
				<path id="SVGID_793_" d="M4.135,1.57c-1.952,0-3.533,1.582-3.533,3.527v21.828c0,1.951,1.581,3.527,3.533,3.527h23.734
					c1.952,0,3.532-1.576,3.532-3.527V5.098c0-1.945-1.58-3.527-3.532-3.527H4.135z"/>
			</defs>
			<clipPath id="SVGID_2_">
				<use xlink:href="#SVGID_793_"  overflow="visible"/>
			</clipPath>
			
				<linearGradient id="SVGID_3_" gradientUnits="userSpaceOnUse" x1="-499.939" y1="-1461.4512" x2="-498.1984" y2="-1461.4512" gradientTransform="matrix(5.8606 19.1691 19.1691 -5.8606 30955.5312 1017.6846)">
				<stop  offset="0" style="stop-color:#FFFFFF"/>
				<stop  offset="1" style="stop-color:#D0D0D0"/>
			</linearGradient>
			<polygon clip-path="url(#SVGID_2_)" fill="url(#SVGID_3_)" points="28.771,-7.025 39.494,27.984 3.232,39.051 -7.488,4.039 			
				"/>
		</g>
		<path fill="none" stroke="#5C5C5C" stroke-width="0.4351" stroke-linejoin="round" d="M31.403,26.926
			c0,1.953-1.582,3.527-3.532,3.527H4.136c-1.951,0-3.538-1.574-3.538-3.527V5.098c0-1.945,1.587-3.527,3.538-3.527h23.735
			c1.95,0,3.532,1.582,3.532,3.527V26.926z"/>
		<g>
			<defs>
				<path id="SVGID_796_" d="M4.23,2.582c-1.459,0-2.646,1.188-2.646,2.648v21.568c0,1.455,1.188,2.641,2.646,2.641h23.542
					c1.462,0,2.648-1.186,2.648-2.641V5.23c0-1.461-1.187-2.648-2.648-2.648H4.23z"/>
			</defs>
			<clipPath id="SVGID_5_">
				<use xlink:href="#SVGID_796_"  overflow="visible"/>
			</clipPath>
			
				<linearGradient id="SVGID_6_" gradientUnits="userSpaceOnUse" x1="-479.3784" y1="-1429.457" x2="-477.6396" y2="-1429.457" gradientTransform="matrix(0 15.4443 15.4443 0 22092.9688 7406.252)">
				<stop  offset="0" style="stop-color:#FFFFFF"/>
				<stop  offset="1" style="stop-color:#F3F3F3"/>
			</linearGradient>
			<rect x="1.584" y="2.582" clip-path="url(#SVGID_5_)" fill="url(#SVGID_6_)" width="28.837" height="26.857"/>
		</g>
		<path fill="none" stroke="#FAFAFA" stroke-width="0.4351" stroke-linejoin="round" d="M30.421,26.799
			c0,1.455-1.19,2.643-2.648,2.643H4.229c-1.457,0-2.647-1.188-2.647-2.643V5.23c0-1.463,1.19-2.646,2.647-2.646h23.544
			c1.458,0,2.648,1.184,2.648,2.646V26.799z"/>
	</g>
	<g>
		<path d="M8.373,10.355c0,0.303-0.176,0.488-0.455,0.488c-0.281,0-0.459-0.186-0.459-0.488V9.18c0-0.467,0.01-0.553,0.727-0.697
			C9.01,8.316,9.145,7.744,9.145,7.357c0-0.705-0.51-1.145-1.207-1.145c-0.553,0-0.979,0.199-1.207,0.854
			C6.637,7.338,6.512,7.412,6.324,7.412c-0.238,0-0.457-0.188-0.449-0.48C5.92,6.016,6.939,5.359,7.906,5.359
			c1.258,0,2.217,0.812,2.217,1.916c0,1.123-0.707,1.82-1.75,2.041V10.355z M7.918,11.832c0.289,0,0.527,0.24,0.527,0.531
			c0,0.293-0.238,0.531-0.527,0.531c-0.293,0-0.533-0.238-0.533-0.531C7.385,12.072,7.625,11.832,7.918,11.832"/>
		<path d="M6.973,25.979c-0.072,0.166-0.188,0.312-0.428,0.312c-0.238,0-0.404-0.146-0.404-0.387c0-0.082,0.041-0.227,0.145-0.457
			l2.844-6.379c0.072-0.166,0.186-0.312,0.426-0.312c0.238,0,0.406,0.146,0.406,0.387c0,0.082-0.043,0.229-0.146,0.457L6.973,25.979
			z"/>
	</g>
</g>
<g>
	<g>
		<g>
			<defs>
				<path id="SVGID_967_" d="M-27.865,1.57c-1.952,0-3.533,1.582-3.533,3.527v21.828c0,1.951,1.581,3.527,3.533,3.527h23.734
					c1.952,0,3.532-1.576,3.532-3.527V5.098c0-1.945-1.58-3.527-3.532-3.527H-27.865z"/>
			</defs>
			<clipPath id="SVGID_8_">
				<use xlink:href="#SVGID_967_"  overflow="visible"/>
			</clipPath>
			
				<linearGradient id="SVGID_9_" gradientUnits="userSpaceOnUse" x1="-500.4058" y1="-1462.9785" x2="-498.6652" y2="-1462.9785" gradientTransform="matrix(5.8606 19.1691 19.1691 -5.8606 30955.5312 1017.6846)">
				<stop  offset="0" style="stop-color:#FFFFFF"/>
				<stop  offset="1" style="stop-color:#D0D0D0"/>
			</linearGradient>
			<polygon clip-path="url(#SVGID_8_)" fill="url(#SVGID_9_)" points="-3.229,-7.025 7.494,27.984 -28.768,39.051 -39.488,4.039 			
				"/>
		</g>
	</g>
</g>
</svg>
