<?xml version="1.0" encoding="utf-8"?>
<!-- Generator: Adobe Illustrator 16.0.4, SVG Export Plug-In . SVG Version: 6.00 Build 0)  -->
<!DOCTYPE svg PUBLIC "-//W3C//DTD SVG 1.1//EN" "http://www.w3.org/Graphics/SVG/1.1/DTD/svg11.dtd">
<svg version="1.1" id="Reference" xmlns="http://www.w3.org/2000/svg" xmlns:xlink="http://www.w3.org/1999/xlink" x="0px" y="0px"
	 width="32px" height="32px" viewBox="0 0 32 32" enable-background="new 0 0 32 32" xml:space="preserve">
<g>
	<g>
		<g>
			<defs>
				<path id="SVGID_919_" d="M-27.865,1.805c-1.952,0-3.533,1.582-3.533,3.527V27.16c0,1.951,1.581,3.527,3.533,3.527h23.734
					c1.952,0,3.532-1.576,3.532-3.527V5.332c0-1.945-1.58-3.527-3.532-3.527H-27.865z"/>
			</defs>
			<clipPath id="SVGID_2_">
				<use xlink:href="#SVGID_919_"  overflow="visible"/>
			</clipPath>
			
				<linearGradient id="SVGID_3_" gradientUnits="userSpaceOnUse" x1="-473.4409" y1="-1367.1084" x2="-471.7008" y2="-1367.1084" gradientTransform="matrix(5.8606 19.1691 19.1691 -5.8606 28959.7617 1062.8911)">
				<stop  offset="0" style="stop-color:#FFFFFF"/>
				<stop  offset="1" style="stop-color:#D0D0D0"/>
			</linearGradient>
			<polygon clip-path="url(#SVGID_2_)" fill="url(#SVGID_3_)" points="-3.229,-6.791 7.494,28.219 -28.768,39.285 -39.488,4.273 			
				"/>
		</g>
	</g>
</g>
<g>
	<g>
		<g>
			<defs>
				<path id="SVGID_925_" d="M4.135,1.805c-1.952,0-3.533,1.582-3.533,3.527V27.16c0,1.951,1.581,3.527,3.533,3.527h23.734
					c1.952,0,3.532-1.576,3.532-3.527V5.332c0-1.945-1.58-3.527-3.532-3.527H4.135z"/>
			</defs>
			<clipPath id="SVGID_5_">
				<use xlink:href="#SVGID_925_"  overflow="visible"/>
			</clipPath>
			
				<linearGradient id="SVGID_6_" gradientUnits="userSpaceOnUse" x1="-472.9741" y1="-1365.582" x2="-471.234" y2="-1365.582" gradientTransform="matrix(5.8606 19.1691 19.1691 -5.8606 28959.7617 1062.8911)">
				<stop  offset="0" style="stop-color:#FFFFFF"/>
				<stop  offset="1" style="stop-color:#D0D0D0"/>
			</linearGradient>
			<polygon clip-path="url(#SVGID_5_)" fill="url(#SVGID_6_)" points="28.771,-6.791 39.494,28.219 3.232,39.285 -7.488,4.273 			
				"/>
		</g>
		<path fill="none" stroke="#5C5C5C" stroke-width="0.4351" stroke-linejoin="round" d="M31.403,27.16
			c0,1.953-1.582,3.527-3.532,3.527H4.136c-1.951,0-3.538-1.574-3.538-3.527V5.332c0-1.945,1.587-3.527,3.538-3.527h23.735
			c1.95,0,3.532,1.582,3.532,3.527V27.16z"/>
		<g>
			<defs>
				<path id="SVGID_928_" d="M4.23,2.816c-1.459,0-2.646,1.188-2.646,2.648v21.568c0,1.455,1.188,2.641,2.646,2.641h23.542
					c1.462,0,2.648-1.186,2.648-2.641V5.465c0-1.461-1.187-2.648-2.648-2.648H4.23z"/>
			</defs>
			<clipPath id="SVGID_8_">
				<use xlink:href="#SVGID_928_"  overflow="visible"/>
			</clipPath>
			
				<linearGradient id="SVGID_9_" gradientUnits="userSpaceOnUse" x1="-453.5791" y1="-1335.5283" x2="-451.8403" y2="-1335.5283" gradientTransform="matrix(0 15.4443 15.4443 0 20642.3164 7008.0342)">
				<stop  offset="0" style="stop-color:#FFFFFF"/>
				<stop  offset="1" style="stop-color:#F3F3F3"/>
			</linearGradient>
			<rect x="1.584" y="2.816" clip-path="url(#SVGID_8_)" fill="url(#SVGID_9_)" width="28.837" height="26.857"/>
		</g>
		<path fill="none" stroke="#FAFAFA" stroke-width="0.4351" stroke-linejoin="round" d="M30.421,27.033
			c0,1.455-1.19,2.643-2.648,2.643H4.229c-1.457,0-2.647-1.188-2.647-2.643V5.465c0-1.463,1.19-2.646,2.647-2.646h23.544
			c1.458,0,2.648,1.184,2.648,2.646V27.033z"/>
	</g>
	<g>
		<path d="M8.465,7.725c0,0.729,0,1.229,0.486,1.375C9.264,9.193,9.41,9.266,9.41,9.492c0,0.23-0.146,0.314-0.459,0.396
			c-0.486,0.125-0.486,0.646-0.486,1.375v1.271c0,0.717-0.346,1.121-1.062,1.121H7.006c-0.291,0-0.416-0.105-0.416-0.311
			c0-0.209,0.125-0.314,0.416-0.314h0.146c0.271,0,0.459-0.188,0.459-0.496v-1.646c0-1.137,0.58-1.342,0.947-1.383V9.482
			c-0.367-0.041-0.947-0.25-0.947-1.385V6.455c0-0.312-0.188-0.5-0.459-0.5H7.006c-0.291,0-0.416-0.104-0.416-0.312
			c0-0.207,0.125-0.311,0.416-0.311h0.396c0.717,0,1.062,0.404,1.062,1.123V7.725z"/>
		<path d="M7.531,19.873H7.178c-0.219,0-0.395-0.176-0.395-0.395c0-0.217,0.176-0.396,0.395-0.396h0.719
			c0.342,0,0.486,0.219,0.486,0.5v7.326c0,0.279-0.145,0.5-0.486,0.5H7.178c-0.219,0-0.395-0.178-0.395-0.398
			c0-0.217,0.176-0.393,0.395-0.393h0.354V19.873z"/>
	</g>
	<text transform="matrix(1 0 0 1 19.0762 26.5293)" font-family="'MyriadPro-Regular'" font-size="11.2356">ะช</text>
</g>
<g>
	<g>
		<g>
			<defs>
				<path id="SVGID_979_" d="M-27.865,33.57c-1.952,0-3.533,1.582-3.533,3.527v21.828c0,1.951,1.581,3.527,3.533,3.527h23.734
					c1.952,0,3.532-1.576,3.532-3.527V37.098c0-1.945-1.58-3.527-3.532-3.527H-27.865z"/>
			</defs>
			<clipPath id="SVGID_11_">
				<use xlink:href="#SVGID_979_"  overflow="visible"/>
			</clipPath>
			
				<linearGradient id="SVGID_12_" gradientUnits="userSpaceOnUse" x1="-471.9253" y1="-1367.5713" x2="-470.1856" y2="-1367.5713" gradientTransform="matrix(5.8606 19.1691 19.1691 -5.8606 28959.7617 1062.8911)">
				<stop  offset="0" style="stop-color:#FFFFFF"/>
				<stop  offset="1" style="stop-color:#D0D0D0"/>
			</linearGradient>
			<polygon clip-path="url(#SVGID_11_)" fill="url(#SVGID_12_)" points="-3.229,24.975 7.494,59.984 -28.768,71.051 -39.488,36.039 
							"/>
		</g>
	</g>
</g>
<g>
	<g>
		<g>
			<defs>
				<path id="SVGID_985_" d="M4.135,33.57c-1.952,0-3.533,1.582-3.533,3.527v21.828c0,1.951,1.581,3.527,3.533,3.527h23.734
					c1.952,0,3.532-1.576,3.532-3.527V37.098c0-1.945-1.58-3.527-3.532-3.527H4.135z"/>
			</defs>
			<clipPath id="SVGID_14_">
				<use xlink:href="#SVGID_985_"  overflow="visible"/>
			</clipPath>
			
				<linearGradient id="SVGID_15_" gradientUnits="userSpaceOnUse" x1="-471.459" y1="-1366.0449" x2="-469.7189" y2="-1366.0449" gradientTransform="matrix(5.8606 19.1691 19.1691 -5.8606 28959.7617 1062.8911)">
				<stop  offset="0" style="stop-color:#FFFFFF"/>
				<stop  offset="1" style="stop-color:#D0D0D0"/>
			</linearGradient>
			<polygon clip-path="url(#SVGID_14_)" fill="url(#SVGID_15_)" points="28.771,24.975 39.494,59.984 3.232,71.051 -7.488,36.039 
							"/>
		</g>
	</g>
</g>
<g>
	<g>
		<g>
			<defs>
				<path id="SVGID_991_" d="M36.135,33.57c-1.952,0-3.533,1.582-3.533,3.527v21.828c0,1.951,1.581,3.527,3.533,3.527h23.734
					c1.952,0,3.532-1.576,3.532-3.527V37.098c0-1.945-1.58-3.527-3.532-3.527H36.135z"/>
			</defs>
			<clipPath id="SVGID_17_">
				<use xlink:href="#SVGID_991_"  overflow="visible"/>
			</clipPath>
			
				<linearGradient id="SVGID_18_" gradientUnits="userSpaceOnUse" x1="-470.9922" y1="-1364.5176" x2="-469.2521" y2="-1364.5176" gradientTransform="matrix(5.8606 19.1691 19.1691 -5.8606 28959.7617 1062.8911)">
				<stop  offset="0" style="stop-color:#FFFFFF"/>
				<stop  offset="1" style="stop-color:#D0D0D0"/>
			</linearGradient>
			<polygon clip-path="url(#SVGID_17_)" fill="url(#SVGID_18_)" points="60.771,24.975 71.494,59.984 35.232,71.051 24.512,36.039 
							"/>
		</g>
	</g>
</g>
<g>
	<g>
		<g>
			<defs>
				<path id="SVGID_1039_" d="M36.135-30.096c-1.952,0-3.533,1.582-3.533,3.527V-4.74c0,1.951,1.581,3.527,3.533,3.527h23.734
					c1.952,0,3.532-1.576,3.532-3.527v-21.828c0-1.945-1.58-3.527-3.532-3.527H36.135z"/>
			</defs>
			<clipPath id="SVGID_20_">
				<use xlink:href="#SVGID_1039_"  overflow="visible"/>
			</clipPath>
			
				<linearGradient id="SVGID_21_" gradientUnits="userSpaceOnUse" x1="-474.0293" y1="-1363.5898" x2="-472.2892" y2="-1363.5898" gradientTransform="matrix(5.8606 19.1691 19.1691 -5.8606 28959.7617 1062.8911)">
				<stop  offset="0" style="stop-color:#FFFFFF"/>
				<stop  offset="1" style="stop-color:#D0D0D0"/>
			</linearGradient>
			<polygon clip-path="url(#SVGID_20_)" fill="url(#SVGID_21_)" points="60.771,-38.691 71.494,-3.682 35.232,7.385 24.512,-27.627 
							"/>
		</g>
	</g>
</g>
</svg>
