<?xml version="1.0" encoding="utf-8"?>
<!-- Generator: Adobe Illustrator 16.0.0, SVG Export Plug-In . SVG Version: 6.00 Build 0)  -->
<!DOCTYPE svg PUBLIC "-//W3C//DTD SVG 1.1//EN" "http://www.w3.org/Graphics/SVG/1.1/DTD/svg11.dtd">
<svg version="1.1" id="Layer_1" xmlns="http://www.w3.org/2000/svg" xmlns:xlink="http://www.w3.org/1999/xlink" x="0px" y="0px"
	 width="32px" height="32px" viewBox="0 0 32 32" enable-background="new 0 0 32 32" xml:space="preserve">
<g id="Layer_3" display="none">
</g>
<g id="Layer_2">
	<g display="none">
		<g display="inline">
			<g>
				<defs>
					<path id="SVGID_1_" d="M-27.183-27.799c-2.331,0-4.22,1.889-4.22,4.223v15.16c0,2.322,1.889,4.215,4.22,4.215h22.365
						c2.331,0,4.221-1.893,4.221-4.215v-15.16c0-2.334-1.89-4.223-4.221-4.223H-27.183z"/>
				</defs>
				<clipPath id="SVGID_2_">
					<use xlink:href="#SVGID_1_"  overflow="visible"/>
				</clipPath>
				
					<linearGradient id="SVGID_3_" gradientUnits="userSpaceOnUse" x1="-490.0146" y1="667.8184" x2="-487.8092" y2="667.8184" gradientTransform="matrix(4.3973 14.3829 -14.3829 4.3973 11739.0361 4079.27)">
					<stop  offset="0" style="stop-color:#FFFFFF"/>
					<stop  offset="1" style="stop-color:#D0CFD0"/>
				</linearGradient>
				<polygon clip-path="url(#SVGID_2_)" fill="url(#SVGID_3_)" points="-4.548,-38.129 6,-6.219 -28.181,6.129 -38,-25.779 				"/>
			</g>
		</g>
	</g>
	<g display="none">
		<g display="inline">
			<g>
				<defs>
					<path id="SVGID_4_" d="M4.817-27.799c-2.331,0-4.22,1.889-4.22,4.223v15.16c0,2.322,1.889,4.215,4.22,4.215h22.365
						c2.332,0,4.221-1.893,4.221-4.215v-15.16c0-2.334-1.889-4.223-4.221-4.223H4.817z"/>
				</defs>
				<clipPath id="SVGID_5_">
					<use xlink:href="#SVGID_4_"  overflow="visible"/>
				</clipPath>
				
					<linearGradient id="SVGID_6_" gradientUnits="userSpaceOnUse" x1="-489.3926" y1="665.7842" x2="-487.1872" y2="665.7842" gradientTransform="matrix(4.3973 14.3829 -14.3829 4.3973 11739.0361 4079.27)">
					<stop  offset="0" style="stop-color:#FFFFFF"/>
					<stop  offset="1" style="stop-color:#D0CFD0"/>
				</linearGradient>
				<polygon clip-path="url(#SVGID_5_)" fill="url(#SVGID_6_)" points="27.452,-38.129 38,-6.219 3.819,6.129 -6,-25.779 				"/>
			</g>
		</g>
	</g>
	<g display="none">
		<g display="inline">
			<g>
				<defs>
					<path id="SVGID_7_" d="M36.816-27.799c-2.33,0-4.219,1.889-4.219,4.223v15.16c0,2.322,1.889,4.215,4.219,4.215h22.365
						c2.332,0,4.221-1.893,4.221-4.215v-15.16c0-2.334-1.889-4.223-4.221-4.223H36.816z"/>
				</defs>
				<clipPath id="SVGID_8_">
					<use xlink:href="#SVGID_7_"  overflow="visible"/>
				</clipPath>
				
					<linearGradient id="SVGID_9_" gradientUnits="userSpaceOnUse" x1="-488.7705" y1="663.75" x2="-486.5652" y2="663.75" gradientTransform="matrix(4.3973 14.3829 -14.3829 4.3973 11739.0361 4079.27)">
					<stop  offset="0" style="stop-color:#FFFFFF"/>
					<stop  offset="1" style="stop-color:#D0CFD0"/>
				</linearGradient>
				<polygon clip-path="url(#SVGID_8_)" fill="url(#SVGID_9_)" points="59.452,-38.129 70,-6.219 35.818,6.129 26,-25.779 				"/>
			</g>
		</g>
	</g>
</g>
<g id="Language_specific">
	<g>
		<g>
			<g>
				<g>
					<defs>
						<path id="SVGID_10_" d="M4.135,1.559c-1.952,0-3.533,1.582-3.533,3.527v21.828c0,1.951,1.581,3.527,3.533,3.527h23.734
							c1.951,0,3.531-1.576,3.531-3.527V5.086c0-1.945-1.58-3.527-3.531-3.527H4.135z"/>
					</defs>
					<clipPath id="SVGID_11_">
						<use xlink:href="#SVGID_10_"  overflow="visible"/>
					</clipPath>
					
						<linearGradient id="SVGID_12_" gradientUnits="userSpaceOnUse" x1="-513.209" y1="673.7754" x2="-511.4689" y2="673.7754" gradientTransform="matrix(5.8606 19.1691 -19.1691 5.8606 15934.2861 5888.3096)">
						<stop  offset="0" style="stop-color:#FFFFFF"/>
						<stop  offset="1" style="stop-color:#D0D0D0"/>
					</linearGradient>
					<polygon clip-path="url(#SVGID_11_)" fill="url(#SVGID_12_)" points="28.771,-7.037 39.494,27.973 3.232,39.039 -7.488,4.027 
											"/>
				</g>
			</g>
			<path fill="none" stroke="#5C5C5C" stroke-width="0.4351" stroke-linejoin="round" d="M31.402,26.914
				c0,1.953-1.582,3.527-3.531,3.527H4.136c-1.951,0-3.538-1.574-3.538-3.527V5.086c0-1.945,1.587-3.527,3.538-3.527h23.735
				c1.949,0,3.531,1.582,3.531,3.527V26.914z"/>
			<g>
				<g>
					<defs>
						<path id="SVGID_13_" d="M4.23,2.57c-1.459,0-2.646,1.188-2.646,2.648v21.568c0,1.455,1.188,2.641,2.646,2.641h23.542
							c1.463,0,2.648-1.186,2.648-2.641V5.219c0-1.461-1.188-2.648-2.648-2.648L4.23,2.57L4.23,2.57z"/>
					</defs>
					<clipPath id="SVGID_14_">
						<use xlink:href="#SVGID_13_"  overflow="visible"/>
					</clipPath>
					
						<linearGradient id="SVGID_15_" gradientUnits="userSpaceOnUse" x1="-503.4873" y1="642.7627" x2="-501.7485" y2="642.7627" gradientTransform="matrix(0 15.4443 -15.4443 0 9943.0186 7778.5835)">
						<stop  offset="0" style="stop-color:#FFFFFF"/>
						<stop  offset="1" style="stop-color:#F3F3F3"/>
					</linearGradient>
					<rect x="1.584" y="2.57" clip-path="url(#SVGID_14_)" fill="url(#SVGID_15_)" width="28.837" height="26.857"/>
				</g>
			</g>
			<path fill="none" stroke="#FAFAFA" stroke-width="0.4351" stroke-linejoin="round" d="M30.421,26.787
				c0,1.455-1.19,2.643-2.647,2.643H4.229c-1.457,0-2.647-1.188-2.647-2.643V5.219c0-1.463,1.19-2.646,2.647-2.646h23.544
				c1.457,0,2.647,1.184,2.647,2.646V26.787z"/>
		</g>
		<path d="M15.57,20.088c0-0.262,0.135-0.449,0.43-0.449s0.43,0.188,0.43,0.449v1.771h1.771c0.262,0,0.449,0.137,0.449,0.43
			c0,0.295-0.188,0.43-0.449,0.43H16.43v1.771c0,0.264-0.135,0.451-0.43,0.451s-0.43-0.188-0.43-0.451v-1.771h-1.771
			c-0.262,0-0.449-0.135-0.449-0.43c0-0.293,0.188-0.43,0.449-0.43h1.771V20.088z"/>
		<path d="M14.318,8.322c-0.266-0.115-0.289-0.24-0.289-0.402c0-0.229,0.188-0.428,0.439-0.428c0.314,0,0.729,0.463,1.219,0.816
			c0-0.453-0.139-0.967-0.139-1.307c0-0.236,0.164-0.439,0.451-0.439c0.289,0,0.455,0.203,0.455,0.439
			c0,0.34-0.141,0.854-0.141,1.307c0.492-0.354,0.904-0.816,1.219-0.816c0.252,0,0.438,0.199,0.438,0.428
			c0,0.162-0.027,0.287-0.289,0.402l-1.115,0.465l1.115,0.463c0.262,0.113,0.289,0.24,0.289,0.404c0,0.225-0.188,0.428-0.438,0.428
			c-0.314,0-0.728-0.467-1.219-0.818c0,0.451,0.141,0.967,0.141,1.307c0,0.238-0.166,0.439-0.455,0.439
			c-0.287,0-0.451-0.201-0.451-0.439c0-0.34,0.139-0.855,0.139-1.307c-0.49,0.352-0.904,0.818-1.219,0.818
			c-0.252,0-0.439-0.203-0.439-0.428c0-0.164,0.023-0.291,0.289-0.404l1.115-0.463L14.318,8.322z"/>
	</g>
</g>
<g id="Layer_5">
</g>
</svg>
