<?xml version="1.0" encoding="utf-8"?>
<!-- Generator: Adobe Illustrator 16.0.0, SVG Export Plug-In . SVG Version: 6.00 Build 0)  -->
<!DOCTYPE svg PUBLIC "-//W3C//DTD SVG 1.1//EN" "http://www.w3.org/Graphics/SVG/1.1/DTD/svg11.dtd">
<svg version="1.1" id="Layer_1" xmlns="http://www.w3.org/2000/svg" xmlns:xlink="http://www.w3.org/1999/xlink" x="0px" y="0px"
	 width="32px" height="32px" viewBox="0 0 32 32" enable-background="new 0 0 32 32" xml:space="preserve">
<g id="Layer_3" display="none">
</g>
<g id="Layer_2">
</g>
<g id="Layer_1_1_">
	<g>
		<g>
			<g>
				<g>
					<defs>
						<path id="SVGID_1_" d="M4.134,1.559c-1.952,0-3.533,1.582-3.533,3.527v21.828c0,1.951,1.581,3.527,3.533,3.527h23.734
							c1.952,0,3.532-1.576,3.532-3.527V5.086c0-1.945-1.58-3.527-3.532-3.527H4.134z"/>
					</defs>
					<clipPath id="SVGID_2_">
						<use xlink:href="#SVGID_1_"  overflow="visible"/>
					</clipPath>
					
						<linearGradient id="SVGID_3_" gradientUnits="userSpaceOnUse" x1="-52.0356" y1="696.1035" x2="-50.295" y2="696.1035" gradientTransform="matrix(5.8606 19.1691 -19.1691 5.8606 13659.5283 -3082.8313)">
						<stop  offset="0" style="stop-color:#FFFFFF"/>
						<stop  offset="1" style="stop-color:#D0D0D0"/>
					</linearGradient>
					<polygon clip-path="url(#SVGID_2_)" fill="url(#SVGID_3_)" points="28.771,-7.037 39.494,27.973 3.232,39.039 -7.489,4.027 
											"/>
				</g>
			</g>
			<path fill="none" stroke="#5C5C5C" stroke-width="0.4351" stroke-linejoin="round" d="M31.402,26.914
				c0,1.953-1.582,3.527-3.531,3.527H4.135c-1.951,0-3.538-1.574-3.538-3.527V5.086c0-1.945,1.587-3.527,3.538-3.527H27.87
				c1.95,0,3.532,1.582,3.532,3.527V26.914L31.402,26.914z"/>
			<g>
				<g>
					<defs>
						<path id="SVGID_4_" d="M4.23,2.57c-1.459,0-2.646,1.188-2.646,2.648v21.568c0,1.455,1.188,2.641,2.646,2.641h23.542
							c1.463,0,2.648-1.186,2.648-2.641V5.219c0-1.461-1.188-2.648-2.648-2.648L4.23,2.57L4.23,2.57z"/>
					</defs>
					<clipPath id="SVGID_5_">
						<use xlink:href="#SVGID_4_"  overflow="visible"/>
					</clipPath>
					
						<linearGradient id="SVGID_6_" gradientUnits="userSpaceOnUse" x1="-35.4873" y1="673.0654" x2="-33.7485" y2="673.0654" gradientTransform="matrix(0 15.4443 -15.4443 0 10411.0186 550.6539)">
						<stop  offset="0" style="stop-color:#FFFFFF"/>
						<stop  offset="1" style="stop-color:#F3F3F3"/>
					</linearGradient>
					<rect x="1.583" y="2.57" clip-path="url(#SVGID_5_)" fill="url(#SVGID_6_)" width="28.837" height="26.857"/>
				</g>
			</g>
			<path fill="none" stroke="#FAFAFA" stroke-width="0.4351" stroke-linejoin="round" d="M30.42,26.787
				c0,1.455-1.189,2.643-2.648,2.643H4.228c-1.457,0-2.647-1.188-2.647-2.643V5.219c0-1.463,1.19-2.646,2.647-2.646h23.543
				c1.459,0,2.648,1.184,2.648,2.646V26.787z"/>
		</g>
		<g>
			<path d="M18.104,25.453c0.238,0,0.432,0.191,0.432,0.43c0,0.242-0.192,0.436-0.432,0.436H14.16c-0.423,0-0.546-0.237-0.546-0.407
				c0-0.129,0.046-0.222,0.217-0.457l2.81-3.759c0.344-0.444,0.596-0.948,0.596-1.438c0-0.741-0.562-1.268-1.292-1.268
				c-0.971,0-1.485,0.821-1.485,1.838c0,0.354-0.227,0.457-0.443,0.457c-0.32,0-0.49-0.193-0.49-0.617
				c0-1.349,0.91-2.547,2.59-2.547c1.347,0,2.193,0.971,2.193,2.021c0,0.471-0.033,0.994-0.562,1.68l-2.727,3.634L18.104,25.453
				L18.104,25.453z"/>
			<path d="M17.552,10.318c-0.043,0.16-0.091,0.322-0.091,0.467c0,0.195,0.091,0.334,0.32,0.334c0.729,0,1.507-1.084,1.507-2.262
				c0-1.773-1.499-2.787-3.131-2.787c-1.977,0-3.448,1.496-3.448,3.381c0,1.986,1.531,3.381,3.551,3.381
				c1.932,0,2.391-1.256,3.028-1.256c0.157,0,0.286,0.102,0.286,0.262c0,0.629-1.883,1.748-3.393,1.748
				c-2.41,0-4.339-1.807-4.339-4.135c0-2.32,1.955-4.135,4.314-4.135c2.16,0,3.998,1.383,3.998,3.402
				c0,2.217-1.815,3.176-2.831,3.176c-0.459,0-0.722-0.205-0.8-0.652h-0.026c-0.306,0.344-0.809,0.652-1.312,0.652
				c-0.981,0-1.726-0.811-1.726-1.793c0-1.449,1.04-2.959,2.587-2.959c0.556,0,1.039,0.242,1.333,0.857l0.148-0.457
				c0.08-0.25,0.218-0.33,0.457-0.33c0.183,0,0.365,0.068,0.365,0.252c0,0.078-0.026,0.17-0.092,0.408L17.552,10.318z
				 M15.404,11.027c1.134,0,1.557-1.553,1.557-2.193c0-0.559-0.287-0.822-0.858-0.822c-1.094,0-1.634,1.129-1.634,1.986
				C14.468,10.604,14.893,11.027,15.404,11.027"/>
		</g>
	</g>
</g>
<g id="Language_specific">
</g>
<g id="Layer_5">
</g>
</svg>
