<?xml version="1.0" encoding="utf-8"?>
<!-- Generator: Adobe Illustrator 16.0.4, SVG Export Plug-In . SVG Version: 6.00 Build 0)  -->
<!DOCTYPE svg PUBLIC "-//W3C//DTD SVG 1.1//EN" "http://www.w3.org/Graphics/SVG/1.1/DTD/svg11.dtd">
<svg version="1.1" id="Reference" xmlns="http://www.w3.org/2000/svg" xmlns:xlink="http://www.w3.org/1999/xlink" x="0px" y="0px"
	 width="32px" height="32px" viewBox="0 0 32 32" enable-background="new 0 0 32 32" xml:space="preserve">
<g>
	<g>
		<g>
			<defs>
				<path id="SVGID_775_" d="M-27.865,1.805c-1.952,0-3.533,1.582-3.533,3.527V27.16c0,1.951,1.581,3.527,3.533,3.527h23.734
					c1.952,0,3.532-1.576,3.532-3.527V5.332c0-1.945-1.58-3.527-3.532-3.527H-27.865z"/>
			</defs>
			<clipPath id="SVGID_2_">
				<use xlink:href="#SVGID_775_"  overflow="visible"/>
			</clipPath>
			
				<linearGradient id="SVGID_3_" gradientUnits="userSpaceOnUse" x1="-350.3613" y1="-1308.2812" x2="-348.6212" y2="-1308.2812" gradientTransform="matrix(5.8606 19.1691 19.1691 -5.8606 27110.7812 -951.6753)">
				<stop  offset="0" style="stop-color:#FFFFFF"/>
				<stop  offset="1" style="stop-color:#D0D0D0"/>
			</linearGradient>
			<polygon clip-path="url(#SVGID_2_)" fill="url(#SVGID_3_)" points="-3.229,-6.791 7.494,28.219 -28.768,39.285 -39.488,4.273 			
				"/>
		</g>
	</g>
</g>
<g>
	<g>
		<g>
			<defs>
				<path id="SVGID_799_" d="M36.135,1.805c-1.952,0-3.533,1.582-3.533,3.527V27.16c0,1.951,1.581,3.527,3.533,3.527h23.734
					c1.952,0,3.532-1.576,3.532-3.527V5.332c0-1.945-1.58-3.527-3.532-3.527H36.135z"/>
			</defs>
			<clipPath id="SVGID_5_">
				<use xlink:href="#SVGID_799_"  overflow="visible"/>
			</clipPath>
			
				<linearGradient id="SVGID_6_" gradientUnits="userSpaceOnUse" x1="-349.4277" y1="-1305.2285" x2="-347.6876" y2="-1305.2285" gradientTransform="matrix(5.8606 19.1691 19.1691 -5.8606 27110.7812 -951.6753)">
				<stop  offset="0" style="stop-color:#FFFFFF"/>
				<stop  offset="1" style="stop-color:#D0D0D0"/>
			</linearGradient>
			<polygon clip-path="url(#SVGID_5_)" fill="url(#SVGID_6_)" points="60.771,-6.791 71.494,28.219 35.232,39.285 24.512,4.273 			
				"/>
		</g>
	</g>
</g>
<g>
	<g>
		<g>
			<defs>
				<path id="SVGID_811_" d="M4.135,1.805c-1.952,0-3.533,1.582-3.533,3.527V27.16c0,1.951,1.581,3.527,3.533,3.527h23.734
					c1.952,0,3.532-1.576,3.532-3.527V5.332c0-1.945-1.58-3.527-3.532-3.527H4.135z"/>
			</defs>
			<clipPath id="SVGID_8_">
				<use xlink:href="#SVGID_811_"  overflow="visible"/>
			</clipPath>
			
				<linearGradient id="SVGID_9_" gradientUnits="userSpaceOnUse" x1="-349.8945" y1="-1306.7549" x2="-348.1544" y2="-1306.7549" gradientTransform="matrix(5.8606 19.1691 19.1691 -5.8606 27110.7812 -951.6753)">
				<stop  offset="0" style="stop-color:#FFFFFF"/>
				<stop  offset="1" style="stop-color:#D0D0D0"/>
			</linearGradient>
			<polygon clip-path="url(#SVGID_8_)" fill="url(#SVGID_9_)" points="28.771,-6.791 39.494,28.219 3.232,39.285 -7.488,4.273 			
				"/>
		</g>
		<path fill="none" stroke="#5C5C5C" stroke-width="0.4351" stroke-linejoin="round" d="M31.403,27.16
			c0,1.953-1.582,3.527-3.532,3.527H4.136c-1.951,0-3.538-1.574-3.538-3.527V5.332c0-1.945,1.587-3.527,3.538-3.527h23.735
			c1.95,0,3.532,1.582,3.532,3.527V27.16z"/>
		<g>
			<defs>
				<path id="SVGID_814_" d="M4.23,2.816c-1.459,0-2.646,1.188-2.646,2.648v21.568c0,1.455,1.188,2.641,2.646,2.641h23.542
					c1.462,0,2.648-1.186,2.648-2.641V5.465c0-1.461-1.187-2.648-2.648-2.648H4.23z"/>
			</defs>
			<clipPath id="SVGID_11_">
				<use xlink:href="#SVGID_814_"  overflow="visible"/>
			</clipPath>
			
				<linearGradient id="SVGID_12_" gradientUnits="userSpaceOnUse" x1="-329.7231" y1="-1279.8164" x2="-327.9844" y2="-1279.8164" gradientTransform="matrix(0 15.4443 15.4443 0 19781.8809 5095.1641)">
				<stop  offset="0" style="stop-color:#FFFFFF"/>
				<stop  offset="1" style="stop-color:#F3F3F3"/>
			</linearGradient>
			<rect x="1.584" y="2.816" clip-path="url(#SVGID_11_)" fill="url(#SVGID_12_)" width="28.837" height="26.857"/>
		</g>
		<path fill="none" stroke="#FAFAFA" stroke-width="0.4351" stroke-linejoin="round" d="M30.421,27.033
			c0,1.455-1.19,2.643-2.648,2.643H4.229c-1.457,0-2.647-1.188-2.647-2.643V5.465c0-1.463,1.19-2.646,2.647-2.646h23.544
			c1.458,0,2.648,1.184,2.648,2.646V27.033z"/>
	</g>
	<path d="M4.248,7.135c0-1.02,0.592-1.932,1.734-1.932c1.146,0,1.736,0.912,1.736,1.932c0,1.016-0.59,1.928-1.736,1.928
		C4.84,9.062,4.248,8.15,4.248,7.135 M6.967,7.135c0-0.607-0.256-1.314-0.984-1.314C5.248,5.82,5,6.527,5,7.135
		c0,0.604,0.248,1.312,0.982,1.312C6.711,8.447,6.967,7.738,6.967,7.135 M9.193,5.455c0.104-0.24,0.213-0.344,0.398-0.344
		c0.275,0,0.398,0.172,0.398,0.309c0,0.092-0.033,0.195-0.16,0.514l-3.035,7.287c-0.102,0.24-0.217,0.344-0.426,0.344
		c-0.252,0-0.373-0.158-0.373-0.309c0-0.092,0.031-0.207,0.158-0.516L9.193,5.455z M8.277,11.541c0-1.016,0.598-1.928,1.734-1.928
		c1.145,0,1.738,0.912,1.738,1.928c0,1.018-0.594,1.932-1.738,1.932C8.875,13.473,8.277,12.559,8.277,11.541 M10.996,11.541
		c0-0.604-0.252-1.312-0.984-1.312c-0.729,0-0.979,0.709-0.979,1.312c0,0.605,0.25,1.314,0.979,1.314
		C10.744,12.855,10.996,12.146,10.996,11.541"/>
	<path d="M7.211,21.936c0.334-0.17,0.699-0.229,1.074-0.229c1.27,0,2.08,1.201,2.08,2.469c0,1.746-0.992,2.889-2.639,2.889
		c-1.346,0-2.287-0.855-2.287-1.348c0-0.205,0.117-0.434,0.367-0.434c0.412,0,0.777,0.844,1.932,0.844
		c0.971,0,1.553-0.809,1.553-1.758c0-0.959-0.422-1.725-1.406-1.725c-0.742,0-1.096,0.311-1.381,0.311
		c-0.238,0-0.342-0.152-0.342-0.311c0-0.125,0.049-0.422,0.08-0.674l0.42-2.842c0.037-0.207,0.143-0.264,0.379-0.264h2.82
		c0.244,0,0.434,0.195,0.434,0.436c0,0.238-0.189,0.434-0.434,0.434H7.545L7.211,21.936z"/>
	<path d="M24.48,19.841c0.379,0,0.689,0.309,0.689,0.688c0,0.381-0.311,0.691-0.689,0.691s-0.689-0.311-0.689-0.691
		C23.791,20.149,24.102,19.841,24.48,19.841 M24.48,24.38c0.379,0,0.689,0.311,0.689,0.691c0,0.377-0.311,0.688-0.689,0.688
		s-0.689-0.311-0.689-0.688C23.791,24.69,24.102,24.38,24.48,24.38"/>
</g>
</svg>
