<?xml version="1.0" encoding="utf-8"?>
<!-- Generator: Adobe Illustrator 16.0.0, SVG Export Plug-In . SVG Version: 6.00 Build 0)  -->
<!DOCTYPE svg PUBLIC "-//W3C//DTD SVG 1.1//EN" "http://www.w3.org/Graphics/SVG/1.1/DTD/svg11.dtd">
<svg version="1.1" id="Layer_1" xmlns="http://www.w3.org/2000/svg" xmlns:xlink="http://www.w3.org/1999/xlink" x="0px" y="0px"
	 width="32px" height="32px" viewBox="0 0 32 32" enable-background="new 0 0 32 32" xml:space="preserve">
<g id="Layer_3" display="none">
</g>
<g id="Layer_2">
</g>
<g id="Layer_1_1_">
</g>
<g id="Language_specific">
	<g>
		<g>
			<g>
				<g>
					<defs>
						<path id="SVGID_1_" d="M4.135,1.559c-1.953,0-3.533,1.582-3.533,3.527v21.828c0,1.951,1.58,3.527,3.533,3.527h23.734
							c1.951,0,3.531-1.576,3.531-3.527V5.086c0-1.945-1.58-3.527-3.531-3.527H4.135z"/>
					</defs>
					<clipPath id="SVGID_2_">
						<use xlink:href="#SVGID_1_"  overflow="visible"/>
					</clipPath>
					
						<linearGradient id="SVGID_3_" gradientUnits="userSpaceOnUse" x1="-1423.8403" y1="708.3203" x2="-1422.1002" y2="708.3203" gradientTransform="matrix(5.8606 19.1691 -19.1691 5.8606 21933.3105 23141.8379)">
						<stop  offset="0" style="stop-color:#FFFFFF"/>
						<stop  offset="1" style="stop-color:#D0D0D0"/>
					</linearGradient>
					<polygon clip-path="url(#SVGID_2_)" fill="url(#SVGID_3_)" points="28.771,-7.037 39.494,27.973 3.232,39.039 -7.488,4.027 
											"/>
				</g>
			</g>
			<path fill="none" stroke="#5C5C5C" stroke-width="0.4351" stroke-linejoin="round" d="M31.402,26.914
				c0,1.953-1.582,3.527-3.531,3.527H4.135c-1.951,0-3.537-1.574-3.537-3.527V5.086c0-1.945,1.586-3.527,3.537-3.527h23.736
				c1.949,0,3.531,1.582,3.531,3.527V26.914z"/>
			<g>
				<g>
					<defs>
						<path id="SVGID_4_" d="M4.23,2.57c-1.459,0-2.646,1.188-2.646,2.648v21.568c0,1.455,1.188,2.641,2.646,2.641h23.542
							c1.463,0,2.647-1.186,2.647-2.641V5.219c0-1.461-1.187-2.648-2.647-2.648L4.23,2.57L4.23,2.57z"/>
					</defs>
					<clipPath id="SVGID_5_">
						<use xlink:href="#SVGID_4_"  overflow="visible"/>
					</clipPath>
					
						<linearGradient id="SVGID_6_" gradientUnits="userSpaceOnUse" x1="-1426.4873" y1="662.8564" x2="-1424.7485" y2="662.8564" gradientTransform="matrix(0 15.4443 -15.4443 0 10253.3496 22033.6719)">
						<stop  offset="0" style="stop-color:#FFFFFF"/>
						<stop  offset="1" style="stop-color:#F3F3F3"/>
					</linearGradient>
					<rect x="1.584" y="2.57" clip-path="url(#SVGID_5_)" fill="url(#SVGID_6_)" width="28.836" height="26.857"/>
				</g>
			</g>
			<path fill="none" stroke="#FAFAFA" stroke-width="0.4351" stroke-linejoin="round" d="M30.42,26.787
				c0,1.455-1.189,2.643-2.648,2.643H4.229c-1.457,0-2.648-1.188-2.648-2.643V5.219c0-1.463,1.191-2.646,2.648-2.646h23.542
				c1.459,0,2.648,1.184,2.648,2.646V26.787z"/>
		</g>
		<path d="M14.318,7.822c-0.266-0.115-0.289-0.24-0.289-0.402c0-0.229,0.188-0.428,0.439-0.428c0.314,0,0.729,0.463,1.219,0.816
			c0-0.453-0.139-0.967-0.139-1.307c0-0.236,0.164-0.439,0.451-0.439c0.289,0,0.455,0.203,0.455,0.439
			c0,0.34-0.141,0.854-0.141,1.307c0.492-0.354,0.904-0.816,1.219-0.816c0.252,0,0.438,0.199,0.438,0.428
			c0,0.162-0.027,0.287-0.289,0.402l-1.115,0.465l1.115,0.463c0.262,0.113,0.289,0.24,0.289,0.404c0,0.225-0.188,0.428-0.438,0.428
			c-0.314,0-0.728-0.467-1.219-0.818c0,0.451,0.141,0.967,0.141,1.307c0,0.238-0.166,0.439-0.455,0.439
			c-0.287,0-0.451-0.201-0.451-0.439c0-0.34,0.139-0.855,0.139-1.307c-0.49,0.352-0.904,0.818-1.219,0.818
			c-0.252,0-0.439-0.203-0.439-0.428c0-0.164,0.023-0.291,0.289-0.404l1.115-0.463L14.318,7.822z"/>
		<g enable-background="new    ">
			<path d="M15.705,22.188c-0.956-0.326-1.995-0.662-1.995-1.974c0-0.829,0.735-1.806,1.995-1.921v-0.494
				c0-0.126,0.084-0.221,0.22-0.221c0.137,0,0.221,0.095,0.221,0.221v0.494c0.84,0.062,1.606,0.43,1.606,0.871
				c0,0.221-0.168,0.409-0.399,0.409c-0.367,0-0.515-0.378-1.207-0.483v2.3c0.977,0.347,2.1,0.724,2.1,2.142
				c0,1.123-0.745,2.152-2.1,2.32v0.535c0,0.126-0.084,0.221-0.221,0.221c-0.136,0-0.22-0.095-0.22-0.221v-0.494
				c-1.071,0-2.068-0.482-2.068-0.934c0-0.221,0.126-0.441,0.367-0.441c0.389,0,0.767,0.578,1.701,0.578V22.188z M15.705,19.09
				c-0.588,0.074-1.008,0.483-1.008,1.061c0,0.578,0.43,0.851,1.008,1.071V19.09z M16.146,25.043
				c0.703-0.147,1.112-0.725,1.112-1.47c0-0.693-0.504-0.997-1.112-1.229V25.043z"/>
		</g>
		<g enable-background="new    ">
			<path d="M26.8,19.101c-0.24-0.23-0.649-0.427-1.255-0.427c-0.925,0-1.387,0.649-1.494,1.584h2.402l-0.205,0.596h-2.269
				c-0.009,0.089-0.009,0.214-0.009,0.312c0,0.115,0,0.249,0.009,0.329h2.046l-0.204,0.596h-1.771
				c0.125,1.059,0.641,1.619,1.504,1.619c0.596,0,0.987-0.195,1.245-0.427v0.773c-0.196,0.16-0.667,0.339-1.353,0.339
				c-1.191,0-1.966-0.712-2.17-2.305h-0.65l0.196-0.596h0.392c-0.01-0.08-0.01-0.214-0.01-0.329c0-0.106,0-0.223,0.01-0.312h-0.588
				l0.196-0.596h0.444c0.178-1.361,0.828-2.286,2.18-2.286c0.65,0,1.13,0.195,1.353,0.364V19.101z"/>
		</g>
	</g>
</g>
<g id="Layer_5">
</g>
</svg>
