<?xml version="1.0" encoding="utf-8"?>
<!-- Generator: Adobe Illustrator 16.0.0, SVG Export Plug-In . SVG Version: 6.00 Build 0)  -->
<!DOCTYPE svg PUBLIC "-//W3C//DTD SVG 1.1//EN" "http://www.w3.org/Graphics/SVG/1.1/DTD/svg11.dtd">
<svg version="1.1" id="Reference" xmlns="http://www.w3.org/2000/svg" xmlns:xlink="http://www.w3.org/1999/xlink" x="0px" y="0px"
	 width="32px" height="32px" viewBox="0 0 32 32" enable-background="new 0 0 32 32" xml:space="preserve">
<g>
	<g>
		<g>
			<defs>
				<path id="SVGID_1_" d="M4.135,1.546c-1.952,0-3.533,1.582-3.533,3.527V26.9c0,1.951,1.581,3.527,3.533,3.527h23.734
					c1.951,0,3.531-1.576,3.531-3.527V5.073c0-1.945-1.58-3.527-3.531-3.527H4.135z"/>
			</defs>
			<clipPath id="SVGID_2_">
				<use xlink:href="#SVGID_1_"  overflow="visible"/>
			</clipPath>
			
				<linearGradient id="SVGID_3_" gradientUnits="userSpaceOnUse" x1="-589.21" y1="1396.584" x2="-587.4698" y2="1396.584" gradientTransform="matrix(5.8606 19.1691 -19.1691 5.8606 30235.2793 3109.0718)">
				<stop  offset="0" style="stop-color:#FFFFFF"/>
				<stop  offset="1" style="stop-color:#D0D0D0"/>
			</linearGradient>
			<polygon clip-path="url(#SVGID_2_)" fill="url(#SVGID_3_)" points="28.771,-7.05 39.494,27.96 3.232,39.025 -7.488,4.015 			"/>
		</g>
	</g>
	<path fill="none" stroke="#5C5C5C" stroke-width="0.4351" stroke-linejoin="round" d="M31.402,26.9
		c0,1.953-1.582,3.527-3.531,3.527H4.136c-1.951,0-3.538-1.574-3.538-3.527V5.073c0-1.945,1.587-3.527,3.538-3.527h23.735
		c1.949,0,3.531,1.582,3.531,3.527V26.9z"/>
	<g>
		<g>
			<defs>
				<path id="SVGID_4_" d="M4.23,2.558c-1.459,0-2.646,1.188-2.646,2.648v21.567c0,1.455,1.188,2.642,2.646,2.642h23.542
					c1.463,0,2.648-1.187,2.648-2.642V5.206c0-1.461-1.188-2.648-2.648-2.648H4.23z"/>
			</defs>
			<clipPath id="SVGID_5_">
				<use xlink:href="#SVGID_4_"  overflow="visible"/>
			</clipPath>
			
				<linearGradient id="SVGID_6_" gradientUnits="userSpaceOnUse" x1="-569.0488" y1="1355.6904" x2="-567.3101" y2="1355.6904" gradientTransform="matrix(0 15.4443 -15.4443 0 20953.6934 8791.125)">
				<stop  offset="0" style="stop-color:#FFFFFF"/>
				<stop  offset="1" style="stop-color:#F3F3F3"/>
			</linearGradient>
			<rect x="1.584" y="2.558" clip-path="url(#SVGID_5_)" fill="url(#SVGID_6_)" width="28.837" height="26.857"/>
		</g>
	</g>
	<path fill="none" stroke="#FAFAFA" stroke-width="0.4351" stroke-linejoin="round" d="M30.421,26.773
		c0,1.455-1.19,2.644-2.647,2.644H4.229c-1.457,0-2.647-1.188-2.647-2.644V5.206c0-1.463,1.19-2.646,2.647-2.646h23.544
		c1.457,0,2.647,1.184,2.647,2.646V26.773z"/>
</g>
<path d="M17.376,13.462h-4.368c-0.334,0-0.578-0.176-0.578-0.514c0-0.338,0.244-0.514,0.578-0.514h5.264
	c0.391,0,0.621,0.203,0.621,0.42c0,0.254-0.055,0.404-0.299,0.756l-4.96,7.417h4.851c0.341,0,0.584,0.179,0.584,0.515
	c0,0.34-0.243,0.515-0.584,0.515h-5.577c-0.503,0-0.701-0.203-0.701-0.539c0-0.203,0.036-0.354,0.225-0.638L17.376,13.462z"/>
<circle cx="15.637" cy="11.115" r="0.713"/>
</svg>
