<?xml version="1.0" encoding="utf-8"?>
<!-- Generator: Adobe Illustrator 16.0.0, SVG Export Plug-In . SVG Version: 6.00 Build 0)  -->
<!DOCTYPE svg PUBLIC "-//W3C//DTD SVG 1.1//EN" "http://www.w3.org/Graphics/SVG/1.1/DTD/svg11.dtd">
<svg version="1.1" id="Layer_1" xmlns="http://www.w3.org/2000/svg" xmlns:xlink="http://www.w3.org/1999/xlink" x="0px" y="0px"
	 width="32px" height="32px" viewBox="0 0 32 32" enable-background="new 0 0 32 32" xml:space="preserve">
<g id="Layer_3" display="none">
</g>
<g id="Layer_2">
</g>
<g id="Layer_1_1_">
	<g>
		<g>
			<g>
				<g>
					<defs>
						<path id="SVGID_1_" d="M4.134,1.559c-1.952,0-3.533,1.582-3.533,3.527v21.828c0,1.951,1.581,3.527,3.533,3.527h23.734
							c1.952,0,3.532-1.576,3.532-3.527V5.086c0-1.945-1.58-3.527-3.532-3.527H4.134z"/>
					</defs>
					<clipPath id="SVGID_2_">
						<use xlink:href="#SVGID_1_"  overflow="visible"/>
					</clipPath>
					
						<linearGradient id="SVGID_3_" gradientUnits="userSpaceOnUse" x1="-87.5103" y1="694.3867" x2="-85.7702" y2="694.3867" gradientTransform="matrix(5.8606 19.1691 -19.1691 5.8606 13834.5127 -2392.7532)">
						<stop  offset="0" style="stop-color:#FFFFFF"/>
						<stop  offset="1" style="stop-color:#D0D0D0"/>
					</linearGradient>
					<polygon clip-path="url(#SVGID_2_)" fill="url(#SVGID_3_)" points="28.771,-7.037 39.494,27.973 3.232,39.039 -7.489,4.027 
											"/>
				</g>
			</g>
			<path fill="none" stroke="#5C5C5C" stroke-width="0.4351" stroke-linejoin="round" d="M31.402,26.914
				c0,1.953-1.582,3.527-3.531,3.527H4.135c-1.951,0-3.538-1.574-3.538-3.527V5.086c0-1.945,1.587-3.527,3.538-3.527H27.87
				c1.95,0,3.532,1.582,3.532,3.527V26.914L31.402,26.914z"/>
			<g>
				<g>
					<defs>
						<path id="SVGID_4_" d="M4.23,2.57c-1.459,0-2.646,1.188-2.646,2.648v21.568c0,1.455,1.188,2.641,2.646,2.641h23.542
							c1.463,0,2.648-1.186,2.648-2.641V5.219c0-1.461-1.188-2.648-2.648-2.648L4.23,2.57L4.23,2.57z"/>
					</defs>
					<clipPath id="SVGID_5_">
						<use xlink:href="#SVGID_4_"  overflow="visible"/>
					</clipPath>
					
						<linearGradient id="SVGID_6_" gradientUnits="userSpaceOnUse" x1="-71.4873" y1="670.7344" x2="-69.7485" y2="670.7344" gradientTransform="matrix(0 15.4443 -15.4443 0 10375.0186 1106.646)">
						<stop  offset="0" style="stop-color:#FFFFFF"/>
						<stop  offset="1" style="stop-color:#F3F3F3"/>
					</linearGradient>
					<rect x="1.583" y="2.57" clip-path="url(#SVGID_5_)" fill="url(#SVGID_6_)" width="28.837" height="26.857"/>
				</g>
			</g>
			<path fill="none" stroke="#FAFAFA" stroke-width="0.4351" stroke-linejoin="round" d="M30.42,26.787
				c0,1.455-1.189,2.643-2.648,2.643H4.228c-1.457,0-2.647-1.188-2.647-2.643V5.219c0-1.463,1.19-2.646,2.647-2.646h23.543
				c1.459,0,2.648,1.184,2.648,2.646V26.787z"/>
		</g>
		<g>
			<path d="M15.296,26.818c-1.69,0-2.377-1.269-2.377-1.873c0-0.354,0.183-0.56,0.427-0.56c0.294,0,0.443,0.173,0.559,0.527
				c0.192,0.58,0.604,1.035,1.366,1.035c0.905,0,1.542-0.675,1.542-1.507c0-1.209-0.658-1.52-1.415-1.52
				c-0.399,0-0.616-0.172-0.616-0.434c0-0.23,0.147-0.354,0.525-0.434c0.812-0.185,1.145-0.57,1.145-1.314
				c0-0.775-0.458-1.324-1.155-1.324c-0.801,0-1.094,0.57-1.154,1.188c-0.034,0.459-0.307,0.47-0.48,0.47
				c-0.286,0-0.455-0.205-0.455-0.47c0-1.082,0.787-2.057,2.133-2.057c1.304,0,2.116,0.961,2.116,2.104
				c0,0.675-0.321,1.334-0.961,1.726c0.916,0.272,1.395,1.049,1.395,1.976C17.889,25.893,16.745,26.818,15.296,26.818"/>
		</g>
	</g>
</g>
<g id="Language_specific">
</g>
<g id="Layer_5">
</g>
<path d="M8.612,13.409c-0.031,0.237-0.126,0.371-0.391,0.371c-0.246,0-0.35-0.166-0.35-0.35c0-0.113,0.02-0.238,0.051-0.432
	l0.207-1.5H6.907l-0.268,1.911c-0.031,0.237-0.123,0.371-0.391,0.371c-0.246,0-0.349-0.166-0.349-0.35
	c0-0.113,0.018-0.238,0.051-0.432l0.205-1.5H5.528c-0.234,0-0.417-0.112-0.417-0.337c0-0.237,0.183-0.339,0.417-0.339H6.25
	L6.462,9.3H5.838c-0.238,0-0.421-0.11-0.421-0.339c0-0.227,0.184-0.339,0.421-0.339h0.72l0.267-1.91
	c0.029-0.235,0.122-0.371,0.391-0.371c0.248,0,0.349,0.166,0.349,0.35c0,0.114-0.019,0.236-0.05,0.432L7.308,8.622h1.223l0.266-1.91
	C8.829,6.477,8.92,6.342,9.189,6.342c0.245,0,0.349,0.166,0.349,0.35c0,0.114-0.02,0.236-0.05,0.432L9.282,8.622h0.625
	c0.237,0,0.422,0.112,0.422,0.339c0,0.236-0.186,0.339-0.422,0.339H9.189l-0.216,1.521h0.625c0.236,0,0.423,0.112,0.423,0.339
	c0,0.225-0.187,0.337-0.423,0.337H8.877L8.612,13.409z M8.438,9.3H7.216L7,10.821h1.223L8.438,9.3z"/>
<path d="M26.842,13.366c-0.344,0.231-0.932,0.453-1.658,0.453c-0.898,0-1.714-0.343-2.256-0.99
	c-0.424-0.466-0.702-1.113-0.803-1.913h-0.69v-0.556h0.632v-0.167c0-0.166,0.016-0.333,0.025-0.49h-0.658V9.146h0.734
	c0.133-0.778,0.457-1.424,0.914-1.881c0.557-0.588,1.291-0.923,2.189-0.923c0.672,0,1.181,0.19,1.492,0.358l-0.219,0.731
	c-0.294-0.167-0.747-0.311-1.249-0.311c-0.601,0-1.103,0.213-1.479,0.6c-0.324,0.334-0.546,0.836-0.656,1.424h3.104V9.7H23.06
	c-0.023,0.145-0.023,0.3-0.023,0.468v0.19h3.228v0.556h-3.15c0.09,0.646,0.302,1.122,0.613,1.458c0.41,0.444,0.969,0.645,1.57,0.645
	c0.59,0,1.101-0.211,1.358-0.366L26.842,13.366z"/>
</svg>
