<?xml version="1.0" encoding="utf-8"?>
<!-- Generator: Adobe Illustrator 16.0.0, SVG Export Plug-In . SVG Version: 6.00 Build 0)  -->
<!DOCTYPE svg PUBLIC "-//W3C//DTD SVG 1.1//EN" "http://www.w3.org/Graphics/SVG/1.1/DTD/svg11.dtd">
<svg version="1.1" id="Reference" xmlns="http://www.w3.org/2000/svg" xmlns:xlink="http://www.w3.org/1999/xlink" x="0px" y="0px"
	 width="32px" height="32px" viewBox="0 0 32 32" enable-background="new 0 0 32 32" xml:space="preserve">
<g>
	<g>
		<g>
			<g>
				<defs>
					<path id="SVGID_1_" d="M4.135,1.57c-1.952,0-3.533,1.582-3.533,3.527v21.828c0,1.951,1.581,3.527,3.533,3.527h23.734
						c1.951,0,3.531-1.576,3.531-3.527V5.098c0-1.945-1.58-3.527-3.531-3.527L4.135,1.57L4.135,1.57z"/>
				</defs>
				<clipPath id="SVGID_2_">
					<use xlink:href="#SVGID_1_"  overflow="visible"/>
				</clipPath>
				
					<linearGradient id="SVGID_3_" gradientUnits="userSpaceOnUse" x1="-647.6953" y1="1490.9316" x2="-645.9552" y2="1490.9316" gradientTransform="matrix(5.8606 19.1691 -19.1691 5.8606 32386.5918 3677.2749)">
					<stop  offset="0" style="stop-color:#FFFFFF"/>
					<stop  offset="1" style="stop-color:#D0D0D0"/>
				</linearGradient>
				<polygon clip-path="url(#SVGID_2_)" fill="url(#SVGID_3_)" points="28.771,-7.025 39.494,27.984 3.232,39.051 -7.488,4.039 				
					"/>
			</g>
		</g>
		<path fill="none" stroke="#5C5C5C" stroke-width="0.4351" stroke-linejoin="round" d="M31.402,26.926
			c0,1.953-1.582,3.527-3.531,3.527H4.136c-1.951,0-3.538-1.574-3.538-3.527V5.098c0-1.945,1.587-3.527,3.538-3.527h23.735
			c1.949,0,3.531,1.582,3.531,3.527V26.926z"/>
		<g>
			<g>
				<defs>
					<path id="SVGID_4_" d="M4.23,2.582c-1.459,0-2.646,1.188-2.646,2.648v21.568c0,1.455,1.188,2.642,2.646,2.642h23.542
						c1.463,0,2.648-1.187,2.648-2.642V5.23c0-1.461-1.188-2.648-2.648-2.648H4.23z"/>
				</defs>
				<clipPath id="SVGID_5_">
					<use xlink:href="#SVGID_4_"  overflow="visible"/>
				</clipPath>
				
					<linearGradient id="SVGID_6_" gradientUnits="userSpaceOnUse" x1="-626.8315" y1="1447.5469" x2="-625.0923" y2="1447.5469" gradientTransform="matrix(0 15.4443 -15.4443 0 22372.3496 9683.5625)">
					<stop  offset="0" style="stop-color:#FFFFFF"/>
					<stop  offset="1" style="stop-color:#F3F3F3"/>
				</linearGradient>
				<rect x="1.584" y="2.582" clip-path="url(#SVGID_5_)" fill="url(#SVGID_6_)" width="28.837" height="26.857"/>
			</g>
		</g>
		<path fill="none" stroke="#FAFAFA" stroke-width="0.4351" stroke-linejoin="round" d="M30.421,26.799
			c0,1.455-1.19,2.643-2.647,2.643H4.229c-1.457,0-2.647-1.188-2.647-2.643V5.23c0-1.463,1.19-2.646,2.647-2.646h23.544
			c1.457,0,2.647,1.184,2.647,2.646V26.799z"/>
	</g>
	<path d="M10.18,6.678c0-0.359,0.211-0.584,0.549-0.584c0.335,0,0.547,0.225,0.547,0.584v6.093c0,1.405-0.596,2.323-2.152,2.323
		c-0.581,0-1.813-0.347-1.813-0.992c0-0.274,0.174-0.461,0.437-0.461c0.493,0,0.521,0.51,1.466,0.51
		c0.761,0,0.968-0.573,0.968-1.269V6.678H10.18z"/>
	<rect x="13.579" y="26.523" fill="#D2D2D2" stroke="#D2D2D2" stroke-width="0.25" width="5.353" height="0.893"/>
	<rect x="13.579" y="26.023" fill="#FFFFFF" stroke="#FFFFFF" stroke-width="0.25" width="5.353" height="0.893"/>
	<g enable-background="new    ">
		<path d="M26.072,22.666c0,2.605-1.584,3.986-3.516,3.986c-1.998,0-3.402-1.549-3.402-3.84c0-2.404,1.494-3.977,3.516-3.977
			C24.736,18.836,26.072,20.42,26.072,22.666z M20.199,22.789c0,1.617,0.875,3.066,2.414,3.066c1.55,0,2.426-1.426,2.426-3.145
			c0-1.505-0.786-3.077-2.414-3.077C21.008,19.634,20.199,21.127,20.199,22.789z"/>
	</g>
</g>
</svg>
