<?xml version="1.0" encoding="utf-8"?>
<!-- Generator: Adobe Illustrator 16.0.4, SVG Export Plug-In . SVG Version: 6.00 Build 0)  -->
<!DOCTYPE svg PUBLIC "-//W3C//DTD SVG 1.1//EN" "http://www.w3.org/Graphics/SVG/1.1/DTD/svg11.dtd">
<svg version="1.1" id="Reference" xmlns="http://www.w3.org/2000/svg" xmlns:xlink="http://www.w3.org/1999/xlink" x="0px" y="0px"
	 width="32px" height="32px" viewBox="0 0 32 32" enable-background="new 0 0 32 32" xml:space="preserve">
<g>
	<g>
		<g>
			<defs>
				<path id="SVGID_895_" d="M-27.865,1.57c-1.952,0-3.533,1.582-3.533,3.527v21.828c0,1.951,1.581,3.527,3.533,3.527h23.734
					c1.952,0,3.532-1.576,3.532-3.527V5.098c0-1.945-1.58-3.527-3.532-3.527H-27.865z"/>
			</defs>
			<clipPath id="SVGID_2_">
				<use xlink:href="#SVGID_895_"  overflow="visible"/>
			</clipPath>
			
				<linearGradient id="SVGID_3_" gradientUnits="userSpaceOnUse" x1="-375.7993" y1="-1436.6182" x2="-374.0592" y2="-1436.6182" gradientTransform="matrix(5.8606 19.1691 19.1691 -5.8606 29719.9648 -1216.4204)">
				<stop  offset="0" style="stop-color:#FFFFFF"/>
				<stop  offset="1" style="stop-color:#D0D0D0"/>
			</linearGradient>
			<polygon clip-path="url(#SVGID_2_)" fill="url(#SVGID_3_)" points="-3.229,-7.025 7.494,27.984 -28.768,39.051 -39.488,4.039 			
				"/>
		</g>
	</g>
</g>
<g>
	<g>
		<g>
			<defs>
				<path id="SVGID_907_" d="M4.135,1.57c-1.952,0-3.533,1.582-3.533,3.527v21.828c0,1.951,1.581,3.527,3.533,3.527h23.734
					c1.952,0,3.532-1.576,3.532-3.527V5.098c0-1.945-1.58-3.527-3.532-3.527H4.135z"/>
			</defs>
			<clipPath id="SVGID_5_">
				<use xlink:href="#SVGID_907_"  overflow="visible"/>
			</clipPath>
			
				<linearGradient id="SVGID_6_" gradientUnits="userSpaceOnUse" x1="-375.3325" y1="-1435.0918" x2="-373.5924" y2="-1435.0918" gradientTransform="matrix(5.8606 19.1691 19.1691 -5.8606 29719.9648 -1216.4204)">
				<stop  offset="0" style="stop-color:#FFFFFF"/>
				<stop  offset="1" style="stop-color:#D0D0D0"/>
			</linearGradient>
			<polygon clip-path="url(#SVGID_5_)" fill="url(#SVGID_6_)" points="28.771,-7.025 39.494,27.984 3.232,39.051 -7.488,4.039 			
				"/>
		</g>
		<path fill="none" stroke="#5C5C5C" stroke-width="0.4351" stroke-linejoin="round" d="M31.403,26.926
			c0,1.953-1.582,3.527-3.532,3.527H4.136c-1.951,0-3.538-1.574-3.538-3.527V5.098c0-1.945,1.587-3.527,3.538-3.527h23.735
			c1.95,0,3.532,1.582,3.532,3.527V26.926z"/>
		<g>
			<defs>
				<path id="SVGID_910_" d="M4.23,2.582c-1.459,0-2.646,1.188-2.646,2.648v21.568c0,1.455,1.188,2.641,2.646,2.641h23.542
					c1.462,0,2.648-1.186,2.648-2.641V5.23c0-1.461-1.187-2.648-2.648-2.648H4.23z"/>
			</defs>
			<clipPath id="SVGID_8_">
				<use xlink:href="#SVGID_910_"  overflow="visible"/>
			</clipPath>
			
				<linearGradient id="SVGID_9_" gradientUnits="userSpaceOnUse" x1="-353.4507" y1="-1405.7441" x2="-351.7114" y2="-1405.7441" gradientTransform="matrix(0 15.4443 15.4443 0 21726.752 5461.3813)">
				<stop  offset="0" style="stop-color:#FFFFFF"/>
				<stop  offset="1" style="stop-color:#F3F3F3"/>
			</linearGradient>
			<rect x="1.584" y="2.582" clip-path="url(#SVGID_8_)" fill="url(#SVGID_9_)" width="28.837" height="26.857"/>
		</g>
		<path fill="none" stroke="#FAFAFA" stroke-width="0.4351" stroke-linejoin="round" d="M30.421,26.799
			c0,1.455-1.19,2.643-2.648,2.643H4.229c-1.457,0-2.647-1.188-2.647-2.643V5.23c0-1.463,1.19-2.646,2.647-2.646h23.544
			c1.458,0,2.648,1.184,2.648,2.646V26.799z"/>
	</g>
	<g>
		<path d="M6.236,20.033c-0.105-0.229-0.146-0.375-0.146-0.459c0-0.238,0.166-0.385,0.406-0.385s0.354,0.146,0.426,0.312
			l2.842,6.379c0.102,0.229,0.146,0.373,0.146,0.457c0,0.24-0.168,0.385-0.406,0.385c-0.24,0-0.355-0.145-0.428-0.312L6.236,20.033z
			"/>
		<path d="M7.746,6.926c-0.002-0.252,0.018-0.4,0.049-0.475C7.893,6.23,8.105,6.162,8.324,6.258s0.268,0.277,0.268,0.457l0.053,6.98
			c0.004,0.252-0.016,0.4-0.049,0.479c-0.098,0.219-0.309,0.289-0.527,0.191c-0.221-0.096-0.264-0.273-0.264-0.455L7.746,6.926z"/>
	</g>
	<text transform="matrix(1 0 0 1 19.8574 26.5293)" font-family="'MyriadPro-Regular'" font-size="11.2356">Ё</text>
</g>
<g>
	<g>
		<g>
			<defs>
				<path id="SVGID_943_" d="M-27.865,33.57c-1.952,0-3.533,1.582-3.533,3.527v21.828c0,1.951,1.581,3.527,3.533,3.527h23.734
					c1.952,0,3.532-1.576,3.532-3.527V37.098c0-1.945-1.58-3.527-3.532-3.527H-27.865z"/>
			</defs>
			<clipPath id="SVGID_11_">
				<use xlink:href="#SVGID_943_"  overflow="visible"/>
			</clipPath>
			
				<linearGradient id="SVGID_12_" gradientUnits="userSpaceOnUse" x1="-374.2725" y1="-1437.085" x2="-372.5323" y2="-1437.085" gradientTransform="matrix(5.8606 19.1691 19.1691 -5.8606 29719.9648 -1216.4204)">
				<stop  offset="0" style="stop-color:#FFFFFF"/>
				<stop  offset="1" style="stop-color:#D0D0D0"/>
			</linearGradient>
			<polygon clip-path="url(#SVGID_11_)" fill="url(#SVGID_12_)" points="-3.229,24.975 7.494,59.984 -28.768,71.051 -39.488,36.039 
							"/>
		</g>
	</g>
</g>
<g>
	<g>
		<g>
			<defs>
				<path id="SVGID_949_" d="M4.135,33.57c-1.952,0-3.533,1.582-3.533,3.527v21.828c0,1.951,1.581,3.527,3.533,3.527h23.734
					c1.952,0,3.532-1.576,3.532-3.527V37.098c0-1.945-1.58-3.527-3.532-3.527H4.135z"/>
			</defs>
			<clipPath id="SVGID_14_">
				<use xlink:href="#SVGID_949_"  overflow="visible"/>
			</clipPath>
			
				<linearGradient id="SVGID_15_" gradientUnits="userSpaceOnUse" x1="-373.8057" y1="-1435.5586" x2="-372.0656" y2="-1435.5586" gradientTransform="matrix(5.8606 19.1691 19.1691 -5.8606 29719.9648 -1216.4204)">
				<stop  offset="0" style="stop-color:#FFFFFF"/>
				<stop  offset="1" style="stop-color:#D0D0D0"/>
			</linearGradient>
			<polygon clip-path="url(#SVGID_14_)" fill="url(#SVGID_15_)" points="28.771,24.975 39.494,59.984 3.232,71.051 -7.488,36.039 
							"/>
		</g>
	</g>
</g>
<g>
	<g>
		<g>
			<defs>
				<path id="SVGID_955_" d="M36.135,33.57c-1.952,0-3.533,1.582-3.533,3.527v21.828c0,1.951,1.581,3.527,3.533,3.527h23.734
					c1.952,0,3.532-1.576,3.532-3.527V37.098c0-1.945-1.58-3.527-3.532-3.527H36.135z"/>
			</defs>
			<clipPath id="SVGID_17_">
				<use xlink:href="#SVGID_955_"  overflow="visible"/>
			</clipPath>
			
				<linearGradient id="SVGID_18_" gradientUnits="userSpaceOnUse" x1="-373.3389" y1="-1434.0312" x2="-371.5988" y2="-1434.0312" gradientTransform="matrix(5.8606 19.1691 19.1691 -5.8606 29719.9648 -1216.4204)">
				<stop  offset="0" style="stop-color:#FFFFFF"/>
				<stop  offset="1" style="stop-color:#D0D0D0"/>
			</linearGradient>
			<polygon clip-path="url(#SVGID_17_)" fill="url(#SVGID_18_)" points="60.771,24.975 71.494,59.984 35.232,71.051 24.512,36.039 
							"/>
		</g>
	</g>
</g>
<g>
	<g>
		<g>
			<defs>
				<path id="SVGID_973_" d="M36.135-30.43c-1.952,0-3.533,1.582-3.533,3.527v21.828c0,1.951,1.581,3.527,3.533,3.527h23.734
					c1.952,0,3.532-1.576,3.532-3.527v-21.828c0-1.945-1.58-3.527-3.532-3.527H36.135z"/>
			</defs>
			<clipPath id="SVGID_20_">
				<use xlink:href="#SVGID_973_"  overflow="visible"/>
			</clipPath>
			
				<linearGradient id="SVGID_21_" gradientUnits="userSpaceOnUse" x1="-376.3921" y1="-1433.0977" x2="-374.652" y2="-1433.0977" gradientTransform="matrix(5.8606 19.1691 19.1691 -5.8606 29719.9648 -1216.4204)">
				<stop  offset="0" style="stop-color:#FFFFFF"/>
				<stop  offset="1" style="stop-color:#D0D0D0"/>
			</linearGradient>
			<polygon clip-path="url(#SVGID_20_)" fill="url(#SVGID_21_)" points="60.771,-39.025 71.494,-4.016 35.232,7.051 24.512,-27.961 
							"/>
		</g>
	</g>
</g>
</svg>
