<?xml version="1.0" encoding="utf-8"?>
<!-- Generator: Adobe Illustrator 16.0.0, SVG Export Plug-In . SVG Version: 6.00 Build 0)  -->
<!DOCTYPE svg PUBLIC "-//W3C//DTD SVG 1.1//EN" "http://www.w3.org/Graphics/SVG/1.1/DTD/svg11.dtd">
<svg version="1.1" id="Layer_1" xmlns="http://www.w3.org/2000/svg" xmlns:xlink="http://www.w3.org/1999/xlink" x="0px" y="0px"
	 width="64px" height="32px" viewBox="0 0 64 32" enable-background="new 0 0 64 32" xml:space="preserve">
<g>
	<g>
		<g>
			<defs>
				<path id="SVGID_1_" d="M4.135,1.559c-1.953,0-3.533,1.582-3.533,3.527v21.828c0,1.951,1.58,3.527,3.533,3.527h55.734
					c1.951,0,3.531-1.576,3.531-3.527V5.086c0-1.945-1.58-3.527-3.531-3.527H4.135z"/>
			</defs>
			<clipPath id="SVGID_2_">
				<use xlink:href="#SVGID_1_"  overflow="visible"/>
			</clipPath>
			
				<linearGradient id="SVGID_3_" gradientUnits="userSpaceOnUse" x1="-313.791" y1="-96.606" x2="-311.6065" y2="-96.606" gradientTransform="matrix(5.8606 19.1691 -19.1691 5.8606 12.7437 6576.2881)">
				<stop  offset="0" style="stop-color:#FFFFFF"/>
				<stop  offset="1" style="stop-color:#D0D0D0"/>
			</linearGradient>
			<polygon clip-path="url(#SVGID_2_)" fill="url(#SVGID_3_)" points="60.771,-7.037 71.494,27.973 3.232,39.039 -7.488,4.027 			
				"/>
		</g>
	</g>
	<path fill="none" stroke="#5C5C5C" stroke-width="0.4351" stroke-linejoin="round" d="M63.402,26.914
		c0,1.953-1.582,3.527-3.531,3.527H4.135c-1.951,0-3.537-1.574-3.537-3.527V5.086c0-1.945,1.586-3.527,3.537-3.527h55.736
		c1.949,0,3.531,1.582,3.531,3.527V26.914z"/>
	<g>
		<g>
			<defs>
				<path id="SVGID_4_" d="M4.23,2.57c-1.459,0-2.646,1.188-2.646,2.648v21.568c0,1.455,1.188,2.641,2.646,2.641h55.541
					c1.463,0,2.647-1.186,2.647-2.641V5.219c0-1.461-1.186-2.648-2.647-2.648L4.23,2.57L4.23,2.57z"/>
			</defs>
			<clipPath id="SVGID_5_">
				<use xlink:href="#SVGID_4_"  overflow="visible"/>
			</clipPath>
			
				<linearGradient id="SVGID_6_" gradientUnits="userSpaceOnUse" x1="-313.8623" y1="-110.0859" x2="-312.123" y2="-110.0859" gradientTransform="matrix(0 15.4443 -15.4443 0 -1668.1978 4849.9536)">
				<stop  offset="0" style="stop-color:#FFFFFF"/>
				<stop  offset="1" style="stop-color:#F3F3F3"/>
			</linearGradient>
			<rect x="1.584" y="2.57" clip-path="url(#SVGID_5_)" fill="url(#SVGID_6_)" width="60.836" height="26.857"/>
		</g>
	</g>
	<path fill="none" stroke="#FAFAFA" stroke-width="0.4351" stroke-linejoin="round" d="M62.42,26.787
		c0,1.455-1.189,2.643-2.648,2.643H4.229c-1.456,0-2.647-1.188-2.647-2.643V5.219c0-1.463,1.19-2.646,2.647-2.646h55.543
		c1.459,0,2.648,1.184,2.648,2.646V26.787z"/>
</g>
<g enable-background="new    ">
	<path d="M19.643,11.37v7.692h-0.993v-6.859h-3.572v6.859h-0.993V11.37H19.643z"/>
	<path d="M21.34,15.342c0-0.708-0.023-1.278-0.046-1.804h0.901l0.046,0.947h0.022c0.411-0.673,1.062-1.072,1.963-1.072
		c1.336,0,2.34,1.13,2.34,2.808c0,1.985-1.209,2.968-2.51,2.968c-0.73,0-1.37-0.32-1.701-0.868h-0.023v3.002H21.34V15.342z
		 M22.332,16.814c0,0.148,0.023,0.285,0.046,0.41c0.183,0.696,0.788,1.176,1.507,1.176c1.062,0,1.678-0.867,1.678-2.134
		c0-1.107-0.582-2.055-1.644-2.055c-0.685,0-1.323,0.49-1.519,1.244c-0.033,0.125-0.068,0.273-0.068,0.411V16.814z"/>
	<path d="M32.83,16.255c0,2.043-1.416,2.934-2.751,2.934c-1.495,0-2.647-1.096-2.647-2.843c0-1.849,1.209-2.933,2.738-2.933
		C31.757,13.413,32.83,14.565,32.83,16.255z M28.447,16.312c0,1.21,0.696,2.123,1.678,2.123c0.959,0,1.678-0.901,1.678-2.146
		c0-0.936-0.468-2.123-1.655-2.123C28.961,14.166,28.447,15.262,28.447,16.312z"/>
	<path d="M38.271,11.666c-0.286,0.104-0.788,0.194-1.153,0.252c-0.891,0.137-1.541,0.434-1.964,1.038
		c-0.354,0.502-0.559,1.244-0.604,1.826h0.034c0.354-0.799,1.131-1.244,1.918-1.244c1.357,0,2.352,0.971,2.352,2.729
		c0,1.803-0.937,2.922-2.557,2.922c-1.941,0-2.58-1.86-2.58-3.698c0-1.256,0.263-2.283,0.855-3.059
		c0.537-0.766,1.302-1.119,2.375-1.302c0.445-0.068,0.992-0.159,1.369-0.297L38.271,11.666z M37.837,16.335
		c0-0.879-0.354-2.055-1.54-2.055c-0.594,0-1.017,0.308-1.244,0.753c-0.184,0.331-0.274,0.73-0.274,1.176
		c0,0.913,0.445,2.237,1.541,2.237c1.106,0,1.518-1.084,1.518-2.101V16.335z"/>
	<path d="M40.676,16.483c0.023,1.357,0.891,1.917,1.895,1.917c0.72,0,1.153-0.125,1.529-0.285l0.172,0.719
		c-0.354,0.16-0.959,0.354-1.838,0.354c-1.7,0-2.717-1.13-2.717-2.797c0-1.666,0.982-2.979,2.592-2.979
		c1.803,0,2.282,1.586,2.282,2.602c0,0.206-0.022,0.365-0.034,0.469H40.676z M43.621,15.764c0.012-0.639-0.263-1.632-1.393-1.632
		c-1.016,0-1.461,0.936-1.541,1.632H43.621z"/>
	<path d="M50.032,13.538v5.524h-0.993v-4.726h-1.895v1.404c0,1.552-0.148,2.579-0.867,3.048c-0.273,0.228-0.582,0.354-1.096,0.354
		l-0.103-0.799c0.194-0.023,0.411-0.114,0.548-0.229c0.514-0.365,0.57-1.142,0.57-2.374v-2.203H50.032z"/>
</g>
</svg>
