<?xml version="1.0" encoding="utf-8"?>
<!-- Generator: Adobe Illustrator 16.0.4, SVG Export Plug-In . SVG Version: 6.00 Build 0)  -->
<!DOCTYPE svg PUBLIC "-//W3C//DTD SVG 1.1//EN" "http://www.w3.org/Graphics/SVG/1.1/DTD/svg11.dtd">
<svg version="1.1" xmlns="http://www.w3.org/2000/svg" xmlns:xlink="http://www.w3.org/1999/xlink" x="0px" y="0px" width="32px"
	 height="32px" viewBox="0 0 32 32" enable-background="new 0 0 32 32" xml:space="preserve">
<g id="Layer_3" display="none">
</g>
<g id="Layer_2">
</g>
<g id="Layer_1">
</g>
<g id="Language_specific">
	<g>
		<g>
			<g>
				<defs>
					<path id="SVGID_871_" d="M4.135,1.559c-1.953,0-3.533,1.582-3.533,3.527v21.828c0,1.951,1.58,3.527,3.533,3.527h23.734
						c1.951,0,3.531-1.576,3.531-3.527V5.086c0-1.945-1.58-3.527-3.531-3.527H4.135z"/>
				</defs>
				<clipPath id="SVGID_2_">
					<use xlink:href="#SVGID_871_"  overflow="visible"/>
				</clipPath>
				
					<linearGradient id="SVGID_3_" gradientUnits="userSpaceOnUse" x1="-912.563" y1="-631.6543" x2="-910.8229" y2="-631.6543" gradientTransform="matrix(5.8606 19.1691 19.1691 -5.8606 17467.2812 13790.4229)">
					<stop  offset="0" style="stop-color:#FFFFFF"/>
					<stop  offset="1" style="stop-color:#D0D0D0"/>
				</linearGradient>
				<polygon clip-path="url(#SVGID_2_)" fill="url(#SVGID_3_)" points="28.771,-7.037 39.494,27.973 3.232,39.039 -7.488,4.027 				
					"/>
			</g>
			<path fill="none" stroke="#5C5C5C" stroke-width="0.4351" stroke-linejoin="round" d="M31.402,26.914
				c0,1.953-1.582,3.527-3.531,3.527H4.135c-1.951,0-3.537-1.574-3.537-3.527V5.086c0-1.945,1.586-3.527,3.537-3.527h23.736
				c1.949,0,3.531,1.582,3.531,3.527V26.914z"/>
			<g>
				<defs>
					<path id="SVGID_874_" d="M4.23,2.57c-1.459,0-2.646,1.188-2.646,2.648v21.568c0,1.455,1.188,2.641,2.646,2.641h23.541
						c1.463,0,2.648-1.186,2.648-2.641V5.219c0-1.461-1.186-2.648-2.648-2.648H4.23z"/>
				</defs>
				<clipPath id="SVGID_5_">
					<use xlink:href="#SVGID_874_"  overflow="visible"/>
				</clipPath>
				
					<linearGradient id="SVGID_6_" gradientUnits="userSpaceOnUse" x1="-911.1782" y1="-604.8525" x2="-909.4395" y2="-604.8525" gradientTransform="matrix(0 15.4443 15.4443 0 9357.5293 14075.0859)">
					<stop  offset="0" style="stop-color:#FFFFFF"/>
					<stop  offset="1" style="stop-color:#F3F3F3"/>
				</linearGradient>
				<rect x="1.584" y="2.57" clip-path="url(#SVGID_5_)" fill="url(#SVGID_6_)" width="28.836" height="26.857"/>
			</g>
			<path fill="none" stroke="#FAFAFA" stroke-width="0.4351" stroke-linejoin="round" d="M30.42,26.787
				c0,1.455-1.189,2.643-2.648,2.643H4.229c-1.457,0-2.648-1.188-2.648-2.643V5.219c0-1.463,1.191-2.646,2.648-2.646h23.543
				c1.459,0,2.648,1.184,2.648,2.646V26.787z"/>
		</g>
		<g>
			<path d="M26.17,26.23c-0.035,0.26-0.135,0.406-0.426,0.406c-0.27,0-0.381-0.18-0.381-0.383c0-0.121,0.021-0.258,0.057-0.469
				l0.223-1.635h-1.33l-0.291,2.08c-0.035,0.26-0.135,0.406-0.426,0.406c-0.27,0-0.381-0.18-0.381-0.383
				c0-0.121,0.02-0.258,0.057-0.469l0.225-1.635h-0.682c-0.26,0-0.459-0.123-0.459-0.367c0-0.258,0.199-0.369,0.459-0.369h0.781
				l0.232-1.658h-0.68c-0.26,0-0.461-0.121-0.461-0.367s0.201-0.371,0.461-0.371h0.783l0.291-2.08
				c0.031-0.256,0.135-0.402,0.424-0.402c0.271,0,0.381,0.178,0.381,0.381c0,0.123-0.021,0.256-0.057,0.469l-0.225,1.633h1.334
				l0.289-2.08c0.035-0.256,0.135-0.402,0.426-0.402c0.27,0,0.381,0.178,0.381,0.381c0,0.123-0.021,0.256-0.055,0.469l-0.225,1.633
				h0.682c0.258,0,0.459,0.125,0.459,0.371c0,0.256-0.201,0.367-0.459,0.367h-0.783l-0.234,1.658h0.682
				c0.258,0,0.461,0.123,0.461,0.369c0,0.244-0.203,0.367-0.461,0.367h-0.785L26.17,26.23z M25.979,21.756h-1.332l-0.234,1.658
				h1.332L25.979,21.756z"/>
			<path d="M15.088,11.711c0.602,0,1.09,0.488,1.09,1.09c0,0.6-0.488,1.09-1.09,1.09c-0.596,0-1.09-0.49-1.09-1.09
				C13.998,12.199,14.492,11.711,15.088,11.711"/>
			<path d="M15.287,26.635c-1.654,0-2.326-1.242-2.326-1.836c0-0.346,0.178-0.547,0.416-0.547c0.291,0,0.436,0.168,0.547,0.516
				c0.189,0.568,0.592,1.016,1.342,1.016c0.885,0,1.512-0.66,1.512-1.475c0-1.186-0.65-1.49-1.391-1.49
				c-0.391,0-0.6-0.168-0.6-0.424c0-0.225,0.143-0.346,0.512-0.426c0.797-0.178,1.121-0.559,1.121-1.287
				c0-0.76-0.449-1.297-1.133-1.297c-0.781,0-1.072,0.561-1.129,1.164c-0.033,0.447-0.303,0.459-0.471,0.459
				c-0.277,0-0.445-0.203-0.445-0.459c0-1.062,0.771-2.014,2.092-2.014c1.273,0,2.07,0.939,2.07,2.059
				c0,0.66-0.314,1.309-0.939,1.689c0.893,0.27,1.365,1.029,1.365,1.936C17.83,25.729,16.709,26.635,15.287,26.635"/>
		</g>
	</g>
</g>
<g id="Layer_5">
</g>
</svg>
