<?xml version="1.0" encoding="utf-8"?>
<!-- Generator: Adobe Illustrator 16.0.4, SVG Export Plug-In . SVG Version: 6.00 Build 0)  -->
<!DOCTYPE svg PUBLIC "-//W3C//DTD SVG 1.1//EN" "http://www.w3.org/Graphics/SVG/1.1/DTD/svg11.dtd">
<svg version="1.1" xmlns="http://www.w3.org/2000/svg" xmlns:xlink="http://www.w3.org/1999/xlink" x="0px" y="0px" width="32px"
	 height="32px" viewBox="0 0 32 32" enable-background="new 0 0 32 32" xml:space="preserve">
<g id="Layer_3" display="none">
</g>
<g id="Layer_2">
</g>
<g id="Layer_1">
</g>
<g id="Language_specific">
	<g>
		<g>
			<g>
				<defs>
					<path id="SVGID_931_" d="M4.135,1.559c-1.953,0-3.533,1.582-3.533,3.527v21.828c0,1.951,1.58,3.527,3.533,3.527h23.734
						c1.951,0,3.531-1.576,3.531-3.527V5.086c0-1.945-1.58-3.527-3.531-3.527H4.135z"/>
				</defs>
				<clipPath id="SVGID_2_">
					<use xlink:href="#SVGID_931_"  overflow="visible"/>
				</clipPath>
				
					<linearGradient id="SVGID_3_" gradientUnits="userSpaceOnUse" x1="-1413.1533" y1="-607.418" x2="-1411.4132" y2="-607.418" gradientTransform="matrix(5.8606 19.1691 19.1691 -5.8606 19936.4668 23528.3262)">
					<stop  offset="0" style="stop-color:#FFFFFF"/>
					<stop  offset="1" style="stop-color:#D0D0D0"/>
				</linearGradient>
				<polygon clip-path="url(#SVGID_2_)" fill="url(#SVGID_3_)" points="28.771,-7.037 39.494,27.973 3.232,39.039 -7.488,4.027 				
					"/>
			</g>
			<path fill="none" stroke="#5C5C5C" stroke-width="0.4351" stroke-linejoin="round" d="M31.402,26.914
				c0,1.953-1.582,3.527-3.531,3.527H4.135c-1.951,0-3.537-1.574-3.537-3.527V5.086c0-1.945,1.586-3.527,3.537-3.527h23.736
				c1.949,0,3.531,1.582,3.531,3.527V26.914z"/>
			<g>
				<defs>
					<path id="SVGID_934_" d="M4.23,2.57c-1.459,0-2.646,1.188-2.646,2.648v21.568c0,1.455,1.188,2.641,2.646,2.641h23.541
						c1.463,0,2.648-1.186,2.648-2.641V5.219c0-1.461-1.186-2.648-2.648-2.648H4.23z"/>
				</defs>
				<clipPath id="SVGID_5_">
					<use xlink:href="#SVGID_934_"  overflow="visible"/>
				</clipPath>
				
					<linearGradient id="SVGID_6_" gradientUnits="userSpaceOnUse" x1="-1419.1782" y1="-571.96" x2="-1417.4395" y2="-571.96" gradientTransform="matrix(0 15.4443 15.4443 0 8849.5293 21920.7891)">
					<stop  offset="0" style="stop-color:#FFFFFF"/>
					<stop  offset="1" style="stop-color:#F3F3F3"/>
				</linearGradient>
				<rect x="1.584" y="2.57" clip-path="url(#SVGID_5_)" fill="url(#SVGID_6_)" width="28.836" height="26.857"/>
			</g>
			<path fill="none" stroke="#FAFAFA" stroke-width="0.4351" stroke-linejoin="round" d="M30.42,26.787
				c0,1.455-1.189,2.643-2.648,2.643H4.229c-1.457,0-2.648-1.188-2.648-2.643V5.219c0-1.463,1.191-2.646,2.648-2.646h23.543
				c1.459,0,2.648,1.184,2.648,2.646V26.787z"/>
		</g>
		<path d="M26.834,19.109h-0.355c-0.221,0-0.4-0.178-0.4-0.398c0-0.219,0.18-0.398,0.4-0.398h0.723c0.344,0,0.492,0.221,0.492,0.502
			v7.381c0,0.281-0.148,0.504-0.492,0.504h-0.723c-0.221,0-0.4-0.18-0.4-0.4c0-0.219,0.18-0.396,0.4-0.396h0.355V19.109z"/>
		<path d="M15.57,21.088c0-0.262,0.135-0.449,0.43-0.449s0.43,0.188,0.43,0.449v1.771h1.771c0.262,0,0.449,0.137,0.449,0.43
			c0,0.295-0.188,0.43-0.449,0.43H16.43v1.771c0,0.264-0.135,0.451-0.43,0.451s-0.43-0.188-0.43-0.451v-1.771h-1.771
			c-0.262,0-0.449-0.135-0.449-0.43c0-0.293,0.188-0.43,0.449-0.43h1.771V21.088z"/>
		<path d="M14.318,7.822c-0.266-0.115-0.289-0.24-0.289-0.402c0-0.229,0.188-0.428,0.439-0.428c0.314,0,0.729,0.463,1.219,0.816
			c0-0.453-0.139-0.967-0.139-1.307c0-0.236,0.164-0.439,0.451-0.439c0.289,0,0.455,0.203,0.455,0.439
			c0,0.34-0.141,0.854-0.141,1.307c0.492-0.354,0.904-0.816,1.219-0.816c0.252,0,0.439,0.199,0.439,0.428
			c0,0.162-0.027,0.287-0.289,0.402l-1.115,0.465l1.115,0.463c0.262,0.113,0.289,0.24,0.289,0.404c0,0.225-0.188,0.428-0.439,0.428
			c-0.314,0-0.727-0.467-1.219-0.818c0,0.451,0.141,0.967,0.141,1.307c0,0.238-0.166,0.439-0.455,0.439
			c-0.287,0-0.451-0.201-0.451-0.439c0-0.34,0.139-0.855,0.139-1.307c-0.49,0.352-0.904,0.818-1.219,0.818
			c-0.252,0-0.439-0.203-0.439-0.428c0-0.164,0.023-0.291,0.289-0.404l1.115-0.463L14.318,7.822z"/>
	</g>
	<g>
		<g>
			<g>
				<defs>
					<path id="SVGID_955_" d="M43.135,1.559c-1.953,0-3.533,1.582-3.533,3.527v21.828c0,1.951,1.58,3.527,3.533,3.527h23.734
						c1.951,0,3.531-1.576,3.531-3.527V5.086c0-1.945-1.58-3.527-3.531-3.527H43.135z"/>
				</defs>
				<clipPath id="SVGID_8_">
					<use xlink:href="#SVGID_955_"  overflow="visible"/>
				</clipPath>
				
					<linearGradient id="SVGID_9_" gradientUnits="userSpaceOnUse" x1="-1412.5845" y1="-605.5576" x2="-1410.8444" y2="-605.5576" gradientTransform="matrix(5.8606 19.1691 19.1691 -5.8606 19936.4668 23528.3262)">
					<stop  offset="0" style="stop-color:#FFFFFF"/>
					<stop  offset="1" style="stop-color:#D0D0D0"/>
				</linearGradient>
				<polygon clip-path="url(#SVGID_8_)" fill="url(#SVGID_9_)" points="67.771,-7.037 78.494,27.973 42.232,39.039 31.512,4.027 
									"/>
			</g>
		</g>
	</g>
</g>
<g id="Layer_5">
</g>
</svg>
