<?xml version="1.0" encoding="utf-8"?>
<!-- Generator: Adobe Illustrator 16.0.4, SVG Export Plug-In . SVG Version: 6.00 Build 0)  -->
<!DOCTYPE svg PUBLIC "-//W3C//DTD SVG 1.1//EN" "http://www.w3.org/Graphics/SVG/1.1/DTD/svg11.dtd">
<svg version="1.1" id="Reference" xmlns="http://www.w3.org/2000/svg" xmlns:xlink="http://www.w3.org/1999/xlink" x="0px" y="0px"
	 width="32px" height="32px" viewBox="0 0 32 32" enable-background="new 0 0 32 32" xml:space="preserve">
<g>
	<g>
		<defs>
			<path id="SVGID_829_" d="M-27.865,1.546c-1.952,0-3.533,1.582-3.533,3.527v21.828c0,1.951,1.581,3.527,3.533,3.527h23.734
				c1.952,0,3.532-1.576,3.532-3.527V5.073c0-1.945-1.58-3.527-3.532-3.527H-27.865z"/>
		</defs>
		<clipPath id="SVGID_2_">
			<use xlink:href="#SVGID_829_"  overflow="visible"/>
		</clipPath>
		
			<linearGradient id="SVGID_3_" gradientUnits="userSpaceOnUse" x1="-350.3735" y1="-1308.2773" x2="-348.6334" y2="-1308.2773" gradientTransform="matrix(5.8606 19.1691 19.1691 -5.8606 27110.7812 -951.6753)">
			<stop  offset="0" style="stop-color:#FFFFFF"/>
			<stop  offset="1" style="stop-color:#D0D0D0"/>
		</linearGradient>
		<polygon clip-path="url(#SVGID_2_)" fill="url(#SVGID_3_)" points="-3.229,-7.05 7.494,27.96 -28.768,39.026 -39.488,4.015 		"/>
	</g>
</g>
<g>
	<g>
		<defs>
			<path id="SVGID_835_" d="M4.135,1.546c-1.952,0-3.533,1.582-3.533,3.527v21.828c0,1.951,1.581,3.527,3.533,3.527h23.734
				c1.952,0,3.532-1.576,3.532-3.527V5.073c0-1.945-1.58-3.527-3.532-3.527H4.135z"/>
		</defs>
		<clipPath id="SVGID_5_">
			<use xlink:href="#SVGID_835_"  overflow="visible"/>
		</clipPath>
		
			<linearGradient id="SVGID_6_" gradientUnits="userSpaceOnUse" x1="-349.9067" y1="-1306.751" x2="-348.1666" y2="-1306.751" gradientTransform="matrix(5.8606 19.1691 19.1691 -5.8606 27110.7812 -951.6753)">
			<stop  offset="0" style="stop-color:#FFFFFF"/>
			<stop  offset="1" style="stop-color:#D0D0D0"/>
		</linearGradient>
		<polygon clip-path="url(#SVGID_5_)" fill="url(#SVGID_6_)" points="28.771,-7.05 39.494,27.96 3.232,39.026 -7.488,4.015 		"/>
	</g>
	<path fill="none" stroke="#5C5C5C" stroke-width="0.4351" stroke-linejoin="round" d="M31.403,26.901
		c0,1.953-1.582,3.527-3.532,3.527H4.136c-1.951,0-3.538-1.574-3.538-3.527V5.073c0-1.945,1.587-3.527,3.538-3.527h23.735
		c1.95,0,3.532,1.582,3.532,3.527V26.901z"/>
	<g>
		<defs>
			<path id="SVGID_838_" d="M4.23,2.558c-1.459,0-2.646,1.188-2.646,2.648v21.568c0,1.455,1.188,2.641,2.646,2.641h23.542
				c1.462,0,2.648-1.186,2.648-2.641V5.206c0-1.461-1.187-2.648-2.648-2.648H4.23z"/>
		</defs>
		<clipPath id="SVGID_8_">
			<use xlink:href="#SVGID_838_"  overflow="visible"/>
		</clipPath>
		
			<linearGradient id="SVGID_9_" gradientUnits="userSpaceOnUse" x1="-329.7397" y1="-1279.8164" x2="-328.001" y2="-1279.8164" gradientTransform="matrix(0 15.4443 15.4443 0 19781.8809 5095.1641)">
			<stop  offset="0" style="stop-color:#FFFFFF"/>
			<stop  offset="1" style="stop-color:#F3F3F3"/>
		</linearGradient>
		<rect x="1.584" y="2.558" clip-path="url(#SVGID_8_)" fill="url(#SVGID_9_)" width="28.837" height="26.857"/>
	</g>
	<path fill="none" stroke="#FAFAFA" stroke-width="0.4351" stroke-linejoin="round" d="M30.421,26.774
		c0,1.455-1.19,2.643-2.648,2.643H4.229c-1.457,0-2.647-1.188-2.647-2.643V5.206c0-1.463,1.19-2.646,2.647-2.646h23.544
		c1.458,0,2.648,1.184,2.648,2.646V26.774z"/>
</g>
<g>
	<g>
		<defs>
			<path id="SVGID_841_" d="M36.135,1.546c-1.952,0-3.533,1.582-3.533,3.527v21.828c0,1.951,1.581,3.527,3.533,3.527h23.734
				c1.952,0,3.532-1.576,3.532-3.527V5.073c0-1.945-1.58-3.527-3.532-3.527H36.135z"/>
		</defs>
		<clipPath id="SVGID_11_">
			<use xlink:href="#SVGID_841_"  overflow="visible"/>
		</clipPath>
		
			<linearGradient id="SVGID_12_" gradientUnits="userSpaceOnUse" x1="-349.4399" y1="-1305.2246" x2="-347.7003" y2="-1305.2246" gradientTransform="matrix(5.8606 19.1691 19.1691 -5.8606 27110.7812 -951.6753)">
			<stop  offset="0" style="stop-color:#FFFFFF"/>
			<stop  offset="1" style="stop-color:#D0D0D0"/>
		</linearGradient>
		<polygon clip-path="url(#SVGID_11_)" fill="url(#SVGID_12_)" points="60.771,-7.05 71.494,27.96 35.232,39.026 24.512,4.015 		"/>
	</g>
</g>
<path d="M15.145,21.936c0.334-0.17,0.699-0.229,1.074-0.229c1.27,0,2.08,1.201,2.08,2.469c0,1.746-0.992,2.889-2.639,2.889
	c-1.346,0-2.287-0.855-2.287-1.348c0-0.205,0.117-0.434,0.367-0.434c0.412,0,0.777,0.844,1.932,0.844
	c0.971,0,1.553-0.809,1.553-1.758c0-0.959-0.422-1.725-1.406-1.725c-0.742,0-1.096,0.311-1.381,0.311
	c-0.238,0-0.342-0.152-0.342-0.311c0-0.125,0.049-0.422,0.08-0.674l0.42-2.842c0.037-0.207,0.143-0.264,0.379-0.264h2.82
	c0.244,0,0.434,0.195,0.434,0.436c0,0.238-0.189,0.434-0.434,0.434h-2.316L15.145,21.936z"/>
<path d="M15.41,7.666c0-0.258,0.137-0.445,0.426-0.445c0.291,0,0.428,0.188,0.428,0.445v1.76h1.76c0.26,0,0.447,0.135,0.447,0.426
	c0,0.293-0.188,0.426-0.447,0.426h-1.76v1.762c0,0.26-0.137,0.445-0.428,0.445c-0.289,0-0.426-0.186-0.426-0.445v-1.762h-1.76
	c-0.26,0-0.449-0.133-0.449-0.426c0-0.291,0.189-0.426,0.449-0.426h1.76V7.666z"/>
</svg>
