<?xml version="1.0" encoding="utf-8"?>
<!-- Generator: Adobe Illustrator 16.0.0, SVG Export Plug-In . SVG Version: 6.00 Build 0)  -->
<!DOCTYPE svg PUBLIC "-//W3C//DTD SVG 1.1//EN" "http://www.w3.org/Graphics/SVG/1.1/DTD/svg11.dtd">
<svg version="1.1" id="Reference" xmlns="http://www.w3.org/2000/svg" xmlns:xlink="http://www.w3.org/1999/xlink" x="0px" y="0px"
	 width="32px" height="32px" viewBox="0 0 32 32" enable-background="new 0 0 32 32" xml:space="preserve">
<g>
	<g>
		<g>
			<defs>
				<path id="SVGID_1_" d="M4.135,1.546c-1.952,0-3.533,1.582-3.533,3.527V26.9c0,1.951,1.581,3.527,3.533,3.527h23.734
					c1.951,0,3.531-1.576,3.531-3.527V5.073c0-1.945-1.58-3.527-3.531-3.527H4.135z"/>
			</defs>
			<clipPath id="SVGID_2_">
				<use xlink:href="#SVGID_1_"  overflow="visible"/>
			</clipPath>
			
				<linearGradient id="SVGID_3_" gradientUnits="userSpaceOnUse" x1="-622.27" y1="1362.5918" x2="-620.5299" y2="1362.5918" gradientTransform="matrix(5.8606 19.1691 -19.1691 5.8606 29777.4199 3942.0249)">
				<stop  offset="0" style="stop-color:#FFFFFF"/>
				<stop  offset="1" style="stop-color:#D0D0D0"/>
			</linearGradient>
			<polygon clip-path="url(#SVGID_2_)" fill="url(#SVGID_3_)" points="28.771,-7.05 39.494,27.96 3.232,39.025 -7.488,4.015 			"/>
		</g>
	</g>
	<path fill="none" stroke="#5C5C5C" stroke-width="0.4351" stroke-linejoin="round" d="M31.402,26.9
		c0,1.953-1.582,3.527-3.531,3.527H4.136c-1.951,0-3.538-1.574-3.538-3.527V5.073c0-1.945,1.587-3.527,3.538-3.527h23.735
		c1.949,0,3.531,1.582,3.531,3.527V26.9z"/>
	<g>
		<g>
			<defs>
				<path id="SVGID_4_" d="M4.23,2.558c-1.459,0-2.646,1.188-2.646,2.648v21.567c0,1.455,1.188,2.642,2.646,2.642h23.542
					c1.463,0,2.648-1.187,2.648-2.642V5.206c0-1.461-1.188-2.648-2.648-2.648H4.23z"/>
			</defs>
			<clipPath id="SVGID_5_">
				<use xlink:href="#SVGID_4_"  overflow="visible"/>
			</clipPath>
			
				<linearGradient id="SVGID_6_" gradientUnits="userSpaceOnUse" x1="-603.1211" y1="1321.6191" x2="-601.3823" y2="1321.6191" gradientTransform="matrix(0 15.4443 -15.4443 0 20427.4746 9317.3438)">
				<stop  offset="0" style="stop-color:#FFFFFF"/>
				<stop  offset="1" style="stop-color:#F3F3F3"/>
			</linearGradient>
			<rect x="1.584" y="2.558" clip-path="url(#SVGID_5_)" fill="url(#SVGID_6_)" width="28.837" height="26.857"/>
		</g>
	</g>
	<path fill="none" stroke="#FAFAFA" stroke-width="0.4351" stroke-linejoin="round" d="M30.421,26.773
		c0,1.455-1.19,2.644-2.647,2.644H4.229c-1.457,0-2.647-1.188-2.647-2.644V5.206c0-1.463,1.19-2.646,2.647-2.646h23.544
		c1.457,0,2.647,1.184,2.647,2.646V26.773z"/>
</g>
<g enable-background="new    ">
	<path d="M14.403,22.752c-0.213,0.381-0.303,0.561-0.562,0.561c-0.236,0-0.416-0.156-0.416-0.37c0-0.157,0.112-0.337,0.191-0.483
		l1.965-3.504c0.146-0.258,0.292-0.46,0.584-0.46s0.438,0.202,0.584,0.46l1.965,3.504c0.079,0.146,0.191,0.326,0.191,0.483
		c0,0.214-0.18,0.37-0.416,0.37c-0.258,0-0.348-0.18-0.561-0.561l-1.764-3.269L14.403,22.752z"/>
</g>
<g enable-background="new    ">
	<path d="M14.578,8.75c-0.236-0.101-0.258-0.214-0.258-0.359c0-0.202,0.168-0.382,0.393-0.382c0.281,0,0.651,0.416,1.089,0.73
		c0-0.404-0.124-0.865-0.124-1.168c0-0.214,0.146-0.394,0.404-0.394s0.404,0.18,0.404,0.394c0,0.303-0.124,0.764-0.124,1.168
		c0.438-0.314,0.809-0.73,1.09-0.73c0.225,0,0.393,0.18,0.393,0.382c0,0.146-0.022,0.259-0.258,0.359l-1,0.415l1,0.416
		c0.235,0.102,0.258,0.213,0.258,0.359c0,0.202-0.168,0.382-0.393,0.382c-0.281,0-0.652-0.415-1.09-0.729
		c0,0.404,0.124,0.864,0.124,1.168c0,0.213-0.146,0.393-0.404,0.393s-0.404-0.18-0.404-0.393c0-0.304,0.124-0.764,0.124-1.168
		c-0.438,0.314-0.809,0.729-1.089,0.729c-0.225,0-0.393-0.18-0.393-0.382c0-0.146,0.022-0.258,0.258-0.359l1-0.416L14.578,8.75z"/>
</g>
</svg>
