<?xml version="1.0" encoding="utf-8"?>
<!-- Generator: Adobe Illustrator 16.0.4, SVG Export Plug-In . SVG Version: 6.00 Build 0)  -->
<!DOCTYPE svg PUBLIC "-//W3C//DTD SVG 1.1//EN" "http://www.w3.org/Graphics/SVG/1.1/DTD/svg11.dtd">
<svg version="1.1" id="Reference" xmlns="http://www.w3.org/2000/svg" xmlns:xlink="http://www.w3.org/1999/xlink" x="0px" y="0px"
	 width="32px" height="32px" viewBox="0 0 32 32" enable-background="new 0 0 32 32" xml:space="preserve">
<g>
	<g>
		<defs>
			<path id="SVGID_823_" d="M4.135,1.546c-1.952,0-3.533,1.582-3.533,3.527v21.828c0,1.951,1.581,3.527,3.533,3.527h23.734
				c1.952,0,3.532-1.576,3.532-3.527V5.073c0-1.945-1.58-3.527-3.532-3.527H4.135z"/>
		</defs>
		<clipPath id="SVGID_2_">
			<use xlink:href="#SVGID_823_"  overflow="visible"/>
		</clipPath>
		
			<linearGradient id="SVGID_3_" gradientUnits="userSpaceOnUse" x1="-286.8403" y1="-1309.8047" x2="-285.1002" y2="-1309.8047" gradientTransform="matrix(5.8606 19.1691 19.1691 -5.8606 26799.7031 -2178.498)">
			<stop  offset="0" style="stop-color:#FFFFFF"/>
			<stop  offset="1" style="stop-color:#D0D0D0"/>
		</linearGradient>
		<polygon clip-path="url(#SVGID_2_)" fill="url(#SVGID_3_)" points="28.771,-7.05 39.494,27.96 3.232,39.026 -7.488,4.015 		"/>
	</g>
	<path fill="none" stroke="#5C5C5C" stroke-width="0.4351" stroke-linejoin="round" d="M31.403,26.901
		c0,1.953-1.582,3.527-3.532,3.527H4.136c-1.951,0-3.538-1.574-3.538-3.527V5.073c0-1.945,1.587-3.527,3.538-3.527h23.735
		c1.95,0,3.532,1.582,3.532,3.527V26.901z"/>
	<g>
		<defs>
			<path id="SVGID_826_" d="M4.23,2.558c-1.459,0-2.646,1.188-2.646,2.648v21.568c0,1.455,1.188,2.641,2.646,2.641h23.542
				c1.462,0,2.648-1.186,2.648-2.641V5.206c0-1.461-1.187-2.648-2.648-2.648H4.23z"/>
		</defs>
		<clipPath id="SVGID_5_">
			<use xlink:href="#SVGID_826_"  overflow="visible"/>
		</clipPath>
		
			<linearGradient id="SVGID_6_" gradientUnits="userSpaceOnUse" x1="-265.7397" y1="-1283.9609" x2="-264.001" y2="-1283.9609" gradientTransform="matrix(0 15.4443 15.4443 0 19845.8809 4106.7285)">
			<stop  offset="0" style="stop-color:#FFFFFF"/>
			<stop  offset="1" style="stop-color:#F3F3F3"/>
		</linearGradient>
		<rect x="1.584" y="2.558" clip-path="url(#SVGID_5_)" fill="url(#SVGID_6_)" width="28.837" height="26.857"/>
	</g>
	<path fill="none" stroke="#FAFAFA" stroke-width="0.4351" stroke-linejoin="round" d="M30.421,26.774
		c0,1.455-1.19,2.643-2.648,2.643H4.229c-1.457,0-2.647-1.188-2.647-2.643V5.206c0-1.463,1.19-2.646,2.647-2.646h23.544
		c1.458,0,2.648,1.184,2.648,2.646V26.774z"/>
</g>
<g>
	<g>
		<defs>
			<path id="SVGID_829_" d="M36.135,1.546c-1.952,0-3.533,1.582-3.533,3.527v21.828c0,1.951,1.581,3.527,3.533,3.527h23.734
				c1.952,0,3.532-1.576,3.532-3.527V5.073c0-1.945-1.58-3.527-3.532-3.527H36.135z"/>
		</defs>
		<clipPath id="SVGID_8_">
			<use xlink:href="#SVGID_829_"  overflow="visible"/>
		</clipPath>
		
			<linearGradient id="SVGID_9_" gradientUnits="userSpaceOnUse" x1="-286.3735" y1="-1308.2773" x2="-284.6334" y2="-1308.2773" gradientTransform="matrix(5.8606 19.1691 19.1691 -5.8606 26799.7031 -2178.498)">
			<stop  offset="0" style="stop-color:#FFFFFF"/>
			<stop  offset="1" style="stop-color:#D0D0D0"/>
		</linearGradient>
		<polygon clip-path="url(#SVGID_8_)" fill="url(#SVGID_9_)" points="60.771,-7.05 71.494,27.96 35.232,39.026 24.512,4.015 		"/>
	</g>
</g>
<path d="M15.297,27.064c-1.69,0-2.377-1.268-2.377-1.873c0-0.354,0.183-0.559,0.427-0.559c0.294,0,0.443,0.172,0.559,0.527
	c0.192,0.58,0.604,1.035,1.366,1.035c0.905,0,1.542-0.674,1.542-1.506c0-1.209-0.658-1.52-1.415-1.52
	c-0.399,0-0.616-0.172-0.616-0.434c0-0.23,0.147-0.354,0.525-0.434c0.812-0.184,1.145-0.57,1.145-1.314
	c0-0.775-0.458-1.324-1.155-1.324c-0.801,0-1.094,0.57-1.154,1.188c-0.034,0.459-0.307,0.469-0.48,0.469
	c-0.286,0-0.455-0.205-0.455-0.469c0-1.082,0.787-2.057,2.133-2.057c1.304,0,2.116,0.961,2.116,2.104
	c0,0.674-0.321,1.334-0.961,1.725c0.916,0.273,1.394,1.049,1.394,1.975C17.889,26.139,16.745,27.064,15.297,27.064"/>
<path d="M16.648,12.031c0.318,0,0.582,0.26,0.582,0.582c0,0.32-0.264,0.582-0.582,0.582c-0.322,0-0.584-0.262-0.584-0.582
	C16.064,12.291,16.326,12.031,16.648,12.031 M16.145,5.465c0-0.332,0.195-0.539,0.504-0.539c0.311,0,0.502,0.207,0.502,0.539v4.943
	c0,0.33-0.191,0.537-0.502,0.537c-0.309,0-0.504-0.207-0.504-0.537V5.465z"/>
</svg>
