<?xml version="1.0" encoding="utf-8"?>
<!-- Generator: Adobe Illustrator 16.0.4, SVG Export Plug-In . SVG Version: 6.00 Build 0)  -->
<!DOCTYPE svg PUBLIC "-//W3C//DTD SVG 1.1//EN" "http://www.w3.org/Graphics/SVG/1.1/DTD/svg11.dtd">
<svg version="1.1" xmlns="http://www.w3.org/2000/svg" xmlns:xlink="http://www.w3.org/1999/xlink" x="0px" y="0px" width="74px"
	 height="32px" viewBox="0 0 74 32" enable-background="new 0 0 74 32" xml:space="preserve">
<g id="Layer_3" display="none">
</g>
<g id="Layer_2">
</g>
<g id="Layer_1">
	<g>
		<g>
			<g>
				<defs>
					<path id="SVGID_1543_" d="M4.134,1.559c-1.952,0-3.533,1.582-3.533,3.527v21.828c0,1.951,1.581,3.527,3.533,3.527h23.734
						c1.952,0,3.532-1.576,3.532-3.527V5.086c0-1.945-1.58-3.527-3.532-3.527H4.134z"/>
				</defs>
				<clipPath id="SVGID_2_">
					<use xlink:href="#SVGID_1543_"  overflow="visible"/>
				</clipPath>
				
					<linearGradient id="SVGID_3_" gradientUnits="userSpaceOnUse" x1="35.9531" y1="-1567.3662" x2="37.6932" y2="-1567.3662" gradientTransform="matrix(5.8606 19.1691 19.1691 -5.8606 29845.168 -9875.6172)">
					<stop  offset="0" style="stop-color:#FFFFFF"/>
					<stop  offset="1" style="stop-color:#D0D0D0"/>
				</linearGradient>
				<polygon clip-path="url(#SVGID_2_)" fill="url(#SVGID_3_)" points="28.771,-7.037 39.494,27.973 3.232,39.039 -7.489,4.027 				
					"/>
			</g>
			<path fill="none" stroke="#5C5C5C" stroke-width="0.4351" stroke-linejoin="round" d="M31.403,26.914
				c0,1.953-1.582,3.527-3.532,3.527H4.135c-1.951,0-3.538-1.574-3.538-3.527V5.086c0-1.945,1.587-3.527,3.538-3.527h23.735
				c1.95,0,3.532,1.582,3.532,3.527V26.914z"/>
			<g>
				<defs>
					<path id="SVGID_1546_" d="M4.23,2.57c-1.459,0-2.646,1.188-2.646,2.648v21.568c0,1.455,1.188,2.641,2.646,2.641h23.542
						c1.462,0,2.648-1.186,2.648-2.641V5.219c0-1.461-1.187-2.648-2.648-2.648H4.23z"/>
				</defs>
				<clipPath id="SVGID_5_">
					<use xlink:href="#SVGID_1546_"  overflow="visible"/>
				</clipPath>
				
					<linearGradient id="SVGID_6_" gradientUnits="userSpaceOnUse" x1="65.7358" y1="-1543.4209" x2="67.4746" y2="-1543.4209" gradientTransform="matrix(0 15.4443 15.4443 0 23853.0684 -1012.6702)">
					<stop  offset="0" style="stop-color:#FFFFFF"/>
					<stop  offset="1" style="stop-color:#F3F3F3"/>
				</linearGradient>
				<rect x="1.583" y="2.57" clip-path="url(#SVGID_5_)" fill="url(#SVGID_6_)" width="28.837" height="26.857"/>
			</g>
			<path fill="none" stroke="#FAFAFA" stroke-width="0.4351" stroke-linejoin="round" d="M30.42,26.787
				c0,1.455-1.19,2.643-2.648,2.643H4.228c-1.457,0-2.647-1.188-2.647-2.643V5.219c0-1.463,1.19-2.646,2.647-2.646h23.544
				c1.458,0,2.648,1.184,2.648,2.646V26.787z"/>
		</g>
		<g>
			<path d="M8.085,14.264c0.932,0,1.479,0.322,1.479,0.697c0,0.188-0.15,0.381-0.369,0.381c-0.354,0-0.488-0.287-1.109-0.287
				c-1.135,0-1.578,1.098-1.578,2.031c0,0.932,0.443,2.029,1.578,2.029c0.641,0,0.805-0.309,1.098-0.309
				c0.207,0,0.352,0.135,0.352,0.383c0,0.342-0.508,0.717-1.449,0.717c-1.682,0-2.49-1.361-2.49-2.82
				C5.595,15.625,6.404,14.264,8.085,14.264"/>
			<path d="M11.353,19.418c0,0.301-0.178,0.486-0.455,0.486c-0.281,0-0.457-0.186-0.457-0.486v-7.092
				c0-0.299,0.176-0.486,0.457-0.486c0.277,0,0.455,0.188,0.455,0.486V19.418z"/>
			<path d="M13.136,17.438c0,0.943,0.604,1.682,1.629,1.682c1.213,0,1.521-0.748,1.865-0.748c0.168,0,0.334,0.145,0.334,0.404
				c0,0.447-1.133,1.129-2.211,1.129c-1.762,0-2.529-1.355-2.529-2.818c0-1.494,0.932-2.82,2.477-2.82
				c1.506,0,2.377,1.359,2.377,2.686c0,0.32-0.113,0.486-0.512,0.486H13.136z M16.166,16.754c0-0.789-0.457-1.703-1.465-1.703
				c-1.129-0.037-1.535,0.861-1.564,1.703H16.166z"/>
			<path d="M22.511,19.461c0,0.322-0.246,0.445-0.424,0.445c-0.188,0-0.428-0.123-0.428-0.445v-0.385h-0.02
				c-0.395,0.559-0.91,0.83-1.502,0.83c-1.557,0-2.426-1.361-2.426-2.82c0-1.461,0.869-2.82,2.426-2.82
				c0.631,0,1.078,0.268,1.502,0.734h0.02v-0.287c0-0.322,0.24-0.447,0.428-0.447c0.178,0,0.424,0.125,0.424,0.447V19.461z
				 M20.138,19.119c1.121,0,1.512-1.102,1.512-2.033c0-0.938-0.391-2.031-1.512-2.031s-1.512,1.094-1.512,2.031
				C18.626,18.018,19.017,19.119,20.138,19.119"/>
			<path d="M23.718,14.754c0-0.305,0.178-0.488,0.455-0.488c0.281,0,0.457,0.184,0.457,0.488v0.465h0.023
				c0.203-0.426,0.715-0.953,1.242-0.953c0.32,0,0.506,0.205,0.506,0.467c0,0.258-0.186,0.426-0.566,0.496
				c-0.541,0.094-1.205,0.5-1.205,1.568v2.621c0,0.301-0.176,0.488-0.457,0.488c-0.277,0-0.455-0.188-0.455-0.488V14.754z"/>
		</g>
	</g>
</g>
<g id="Language_specific">
	<g>
		<g>
			<g>
				<defs>
					<path id="SVGID_1849_" d="M46.134,1.559c-1.952,0-3.533,1.582-3.533,3.527v21.828c0,1.951,1.581,3.527,3.533,3.527h23.734
						c1.952,0,3.532-1.576,3.532-3.527V5.086c0-1.945-1.58-3.527-3.532-3.527H46.134z"/>
				</defs>
				<clipPath id="SVGID_8_">
					<use xlink:href="#SVGID_1849_"  overflow="visible"/>
				</clipPath>
				
					<linearGradient id="SVGID_9_" gradientUnits="userSpaceOnUse" x1="36.5659" y1="-1565.3623" x2="38.306" y2="-1565.3623" gradientTransform="matrix(5.8606 19.1691 19.1691 -5.8606 29845.168 -9875.6172)">
					<stop  offset="0" style="stop-color:#FFFFFF"/>
					<stop  offset="1" style="stop-color:#D0D0D0"/>
				</linearGradient>
				<polygon clip-path="url(#SVGID_8_)" fill="url(#SVGID_9_)" points="70.771,-7.037 81.494,27.973 45.232,39.039 34.511,4.027 
									"/>
			</g>
			<path fill="none" stroke="#5C5C5C" stroke-width="0.4351" stroke-linejoin="round" d="M73.403,26.914
				c0,1.953-1.582,3.527-3.532,3.527H46.135c-1.951,0-3.538-1.574-3.538-3.527V5.086c0-1.945,1.587-3.527,3.538-3.527h23.735
				c1.95,0,3.532,1.582,3.532,3.527V26.914z"/>
			<g>
				<defs>
					<path id="SVGID_1852_" d="M46.23,2.57c-1.459,0-2.646,1.188-2.646,2.648v21.568c0,1.455,1.188,2.641,2.646,2.641h23.542
						c1.462,0,2.648-1.186,2.648-2.641V5.219c0-1.461-1.187-2.648-2.648-2.648H46.23z"/>
				</defs>
				<clipPath id="SVGID_11_">
					<use xlink:href="#SVGID_1852_"  overflow="visible"/>
				</clipPath>
				
					<linearGradient id="SVGID_12_" gradientUnits="userSpaceOnUse" x1="65.7358" y1="-1540.7012" x2="67.4746" y2="-1540.7012" gradientTransform="matrix(0 15.4443 15.4443 0 23853.0684 -1012.6702)">
					<stop  offset="0" style="stop-color:#FFFFFF"/>
					<stop  offset="1" style="stop-color:#F3F3F3"/>
				</linearGradient>
				<rect x="43.583" y="2.57" clip-path="url(#SVGID_11_)" fill="url(#SVGID_12_)" width="28.837" height="26.857"/>
			</g>
			<path fill="none" stroke="#FAFAFA" stroke-width="0.4351" stroke-linejoin="round" d="M72.42,26.787
				c0,1.455-1.19,2.643-2.648,2.643H46.228c-1.457,0-2.647-1.188-2.647-2.643V5.219c0-1.463,1.19-2.646,2.647-2.646h23.544
				c1.458,0,2.648,1.184,2.648,2.646V26.787z"/>
		</g>
		<g>
			<path d="M66.25,22.035h-3.068l1.156,1.645l-0.998,0.705l-1.645-2.35h-7.391l-1.645,2.35l-0.998-0.705l1.156-1.645H49.75V9.281
				h3.068l-1.156-1.641l0.998-0.693l1.645,2.334h7.391l1.645-2.334l0.998,0.693l-1.156,1.641h3.068V22.035z M57.25,15.654
				l-3.566-5.115h-2.691v10.254h2.691L57.25,15.654z M60.818,10.539h-5.637l2.809,4.068L60.818,10.539z M60.818,20.793l-2.828-4.07
				l-2.809,4.07H60.818z M65.007,20.793V10.539h-2.691l-3.568,5.115l3.568,5.139H65.007z"/>
		</g>
	</g>
	<line fill="none" stroke="#FFFFFF" stroke-miterlimit="10" x1="39.5" y1="1" x2="33.5" y2="30.062"/>
	<line fill="none" stroke="#000000" stroke-miterlimit="10" x1="40.5" y1="1" x2="34.5" y2="31"/>
</g>
<g id="Layer_5">
</g>
</svg>
