<?xml version="1.0" encoding="utf-8"?>
<!-- Generator: Adobe Illustrator 16.0.0, SVG Export Plug-In . SVG Version: 6.00 Build 0)  -->
<!DOCTYPE svg PUBLIC "-//W3C//DTD SVG 1.1//EN" "http://www.w3.org/Graphics/SVG/1.1/DTD/svg11.dtd">
<svg version="1.1" id="Reference" xmlns="http://www.w3.org/2000/svg" xmlns:xlink="http://www.w3.org/1999/xlink" x="0px" y="0px"
	 width="32px" height="32px" viewBox="0 0 32 32" enable-background="new 0 0 32 32" xml:space="preserve">
<g>
	<g>
		<g>
			<defs>
				<path id="SVGID_1_" d="M4.135,1.528c-1.953,0-3.533,1.582-3.533,3.527v21.828c0,1.951,1.58,3.527,3.533,3.527h23.734
					c1.951,0,3.531-1.576,3.531-3.527V5.056c0-1.945-1.58-3.527-3.531-3.527L4.135,1.528L4.135,1.528z"/>
			</defs>
			<clipPath id="SVGID_2_">
				<use xlink:href="#SVGID_1_"  overflow="visible"/>
			</clipPath>
			
				<linearGradient id="SVGID_3_" gradientUnits="userSpaceOnUse" x1="-486.978" y1="1563.498" x2="-485.2374" y2="1563.498" gradientTransform="matrix(5.8606 19.1691 -19.1691 5.8606 32835.7148 171.1343)">
				<stop  offset="0" style="stop-color:#FFFFFF"/>
				<stop  offset="1" style="stop-color:#D0D0D0"/>
			</linearGradient>
			<polygon clip-path="url(#SVGID_2_)" fill="url(#SVGID_3_)" points="28.771,-7.067 39.494,27.941 3.232,39.009 -7.488,3.997 			
				"/>
		</g>
	</g>
	<path fill="none" stroke="#5C5C5C" stroke-width="0.4351" stroke-linejoin="round" d="M31.402,26.884
		c0,1.953-1.582,3.527-3.531,3.527H4.135c-1.951,0-3.537-1.574-3.537-3.527V5.056c0-1.945,1.586-3.527,3.537-3.527h23.736
		c1.949,0,3.531,1.582,3.531,3.527V26.884z"/>
	<g>
		<g>
			<defs>
				<path id="SVGID_4_" d="M4.23,2.54c-1.459,0-2.646,1.188-2.646,2.648v21.568c0,1.455,1.188,2.641,2.646,2.641h23.542
					c1.463,0,2.647-1.186,2.647-2.641V5.188c0-1.461-1.187-2.648-2.647-2.648H4.23z"/>
			</defs>
			<clipPath id="SVGID_5_">
				<use xlink:href="#SVGID_4_"  overflow="visible"/>
			</clipPath>
			
				<linearGradient id="SVGID_6_" gradientUnits="userSpaceOnUse" x1="-462.6899" y1="1521.9072" x2="-460.9512" y2="1521.9072" gradientTransform="matrix(0 15.4443 -15.4443 0 23520.7871 7148.4688)">
				<stop  offset="0" style="stop-color:#FFFFFF"/>
				<stop  offset="1" style="stop-color:#F3F3F3"/>
			</linearGradient>
			<rect x="1.584" y="2.54" clip-path="url(#SVGID_5_)" fill="url(#SVGID_6_)" width="28.836" height="26.856"/>
		</g>
	</g>
	<path fill="none" stroke="#FAFAFA" stroke-width="0.4351" stroke-linejoin="round" d="M30.42,26.757
		c0,1.455-1.189,2.644-2.648,2.644H4.229c-1.457,0-2.648-1.188-2.648-2.644V5.188c0-1.463,1.191-2.646,2.648-2.646h23.542
		c1.459,0,2.648,1.184,2.648,2.646V26.757z"/>
</g>
<path d="M16.88,23.639c0,0.379-0.312,0.689-0.689,0.689c-0.38,0-0.688-0.311-0.688-0.689c0-0.378,0.309-1.293,0.688-1.293"/>
<g>
	<g enable-background="new    ">
		<path d="M16,9.37c0.778,0,1.887,0.416,1.887,1.003c0,0.202-0.139,0.384-0.426,0.384c-0.406,0-0.566-0.576-1.461-0.576
			c-0.534,0-0.992,0.234-0.992,0.715c0,0.992,3.03,0.885,3.03,2.527c0,1.185-1.014,1.75-2.07,1.75c-1.195,0-2.133-0.598-2.133-1.078
			c0-0.256,0.182-0.426,0.384-0.426c0.416,0,0.757,0.692,1.781,0.692c0.682,0,1.098-0.384,1.098-0.768
			c0-1.109-3.029-1.045-3.029-2.624C14.069,9.925,15.05,9.37,16,9.37z"/>
	</g>
	<g>
		<path d="M15.584,8.638c-0.181,0.074-0.267,0.096-0.362,0.096c-0.276,0-0.405-0.288-0.405-0.447c0-0.129,0.075-0.277,0.373-0.396
			l1.227-0.501c0.181-0.074,0.267-0.096,0.362-0.096c0.275,0,0.404,0.287,0.404,0.448c0,0.128-0.074,0.276-0.373,0.395L15.584,8.638
			z"/>
	</g>
</g>
</svg>
