<?xml version="1.0" encoding="utf-8"?>
<!-- Generator: Adobe Illustrator 16.0.4, SVG Export Plug-In . SVG Version: 6.00 Build 0)  -->
<!DOCTYPE svg PUBLIC "-//W3C//DTD SVG 1.1//EN" "http://www.w3.org/Graphics/SVG/1.1/DTD/svg11.dtd">
<svg version="1.1" xmlns="http://www.w3.org/2000/svg" xmlns:xlink="http://www.w3.org/1999/xlink" x="0px" y="0px" width="32px"
	 height="32px" viewBox="0 0 32 32" enable-background="new 0 0 32 32" xml:space="preserve">
<g id="Layer_3" display="none">
</g>
<g id="Layer_2">
</g>
<g id="Layer_1">
</g>
<g id="Language_specific">
	<g>
		<g>
			<g>
				<defs>
					<path id="SVGID_907_" d="M4.135,1.559c-1.953,0-3.533,1.582-3.533,3.527v21.828c0,1.951,1.58,3.527,3.533,3.527h23.734
						c1.951,0,3.531-1.576,3.531-3.527V5.086c0-1.945-1.58-3.527-3.531-3.527H4.135z"/>
				</defs>
				<clipPath id="SVGID_2_">
					<use xlink:href="#SVGID_907_"  overflow="visible"/>
				</clipPath>
				
					<linearGradient id="SVGID_3_" gradientUnits="userSpaceOnUse" x1="-1145.1206" y1="-620.3945" x2="-1143.3805" y2="-620.3945" gradientTransform="matrix(5.8606 19.1691 19.1691 -5.8606 18614.3828 18314.3301)">
					<stop  offset="0" style="stop-color:#FFFFFF"/>
					<stop  offset="1" style="stop-color:#D0D0D0"/>
				</linearGradient>
				<polygon clip-path="url(#SVGID_2_)" fill="url(#SVGID_3_)" points="28.771,-7.037 39.494,27.973 3.232,39.039 -7.488,4.027 				
					"/>
			</g>
			<path fill="none" stroke="#5C5C5C" stroke-width="0.4351" stroke-linejoin="round" d="M31.402,26.914
				c0,1.953-1.582,3.527-3.531,3.527H4.135c-1.951,0-3.537-1.574-3.537-3.527V5.086c0-1.945,1.586-3.527,3.537-3.527h23.736
				c1.949,0,3.531,1.582,3.531,3.527V26.914z"/>
			<g>
				<defs>
					<path id="SVGID_910_" d="M4.23,2.57c-1.459,0-2.646,1.188-2.646,2.648v21.568c0,1.455,1.188,2.641,2.646,2.641h23.541
						c1.463,0,2.648-1.186,2.648-2.641V5.219c0-1.461-1.186-2.648-2.648-2.648H4.23z"/>
				</defs>
				<clipPath id="SVGID_5_">
					<use xlink:href="#SVGID_910_"  overflow="visible"/>
				</clipPath>
				
					<linearGradient id="SVGID_6_" gradientUnits="userSpaceOnUse" x1="-1147.1782" y1="-589.5713" x2="-1145.4395" y2="-589.5713" gradientTransform="matrix(0 15.4443 15.4443 0 9121.5293 17719.9414)">
					<stop  offset="0" style="stop-color:#FFFFFF"/>
					<stop  offset="1" style="stop-color:#F3F3F3"/>
				</linearGradient>
				<rect x="1.584" y="2.57" clip-path="url(#SVGID_5_)" fill="url(#SVGID_6_)" width="28.836" height="26.857"/>
			</g>
			<path fill="none" stroke="#FAFAFA" stroke-width="0.4351" stroke-linejoin="round" d="M30.42,26.787
				c0,1.455-1.189,2.643-2.648,2.643H4.229c-1.457,0-2.648-1.188-2.648-2.643V5.219c0-1.463,1.191-2.646,2.648-2.646h23.543
				c1.459,0,2.648,1.184,2.648,2.646V26.787z"/>
		</g>
		<g>
			<path d="M16.746,19.994c0.273-0.088,0.553-0.152,0.801,0.096c0.199,0.199,0.229,0.535,0.02,0.744
				c-0.105,0.105-0.232,0.174-0.457,0.25l-1.588,0.166c-0.414,0.051-0.678,0.078-0.801-0.096c0,0-0.232-0.186-0.023-0.396
				c0.105-0.105,0.232-0.17,0.461-0.246L16.746,19.994z"/>
			<path d="M14.768,6.77c0.133-0.256,0.285-0.5,0.635-0.5c0.283,0,0.537,0.215,0.537,0.514c0,0.148-0.037,0.283-0.145,0.5
				l-0.758,1.488C14.9,9.027,14.758,9.27,14.404,9.27c-0.287,0-0.543-0.217-0.543-0.514c0-0.146,0.043-0.283,0.148-0.5L14.768,6.77z
				"/>
			<path d="M16.965,6.77c0.135-0.256,0.281-0.5,0.635-0.5c0.283,0,0.539,0.215,0.539,0.514c0,0.148-0.039,0.283-0.146,0.5
				l-0.758,1.488C17.1,9.027,16.949,9.27,16.6,9.27c-0.285,0-0.539-0.217-0.539-0.514c0-0.146,0.041-0.283,0.146-0.5L16.965,6.77z"
				/>
		</g>
		<g>
			<path d="M26.611,24.283c0-0.715,0-1.205-0.48-1.348c-0.307-0.092-0.449-0.164-0.449-0.391c0-0.225,0.143-0.307,0.449-0.387
				c0.48-0.123,0.48-0.633,0.48-1.35v-1.246c0-0.707,0.336-1.105,1.041-1.105h0.391c0.285,0,0.406,0.102,0.406,0.307
				c0,0.203-0.121,0.307-0.406,0.307h-0.145c-0.266,0-0.449,0.184-0.449,0.492v1.615c0,1.113-0.57,1.316-0.93,1.357v0.02
				c0.359,0.043,0.93,0.246,0.93,1.361v1.615c0,0.307,0.184,0.49,0.449,0.49h0.145c0.285,0,0.406,0.102,0.406,0.309
				c0,0.203-0.121,0.305-0.406,0.305h-0.391c-0.705,0-1.041-0.398-1.041-1.104V24.283z"/>
		</g>
	</g>
</g>
<g id="Layer_5">
</g>
</svg>
