<?xml version="1.0" encoding="utf-8"?>
<!-- Generator: Adobe Illustrator 16.0.4, SVG Export Plug-In . SVG Version: 6.00 Build 0)  -->
<!DOCTYPE svg PUBLIC "-//W3C//DTD SVG 1.1//EN" "http://www.w3.org/Graphics/SVG/1.1/DTD/svg11.dtd">
<svg version="1.1" xmlns="http://www.w3.org/2000/svg" xmlns:xlink="http://www.w3.org/1999/xlink" x="0px" y="0px" width="32px"
	 height="32px" viewBox="0 0 32 32" enable-background="new 0 0 32 32" xml:space="preserve">
<g id="Layer_3" display="none">
</g>
<g id="Layer_2">
</g>
<g id="Layer_1">
	<g>
		<g>
			<g>
				<defs>
					<path id="SVGID_1159_" d="M-31.866,1.559c-1.952,0-3.533,1.582-3.533,3.527v21.828c0,1.951,1.581,3.527,3.533,3.527h23.734
						c1.952,0,3.532-1.576,3.532-3.527V5.086c0-1.945-1.58-3.527-3.532-3.527H-31.866z"/>
				</defs>
				<clipPath id="SVGID_2_">
					<use xlink:href="#SVGID_1159_"  overflow="visible"/>
				</clipPath>
				
					<linearGradient id="SVGID_3_" gradientUnits="userSpaceOnUse" x1="-148.4067" y1="-670.3926" x2="-146.6666" y2="-670.3926" gradientTransform="matrix(5.8606 19.1691 19.1691 -5.8606 13695.4551 -1084.7988)">
					<stop  offset="0" style="stop-color:#FFFFFF"/>
					<stop  offset="1" style="stop-color:#D0D0D0"/>
				</linearGradient>
				<polygon clip-path="url(#SVGID_2_)" fill="url(#SVGID_3_)" points="-7.229,-7.037 3.494,27.973 -32.768,39.039 -43.489,4.027 
									"/>
			</g>
		</g>
	</g>
	<g>
		<g>
			<g>
				<defs>
					<path id="SVGID_1165_" d="M4.134,1.559c-1.952,0-3.533,1.582-3.533,3.527v21.828c0,1.951,1.581,3.527,3.533,3.527h23.734
						c1.952,0,3.532-1.576,3.532-3.527V5.086c0-1.945-1.58-3.527-3.532-3.527H4.134z"/>
				</defs>
				<clipPath id="SVGID_5_">
					<use xlink:href="#SVGID_1165_"  overflow="visible"/>
				</clipPath>
				
					<linearGradient id="SVGID_6_" gradientUnits="userSpaceOnUse" x1="-147.8818" y1="-668.6758" x2="-146.1417" y2="-668.6758" gradientTransform="matrix(5.8606 19.1691 19.1691 -5.8606 13695.4551 -1084.7988)">
					<stop  offset="0" style="stop-color:#FFFFFF"/>
					<stop  offset="1" style="stop-color:#D0D0D0"/>
				</linearGradient>
				<polygon clip-path="url(#SVGID_5_)" fill="url(#SVGID_6_)" points="28.771,-7.037 39.494,27.973 3.232,39.039 -7.489,4.027 				
					"/>
			</g>
			<path fill="none" stroke="#5C5C5C" stroke-width="0.4351" stroke-linejoin="round" d="M31.403,26.914
				c0,1.953-1.582,3.527-3.532,3.527H4.135c-1.951,0-3.538-1.574-3.538-3.527V5.086c0-1.945,1.587-3.527,3.538-3.527h23.735
				c1.95,0,3.532,1.582,3.532,3.527V26.914z"/>
			<g>
				<defs>
					<path id="SVGID_1168_" d="M4.23,2.57c-1.459,0-2.646,1.188-2.646,2.648v21.568c0,1.455,1.188,2.641,2.646,2.641h23.542
						c1.462,0,2.648-1.186,2.648-2.641V5.219c0-1.461-1.187-2.648-2.648-2.648H4.23z"/>
				</defs>
				<clipPath id="SVGID_8_">
					<use xlink:href="#SVGID_1168_"  overflow="visible"/>
				</clipPath>
				
					<linearGradient id="SVGID_9_" gradientUnits="userSpaceOnUse" x1="-135.1782" y1="-655.0977" x2="-133.4395" y2="-655.0977" gradientTransform="matrix(0 15.4443 15.4443 0 10133.5293 2090.3091)">
					<stop  offset="0" style="stop-color:#FFFFFF"/>
					<stop  offset="1" style="stop-color:#F3F3F3"/>
				</linearGradient>
				<rect x="1.583" y="2.57" clip-path="url(#SVGID_8_)" fill="url(#SVGID_9_)" width="28.837" height="26.857"/>
			</g>
			<path fill="none" stroke="#FAFAFA" stroke-width="0.4351" stroke-linejoin="round" d="M30.42,26.787
				c0,1.455-1.19,2.643-2.648,2.643H4.228c-1.457,0-2.647-1.188-2.647-2.643V5.219c0-1.463,1.19-2.646,2.647-2.646h23.544
				c1.458,0,2.648,1.184,2.648,2.646V26.787z"/>
		</g>
		<path d="M15.238,9.195c-1.039-0.354-2.17-0.721-2.17-2.148c0-0.902,0.795-1.965,2.17-2.09V4.422c0-0.139,0.086-0.24,0.238-0.24
			c0.148,0,0.24,0.102,0.24,0.24v0.535c0.912,0.068,1.746,0.469,1.746,0.947c0,0.24-0.184,0.445-0.432,0.445
			c-0.402,0-0.562-0.41-1.314-0.523v2.5C16.779,8.703,18,9.115,18,10.656c0,1.223-0.809,2.34-2.283,2.523v0.582
			c0,0.137-0.092,0.24-0.24,0.24c-0.152,0-0.238-0.104-0.238-0.24v-0.535c-1.166,0-2.252-0.525-2.252-1.018
			c0-0.24,0.139-0.48,0.4-0.48c0.42,0,0.834,0.629,1.852,0.629V9.195z M15.238,5.826C14.595,5.904,14.14,6.35,14.14,6.979
			c0,0.627,0.469,0.924,1.098,1.164V5.826z M15.716,12.301c0.766-0.16,1.209-0.789,1.209-1.598c0-0.754-0.549-1.088-1.209-1.34
			V12.301z"/>
		<path d="M12.462,24.66c-0.342,0-0.43-0.15-0.43-0.354c0-0.148,0.104-0.342,0.252-0.584l2.873-4.717
			c0.211-0.34,0.436-0.457,0.791-0.457c0.447,0,0.766,0.24,0.766,0.836v4.408h0.512c0.244,0,0.434,0.195,0.434,0.434
			c0,0.24-0.189,0.434-0.434,0.434h-0.512v1.623c0,0.332-0.191,0.535-0.502,0.535c-0.307,0-0.504-0.203-0.504-0.535V24.66H12.462z
			 M15.708,23.793v-4.168h-0.021l-2.398,4.168H15.708z"/>
	</g>
	<g>
		<g>
			<g>
				<defs>
					<path id="SVGID_1171_" d="M40.134,1.559c-1.952,0-3.533,1.582-3.533,3.527v21.828c0,1.951,1.581,3.527,3.533,3.527h23.734
						c1.952,0,3.532-1.576,3.532-3.527V5.086c0-1.945-1.58-3.527-3.532-3.527H40.134z"/>
				</defs>
				<clipPath id="SVGID_11_">
					<use xlink:href="#SVGID_1171_"  overflow="visible"/>
				</clipPath>
				
					<linearGradient id="SVGID_12_" gradientUnits="userSpaceOnUse" x1="-147.3564" y1="-666.958" x2="-145.6163" y2="-666.958" gradientTransform="matrix(5.8606 19.1691 19.1691 -5.8606 13695.4551 -1084.7988)">
					<stop  offset="0" style="stop-color:#FFFFFF"/>
					<stop  offset="1" style="stop-color:#D0D0D0"/>
				</linearGradient>
				<polygon clip-path="url(#SVGID_11_)" fill="url(#SVGID_12_)" points="64.771,-7.037 75.494,27.973 39.232,39.039 28.511,4.027 
									"/>
			</g>
		</g>
	</g>
</g>
<g id="Language_specific">
</g>
<g id="Layer_5">
</g>
</svg>
