<?xml version="1.0" encoding="utf-8"?>
<!-- Generator: Adobe Illustrator 16.0.4, SVG Export Plug-In . SVG Version: 6.00 Build 0)  -->
<!DOCTYPE svg PUBLIC "-//W3C//DTD SVG 1.1//EN" "http://www.w3.org/Graphics/SVG/1.1/DTD/svg11.dtd">
<svg version="1.1" xmlns="http://www.w3.org/2000/svg" xmlns:xlink="http://www.w3.org/1999/xlink" x="0px" y="0px" width="32px"
	 height="32px" viewBox="0 0 32 32" enable-background="new 0 0 32 32" xml:space="preserve">
<g id="Layer_3" display="none">
</g>
<g id="Layer_2">
</g>
<g id="Layer_1">
	<g>
		<g>
			<g>
				<defs>
					<path id="SVGID_1171_" d="M-31.866,1.559c-1.952,0-3.533,1.582-3.533,3.527v21.828c0,1.951,1.581,3.527,3.533,3.527h23.734
						c1.952,0,3.532-1.576,3.532-3.527V5.086c0-1.945-1.58-3.527-3.532-3.527H-31.866z"/>
				</defs>
				<clipPath id="SVGID_2_">
					<use xlink:href="#SVGID_1171_"  overflow="visible"/>
				</clipPath>
				
					<linearGradient id="SVGID_3_" gradientUnits="userSpaceOnUse" x1="-219.3564" y1="-666.958" x2="-217.6163" y2="-666.958" gradientTransform="matrix(5.8606 19.1691 19.1691 -5.8606 14045.4199 295.3765)">
					<stop  offset="0" style="stop-color:#FFFFFF"/>
					<stop  offset="1" style="stop-color:#D0D0D0"/>
				</linearGradient>
				<polygon clip-path="url(#SVGID_2_)" fill="url(#SVGID_3_)" points="-7.229,-7.037 3.494,27.973 -32.768,39.039 -43.489,4.027 
									"/>
			</g>
		</g>
	</g>
	<g>
		<g>
			<g>
				<defs>
					<path id="SVGID_1177_" d="M4.134,1.559c-1.952,0-3.533,1.582-3.533,3.527v21.828c0,1.951,1.581,3.527,3.533,3.527h23.734
						c1.952,0,3.532-1.576,3.532-3.527V5.086c0-1.945-1.58-3.527-3.532-3.527H4.134z"/>
				</defs>
				<clipPath id="SVGID_5_">
					<use xlink:href="#SVGID_1177_"  overflow="visible"/>
				</clipPath>
				
					<linearGradient id="SVGID_6_" gradientUnits="userSpaceOnUse" x1="-218.8315" y1="-665.2402" x2="-217.0914" y2="-665.2402" gradientTransform="matrix(5.8606 19.1691 19.1691 -5.8606 14045.4199 295.3765)">
					<stop  offset="0" style="stop-color:#FFFFFF"/>
					<stop  offset="1" style="stop-color:#D0D0D0"/>
				</linearGradient>
				<polygon clip-path="url(#SVGID_5_)" fill="url(#SVGID_6_)" points="28.771,-7.037 39.494,27.973 3.232,39.039 -7.489,4.027 				
					"/>
			</g>
			<path fill="none" stroke="#5C5C5C" stroke-width="0.4351" stroke-linejoin="round" d="M31.403,26.914
				c0,1.953-1.582,3.527-3.532,3.527H4.135c-1.951,0-3.538-1.574-3.538-3.527V5.086c0-1.945,1.587-3.527,3.538-3.527h23.735
				c1.95,0,3.532,1.582,3.532,3.527V26.914z"/>
			<g>
				<defs>
					<path id="SVGID_1180_" d="M4.23,2.57c-1.459,0-2.646,1.188-2.646,2.648v21.568c0,1.455,1.188,2.641,2.646,2.641h23.542
						c1.462,0,2.648-1.186,2.648-2.641V5.219c0-1.461-1.187-2.648-2.648-2.648H4.23z"/>
				</defs>
				<clipPath id="SVGID_8_">
					<use xlink:href="#SVGID_1180_"  overflow="visible"/>
				</clipPath>
				
					<linearGradient id="SVGID_9_" gradientUnits="userSpaceOnUse" x1="-207.1782" y1="-650.4355" x2="-205.4395" y2="-650.4355" gradientTransform="matrix(0 15.4443 15.4443 0 10061.5293 3202.2988)">
					<stop  offset="0" style="stop-color:#FFFFFF"/>
					<stop  offset="1" style="stop-color:#F3F3F3"/>
				</linearGradient>
				<rect x="1.583" y="2.57" clip-path="url(#SVGID_8_)" fill="url(#SVGID_9_)" width="28.837" height="26.857"/>
			</g>
			<path fill="none" stroke="#FAFAFA" stroke-width="0.4351" stroke-linejoin="round" d="M30.42,26.787
				c0,1.455-1.19,2.643-2.648,2.643H4.228c-1.457,0-2.647-1.188-2.647-2.643V5.219c0-1.463,1.19-2.646,2.647-2.646h23.544
				c1.458,0,2.648,1.184,2.648,2.646V26.787z"/>
		</g>
		<g>
			<path d="M14.23,10.135c-0.217,0.387-0.309,0.572-0.57,0.572c-0.244,0-0.428-0.16-0.428-0.377c0-0.162,0.117-0.344,0.197-0.492
				l1.998-3.564c0.148-0.262,0.299-0.469,0.596-0.469s0.443,0.207,0.592,0.469l1.998,3.564c0.08,0.148,0.197,0.33,0.197,0.492
				c0,0.217-0.184,0.377-0.422,0.377c-0.266,0-0.355-0.186-0.57-0.572l-1.795-3.324L14.23,10.135z"/>
			<path d="M13.189,24.02c0-2.373,1.602-4.203,2.834-5.242c0.205-0.17,0.332-0.229,0.467-0.229c0.158,0,0.41,0.16,0.41,0.471
				c0,0.158-0.109,0.285-0.396,0.535c-0.656,0.584-1.133,1.131-1.75,2.262h0.023c0.375-0.195,0.744-0.318,1.291-0.318
				c1.326,0,2.055,1.254,2.055,2.672c0,1.475-1.053,2.648-2.488,2.648C14.216,26.818,13.189,25.645,13.189,24.02 M15.621,25.883
				c0.998,0,1.432-0.811,1.432-1.76c0-1.072-0.434-1.758-1.432-1.758c-0.996,0-1.426,0.822-1.426,1.758
				C14.195,25.072,14.625,25.883,15.621,25.883"/>
		</g>
	</g>
	<g>
		<g>
			<g>
				<defs>
					<path id="SVGID_1183_" d="M40.135,1.559c-1.953,0-3.533,1.582-3.533,3.527v21.828c0,1.951,1.58,3.527,3.533,3.527h23.734
						c1.951,0,3.531-1.576,3.531-3.527V5.086c0-1.945-1.58-3.527-3.531-3.527H40.135z"/>
				</defs>
				<clipPath id="SVGID_11_">
					<use xlink:href="#SVGID_1183_"  overflow="visible"/>
				</clipPath>
				
					<linearGradient id="SVGID_12_" gradientUnits="userSpaceOnUse" x1="-218.3062" y1="-663.5225" x2="-216.566" y2="-663.5225" gradientTransform="matrix(5.8606 19.1691 19.1691 -5.8606 14045.4199 295.3765)">
					<stop  offset="0" style="stop-color:#FFFFFF"/>
					<stop  offset="1" style="stop-color:#D0D0D0"/>
				</linearGradient>
				<polygon clip-path="url(#SVGID_11_)" fill="url(#SVGID_12_)" points="64.771,-7.037 75.494,27.973 39.232,39.039 28.511,4.027 
									"/>
			</g>
		</g>
	</g>
</g>
<g id="Language_specific">
</g>
<g id="Layer_5">
</g>
</svg>
