<?xml version="1.0" encoding="utf-8"?>
<!-- Generator: Adobe Illustrator 16.0.0, SVG Export Plug-In . SVG Version: 6.00 Build 0)  -->
<!DOCTYPE svg PUBLIC "-//W3C//DTD SVG 1.1//EN" "http://www.w3.org/Graphics/SVG/1.1/DTD/svg11.dtd">
<svg version="1.1" id="Layer_1" xmlns="http://www.w3.org/2000/svg" xmlns:xlink="http://www.w3.org/1999/xlink" x="0px" y="0px"
	 width="32px" height="32px" viewBox="0 0 32 32" enable-background="new 0 0 32 32" xml:space="preserve">
<g id="Layer_3" display="none">
</g>
<g id="Layer_2">
</g>
<g id="Layer_1_1_">
</g>
<g id="Language_specific">
	<g>
		<g>
			<g>
				<g>
					<defs>
						<path id="SVGID_1_" d="M4.135,1.559c-1.953,0-3.533,1.582-3.533,3.527v21.828c0,1.951,1.58,3.527,3.533,3.527h23.734
							c1.951,0,3.531-1.576,3.531-3.527V5.086c0-1.945-1.58-3.527-3.531-3.527H4.135z"/>
					</defs>
					<clipPath id="SVGID_2_">
						<use xlink:href="#SVGID_1_"  overflow="visible"/>
					</clipPath>
					
						<linearGradient id="SVGID_3_" gradientUnits="userSpaceOnUse" x1="-1234.6411" y1="717.4805" x2="-1232.9005" y2="717.4805" gradientTransform="matrix(5.8606 19.1691 -19.1691 5.8606 21000.0762 19461.3691)">
						<stop  offset="0" style="stop-color:#FFFFFF"/>
						<stop  offset="1" style="stop-color:#D0D0D0"/>
					</linearGradient>
					<polygon clip-path="url(#SVGID_2_)" fill="url(#SVGID_3_)" points="28.771,-7.037 39.494,27.973 3.232,39.039 -7.488,4.027 
											"/>
				</g>
			</g>
			<path fill="none" stroke="#5C5C5C" stroke-width="0.4351" stroke-linejoin="round" d="M31.402,26.914
				c0,1.953-1.582,3.527-3.531,3.527H4.135c-1.951,0-3.537-1.574-3.537-3.527V5.086c0-1.945,1.586-3.527,3.537-3.527h23.736
				c1.949,0,3.531,1.582,3.531,3.527V26.914z"/>
			<g>
				<g>
					<defs>
						<path id="SVGID_4_" d="M4.23,2.57c-1.459,0-2.646,1.188-2.646,2.648v21.568c0,1.455,1.188,2.641,2.646,2.641h23.542
							c1.463,0,2.647-1.186,2.647-2.641V5.219c0-1.461-1.187-2.648-2.647-2.648L4.23,2.57L4.23,2.57z"/>
					</defs>
					<clipPath id="SVGID_5_">
						<use xlink:href="#SVGID_4_"  overflow="visible"/>
					</clipPath>
					
						<linearGradient id="SVGID_6_" gradientUnits="userSpaceOnUse" x1="-1234.4873" y1="675.2881" x2="-1232.7485" y2="675.2881" gradientTransform="matrix(0 15.4443 -15.4443 0 10445.3496 19068.3672)">
						<stop  offset="0" style="stop-color:#FFFFFF"/>
						<stop  offset="1" style="stop-color:#F3F3F3"/>
					</linearGradient>
					<rect x="1.584" y="2.57" clip-path="url(#SVGID_5_)" fill="url(#SVGID_6_)" width="28.836" height="26.857"/>
				</g>
			</g>
			<path fill="none" stroke="#FAFAFA" stroke-width="0.4351" stroke-linejoin="round" d="M30.42,26.787
				c0,1.455-1.189,2.643-2.648,2.643H4.229c-1.457,0-2.648-1.188-2.648-2.643V5.219c0-1.463,1.191-2.646,2.648-2.646h23.542
				c1.459,0,2.648,1.184,2.648,2.646V26.787z"/>
		</g>
		<g enable-background="new    ">
			<path d="M16.167,25.493c0.314,0,0.573,0.258,0.573,0.572s-0.259,0.573-0.573,0.573s-0.573-0.259-0.573-0.573
				S15.853,25.493,16.167,25.493z M15.673,19.036c0-0.326,0.191-0.528,0.494-0.528s0.494,0.202,0.494,0.528v4.862
				c0,0.325-0.191,0.528-0.494,0.528s-0.494-0.203-0.494-0.528V19.036z"/>
		</g>
		<g enable-background="new    ">
			<path d="M16.083,5.19c1.011,0,2.044,0.606,2.044,1.831c0,0.854-0.326,1.324-1.045,1.773c0.933,0.214,1.449,1.067,1.449,2
				c0,1.303-0.887,2.526-2.448,2.526c-1.561,0-2.448-1.224-2.448-2.526c0-0.933,0.517-1.786,1.449-2
				c-0.719-0.449-1.044-0.92-1.044-1.773C14.039,5.797,15.072,5.19,16.083,5.19z M16.083,12.468c0.741,0,1.393-0.595,1.393-1.628
				c0-0.82-0.472-1.596-1.393-1.596S14.69,10.02,14.69,10.84C14.69,11.873,15.342,12.468,16.083,12.468z M16.083,8.391
				c0.708,0,1.123-0.494,1.123-1.179c0-0.674-0.415-1.168-1.123-1.168c-0.708,0-1.123,0.494-1.123,1.168
				C14.96,7.896,15.375,8.391,16.083,8.391z"/>
		</g>
	</g>
</g>
<g id="Layer_5">
</g>
</svg>
