<?xml version="1.0" encoding="utf-8"?>
<!-- Generator: Adobe Illustrator 16.0.4, SVG Export Plug-In . SVG Version: 6.00 Build 0)  -->
<!DOCTYPE svg PUBLIC "-//W3C//DTD SVG 1.1//EN" "http://www.w3.org/Graphics/SVG/1.1/DTD/svg11.dtd">
<svg version="1.1" xmlns="http://www.w3.org/2000/svg" xmlns:xlink="http://www.w3.org/1999/xlink" x="0px" y="0px" width="74px"
	 height="32px" viewBox="0 0 74 32" enable-background="new 0 0 74 32" xml:space="preserve">
<g id="Layer_3" display="none">
</g>
<g id="Layer_2">
</g>
<g id="Layer_1">
	<g>
		<g>
			<g>
				<defs>
					<path id="SVGID_1549_" d="M4.134,1.559c-1.952,0-3.533,1.582-3.533,3.527v21.828c0,1.951,1.581,3.527,3.533,3.527h23.734
						c1.952,0,3.532-1.576,3.532-3.527V5.086c0-1.945-1.58-3.527-3.532-3.527H4.134z"/>
				</defs>
				<clipPath id="SVGID_2_">
					<use xlink:href="#SVGID_1549_"  overflow="visible"/>
				</clipPath>
				
					<linearGradient id="SVGID_3_" gradientUnits="userSpaceOnUse" x1="26.2686" y1="-1361.4053" x2="28.0087" y2="-1361.4053" gradientTransform="matrix(5.8606 19.1691 19.1691 -5.8606 25953.8418 -8482.915)">
					<stop  offset="0" style="stop-color:#FFFFFF"/>
					<stop  offset="1" style="stop-color:#D0D0D0"/>
				</linearGradient>
				<polygon clip-path="url(#SVGID_2_)" fill="url(#SVGID_3_)" points="28.771,-7.037 39.494,27.973 3.232,39.039 -7.489,4.027 				
					"/>
			</g>
			<path fill="none" stroke="#5C5C5C" stroke-width="0.4351" stroke-linejoin="round" d="M31.403,26.914
				c0,1.953-1.582,3.527-3.532,3.527H4.135c-1.951,0-3.538-1.574-3.538-3.527V5.086c0-1.945,1.587-3.527,3.538-3.527h23.735
				c1.95,0,3.532,1.582,3.532,3.527V26.914z"/>
			<g>
				<defs>
					<path id="SVGID_1552_" d="M4.23,2.57c-1.459,0-2.646,1.188-2.646,2.648v21.568c0,1.455,1.188,2.641,2.646,2.641h23.542
						c1.462,0,2.648-1.186,2.648-2.641V5.219c0-1.461-1.187-2.648-2.648-2.648H4.23z"/>
				</defs>
				<clipPath id="SVGID_5_">
					<use xlink:href="#SVGID_1552_"  overflow="visible"/>
				</clipPath>
				
					<linearGradient id="SVGID_6_" gradientUnits="userSpaceOnUse" x1="52.5918" y1="-1340.4209" x2="54.3311" y2="-1340.4209" gradientTransform="matrix(0 15.4443 15.4443 0 20717.875 -809.6702)">
					<stop  offset="0" style="stop-color:#FFFFFF"/>
					<stop  offset="1" style="stop-color:#F3F3F3"/>
				</linearGradient>
				<rect x="1.583" y="2.57" clip-path="url(#SVGID_5_)" fill="url(#SVGID_6_)" width="28.837" height="26.857"/>
			</g>
			<path fill="none" stroke="#FAFAFA" stroke-width="0.4351" stroke-linejoin="round" d="M30.42,26.787
				c0,1.455-1.19,2.643-2.648,2.643H4.228c-1.457,0-2.647-1.188-2.647-2.643V5.219c0-1.463,1.19-2.646,2.647-2.646h23.544
				c1.458,0,2.648,1.184,2.648,2.646V26.787z"/>
		</g>
		<g>
			<path d="M6.008,18.354c0,1.348,0.859,2.395,2.322,2.395c1.729,0,2.173-1.064,2.659-1.064c0.24,0,0.475,0.207,0.475,0.578
				c0,0.633-1.609,1.611-3.146,1.611c-2.514,0-3.605-1.943-3.605-4.021c0-2.127,1.331-4.021,3.529-4.021
				c2.146,0,3.384,1.936,3.384,3.826c0,0.463-0.162,0.697-0.721,0.697H6.008z M10.328,17.379c0-1.123-0.652-2.424-2.085-2.424
				c-1.611-0.064-2.184,1.225-2.234,2.424H10.328z"/>
			<path d="M12.881,14.525c0-0.424,0.25-0.695,0.652-0.695c0.396,0,0.647,0.271,0.647,0.695v0.314l0.031,0.029
				c0.578-0.74,1.387-1.039,2.173-1.039c1.214,0,2.732,0.771,2.732,2.988v4.361c0,0.426-0.251,0.693-0.652,0.693
				c-0.397,0-0.647-0.268-0.647-0.693v-4.291c0-1.371-0.964-1.934-1.818-1.934c-0.855,0-1.818,0.562-1.818,1.934v4.291
				c0,0.426-0.251,0.693-0.647,0.693c-0.402,0-0.652-0.268-0.652-0.693V14.525z"/>
			<path d="M25.984,20.791h-0.027c-0.373,0.711-1.065,1.076-2.099,1.076c-2.13,0-3.353-1.938-3.353-4.016
				c0-2.084,1.223-4.021,3.353-4.021c1.033,0,1.761,0.58,2.099,1.066h0.027V11.07c0-0.436,0.253-0.695,0.648-0.695
				c0.405,0,0.653,0.26,0.653,0.695v10.105c0,0.43-0.248,0.691-0.653,0.691c-0.396,0-0.648-0.262-0.648-0.691V20.791z
				 M23.961,14.955c-1.598,0-2.159,1.568-2.159,2.896s0.562,2.896,2.159,2.896c1.599,0,2.16-1.568,2.16-2.896
				S25.56,14.955,23.961,14.955"/>
		</g>
	</g>
</g>
<g id="Language_specific">
	<g>
		<g>
			<g>
				<defs>
					<path id="SVGID_1795_" d="M46.134,1.559c-1.952,0-3.533,1.582-3.533,3.527v21.828c0,1.951,1.581,3.527,3.533,3.527h23.734
						c1.952,0,3.532-1.576,3.532-3.527V5.086c0-1.945-1.58-3.527-3.532-3.527H46.134z"/>
				</defs>
				<clipPath id="SVGID_8_">
					<use xlink:href="#SVGID_1795_"  overflow="visible"/>
				</clipPath>
				
					<linearGradient id="SVGID_9_" gradientUnits="userSpaceOnUse" x1="26.8813" y1="-1359.4014" x2="28.6215" y2="-1359.4014" gradientTransform="matrix(5.8606 19.1691 19.1691 -5.8606 25953.8418 -8482.915)">
					<stop  offset="0" style="stop-color:#FFFFFF"/>
					<stop  offset="1" style="stop-color:#D0D0D0"/>
				</linearGradient>
				<polygon clip-path="url(#SVGID_8_)" fill="url(#SVGID_9_)" points="70.771,-7.037 81.494,27.973 45.232,39.039 34.511,4.027 
									"/>
			</g>
			<path fill="none" stroke="#5C5C5C" stroke-width="0.4351" stroke-linejoin="round" d="M73.403,26.914
				c0,1.953-1.582,3.527-3.532,3.527H46.135c-1.951,0-3.538-1.574-3.538-3.527V5.086c0-1.945,1.587-3.527,3.538-3.527h23.735
				c1.95,0,3.532,1.582,3.532,3.527V26.914z"/>
			<g>
				<defs>
					<path id="SVGID_1798_" d="M46.23,2.57c-1.459,0-2.646,1.188-2.646,2.648v21.568c0,1.455,1.188,2.641,2.646,2.641h23.542
						c1.462,0,2.648-1.186,2.648-2.641V5.219c0-1.461-1.187-2.648-2.648-2.648H46.23z"/>
				</defs>
				<clipPath id="SVGID_11_">
					<use xlink:href="#SVGID_1798_"  overflow="visible"/>
				</clipPath>
				
					<linearGradient id="SVGID_12_" gradientUnits="userSpaceOnUse" x1="52.5918" y1="-1337.7012" x2="54.3311" y2="-1337.7012" gradientTransform="matrix(0 15.4443 15.4443 0 20717.875 -809.6702)">
					<stop  offset="0" style="stop-color:#FFFFFF"/>
					<stop  offset="1" style="stop-color:#F3F3F3"/>
				</linearGradient>
				<rect x="43.583" y="2.57" clip-path="url(#SVGID_11_)" fill="url(#SVGID_12_)" width="28.837" height="26.857"/>
			</g>
			<path fill="none" stroke="#FAFAFA" stroke-width="0.4351" stroke-linejoin="round" d="M72.42,26.787
				c0,1.455-1.19,2.643-2.648,2.643H46.228c-1.457,0-2.647-1.188-2.647-2.643V5.219c0-1.463,1.19-2.646,2.647-2.646h23.544
				c1.458,0,2.648,1.184,2.648,2.646V26.787z"/>
		</g>
		<path d="M61.541,20.533l-5.508-1.125c-0.389-0.082-0.773,0.17-0.854,0.561c-0.078,0.4,0.17,0.783,0.568,0.861l8.873,1.82
			l-1.725-8.906c-0.027-0.146-0.102-0.271-0.197-0.371c-0.166-0.162-0.41-0.246-0.654-0.203c-0.396,0.078-0.652,0.461-0.572,0.854
			l1.055,5.441L52.402,9.35l-1.023,1.025L61.541,20.533z"/>
	</g>
	<line fill="none" stroke="#FFFFFF" stroke-miterlimit="10" x1="39.5" y1="1" x2="33.5" y2="30.062"/>
	<line fill="none" stroke="#000000" stroke-miterlimit="10" x1="40.5" y1="1" x2="34.5" y2="31"/>
</g>
<g id="Layer_5">
</g>
</svg>
