<?xml version="1.0" encoding="utf-8"?>
<!-- Generator: Adobe Illustrator 16.0.4, SVG Export Plug-In . SVG Version: 6.00 Build 0)  -->
<!DOCTYPE svg PUBLIC "-//W3C//DTD SVG 1.1//EN" "http://www.w3.org/Graphics/SVG/1.1/DTD/svg11.dtd">
<svg version="1.1" id="Reference" xmlns="http://www.w3.org/2000/svg" xmlns:xlink="http://www.w3.org/1999/xlink" x="0px" y="0px"
	 width="32px" height="32px" viewBox="0 0 32 32" enable-background="new 0 0 32 32" xml:space="preserve">
<g>
	<g>
		<g>
			<defs>
				<path id="SVGID_769_" d="M-27.865,1.805c-1.952,0-3.533,1.582-3.533,3.527V27.16c0,1.951,1.581,3.527,3.533,3.527h23.734
					c1.952,0,3.532-1.576,3.532-3.527V5.332c0-1.945-1.58-3.527-3.532-3.527H-27.865z"/>
			</defs>
			<clipPath id="SVGID_2_">
				<use xlink:href="#SVGID_769_"  overflow="visible"/>
			</clipPath>
			
				<linearGradient id="SVGID_3_" gradientUnits="userSpaceOnUse" x1="-635.687" y1="-1262.0742" x2="-633.9473" y2="-1262.0742" gradientTransform="matrix(5.8606 19.1691 19.1691 -5.8606 27897.2246 4788.5645)">
				<stop  offset="0" style="stop-color:#FFFFFF"/>
				<stop  offset="1" style="stop-color:#D0D0D0"/>
			</linearGradient>
			<polygon clip-path="url(#SVGID_2_)" fill="url(#SVGID_3_)" points="-3.229,-6.791 7.494,28.219 -28.768,39.285 -39.488,4.273 			
				"/>
		</g>
	</g>
</g>
<g>
	<g>
		<g>
			<defs>
				<path id="SVGID_841_" d="M4.135,1.805c-1.952,0-3.533,1.582-3.533,3.527V27.16c0,1.951,1.581,3.527,3.533,3.527h23.734
					c1.952,0,3.532-1.576,3.532-3.527V5.332c0-1.945-1.58-3.527-3.532-3.527H4.135z"/>
			</defs>
			<clipPath id="SVGID_5_">
				<use xlink:href="#SVGID_841_"  overflow="visible"/>
			</clipPath>
			
				<linearGradient id="SVGID_6_" gradientUnits="userSpaceOnUse" x1="-635.2207" y1="-1260.5479" x2="-633.4806" y2="-1260.5479" gradientTransform="matrix(5.8606 19.1691 19.1691 -5.8606 27897.2246 4788.5645)">
				<stop  offset="0" style="stop-color:#FFFFFF"/>
				<stop  offset="1" style="stop-color:#D0D0D0"/>
			</linearGradient>
			<polygon clip-path="url(#SVGID_5_)" fill="url(#SVGID_6_)" points="28.771,-6.791 39.494,28.219 3.232,39.285 -7.488,4.273 			
				"/>
		</g>
		<path fill="none" stroke="#5C5C5C" stroke-width="0.4351" stroke-linejoin="round" d="M31.403,27.16
			c0,1.953-1.582,3.527-3.532,3.527H4.136c-1.951,0-3.538-1.574-3.538-3.527V5.332c0-1.945,1.587-3.527,3.538-3.527h23.735
			c1.95,0,3.532,1.582,3.532,3.527V27.16z"/>
		<g>
			<defs>
				<path id="SVGID_844_" d="M4.23,2.816c-1.459,0-2.646,1.188-2.646,2.648v21.568c0,1.455,1.188,2.641,2.646,2.641h23.542
					c1.462,0,2.648-1.186,2.648-2.641V5.465c0-1.461-1.187-2.648-2.648-2.648H4.23z"/>
			</defs>
			<clipPath id="SVGID_8_">
				<use xlink:href="#SVGID_844_"  overflow="visible"/>
			</clipPath>
			
				<linearGradient id="SVGID_9_" gradientUnits="userSpaceOnUse" x1="-619.7949" y1="-1229.1689" x2="-618.0562" y2="-1229.1689" gradientTransform="matrix(0 15.4443 15.4443 0 18999.6641 9575.1221)">
				<stop  offset="0" style="stop-color:#FFFFFF"/>
				<stop  offset="1" style="stop-color:#F3F3F3"/>
			</linearGradient>
			<rect x="1.584" y="2.816" clip-path="url(#SVGID_8_)" fill="url(#SVGID_9_)" width="28.837" height="26.857"/>
		</g>
		<path fill="none" stroke="#FAFAFA" stroke-width="0.4351" stroke-linejoin="round" d="M30.421,27.033
			c0,1.455-1.19,2.643-2.648,2.643H4.229c-1.457,0-2.647-1.188-2.647-2.643V5.465c0-1.463,1.19-2.646,2.647-2.646h23.544
			c1.458,0,2.648,1.184,2.648,2.646V27.033z"/>
	</g>
	<g>
		<path d="M10.104,25.699c0.239,0,0.432,0.191,0.432,0.43c0,0.242-0.192,0.436-0.432,0.436H6.16c-0.423,0-0.546-0.238-0.546-0.408
			c0-0.129,0.046-0.221,0.217-0.457l2.81-3.758c0.344-0.445,0.596-0.949,0.596-1.439c0-0.742-0.562-1.268-1.292-1.268
			c-0.971,0-1.485,0.822-1.485,1.838c0,0.355-0.227,0.457-0.443,0.457c-0.32,0-0.49-0.193-0.49-0.617c0-1.348,0.91-2.547,2.59-2.547
			c1.347,0,2.194,0.971,2.194,2.021c0,0.471-0.034,0.994-0.562,1.68l-2.727,3.633H10.104z"/>
		<path d="M9.553,10.564c-0.043,0.16-0.091,0.322-0.091,0.467c0,0.195,0.091,0.334,0.32,0.334c0.729,0,1.507-1.084,1.507-2.262
			c0-1.773-1.499-2.787-3.131-2.787c-1.977,0-3.448,1.496-3.448,3.381c0,1.986,1.531,3.381,3.551,3.381
			c1.932,0,2.391-1.256,3.028-1.256c0.158,0,0.286,0.102,0.286,0.262c0,0.629-1.883,1.748-3.393,1.748
			c-2.41,0-4.339-1.807-4.339-4.135c0-2.32,1.955-4.135,4.314-4.135c2.16,0,3.998,1.383,3.998,3.402
			c0,2.217-1.815,3.176-2.831,3.176c-0.459,0-0.721-0.205-0.8-0.652H8.499c-0.306,0.344-0.809,0.652-1.312,0.652
			c-0.981,0-1.726-0.811-1.726-1.793c0-1.449,1.04-2.959,2.587-2.959c0.556,0,1.039,0.242,1.333,0.857l0.149-0.457
			c0.08-0.25,0.217-0.33,0.457-0.33c0.182,0,0.364,0.068,0.364,0.252c0,0.078-0.026,0.17-0.091,0.408L9.553,10.564z M7.404,11.273
			c1.134,0,1.557-1.553,1.557-2.193c0-0.559-0.287-0.822-0.858-0.822c-1.094,0-1.634,1.129-1.634,1.986
			C6.469,10.85,6.894,11.273,7.404,11.273"/>
	</g>
	<path d="M23.73,18.307c0.133-0.254,0.285-0.498,0.635-0.498c0.283,0,0.537,0.215,0.537,0.512c0,0.15-0.037,0.283-0.145,0.5
		L24,20.309c-0.137,0.256-0.279,0.5-0.633,0.5c-0.287,0-0.543-0.217-0.543-0.514c0-0.148,0.043-0.283,0.148-0.502L23.73,18.307z"/>
	<path d="M25.928,18.307c0.135-0.254,0.281-0.498,0.635-0.498c0.283,0,0.539,0.215,0.539,0.512c0,0.15-0.039,0.283-0.146,0.5
		l-0.758,1.488c-0.135,0.256-0.285,0.5-0.635,0.5c-0.285,0-0.539-0.217-0.539-0.514c0-0.148,0.041-0.283,0.146-0.502L25.928,18.307z
		"/>
</g>
</svg>
