<?xml version="1.0" encoding="utf-8"?>
<!-- Generator: Adobe Illustrator 16.0.4, SVG Export Plug-In . SVG Version: 6.00 Build 0)  -->
<!DOCTYPE svg PUBLIC "-//W3C//DTD SVG 1.1//EN" "http://www.w3.org/Graphics/SVG/1.1/DTD/svg11.dtd">
<svg version="1.1" id="Layer_1" xmlns="http://www.w3.org/2000/svg" xmlns:xlink="http://www.w3.org/1999/xlink" x="0px" y="0px"
	 width="32px" height="32px" viewBox="0 0 32 32" enable-background="new 0 0 32 32" xml:space="preserve">
<g id="Layer_3" display="none">
</g>
<g id="Layer_1_1_">
	<g>
		<g>
			<g>
				<g>
					<defs>
						<path id="SVGID_1_" d="M4.134,1.559c-1.952,0-3.533,1.582-3.533,3.527v21.828c0,1.951,1.581,3.527,3.533,3.527h23.734
							c1.952,0,3.532-1.576,3.532-3.527V5.086c0-1.945-1.58-3.527-3.532-3.527H4.134z"/>
					</defs>
					<clipPath id="SVGID_2_">
						<use xlink:href="#SVGID_1_"  overflow="visible"/>
					</clipPath>
					
						<linearGradient id="SVGID_3_" gradientUnits="userSpaceOnUse" x1="-360.6548" y1="819.5352" x2="-358.9142" y2="819.5352" gradientTransform="matrix(5.8606 19.1691 -19.1691 5.8606 17834.2988 2109.7334)">
						<stop  offset="0" style="stop-color:#FFFFFF"/>
						<stop  offset="1" style="stop-color:#D0D0D0"/>
					</linearGradient>
					<polygon clip-path="url(#SVGID_2_)" fill="url(#SVGID_3_)" points="28.771,-7.037 39.494,27.973 3.232,39.039 -7.489,4.027 
											"/>
				</g>
			</g>
			<path fill="none" stroke="#5C5C5C" stroke-width="0.4351" stroke-linejoin="round" d="M31.402,26.914
				c0,1.953-1.582,3.527-3.531,3.527H4.135c-1.951,0-3.538-1.574-3.538-3.527V5.086c0-1.945,1.587-3.527,3.538-3.527H27.87
				c1.95,0,3.532,1.582,3.532,3.527V26.914L31.402,26.914z"/>
			<g>
				<g>
					<defs>
						<path id="SVGID_4_" d="M4.23,2.57c-1.459,0-2.646,1.188-2.646,2.648v21.568c0,1.455,1.188,2.642,2.646,2.642h23.542
							c1.463,0,2.648-1.187,2.648-2.642V5.219c0-1.461-1.188-2.648-2.648-2.648L4.23,2.57L4.23,2.57z"/>
					</defs>
					<clipPath id="SVGID_5_">
						<use xlink:href="#SVGID_4_"  overflow="visible"/>
					</clipPath>
					
						<linearGradient id="SVGID_6_" gradientUnits="userSpaceOnUse" x1="-346.4365" y1="798.0107" x2="-344.6978" y2="798.0107" gradientTransform="matrix(0 15.4443 -15.4443 0 12340.7041 5353.0425)">
						<stop  offset="0" style="stop-color:#FFFFFF"/>
						<stop  offset="1" style="stop-color:#F3F3F3"/>
					</linearGradient>
					<rect x="1.583" y="2.57" clip-path="url(#SVGID_5_)" fill="url(#SVGID_6_)" width="28.837" height="26.858"/>
				</g>
			</g>
			<path fill="none" stroke="#FAFAFA" stroke-width="0.4351" stroke-linejoin="round" d="M30.42,26.787
				c0,1.455-1.189,2.643-2.648,2.643H4.228c-1.457,0-2.647-1.188-2.647-2.643V5.219c0-1.463,1.19-2.646,2.647-2.646h23.543
				c1.459,0,2.648,1.184,2.648,2.646V26.787z"/>
		</g>
		<path d="M12.376,11.838c0-0.365,0.193-0.648,0.637-0.648h2.334c2.867,0,4.273,2.215,4.273,4.758c0,2.879-1.527,4.863-4.107,4.863
			h-2.5c-0.443,0-0.637-0.283-0.637-0.647V11.838z M13.566,19.783h1.705c2.241,0,3.079-1.877,3.079-3.836
			c0-1.975-0.892-3.73-3.161-3.73h-1.623V19.783z"/>
	</g>
</g>
</svg>
