<?xml version="1.0" encoding="utf-8"?>
<!-- Generator: Adobe Illustrator 16.0.0, SVG Export Plug-In . SVG Version: 6.00 Build 0)  -->
<!DOCTYPE svg PUBLIC "-//W3C//DTD SVG 1.1//EN" "http://www.w3.org/Graphics/SVG/1.1/DTD/svg11.dtd">
<svg version="1.1" id="Layer_1" xmlns="http://www.w3.org/2000/svg" xmlns:xlink="http://www.w3.org/1999/xlink" x="0px" y="0px"
	 width="32px" height="32px" viewBox="0 0 32 32" enable-background="new 0 0 32 32" xml:space="preserve">
<g id="Layer_3" display="none">
</g>
<g id="Layer_2">
</g>
<g id="Layer_1_1_">
	<g>
		<g>
			<g>
				<g>
					<g>
						<defs>
							<path id="SVGID_1_" d="M4.134,1.559c-1.952,0-3.533,1.582-3.533,3.527v21.828c0,1.951,1.581,3.527,3.533,3.527h23.734
								c1.952,0,3.532-1.576,3.532-3.527V5.086c0-1.945-1.58-3.527-3.532-3.527H4.134z"/>
						</defs>
						<clipPath id="SVGID_2_">
							<use xlink:href="#SVGID_1_"  overflow="visible"/>
						</clipPath>
						
							<linearGradient id="SVGID_3_" gradientUnits="userSpaceOnUse" x1="-27.1392" y1="-657.0977" x2="-25.3986" y2="-657.0977" gradientTransform="matrix(5.8606 19.1691 19.1691 -5.8606 12765.9141 -3331.4729)">
							<stop  offset="0" style="stop-color:#FFFFFF"/>
							<stop  offset="1" style="stop-color:#D0D0D0"/>
						</linearGradient>
						<polygon clip-path="url(#SVGID_2_)" fill="url(#SVGID_3_)" points="28.771,-7.037 39.494,27.973 3.232,39.039 -7.489,4.027 
													"/>
					</g>
				</g>
			</g>
			<path fill="none" stroke="#5C5C5C" stroke-width="0.4351" stroke-linejoin="round" d="M31.402,26.914
				c0,1.953-1.582,3.527-3.531,3.527H4.135c-1.951,0-3.538-1.574-3.538-3.527V5.086c0-1.945,1.587-3.527,3.538-3.527H27.87
				c1.95,0,3.532,1.582,3.532,3.527V26.914L31.402,26.914z"/>
			<g>
				<g>
					<g>
						<defs>
							<path id="SVGID_4_" d="M4.23,2.57c-1.459,0-2.646,1.188-2.646,2.648v21.568c0,1.455,1.188,2.641,2.646,2.641h23.542
								c1.463,0,2.648-1.186,2.648-2.641V5.219c0-1.461-1.188-2.648-2.648-2.648L4.23,2.57L4.23,2.57z"/>
						</defs>
						<clipPath id="SVGID_5_">
							<use xlink:href="#SVGID_4_"  overflow="visible"/>
						</clipPath>
						
							<linearGradient id="SVGID_6_" gradientUnits="userSpaceOnUse" x1="-7.7969" y1="-623.3706" x2="-6.0581" y2="-623.3706" gradientTransform="matrix(0 15.4443 15.4443 0 9643.5283 122.9898)">
							<stop  offset="0" style="stop-color:#FFFFFF"/>
							<stop  offset="1" style="stop-color:#F3F3F3"/>
						</linearGradient>
						<rect x="1.583" y="2.57" clip-path="url(#SVGID_5_)" fill="url(#SVGID_6_)" width="28.837" height="26.857"/>
					</g>
				</g>
			</g>
			<path fill="none" stroke="#FAFAFA" stroke-width="0.4351" stroke-linejoin="round" d="M30.42,26.787
				c0,1.455-1.189,2.643-2.648,2.643H4.228c-1.457,0-2.647-1.188-2.647-2.643V5.219c0-1.463,1.19-2.646,2.647-2.646h23.543
				c1.459,0,2.647,1.184,2.647,2.646L30.42,26.787L30.42,26.787z"/>
		</g>
		<g>
			<path d="M18.104,25.453c0.238,0,0.433,0.191,0.433,0.43c0,0.242-0.192,0.436-0.433,0.436H14.16c-0.423,0-0.546-0.236-0.546-0.406
				c0-0.129,0.046-0.223,0.217-0.457l2.81-3.76c0.344-0.443,0.596-0.947,0.596-1.438c0-0.74-0.562-1.268-1.292-1.268
				c-0.971,0-1.485,0.82-1.485,1.838c0,0.354-0.227,0.457-0.443,0.457c-0.32,0-0.49-0.193-0.49-0.617c0-1.35,0.91-2.547,2.59-2.547
				c1.347,0,2.193,0.971,2.193,2.021c0,0.471-0.033,0.993-0.562,1.68l-2.727,3.634L18.104,25.453L18.104,25.453z"/>
		</g>
	</g>
</g>
<g id="Language_specific">
</g>
<g id="Layer_5">
</g>
<path d="M27.842,13.366c-0.344,0.231-0.932,0.453-1.658,0.453c-0.898,0-1.714-0.343-2.256-0.99
	c-0.424-0.466-0.702-1.113-0.803-1.913h-0.69v-0.556h0.632v-0.167c0-0.166,0.016-0.333,0.025-0.49h-0.658V9.146h0.734
	c0.133-0.778,0.457-1.424,0.914-1.881c0.557-0.588,1.291-0.923,2.189-0.923c0.672,0,1.181,0.19,1.492,0.358l-0.219,0.731
	c-0.294-0.167-0.747-0.311-1.249-0.311c-0.601,0-1.103,0.213-1.479,0.6c-0.324,0.334-0.546,0.836-0.656,1.424h3.104V9.7H24.06
	c-0.023,0.145-0.023,0.3-0.023,0.468v0.19h3.228v0.556h-3.15c0.09,0.646,0.302,1.122,0.613,1.458c0.41,0.444,0.969,0.645,1.57,0.645
	c0.59,0,1.101-0.211,1.358-0.366L27.842,13.366z"/>
<path d="M17.41,9.862c-0.039,0.146-0.083,0.293-0.083,0.425c0,0.177,0.083,0.304,0.292,0.304c0.662,0,1.369-0.985,1.369-2.056
	c0-1.611-1.362-2.533-2.846-2.533c-1.797,0-3.134,1.36-3.134,3.073c0,1.805,1.392,3.073,3.227,3.073
	c1.755,0,2.172-1.142,2.752-1.142c0.143,0,0.26,0.093,0.26,0.238c0,0.572-1.711,1.589-3.083,1.589c-2.19,0-3.944-1.643-3.944-3.758
	c0-2.109,1.777-3.758,3.921-3.758c1.964,0,3.634,1.257,3.634,3.092c0,2.015-1.65,2.887-2.573,2.887
	c-0.417,0-0.655-0.187-0.727-0.592h-0.024c-0.278,0.312-0.735,0.592-1.192,0.592c-0.892,0-1.569-0.737-1.569-1.629
	c0-1.317,0.945-2.689,2.351-2.689c0.505,0,0.945,0.22,1.211,0.779l0.135-0.416c0.073-0.227,0.198-0.3,0.416-0.3
	c0.166,0,0.331,0.062,0.331,0.229c0,0.071-0.023,0.154-0.084,0.371L17.41,9.862z M15.458,10.506c1.031,0,1.415-1.411,1.415-1.993
	c0-0.508-0.261-0.747-0.78-0.747c-0.994,0-1.485,1.026-1.485,1.805C14.607,10.122,14.994,10.506,15.458,10.506"/>
</svg>
