<?xml version="1.0" encoding="utf-8"?>
<!-- Generator: Adobe Illustrator 16.0.0, SVG Export Plug-In . SVG Version: 6.00 Build 0)  -->
<!DOCTYPE svg PUBLIC "-//W3C//DTD SVG 1.1//EN" "http://www.w3.org/Graphics/SVG/1.1/DTD/svg11.dtd">
<svg version="1.1" id="Layer_1" xmlns="http://www.w3.org/2000/svg" xmlns:xlink="http://www.w3.org/1999/xlink" x="0px" y="0px"
	 width="32px" height="32px" viewBox="0 0 32 32" enable-background="new 0 0 32 32" xml:space="preserve">
<g id="Layer_3" display="none">
</g>
<g id="Layer_2">
</g>
<g id="Layer_1_1_">
</g>
<g id="Language_specific">
	<g>
		<g>
			<g>
				<g>
					<defs>
						<path id="SVGID_1_" d="M4.135,1.559c-1.953,0-3.533,1.582-3.533,3.527v21.828c0,1.951,1.58,3.527,3.533,3.527h23.734
							c1.951,0,3.531-1.576,3.531-3.527V5.086c0-1.945-1.58-3.527-3.531-3.527H4.135z"/>
					</defs>
					<clipPath id="SVGID_2_">
						<use xlink:href="#SVGID_1_"  overflow="visible"/>
					</clipPath>
					
						<linearGradient id="SVGID_3_" gradientUnits="userSpaceOnUse" x1="-1195.2241" y1="719.3887" x2="-1193.484" y2="719.3887" gradientTransform="matrix(5.8606 19.1691 -19.1691 5.8606 20805.6387 18694.6035)">
						<stop  offset="0" style="stop-color:#FFFFFF"/>
						<stop  offset="1" style="stop-color:#D0D0D0"/>
					</linearGradient>
					<polygon clip-path="url(#SVGID_2_)" fill="url(#SVGID_3_)" points="28.771,-7.037 39.494,27.973 3.232,39.039 -7.488,4.027 
											"/>
				</g>
			</g>
			<path fill="none" stroke="#5C5C5C" stroke-width="0.4351" stroke-linejoin="round" d="M31.402,26.914
				c0,1.953-1.582,3.527-3.531,3.527H4.135c-1.951,0-3.537-1.574-3.537-3.527V5.086c0-1.945,1.586-3.527,3.537-3.527h23.736
				c1.949,0,3.531,1.582,3.531,3.527V26.914z"/>
			<g>
				<g>
					<defs>
						<path id="SVGID_4_" d="M4.23,2.57c-1.459,0-2.646,1.188-2.646,2.648v21.568c0,1.455,1.188,2.641,2.646,2.641h23.542
							c1.463,0,2.647-1.186,2.647-2.641V5.219c0-1.461-1.187-2.648-2.647-2.648L4.23,2.57L4.23,2.57z"/>
					</defs>
					<clipPath id="SVGID_5_">
						<use xlink:href="#SVGID_4_"  overflow="visible"/>
					</clipPath>
					
						<linearGradient id="SVGID_6_" gradientUnits="userSpaceOnUse" x1="-1194.4873" y1="677.8779" x2="-1192.7485" y2="677.8779" gradientTransform="matrix(0 15.4443 -15.4443 0 10485.3496 18450.5938)">
						<stop  offset="0" style="stop-color:#FFFFFF"/>
						<stop  offset="1" style="stop-color:#F3F3F3"/>
					</linearGradient>
					<rect x="1.584" y="2.57" clip-path="url(#SVGID_5_)" fill="url(#SVGID_6_)" width="28.836" height="26.857"/>
				</g>
			</g>
			<path fill="none" stroke="#FAFAFA" stroke-width="0.4351" stroke-linejoin="round" d="M30.42,26.787
				c0,1.455-1.189,2.643-2.648,2.643H4.229c-1.457,0-2.648-1.188-2.648-2.643V5.219c0-1.463,1.191-2.646,2.648-2.646h23.542
				c1.459,0,2.648,1.184,2.648,2.646V26.787z"/>
		</g>
		<g enable-background="new    ">
			<path d="M14.527,23.966c0,1.021,0.651,1.819,1.763,1.819c1.314,0,1.651-0.809,2.022-0.809c0.18,0,0.359,0.157,0.359,0.438
				c0,0.482-1.225,1.224-2.393,1.224c-1.909,0-2.74-1.472-2.74-3.055c0-1.617,1.011-3.055,2.684-3.055
				c1.628,0,2.572,1.472,2.572,2.909c0,0.348-0.123,0.527-0.551,0.527H14.527z M17.807,23.225c0-0.854-0.494-1.842-1.583-1.842
				c-1.224-0.045-1.662,0.933-1.696,1.842H17.807z M15.313,19.126c-0.314-0.124-0.393-0.281-0.393-0.416
				c0-0.168,0.135-0.472,0.427-0.472c0.101,0,0.191,0.022,0.382,0.101l1.292,0.528c0.314,0.124,0.394,0.28,0.394,0.415
				c0,0.169-0.135,0.473-0.428,0.473c-0.101,0-0.19-0.023-0.381-0.102L15.313,19.126z"/>
		</g>
		<g enable-background="new    ">
			<path d="M14.017,6.111c-0.236,0-0.427-0.191-0.427-0.427s0.191-0.427,0.427-0.427h4.054c0.304,0,0.506,0.078,0.506,0.314
				c0,0.157-0.067,0.314-0.191,0.596l-2.987,6.794c-0.135,0.314-0.382,0.359-0.595,0.359c-0.135,0-0.371-0.124-0.371-0.382
				c0-0.078,0.034-0.236,0.157-0.527l2.796-6.278V6.111H14.017z"/>
		</g>
	</g>
</g>
<g id="Layer_5">
</g>
</svg>
