<?xml version="1.0" encoding="utf-8"?>
<!-- Generator: Adobe Illustrator 16.0.0, SVG Export Plug-In . SVG Version: 6.00 Build 0)  -->
<!DOCTYPE svg PUBLIC "-//W3C//DTD SVG 1.1//EN" "http://www.w3.org/Graphics/SVG/1.1/DTD/svg11.dtd">
<svg version="1.1" id="Layer_1" xmlns="http://www.w3.org/2000/svg" xmlns:xlink="http://www.w3.org/1999/xlink" x="0px" y="0px"
	 width="32px" height="32px" viewBox="0 0 32 32" enable-background="new 0 0 32 32" xml:space="preserve">
<g id="Layer_3" display="none">
</g>
<g id="Layer_2">
	<g display="none">
		<g display="inline">
			<g>
				<defs>
					<path id="SVGID_1_" d="M-23.183-27.799c-2.331,0-4.22,1.889-4.22,4.223v15.16c0,2.322,1.889,4.215,4.22,4.215h22.365
						c2.331,0,4.221-1.893,4.221-4.215v-15.16c0-2.334-1.89-4.223-4.221-4.223H-23.183z"/>
				</defs>
				<clipPath id="SVGID_2_">
					<use xlink:href="#SVGID_1_"  overflow="visible"/>
				</clipPath>
				
					<linearGradient id="SVGID_3_" gradientUnits="userSpaceOnUse" x1="-529.6372" y1="744.8525" x2="-527.4314" y2="744.8525" gradientTransform="matrix(4.3973 14.3829 -14.3829 4.3973 13025.2383 4310.4087)">
					<stop  offset="0" style="stop-color:#FFFFFF"/>
					<stop  offset="1" style="stop-color:#D0CFD0"/>
				</linearGradient>
				<polygon clip-path="url(#SVGID_2_)" fill="url(#SVGID_3_)" points="-0.548,-38.129 10,-6.219 -24.181,6.129 -34,-25.779 				"/>
			</g>
		</g>
	</g>
	<g display="none">
		<g display="inline">
			<g>
				<defs>
					<path id="SVGID_4_" d="M8.817-27.799c-2.331,0-4.22,1.889-4.22,4.223v15.16c0,2.322,1.889,4.215,4.22,4.215h22.365
						c2.332,0,4.221-1.893,4.221-4.215v-15.16c0-2.334-1.889-4.223-4.221-4.223H8.817z"/>
				</defs>
				<clipPath id="SVGID_5_">
					<use xlink:href="#SVGID_4_"  overflow="visible"/>
				</clipPath>
				
					<linearGradient id="SVGID_6_" gradientUnits="userSpaceOnUse" x1="-529.0151" y1="742.8184" x2="-526.8092" y2="742.8184" gradientTransform="matrix(4.3973 14.3829 -14.3829 4.3973 13025.2383 4310.4087)">
					<stop  offset="0" style="stop-color:#FFFFFF"/>
					<stop  offset="1" style="stop-color:#D0CFD0"/>
				</linearGradient>
				<polygon clip-path="url(#SVGID_5_)" fill="url(#SVGID_6_)" points="31.452,-38.129 42,-6.219 7.819,6.129 -2,-25.779 				"/>
			</g>
		</g>
	</g>
	<g display="none">
		<g display="inline">
			<g>
				<defs>
					<path id="SVGID_7_" d="M40.816-27.799c-2.33,0-4.219,1.889-4.219,4.223v15.16c0,2.322,1.889,4.215,4.219,4.215h22.365
						c2.332,0,4.221-1.893,4.221-4.215v-15.16c0-2.334-1.889-4.223-4.221-4.223H40.816z"/>
				</defs>
				<clipPath id="SVGID_8_">
					<use xlink:href="#SVGID_7_"  overflow="visible"/>
				</clipPath>
				
					<linearGradient id="SVGID_9_" gradientUnits="userSpaceOnUse" x1="-528.3931" y1="740.7832" x2="-526.1873" y2="740.7832" gradientTransform="matrix(4.3973 14.3829 -14.3829 4.3973 13025.2383 4310.4087)">
					<stop  offset="0" style="stop-color:#FFFFFF"/>
					<stop  offset="1" style="stop-color:#D0CFD0"/>
				</linearGradient>
				<polygon clip-path="url(#SVGID_8_)" fill="url(#SVGID_9_)" points="63.452,-38.129 74,-6.219 39.818,6.129 30,-25.779 				"/>
			</g>
		</g>
	</g>
</g>
<g id="Layer_1_1_">
	<g>
		<g>
			<g>
				<g>
					<defs>
						<path id="SVGID_10_" d="M4.135,1.559c-1.952,0-3.533,1.582-3.533,3.527v21.828c0,1.951,1.581,3.527,3.533,3.527h23.734
							c1.951,0,3.531-1.576,3.531-3.527V5.086c0-1.945-1.58-3.527-3.531-3.527H4.135z"/>
					</defs>
					<clipPath id="SVGID_11_">
						<use xlink:href="#SVGID_10_"  overflow="visible"/>
					</clipPath>
					
						<linearGradient id="SVGID_12_" gradientUnits="userSpaceOnUse" x1="-552.7344" y1="750.4941" x2="-550.9941" y2="750.4941" gradientTransform="matrix(5.8606 19.1691 -19.1691 5.8606 17636.5293 6196.353)">
						<stop  offset="0" style="stop-color:#FFFFFF"/>
						<stop  offset="1" style="stop-color:#D0D0D0"/>
					</linearGradient>
					<polygon clip-path="url(#SVGID_11_)" fill="url(#SVGID_12_)" points="28.771,-7.037 39.494,27.973 3.232,39.039 -7.488,4.027 
											"/>
				</g>
			</g>
			<path fill="none" stroke="#5C5C5C" stroke-width="0.4351" stroke-linejoin="round" d="M31.402,26.914
				c0,1.953-1.582,3.527-3.531,3.527H4.136c-1.951,0-3.538-1.574-3.538-3.527V5.086c0-1.945,1.587-3.527,3.538-3.527h23.735
				c1.949,0,3.531,1.582,3.531,3.527V26.914z"/>
			<g>
				<g>
					<defs>
						<path id="SVGID_13_" d="M4.23,2.57c-1.459,0-2.646,1.188-2.646,2.648v21.568c0,1.455,1.188,2.641,2.646,2.641h23.542
							c1.463,0,2.648-1.186,2.648-2.641V5.219c0-1.461-1.188-2.648-2.648-2.648L4.23,2.57L4.23,2.57z"/>
					</defs>
					<clipPath id="SVGID_14_">
						<use xlink:href="#SVGID_13_"  overflow="visible"/>
					</clipPath>
					
						<linearGradient id="SVGID_15_" gradientUnits="userSpaceOnUse" x1="-542.4873" y1="720.0938" x2="-540.7485" y2="720.0938" gradientTransform="matrix(0 15.4443 -15.4443 0 11137.3496 8380.9141)">
						<stop  offset="0" style="stop-color:#FFFFFF"/>
						<stop  offset="1" style="stop-color:#F3F3F3"/>
					</linearGradient>
					<rect x="1.584" y="2.57" clip-path="url(#SVGID_14_)" fill="url(#SVGID_15_)" width="28.837" height="26.857"/>
				</g>
			</g>
			<path fill="none" stroke="#FAFAFA" stroke-width="0.4351" stroke-linejoin="round" d="M30.421,26.787
				c0,1.455-1.19,2.643-2.647,2.643H4.229c-1.457,0-2.647-1.188-2.647-2.643V5.219c0-1.463,1.19-2.646,2.647-2.646h23.544
				c1.457,0,2.647,1.184,2.647,2.646V26.787z"/>
		</g>
		<g enable-background="new    ">
			<path d="M15.73,19.996c-0.191,0.078-0.281,0.102-0.382,0.102c-0.292,0-0.427-0.304-0.427-0.473c0-0.135,0.079-0.291,0.393-0.415
				l1.291-0.528c0.191-0.078,0.281-0.101,0.383-0.101c0.291,0,0.426,0.304,0.426,0.472c0,0.135-0.078,0.292-0.393,0.416
				L15.73,19.996z"/>
		</g>
		<g enable-background="new    ">
			<path d="M15.224,7.152c-0.314-0.124-0.393-0.281-0.393-0.416c0-0.168,0.135-0.472,0.427-0.472c0.101,0,0.191,0.022,0.382,0.101
				l1.292,0.528c0.314,0.124,0.394,0.28,0.394,0.415c0,0.169-0.135,0.473-0.428,0.473c-0.101,0-0.19-0.023-0.381-0.102L15.224,7.152
				z"/>
		</g>
	</g>
</g>
<g id="Layer_5">
</g>
</svg>
