<?xml version="1.0" encoding="utf-8"?>
<!-- Generator: Adobe Illustrator 16.0.0, SVG Export Plug-In . SVG Version: 6.00 Build 0)  -->
<!DOCTYPE svg PUBLIC "-//W3C//DTD SVG 1.1//EN" "http://www.w3.org/Graphics/SVG/1.1/DTD/svg11.dtd">
<svg version="1.1" id="Reference" xmlns="http://www.w3.org/2000/svg" xmlns:xlink="http://www.w3.org/1999/xlink" x="0px" y="0px"
	 width="32px" height="32px" viewBox="0 0 32 32" enable-background="new 0 0 32 32" xml:space="preserve">
<g>
	<g>
		<g>
			<g>
				<defs>
					<path id="SVGID_1_" d="M4.135,1.57c-1.952,0-3.533,1.582-3.533,3.527v21.828c0,1.951,1.581,3.527,3.533,3.527h23.734
						c1.951,0,3.531-1.576,3.531-3.527V5.098c0-1.945-1.58-3.527-3.531-3.527L4.135,1.57L4.135,1.57z"/>
				</defs>
				<clipPath id="SVGID_2_">
					<use xlink:href="#SVGID_1_"  overflow="visible"/>
				</clipPath>
				
					<linearGradient id="SVGID_3_" gradientUnits="userSpaceOnUse" x1="-392.376" y1="1568.0781" x2="-390.6358" y2="1568.0781" gradientTransform="matrix(5.8606 19.1691 -19.1691 5.8606 32369.1074 -1669.1001)">
					<stop  offset="0" style="stop-color:#FFFFFF"/>
					<stop  offset="1" style="stop-color:#D0D0D0"/>
				</linearGradient>
				<polygon clip-path="url(#SVGID_2_)" fill="url(#SVGID_3_)" points="28.771,-7.025 39.494,27.984 3.232,39.051 -7.488,4.039 				
					"/>
			</g>
		</g>
		<path fill="none" stroke="#5C5C5C" stroke-width="0.4351" stroke-linejoin="round" d="M31.402,26.926
			c0,1.953-1.582,3.527-3.531,3.527H4.136c-1.951,0-3.538-1.574-3.538-3.527V5.098c0-1.945,1.587-3.527,3.538-3.527h23.735
			c1.949,0,3.531,1.582,3.531,3.527V26.926z"/>
		<g>
			<g>
				<defs>
					<path id="SVGID_4_" d="M4.23,2.582c-1.459,0-2.646,1.188-2.646,2.648v21.568c0,1.455,1.188,2.642,2.646,2.642h23.542
						c1.463,0,2.648-1.187,2.648-2.642V5.23c0-1.461-1.188-2.648-2.648-2.648H4.23z"/>
				</defs>
				<clipPath id="SVGID_5_">
					<use xlink:href="#SVGID_4_"  overflow="visible"/>
				</clipPath>
				
					<linearGradient id="SVGID_6_" gradientUnits="userSpaceOnUse" x1="-366.688" y1="1528.123" x2="-364.9487" y2="1528.123" gradientTransform="matrix(0 15.4443 -15.4443 0 23616.7871 5665.8203)">
					<stop  offset="0" style="stop-color:#FFFFFF"/>
					<stop  offset="1" style="stop-color:#F3F3F3"/>
				</linearGradient>
				<rect x="1.584" y="2.582" clip-path="url(#SVGID_5_)" fill="url(#SVGID_6_)" width="28.837" height="26.857"/>
			</g>
		</g>
		<path fill="none" stroke="#FAFAFA" stroke-width="0.4351" stroke-linejoin="round" d="M30.421,26.799
			c0,1.455-1.19,2.643-2.647,2.643H4.229c-1.457,0-2.647-1.188-2.647-2.643V5.23c0-1.463,1.19-2.646,2.647-2.646h23.544
			c1.457,0,2.647,1.184,2.647,2.646V26.799z"/>
	</g>
	<path d="M6.43,6.698c0-0.342,0.177-0.604,0.592-0.604h1.963c1.593,0,2.426,1.124,2.426,2.148c0,0.985-0.519,1.745-1.252,1.974
		v0.023c1.088,0.113,1.95,1.038,1.95,2.226c0,1.416-1.053,2.629-2.949,2.629H7.021c-0.415,0-0.592-0.267-0.592-0.606L6.43,6.698
		L6.43,6.698z M7.541,9.899h1.262c0.954,0,1.495-0.632,1.495-1.454c0-0.81-0.468-1.391-1.455-1.391H7.541V9.899z M7.541,14.133H9.11
		c1.085,0,1.882-0.667,1.882-1.668c0-0.925-0.669-1.655-1.833-1.655H7.541V14.133z"/>
	<g enable-background="new    ">
		<path d="M20.699,18.96v3.189c0,1.19-0.022,2.19-0.09,3.2l0.022,0.012c0.382-0.786,0.854-1.605,1.403-2.504l2.449-3.897h0.977
			v7.569H24.54v-3.223c0-1.225,0.011-2.123,0.09-3.078l-0.034-0.011c-0.37,0.831-0.887,1.707-1.403,2.55l-2.37,3.762h-1.044V18.96
			H20.699z"/>
	</g>
</g>
</svg>
