<?xml version="1.0" encoding="utf-8"?>
<!-- Generator: Adobe Illustrator 16.0.0, SVG Export Plug-In . SVG Version: 6.00 Build 0)  -->
<!DOCTYPE svg PUBLIC "-//W3C//DTD SVG 1.1//EN" "http://www.w3.org/Graphics/SVG/1.1/DTD/svg11.dtd">
<svg version="1.1" id="Layer_1" xmlns="http://www.w3.org/2000/svg" xmlns:xlink="http://www.w3.org/1999/xlink" x="0px" y="0px"
	 width="32px" height="32px" viewBox="0 0 32 32" enable-background="new 0 0 32 32" xml:space="preserve">
<g id="Layer_3" display="none">
</g>
<g id="Layer_2">
</g>
<g id="Layer_1_1_">
</g>
<g id="Language_specific">
	<g>
		<g>
			<g>
				<g>
					<defs>
						<path id="SVGID_1_" d="M4.135,1.559c-1.953,0-3.533,1.582-3.533,3.527v21.828c0,1.951,1.58,3.527,3.533,3.527h23.734
							c1.951,0,3.531-1.576,3.531-3.527V5.086c0-1.945-1.58-3.527-3.531-3.527H4.135z"/>
					</defs>
					<clipPath id="SVGID_2_">
						<use xlink:href="#SVGID_1_"  overflow="visible"/>
					</clipPath>
					
						<linearGradient id="SVGID_3_" gradientUnits="userSpaceOnUse" x1="-921.2793" y1="732.6523" x2="-919.5392" y2="732.6523" gradientTransform="matrix(5.8606 19.1691 -19.1691 5.8606 19454.4043 13365.5879)">
						<stop  offset="0" style="stop-color:#FFFFFF"/>
						<stop  offset="1" style="stop-color:#D0D0D0"/>
					</linearGradient>
					<polygon clip-path="url(#SVGID_2_)" fill="url(#SVGID_3_)" points="28.771,-7.037 39.494,27.973 3.232,39.039 -7.488,4.027 
											"/>
				</g>
			</g>
			<path fill="none" stroke="#5C5C5C" stroke-width="0.4351" stroke-linejoin="round" d="M31.402,26.914
				c0,1.953-1.582,3.527-3.531,3.527H4.135c-1.951,0-3.537-1.574-3.537-3.527V5.086c0-1.945,1.586-3.527,3.537-3.527h23.736
				c1.949,0,3.531,1.582,3.531,3.527V26.914z"/>
			<g>
				<g>
					<defs>
						<path id="SVGID_4_" d="M4.23,2.57c-1.459,0-2.646,1.188-2.646,2.648v21.568c0,1.455,1.188,2.641,2.646,2.641h23.542
							c1.463,0,2.647-1.186,2.647-2.641V5.219c0-1.461-1.187-2.648-2.647-2.648L4.23,2.57L4.23,2.57z"/>
					</defs>
					<clipPath id="SVGID_5_">
						<use xlink:href="#SVGID_4_"  overflow="visible"/>
					</clipPath>
					
						<linearGradient id="SVGID_6_" gradientUnits="userSpaceOnUse" x1="-916.4873" y1="695.8779" x2="-914.7485" y2="695.8779" gradientTransform="matrix(0 15.4443 -15.4443 0 10763.3496 14157.0781)">
						<stop  offset="0" style="stop-color:#FFFFFF"/>
						<stop  offset="1" style="stop-color:#F3F3F3"/>
					</linearGradient>
					<rect x="1.584" y="2.57" clip-path="url(#SVGID_5_)" fill="url(#SVGID_6_)" width="28.836" height="26.857"/>
				</g>
			</g>
			<path fill="none" stroke="#FAFAFA" stroke-width="0.4351" stroke-linejoin="round" d="M30.42,26.787
				c0,1.455-1.189,2.643-2.648,2.643H4.229c-1.457,0-2.648-1.188-2.648-2.643V5.219c0-1.463,1.191-2.646,2.648-2.646h23.542
				c1.459,0,2.648,1.184,2.648,2.646V26.787z"/>
		</g>
		<g enable-background="new    ">
			<path d="M17.692,22.927c-0.045,0.157-0.09,0.314-0.09,0.461c0,0.19,0.09,0.325,0.314,0.325c0.719,0,1.482-1.067,1.482-2.224
				c0-1.74-1.472-2.74-3.077-2.74c-1.943,0-3.392,1.471-3.392,3.324c0,1.954,1.505,3.324,3.493,3.324
				c1.898,0,2.347-1.235,2.976-1.235c0.157,0,0.28,0.101,0.28,0.259c0,0.617-1.853,1.718-3.335,1.718
				c-2.37,0-4.268-1.774-4.268-4.065c0-2.279,1.92-4.065,4.245-4.065c2.123,0,3.931,1.358,3.931,3.347
				c0,2.179-1.786,3.122-2.785,3.122c-0.449,0-0.708-0.202-0.786-0.64h-0.022c-0.303,0.336-0.797,0.64-1.292,0.64
				c-0.966,0-1.696-0.798-1.696-1.763c0-1.427,1.022-2.909,2.538-2.909c0.55,0,1.022,0.235,1.313,0.843l0.146-0.449
				c0.078-0.248,0.213-0.326,0.449-0.326c0.18,0,0.359,0.067,0.359,0.247c0,0.079-0.022,0.169-0.09,0.404L17.692,22.927z
				 M15.581,23.623c1.112,0,1.527-1.527,1.527-2.156c0-0.55-0.28-0.809-0.842-0.809c-1.078,0-1.606,1.112-1.606,1.954
				C14.66,23.208,15.076,23.623,15.581,23.623z"/>
		</g>
		<g enable-background="new    ">
			<path d="M17.059,13.417c-0.033,0.259-0.135,0.404-0.426,0.404c-0.27,0-0.382-0.18-0.382-0.382c0-0.123,0.022-0.258,0.056-0.472
				l0.225-1.64h-1.336l-0.292,2.089c-0.034,0.259-0.135,0.404-0.427,0.404c-0.27,0-0.382-0.18-0.382-0.382
				c0-0.123,0.022-0.258,0.056-0.472l0.225-1.64H13.69c-0.258,0-0.46-0.123-0.46-0.371c0-0.258,0.202-0.37,0.46-0.37h0.786
				l0.236-1.662h-0.685c-0.258,0-0.46-0.124-0.46-0.37c0-0.248,0.202-0.371,0.46-0.371h0.786l0.292-2.089
				c0.034-0.259,0.135-0.404,0.427-0.404c0.27,0,0.382,0.18,0.382,0.382c0,0.123-0.022,0.258-0.056,0.472l-0.225,1.64h1.336
				l0.293-2.089c0.033-0.259,0.135-0.404,0.426-0.404c0.27,0,0.383,0.18,0.383,0.382c0,0.123-0.023,0.258-0.057,0.472l-0.225,1.64
				h0.686c0.258,0,0.46,0.123,0.46,0.371c0,0.258-0.202,0.37-0.46,0.37h-0.787l-0.235,1.662h0.685c0.259,0,0.461,0.124,0.461,0.37
				c0,0.248-0.202,0.371-0.461,0.371h-0.785L17.059,13.417z M16.868,8.925h-1.336l-0.236,1.662h1.337L16.868,8.925z"/>
		</g>
	</g>
</g>
<g id="Layer_5">
</g>
</svg>
