<?xml version="1.0" encoding="utf-8"?>
<!-- Generator: Adobe Illustrator 16.0.4, SVG Export Plug-In . SVG Version: 6.00 Build 0)  -->
<!DOCTYPE svg PUBLIC "-//W3C//DTD SVG 1.1//EN" "http://www.w3.org/Graphics/SVG/1.1/DTD/svg11.dtd">
<svg version="1.1" id="Reference" xmlns="http://www.w3.org/2000/svg" xmlns:xlink="http://www.w3.org/1999/xlink" x="0px" y="0px"
	 width="32px" height="32px" viewBox="0 0 32 32" enable-background="new 0 0 32 32" xml:space="preserve">
<g>
	<g>
		<g>
			<defs>
				<path id="SVGID_775_" d="M4.135,1.805c-1.952,0-3.533,1.582-3.533,3.527V27.16c0,1.951,1.581,3.527,3.533,3.527h23.734
					c1.952,0,3.532-1.576,3.532-3.527V5.332c0-1.945-1.58-3.527-3.532-3.527H4.135z"/>
			</defs>
			<clipPath id="SVGID_2_">
				<use xlink:href="#SVGID_775_"  overflow="visible"/>
			</clipPath>
			
				<linearGradient id="SVGID_3_" gradientUnits="userSpaceOnUse" x1="-318.3613" y1="-1308.2812" x2="-316.6212" y2="-1308.2812" gradientTransform="matrix(5.8606 19.1691 19.1691 -5.8606 26955.2422 -1565.0864)">
				<stop  offset="0" style="stop-color:#FFFFFF"/>
				<stop  offset="1" style="stop-color:#D0D0D0"/>
			</linearGradient>
			<polygon clip-path="url(#SVGID_2_)" fill="url(#SVGID_3_)" points="28.771,-6.791 39.494,28.219 3.232,39.285 -7.488,4.273 			
				"/>
		</g>
		<path fill="none" stroke="#5C5C5C" stroke-width="0.4351" stroke-linejoin="round" d="M31.403,27.16
			c0,1.953-1.582,3.527-3.532,3.527H4.136c-1.951,0-3.538-1.574-3.538-3.527V5.332c0-1.945,1.587-3.527,3.538-3.527h23.735
			c1.95,0,3.532,1.582,3.532,3.527V27.16z"/>
		<g>
			<defs>
				<path id="SVGID_778_" d="M4.23,2.816c-1.459,0-2.646,1.188-2.646,2.648v21.568c0,1.455,1.188,2.641,2.646,2.641h23.542
					c1.462,0,2.648-1.186,2.648-2.641V5.465c0-1.461-1.187-2.648-2.648-2.648H4.23z"/>
			</defs>
			<clipPath id="SVGID_5_">
				<use xlink:href="#SVGID_778_"  overflow="visible"/>
			</clipPath>
			
				<linearGradient id="SVGID_6_" gradientUnits="userSpaceOnUse" x1="-297.7231" y1="-1281.8887" x2="-295.9844" y2="-1281.8887" gradientTransform="matrix(0 15.4443 15.4443 0 19813.8809 4600.9463)">
				<stop  offset="0" style="stop-color:#FFFFFF"/>
				<stop  offset="1" style="stop-color:#F3F3F3"/>
			</linearGradient>
			<rect x="1.584" y="2.816" clip-path="url(#SVGID_5_)" fill="url(#SVGID_6_)" width="28.837" height="26.857"/>
		</g>
		<path fill="none" stroke="#FAFAFA" stroke-width="0.4351" stroke-linejoin="round" d="M30.421,27.033
			c0,1.455-1.19,2.643-2.648,2.643H4.229c-1.457,0-2.647-1.188-2.647-2.643V5.465c0-1.463,1.19-2.646,2.647-2.646h23.544
			c1.458,0,2.648,1.184,2.648,2.646V27.033z"/>
	</g>
	<path d="M7.238,9.441c-1.039-0.354-2.17-0.721-2.17-2.148c0-0.902,0.795-1.965,2.17-2.09V4.668c0-0.139,0.086-0.24,0.238-0.24
		c0.148,0,0.24,0.102,0.24,0.24v0.535C8.629,5.271,9.463,5.672,9.463,6.15c0,0.24-0.184,0.445-0.432,0.445
		c-0.402,0-0.562-0.41-1.314-0.523v2.5C8.779,8.949,10,9.361,10,10.902c0,1.223-0.809,2.34-2.283,2.523v0.582
		c0,0.137-0.092,0.24-0.24,0.24c-0.152,0-0.238-0.104-0.238-0.24v-0.535c-1.166,0-2.252-0.525-2.252-1.018
		c0-0.24,0.139-0.48,0.4-0.48c0.42,0,0.834,0.629,1.852,0.629V9.441z M7.238,6.072C6.596,6.15,6.141,6.596,6.141,7.225
		c0,0.627,0.469,0.924,1.098,1.164V6.072z M7.717,12.547c0.766-0.16,1.209-0.789,1.209-1.598c0-0.754-0.549-1.088-1.209-1.34V12.547
		z"/>
	<path d="M4.603,24.906c-0.342,0-0.43-0.15-0.43-0.354c0-0.148,0.104-0.342,0.252-0.584l2.873-4.717
		c0.211-0.34,0.436-0.457,0.791-0.457c0.447,0,0.766,0.24,0.766,0.836v4.408h0.512c0.244,0,0.434,0.195,0.434,0.434
		c0,0.24-0.189,0.434-0.434,0.434H8.854v1.623c0,0.332-0.191,0.535-0.502,0.535c-0.307,0-0.504-0.203-0.504-0.535v-1.623H4.603z
		 M7.849,24.039v-4.168H7.827l-2.398,4.168H7.849z"/>
	<path d="M20.447,20.597c0-1.02,0.592-1.932,1.734-1.932c1.146,0,1.736,0.912,1.736,1.932c0,1.016-0.59,1.928-1.736,1.928
		C21.039,22.524,20.447,21.612,20.447,20.597 M23.166,20.597c0-0.607-0.256-1.314-0.984-1.314c-0.734,0-0.982,0.707-0.982,1.314
		c0,0.604,0.248,1.312,0.982,1.312C22.91,21.909,23.166,21.2,23.166,20.597 M25.393,18.917c0.104-0.24,0.213-0.344,0.398-0.344
		c0.275,0,0.398,0.172,0.398,0.309c0,0.092-0.033,0.195-0.16,0.514l-3.035,7.287c-0.102,0.24-0.217,0.344-0.426,0.344
		c-0.252,0-0.373-0.158-0.373-0.309c0-0.092,0.031-0.207,0.158-0.516L25.393,18.917z M24.477,25.003
		c0-1.016,0.598-1.928,1.734-1.928c1.145,0,1.738,0.912,1.738,1.928c0,1.018-0.594,1.932-1.738,1.932
		C25.074,26.935,24.477,26.021,24.477,25.003 M27.195,25.003c0-0.604-0.252-1.312-0.984-1.312c-0.729,0-0.979,0.709-0.979,1.312
		c0,0.605,0.25,1.314,0.979,1.314C26.943,26.317,27.195,25.608,27.195,25.003"/>
</g>
<g>
	<g>
		<g>
			<defs>
				<path id="SVGID_811_" d="M36.135,1.805c-1.952,0-3.533,1.582-3.533,3.527V27.16c0,1.951,1.581,3.527,3.533,3.527h23.734
					c1.952,0,3.532-1.576,3.532-3.527V5.332c0-1.945-1.58-3.527-3.532-3.527H36.135z"/>
			</defs>
			<clipPath id="SVGID_8_">
				<use xlink:href="#SVGID_811_"  overflow="visible"/>
			</clipPath>
			
				<linearGradient id="SVGID_9_" gradientUnits="userSpaceOnUse" x1="-317.8945" y1="-1306.7549" x2="-316.1544" y2="-1306.7549" gradientTransform="matrix(5.8606 19.1691 19.1691 -5.8606 26955.2422 -1565.0864)">
				<stop  offset="0" style="stop-color:#FFFFFF"/>
				<stop  offset="1" style="stop-color:#D0D0D0"/>
			</linearGradient>
			<polygon clip-path="url(#SVGID_8_)" fill="url(#SVGID_9_)" points="60.771,-6.791 71.494,28.219 35.232,39.285 24.512,4.273 			
				"/>
		</g>
	</g>
</g>
<g>
	<g>
		<g>
			<defs>
				<path id="SVGID_859_" d="M-27.865,1.805c-1.952,0-3.533,1.582-3.533,3.527V27.16c0,1.951,1.581,3.527,3.533,3.527h23.734
					c1.952,0,3.532-1.576,3.532-3.527V5.332c0-1.945-1.58-3.527-3.532-3.527H-27.865z"/>
			</defs>
			<clipPath id="SVGID_11_">
				<use xlink:href="#SVGID_859_"  overflow="visible"/>
			</clipPath>
			
				<linearGradient id="SVGID_12_" gradientUnits="userSpaceOnUse" x1="-318.8281" y1="-1309.8086" x2="-317.088" y2="-1309.8086" gradientTransform="matrix(5.8606 19.1691 19.1691 -5.8606 26955.2422 -1565.0864)">
				<stop  offset="0" style="stop-color:#FFFFFF"/>
				<stop  offset="1" style="stop-color:#D0D0D0"/>
			</linearGradient>
			<polygon clip-path="url(#SVGID_11_)" fill="url(#SVGID_12_)" points="-3.229,-6.791 7.494,28.219 -28.768,39.285 -39.488,4.273 
							"/>
		</g>
	</g>
</g>
</svg>
