<?xml version="1.0" encoding="utf-8"?>
<!-- Generator: Adobe Illustrator 16.0.0, SVG Export Plug-In . SVG Version: 6.00 Build 0)  -->
<!DOCTYPE svg PUBLIC "-//W3C//DTD SVG 1.1//EN" "http://www.w3.org/Graphics/SVG/1.1/DTD/svg11.dtd">
<svg version="1.1" id="Layer_1" xmlns="http://www.w3.org/2000/svg" xmlns:xlink="http://www.w3.org/1999/xlink" x="0px" y="0px"
	 width="32px" height="32px" viewBox="0 0 32 32" enable-background="new 0 0 32 32" xml:space="preserve">
<g id="Layer_3" display="none">
</g>
<g id="Layer_2">
</g>
<g id="Layer_1_1_">
	<g>
		<g>
			<g>
				<g>
					<defs>
						<path id="SVGID_1_" d="M4.134,1.559c-1.952,0-3.533,1.582-3.533,3.527v21.828c0,1.951,1.581,3.527,3.533,3.527h23.734
							c1.952,0,3.532-1.576,3.532-3.527V5.086c0-1.945-1.58-3.527-3.532-3.527H4.134z"/>
					</defs>
					<clipPath id="SVGID_2_">
						<use xlink:href="#SVGID_1_"  overflow="visible"/>
					</clipPath>
					
						<linearGradient id="SVGID_3_" gradientUnits="userSpaceOnUse" x1="-122.9854" y1="692.668" x2="-121.2452" y2="692.668" gradientTransform="matrix(5.8606 19.1691 -19.1691 5.8606 14009.4893 -1702.6594)">
						<stop  offset="0" style="stop-color:#FFFFFF"/>
						<stop  offset="1" style="stop-color:#D0D0D0"/>
					</linearGradient>
					<polygon clip-path="url(#SVGID_2_)" fill="url(#SVGID_3_)" points="28.771,-7.037 39.494,27.973 3.232,39.039 -7.489,4.027 
											"/>
				</g>
			</g>
			<path fill="none" stroke="#5C5C5C" stroke-width="0.4351" stroke-linejoin="round" d="M31.402,26.914
				c0,1.953-1.582,3.527-3.531,3.527H4.135c-1.951,0-3.538-1.574-3.538-3.527V5.086c0-1.945,1.587-3.527,3.538-3.527H27.87
				c1.95,0,3.532,1.582,3.532,3.527V26.914L31.402,26.914z"/>
			<g>
				<g>
					<defs>
						<path id="SVGID_4_" d="M4.23,2.57c-1.459,0-2.646,1.188-2.646,2.648v21.568c0,1.455,1.188,2.641,2.646,2.641h23.542
							c1.463,0,2.648-1.186,2.648-2.641V5.219c0-1.461-1.188-2.648-2.648-2.648L4.23,2.57L4.23,2.57z"/>
					</defs>
					<clipPath id="SVGID_5_">
						<use xlink:href="#SVGID_4_"  overflow="visible"/>
					</clipPath>
					
						<linearGradient id="SVGID_6_" gradientUnits="userSpaceOnUse" x1="-107.4873" y1="668.4033" x2="-105.7485" y2="668.4033" gradientTransform="matrix(0 15.4443 -15.4443 0 10339.0186 1662.6382)">
						<stop  offset="0" style="stop-color:#FFFFFF"/>
						<stop  offset="1" style="stop-color:#F3F3F3"/>
					</linearGradient>
					<rect x="1.583" y="2.57" clip-path="url(#SVGID_5_)" fill="url(#SVGID_6_)" width="28.837" height="26.857"/>
				</g>
			</g>
			<path fill="none" stroke="#FAFAFA" stroke-width="0.4351" stroke-linejoin="round" d="M30.42,26.787
				c0,1.455-1.189,2.643-2.648,2.643H4.228c-1.457,0-2.647-1.188-2.647-2.643V5.219c0-1.463,1.19-2.646,2.647-2.646h23.543
				c1.459,0,2.648,1.184,2.648,2.646V26.787z"/>
		</g>
		<g>
			<path d="M16.384,12.658c-0.091,0.246-0.212,0.459-0.449,0.459c-0.242,0-0.355-0.143-0.355-0.295c0-0.154,0.073-0.316,0.141-0.541
				c0.269-0.836,0.422-1.906,0.422-3.426s-0.153-2.588-0.422-3.424C15.654,5.206,15.58,5.042,15.58,4.89
				c0-0.152,0.113-0.295,0.355-0.295c0.237,0,0.358,0.215,0.449,0.457c0.38,1,0.593,2.418,0.593,3.803
				C16.977,10.242,16.764,11.658,16.384,12.658"/>
			<path d="M18.414,21.279c0,2.324-1.564,4.115-2.772,5.133c-0.203,0.168-0.326,0.225-0.458,0.225c-0.159,0-0.405-0.156-0.405-0.459
				c0-0.154,0.111-0.281,0.394-0.525c0.637-0.569,1.105-1.106,1.711-2.215h-0.024c-0.367,0.189-0.728,0.312-1.26,0.312
				c-1.301,0-2.017-1.23-2.017-2.619c0-1.443,1.03-2.594,2.442-2.594C17.407,18.537,18.414,19.688,18.414,21.279 M16.031,19.453
				c-0.973,0-1.398,0.795-1.398,1.725c0,1.051,0.426,1.723,1.398,1.723c0.975,0,1.4-0.807,1.4-1.723
				C17.432,20.248,17.005,19.453,16.031,19.453"/>
		</g>
	</g>
</g>
<g id="Language_specific">
</g>
<g id="Layer_5">
</g>
</svg>
