<?xml version="1.0" encoding="utf-8"?>
<!-- Generator: Adobe Illustrator 16.0.0, SVG Export Plug-In . SVG Version: 6.00 Build 0)  -->
<!DOCTYPE svg PUBLIC "-//W3C//DTD SVG 1.1//EN" "http://www.w3.org/Graphics/SVG/1.1/DTD/svg11.dtd">
<svg version="1.1" id="Layer_1" xmlns="http://www.w3.org/2000/svg" xmlns:xlink="http://www.w3.org/1999/xlink" x="0px" y="0px"
	 width="32px" height="32px" viewBox="0 0 32 32" enable-background="new 0 0 32 32" xml:space="preserve">
<g id="Layer_3" display="none">
</g>
<g id="Layer_2">
</g>
<g id="Layer_1_1_">
</g>
<g id="Language_specific">
	<g>
		<g>
			<g>
				<g>
					<defs>
						<path id="SVGID_1_" d="M4.135,1.559c-1.953,0-3.533,1.582-3.533,3.527v21.828c0,1.951,1.58,3.527,3.533,3.527h23.734
							c1.951,0,3.531-1.576,3.531-3.527V5.086c0-1.945-1.58-3.527-3.531-3.527H4.135z"/>
					</defs>
					<clipPath id="SVGID_2_">
						<use xlink:href="#SVGID_1_"  overflow="visible"/>
					</clipPath>
					
						<linearGradient id="SVGID_3_" gradientUnits="userSpaceOnUse" x1="-962.6665" y1="730.6465" x2="-960.9264" y2="730.6465" gradientTransform="matrix(5.8606 19.1691 -19.1691 5.8606 19658.5449 14170.6973)">
						<stop  offset="0" style="stop-color:#FFFFFF"/>
						<stop  offset="1" style="stop-color:#D0D0D0"/>
					</linearGradient>
					<polygon clip-path="url(#SVGID_2_)" fill="url(#SVGID_3_)" points="28.771,-7.037 39.494,27.973 3.232,39.039 -7.488,4.027 
											"/>
				</g>
			</g>
			<path fill="none" stroke="#5C5C5C" stroke-width="0.4351" stroke-linejoin="round" d="M31.402,26.914
				c0,1.953-1.582,3.527-3.531,3.527H4.135c-1.951,0-3.537-1.574-3.537-3.527V5.086c0-1.945,1.586-3.527,3.537-3.527h23.736
				c1.949,0,3.531,1.582,3.531,3.527V26.914z"/>
			<g>
				<g>
					<defs>
						<path id="SVGID_4_" d="M4.23,2.57c-1.459,0-2.646,1.188-2.646,2.648v21.568c0,1.455,1.188,2.641,2.646,2.641h23.542
							c1.463,0,2.647-1.186,2.647-2.641V5.219c0-1.461-1.187-2.648-2.647-2.648L4.23,2.57L4.23,2.57z"/>
					</defs>
					<clipPath id="SVGID_5_">
						<use xlink:href="#SVGID_4_"  overflow="visible"/>
					</clipPath>
					
						<linearGradient id="SVGID_6_" gradientUnits="userSpaceOnUse" x1="-958.4873" y1="693.1592" x2="-956.7485" y2="693.1592" gradientTransform="matrix(0 15.4443 -15.4443 0 10721.3496 14805.7422)">
						<stop  offset="0" style="stop-color:#FFFFFF"/>
						<stop  offset="1" style="stop-color:#F3F3F3"/>
					</linearGradient>
					<rect x="1.584" y="2.57" clip-path="url(#SVGID_5_)" fill="url(#SVGID_6_)" width="28.836" height="26.857"/>
				</g>
			</g>
			<path fill="none" stroke="#FAFAFA" stroke-width="0.4351" stroke-linejoin="round" d="M30.42,26.787
				c0,1.455-1.189,2.643-2.648,2.643H4.229c-1.457,0-2.648-1.188-2.648-2.643V5.219c0-1.463,1.191-2.646,2.648-2.646h23.542
				c1.459,0,2.648,1.184,2.648,2.646V26.787z"/>
		</g>
		<g enable-background="new    ">
			<path d="M17.779,23.999l0.066-0.09c0.518-0.695,0.775-1.393,1.112-1.393c0.225,0,0.415,0.113,0.415,0.338
				c0,0.303-0.235,0.83-1.044,1.797l0.978,1.156c0.135,0.157,0.201,0.258,0.201,0.427c0,0.235-0.18,0.404-0.404,0.404
				c-0.168,0-0.28-0.056-0.381-0.18l-0.967-1.112c-0.74,0.933-1.617,1.292-2.47,1.292c-1.303,0-2.459-0.854-2.459-2.325
				c0-1.358,0.674-1.942,1.786-2.616c-0.449-0.46-0.887-1.022-0.887-1.562c0-1.179,0.876-1.628,1.954-1.628
				c0.943,0,1.752,0.595,1.752,1.415c0,1.021-0.719,1.561-1.438,1.965L17.779,23.999z M15.375,25.718
				c0.685,0,1.202-0.27,1.831-1.021l-2.044-2.359c-1.044,0.596-1.348,1.135-1.348,1.865C13.814,25.032,14.32,25.718,15.375,25.718z
				 M15.454,21.271c0.449-0.258,1.056-0.674,1.056-1.18c0-0.539-0.46-0.797-0.91-0.797c-0.483,0-0.887,0.27-0.887,0.82
				C14.713,20.45,15.061,20.833,15.454,21.271z"/>
		</g>
		<g enable-background="new    ">
			<path d="M15.949,6.111h-1.033c-0.236,0-0.427-0.191-0.427-0.427s0.191-0.427,0.427-0.427h1.719c0.19,0,0.303,0.022,0.303,0.27
				v7.266c0,0.326-0.191,0.528-0.494,0.528c-0.303,0-0.494-0.202-0.494-0.528V6.111z"/>
		</g>
	</g>
</g>
<g id="Layer_5">
</g>
</svg>
