<?xml version="1.0" encoding="utf-8"?>
<!-- Generator: Adobe Illustrator 16.0.0, SVG Export Plug-In . SVG Version: 6.00 Build 0)  -->
<!DOCTYPE svg PUBLIC "-//W3C//DTD SVG 1.1//EN" "http://www.w3.org/Graphics/SVG/1.1/DTD/svg11.dtd">
<svg version="1.1" id="Layer_1" xmlns="http://www.w3.org/2000/svg" xmlns:xlink="http://www.w3.org/1999/xlink" x="0px" y="0px"
	 width="32px" height="32px" viewBox="0 0 32 32" enable-background="new 0 0 32 32" xml:space="preserve">
<g id="Layer_3" display="none">
</g>
<g id="Layer_2">
</g>
<g id="Layer_1_1_">
	<g>
		<g>
			<g>
				<g>
					<defs>
						<path id="SVGID_1_" d="M4.135,1.559c-1.953,0-3.533,1.582-3.533,3.527v21.828c0,1.951,1.58,3.527,3.533,3.527h23.734
							c1.951,0,3.531-1.576,3.531-3.527V5.086c0-1.945-1.58-3.527-3.531-3.527H4.135z"/>
					</defs>
					<clipPath id="SVGID_2_">
						<use xlink:href="#SVGID_1_"  overflow="visible"/>
					</clipPath>
					
						<linearGradient id="SVGID_3_" gradientUnits="userSpaceOnUse" x1="-810.9126" y1="737.9941" x2="-809.1725" y2="737.9941" gradientTransform="matrix(5.8606 19.1691 -19.1691 5.8606 18910.0137 11218.6504)">
						<stop  offset="0" style="stop-color:#FFFFFF"/>
						<stop  offset="1" style="stop-color:#D0D0D0"/>
					</linearGradient>
					<polygon clip-path="url(#SVGID_2_)" fill="url(#SVGID_3_)" points="28.771,-7.037 39.494,27.973 3.232,39.039 -7.488,4.027 
											"/>
				</g>
			</g>
			<path fill="none" stroke="#5C5C5C" stroke-width="0.4351" stroke-linejoin="round" d="M31.402,26.914
				c0,1.953-1.582,3.527-3.531,3.527H4.135c-1.951,0-3.537-1.574-3.537-3.527V5.086c0-1.945,1.586-3.527,3.537-3.527h23.736
				c1.949,0,3.531,1.582,3.531,3.527V26.914z"/>
			<g>
				<g>
					<defs>
						<path id="SVGID_4_" d="M4.23,2.57c-1.459,0-2.646,1.188-2.646,2.648v21.568c0,1.455,1.188,2.641,2.646,2.641h23.542
							c1.463,0,2.647-1.186,2.647-2.641V5.219c0-1.461-1.187-2.648-2.647-2.648L4.23,2.57L4.23,2.57z"/>
					</defs>
					<clipPath id="SVGID_5_">
						<use xlink:href="#SVGID_4_"  overflow="visible"/>
					</clipPath>
					
						<linearGradient id="SVGID_6_" gradientUnits="userSpaceOnUse" x1="-804.4873" y1="703.1299" x2="-802.7485" y2="703.1299" gradientTransform="matrix(0 15.4443 -15.4443 0 10875.3496 12427.3203)">
						<stop  offset="0" style="stop-color:#FFFFFF"/>
						<stop  offset="1" style="stop-color:#F3F3F3"/>
					</linearGradient>
					<rect x="1.584" y="2.57" clip-path="url(#SVGID_5_)" fill="url(#SVGID_6_)" width="28.836" height="26.857"/>
				</g>
			</g>
			<path fill="none" stroke="#FAFAFA" stroke-width="0.4351" stroke-linejoin="round" d="M30.42,26.787
				c0,1.455-1.189,2.643-2.648,2.643H4.229c-1.457,0-2.648-1.188-2.648-2.643V5.219c0-1.463,1.191-2.646,2.648-2.646h23.542
				c1.459,0,2.648,1.184,2.648,2.646V26.787z"/>
		</g>
		<path d="M26.258,14.438h-3.992v4.275h3.992l1.434-2.145L26.258,14.438z M25.719,17.543l-0.375,0.375l-0.926-0.969l-0.934,0.969
			l-0.373-0.375l0.953-0.965L23.111,15.6l0.373-0.371l0.934,0.975l0.926-0.975l0.375,0.371l-0.934,0.979L25.719,17.543z"/>
		<polygon points="26.551,13.914 21.748,13.914 21.748,19.229 26.551,19.229 28.316,16.568 		"/>
		<polygon fill="#FAFAFA" points="25.344,15.229 24.418,16.203 23.484,15.229 23.111,15.6 24.064,16.578 23.111,17.543 
			23.484,17.918 24.418,16.949 25.344,17.918 25.719,17.543 24.785,16.578 25.719,15.6 		"/>
		<g enable-background="new    ">
			<path d="M6.042,14.378c0.765,0,1.215,0.264,1.215,0.569c0,0.152-0.127,0.314-0.306,0.314c-0.289,0-0.399-0.238-0.909-0.238
				c-0.927,0-1.292,0.901-1.292,1.666s0.365,1.666,1.292,1.666c0.527,0,0.663-0.255,0.901-0.255c0.17,0,0.289,0.11,0.289,0.314
				c0,0.28-0.417,0.586-1.19,0.586c-1.377,0-2.04-1.113-2.04-2.312S4.665,14.378,6.042,14.378z"/>
			<path d="M11.711,18.636c0,0.264-0.204,0.365-0.348,0.365c-0.153,0-0.349-0.102-0.349-0.365v-0.314h-0.017
				c-0.323,0.459-0.748,0.68-1.232,0.68c-1.275,0-1.989-1.113-1.989-2.312s0.714-2.312,1.989-2.312c0.519,0,0.884,0.221,1.232,0.604
				h0.017v-0.238c0-0.264,0.195-0.365,0.349-0.365c0.145,0,0.348,0.102,0.348,0.365V18.636z M9.765,18.355
				c0.918,0,1.241-0.901,1.241-1.666s-0.323-1.666-1.241-1.666s-1.241,0.901-1.241,1.666S8.847,18.355,9.765,18.355z"/>
			<path d="M12.698,14.777c0-0.247,0.144-0.399,0.374-0.399s0.374,0.152,0.374,0.399v0.179l0.017,0.017
				c0.332-0.425,0.799-0.595,1.25-0.595c0.697,0,1.572,0.441,1.572,1.717v2.507c0,0.247-0.145,0.399-0.374,0.399
				s-0.374-0.152-0.374-0.399v-2.465c0-0.79-0.552-1.113-1.045-1.113c-0.493,0-1.045,0.323-1.045,1.113v2.465
				c0,0.247-0.145,0.399-0.374,0.399s-0.374-0.152-0.374-0.399V14.777z"/>
			<path d="M19.115,14.378c0.766,0,1.216,0.264,1.216,0.569c0,0.152-0.128,0.314-0.306,0.314c-0.289,0-0.4-0.238-0.91-0.238
				c-0.926,0-1.291,0.901-1.291,1.666s0.365,1.666,1.291,1.666c0.527,0,0.663-0.255,0.901-0.255c0.17,0,0.289,0.11,0.289,0.314
				c0,0.28-0.417,0.586-1.19,0.586c-1.377,0-2.039-1.113-2.039-2.312S17.738,14.378,19.115,14.378z"/>
		</g>
	</g>
</g>
<g id="Language_specific">
</g>
<g id="Layer_5">
</g>
</svg>
