<?xml version="1.0" encoding="utf-8"?>
<!-- Generator: Adobe Illustrator 16.0.4, SVG Export Plug-In . SVG Version: 6.00 Build 0)  -->
<!DOCTYPE svg PUBLIC "-//W3C//DTD SVG 1.1//EN" "http://www.w3.org/Graphics/SVG/1.1/DTD/svg11.dtd">
<svg version="1.1" id="Reference" xmlns="http://www.w3.org/2000/svg" xmlns:xlink="http://www.w3.org/1999/xlink" x="0px" y="0px"
	 width="32px" height="32px" viewBox="0 0 32 32" enable-background="new 0 0 32 32" xml:space="preserve">
<g>
	<g>
		<g>
			<defs>
				<path id="SVGID_799_" d="M4.135,1.805c-1.952,0-3.533,1.582-3.533,3.527V27.16c0,1.951,1.581,3.527,3.533,3.527h23.734
					c1.952,0,3.532-1.576,3.532-3.527V5.332c0-1.945-1.58-3.527-3.532-3.527H4.135z"/>
			</defs>
			<clipPath id="SVGID_2_">
				<use xlink:href="#SVGID_799_"  overflow="visible"/>
			</clipPath>
			
				<linearGradient id="SVGID_3_" gradientUnits="userSpaceOnUse" x1="-381.4277" y1="-1305.2285" x2="-379.6876" y2="-1305.2285" gradientTransform="matrix(5.8606 19.1691 19.1691 -5.8606 27266.3223 -338.2642)">
				<stop  offset="0" style="stop-color:#FFFFFF"/>
				<stop  offset="1" style="stop-color:#D0D0D0"/>
			</linearGradient>
			<polygon clip-path="url(#SVGID_2_)" fill="url(#SVGID_3_)" points="28.771,-6.791 39.494,28.219 3.232,39.285 -7.488,4.273 			
				"/>
		</g>
		<path fill="none" stroke="#5C5C5C" stroke-width="0.4351" stroke-linejoin="round" d="M31.403,27.16
			c0,1.953-1.582,3.527-3.532,3.527H4.136c-1.951,0-3.538-1.574-3.538-3.527V5.332c0-1.945,1.587-3.527,3.538-3.527h23.735
			c1.95,0,3.532,1.582,3.532,3.527V27.16z"/>
		<g>
			<defs>
				<path id="SVGID_802_" d="M4.23,2.816c-1.459,0-2.646,1.188-2.646,2.648v21.568c0,1.455,1.188,2.641,2.646,2.641h23.542
					c1.462,0,2.648-1.186,2.648-2.641V5.465c0-1.461-1.187-2.648-2.648-2.648H4.23z"/>
			</defs>
			<clipPath id="SVGID_5_">
				<use xlink:href="#SVGID_802_"  overflow="visible"/>
			</clipPath>
			
				<linearGradient id="SVGID_6_" gradientUnits="userSpaceOnUse" x1="-361.7231" y1="-1277.7441" x2="-359.9844" y2="-1277.7441" gradientTransform="matrix(0 15.4443 15.4443 0 19749.8809 5589.3813)">
				<stop  offset="0" style="stop-color:#FFFFFF"/>
				<stop  offset="1" style="stop-color:#F3F3F3"/>
			</linearGradient>
			<rect x="1.584" y="2.816" clip-path="url(#SVGID_5_)" fill="url(#SVGID_6_)" width="28.837" height="26.857"/>
		</g>
		<path fill="none" stroke="#FAFAFA" stroke-width="0.4351" stroke-linejoin="round" d="M30.421,27.033
			c0,1.455-1.19,2.643-2.648,2.643H4.229c-1.457,0-2.647-1.188-2.647-2.643V5.465c0-1.463,1.19-2.646,2.647-2.646h23.544
			c1.458,0,2.648,1.184,2.648,2.646V27.033z"/>
	</g>
	<g>
		<path d="M6.23,10.381c-0.217,0.387-0.309,0.572-0.57,0.572c-0.244,0-0.428-0.16-0.428-0.377c0-0.162,0.117-0.344,0.197-0.492
			L7.428,6.52c0.148-0.262,0.299-0.469,0.596-0.469S8.467,6.258,8.615,6.52l1.998,3.564c0.08,0.148,0.197,0.33,0.197,0.492
			c0,0.217-0.184,0.377-0.422,0.377c-0.266,0-0.355-0.186-0.57-0.572L8.023,7.057L6.23,10.381z"/>
		<path d="M5.189,24.266c0-2.373,1.602-4.203,2.834-5.242c0.205-0.17,0.332-0.229,0.467-0.229c0.158,0,0.41,0.16,0.41,0.471
			c0,0.158-0.109,0.285-0.396,0.535c-0.656,0.584-1.133,1.131-1.75,2.262h0.023c0.375-0.195,0.744-0.318,1.291-0.318
			c1.326,0,2.055,1.254,2.055,2.672c0,1.475-1.053,2.648-2.488,2.648C6.217,27.064,5.189,25.891,5.189,24.266 M7.621,26.129
			c0.998,0,1.432-0.811,1.432-1.76c0-1.072-0.434-1.758-1.432-1.758c-0.996,0-1.426,0.822-1.426,1.758
			C6.195,25.318,6.625,26.129,7.621,26.129"/>
	</g>
	<path d="M24.567,24.018c0.137-0.258,0.284-0.5,0.637-0.5c0.284,0,0.539,0.217,0.539,0.514c0,0.15-0.038,0.285-0.147,0.5
		L24.84,26.02c-0.136,0.254-0.285,0.498-0.639,0.498c-0.281,0-0.541-0.215-0.541-0.512c0-0.148,0.043-0.283,0.152-0.5L24.567,24.018
		z"/>
</g>
<g>
	<g>
		<g>
			<defs>
				<path id="SVGID_811_" d="M-27.865,1.805c-1.952,0-3.533,1.582-3.533,3.527V27.16c0,1.951,1.581,3.527,3.533,3.527h23.734
					c1.952,0,3.532-1.576,3.532-3.527V5.332c0-1.945-1.58-3.527-3.532-3.527H-27.865z"/>
			</defs>
			<clipPath id="SVGID_8_">
				<use xlink:href="#SVGID_811_"  overflow="visible"/>
			</clipPath>
			
				<linearGradient id="SVGID_9_" gradientUnits="userSpaceOnUse" x1="-381.8945" y1="-1306.7549" x2="-380.1544" y2="-1306.7549" gradientTransform="matrix(5.8606 19.1691 19.1691 -5.8606 27266.3223 -338.2642)">
				<stop  offset="0" style="stop-color:#FFFFFF"/>
				<stop  offset="1" style="stop-color:#D0D0D0"/>
			</linearGradient>
			<polygon clip-path="url(#SVGID_8_)" fill="url(#SVGID_9_)" points="-3.229,-6.791 7.494,28.219 -28.768,39.285 -39.488,4.273 			
				"/>
		</g>
	</g>
</g>
<g>
	<g>
		<g>
			<defs>
				<path id="SVGID_835_" d="M36.135,1.805c-1.952,0-3.533,1.582-3.533,3.527V27.16c0,1.951,1.581,3.527,3.533,3.527h23.734
					c1.952,0,3.532-1.576,3.532-3.527V5.332c0-1.945-1.58-3.527-3.532-3.527H36.135z"/>
			</defs>
			<clipPath id="SVGID_11_">
				<use xlink:href="#SVGID_835_"  overflow="visible"/>
			</clipPath>
			
				<linearGradient id="SVGID_12_" gradientUnits="userSpaceOnUse" x1="-380.9609" y1="-1303.7012" x2="-379.2208" y2="-1303.7012" gradientTransform="matrix(5.8606 19.1691 19.1691 -5.8606 27266.3223 -338.2642)">
				<stop  offset="0" style="stop-color:#FFFFFF"/>
				<stop  offset="1" style="stop-color:#D0D0D0"/>
			</linearGradient>
			<polygon clip-path="url(#SVGID_11_)" fill="url(#SVGID_12_)" points="60.771,-6.791 71.494,28.219 35.232,39.285 24.512,4.273 
							"/>
		</g>
	</g>
</g>
</svg>
