<?xml version="1.0" encoding="utf-8"?>
<!-- Generator: Adobe Illustrator 16.0.4, SVG Export Plug-In . SVG Version: 6.00 Build 0)  -->
<!DOCTYPE svg PUBLIC "-//W3C//DTD SVG 1.1//EN" "http://www.w3.org/Graphics/SVG/1.1/DTD/svg11.dtd">
<svg version="1.1" xmlns="http://www.w3.org/2000/svg" xmlns:xlink="http://www.w3.org/1999/xlink" x="0px" y="0px" width="32px"
	 height="32px" viewBox="0 0 32 32" enable-background="new 0 0 32 32" xml:space="preserve">
<g id="Layer_3" display="none">
</g>
<g id="Layer_2">
</g>
<g id="Layer_1">
</g>
<g id="Language_specific">
	<g>
		<g>
			<g>
				<defs>
					<path id="SVGID_901_" d="M4.135,1.559c-1.953,0-3.533,1.582-3.533,3.527v21.828c0,1.951,1.58,3.527,3.533,3.527h23.734
						c1.951,0,3.531-1.576,3.531-3.527V5.086c0-1.945-1.58-3.527-3.531-3.527H4.135z"/>
				</defs>
				<clipPath id="SVGID_2_">
					<use xlink:href="#SVGID_901_"  overflow="visible"/>
				</clipPath>
				
					<linearGradient id="SVGID_3_" gradientUnits="userSpaceOnUse" x1="-1184.5376" y1="-618.4863" x2="-1182.797" y2="-618.4863" gradientTransform="matrix(5.8606 19.1691 19.1691 -5.8606 18808.8066 19081.0938)">
					<stop  offset="0" style="stop-color:#FFFFFF"/>
					<stop  offset="1" style="stop-color:#D0D0D0"/>
				</linearGradient>
				<polygon clip-path="url(#SVGID_2_)" fill="url(#SVGID_3_)" points="28.771,-7.037 39.494,27.973 3.232,39.039 -7.488,4.027 				
					"/>
			</g>
			<path fill="none" stroke="#5C5C5C" stroke-width="0.4351" stroke-linejoin="round" d="M31.402,26.914
				c0,1.953-1.582,3.527-3.531,3.527H4.135c-1.951,0-3.537-1.574-3.537-3.527V5.086c0-1.945,1.586-3.527,3.537-3.527h23.736
				c1.949,0,3.531,1.582,3.531,3.527V26.914z"/>
			<g>
				<defs>
					<path id="SVGID_904_" d="M4.23,2.57c-1.459,0-2.646,1.188-2.646,2.648v21.568c0,1.455,1.188,2.641,2.646,2.641h23.541
						c1.463,0,2.648-1.186,2.648-2.641V5.219c0-1.461-1.186-2.648-2.648-2.648H4.23z"/>
				</defs>
				<clipPath id="SVGID_5_">
					<use xlink:href="#SVGID_904_"  overflow="visible"/>
				</clipPath>
				
					<linearGradient id="SVGID_6_" gradientUnits="userSpaceOnUse" x1="-1187.1782" y1="-586.9814" x2="-1185.4395" y2="-586.9814" gradientTransform="matrix(0 15.4443 15.4443 0 9081.5293 18337.7109)">
					<stop  offset="0" style="stop-color:#FFFFFF"/>
					<stop  offset="1" style="stop-color:#F3F3F3"/>
				</linearGradient>
				<rect x="1.584" y="2.57" clip-path="url(#SVGID_5_)" fill="url(#SVGID_6_)" width="28.836" height="26.857"/>
			</g>
			<path fill="none" stroke="#FAFAFA" stroke-width="0.4351" stroke-linejoin="round" d="M30.42,26.787
				c0,1.455-1.189,2.643-2.648,2.643H4.229c-1.457,0-2.648-1.188-2.648-2.643V5.219c0-1.463,1.191-2.646,2.648-2.646h23.543
				c1.459,0,2.648,1.184,2.648,2.646V26.787z"/>
		</g>
		<g>
			<path d="M16.537,21.248c0.068-0.014,0.148-0.043,0.279-0.043c0.586,0,0.918,0.426,0.918,0.732c0,0.809-0.625,1.141-1.475,1.141
				c-0.557,0-0.969-0.186-0.969-0.465c0-0.17,0.094-0.357,0.279-0.357c0.174,0,0.451,0.107,0.689,0.107
				c0.318,0,0.465-0.094,0.465-0.359c0-0.24-0.199-0.24-0.584-0.24c-0.334,0-0.396-0.186-0.396-0.25
				c0-0.094,0.051-0.215,0.131-0.332l0.305-0.438c-2.414-0.254-3.664-2.471-3.664-4.781c0-2.455,1.408-4.805,4.209-4.805
				c1.672,0,2.734,0.902,2.734,1.379c0,0.307-0.186,0.559-0.477,0.559c-0.533,0-0.797-0.93-2.258-0.93
				c-2.098,0-2.959,1.992-2.959,3.797c0,1.807,0.889,3.797,2.891,3.797c1.422,0,2.047-0.85,2.537-0.85
				c0.279,0,0.465,0.213,0.465,0.545c0,0.57-1.223,1.246-2.787,1.303L16.537,21.248z"/>
			<path d="M27.791,20.807c0,0.717,0,1.207,0.48,1.352c0.307,0.092,0.451,0.162,0.451,0.387s-0.145,0.307-0.451,0.389
				c-0.48,0.121-0.48,0.637-0.48,1.35v1.248c0,0.705-0.338,1.104-1.043,1.104h-0.387c-0.287,0-0.412-0.104-0.412-0.307
				s0.125-0.307,0.412-0.307h0.143c0.264,0,0.449-0.186,0.449-0.49v-1.617c0-1.115,0.572-1.318,0.932-1.357v-0.021
				c-0.359-0.041-0.932-0.246-0.932-1.361v-1.613c0-0.307-0.186-0.49-0.449-0.49h-0.143c-0.287,0-0.412-0.104-0.412-0.307
				c0-0.205,0.125-0.309,0.412-0.309h0.387c0.705,0,1.043,0.398,1.043,1.105V20.807z"/>
		</g>
	</g>
</g>
<g id="Layer_5">
</g>
</svg>
