<?xml version="1.0" encoding="utf-8"?>
<!-- Generator: Adobe Illustrator 16.0.0, SVG Export Plug-In . SVG Version: 6.00 Build 0)  -->
<!DOCTYPE svg PUBLIC "-//W3C//DTD SVG 1.1//EN" "http://www.w3.org/Graphics/SVG/1.1/DTD/svg11.dtd">
<svg version="1.1" id="Layer_1" xmlns="http://www.w3.org/2000/svg" xmlns:xlink="http://www.w3.org/1999/xlink" x="0px" y="0px"
	 width="32px" height="32px" viewBox="0 0 32 32" enable-background="new 0 0 32 32" xml:space="preserve">
<g id="Layer_3" display="none">
</g>
<g id="Layer_2">
</g>
<g id="Layer_1_1_">
</g>
<g id="Language_specific">
	<g>
		<g>
			<g>
				<g>
					<defs>
						<path id="SVGID_1_" d="M4.135,1.559c-1.953,0-3.533,1.582-3.533,3.527v21.828c0,1.951,1.58,3.527,3.533,3.527h23.734
							c1.951,0,3.531-1.576,3.531-3.527V5.086c0-1.945-1.58-3.527-3.531-3.527H4.135z"/>
					</defs>
					<clipPath id="SVGID_2_">
						<use xlink:href="#SVGID_1_"  overflow="visible"/>
					</clipPath>
					
						<linearGradient id="SVGID_3_" gradientUnits="userSpaceOnUse" x1="-1540.1191" y1="702.6895" x2="-1538.379" y2="702.6895" gradientTransform="matrix(5.8606 19.1691 -19.1691 5.8606 22506.8574 25403.791)">
						<stop  offset="0" style="stop-color:#FFFFFF"/>
						<stop  offset="1" style="stop-color:#D0D0D0"/>
					</linearGradient>
					<polygon clip-path="url(#SVGID_2_)" fill="url(#SVGID_3_)" points="28.771,-7.037 39.494,27.973 3.232,39.039 -7.488,4.027 
											"/>
				</g>
			</g>
			<path fill="none" stroke="#5C5C5C" stroke-width="0.4351" stroke-linejoin="round" d="M31.402,26.914
				c0,1.953-1.582,3.527-3.531,3.527H4.135c-1.951,0-3.537-1.574-3.537-3.527V5.086c0-1.945,1.586-3.527,3.537-3.527h23.736
				c1.949,0,3.531,1.582,3.531,3.527V26.914z"/>
			<g>
				<g>
					<defs>
						<path id="SVGID_4_" d="M4.23,2.57c-1.459,0-2.646,1.188-2.646,2.648v21.568c0,1.455,1.188,2.641,2.646,2.641h23.542
							c1.463,0,2.647-1.186,2.647-2.641V5.219c0-1.461-1.187-2.648-2.647-2.648L4.23,2.57L4.23,2.57z"/>
					</defs>
					<clipPath id="SVGID_5_">
						<use xlink:href="#SVGID_4_"  overflow="visible"/>
					</clipPath>
					
						<linearGradient id="SVGID_6_" gradientUnits="userSpaceOnUse" x1="-1544.4873" y1="655.2158" x2="-1542.7485" y2="655.2158" gradientTransform="matrix(0 15.4443 -15.4443 0 10135.3496 23856.1016)">
						<stop  offset="0" style="stop-color:#FFFFFF"/>
						<stop  offset="1" style="stop-color:#F3F3F3"/>
					</linearGradient>
					<rect x="1.584" y="2.57" clip-path="url(#SVGID_5_)" fill="url(#SVGID_6_)" width="28.836" height="26.857"/>
				</g>
			</g>
			<path fill="none" stroke="#FAFAFA" stroke-width="0.4351" stroke-linejoin="round" d="M30.42,26.787
				c0,1.455-1.189,2.643-2.648,2.643H4.229c-1.457,0-2.648-1.188-2.648-2.643V5.219c0-1.463,1.191-2.646,2.648-2.646h23.542
				c1.459,0,2.648,1.184,2.648,2.646V26.787z"/>
		</g>
		<g enable-background="new    ">
			<path d="M15.947,6.781c0.829,0,1.501,0.672,1.501,1.501s-0.672,1.501-1.501,1.501s-1.501-0.672-1.501-1.501
				S15.118,6.781,15.947,6.781z M15.947,9.217c0.515,0,0.935-0.42,0.935-0.935s-0.42-0.935-0.935-0.935s-0.935,0.42-0.935,0.935
				S15.433,9.217,15.947,9.217z"/>
		</g>
		<g enable-background="new    ">
			<path d="M18.256,25.094c0,0.326-0.252,0.451-0.43,0.451c-0.189,0-0.431-0.125-0.431-0.451v-0.389h-0.021
				c-0.399,0.567-0.924,0.84-1.522,0.84c-1.575,0-2.457-1.375-2.457-2.855c0-1.479,0.882-2.855,2.457-2.855
				c0.64,0,1.092,0.273,1.522,0.746h0.021v-0.294c0-0.325,0.241-0.452,0.431-0.452c0.178,0,0.43,0.127,0.43,0.452V25.094z
				 M15.853,24.748c1.134,0,1.532-1.113,1.532-2.059c0-0.944-0.398-2.057-1.532-2.057s-1.533,1.112-1.533,2.057
				C14.319,23.635,14.719,24.748,15.853,24.748z M15.149,18.522c-0.294-0.116-0.368-0.263-0.368-0.389
				c0-0.157,0.126-0.44,0.399-0.44c0.094,0,0.178,0.021,0.356,0.094l1.207,0.494c0.295,0.115,0.368,0.262,0.368,0.388
				c0,0.157-0.126,0.441-0.399,0.441c-0.094,0-0.178-0.021-0.356-0.095L15.149,18.522z"/>
		</g>
		<g enable-background="new    ">
			<path d="M25.578,25.101c-0.027,0.204-0.107,0.32-0.338,0.32c-0.214,0-0.303-0.143-0.303-0.303c0-0.098,0.018-0.205,0.045-0.374
				l0.178-1.299h-1.059l-0.231,1.655c-0.026,0.204-0.106,0.32-0.339,0.32c-0.213,0-0.302-0.143-0.302-0.303
				c0-0.098,0.018-0.205,0.044-0.374l0.178-1.299h-0.542c-0.204,0-0.364-0.098-0.364-0.293c0-0.205,0.16-0.294,0.364-0.294h0.622
				l0.188-1.316h-0.543c-0.204,0-0.364-0.098-0.364-0.294c0-0.195,0.16-0.293,0.364-0.293h0.623L24.03,19.3
				c0.026-0.204,0.106-0.32,0.338-0.32c0.214,0,0.302,0.143,0.302,0.303c0,0.098-0.018,0.205-0.044,0.374l-0.178,1.299h1.059
				l0.231-1.655c0.026-0.204,0.106-0.32,0.338-0.32c0.213,0,0.303,0.143,0.303,0.303c0,0.098-0.018,0.205-0.045,0.374l-0.178,1.299
				h0.543c0.204,0,0.364,0.098,0.364,0.293c0,0.205-0.16,0.294-0.364,0.294h-0.623l-0.188,1.316h0.543
				c0.205,0,0.365,0.098,0.365,0.294c0,0.195-0.16,0.293-0.365,0.293h-0.623L25.578,25.101z M25.427,21.542h-1.059l-0.187,1.316
				h1.059L25.427,21.542z"/>
		</g>
	</g>
</g>
<g id="Layer_5">
</g>
</svg>
