<?xml version="1.0" encoding="utf-8"?>
<!-- Generator: Adobe Illustrator 16.0.4, SVG Export Plug-In . SVG Version: 6.00 Build 0)  -->
<!DOCTYPE svg PUBLIC "-//W3C//DTD SVG 1.1//EN" "http://www.w3.org/Graphics/SVG/1.1/DTD/svg11.dtd">
<svg version="1.1" id="Reference" xmlns="http://www.w3.org/2000/svg" xmlns:xlink="http://www.w3.org/1999/xlink" x="0px" y="0px"
	 width="32px" height="32px" viewBox="0 0 32 32" enable-background="new 0 0 32 32" xml:space="preserve">
<g>
	<g>
		<g>
			<defs>
				<path id="SVGID_781_" d="M36.135,1.805c-1.952,0-3.533,1.582-3.533,3.527V27.16c0,1.951,1.581,3.527,3.533,3.527h23.734
					c1.952,0,3.532-1.576,3.532-3.527V5.332c0-1.945-1.58-3.527-3.532-3.527H36.135z"/>
			</defs>
			<clipPath id="SVGID_2_">
				<use xlink:href="#SVGID_781_"  overflow="visible"/>
			</clipPath>
			
				<linearGradient id="SVGID_3_" gradientUnits="userSpaceOnUse" x1="-475.561" y1="-1299.1211" x2="-473.8209" y2="-1299.1211" gradientTransform="matrix(5.8606 19.1691 19.1691 -5.8606 27732.9395 1501.9692)">
				<stop  offset="0" style="stop-color:#FFFFFF"/>
				<stop  offset="1" style="stop-color:#D0D0D0"/>
			</linearGradient>
			<polygon clip-path="url(#SVGID_2_)" fill="url(#SVGID_3_)" points="60.771,-6.791 71.494,28.219 35.232,39.285 24.512,4.273 			
				"/>
		</g>
	</g>
</g>
<g>
	<g>
		<g>
			<defs>
				<path id="SVGID_787_" d="M4.135,1.805c-1.952,0-3.533,1.582-3.533,3.527V27.16c0,1.951,1.581,3.527,3.533,3.527h23.734
					c1.952,0,3.532-1.576,3.532-3.527V5.332c0-1.945-1.58-3.527-3.532-3.527H4.135z"/>
			</defs>
			<clipPath id="SVGID_5_">
				<use xlink:href="#SVGID_787_"  overflow="visible"/>
			</clipPath>
			
				<linearGradient id="SVGID_6_" gradientUnits="userSpaceOnUse" x1="-476.0278" y1="-1300.6484" x2="-474.2873" y2="-1300.6484" gradientTransform="matrix(5.8606 19.1691 19.1691 -5.8606 27732.9395 1501.9692)">
				<stop  offset="0" style="stop-color:#FFFFFF"/>
				<stop  offset="1" style="stop-color:#D0D0D0"/>
			</linearGradient>
			<polygon clip-path="url(#SVGID_5_)" fill="url(#SVGID_6_)" points="28.771,-6.791 39.494,28.219 3.232,39.285 -7.488,4.273 			
				"/>
		</g>
		<path fill="none" stroke="#5C5C5C" stroke-width="0.4351" stroke-linejoin="round" d="M31.403,27.16
			c0,1.953-1.582,3.527-3.532,3.527H4.136c-1.951,0-3.538-1.574-3.538-3.527V5.332c0-1.945,1.587-3.527,3.538-3.527h23.735
			c1.95,0,3.532,1.582,3.532,3.527V27.16z"/>
		<g>
			<defs>
				<path id="SVGID_790_" d="M4.23,2.816c-1.459,0-2.646,1.188-2.646,2.648v21.568c0,1.455,1.188,2.641,2.646,2.641h23.542
					c1.462,0,2.648-1.186,2.648-2.641V5.465c0-1.461-1.187-2.648-2.648-2.648H4.23z"/>
			</defs>
			<clipPath id="SVGID_8_">
				<use xlink:href="#SVGID_790_"  overflow="visible"/>
			</clipPath>
			
				<linearGradient id="SVGID_9_" gradientUnits="userSpaceOnUse" x1="-457.7231" y1="-1271.5283" x2="-455.9844" y2="-1271.5283" gradientTransform="matrix(0 15.4443 15.4443 0 19653.8809 7072.0342)">
				<stop  offset="0" style="stop-color:#FFFFFF"/>
				<stop  offset="1" style="stop-color:#F3F3F3"/>
			</linearGradient>
			<rect x="1.584" y="2.816" clip-path="url(#SVGID_8_)" fill="url(#SVGID_9_)" width="28.837" height="26.857"/>
		</g>
		<path fill="none" stroke="#FAFAFA" stroke-width="0.4351" stroke-linejoin="round" d="M30.421,27.033
			c0,1.455-1.19,2.643-2.648,2.643H4.229c-1.457,0-2.647-1.188-2.647-2.643V5.465c0-1.463,1.19-2.646,2.647-2.646h23.544
			c1.458,0,2.648,1.184,2.648,2.646V27.033z"/>
	</g>
	<g>
		<path d="M8.068,6.9c0.094-0.25,0.215-0.469,0.459-0.469c0.25,0,0.365,0.146,0.365,0.303c0,0.154-0.078,0.32-0.148,0.551
			c-0.273,0.854-0.426,1.943-0.426,3.496c0,1.551,0.152,2.643,0.426,3.494c0.07,0.23,0.148,0.396,0.148,0.555
			c0,0.154-0.115,0.301-0.365,0.301c-0.244,0-0.365-0.219-0.459-0.469c-0.385-1.021-0.602-2.467-0.602-3.881
			C7.467,9.365,7.684,7.92,8.068,6.9"/>
		<path d="M10.467,21.596c0,2.373-1.604,4.201-2.832,5.24c-0.209,0.17-0.334,0.229-0.471,0.229c-0.16,0-0.41-0.16-0.41-0.469
			c0-0.158,0.113-0.285,0.398-0.535c0.652-0.582,1.131-1.131,1.748-2.262H8.879c-0.377,0.195-0.744,0.318-1.291,0.318
			c-1.328,0-2.055-1.256-2.055-2.672c0-1.473,1.049-2.65,2.488-2.65C9.436,18.795,10.467,19.973,10.467,21.596 M8.033,19.732
			c-0.996,0-1.432,0.812-1.432,1.76c0,1.072,0.436,1.758,1.432,1.758c0.994,0,1.428-0.822,1.428-1.758
			C9.461,20.545,9.027,19.732,8.033,19.732"/>
	</g>
</g>
<g>
	<g>
		<g>
			<defs>
				<path id="SVGID_805_" d="M-27.865,1.805c-1.952,0-3.533,1.582-3.533,3.527V27.16c0,1.951,1.581,3.527,3.533,3.527h23.734
					c1.952,0,3.532-1.576,3.532-3.527V5.332c0-1.945-1.58-3.527-3.532-3.527H-27.865z"/>
			</defs>
			<clipPath id="SVGID_11_">
				<use xlink:href="#SVGID_805_"  overflow="visible"/>
			</clipPath>
			
				<linearGradient id="SVGID_12_" gradientUnits="userSpaceOnUse" x1="-476.4941" y1="-1302.1748" x2="-474.754" y2="-1302.1748" gradientTransform="matrix(5.8606 19.1691 19.1691 -5.8606 27732.9395 1501.9692)">
				<stop  offset="0" style="stop-color:#FFFFFF"/>
				<stop  offset="1" style="stop-color:#D0D0D0"/>
			</linearGradient>
			<polygon clip-path="url(#SVGID_11_)" fill="url(#SVGID_12_)" points="-3.229,-6.791 7.494,28.219 -28.768,39.285 -39.488,4.273 
							"/>
		</g>
	</g>
</g>
<g>
	<g>
		<g>
			<defs>
				<path id="SVGID_1039_" d="M36.135,33.904c-1.952,0-3.533,1.582-3.533,3.527V59.26c0,1.951,1.581,3.527,3.533,3.527h23.734
					c1.952,0,3.532-1.576,3.532-3.527V37.432c0-1.945-1.58-3.527-3.532-3.527H36.135z"/>
			</defs>
			<clipPath id="SVGID_14_">
				<use xlink:href="#SVGID_1039_"  overflow="visible"/>
			</clipPath>
			
				<linearGradient id="SVGID_15_" gradientUnits="userSpaceOnUse" x1="-474.0293" y1="-1299.5898" x2="-472.2892" y2="-1299.5898" gradientTransform="matrix(5.8606 19.1691 19.1691 -5.8606 27732.9395 1501.9692)">
				<stop  offset="0" style="stop-color:#FFFFFF"/>
				<stop  offset="1" style="stop-color:#D0D0D0"/>
			</linearGradient>
			<polygon clip-path="url(#SVGID_14_)" fill="url(#SVGID_15_)" points="60.771,25.309 71.494,60.318 35.232,71.385 24.512,36.373 
							"/>
		</g>
	</g>
</g>
</svg>
