<?xml version="1.0" encoding="utf-8"?>
<!-- Generator: Adobe Illustrator 16.0.4, SVG Export Plug-In . SVG Version: 6.00 Build 0)  -->
<!DOCTYPE svg PUBLIC "-//W3C//DTD SVG 1.1//EN" "http://www.w3.org/Graphics/SVG/1.1/DTD/svg11.dtd">
<svg version="1.1" xmlns="http://www.w3.org/2000/svg" xmlns:xlink="http://www.w3.org/1999/xlink" x="0px" y="0px" width="74px"
	 height="32px" viewBox="0 0 74 32" enable-background="new 0 0 74 32" xml:space="preserve">
<g id="Layer_3" display="none">
</g>
<g id="Layer_2">
</g>
<g id="Layer_1">
	<g>
		<g>
			<g>
				<defs>
					<path id="SVGID_1567_" d="M4.134,1.559c-1.952,0-3.533,1.582-3.533,3.527v21.828c0,1.951,1.581,3.527,3.533,3.527h23.734
						c1.952,0,3.532-1.576,3.532-3.527V5.086c0-1.945-1.58-3.527-3.532-3.527H4.134z"/>
				</defs>
				<clipPath id="SVGID_2_">
					<use xlink:href="#SVGID_1567_"  overflow="visible"/>
				</clipPath>
				
					<linearGradient id="SVGID_3_" gradientUnits="userSpaceOnUse" x1="28.7017" y1="-1413.1484" x2="30.4418" y2="-1413.1484" gradientTransform="matrix(5.8606 19.1691 19.1691 -5.8606 26931.4648 -8832.8057)">
					<stop  offset="0" style="stop-color:#FFFFFF"/>
					<stop  offset="1" style="stop-color:#D0D0D0"/>
				</linearGradient>
				<polygon clip-path="url(#SVGID_2_)" fill="url(#SVGID_3_)" points="28.771,-7.037 39.494,27.973 3.232,39.039 -7.489,4.027 				
					"/>
			</g>
			<path fill="none" stroke="#5C5C5C" stroke-width="0.4351" stroke-linejoin="round" d="M31.403,26.914
				c0,1.953-1.582,3.527-3.532,3.527H4.135c-1.951,0-3.538-1.574-3.538-3.527V5.086c0-1.945,1.587-3.527,3.538-3.527h23.735
				c1.95,0,3.532,1.582,3.532,3.527V26.914z"/>
			<g>
				<defs>
					<path id="SVGID_1570_" d="M4.23,2.57c-1.459,0-2.646,1.188-2.646,2.648v21.568c0,1.455,1.188,2.641,2.646,2.641h23.542
						c1.462,0,2.648-1.186,2.648-2.641V5.219c0-1.461-1.187-2.648-2.648-2.648H4.23z"/>
				</defs>
				<clipPath id="SVGID_5_">
					<use xlink:href="#SVGID_1570_"  overflow="visible"/>
				</clipPath>
				
					<linearGradient id="SVGID_6_" gradientUnits="userSpaceOnUse" x1="55.894" y1="-1391.4209" x2="57.6328" y2="-1391.4209" gradientTransform="matrix(0 15.4443 15.4443 0 21505.5352 -860.6702)">
					<stop  offset="0" style="stop-color:#FFFFFF"/>
					<stop  offset="1" style="stop-color:#F3F3F3"/>
				</linearGradient>
				<rect x="1.583" y="2.57" clip-path="url(#SVGID_5_)" fill="url(#SVGID_6_)" width="28.837" height="26.857"/>
			</g>
			<path fill="none" stroke="#FAFAFA" stroke-width="0.4351" stroke-linejoin="round" d="M30.42,26.787
				c0,1.455-1.19,2.643-2.648,2.643H4.228c-1.457,0-2.647-1.188-2.647-2.643V5.219c0-1.463,1.19-2.646,2.647-2.646h23.544
				c1.458,0,2.648,1.184,2.648,2.646V26.787z"/>
		</g>
		<g>
			<path d="M4.198,8.639c0-0.297,0.177-0.482,0.453-0.482c0.277,0,0.452,0.186,0.452,0.482v0.27h0.022
				C5.383,8.412,5.867,8.156,6.59,8.156c1.482,0,2.34,1.348,2.34,2.803c0,1.453-0.857,2.805-2.34,2.805
				c-0.724,0-1.229-0.4-1.465-0.742H5.103v2.422c0,0.303-0.175,0.488-0.452,0.488c-0.276,0-0.453-0.186-0.453-0.488V8.639z
				 M6.518,12.982c1.11,0,1.504-1.096,1.504-2.023S7.628,8.938,6.518,8.938c-1.113,0-1.504,1.094-1.504,2.021
				S5.405,12.982,6.518,12.982"/>
			<path d="M14.436,13.318c0,0.324-0.248,0.445-0.425,0.445c-0.187,0-0.422-0.121-0.422-0.445v-0.381h-0.02
				c-0.394,0.561-0.909,0.826-1.497,0.826c-1.544,0-2.414-1.352-2.414-2.805c0-1.455,0.87-2.803,2.414-2.803
				c0.628,0,1.072,0.266,1.497,0.729h0.02V8.6c0-0.32,0.235-0.443,0.422-0.443c0.177,0,0.425,0.123,0.425,0.443V13.318z
				 M12.073,12.982c1.113,0,1.506-1.096,1.506-2.023s-0.393-2.021-1.506-2.021c-1.111,0-1.505,1.094-1.505,2.021
				S10.961,12.982,12.073,12.982"/>
			<path d="M20.135,13.311c0,1.627-0.99,2.621-2.476,2.621c-0.938,0-2.104-0.537-2.104-1.002c0-0.186,0.093-0.424,0.384-0.424
				c0.41,0,0.812,0.641,1.792,0.641c1.152,0,1.493-0.908,1.493-1.693v-0.471h-0.017c-0.28,0.471-0.776,0.781-1.396,0.781
				c-1.543,0-2.412-1.352-2.412-2.805c0-1.455,0.869-2.803,2.412-2.803c0.587,0,1.158,0.357,1.396,0.691h0.017V8.6
				c0-0.32,0.239-0.443,0.486-0.443c0.178,0,0.424,0.123,0.424,0.443V13.311z M17.813,12.982c1.115,0,1.508-1.096,1.508-2.023
				s-0.393-2.021-1.508-2.021c-1.112,0-1.504,1.094-1.504,2.021S16.701,12.982,17.813,12.982"/>
			<path d="M21.954,11.311c0,0.939,0.602,1.672,1.623,1.672c1.205,0,1.516-0.744,1.856-0.744c0.166,0,0.327,0.145,0.327,0.404
				c0,0.439-1.124,1.121-2.195,1.121c-1.751,0-2.514-1.354-2.514-2.805c0-1.484,0.929-2.803,2.462-2.803
				c1.498,0,2.363,1.348,2.363,2.668c0,0.32-0.116,0.486-0.505,0.486H21.954z M24.968,10.627c0-0.781-0.453-1.689-1.455-1.689
				c-1.124-0.043-1.524,0.857-1.56,1.689H24.968z"/>
			<path d="M8.073,23.338H8.056c-0.26,0.494-0.744,0.752-1.465,0.752c-1.485,0-2.342-1.352-2.342-2.803
				c0-1.453,0.856-2.805,2.342-2.805c0.721,0,1.229,0.404,1.465,0.742h0.017v-2.668c0-0.301,0.18-0.486,0.455-0.486
				c0.281,0,0.456,0.186,0.456,0.486v7.049c0,0.299-0.175,0.484-0.456,0.484c-0.275,0-0.455-0.186-0.455-0.484V23.338z
				 M6.663,19.268c-1.113,0-1.506,1.09-1.506,2.02c0,0.926,0.393,2.021,1.506,2.021c1.114,0,1.505-1.096,1.505-2.021
				C8.167,20.357,7.777,19.268,6.663,19.268"/>
			<path d="M12.405,18.482c1.547,0,2.411,1.35,2.411,2.805s-0.864,2.805-2.411,2.805c-1.549,0-2.412-1.35-2.412-2.805
				S10.856,18.482,12.405,18.482 M12.405,23.309c1.115,0,1.508-1.096,1.508-2.021c0-0.93-0.393-2.02-1.508-2.02
				c-1.116,0-1.507,1.09-1.507,2.02C10.898,22.213,11.289,23.309,12.405,23.309"/>
			<path d="M15.276,19.234c-0.038-0.135-0.064-0.256-0.064-0.352c0-0.174,0.117-0.4,0.43-0.4c0.196,0,0.379,0.072,0.507,0.465
				l1.163,3.742h0.021l1.145-3.609c0.124-0.391,0.207-0.598,0.535-0.598c0.329,0,0.412,0.207,0.536,0.598l1.144,3.609h0.021
				l1.164-3.742c0.127-0.393,0.311-0.465,0.507-0.465c0.312,0,0.433,0.227,0.433,0.4c0,0.096-0.029,0.217-0.07,0.352l-1.504,4.383
				c-0.122,0.348-0.271,0.475-0.529,0.475c-0.248,0-0.401-0.127-0.515-0.475l-1.171-3.701H19l-1.177,3.701
				c-0.111,0.348-0.264,0.475-0.513,0.475c-0.255,0-0.402-0.127-0.527-0.475L15.276,19.234z"/>
			<path d="M23.448,18.967c0-0.297,0.175-0.484,0.455-0.484c0.278,0,0.451,0.188,0.451,0.484v0.219l0.024,0.02
				c0.398-0.516,0.967-0.723,1.515-0.723c0.844,0,1.907,0.537,1.907,2.084v3.041c0,0.297-0.179,0.484-0.456,0.484
				c-0.274,0-0.453-0.188-0.453-0.484v-2.992c0-0.957-0.671-1.348-1.269-1.348c-0.596,0-1.269,0.391-1.269,1.348v2.992
				c0,0.297-0.173,0.484-0.451,0.484c-0.28,0-0.455-0.188-0.455-0.484V18.967z"/>
		</g>
	</g>
</g>
<g id="Language_specific">
	<g>
		<g>
			<g>
				<defs>
					<path id="SVGID_1801_" d="M46.134,1.559c-1.952,0-3.533,1.582-3.533,3.527v21.828c0,1.951,1.581,3.527,3.533,3.527h23.734
						c1.952,0,3.532-1.576,3.532-3.527V5.086c0-1.945-1.58-3.527-3.532-3.527H46.134z"/>
				</defs>
				<clipPath id="SVGID_8_">
					<use xlink:href="#SVGID_1801_"  overflow="visible"/>
				</clipPath>
				
					<linearGradient id="SVGID_9_" gradientUnits="userSpaceOnUse" x1="29.3145" y1="-1411.1455" x2="31.0546" y2="-1411.1455" gradientTransform="matrix(5.8606 19.1691 19.1691 -5.8606 26931.4648 -8832.8057)">
					<stop  offset="0" style="stop-color:#FFFFFF"/>
					<stop  offset="1" style="stop-color:#D0D0D0"/>
				</linearGradient>
				<polygon clip-path="url(#SVGID_8_)" fill="url(#SVGID_9_)" points="70.771,-7.037 81.494,27.973 45.232,39.039 34.511,4.027 
									"/>
			</g>
			<path fill="none" stroke="#5C5C5C" stroke-width="0.4351" stroke-linejoin="round" d="M73.403,26.914
				c0,1.953-1.582,3.527-3.532,3.527H46.135c-1.951,0-3.538-1.574-3.538-3.527V5.086c0-1.945,1.587-3.527,3.538-3.527h23.735
				c1.95,0,3.532,1.582,3.532,3.527V26.914z"/>
			<g>
				<defs>
					<path id="SVGID_1804_" d="M46.23,2.57c-1.459,0-2.646,1.188-2.646,2.648v21.568c0,1.455,1.188,2.641,2.646,2.641h23.542
						c1.462,0,2.648-1.186,2.648-2.641V5.219c0-1.461-1.187-2.648-2.648-2.648H46.23z"/>
				</defs>
				<clipPath id="SVGID_11_">
					<use xlink:href="#SVGID_1804_"  overflow="visible"/>
				</clipPath>
				
					<linearGradient id="SVGID_12_" gradientUnits="userSpaceOnUse" x1="55.894" y1="-1388.7012" x2="57.6328" y2="-1388.7012" gradientTransform="matrix(0 15.4443 15.4443 0 21505.5352 -860.6702)">
					<stop  offset="0" style="stop-color:#FFFFFF"/>
					<stop  offset="1" style="stop-color:#F3F3F3"/>
				</linearGradient>
				<rect x="43.583" y="2.57" clip-path="url(#SVGID_11_)" fill="url(#SVGID_12_)" width="28.837" height="26.857"/>
			</g>
			<path fill="none" stroke="#FAFAFA" stroke-width="0.4351" stroke-linejoin="round" d="M72.42,26.787
				c0,1.455-1.19,2.643-2.648,2.643H46.228c-1.457,0-2.647-1.188-2.647-2.643V5.219c0-1.463,1.19-2.646,2.647-2.646h23.544
				c1.458,0,2.648,1.184,2.648,2.646V26.787z"/>
		</g>
		<path d="M52.963,18.281l4.994,7.566l5.072-7.521c0.085-0.125,0.119-0.264,0.125-0.402c0-0.232-0.113-0.465-0.318-0.602
			c-0.334-0.227-0.788-0.139-1.01,0.193l-3.104,4.596v-5.643h2.213v-1.297h-2.213v-3.105h2.213v-1.295h-2.213V6.152h-1.452v4.619
			h-2.208v1.297h2.208v3.107h-2.208v1.293h2.208v5.699l-3.099-4.688c-0.216-0.334-0.67-0.428-0.998-0.209
			C52.833,17.498,52.743,17.947,52.963,18.281"/>
	</g>
	<line fill="none" stroke="#FFFFFF" stroke-miterlimit="10" x1="39.5" y1="1" x2="33.5" y2="30.062"/>
	<line fill="none" stroke="#000000" stroke-miterlimit="10" x1="40.5" y1="1" x2="34.5" y2="31"/>
</g>
<g id="Layer_5">
</g>
</svg>
