<?xml version="1.0" encoding="utf-8"?>
<!-- Generator: Adobe Illustrator 18.1.1, SVG Export Plug-In . SVG Version: 6.00 Build 0)  -->
<svg version="1.1" id="Layer_1" xmlns="http://www.w3.org/2000/svg" xmlns:xlink="http://www.w3.org/1999/xlink" x="0px" y="0px"
	 viewBox="25 0 16 16" enable-background="new 25 0 16 16" xml:space="preserve">
<g opacity="0.15">
	<g>
		<path fill="#FFFFFF" d="M33,14.6c-1.6,0-3-1.9-3-4.2s1.4-4.2,3-4.2c1.7,0,3,1.9,3,4.2C36,12.6,34.7,14.6,33,14.6z"/>
		<path fill="#4D4D4D" d="M33,6.2c1.6,0,2.9,1.9,2.9,4.1s-1.3,4.1-2.9,4.1c-1.6,0-2.9-1.9-2.9-4.1C30.2,8.1,31.5,6.2,33,6.2 M33,6
			C31.4,6,30,7.9,30,10.4s1.4,4.4,3.1,4.4c1.7,0,3.1-1.9,3.1-4.4S34.8,6,33,6L33,6z"/>
	</g>
	<path fill="none" stroke="#4D4D4D" stroke-width="0.4639" stroke-linecap="round" stroke-linejoin="round" d="M32.8,14.6
		c0,0.2,0.6,0.2,0.5,0.6c-0.1,0.4-2.6-0.6-3.4,0.4"/>
	<path opacity="0.59" fill="none" stroke="#4D4D4D" stroke-width="0.1546" enable-background="new    " d="M35.5,10.5
		c0-2-1.1-3.7-2.5-3.9c0,0.4,0,3.5,0,3.5"/>
	<path opacity="0.59" fill="none" stroke="#4D4D4D" stroke-width="0.1546" enable-background="new    " d="M30.5,10.5
		c0-2,1.1-3.7,2.5-3.9c0,0.4,0,3.5,0,3.5"/>
</g>
<g opacity="0.3">
	<g>
		<path fill="#FFFFFF" d="M33,13.1c-1.6,0-3-1.9-3-4.2s1.4-4.2,3-4.2c1.7,0,3,1.9,3,4.2C36,11.1,34.7,13.1,33,13.1z"/>
		<path fill="#4D4D4D" d="M33,4.8c1.6,0,2.9,1.8,2.9,4.1S34.6,13,33,13c-1.6,0-2.9-1.9-2.9-4.1C30.2,6.6,31.5,4.8,33,4.8 M33,4.5
			c-1.7,0-3.1,1.9-3.1,4.4s1.4,4.4,3.1,4.4c1.7,0,3.1-1.9,3.1-4.4S34.8,4.5,33,4.5L33,4.5z"/>
	</g>
	<path fill="none" stroke="#4D4D4D" stroke-width="0.4639" stroke-linecap="round" stroke-linejoin="round" d="M32.8,13.1
		c0,0.2,0.6,0.2,0.5,0.6c-0.1,0.4-2.4,0.6-3.3,1.7"/>
	<path opacity="0.59" fill="none" stroke="#4D4D4D" stroke-width="0.1546" enable-background="new    " d="M35.5,9
		c0-2-1.1-3.7-2.5-3.9c0,0.4,0,3.5,0,3.5"/>
	<path opacity="0.59" fill="none" stroke="#4D4D4D" stroke-width="0.1546" enable-background="new    " d="M30.5,9
		c0-2,1.1-3.7,2.5-3.9c0,0.4,0,3.5,0,3.5"/>
</g>
<g opacity="0.4">
	<g>
		<path fill="#FFFFFF" d="M33,11.6c-1.6,0-3-1.9-3-4.2s1.4-4.2,3-4.2c1.7,0,3,1.9,3,4.2C36,9.6,34.7,11.6,33,11.6z"/>
		<path fill="#4D4D4D" d="M33,3.2c1.6,0,2.9,1.8,2.9,4.1s-1.3,4.1-2.9,4.1c-1.6,0-2.9-1.9-2.9-4.1C30.2,5.1,31.5,3.2,33,3.2 M33,3
			C31.4,3,30,4.9,30,7.3s1.4,4.3,3.1,4.3c1.7,0,3.1-1.9,3.1-4.3S34.8,3,33,3L33,3z"/>
	</g>
	<path fill="none" stroke="#4D4D4D" stroke-width="0.4639" stroke-linecap="round" stroke-linejoin="round" d="M32.8,11.6
		c0,0.2,0.6,0.2,0.5,0.6c-0.1,0.4-2.4,2.1-3.3,3.2"/>
	<path opacity="0.59" fill="none" stroke="#4D4D4D" stroke-width="0.1546" enable-background="new    " d="M35.5,7.5
		c0-2-1.1-3.7-2.5-3.9c0,0.4,0,3.5,0,3.5"/>
	<path opacity="0.59" fill="none" stroke="#4D4D4D" stroke-width="0.1546" enable-background="new    " d="M30.5,7.5
		c0-2,1.1-3.7,2.5-3.9c0,0.4,0,3.5,0,3.5"/>
</g>
<g opacity="0.55">
	<g>
		<path fill="#FFFFFF" d="M33,10.1c-1.6,0-3-1.9-3-4.2s1.4-4.2,3-4.2c1.7,0,3,1.9,3,4.2C36,8.1,34.7,10.1,33,10.1z"/>
		<path fill="#4D4D4D" d="M33,1.8c1.6,0,2.9,1.8,2.9,4.1S34.6,9.9,33,9.9c-1.6,0-2.9-1.9-2.9-4.1C30.2,3.5,31.5,1.8,33,1.8 M33,1.5
			c-1.7,0-3.1,2-3.1,4.3s1.4,4.3,3.1,4.3c1.7,0,3.1-1.9,3.1-4.3S34.8,1.5,33,1.5L33,1.5z"/>
	</g>
	<path fill="none" stroke="#4D4D4D" stroke-width="0.4639" stroke-linecap="round" stroke-linejoin="round" d="M32.8,10.1
		c0,0.2,0.6,0.2,0.5,0.6c-0.1,0.4-2.4,3.6-3.3,4.7"/>
	<path opacity="0.59" fill="none" stroke="#4D4D4D" stroke-width="0.1546" enable-background="new    " d="M35.5,6
		c0-2-1.1-3.7-2.5-3.9c0,0.4,0,3.5,0,3.5"/>
	<path opacity="0.59" fill="none" stroke="#4D4D4D" stroke-width="0.1546" enable-background="new    " d="M30.5,6
		c0-2,1.1-3.7,2.5-3.9c0,0.4,0,3.5,0,3.5"/>
</g>
<g>
	<g>
		<path fill="#FFFFFF" d="M33,8.6c-1.6,0-3-1.9-3-4.2s1.4-4.2,3-4.2c1.7,0,3,1.9,3,4.2C36,6.7,34.7,8.6,33,8.6z"/>
		<path fill="#4D4D4D" d="M33,0.2c1.6,0,2.9,1.8,2.9,4.1S34.6,8.4,33,8.4c-1.6,0-2.9-1.8-2.9-4.1C30.2,2,31.5,0.2,33,0.2 M33,0
			C31.4,0,30,2,30,4.3s1.4,4.3,3.1,4.3c1.7,0,3.1-1.9,3.1-4.3S34.8,0,33,0L33,0z"/>
	</g>
	<path fill="none" stroke="#4D4D4D" stroke-width="0.4639" stroke-linecap="round" stroke-linejoin="round" d="M32.8,8.6
		c0,0.2,0.6,0.2,0.5,0.6c-0.1,0.4-2.4,5.1-3.3,6.2"/>
	<path opacity="0.59" fill="none" stroke="#4D4D4D" stroke-width="0.1546" enable-background="new    " d="M35.5,4.5
		c0-2-1.1-3.7-2.5-3.9c0,0.4,0,3.5,0,3.5"/>
	<path opacity="0.59" fill="none" stroke="#4D4D4D" stroke-width="0.1546" enable-background="new    " d="M30.5,4.5
		c0-2,1.1-3.7,2.5-3.9c0,0.4,0,3.5,0,3.5"/>
</g>
<g>
	
		<linearGradient id="SVGID_1_" gradientUnits="userSpaceOnUse" x1="16" y1="6.1904" x2="16" y2="14.1904" gradientTransform="matrix(0.5 0 0 -0.5 25 8)">
		<stop  offset="0" style="stop-color:#FFFFFF"/>
		<stop  offset="0.7485" style="stop-color:#FF1700"/>
	</linearGradient>
	<polygon fill="url(#SVGID_1_)" points="33,3.2 33.9,4.9 33.6,3.3 35.1,4 33,0.9 30.9,4 32.4,3.3 32.1,4.9 	"/>
</g>
</svg>
