<?xml version="1.0" encoding="utf-8"?>
<!-- Generator: Adobe Illustrator 18.1.1, SVG Export Plug-In . SVG Version: 6.00 Build 0)  -->
<svg version="1.1" id="Layer_1" xmlns="http://www.w3.org/2000/svg" xmlns:xlink="http://www.w3.org/1999/xlink" x="0px" y="0px"
	 viewBox="0 0 32 32" enable-background="new 0 0 32 32" xml:space="preserve">
<path stroke="#FFFFFF" stroke-width="0.9444" d="M7.7,29.3c0,0,1.4,0.2,0.2-3.3c-1.4-3.9-6.9,0.3-6.9-5.9c0-3.5,2.1-7.6,15.3-7.6
	c13.2,0,14.5,4.3,14.5,7.7c0,3.5-4.2,2.4-6,4c-1.8,1.6,0,5.2,0,5.2C13.5,33,7.7,29.3,7.7,29.3z"/>
<text transform="matrix(1 0 0 1 13.0967 25.5069)" fill="#FFFFFF" font-family="'HelveticaNeueLTCom-BdCn'" font-size="12.9009">L</text>
<g>
	<rect x="6" y="5" fill="#FF1700" width="18" height="3"/>
	<path fill="#FFFFFF" d="M24,6v1H7V6H24 M24,5h-0.4h-17H6v0.6v1.8V8h0.6h17H24V7.4V5.6V5L24,5z"/>
</g>
<polygon fill="#FF1700" stroke="#FFFFFF" stroke-width="0.7" points="9.5,1.8 2.8,6.8 9.5,11.8 11.4,10.1 8.1,6.8 11.3,3.5 "/>
<polygon fill="#FF1700" stroke="#FFFFFF" stroke-width="0.7" points="20.7,1.8 27.4,6.8 20.7,11.8 18.8,10.1 22.1,6.8 18.9,3.5 "/>
<circle opacity="0.7" fill="#FFFFFF" cx="-16" cy="48" r="16"/>
<circle opacity="0.7" fill="#FFFFFF" cx="16" cy="48" r="16"/>
</svg>
