<?xml version="1.0" encoding="utf-8"?>
<!-- Generator: Adobe Illustrator 18.1.1, SVG Export Plug-In . SVG Version: 6.00 Build 0)  -->
<svg version="1.1" id="Layer_1" xmlns="http://www.w3.org/2000/svg" xmlns:xlink="http://www.w3.org/1999/xlink" x="0px" y="0px"
	 viewBox="0 0 32 32" enable-background="new 0 0 32 32" xml:space="preserve">
<path stroke="#FFFFFF" stroke-width="0.9444" d="M7.7,29.3c0,0,1.4,0.2,0.2-3.3c-1.4-3.9-6.9,0.3-6.9-5.9c0-3.5,2.1-7.6,15.3-7.6
	c13.2,0,14.5,4.3,14.5,7.7c0,3.5-4.2,2.4-6,4c-1.8,1.6,0,5.2,0,5.2C13.5,33,7.7,29.3,7.7,29.3z"/>
<text transform="matrix(1 0 0 1 12.4975 25.5069)" fill="#FFFFFF" font-family="'HelveticaNeueLTCom-BdCn'" font-size="12.9009">R</text>
<g>
	<polygon fill="#FF1700" points="3.9,9 4.1,8 9.2,8 13.7,10.2 14.5,4.2 11.2,6 7.1,6 6.9,5 16.1,0.7 25.3,5 25.1,6 21,6 17.7,4.2 
		18.5,10.2 23,8 28.1,8 28.3,9 16.1,14.8 	"/>
	<path fill="#FFFFFF" d="M16.1,1.8l9,4.2h-4l-4-2.5l1,7.9l5-2.4h5l-12,5.8L4.1,9h5l5,2.3l1-7.6l-4,2.4h-4L16.1,1.8 M16.1,0.1
		l-0.4,0.2l-9,4.5L7.1,7h4h0.3l0.2-0.4l2.3-1.4l-0.6,4.3L9.5,7.9L9.3,8H9.1h-5L3.7,9.7l12,5.6l0.4,0.1l0.4-0.2l12-5.5L28.1,8h-5
		h-0.2l-0.2-0.1l-3.7,1.7l-0.6-4.4l2.3,1.5L20.8,7h0.3h4l0.4-2.2l-9-4.4L16.1,0.1L16.1,0.1z"/>
</g>
<circle opacity="0.7" fill="#FFFFFF" cx="-16" cy="48" r="16"/>
</svg>
