<?xml version="1.0" encoding="utf-8"?>
<!-- Generator: Adobe Illustrator 18.1.1, SVG Export Plug-In . SVG Version: 6.00 Build 0)  -->
<svg version="1.1" id="Icons" xmlns="http://www.w3.org/2000/svg" xmlns:xlink="http://www.w3.org/1999/xlink" x="0px" y="0px"
	 viewBox="0 0 42 28" enable-background="new 0 0 42 28" xml:space="preserve">
<g>
	<path fill="#0071BC" d="M18.2,8.7c0,0,0.4,0.1,1.2,0.3c0.4,0.1,0.8,0.2,1.4,0.4c0.3,0.1,0.5,0.1,0.8,0.2c0.4,0.1,0.7,0.2,1.1,0.3
		c0.8,0.3,1.6,0.5,2.5,0.8c0.8,0.4,1.7,0.7,2.6,1.1c0.9,0.4,1.8,1,2.6,1.4c0.9,0.5,1.7,1.2,2.5,1.7c0.8,0.6,1.6,1.3,2.3,2
		c0.7,0.8,1.3,1.4,1.9,2.2c0.6,0.7,1,1.5,1.4,2.2c0.4,0.7,0.7,1.4,1,2.1c1.1,2.7,1.1,4.5,1.1,4.5s-0.8-1.7-2.7-3.4
		c-0.5-0.4-1-0.9-1.6-1.3c-0.6-0.4-1.2-0.8-1.9-1.2c-0.6-0.4-1.4-0.7-2.1-1c-0.8-0.3-1.5-0.5-2.3-0.7c-0.8-0.1-1.5-0.3-2.3-0.4
		c-0.8,0-1.5-0.2-2.2-0.1c-0.7,0-1.4,0-2.1,0c-0.6,0.1-1.2,0.2-1.7,0.2c-0.3,0-0.5,0.1-0.7,0.1c-0.3,0.1-0.6,0.1-0.9,0.1
		c-0.5,0.1-1,0.2-1.4,0.2c-0.8,0.1-1.2,0.2-1.2,0.2L18.2,8.7z"/>
	<g>
		<polygon fill="#0071BC" points="21,26.9 -0.2,14.7 21,2.5 		"/>
	</g>
</g>
<line fill="none" stroke="#0071BC" stroke-width="2" x1="1" y1="28" x2="1" y2="2"/>
</svg>
