<?xml version="1.0" encoding="utf-8"?>
<!-- Generator: Adobe Illustrator 19.1.0, SVG Export Plug-In . SVG Version: 6.00 Build 0)  -->
<svg version="1.1" id="Layer_1" xmlns="http://www.w3.org/2000/svg" xmlns:xlink="http://www.w3.org/1999/xlink" x="0px" y="0px"
	 viewBox="0 6 26 18" style="enable-background:new 0 6 26 18;" xml:space="preserve">
<style type="text/css">
	.st0{fill:#727272;}
	.st1{display:none;}
	.st2{display:inline;}
	.st3{fill:#0071BB;}
</style>
<g id="Layer_1_1_">
	<g>
		<path id="XMLID_5_" class="st0" d="M7.8,13.8c0,0-3.2,6.4-7,8.3s6.9-1.5,6.9-1.5"/>
		<path class="st0" d="M23,6H9C7.3,6,6,7.3,6,9v12c0,1.7,1.3,3,3,3h14c1.7,0,3-1.3,3-3V9C26,7.3,24.7,6,23,6z M9,9h11v2H9V9z M17,20
			H9v-2h8V20z M21,17H9v-2h12V17z M23,14H9v-2h14V14z"/>
	</g>
</g>
<g id="Layer_2" class="st1">
	<g id="XMLID_21_" class="st2">
		<path id="XMLID_28_" class="st3" d="M13,11c-2.7,0-5-0.6-5.7-1.5c-0.2,0.7-0.3,1.3-0.3,2c0,4.1,2.7,7.5,6,7.5s6-3.4,6-7.5
			c0-0.7-0.1-1.3-0.2-2C18.1,10.4,15.8,11,13,11z"/>
		<path id="XMLID_27_" class="st3" d="M13,23.3c1.3,0,2.4,0.3,2.7,0.7c0.1-0.3,0.1-0.6,0.1-0.9c0-2-1.3-3.5-2.8-3.5
			s-2.8,1.6-2.8,3.5c0,0.3,0,0.6,0.1,0.9C10.6,23.6,11.7,23.3,13,23.3z"/>
		<path id="XMLID_26_" class="st3" d="M13,10c2.8,0,5.1-0.6,5.8-1.5c-0.1-0.5-0.3-1-0.4-1.4c-1-0.6-3-1.1-5.3-1.1S8.7,6.4,7.7,7.1
			C7.5,7.5,7.4,8,7.3,8.5C8,9.4,10.3,10,13,10z"/>
		<g id="XMLID_24_">
			<path id="XMLID_25_" class="st3" d="M7.6,15.6l-2.4-2.5c-0.3-0.4-0.6-0.7-0.8-1.1c-0.6-0.9-0.9-2-0.7-3.1c0-0.1,0.1-0.5,0.4-0.8
				C4.3,8,4.6,7.9,4.9,7.9c0.8,0,1.7,0.4,2.1,1L5.8,9.7C5.7,9.5,5.4,9.3,5,9.3c0,0.7,0.2,1.4,0.5,2c0.2,0.3,0.5,0.6,0.8,0.9l0.4,0.7
				L7.6,15.6z"/>
		</g>
		<g id="XMLID_22_">
			<path id="XMLID_23_" class="st3" d="M18.4,15.6l2.4-2.5c0.3-0.3,0.6-0.7,0.8-1.1c0.6-0.9,0.8-2,0.7-3.1c0-0.1-0.1-0.5-0.4-0.8
				c-0.2-0.2-0.5-0.2-0.8-0.3c-0.8,0-1.7,0.4-2.1,1l1.2,0.8c0.1-0.2,0.5-0.4,0.8-0.4c0.1,0.7-0.1,1.4-0.5,2
				c-0.2,0.3-0.5,0.6-0.7,0.9l-0.4,0.7L18.4,15.6z"/>
		</g>
	</g>
</g>
<g id="Layer_3" class="st1">
	<g id="XMLID_35_" class="st2">
		<ellipse id="XMLID_33_" class="st3" cx="12.9" cy="9.8" rx="2.6" ry="2.7"/>
		<path id="XMLID_32_" class="st3" d="M16,19c0-3.3-1.4-6.3-3.1-6.3s-3.1,3-3.1,6.4c0,1.8,1,4.8,1,4.8H15C15,24,16,20.8,16,19z"/>
		<ellipse id="XMLID_31_" class="st3" cx="6.7" cy="8.4" rx="2.3" ry="2.4"/>
		<path id="XMLID_30_" class="st3" d="M9.5,16.6c0-2.9-1.2-5.5-2.7-5.5S4,13.8,4,16.7C4,18.3,4.9,21,4.9,21h3.6
			C8.6,21,9.5,18.2,9.5,16.6z"/>
		<ellipse id="XMLID_29_" class="st3" cx="19.3" cy="8.4" rx="2.3" ry="2.4"/>
		<path id="XMLID_20_" class="st3" d="M22,16.6c0-2.9-1.2-5.5-2.7-5.5s-2.7,2.7-2.7,5.6c0,1.6,0.9,4.3,0.9,4.3h3.6
			C21.1,21,22,18.2,22,16.6z"/>
	</g>
</g>
</svg>
