<?xml version="1.0" encoding="utf-8"?>
<!-- Generator: Adobe Illustrator 19.0.0, SVG Export Plug-In . SVG Version: 6.00 Build 0)  -->
<svg version="1.1" xmlns="http://www.w3.org/2000/svg" xmlns:xlink="http://www.w3.org/1999/xlink" x="0px" y="0px"
	 viewBox="0 0 26 18" enable-background="new 0 0 26 18" xml:space="preserve">
<g id="Layer_1" display="none">
	<g display="inline">
		<path id="XMLID_6_" fill="#0071BB" d="M23,18H9c-1.7,0-3-1.3-3-3V3c0-1.7,1.3-3,3-3h14c1.7,0,3,1.3,3,3v12C26,16.7,24.7,18,23,18z
			"/>
		<path id="XMLID_5_" fill="#0071BB" d="M7.8,7.8c0,0-3.2,6.4-7,8.3s6.9-1.5,6.9-1.5"/>
		<rect id="XMLID_4_" x="9" y="3" fill="#FFFFFF" width="11" height="2"/>
		<rect id="XMLID_3_" x="9" y="6" fill="#FFFFFF" width="14" height="2"/>
		<rect id="XMLID_2_" x="9" y="9" fill="#FFFFFF" width="12" height="2"/>
		<rect id="XMLID_1_" x="9" y="12" fill="#FFFFFF" width="8" height="2"/>
	</g>
</g>
<g id="Layer_2" display="none">
	<g id="XMLID_21_" display="inline">
		<path id="XMLID_28_" fill="#0071BB" d="M13,5C10.3,5,8,4.4,7.3,3.5C7.1,4.2,7,4.8,7,5.5C7,9.6,9.7,13,13,13s6-3.4,6-7.5
			c0-0.7-0.1-1.3-0.2-2C18.1,4.4,15.8,5,13,5z"/>
		<path id="XMLID_27_" fill="#0071BB" d="M13,17.3c1.3,0,2.4,0.3,2.7,0.7c0.1-0.3,0.1-0.6,0.1-0.9c0-2-1.3-3.5-2.8-3.5
			s-2.8,1.6-2.8,3.5c0,0.3,0,0.6,0.1,0.9C10.6,17.6,11.7,17.3,13,17.3z"/>
		<path id="XMLID_26_" fill="#0071BB" d="M13,4c2.8,0,5.1-0.6,5.8-1.5c-0.1-0.5-0.3-1-0.4-1.4c-1-0.6-3-1.1-5.3-1.1S8.7,0.4,7.7,1.1
			C7.5,1.5,7.4,2,7.3,2.5C8,3.4,10.3,4,13,4z"/>
		<g id="XMLID_24_">
			<path id="XMLID_25_" fill="#0071BB" d="M7.6,9.6L5.2,7.1C4.9,6.7,4.6,6.4,4.4,6C3.8,5.1,3.5,4,3.7,2.9c0-0.1,0.1-0.5,0.4-0.8
				C4.3,2,4.6,1.9,4.9,1.9c0.8,0,1.7,0.4,2.1,1L5.8,3.7C5.7,3.5,5.4,3.3,5,3.3C5,4,5.2,4.7,5.5,5.3C5.7,5.6,6,5.9,6.3,6.2l0.4,0.7
				L7.6,9.6z"/>
		</g>
		<g id="XMLID_22_">
			<path id="XMLID_23_" fill="#0071BB" d="M18.4,9.6l2.4-2.5c0.3-0.3,0.6-0.7,0.8-1.1c0.6-0.9,0.8-2,0.7-3.1c0-0.1-0.1-0.5-0.4-0.8
				c-0.2-0.2-0.5-0.2-0.8-0.3c-0.8,0-1.7,0.4-2.1,1l1.2,0.8c0.1-0.2,0.5-0.4,0.8-0.4c0.1,0.7-0.1,1.4-0.5,2
				c-0.2,0.3-0.5,0.6-0.7,0.9l-0.4,0.7L18.4,9.6z"/>
		</g>
	</g>
</g>
<g id="Layer_3">
	<g id="XMLID_35_">
		<ellipse id="XMLID_33_" fill="#0071BB" cx="12.9" cy="3.8" rx="2.6" ry="2.7"/>
		<path id="XMLID_32_" fill="#0071BB" d="M16,13c0-3.3-1.4-6.3-3.1-6.3s-3.1,3-3.1,6.4c0,1.8,1,4.8,1,4.8H15C15,18,16,14.8,16,13z"
			/>
		<ellipse id="XMLID_31_" fill="#0071BB" cx="6.7" cy="2.4" rx="2.3" ry="2.4"/>
		<path id="XMLID_30_" fill="#0071BB" d="M9.5,10.6c0-2.9-1.2-5.5-2.7-5.5S4,7.8,4,10.7C4,12.3,4.9,15,4.9,15h3.6
			C8.6,15,9.5,12.2,9.5,10.6z"/>
		<ellipse id="XMLID_29_" fill="#0071BB" cx="19.3" cy="2.4" rx="2.3" ry="2.4"/>
		<path id="XMLID_20_" fill="#0071BB" d="M22,10.6c0-2.9-1.2-5.5-2.7-5.5c-1.5,0-2.7,2.7-2.7,5.6c0,1.6,0.9,4.3,0.9,4.3h3.6
			C21.1,15,22,12.2,22,10.6z"/>
	</g>
</g>
</svg>
