<?xml version="1.0" encoding="utf-8"?>
<!-- Generator: Adobe Illustrator 19.1.0, SVG Export Plug-In . SVG Version: 6.00 Build 0)  -->
<svg version="1.1" id="Layer_1" xmlns="http://www.w3.org/2000/svg" xmlns:xlink="http://www.w3.org/1999/xlink" x="0px" y="0px"
	 viewBox="0 0 14 14" enable-background="new 0 0 14 14" xml:space="preserve">
<g>
	<path fill="#F05A24" d="M12,9H2C0.9,9,0,8.1,0,7v0c0-1.1,0.9-2,2-2h10c1.1,0,2,0.9,2,2v0C14,8.1,13.1,9,12,9z"/>
	<path fill="#F05A24" d="M5,12V2c0-1.1,0.9-2,2-2h0c1.1,0,2,0.9,2,2v10c0,1.1-0.9,2-2,2h0C5.9,14,5,13.1,5,12z"/>
</g>
</svg>
