<?xml version="1.0" encoding="utf-8"?>
<!-- Generator: Adobe Illustrator 19.0.0, SVG Export Plug-In . SVG Version: 6.00 Build 0)  -->
<svg version="1.1" xmlns="http://www.w3.org/2000/svg" xmlns:xlink="http://www.w3.org/1999/xlink" x="0px" y="0px"
	 viewBox="0 0 24 13" enable-background="new 0 0 24 13" xml:space="preserve">
<g id="Layer_1" display="none">
	<ellipse display="inline" fill="#0071BB" cx="5.9" cy="3.9" rx="1.7" ry="1.8"/>
	<path display="inline" fill="#0071BB" d="M8,9.9c0-2.2-0.9-4.1-2.1-4.1S3.8,7.7,3.8,9.9c0,1.2,0.7,3.1,0.7,3.1h2.8
		C7.3,13,8,11.1,8,9.9z"/>
	<ellipse display="inline" fill="#0071BB" cx="1.8" cy="3" rx="1.5" ry="1.6"/>
	<path display="inline" fill="#0071BB" d="M3.6,8.3c0-2-0.8-3.6-1.8-3.6S0,6.3,0,8.3C0,9.3,0.6,11,0.6,11H3C3,11,3.6,9.3,3.6,8.3z"
		/>
	<ellipse display="inline" fill="#0071BB" cx="10.2" cy="3" rx="1.5" ry="1.6"/>
	<path display="inline" fill="#0071BB" d="M12,8.3c0-2-0.8-3.6-1.8-3.6S8.3,6.3,8.3,8.3C8.3,9.3,9,11,9,11h2.4
		C11.4,11,12,9.3,12,8.3z"/>
	<path display="inline" fill="#0071BB" d="M23,7h-5.6c-0.6,0-1-0.4-1-1V1c0-0.6,0.4-1,1-1L23,0c0.6,0,1,0.4,1,1v5
		C24,6.6,23.6,7,23,7z"/>
	<polyline display="inline" fill="#0071BB" points="16.4,3.1 13,5.6 16.4,4.8 	"/>
	<rect x="18" y="1" display="inline" fill="#FFFFFF" width="4" height="1"/>
	<rect x="18" y="3.1" display="inline" fill="#FFFFFF" width="5" height="0.8"/>
	<rect x="18" y="5" display="inline" fill="#FFFFFF" width="3" height="1"/>
</g>
<g id="Layer_2">
	<g>
		<path fill="#0071BB" d="M12,3.6c-2,0-3.7-0.5-4.2-1.1C7.7,3,7.7,3.5,7.7,4c0,3,1.9,5.4,4.3,5.4S16.3,7,16.3,4c0-0.5-0.1-1-0.2-1.4
			C15.7,3.2,14,3.6,12,3.6z"/>
		<path fill="#0071BB" d="M12,12.5c0.9,0,1.7,0.2,2,0.5c0-0.2,0.1-0.4,0.1-0.7c0-1.4-0.9-2.6-2-2.6s-2,1.1-2,2.6
			c0,0.2,0,0.5,0.1,0.7C10.3,12.7,11.1,12.5,12,12.5z"/>
		<path fill="#0071BB" d="M12,2.9c2,0,3.7-0.5,4.2-1.1c-0.1-0.4-0.2-0.7-0.3-1C15.1,0.3,13.7,0,12,0S8.9,0.3,8.1,0.8
			C8,1.1,7.9,1.5,7.8,1.8C8.3,2.4,10,2.9,12,2.9z"/>
		<g>
			<path fill="#0071BB" d="M8.1,6.9L6.3,5.1C6.1,4.9,5.9,4.6,5.7,4.3C5.3,3.7,5.1,2.9,5.2,2.1c0-0.1,0-0.4,0.3-0.6
				c0.1-0.1,0.3-0.2,0.6-0.2c0.6,0,1.2,0.3,1.5,0.8L6.8,2.7C6.7,2.5,6.5,2.4,6.2,2.4c0,0.5,0.1,1,0.4,1.4C6.7,4,6.9,4.2,7.1,4.5
				l0.3,0.5L8.1,6.9z"/>
		</g>
		<g>
			<path fill="#0071BB" d="M15.8,6.9l1.7-1.8c0.2-0.2,0.4-0.5,0.6-0.8c0.4-0.7,0.6-1.5,0.5-2.2c0-0.1,0-0.4-0.3-0.6
				c-0.1-0.1-0.3-0.2-0.6-0.2c-0.6,0-1.2,0.3-1.5,0.8l0.8,0.5c0.1-0.2,0.3-0.3,0.6-0.3c0,0.5-0.1,1-0.4,1.4C17.2,4,17,4.2,16.8,4.5
				l-0.3,0.5L15.8,6.9z"/>
		</g>
	</g>
</g>
<g id="Layer_3" display="none">
	<polyline id="XMLID_7_" display="inline" fill="#FFFFFF" points="13,7 21.5,0 2.5,0 11.1,7 	"/>
	<g id="XMLID_1_" display="inline">
		<polygon id="XMLID_8_" fill="#FFFFFF" points="2.5,2 2.5,10.4 8.7,6.3 		"/>
		<path id="XMLID_9_" fill="#FFFFFF" d="M14.4,7L13,8h-1.9L9.6,7l-7,4.6c0.2,0.8,1,1.5,1.8,1.5h15.2c0.9,0,1.6-0.6,1.8-1.5L14.4,7z"
			/>
	</g>
	<polygon id="XMLID_10_" display="inline" fill="#FFFFFF" points="21.5,10.4 21.5,2 15.3,6.3 	"/>
</g>
</svg>
