<?xml version="1.0" encoding="utf-8"?>
<!-- Generator: Adobe Illustrator 19.1.0, SVG Export Plug-In . SVG Version: 6.00 Build 0)  -->
<svg version="1.1" id="Layer_1" xmlns="http://www.w3.org/2000/svg" xmlns:xlink="http://www.w3.org/1999/xlink" x="0px" y="0px"
	 viewBox="0 0 28 28" enable-background="new 0 0 28 28" xml:space="preserve">
<g>
	<path fill="#0071BB" d="M1.7,27.5c-0.6,0-1.2-0.5-1.2-1.2V1.7C0.5,1,1,0.5,1.7,0.5h24.7c0.6,0,1.2,0.5,1.2,1.2v24.7
		c0,0.6-0.5,1.2-1.2,1.2H1.7z"/>
	<path fill="#D2D2D2" d="M26.3,1C26.7,1,27,1.3,27,1.7v24.7c0,0.4-0.3,0.7-0.7,0.7H1.7C1.3,27,1,26.7,1,26.3V1.7C1,1.3,1.3,1,1.7,1
		H26.3 M26.3,0H1.7C0.7,0,0,0.7,0,1.7v24.7C0,27.3,0.7,28,1.7,28h24.7c0.9,0,1.7-0.7,1.7-1.7V1.7C28,0.7,27.3,0,26.3,0L26.3,0z"/>
</g>
<g>
	<path fill="#FFFFFF" d="M19,16H9c-1.1,0-2-0.9-2-2v0c0-1.1,0.9-2,2-2h10c1.1,0,2,0.9,2,2v0C21,15.1,20.1,16,19,16z"/>
	<path fill="#FFFFFF" d="M12,19V9c0-1.1,0.9-2,2-2h0c1.1,0,2,0.9,2,2v10c0,1.1-0.9,2-2,2h0C12.9,21,12,20.1,12,19z"/>
</g>
</svg>
