<?xml version="1.0" encoding="utf-8"?>
<!-- Generator: Adobe Illustrator 16.0.4, SVG Export Plug-In . SVG Version: 6.00 Build 0)  -->
<!DOCTYPE svg PUBLIC "-//W3C//DTD SVG 1.1//EN" "http://www.w3.org/Graphics/SVG/1.1/DTD/svg11.dtd">
<svg version="1.1" id="Layer_1" xmlns="http://www.w3.org/2000/svg" xmlns:xlink="http://www.w3.org/1999/xlink" x="0px" y="0px"
	 width="50px" height="27px" viewBox="0 0 50 27" enable-background="new 0 0 50 27" xml:space="preserve">
<g id="Layer_3">
</g>
<g id="Layer_2">
</g>
<g id="Isolation_Mode">
</g>
<g>
	<g>
		<rect x="24" y="9.5" fill="#F7931E" width="2" height="2"/>
	</g>
	<rect x="24" y="13" fill="#F7931E" width="2" height="9"/>
	<g>
		<path fill="#F7931E" d="M25,5.964c5.266,0,9.55,4.284,9.55,9.549c0,5.267-4.284,9.55-9.55,9.55c-5.265,0-9.549-4.283-9.549-9.55
			C15.451,10.248,19.735,5.964,25,5.964 M25,4.456c-6.107,0-11.059,4.95-11.059,11.057c0,6.108,4.952,11.062,11.059,11.062
			c6.107,0,11.059-4.953,11.059-11.062C36.059,9.406,31.107,4.456,25,4.456L25,4.456z"/>
	</g>
</g>
</svg>
