<?xml version="1.0" encoding="utf-8"?>
<!-- Generator: Adobe Illustrator 16.0.0, SVG Export Plug-In . SVG Version: 6.00 Build 0)  -->
<!DOCTYPE svg PUBLIC "-//W3C//DTD SVG 1.1//EN" "http://www.w3.org/Graphics/SVG/1.1/DTD/svg11.dtd">
<svg version="1.1" xmlns="http://www.w3.org/2000/svg" xmlns:xlink="http://www.w3.org/1999/xlink" x="0px" y="0px" width="50px"
	 height="27px" viewBox="0 0 50 27" enable-background="new 0 0 50 27" xml:space="preserve">
<g id="Layer_3">
</g>
<g id="Layer_2">
</g>
<g id="Isolation_Mode">
</g>
<g id="Layer_1">
	<g>
		<polygon fill="#B3B3B3" points="33,16 33,26 24.5,25 16,26 16,16 24.5,15 		"/>
		<polygon fill="#F7931E" points="16,26 16,16 24.5,17 33,16 33,26 24.5,27 		"/>
		<path fill="#F7931E" d="M29,15.896V9c0,0-0.275-3-4.5-3S20,9,20,9v3h-0.5l0.5,1v2h-2c0,0,0-4.714,0-6c0,0-0.235-5,6.5-5
			C31.234,4,31,9,31,9c0,1.286,0,7,0,7l-1.041,0.125L29,15.896z"/>
		<polyline fill="#666666" points="18.5,16 19.543,16.125 20.5,15.896 		"/>
	</g>
</g>
</svg>
