<?xml version="1.0" encoding="utf-8"?>
<!-- Generator: Adobe Illustrator 16.0.0, SVG Export Plug-In . SVG Version: 6.00 Build 0)  -->
<!DOCTYPE svg PUBLIC "-//W3C//DTD SVG 1.1//EN" "http://www.w3.org/Graphics/SVG/1.1/DTD/svg11.dtd">
<svg version="1.1" xmlns="http://www.w3.org/2000/svg" xmlns:xlink="http://www.w3.org/1999/xlink" x="0px" y="0px" width="50px"
	 height="27px" viewBox="0 0 50 27" enable-background="new 0 0 50 27" xml:space="preserve">
<g id="Layer_3">
</g>
<g id="Layer_2">
</g>
<g id="Isolation_Mode">
</g>
<g id="Layer_1">
	<g>
		<g>
			<path fill="#F7931E" d="M33.702,14.75l-0.039-0.807c0.46-0.171,0.895-0.36,1.337-0.571c-0.099-0.834-0.341-1.646-0.645-2.428
				c-0.479,0.035-0.975,0.098-1.453,0.177c-0.121-0.241-0.223-0.493-0.371-0.719c-0.146-0.227-0.268-0.471-0.437-0.68
				c0.303-0.374,0.596-0.764,0.875-1.168c-0.512-0.664-1.108-1.261-1.771-1.771c-0.406,0.279-0.795,0.571-1.168,0.875
				c-0.21-0.17-0.454-0.292-0.682-0.437c-0.225-0.149-0.478-0.25-0.718-0.372c0.078-0.478,0.142-0.973,0.177-1.453
				c-0.782-0.304-1.596-0.545-2.429-0.645c-0.211,0.444-0.399,0.878-0.571,1.338l-0.807-0.04l-0.809,0.04
				c-0.171-0.46-0.36-0.895-0.571-1.338c-0.833,0.1-1.646,0.341-2.428,0.646c0.035,0.479,0.099,0.975,0.176,1.452
				c-0.24,0.122-0.492,0.223-0.718,0.372c-0.228,0.145-0.472,0.267-0.681,0.437c-0.374-0.304-0.763-0.596-1.169-0.875
				c-0.663,0.511-1.26,1.108-1.771,1.771c0.279,0.405,0.572,0.794,0.876,1.168c-0.17,0.209-0.291,0.453-0.438,0.68
				c-0.148,0.226-0.25,0.479-0.371,0.719c-0.478-0.079-0.973-0.142-1.453-0.177c-0.304,0.782-0.546,1.594-0.645,2.428
				c0.443,0.211,0.878,0.4,1.338,0.571l-0.04,0.807l0.04,0.808c-0.46,0.171-0.895,0.359-1.338,0.571
				c0.099,0.833,0.341,1.647,0.645,2.428c0.48-0.034,0.976-0.098,1.453-0.177c0.121,0.241,0.223,0.494,0.371,0.72
				c0.146,0.227,0.268,0.47,0.438,0.681c-0.304,0.373-0.597,0.763-0.876,1.167c0.512,0.664,1.108,1.26,1.771,1.771
				c0.406-0.279,0.795-0.571,1.169-0.875c0.209,0.17,0.453,0.292,0.681,0.437c0.226,0.149,0.478,0.25,0.718,0.373
				c-0.077,0.477-0.141,0.972-0.176,1.452c0.782,0.304,1.595,0.546,2.428,0.645c0.211-0.444,0.4-0.878,0.571-1.338l0.809,0.04
				l0.807-0.04c0.172,0.46,0.36,0.895,0.571,1.338c0.833-0.099,1.646-0.341,2.429-0.645c-0.035-0.48-0.099-0.975-0.177-1.452
				c0.24-0.122,0.493-0.223,0.718-0.373c0.228-0.145,0.472-0.267,0.682-0.437c0.373,0.304,0.762,0.596,1.168,0.875
				c0.663-0.511,1.26-1.108,1.771-1.771c-0.279-0.405-0.572-0.795-0.875-1.167c0.169-0.21,0.29-0.454,0.437-0.681
				c0.148-0.227,0.25-0.479,0.371-0.72c0.479,0.079,0.974,0.143,1.453,0.177c0.304-0.781,0.546-1.595,0.645-2.428
				c-0.442-0.211-0.877-0.4-1.337-0.571L33.702,14.75z M27.448,18.997c-0.735,0.441-1.588,0.64-2.447,0.661
				c-0.861-0.021-1.713-0.22-2.449-0.661c-0.744-0.425-1.373-1.054-1.797-1.798c-0.442-0.737-0.641-1.588-0.662-2.449
				c0.021-0.86,0.22-1.711,0.662-2.448c0.424-0.744,1.053-1.373,1.797-1.797c0.736-0.442,1.588-0.64,2.449-0.662
				c0.859,0.022,1.712,0.22,2.447,0.661c0.744,0.425,1.373,1.054,1.798,1.797c0.442,0.737,0.64,1.588,0.661,2.449
				c-0.021,0.861-0.219,1.712-0.661,2.449C28.821,17.943,28.192,18.571,27.448,18.997z"/>
		</g>
	</g>
</g>
</svg>
