<?xml version="1.0" encoding="utf-8"?>
<!-- Generator: Adobe Illustrator 16.0.0, SVG Export Plug-In . SVG Version: 6.00 Build 0)  -->
<!DOCTYPE svg PUBLIC "-//W3C//DTD SVG 1.1//EN" "http://www.w3.org/Graphics/SVG/1.1/DTD/svg11.dtd">
<svg version="1.1" id="Layer_1" xmlns="http://www.w3.org/2000/svg" xmlns:xlink="http://www.w3.org/1999/xlink" x="0px" y="0px"
	 width="50px" height="27px" viewBox="0 0 50 27" enable-background="new 0 0 50 27" xml:space="preserve">
<g>
	<g>
		<path fill="#333333" d="M36,1c2.2,0,4,1.8,4,4v18c0,2.2-1.8,4-4,4H14c-2.2,0-4-1.8-4-4V5c0-2.2,1.8-4,4-4H36z"/>
	</g>
</g>
<g>
	<g>
		<polygon fill="#FFFFFF" points="33,20 32,21 18,21 17,20 17,19 18,20 32,20 33,19 		"/>
		<rect x="22" y="7" fill="#FFFFFF" width="6" height="1"/>
	</g>
	<polygon fill="#F7931E" points="35,11 32,11 32,8 30,8 30,11 29,11 27,11 27,13 30,13 30,16 32,16 32,14 32,13 35,13 	"/>
	<polygon fill="#FFFFFF" points="29,14 27,14 26,14 26,13 26,11 26,10 27,10 28,10 28,9 22,9 22,12 18,12 25,18.546 29,14.805 	"/>
</g>
<g>
	<path fill="#F7931E" d="M35,3c1.654,0,3,1.346,3,3v16c0,1.654-1.346,3-3,3H15c-1.654,0-3-1.346-3-3V6c0-1.654,1.346-3,3-3H35 M35,2
		H15c-2.2,0-4,1.8-4,4v16c0,2.2,1.8,4,4,4h20c2.2,0,4-1.8,4-4V6C39,3.8,37.2,2,35,2L35,2z"/>
</g>
</svg>
