<svg xmlns="http://www.w3.org/2000/svg" viewBox="0 0 22 27"><defs><style>.cls-1{fill:#fff;}</style></defs><g id="LiS2"><g id="Layer_1" data-name="Layer 1"><path class="cls-1" d="M19.7,13.6v-.8c.5-.2.9-.4,1.3-.6a10.55,10.55,0,0,0-.6-2.4,7.72,7.72,0,0,0-1.5.2,2.51,2.51,0,0,0-.4-.7c-.1-.2-.3-.5-.4-.7L19,7.4a7.69,7.69,0,0,0-1.8-1.8L16,6.5a2.51,2.51,0,0,0-.7-.4c-.2-.1-.5-.3-.7-.4.1-.5.1-1,.2-1.5a10.55,10.55,0,0,0-2.4-.6c-.2.4-.4.9-.6,1.3L11,4.8h-.8c-.2-.5-.4-.9-.6-1.3a10.55,10.55,0,0,0-2.4.6,7.72,7.72,0,0,0,.2,1.5,2.51,2.51,0,0,0-.7.4c-.2.1-.5.3-.7.4L4.8,5.5A7.69,7.69,0,0,0,3,7.3l.9,1.2a2.51,2.51,0,0,0-.4.7,2.51,2.51,0,0,1-.4.7c-.5-.1-1-.1-1.5-.2A10.55,10.55,0,0,0,1,12.1c.4.2.9.4,1.3.6v1.6c-.5.2-.9.4-1.3.6a10.55,10.55,0,0,0,.6,2.4,7.72,7.72,0,0,0,1.5-.2,2.51,2.51,0,0,0,.4.7c.1.2.3.5.4.7L3,19.7a7.69,7.69,0,0,0,1.8,1.8L6,20.6a2.51,2.51,0,0,0,.7.4,2.51,2.51,0,0,1,.7.4c-.1.5-.1,1-.2,1.5a10.55,10.55,0,0,0,2.4.6c.2-.4.4-.9.6-1.3h1.6c.2.5.4.9.6,1.3a10.55,10.55,0,0,0,2.4-.6,7.72,7.72,0,0,0-.2-1.5,2.51,2.51,0,0,0,.7-.4c.2-.1.5-.3.7-.4l1.2.9A7.69,7.69,0,0,0,19,19.7l-.9-1.2a2.51,2.51,0,0,0,.4-.7,2.51,2.51,0,0,1,.4-.7c.5.1,1,.1,1.5.2a10.55,10.55,0,0,0,.6-2.4c-.4-.2-.9-.4-1.3-.6Zm-6.3,4.2a6.65,6.65,0,0,1-2.4.7,4,4,0,0,1-2.4-.7A5.17,5.17,0,0,1,6.8,16a6.65,6.65,0,0,1-.7-2.4,4,4,0,0,1,.7-2.4A5.17,5.17,0,0,1,8.6,9.4,6.65,6.65,0,0,1,11,8.7a4,4,0,0,1,2.4.7,5.17,5.17,0,0,1,1.8,1.8,6.65,6.65,0,0,1,.7,2.4,4,4,0,0,1-.7,2.4A4.45,4.45,0,0,1,13.4,17.8Z"/></g><g id="Layer_1-2" data-name="Layer 1"><path class="cls-1" d="M19.7,13.6v-.8c.5-.2.9-.4,1.3-.6a10.55,10.55,0,0,0-.6-2.4,7.72,7.72,0,0,0-1.5.2,2.51,2.51,0,0,0-.4-.7c-.1-.2-.3-.5-.4-.7L19,7.4a7.69,7.69,0,0,0-1.8-1.8L16,6.5a2.51,2.51,0,0,0-.7-.4c-.2-.1-.5-.3-.7-.4.1-.5.1-1,.2-1.5a10.55,10.55,0,0,0-2.4-.6c-.2.4-.4.9-.6,1.3L11,4.8h-.8c-.2-.5-.4-.9-.6-1.3a10.55,10.55,0,0,0-2.4.6,7.72,7.72,0,0,0,.2,1.5,2.51,2.51,0,0,0-.7.4c-.2.1-.5.3-.7.4L4.8,5.5A7.69,7.69,0,0,0,3,7.3l.9,1.2a2.51,2.51,0,0,0-.4.7,2.51,2.51,0,0,1-.4.7c-.5-.1-1-.1-1.5-.2A10.55,10.55,0,0,0,1,12.1c.4.2.9.4,1.3.6v1.6c-.5.2-.9.4-1.3.6a10.55,10.55,0,0,0,.6,2.4,7.72,7.72,0,0,0,1.5-.2,2.51,2.51,0,0,0,.4.7c.1.2.3.5.4.7L3,19.7a7.69,7.69,0,0,0,1.8,1.8L6,20.6a2.51,2.51,0,0,0,.7.4,2.51,2.51,0,0,1,.7.4c-.1.5-.1,1-.2,1.5a10.55,10.55,0,0,0,2.4.6c.2-.4.4-.9.6-1.3h1.6c.2.5.4.9.6,1.3a10.55,10.55,0,0,0,2.4-.6,7.72,7.72,0,0,0-.2-1.5,2.51,2.51,0,0,0,.7-.4c.2-.1.5-.3.7-.4l1.2.9A7.69,7.69,0,0,0,19,19.7l-.9-1.2a2.51,2.51,0,0,0,.4-.7,2.51,2.51,0,0,1,.4-.7c.5.1,1,.1,1.5.2a10.55,10.55,0,0,0,.6-2.4c-.4-.2-.9-.4-1.3-.6Zm-6.3,4.2a6.65,6.65,0,0,1-2.4.7,4,4,0,0,1-2.4-.7A5.17,5.17,0,0,1,6.8,16a6.65,6.65,0,0,1-.7-2.4,4,4,0,0,1,.7-2.4A5.17,5.17,0,0,1,8.6,9.4,6.65,6.65,0,0,1,11,8.7a4,4,0,0,1,2.4.7,5.17,5.17,0,0,1,1.8,1.8,6.65,6.65,0,0,1,.7,2.4,4,4,0,0,1-.7,2.4A4.45,4.45,0,0,1,13.4,17.8Z"/></g><g id="Layer_1-3" data-name="Layer 1"><path class="cls-1" d="M19.7,13.6v-.8c.5-.2.9-.4,1.3-.6a10.55,10.55,0,0,0-.6-2.4,7.72,7.72,0,0,0-1.5.2,2.51,2.51,0,0,0-.4-.7c-.1-.2-.3-.5-.4-.7L19,7.4a7.69,7.69,0,0,0-1.8-1.8L16,6.5a2.51,2.51,0,0,0-.7-.4c-.2-.1-.5-.3-.7-.4.1-.5.1-1,.2-1.5a10.55,10.55,0,0,0-2.4-.6c-.2.4-.4.9-.6,1.3L11,4.8h-.8c-.2-.5-.4-.9-.6-1.3a10.55,10.55,0,0,0-2.4.6,7.72,7.72,0,0,0,.2,1.5,2.51,2.51,0,0,0-.7.4c-.2.1-.5.3-.7.4L4.8,5.5A7.69,7.69,0,0,0,3,7.3l.9,1.2a2.51,2.51,0,0,0-.4.7,2.51,2.51,0,0,1-.4.7c-.5-.1-1-.1-1.5-.2A10.55,10.55,0,0,0,1,12.1c.4.2.9.4,1.3.6v1.6c-.5.2-.9.4-1.3.6a10.55,10.55,0,0,0,.6,2.4,7.72,7.72,0,0,0,1.5-.2,2.51,2.51,0,0,0,.4.7c.1.2.3.5.4.7L3,19.7a7.69,7.69,0,0,0,1.8,1.8L6,20.6a2.51,2.51,0,0,0,.7.4,2.51,2.51,0,0,1,.7.4c-.1.5-.1,1-.2,1.5a10.55,10.55,0,0,0,2.4.6c.2-.4.4-.9.6-1.3h1.6c.2.5.4.9.6,1.3a10.55,10.55,0,0,0,2.4-.6,7.72,7.72,0,0,0-.2-1.5,2.51,2.51,0,0,0,.7-.4c.2-.1.5-.3.7-.4l1.2.9A7.69,7.69,0,0,0,19,19.7l-.9-1.2a2.51,2.51,0,0,0,.4-.7,2.51,2.51,0,0,1,.4-.7c.5.1,1,.1,1.5.2a10.55,10.55,0,0,0,.6-2.4c-.4-.2-.9-.4-1.3-.6Zm-6.3,4.2a6.65,6.65,0,0,1-2.4.7,4,4,0,0,1-2.4-.7A5.17,5.17,0,0,1,6.8,16a6.65,6.65,0,0,1-.7-2.4,4,4,0,0,1,.7-2.4A5.17,5.17,0,0,1,8.6,9.4,6.65,6.65,0,0,1,11,8.7a4,4,0,0,1,2.4.7,5.17,5.17,0,0,1,1.8,1.8,6.65,6.65,0,0,1,.7,2.4,4,4,0,0,1-.7,2.4A4.45,4.45,0,0,1,13.4,17.8Z"/></g></g></svg>