<svg xmlns="http://www.w3.org/2000/svg" xmlns:xlink="http://www.w3.org/1999/xlink" viewBox="0 0 372 56"><defs><style>.cls-1{fill:none;clip-rule:evenodd;}.cls-2{clip-path:url(#clip-path);}.cls-3,.cls-4,.cls-5,.cls-6{fill-rule:evenodd;}.cls-3{fill:url(#New_Gradient_Swatch_2);}.cls-4{fill:url(#New_Gradient_Swatch_1);}.cls-5{fill:#fff;}.cls-6{fill:url(#New_Gradient_Swatch_3);}</style><clipPath id="clip-path"><polygon class="cls-1" points="1 0 371 0 316 55 13 55 1 42 1 0"/></clipPath><radialGradient id="New_Gradient_Swatch_2" cx="269.78" cy="94.58" fy="106.9338794458576" r="301.81" gradientTransform="matrix(0.94, -0.35, 0.2, 0.52, -5.11, 130.03)" gradientUnits="userSpaceOnUse"><stop offset="0.47" stop-color="#060011"/><stop offset="0.59" stop-color="#160b27"/><stop offset="0.86" stop-color="#382255"/><stop offset="1" stop-color="#452b67"/></radialGradient><radialGradient id="New_Gradient_Swatch_1" cx="379.94" cy="142.05" fx="326.7406407161086" fy="78.1213066098367" r="369.47" gradientTransform="matrix(0.85, -0.53, 0.36, 0.57, 3.34, 252.38)" gradientUnits="userSpaceOnUse"><stop offset="0" stop-color="#9b1b18"/><stop offset="0.19" stop-color="#981b19" stop-opacity="0.84"/><stop offset="0.6" stop-color="#90191b" stop-opacity="0.43"/><stop offset="1" stop-color="#88181e" stop-opacity="0"/></radialGradient><radialGradient id="New_Gradient_Swatch_3" cx="56.98" cy="10.46" fx="40.70755325734167" r="164.23" gradientTransform="translate(-0.1 9.81) rotate(-2.84) scale(1 0.33)" gradientUnits="userSpaceOnUse"><stop offset="0" stop-color="#cf4018"/><stop offset="0.12" stop-color="#d0431a"/><stop offset="0.23" stop-color="#d44e1f"/><stop offset="0.32" stop-color="#d96028"/><stop offset="0.42" stop-color="#e17835"/><stop offset="0.51" stop-color="#ec9945"/><stop offset="0.6" stop-color="#f9bf59"/><stop offset="0.62" stop-color="#fcca5e"/><stop offset="0.65" stop-color="#fcd071"/><stop offset="0.77" stop-color="#fde4ad"/><stop offset="0.87" stop-color="#fef3da"/><stop offset="0.95" stop-color="#fffcf5"/><stop offset="1" stop-color="#fff"/></radialGradient></defs><title>Asset 7</title><g id="Layer_2" data-name="Layer 2"><g id="Layer_1-2" data-name="Layer 1"><g class="cls-2"><path class="cls-3" d="M372,0V56H0V0Z"/><path class="cls-4" d="M372,0V56H26V0Z"/></g><path class="cls-5" d="M221.43,18c-.27,2.13-.76,5.38-1.5,8.68-.81,3.58-1.9,7.2-2.62,9.45l-3,2.3a64.13,64.13,0,0,1-7.89.56,85.26,85.26,0,0,1-8.92-.56l-1.91-2.25c.28-2.26.8-5.94,1.61-9.56C198,23.36,199,20.13,199.7,18l3.1-2.45a64.14,64.14,0,0,1,7.89-.56,79,79,0,0,1,8.72.56ZM210,20.12c-2,0-4.06.14-5.62.27-.58,1.87-1.21,4.1-1.71,6.35-.54,2.41-1,4.84-1.25,6.85,1.56.14,3.66.29,5.8.29,2,0,4-.13,5.49-.26.61-2.06,1.31-4.57,1.87-7,.49-2.19.87-4.35,1.15-6.17C214.14,20.26,212.07,20.12,210,20.12Zm-21.06,3.29c.2-1.06.36-2.08.5-3-1.55-.14-3.63-.28-5.73-.28s-4.06.14-5.62.27c-.58,1.87-1.21,4.1-1.71,6.35-.54,2.41-1,4.84-1.25,6.85,1.56.14,3.67.29,5.8.29,2,0,4-.13,5.49-.26.27-.9.55-1.88.83-2.91l4.94,1.67c-.16.57-.32,1.11-.48,1.62l-3.62,4.45a64.13,64.13,0,0,1-7.89.56c-6.84,0-9-.58-9-.58l-1.87-2.22c.28-2.26.8-5.93,1.61-9.56.74-3.27,1.74-6.51,2.45-8.62l3.1-2.45a64.14,64.14,0,0,1,7.89-.56,79,79,0,0,1,8.72.56l2,2.44c-.11.84-.25,1.85-.42,3ZM164.84,35.89l-3.1,2.49h-2.83l4.26-20.59,2.92-2.4h3Zm-10.31.19-3,2.32-13.86,0,4.26-20.59,2.93-2.41h3l-3.7,17.89h11.09Zm-21-.15,0,0-3,2.49h-2.83l.7-3.37-5.83-3.91-5.93,7.28h-5.41l18.72-23h5.42l2,2.54Zm-2.42-15.42-5.53,6.79,3.8,2.55,1.93-9.34Zm-21.38,2.91c.2-1.07.36-2.09.51-3-1.55-.14-3.63-.28-5.73-.28s-4.06.14-5.62.27c-.58,1.87-1.21,4.1-1.71,6.35-.54,2.41-1,4.84-1.25,6.85,1.56.14,3.67.29,5.8.29,2,0,4-.13,5.49-.26.27-.9.55-1.88.83-2.91l5,1.6c-.17.59-.34,1.16-.5,1.69l-3.42,4.45A69.8,69.8,0,0,1,101,39a88.53,88.53,0,0,1-9-.56l-1.8-2.25c.28-2.26.8-5.93,1.61-9.56.74-3.27,1.74-6.51,2.45-8.62l3-2.45a66.94,66.94,0,0,1,8-.56,79,79,0,0,1,8.72.56L116,18c-.11.85-.25,1.89-.43,3Z"/><path class="cls-6" d="M78.29,16l-1.39.85-.74,0,.2-.82L77.64,15l1.05-.08Zm-11,26.74-1-1.43.42-1.3.71-.36.89,1L68,42.1ZM72,24.91l-.24-.6,2.15-1.82h1.06l-.07,1L73.09,24.9Zm3-6.13L74.63,20l-2.16,2-.81-.08-1.6,1.89L70.33,25l1,.23-.14.74-2.74,2,1.06.25-.18,1-1.4,1,0,.52,3-1.54.82.45-.5.82-3.63,2,.59.42-.16.72,1.25-.15.43-.62L72.5,31.5l1.11.4-.59.77L71.89,33l-3.28,1.31L66.5,35.76l-1.6,3.16,1.05.23-.48,2.2,1.64,2.41.16.15.74-.67.72.78L69,46.24l1.1,1,1.26,1.71,2.29.31,1.29,1-.61,1.63-2.89,0h0l-1.76-.35-1.57-1.36-4-2.55-.4-.69.75-.48-3-3.43-.53-2.7,1-.06,0-2L64,35.76l-1.32.13-5,2.78-2.38.17-.57-.55-1.61,1.28-6,1.24-.3,3.54.69,1.82-.38.8,1,1.14.31.69,1.67,1.45-1,1.63-3.34-.09-1.67-1.45-.9-1.9-.69-3.69-.74-5.56.8-.95h.19l2.06.49-.05-2.35-1-1.1,0-2.85.67-.79.89.4.19-2.62,1.1-.74L47.44,30,46.28,39.2l.94-.18.64-3.39,1.06,1L50,36.34l.62,1.12h0l1.17-.31,1.72-1.49-.34-1.25,2.58-2.33,1.45-.26,1.9-1.54,1.23-.18-.1.88-1.41,1.07,1.09.4s1.77-1.4,2.45-2.11c-.22,0-.79,0-1-.05l.21-.75.89-.73c.24,0,.92-.07,1.59-.15C65.74,26.77,69.59,23,69.59,23l5.06-5.46,1-.08-.09,1Zm-4.54-2.47-.19-.78L71.55,14l1-.14L72.37,15Zm-1-10-1.53.14.31-.86,1.69-2.9L71,2.49,70.8,5Zm-1,4.21,1.26-2,.72.28L70,11l-.87.61-.21,1s.33,1.39.47,1.94l0,0-.72,2.68,1.54-.3.28,1.15L69.19,20l-.35.07-.21,1.62-1.91,3.11-2.4.84L62.52,27l-1.75.52-2.53-.76-1.18-1.64.08-1.69-1.62-3.27.59-2.9-.49-1.52.59-1.2L55.1,12.88s-.29-1.1-.42-1.65l1.19-.48a23,23,0,0,1-.31-2.41l-1-1L54,4.94l.46-1.36,1,1L56,7l0,.11.28,1,.43-.58.69,1L57.3,9.9l1.93,3.82a11,11,0,0,0,2.09,0,1.9,1.9,0,0,0,.82-.51l2,.78c.78-1.54,1.5-2.88,2.14-4.26a5.45,5.45,0,0,0,.25-1.39l1.17-.6L67.57,9Zm-14.52,0-.09-.06L52.31,9.39l.07-1,1.33.37.93,1.33ZM49.94,30.26l.7-.33.16.93-.9,3.65-.05.23-1.14.55-.62-.66L48.3,32l1.34-.45Zm3.77-12.58h0l1.2,2.13-.2,2-2.21-.54-1.3-1.45L50,20.3l-.18.69-1.55,0h-.21l-.77-.65-1-.68-1.71.4,2.28,1.4h0l2,2.22-.08.94-1-.11-.62-.69-2,.54-1.77-1.69L39.55,21l-4.19.2-5.05,2.35L30,22.61l-.66.3-.68.33-.61,1.3-2.7.46-.34.55-2.81.69-.75-.52.66-.87,1.22-.38.19-.47-6.19.23L16,23.54l-.82.48-1.69.09-.68-1,1.33-.68,1.47.22.84-.61-1.49-1.31-2.08-.49-.68-1.84.84-.91L11.9,16l-.4-2.38-1.09-1.2,0-4.72,1.3-1.13,1.06,1.07,1-2.57,1-.75,1.09.11L14.14,9.5l.2,5.6,4.25,5.64,7.27,1.15,5-1.8,3.61-2.68,7.75-1.36-1.73-1.45,1.8-1.17h0l0,0,3.32.33.2.47,3,.66.09,0,4.69,2.68Zm-16.52-3-1-.61.6-.42,2.6-.63.83.49-1.5,1ZM11.33,4.94l.13-1.77L12.7,2l.57,1.15L12.17,5.79Zm.52,12.4-.58.73-1.1-.51L9,16l.31-1.23,1.23.29ZM23.09,31.88l.56,1.75.63-.29.53.71,2.88-1.43-.21-2.85,1.74-3.48,1.27-.64.31,1.58,1.62-.76,1.07-2.83,2.41-.91,2.3,1-.13-1,.67-.21,2.54,1.16v1.05L40.19,27.2l.68.49-3.44,2.59-1.73.27-.32-1.06.83-1.35-.68-.94-2.43,2.68L34,31.64l-1.11,1.84,2,0,2.41-2-.09,1.8L32.6,37.9l-4.38.59-2.3-.38-.32,1-.94-.27.73,4.45,2,.72.6,3.21,1.42,1.23L31,49l.78,1.51-1,1.5-3.34-.09-1.59-.78-1.3-2.26L23,45.11V44l1,.33-.4-1.76L23,42.37l-1.52-7.49.64-2.13Zm19.77-6.3v1l-1.11.65-.55-.54.61-1.19Z"/></g></g></svg>