<svg xmlns="http://www.w3.org/2000/svg" viewBox="0 0 24 27"><defs><style>.cls-1{fill:#fff;}</style></defs><g id="LiS2"><path class="cls-1" d="M23.5,12.8h-3A8.49,8.49,0,0,0,12.8,5V2H11.3V5A8.48,8.48,0,0,0,3.54,12.8H.5v1.5h3A8.49,8.49,0,0,0,11.3,22v3h1.5V22a8.51,8.51,0,0,0,7.66-7.66h3Zm-4,0h-3A4.5,4.5,0,0,0,12.8,9.08V6A7.52,7.52,0,0,1,19.46,12.8ZM15.4,14.3a3.48,3.48,0,0,1-2.6,2.6V15H11.3v1.93A3.51,3.51,0,0,1,8.6,14.3h1.9V12.8H8.57a3.51,3.51,0,0,1,2.73-2.73V12h1.5V10.1a3.51,3.51,0,0,1,2.63,2.7H13.5v1.5ZM11.3,6v3A4.48,4.48,0,0,0,7.57,12.8h-3A7.49,7.49,0,0,1,11.3,6ZM4.54,14.3h3a4.5,4.5,0,0,0,3.72,3.63v3A7.52,7.52,0,0,1,4.54,14.3ZM12.8,21v-3a4.49,4.49,0,0,0,3.62-3.62h3A7.53,7.53,0,0,1,12.8,21Z"/></g></svg>