<svg xmlns="http://www.w3.org/2000/svg" viewBox="0 0 24 27"><defs><style>.cls-1{fill:#fff;}</style></defs><g id="LiS2"><path class="cls-1" d="M19,2.5H5l-5,5v17H24V7.5ZM9,6.5h6v1H9Zm0,5v-3h6v1H13v4h3v.8L12,18,5,11.5Zm11,8-1,1H5l-1-1v-1l1,1H19l1-1Zm2-7H19v3H17v-3H14v-2h3v-3h2v3h3Z"/><path class="cls-1" d="M19,2.5H5l-5,5v17H24V7.5ZM9,6.5h6v1H9Zm0,5v-3h6v1H13v4h3v.8L12,18,5,11.5Zm11,8-1,1H5l-1-1v-1l1,1H19l1-1Zm2-7H19v3H17v-3H14v-2h3v-3h2v3h3Z"/><path class="cls-1" d="M19,2.5H5l-5,5v17H24V7.5ZM9,6.5h6v1H9Zm0,5v-3h6v1H13v4h3v.8L12,18,5,11.5Zm11,8-1,1H5l-1-1v-1l1,1H19l1-1Zm2-7H19v3H17v-3H14v-2h3v-3h2v3h3Z"/></g></svg>