<svg xmlns="http://www.w3.org/2000/svg" viewBox="0 0 20 27"><defs><style>.cls-1{fill:#fff;}</style></defs><g id="LiS2"><polygon class="cls-1" points="19 11.5 12 11.5 12 4.5 8 4.5 8 11.5 1 11.5 1 15.5 8 15.5 8 22.5 12 22.5 12 15.5 19 15.5 19 11.5"/><polygon class="cls-1" points="19 11.5 12 11.5 12 4.5 8 4.5 8 11.5 1 11.5 1 15.5 8 15.5 8 22.5 12 22.5 12 15.5 19 15.5 19 11.5"/><polygon class="cls-1" points="19 11.5 12 11.5 12 4.5 8 4.5 8 11.5 1 11.5 1 15.5 8 15.5 8 22.5 12 22.5 12 15.5 19 15.5 19 11.5"/></g></svg>