<svg xmlns="http://www.w3.org/2000/svg" viewBox="0 0 50 27"><defs><style>.cls-1{fill:#fff;}</style></defs><g id="LiS2"><path class="cls-1" d="M33.3,7.8A1.8,1.8,0,1,1,35.1,6,1.79,1.79,0,0,1,33.3,7.8Zm0-3.2a1.3,1.3,0,1,0,1.3,1.3A1.32,1.32,0,0,0,33.3,4.6Zm-5.4,8.7A2.24,2.24,0,0,1,26,12.1v-.3a.37.37,0,0,1,.3-.1l1.1.4a.92.92,0,0,0,1.4-.8.89.89,0,0,0-.5-.8l-1.2-.6c-.1,0-.1-.1-.1-.2a.22.22,0,0,1,.2-.2,1.7,1.7,0,0,1,.7-.1,2,2,0,0,1,2,2A1.92,1.92,0,0,1,27.9,13.3Zm-.9-.8a1.69,1.69,0,0,0,1,.3,1.54,1.54,0,0,0,1.5-1.5,1.51,1.51,0,0,0-1.2-1.5l.4.2a1.44,1.44,0,0,1,.8,1.3,1.37,1.37,0,0,1-1.4,1.4,1.85,1.85,0,0,1-.7-.2ZM14.6,8a2,2,0,0,1,0-4,2.24,2.24,0,0,1,1.9,1.2v.3a.37.37,0,0,1-.3.1l-1.1-.4a.94.94,0,0,0-1.4.8.89.89,0,0,0,.5.8l1.2.6c.1,0,.1.1.1.2a.22.22,0,0,1-.2.2A1.45,1.45,0,0,1,14.6,8Zm0-3.6a1.54,1.54,0,0,0-1.5,1.5,1.51,1.51,0,0,0,1.2,1.5l-.4-.2A1.39,1.39,0,0,1,13.2,6a1.62,1.62,0,0,1,1.4-1.6c.2.1.4.1.6.2l.3.1A1.9,1.9,0,0,0,14.6,4.4Zm18.7,4A2.43,2.43,0,0,1,30.9,6a2.4,2.4,0,0,1,4.8,0A2.43,2.43,0,0,1,33.3,8.4Zm0-4.3A2,2,0,0,0,31.4,6a1.9,1.9,0,0,0,3.8,0A2,2,0,0,0,33.3,4.1Zm-5.4,9.7a2.58,2.58,0,0,1-2.5-1.9L16,8.2a3.26,3.26,0,0,1-1.3.4A2.65,2.65,0,0,1,12.1,6a2.65,2.65,0,0,1,2.6-2.6,2.58,2.58,0,0,1,2.5,1.9L26.6,9a2.28,2.28,0,0,1,1.1-.3l1.9-2.8a3.6,3.6,0,0,1,7.2.1,3.7,3.7,0,0,1-3.5,3.6l-2.9,1.9A2.38,2.38,0,0,1,27.9,13.8ZM16,7.7h0l9.8,3.8c.1,0,.1.1.2.2a2,2,0,0,0,2,1.7,2.11,2.11,0,0,0,2.1-2.1c0-.1,0-.2.1-.2l3-2h.1a3.1,3.1,0,0,0-.1-6.2,3,3,0,0,0-3,3.1v.1l-2,3c0,.1-.1.1-.2.1a2,2,0,0,0-1.1.3c-.1,0-.2.1-.2,0L17,5.7c-.1,0-.1-.1-.2-.2a2.07,2.07,0,0,0-4.1.4A2.05,2.05,0,0,0,14.8,8,1.92,1.92,0,0,0,16,7.6C15.9,7.7,15.9,7.7,16,7.7ZM46.2-8.6m-18.5,20L3,.4V.5l24.6,11Zm18.6-20-.1-.1L24.3,15h.1ZM27.7-3.4A14.64,14.64,0,0,1,37.8.6l.1-.1A14.9,14.9,0,0,0,14.1,5.4h0A14.8,14.8,0,0,1,27.7-3.4ZM39.2,6.7,35.5,3.2h-.1l3.7,3.6ZM29.9,16.8l-3.7-3.6-.1.1,3.7,3.5ZM38.4,6.4h-.1l-8.7,9.7v.1Zm.2-.2h-.5l.5.5ZM29.9,16.4l-.5-.5v.5Zm-26-.3a.76.76,0,0,0-.2-.5c-.1,0-.1-.1-.2-.1a.37.37,0,0,0-.3-.1H3a.35.35,0,0,1-.2-.1c-.1-.1-.1-.1-.1-.2s-.1,0,0-.1a.37.37,0,0,1,.3-.1h.3c.1,0,.1,0,.2.1l.2-.3c-.1-.1-.2-.2-.3-.2s-.2-.1-.4-.1a.85.85,0,0,0-.6.2.6.6,0,0,0,0,.9.52.52,0,0,0,.4.2H3a.35.35,0,0,1,.2.1c.1.1.1.1.1.2s-.1.3-.4.3H2.6c-.1,0-.1,0-.2-.1l-.3.3a.76.76,0,0,0,.4.2.9.9,0,0,0,.5.1,1.42,1.42,0,0,0,.6-.2A.55.55,0,0,0,3.9,16.1Zm2.4-1.2v-.4H4.7v.4h.6v1.9h.4V14.9Zm2.5,1.9v-.4H7.7v-.6h.9v-.4H7.7v-.5h1v-.4H7.2v2.3Zm2.2,0-.1-.4h-.8l-.1.4H9.4l.8-2.3h.3l.8,2.3Zm-.5-1.7-.3.9h.6Zm3.9,1.7V14.5H14l-.6,1.2-.6-1.2h-.4v2.3h.4V15.5l.4.9h.3l.4-.9v1.3ZM9,17.5H7.6l-.7,2.9L6,17.5H5.1l-.9,2.9-.7-2.9H2.1l1.5,5.4H4.7l.9-2.7.9,2.7H7.6Zm4.9,4a1.37,1.37,0,0,1-.5.8,1.79,1.79,0,0,1-.7.5,1.7,1.7,0,0,1-1.6,0,3,3,0,0,1-.7-.5,2.18,2.18,0,0,1-.5-.8,4.89,4.89,0,0,1-.1-1.3,4.89,4.89,0,0,1,.1-1.3,1.37,1.37,0,0,1,.5-.8,1.79,1.79,0,0,1,.7-.5,1.7,1.7,0,0,1,1.6,0,3,3,0,0,1,.7.5,2.18,2.18,0,0,1,.5.8,4.89,4.89,0,0,1,.1,1.3C14,20.7,13.9,21.2,13.9,21.5Zm-1.3-2v-.4c0-.1,0-.2-.1-.2a.1.1,0,0,0-.1-.1l-.2-.2c-.1,0-.2-.1-.3-.1a.37.37,0,0,0-.3.1.22.22,0,0,0-.2.2l-.1.1c0,.1,0,.1-.1.2v2c0,.1,0,.2.1.2a.1.1,0,0,0,.1.1l.2.2c.1,0,.2.1.3.1a.37.37,0,0,0,.3-.1.22.22,0,0,0,.2-.2l.1-.1c0-.1,0-.1.1-.2V19.5Zm5.5,3.4-1-2h-.5v2H15.3V17.5h2.2a2,2,0,0,1,.8.1,1.84,1.84,0,0,1,1,1,1.48,1.48,0,0,1,.1.7,1.61,1.61,0,0,1-.3.9,2.65,2.65,0,0,1-.6.5L19.7,23H18.1Zm-.2-4.1a.52.52,0,0,0-.4-.2h-.8v1.1h.8a.71.71,0,0,0,.6-.6C18,19,18,18.9,17.9,18.8Zm7.3,4.1-1.9-3.2,1.9-2.2H23.6L22,19.4V17.5H20.7v5.4H22V21.2l.5-.5,1.3,2.2Zm4.7-1.6a1.59,1.59,0,0,0-.4-1.2,1.88,1.88,0,0,0-1.1-.5l-.4-.1h-.3c-.2-.1-.3-.1-.4-.2a.37.37,0,0,1-.1-.3.52.52,0,0,1,.2-.4.76.76,0,0,1,.5-.2c.2,0,.4.1.6.1a2.19,2.19,0,0,1,.5.3l.8-.8a2.18,2.18,0,0,0-.8-.5,3,3,0,0,0-1-.2,2.17,2.17,0,0,0-1.4.5,1.66,1.66,0,0,0-.5,1.2,1.82,1.82,0,0,0,.4,1.1,1.88,1.88,0,0,0,1.1.5h.6c.2,0,.3,0,.4.1a.37.37,0,0,1,.1.3c0,.3-.3.5-.8.5a1.48,1.48,0,0,1-.7-.1,2.19,2.19,0,0,1-.5-.3l-.9.9a2.36,2.36,0,0,0,.9.6,5,5,0,0,0,1.2.2c.3,0,.5-.1.8-.1a1.49,1.49,0,0,0,.7-.3,1.21,1.21,0,0,0,.5-.5C30,21.7,30.1,21.5,29.9,21.3Zm5.6,1.6V17.5H34.2v2.1H32.8V17.5H31.5v5.4h1.3V20.7h1.4v2.2ZM41,21.5a1.37,1.37,0,0,1-.5.8,1.79,1.79,0,0,1-.7.5,1.7,1.7,0,0,1-1.6,0,3,3,0,0,1-.7-.5,2.18,2.18,0,0,1-.5-.8,4.89,4.89,0,0,1-.1-1.3,4.89,4.89,0,0,1,.1-1.3,1.37,1.37,0,0,1,.5-.8,1.79,1.79,0,0,1,.7-.5,1.7,1.7,0,0,1,1.6,0,3,3,0,0,1,.7.5,2.18,2.18,0,0,1,.5.8,4.89,4.89,0,0,1,.1,1.3C41.1,20.7,41,21.2,41,21.5Zm-1.3-2v-.4c0-.1,0-.2-.1-.2a.1.1,0,0,0-.1-.1l-.2-.2c-.1,0-.2-.1-.3-.1a.37.37,0,0,0-.3.1.22.22,0,0,0-.2.2l-.1.1c0,.1,0,.1-.1.2v2c0,.1,0,.2.1.2a.1.1,0,0,0,.1.1l.2.2c.1,0,.2.1.3.1a.37.37,0,0,0,.3-.1.22.22,0,0,0,.2-.2l.1-.1c0-.1,0-.1.1-.2V19.5Zm6.6.3a1.84,1.84,0,0,1-1,1,2,2,0,0,1-.8.1h-.8v1.9H42.4V17.4h2.2a2,2,0,0,1,.8.1,1.84,1.84,0,0,1,1,1,1.48,1.48,0,0,1,.1.7A1.42,1.42,0,0,1,46.3,19.8Zm-1.3-1a.52.52,0,0,0-.4-.2h-.8v1.1h.8a.71.71,0,0,0,.6-.6C45.1,19,45.1,18.9,45,18.8ZM1.9,25.7H2V11.6H1.9Zm12.6-8.9h.1V11.6h-.1ZM2.3,12.9h12v-.1H2.3ZM2,12.8l.3.4v-.7Zm12.2-.3v.7l.3-.4ZM2.3,24.8H46.4v-.1H2.3ZM2,24.7l.3.3v-.6Zm44.3-.3V25l.3-.3Zm.4,1.3h.1V14.4h-.1Zm-3.3-2.6h6.1V23H43.4ZM1.8,14.3H49.5v-.1H1.8Zm46.3,8.5h.1V14.5h-.1Zm0-8.6-.3.4h.6Zm.3,8.5h-.6l.3.4Z"/></g></svg>