<svg xmlns="http://www.w3.org/2000/svg" viewBox="0 0 20 16"><defs><style>.cls-1{fill:#fff;}</style></defs><g id="LiS2"><path class="cls-1" d="M13.4,14.9a6.68,6.68,0,0,1-2,.6,3.45,3.45,0,0,1-1.3.3c-.5,0-1-.1-1.4-.1A7.76,7.76,0,0,1,2.35,8.93L.7,8.9c-.4,0-.5-.3-.3-.6L3.5,3.7a.38.38,0,0,1,.7,0l3,4.6c.2.5.1.7-.3.7L5.53,9A4.7,4.7,0,0,0,9.3,12.6a3.79,3.79,0,0,0,1.5,0Zm5.9-7.8-1.64,0A7.65,7.65,0,0,0,11.3.3c-.4,0-.9-.1-1.4-.1A6.88,6.88,0,0,0,8.6.4a6.68,6.68,0,0,0-2,.6L9.2,3.3a3.79,3.79,0,0,1,1.5,0A4.69,4.69,0,0,1,14.49,7L13.1,7c-.4,0-.5.2-.3.7l3,4.6a.38.38,0,0,0,.7,0l3.1-4.6C19.8,7.4,19.7,7.1,19.3,7.1Z"/></g></svg>