<svg xmlns="http://www.w3.org/2000/svg" viewBox="0 0 26 27"><defs><style>.cls-1{fill:#fff;}</style></defs><g id="LiS2"><path class="cls-1" d="M14,4.7c-6.24,0-11.3,3.94-11.3,8.8a7.08,7.08,0,0,0,.74,3.11A10.71,10.71,0,0,1,.75,20c.64.64,2.78.17,4.91-.54A12.89,12.89,0,0,0,14,22.3c6.24,0,11.3-3.94,11.3-8.8S20.19,4.7,14,4.7Z"/><path class="cls-1" d="M14,4.7c-6.24,0-11.3,3.94-11.3,8.8a7.08,7.08,0,0,0,.74,3.11A10.71,10.71,0,0,1,.75,20c.64.64,2.78.17,4.91-.54A12.89,12.89,0,0,0,14,22.3c6.24,0,11.3-3.94,11.3-8.8S20.19,4.7,14,4.7Z"/><path class="cls-1" d="M14,4.7c-6.24,0-11.3,3.94-11.3,8.8a7.08,7.08,0,0,0,.74,3.11A10.71,10.71,0,0,1,.75,20c.64.64,2.78.17,4.91-.54A12.89,12.89,0,0,0,14,22.3c6.24,0,11.3-3.94,11.3-8.8S20.19,4.7,14,4.7Z"/></g></svg>