<svg xmlns="http://www.w3.org/2000/svg" viewBox="0 0 30 27"><defs><style>.cls-1{fill:#fff;}</style></defs><g id="LiS2"><path class="cls-1" d="M26.1,5.55C21.9,3.35,19.8,7,19.8,7H10.2s-2.1-3.6-6.3-1.4c-3,1.6-5,16.4-2.1,16.6s5.6-6.5,5.6-6.5S10.2,21,14,16h2c3.8,5,6.6-.4,6.6-.4s2.7,6.7,5.6,6.5S29.1,7.15,26.1,5.55ZM8,11v1H7V11H6V10H7V9H8v1H9v1Zm2.8,5.7a1.9,1.9,0,0,1-1.9-1.9,2,2,0,0,1,1.9-1.9,1.9,1.9,0,0,1,0,3.8ZM14,10H12V9h2Zm2,0V9h2v1Zm3.2,6.7a1.9,1.9,0,0,1-1.9-1.9,1.9,1.9,0,0,1,3.8,0A1.9,1.9,0,0,1,19.2,16.65ZM22,11V10h1v1Zm2,2H23V12h1Zm0-4h1v1H24Zm2,3H25V11h1Z"/><path class="cls-1" d="M26.1,5.55C21.9,3.35,19.8,7,19.8,7H10.2s-2.1-3.6-6.3-1.4c-3,1.6-5,16.4-2.1,16.6s5.6-6.5,5.6-6.5S10.2,21,14,16h2c3.8,5,6.6-.4,6.6-.4s2.7,6.7,5.6,6.5S29.1,7.15,26.1,5.55ZM8,11v1H7V11H6V10H7V9H8v1H9v1Zm2.8,5.7a1.9,1.9,0,0,1-1.9-1.9,2,2,0,0,1,1.9-1.9,1.9,1.9,0,0,1,0,3.8ZM14,10H12V9h2Zm2,0V9h2v1Zm3.2,6.7a1.9,1.9,0,0,1-1.9-1.9,1.9,1.9,0,0,1,3.8,0A1.9,1.9,0,0,1,19.2,16.65ZM22,11V10h1v1Zm2,2H23V12h1Zm0-4h1v1H24Zm2,3H25V11h1Z"/><path class="cls-1" d="M26.1,5.55C21.9,3.35,19.8,7,19.8,7H10.2s-2.1-3.6-6.3-1.4c-3,1.6-5,16.4-2.1,16.6s5.6-6.5,5.6-6.5S10.2,21,14,16h2c3.8,5,6.6-.4,6.6-.4s2.7,6.7,5.6,6.5S29.1,7.15,26.1,5.55ZM8,11v1H7V11H6V10H7V9H8v1H9v1Zm2.8,5.7a1.9,1.9,0,0,1-1.9-1.9,2,2,0,0,1,1.9-1.9,1.9,1.9,0,0,1,0,3.8ZM14,10H12V9h2Zm2,0V9h2v1Zm3.2,6.7a1.9,1.9,0,0,1-1.9-1.9,1.9,1.9,0,0,1,3.8,0A1.9,1.9,0,0,1,19.2,16.65ZM22,11V10h1v1Zm2,2H23V12h1Zm0-4h1v1H24Zm2,3H25V11h1Z"/></g></svg>