<?xml version="1.0" encoding="utf-8"?>
<!-- Generator: Adobe Illustrator 16.0.4, SVG Export Plug-In . SVG Version: 6.00 Build 0)  -->
<!DOCTYPE svg PUBLIC "-//W3C//DTD SVG 1.1//EN" "http://www.w3.org/Graphics/SVG/1.1/DTD/svg11.dtd">
<svg version="1.1" id="Layer_1" xmlns="http://www.w3.org/2000/svg" xmlns:xlink="http://www.w3.org/1999/xlink" x="0px" y="0px"
	 width="48px" height="48px" viewBox="0 0 48 48" enable-background="new 0 0 48 48" xml:space="preserve">
<g>
	<path fill="#5A5A5A" d="M42.1,10c1.541,0,2.9,1.26,2.9,2.8v22.4c0,1.54-1.26,2.8-2.8,2.8H5.8C4.26,38,3,36.74,3,35.2V12.8
		C3,11.26,4.26,10,5.8,10H42 M42.2,7H5.8C2.712,7,0,9.712,0,12.8v22.4C0,38.288,2.712,41,5.8,41h36.4c3.088,0,5.8-2.712,5.8-5.8
		V12.8C48,9.712,45.288,7,42.2,7L42.2,7z"/>
</g>
<path fill="none" stroke="#5A5A5A" stroke-width="2.8" stroke-linecap="round" stroke-miterlimit="10" d="M45,10L31,24
	c0,0-4.201,5.601-7,5.601c-2.801,0-7-5.601-7-5.601L3,10"/>
<g>
	
		<line fill="none" stroke="#5A5A5A" stroke-width="2.8" stroke-linecap="round" stroke-miterlimit="10" x1="3" y1="38" x2="17" y2="24"/>
	
		<line fill="none" stroke="#5A5A5A" stroke-width="2.8" stroke-linecap="round" stroke-miterlimit="10" x1="45" y1="38" x2="31" y2="24"/>
</g>
</svg>
