<?xml version="1.0" encoding="utf-8"?>
<!-- Generator: Adobe Illustrator 16.0.4, SVG Export Plug-In . SVG Version: 6.00 Build 0)  -->
<!DOCTYPE svg PUBLIC "-//W3C//DTD SVG 1.1//EN" "http://www.w3.org/Graphics/SVG/1.1/DTD/svg11.dtd">
<svg version="1.1" id="Layer_1" xmlns="http://www.w3.org/2000/svg" xmlns:xlink="http://www.w3.org/1999/xlink" x="0px" y="0px"
	 width="132px" height="264px" viewBox="0 0 132 264" enable-background="new 0 0 132 264" xml:space="preserve">
<g id="Isolation_Mode">
</g>
<g enable-background="new    ">
	<path fill="none" stroke="#0071BC" stroke-width="5.4789" stroke-miterlimit="10" d="M38.94,173.639
		c0.33-15.729,10.67-27.17,26.73-27.17c20.79,0,27.391,12.76,27.391,21.229c0,10.67-4.511,14.96-9.24,18.591
		c-4.729,3.52-9.789,6.38-10.779,12.87v4.18H58.19v-4.95c0.66-9.57,5.17-13.859,9.57-17.27c4.29-3.41,8.03-5.939,8.03-11.881
		c0-6.711-3.521-9.899-9.35-9.899c-7.92,0-11.22,6.489-11.33,14.3H38.94z"/>
</g>
<rect x="57.668" y="210.674" fill="none" stroke="#0071BC" stroke-width="4.5" stroke-miterlimit="10" width="15.77" height="15.469"/>
<g enable-background="new    ">
	<path fill="none" stroke="#EE7B00" stroke-width="5.4789" stroke-miterlimit="10" d="M38.94,41.639
		c0.33-15.73,10.67-27.17,26.73-27.17c20.79,0,27.391,12.76,27.391,21.229c0,10.67-4.511,14.96-9.24,18.591
		c-4.729,3.52-9.789,6.38-10.779,12.87v4.18H58.19v-4.95c0.66-9.57,5.17-13.86,9.57-17.27c4.29-3.41,8.03-5.94,8.03-11.881
		c0-6.71-3.521-9.899-9.35-9.899c-7.92,0-11.22,6.489-11.33,14.3H38.94z"/>
</g>
<rect x="57.668" y="78.674" fill="none" stroke="#EE7B00" stroke-width="4.5" stroke-miterlimit="10" width="15.77" height="15.469"/>
</svg>
