<?xml version="1.0" encoding="utf-8"?>
<!-- Generator: Adobe Illustrator 16.0.0, SVG Export Plug-In . SVG Version: 6.00 Build 0)  -->
<!DOCTYPE svg PUBLIC "-//W3C//DTD SVG 1.1//EN" "http://www.w3.org/Graphics/SVG/1.1/DTD/svg11.dtd">
<svg version="1.1" id="Layer_1" xmlns="http://www.w3.org/2000/svg" xmlns:xlink="http://www.w3.org/1999/xlink" x="0px" y="0px"
	 width="132px" height="264px" viewBox="0 0 132 264" enable-background="new 0 0 132 264" xml:space="preserve">
<g id="Layer_3">
	<g>
		<g>
			<g>
				<defs>
					<rect id="SVGID_1_" x="985.25" y="-817.25" width="286" height="613"/>
				</defs>
				<clipPath id="SVGID_2_">
					<use xlink:href="#SVGID_1_"  overflow="visible"/>
				</clipPath>
				<g clip-path="url(#SVGID_2_)">
					
						<image overflow="visible" enable-background="new    " width="1138" height="836" xlink:href="72B0C3638E4A21B6.png"  transform="matrix(1 0 0 1 99.25 -810.25)">
					</image>
				</g>
			</g>
		</g>
	</g>
</g>
<g id="Layer_2">
	<g>
		<g>
			<defs>
				<rect id="SVGID_3_" x="250.25" y="-753.25" width="930" height="618"/>
			</defs>
			<clipPath id="SVGID_4_">
				<use xlink:href="#SVGID_3_"  overflow="visible"/>
			</clipPath>
			<g clip-path="url(#SVGID_4_)">
				
					<image overflow="visible" enable-background="new    " width="1200" height="1100" xlink:href="72B0C3638E4A21BA.jpeg"  transform="matrix(1 0 0 1 115.25 -1035.25)">
				</image>
			</g>
		</g>
	</g>
</g>
<g id="Isolation_Mode">
	<g>
		<g>
			<defs>
				<rect id="SVGID_5_" x="-1229.75" y="214.75" width="930" height="618"/>
			</defs>
			<clipPath id="SVGID_6_">
				<use xlink:href="#SVGID_5_"  overflow="visible"/>
			</clipPath>
			<g clip-path="url(#SVGID_6_)">
				
					<image overflow="visible" enable-background="new    " width="38" height="61" xlink:href="72B0C3638E4A21BA.png"  transform="matrix(1 0 0 1 -32.582 214.75)">
				</image>
				
					<image overflow="visible" enable-background="new    " width="38" height="61" xlink:href="72B0C3638E4A21BE.png"  transform="matrix(1 0 0 1 5.418 214.75)">
				</image>
				
					<image overflow="visible" enable-background="new    " width="38" height="61" xlink:href="72B0C3638E4A21BE.png"  transform="matrix(1 0 0 1 43.418 214.75)">
				</image>
				
					<image overflow="visible" enable-background="new    " width="38" height="61" xlink:href="72B0C3638E4A21BA.png"  transform="matrix(1 0 0 1 81.418 214.75)">
				</image>
				
					<image overflow="visible" enable-background="new    " width="38" height="61" xlink:href="72B0C3638E4A21BA.png"  transform="matrix(1 0 0 1 119.418 214.75)">
				</image>
			</g>
		</g>
	</g>
</g>
<g id="Layer_1_1_">
	<path fill="none" stroke="#EE7B00" stroke-width="6" stroke-miterlimit="10" d="M66.25,34.5v57.25h5.625c0,0,14.5-7.625,32.75-7
		c-0.407-43.238,0.938-61.188,0.938-61.188S77.25,24.25,66.25,34.5z"/>
	<path fill="none" stroke="#EE7B00" stroke-width="6" stroke-miterlimit="10" d="M66.25,34.5v57.25h5.625c0,0,14-6.75,32.25-6.125
		c-0.407-43.238,4.438-58.062,4.438-58.062S77.25,24.25,66.25,34.5z"/>
	<path fill="#FFFFFF" stroke="#EE7B00" stroke-width="6" stroke-miterlimit="10" d="M66.25,34.5v57.25h5.625
		c0,0,12.875-5.875,31.125-5.25c-0.407-43.238,7.688-53.812,7.688-53.812S77.25,24.25,66.25,34.5z"/>
	<path fill="none" stroke="#EE7B00" stroke-width="6" stroke-miterlimit="10" d="M66.25,34.5v57.25h-6.375c0,0-14.5-7.625-32.75-7
		c0.407-43.238-0.562-61.188-0.562-61.188S55.25,24.25,66.25,34.5z"/>
	<path fill="none" stroke="#EE7B00" stroke-width="6" stroke-miterlimit="10" d="M66.25,34.5v57.25h-6.375c0,0-14-6.75-32.25-6.125
		c0.407-43.238-4.062-58.062-4.062-58.062S55.25,24.25,66.25,34.5z"/>
	<path fill="#FFFFFF" stroke="#EE7B00" stroke-width="6" stroke-miterlimit="10" d="M66.25,34.5v57.25h-6.375
		c0,0-12.875-5.875-31.125-5.25c0.407-43.238-7.312-53.812-7.312-53.812S55.25,24.25,66.25,34.5z"/>
	<path fill="#FFFFFF" stroke="#0071BC" stroke-width="6" stroke-miterlimit="10" d="M66.25,166.5v57.25h5.625
		c0,0,14.5-7.625,32.75-7c-0.407-43.238,0.938-61.188,0.938-61.188S77.25,156.25,66.25,166.5z"/>
	<path fill="#FFFFFF" stroke="#0071BC" stroke-width="6" stroke-miterlimit="10" d="M66.25,166.5v57.25h5.625
		c0,0,14-6.75,32.25-6.125c-0.407-43.238,4.438-58.062,4.438-58.062S77.25,156.25,66.25,166.5z"/>
	<path fill="#FFFFFF" stroke="#0071BC" stroke-width="6" stroke-miterlimit="10" d="M66.25,166.5v57.25h5.625
		c0,0,12.875-5.875,31.125-5.25c-0.407-43.238,7.688-53.812,7.688-53.812S77.25,156.25,66.25,166.5z"/>
	<path fill="#FFFFFF" stroke="#0071BC" stroke-width="6" stroke-miterlimit="10" d="M66.25,166.5v57.25h-6.375
		c0,0-14.5-7.625-32.75-7c0.407-43.238-0.562-61.188-0.562-61.188S55.25,156.25,66.25,166.5z"/>
	<path fill="#FFFFFF" stroke="#0071BC" stroke-width="6" stroke-miterlimit="10" d="M66.25,166.5v57.25h-6.375
		c0,0-14-6.75-32.25-6.125c0.407-43.238-4.062-58.062-4.062-58.062S55.25,156.25,66.25,166.5z"/>
	<path fill="#FFFFFF" stroke="#0071BC" stroke-width="6" stroke-miterlimit="10" d="M66.25,166.5v57.25h-6.375
		c0,0-12.875-5.875-31.125-5.25c0.407-43.238-7.312-53.812-7.312-53.812S55.25,156.25,66.25,166.5z"/>
</g>
</svg>
