<?xml version="1.0" encoding="utf-8"?>
<!-- Generator: Adobe Illustrator 16.0.4, SVG Export Plug-In . SVG Version: 6.00 Build 0)  -->
<!DOCTYPE svg PUBLIC "-//W3C//DTD SVG 1.1//EN" "http://www.w3.org/Graphics/SVG/1.1/DTD/svg11.dtd">
<svg version="1.1" id="Layer_1" xmlns="http://www.w3.org/2000/svg" xmlns:xlink="http://www.w3.org/1999/xlink" x="0px" y="0px"
	 width="132px" height="264px" viewBox="0 0 132 264" enable-background="new 0 0 132 264" xml:space="preserve">
<g id="Isolation_Mode">
</g>
<g>
	<path fill="#EE7B00" stroke="#EE7B00" stroke-miterlimit="10" d="M102.189,95.879H29.81V23.5h72.379V95.879z M32.81,92.879h66.379
		V26.5H32.81V92.879z"/>
</g>
<g>
	<rect x="38.998" y="21.5" fill="#EE7B00" stroke="#EE7B00" stroke-miterlimit="10" width="54.004" height="1"/>
</g>
<g>
	<polygon fill="#EE7B00" stroke="#EE7B00" stroke-miterlimit="10" points="100.782,24.849 86.484,15.954 45.515,15.954 
		31.218,24.849 30.161,23.151 44.944,13.954 87.057,13.954 101.839,23.151 	"/>
</g>
<g>
	<polygon fill="#EE7B00" stroke="#EE7B00" stroke-miterlimit="10" points="39.117,22.381 38.599,21.526 46.895,16.5 85.105,16.5 
		93.4,21.526 92.883,22.381 84.826,17.5 47.174,17.5 	"/>
</g>
<g>
	<path fill="#EE7B00" stroke="#EE7B00" stroke-miterlimit="10" d="M88.375,88.375h-44.75v-54.75h44.75V88.375z M45.625,86.375h40.75
		v-50.75h-40.75V86.375z"/>
</g>
<g>
	<rect x="39.25" y="37.875" fill="#EE7B00" stroke="#EE7B00" stroke-miterlimit="10" width="6.875" height="3.202"/>
</g>
<g>
	<rect x="39.25" y="42.4" fill="#EE7B00" stroke="#EE7B00" stroke-miterlimit="10" width="6.875" height="3.202"/>
</g>
<g>
	<rect x="39.25" y="46.924" fill="#EE7B00" stroke="#EE7B00" stroke-miterlimit="10" width="6.875" height="3.202"/>
</g>
<g>
	<rect x="39.25" y="72.124" fill="#EE7B00" stroke="#EE7B00" stroke-miterlimit="10" width="6.875" height="3.202"/>
</g>
<g>
	<rect x="39.25" y="76.648" fill="#EE7B00" stroke="#EE7B00" stroke-miterlimit="10" width="6.875" height="3.202"/>
</g>
<g>
	<rect x="39.25" y="81.173" fill="#EE7B00" stroke="#EE7B00" stroke-miterlimit="10" width="6.875" height="3.202"/>
</g>
<g>
	<path fill="#EE7B00" stroke="#EE7B00" stroke-miterlimit="10" d="M66,67.25c-3.791,0-6.875-3.084-6.875-6.875S62.209,53.5,66,53.5
		s6.875,3.084,6.875,6.875S69.791,67.25,66,67.25z M66,55.5c-2.688,0-4.875,2.187-4.875,4.875S63.312,65.25,66,65.25
		c2.688,0,4.875-2.187,4.875-4.875S68.688,55.5,66,55.5z"/>
</g>
<g>
	<path fill="#EE7B00" stroke="#EE7B00" stroke-miterlimit="10" d="M66,70.25c-5.445,0-9.875-4.43-9.875-9.875S60.555,50.5,66,50.5
		c5.445,0,9.875,4.43,9.875,9.875S71.445,70.25,66,70.25z M66,52.5c-4.342,0-7.875,3.533-7.875,7.875S61.658,68.25,66,68.25
		c4.343,0,7.875-3.533,7.875-7.875S70.343,52.5,66,52.5z"/>
</g>
<g>
	<path fill="#EE7B00" stroke="#EE7B00" stroke-miterlimit="10" d="M66,60.438V48c0,0,3.01-0.02,6.125,1.5S76.25,53,76.25,53
		L66,60.438z"/>
</g>
<g>
	<polygon fill="#EE7B00" stroke="#EE7B00" stroke-miterlimit="10" points="73,69.25 73,79.125 59,79.125 59,69.25 66.125,72.438 	
		"/>
</g>
<g>
	<path fill="#0071BC" stroke="#0071BC" stroke-miterlimit="10" d="M102.189,226.499H29.81v-72.38h72.379V226.499z M32.81,223.499
		h66.379v-66.38H32.81V223.499z"/>
</g>
<g>
	<rect x="38.998" y="152.119" fill="#0071BC" stroke="#0071BC" stroke-miterlimit="10" width="54.004" height="1"/>
</g>
<g>
	<polygon fill="#0071BC" stroke="#0071BC" stroke-miterlimit="10" points="100.782,155.469 86.484,146.573 45.515,146.573 
		31.218,155.469 30.161,153.771 44.944,144.573 87.057,144.573 101.839,153.771 	"/>
</g>
<g>
	<polygon fill="#0071BC" stroke="#0071BC" stroke-miterlimit="10" points="39.117,153.001 38.599,152.146 46.895,147.119 
		85.105,147.119 93.4,152.146 92.883,153.001 84.826,148.119 47.174,148.119 	"/>
</g>
<g>
	<path fill="#0071BC" stroke="#0071BC" stroke-miterlimit="10" d="M88.375,218.994h-44.75v-54.75h44.75V218.994z M45.625,216.994
		h40.75v-50.75h-40.75V216.994z"/>
</g>
<g>
	<rect x="39.25" y="168.494" fill="#0071BC" stroke="#0071BC" stroke-miterlimit="10" width="6.875" height="3.203"/>
</g>
<g>
	<rect x="39.25" y="173.02" fill="#0071BC" stroke="#0071BC" stroke-miterlimit="10" width="6.875" height="3.201"/>
</g>
<g>
	<rect x="39.25" y="177.544" fill="#0071BC" stroke="#0071BC" stroke-miterlimit="10" width="6.875" height="3.202"/>
</g>
<g>
	<rect x="39.25" y="202.743" fill="#0071BC" stroke="#0071BC" stroke-miterlimit="10" width="6.875" height="3.202"/>
</g>
<g>
	<rect x="39.25" y="207.268" fill="#0071BC" stroke="#0071BC" stroke-miterlimit="10" width="6.875" height="3.203"/>
</g>
<g>
	<rect x="39.25" y="211.793" fill="#0071BC" stroke="#0071BC" stroke-miterlimit="10" width="6.875" height="3.201"/>
</g>
<g>
	<path fill="#0071BC" stroke="#0071BC" stroke-miterlimit="10" d="M66,197.869c-3.791,0-6.875-3.084-6.875-6.875
		s3.084-6.875,6.875-6.875s6.875,3.084,6.875,6.875S69.791,197.869,66,197.869z M66,186.119c-2.688,0-4.875,2.188-4.875,4.875
		s2.187,4.875,4.875,4.875c2.688,0,4.875-2.188,4.875-4.875S68.688,186.119,66,186.119z"/>
</g>
<g>
	<path fill="#0071BC" stroke="#0071BC" stroke-miterlimit="10" d="M66,200.869c-5.445,0-9.875-4.43-9.875-9.875
		s4.43-9.875,9.875-9.875c5.445,0,9.875,4.43,9.875,9.875S71.445,200.869,66,200.869z M66,183.119c-4.342,0-7.875,3.533-7.875,7.875
		c0,4.343,3.533,7.875,7.875,7.875c4.343,0,7.875-3.532,7.875-7.875C73.875,186.652,70.343,183.119,66,183.119z"/>
</g>
<g>
	<path fill="#0071BC" stroke="#0071BC" stroke-miterlimit="10" d="M66,191.057v-12.438c0,0,3.01-0.02,6.125,1.5s4.125,3.5,4.125,3.5
		L66,191.057z"/>
</g>
<g>
	<polygon fill="#0071BC" stroke="#0071BC" stroke-miterlimit="10" points="73,199.869 73,209.744 59,209.744 59,199.869 
		66.125,203.057 	"/>
</g>
<rect x="-156.19" y="25" fill="none" stroke="#EE7B00" stroke-width="3" stroke-miterlimit="10" width="69.379" height="69.379"/>
<line fill="none" stroke="#EE7B00" stroke-miterlimit="10" x1="-148.502" y1="22" x2="-94.498" y2="22"/>
<polyline fill="none" stroke="#EE7B00" stroke-width="2" stroke-miterlimit="10" points="-86.189,24 -100.729,14.954 
	-142.271,14.954 -156.811,24 "/>
<polyline fill="none" stroke="#EE7B00" stroke-miterlimit="10" points="-94.358,21.954 -102.534,17 -140.465,17 -148.642,21.954 "/>
<rect x="-142.875" y="34.625" fill="none" stroke="#EE7B00" stroke-width="2" stroke-miterlimit="10" width="42.75" height="52.75"/>
<rect x="-148.25" y="37.875" fill="#EE7B00" width="6.875" height="3.202"/>
<rect x="-148.25" y="42.4" fill="#EE7B00" width="6.875" height="3.202"/>
<rect x="-148.25" y="46.924" fill="#EE7B00" width="6.875" height="3.202"/>
<rect x="-148.25" y="72.124" fill="#EE7B00" width="6.875" height="3.202"/>
<rect x="-148.25" y="76.648" fill="#EE7B00" width="6.875" height="3.202"/>
<rect x="-148.25" y="81.173" fill="#EE7B00" width="6.875" height="3.202"/>
<circle fill="none" stroke="#EE7B00" stroke-width="2" stroke-miterlimit="10" cx="-121.5" cy="60.375" r="5.875"/>
<circle fill="none" stroke="#EE7B00" stroke-width="2" stroke-miterlimit="10" cx="-121.5" cy="60.375" r="8.875"/>
<path fill="#EE7B00" d="M-121.5,60.438V48c0,0,3.01-0.02,6.125,1.5s4.125,3.5,4.125,3.5L-121.5,60.438z"/>
<polygon fill="#EE7B00" points="-114.5,69.25 -114.5,79.125 -128.5,79.125 -128.5,69.25 -121.375,72.438 "/>
</svg>
