<?xml version="1.0" encoding="utf-8"?>
<!-- Generator: Adobe Illustrator 16.0.0, SVG Export Plug-In . SVG Version: 6.00 Build 0)  -->
<!DOCTYPE svg PUBLIC "-//W3C//DTD SVG 1.1//EN" "http://www.w3.org/Graphics/SVG/1.1/DTD/svg11.dtd">
<svg version="1.1" id="Layer_1" xmlns="http://www.w3.org/2000/svg" xmlns:xlink="http://www.w3.org/1999/xlink" x="0px" y="0px"
	 width="132px" height="264px" viewBox="0 0 132 264" enable-background="new 0 0 132 264" xml:space="preserve">
<g>
	<g enable-background="new    ">
		<path fill="none" stroke="#0071BC" stroke-width="5.4789" stroke-miterlimit="10" d="M52.052,159l5.616-12h15.77l5.614,12
			l-6.074,39.389v4.95h-14.85v-4.95L52.052,159z"/>
	</g>
	
		<rect x="57.668" y="210.674" fill="none" stroke="#0071BC" stroke-width="4.5" stroke-miterlimit="10" width="15.77" height="15.469"/>
</g>
<g id="Isolation_Mode">
</g>
<g enable-background="new    ">
	<path fill="none" stroke="#F7931E" stroke-width="6" stroke-miterlimit="10" d="M161.91,41.639c0.33-15.73,10.67-27.17,26.73-27.17
		c20.79,0,27.391,12.76,27.391,21.229c0,10.67-4.511,14.96-9.24,18.591c-4.73,3.52-9.79,6.38-10.78,12.87v4.18H181.16v-4.95
		c0.66-9.57,5.17-13.86,9.57-17.27c4.29-3.41,8.03-5.94,8.03-11.881c0-6.71-3.52-9.899-9.351-9.899c-7.92,0-11.219,6.489-11.33,14.3
		H161.91z M179.621,77.938h17.27v16.94h-17.27V77.938z"/>
</g>
<rect x="136.562" y="210.674" fill="none" stroke="#0071BC" stroke-width="4.5" stroke-miterlimit="10" width="15.771" height="15.469"/>
<g enable-background="new    ">
	<path fill="none" stroke="#EE7B00" stroke-width="5.4789" stroke-miterlimit="10" d="M52.052,27l5.616-12h15.77l5.614,12
		l-6.074,39.389v4.95h-14.85v-4.95L52.052,27z"/>
</g>
<rect x="57.668" y="78.674" fill="none" stroke="#EE7B00" stroke-width="4.5" stroke-miterlimit="10" width="15.77" height="15.469"/>
</svg>
