<?xml version="1.0" encoding="utf-8"?>
<!-- Generator: Adobe Illustrator 18.1.1, SVG Export Plug-In . SVG Version: 6.00 Build 0)  -->
<svg version="1.1" id="Layer_1" xmlns="http://www.w3.org/2000/svg" xmlns:xlink="http://www.w3.org/1999/xlink" x="0px" y="0px"
	 viewBox="0 0 20 16" enable-background="new 0 0 20 16" xml:space="preserve">
<g>
	<g>
		<path fill="#0071BC" d="M10.1,15.8c-0.5,0-1-0.1-1.4-0.1C4.9,15,2.2,11.7,2.3,7.9l3.1,0c0,2.3,1.6,4.3,3.9,4.7
			c0.4,0.1,1.1,0.1,1.5,0c0,0,2.6,2.3,2.6,2.3c-0.1,0.1-0.9,0.4-2,0.6C10.9,15.7,10.5,15.8,10.1,15.8z"/>
	</g>
	<g>
		<g>
			<g>
				<g>
					<path fill="#0071BC" d="M0.7,8.9c-0.4,0-0.5-0.3-0.3-0.6l3.1-4.6c0.2-0.3,0.5-0.3,0.7,0l3,4.6C7.4,8.8,7.3,9,6.9,9L0.7,8.9z"/>
				</g>
			</g>
		</g>
	</g>
</g>
<g>
	<g>
		<path fill="#0071BC" d="M9.9,0.2c0.5,0,1,0.1,1.4,0.1c3.8,0.7,6.5,3.9,6.4,7.7l-3.1,0c0-2.3-1.6-4.3-3.9-4.7
			c-0.4-0.1-1.1-0.1-1.5,0c0,0-2.6-2.3-2.6-2.3c0.1-0.1,0.9-0.4,2-0.6C9.1,0.3,9.5,0.2,9.9,0.2z"/>
	</g>
	<g>
		<g>
			<g>
				<g>
					<path fill="#0071BC" d="M19.3,7.1c0.4,0,0.5,0.3,0.3,0.6l-3.1,4.6c-0.2,0.3-0.5,0.3-0.7,0l-3-4.6C12.6,7.2,12.7,7,13.1,7
						L19.3,7.1z"/>
				</g>
			</g>
		</g>
	</g>
</g>
</svg>
